# Blender 5.0.1
# www.blender.org
o Exporting_sf.146
o Instrument_Cluster_Gauge_Small
v 0.002925 0.000000 0.008096
v -0.004180 0.000000 0.000000
v 0.002925 -0.002095 0.007820
v 0.002925 -0.004048 0.007011
v 0.002925 -0.005725 0.005725
v 0.002925 -0.007011 0.004048
v 0.002925 -0.007820 0.002095
v 0.002925 -0.008096 -0.000000
v 0.002925 -0.007820 -0.002095
v 0.002925 -0.007011 -0.004048
v 0.002925 -0.005725 -0.005725
v 0.002925 -0.004048 -0.007011
v 0.002925 -0.002095 -0.007820
v 0.002925 0.000000 -0.008096
v 0.002925 0.002095 -0.007820
v 0.002925 0.004048 -0.007011
v 0.002925 0.005725 -0.005725
v 0.002925 0.007011 -0.004048
v 0.002925 0.007820 -0.002095
v 0.002925 0.008096 -0.000000
v 0.002925 0.007820 0.002095
v 0.002925 0.007011 0.004048
v 0.002925 0.005725 0.005725
v 0.002925 0.004048 0.007011
v 0.002925 0.002095 0.007820
v -0.002420 -0.000000 0.007406
v -0.003473 -0.000000 0.006328
v -0.003473 -0.001638 0.006112
v -0.002420 -0.001917 0.007154
v -0.003473 -0.003164 0.005480
v -0.002420 -0.003703 0.006414
v -0.003473 -0.004475 0.004475
v -0.002420 -0.005237 0.005237
v -0.003473 -0.005480 0.003164
v -0.002420 -0.006414 0.003703
v -0.003473 -0.006112 0.001638
v -0.002420 -0.007154 0.001917
v -0.003473 -0.006328 -0.000000
v -0.002420 -0.007406 -0.000000
v -0.003473 -0.006112 -0.001638
v -0.002420 -0.007154 -0.001917
v -0.003473 -0.005480 -0.003164
v -0.002420 -0.006414 -0.003703
v -0.003473 -0.004475 -0.004475
v -0.002420 -0.005237 -0.005237
v -0.003473 -0.003164 -0.005480
v -0.002420 -0.003703 -0.006414
v -0.003473 -0.001638 -0.006112
v -0.002420 -0.001917 -0.007154
v -0.003473 0.000000 -0.006328
v -0.002420 0.000000 -0.007406
v -0.003473 0.001638 -0.006112
v -0.002420 0.001917 -0.007154
v -0.003473 0.003164 -0.005480
v -0.002420 0.003703 -0.006414
v -0.003473 0.004475 -0.004475
v -0.002420 0.005237 -0.005237
v -0.003473 0.005480 -0.003164
v -0.002420 0.006414 -0.003703
v -0.003473 0.006112 -0.001638
v -0.002420 0.007154 -0.001917
v -0.003473 0.006328 0.000000
v -0.002420 0.007406 0.000000
v -0.003473 0.006112 0.001638
v -0.002420 0.007154 0.001917
v -0.003473 0.005480 0.003164
v -0.002420 0.006414 0.003703
v -0.003473 0.004475 0.004475
v -0.002420 0.005237 0.005237
v -0.003473 0.003164 0.005480
v -0.002420 0.003703 0.006414
v -0.003473 0.001638 0.006112
v -0.002420 0.001917 0.007154
vn -0.1282 -0.2566 0.9580
vn -0.9938 -0.0000 0.1112
vn -0.9938 -0.0288 0.1074
vn -0.1282 -0.4958 0.8589
vn -0.9938 -0.0557 0.0962
vn -0.1282 -0.7012 0.7013
vn -0.9938 -0.0786 0.0786
vn -0.1282 -0.8589 0.4959
vn -0.9938 -0.0963 0.0556
vn -0.1282 -0.9579 0.2567
vn -0.9938 -0.1074 0.0287
vn -0.1282 -0.9918 0.0001
vn -0.9938 -0.1112 -0.0001
vn -0.1282 -0.9580 -0.2566
vn -0.9938 -0.1074 -0.0289
vn -0.1282 -0.8589 -0.4958
vn -0.9938 -0.0963 -0.0555
vn -0.1282 -0.7013 -0.7012
vn -0.9938 -0.0787 -0.0785
vn -0.1282 -0.4959 -0.8589
vn -0.9938 -0.0557 -0.0962
vn -0.1282 -0.2567 -0.9579
vn -0.9938 -0.0286 -0.1074
vn -0.1282 -0.0001 -0.9918
vn -0.9938 0.0002 -0.1112
vn -0.1282 0.2566 -0.9580
vn -0.9938 0.0289 -0.1074
vn -0.1282 0.4958 -0.8589
vn -0.9938 0.0556 -0.0963
vn -0.1282 0.7012 -0.7013
vn -0.9938 0.0786 -0.0786
vn -0.1282 0.8589 -0.4959
vn -0.9938 0.0964 -0.0554
vn -0.1282 0.9579 -0.2567
vn -0.9938 0.1074 -0.0287
vn -0.1282 0.9918 -0.0001
vn -0.9938 0.1112 -0.0000
vn -0.1282 0.9580 0.2566
vn -0.9938 0.1074 0.0289
vn -0.1282 0.8589 0.4958
vn -0.9938 0.0963 0.0556
vn -0.1282 0.7013 0.7012
vn -0.9938 0.0786 0.0786
vn -0.1282 0.4959 0.8589
vn -0.9938 0.0555 0.0963
vn -0.1282 0.2567 0.9579
vn -0.9938 0.0287 0.1074
vn -0.1282 0.0001 0.9918
vn -0.1281 0.2567 0.9580
vn -0.1281 -0.0000 0.9918
vn -1.0000 -0.0000 -0.0000
vn -0.1281 -0.2567 0.9580
vn -0.1281 -0.4959 0.8589
vn -0.1281 -0.7013 0.7013
vn -0.1281 -0.8589 0.4959
vn -0.1281 -0.9580 0.2567
vn -0.1281 -0.9918 -0.0000
vn -0.1281 -0.9580 -0.2567
vn -0.1281 -0.8589 -0.4959
vn -0.1281 -0.7013 -0.7013
vn -0.1281 -0.4959 -0.8589
vn -0.1281 -0.2567 -0.9580
vn -0.1281 -0.0000 -0.9918
vn -0.1281 0.2567 -0.9580
vn -0.1281 0.4959 -0.8589
vn -0.1281 0.7013 -0.7013
vn -0.1281 0.8589 -0.4959
vn -0.1281 0.9580 -0.2567
vn -0.1281 0.9918 -0.0000
vn -0.1281 0.9580 0.2567
vn -0.1281 0.8589 0.4959
vn -0.1281 0.7013 0.7013
vn -0.1281 0.4959 0.8589
vt 0.041667 -0.002420
vt 0.002733 -0.003473
vt 0.041667 -0.003473
vt 0.083333 -0.002420
vt 0.083333 -0.003473
vt 0.125000 -0.002420
vt 0.125000 -0.003473
vt 0.166667 -0.002420
vt 0.166667 -0.003473
vt 0.208333 -0.002420
vt 0.208333 -0.003473
vt 0.250000 -0.002420
vt 0.250000 -0.003473
vt 0.291667 -0.002420
vt 0.291667 -0.003473
vt 0.333333 -0.002420
vt 0.333333 -0.003473
vt 0.375000 -0.002420
vt 0.375000 -0.003473
vt 0.416667 -0.002420
vt 0.416667 -0.003473
vt 0.458333 -0.002420
vt 0.458333 -0.003473
vt 0.500000 -0.002420
vt 0.500000 -0.003473
vt 0.541667 -0.002420
vt 0.541667 -0.003473
vt 0.583333 -0.002420
vt 0.583333 -0.003473
vt 0.625000 -0.002420
vt 0.625000 -0.003473
vt 0.666667 -0.002420
vt 0.666667 -0.003473
vt 0.708333 -0.002420
vt 0.708333 -0.003473
vt 0.750000 -0.002420
vt 0.750000 -0.003473
vt 0.791667 -0.002420
vt 0.791667 -0.003473
vt 0.833333 -0.002420
vt 0.833333 -0.003473
vt 0.875000 -0.002420
vt 0.875000 -0.003473
vt 0.916667 -0.002420
vt 0.916667 -0.003473
vt 0.958333 -0.002420
vt 0.958333 -0.003473
vt 1.000000 -0.002420
vt 0.997267 -0.003473
vt 0.958333 0.002925
vt 1.000000 0.002925
vt 0.020833 -0.004180
vt 0.000000 0.002925
vt 0.041667 0.002925
vt 0.979167 -0.004180
vt 0.083333 0.002925
vt 0.062500 -0.004180
vt 0.125000 0.002925
vt 0.104167 -0.004180
vt 0.166667 0.002925
vt 0.145833 -0.004180
vt 0.208333 0.002925
vt 0.187500 -0.004180
vt 0.250000 0.002925
vt 0.229167 -0.004180
vt 0.291667 0.002925
vt 0.270833 -0.004180
vt 0.333333 0.002925
vt 0.312500 -0.004180
vt 0.375000 0.002925
vt 0.354167 -0.004180
vt 0.416667 0.002925
vt 0.395833 -0.004180
vt 0.458333 0.002925
vt 0.437500 -0.004180
vt 0.500000 0.002925
vt 0.479167 -0.004180
vt 0.541667 0.002925
vt 0.520833 -0.004180
vt 0.583333 0.002925
vt 0.562500 -0.004180
vt 0.625000 0.002925
vt 0.604167 -0.004180
vt 0.666667 0.002925
vt 0.645833 -0.004180
vt 0.708333 0.002925
vt 0.687500 -0.004180
vt 0.750000 0.002925
vt 0.729167 -0.004180
vt 0.791667 0.002925
vt 0.770833 -0.004180
vt 0.833333 0.002925
vt 0.812500 -0.004180
vt 0.875000 0.002925
vt 0.854167 -0.004180
vt 0.916667 0.002925
vt 0.895833 -0.004180
vt 0.937500 -0.004180
vt 0.000000 -0.002420
s 1
f 29/1/1 27/2/2 28/3/3
f 31/4/4 28/3/3 30/5/5
f 33/6/6 30/5/5 32/7/7
f 35/8/8 32/7/7 34/9/9
f 37/10/10 34/9/9 36/11/11
f 39/12/12 36/11/11 38/13/13
f 41/14/14 38/13/13 40/15/15
f 43/16/16 40/15/15 42/17/17
f 45/18/18 42/17/17 44/19/19
f 47/20/20 44/19/19 46/21/21
f 49/22/22 46/21/21 48/23/23
f 51/24/24 48/23/23 50/25/25
f 53/26/26 50/25/25 52/27/27
f 55/28/28 52/27/27 54/29/29
f 57/30/30 54/29/29 56/31/31
f 59/32/32 56/31/31 58/33/33
f 61/34/34 58/33/33 60/35/35
f 63/36/36 60/35/35 62/37/37
f 65/38/38 62/37/37 64/39/39
f 67/40/40 64/39/39 66/41/41
f 69/42/42 66/41/41 68/43/43
f 71/44/44 68/43/43 70/45/45
f 73/46/46 70/45/45 72/47/47
f 26/48/48 72/47/47 27/49/2
f 25/50/49 26/48/48 1/51/50
f 27/2/2 2/52/51 28/3/3
f 1/53/50 29/1/1 3/54/52
f 72/47/47 2/55/51 27/49/2
f 3/54/52 31/4/4 4/56/53
f 28/3/3 2/57/51 30/5/5
f 4/56/53 33/6/6 5/58/54
f 30/5/5 2/59/51 32/7/7
f 5/58/54 35/8/8 6/60/55
f 32/7/7 2/61/51 34/9/9
f 6/60/55 37/10/10 7/62/56
f 34/9/9 2/63/51 36/11/11
f 7/62/56 39/12/12 8/64/57
f 36/11/11 2/65/51 38/13/13
f 8/64/57 41/14/14 9/66/58
f 38/13/13 2/67/51 40/15/15
f 9/66/58 43/16/16 10/68/59
f 40/15/15 2/69/51 42/17/17
f 10/68/59 45/18/18 11/70/60
f 42/17/17 2/71/51 44/19/19
f 11/70/60 47/20/20 12/72/61
f 44/19/19 2/73/51 46/21/21
f 12/72/61 49/22/22 13/74/62
f 46/21/21 2/75/51 48/23/23
f 13/74/62 51/24/24 14/76/63
f 48/23/23 2/77/51 50/25/25
f 14/76/63 53/26/26 15/78/64
f 50/25/25 2/79/51 52/27/27
f 15/78/64 55/28/28 16/80/65
f 52/27/27 2/81/51 54/29/29
f 16/80/65 57/30/30 17/82/66
f 54/29/29 2/83/51 56/31/31
f 17/82/66 59/32/32 18/84/67
f 56/31/31 2/85/51 58/33/33
f 18/84/67 61/34/34 19/86/68
f 58/33/33 2/87/51 60/35/35
f 19/86/68 63/36/36 20/88/69
f 60/35/35 2/89/51 62/37/37
f 20/88/69 65/38/38 21/90/70
f 62/37/37 2/91/51 64/39/39
f 21/90/70 67/40/40 22/92/71
f 64/39/39 2/93/51 66/41/41
f 22/92/71 69/42/42 23/94/72
f 66/41/41 2/95/51 68/43/43
f 23/94/72 71/44/44 24/96/73
f 68/43/43 2/97/51 70/45/45
f 24/96/73 73/46/46 25/50/49
f 70/45/45 2/98/51 72/47/47
f 29/1/1 26/99/48 27/2/2
f 31/4/4 29/1/1 28/3/3
f 33/6/6 31/4/4 30/5/5
f 35/8/8 33/6/6 32/7/7
f 37/10/10 35/8/8 34/9/9
f 39/12/12 37/10/10 36/11/11
f 41/14/14 39/12/12 38/13/13
f 43/16/16 41/14/14 40/15/15
f 45/18/18 43/16/16 42/17/17
f 47/20/20 45/18/18 44/19/19
f 49/22/22 47/20/20 46/21/21
f 51/24/24 49/22/22 48/23/23
f 53/26/26 51/24/24 50/25/25
f 55/28/28 53/26/26 52/27/27
f 57/30/30 55/28/28 54/29/29
f 59/32/32 57/30/30 56/31/31
f 61/34/34 59/32/32 58/33/33
f 63/36/36 61/34/34 60/35/35
f 65/38/38 63/36/36 62/37/37
f 67/40/40 65/38/38 64/39/39
f 69/42/42 67/40/40 66/41/41
f 71/44/44 69/42/42 68/43/43
f 73/46/46 71/44/44 70/45/45
f 26/48/48 73/46/46 72/47/47
f 25/50/49 73/46/46 26/48/48
f 1/53/50 26/99/48 29/1/1
f 3/54/52 29/1/1 31/4/4
f 4/56/53 31/4/4 33/6/6
f 5/58/54 33/6/6 35/8/8
f 6/60/55 35/8/8 37/10/10
f 7/62/56 37/10/10 39/12/12
f 8/64/57 39/12/12 41/14/14
f 9/66/58 41/14/14 43/16/16
f 10/68/59 43/16/16 45/18/18
f 11/70/60 45/18/18 47/20/20
f 12/72/61 47/20/20 49/22/22
f 13/74/62 49/22/22 51/24/24
f 14/76/63 51/24/24 53/26/26
f 15/78/64 53/26/26 55/28/28
f 16/80/65 55/28/28 57/30/30
f 17/82/66 57/30/30 59/32/32
f 18/84/67 59/32/32 61/34/34
f 19/86/68 61/34/34 63/36/36
f 20/88/69 63/36/36 65/38/38
f 21/90/70 65/38/38 67/40/40
f 22/92/71 67/40/40 69/42/42
f 23/94/72 69/42/42 71/44/44
f 24/96/73 71/44/44 73/46/46
