# Blender 5.0.1
# www.blender.org
o Exporting_sf.113
v -0.470812 1.932287 1.042090
v -0.468038 1.932287 1.042090
v -0.467941 1.932113 1.041670
v -0.470810 1.932113 1.041670
v -0.467461 1.932142 1.041740
v -0.467164 1.932052 1.041522
v -0.466333 1.932046 1.041507
v -0.465422 1.932076 1.041579
v -0.464534 1.932160 1.041783
v -0.463770 1.932319 1.042167
v -0.463235 1.932572 1.042776
v -0.463029 1.932936 1.043656
v -0.463158 1.933243 1.044396
v -0.463537 1.933492 1.044997
v -0.464140 1.933682 1.045456
v -0.464938 1.933813 1.045772
v -0.465906 1.933883 1.045942
v -0.467015 1.933892 1.045964
v -0.467364 1.933804 1.045751
v -0.467477 1.933677 1.045444
v -0.467573 1.933549 1.045135
v -0.467651 1.933416 1.044815
v -0.467709 1.933277 1.044479
v -0.467745 1.933129 1.044121
v -0.467757 1.932968 1.043734
v -0.467747 1.932798 1.043324
v -0.467719 1.932648 1.042960
v -0.467675 1.932511 1.042631
v -0.467616 1.932385 1.042325
v -0.467544 1.932263 1.042032
v -0.467096 1.932263 1.042031
v -0.466911 1.932206 1.041894
v -0.466227 1.932207 1.041896
v -0.465463 1.932230 1.041951
v -0.464709 1.932295 1.042108
v -0.464057 1.932422 1.042415
v -0.463597 1.932631 1.042919
v -0.463420 1.932941 1.043668
v -0.463560 1.933230 1.044366
v -0.463953 1.933445 1.044886
v -0.464540 1.933595 1.045247
v -0.465264 1.933688 1.045471
v -0.466069 1.933733 1.045579
v -0.466895 1.933738 1.045591
v -0.467104 1.933685 1.045464
v -0.467160 1.933611 1.045286
v -0.467218 1.933515 1.045053
v -0.467274 1.933399 1.044774
v -0.467322 1.933267 1.044456
v -0.467355 1.933123 1.044108
v -0.467367 1.932970 1.043738
v -0.467358 1.932820 1.043376
v -0.467332 1.932691 1.043063
v -0.467291 1.932576 1.042787
v -0.467236 1.932470 1.042532
v -0.467171 1.932368 1.042284
v -0.470812 1.933825 1.045803
v -0.467955 1.933825 1.045803
v -0.468052 1.933651 1.045382
v -0.470810 1.933651 1.045382
v -0.470812 1.933450 1.044897
v -0.468108 1.933450 1.044897
v -0.468157 1.933276 1.044476
v -0.470810 1.933276 1.044476
v -0.470812 1.933062 1.043960
v -0.468158 1.933062 1.043960
v -0.468158 1.932888 1.043539
v -0.470810 1.932888 1.043539
v -0.470812 1.932674 1.043023
v -0.468137 1.932674 1.043023
v -0.468101 1.932500 1.042603
v -0.470810 1.932500 1.042603
vn -0.0000 -0.9240 0.3824
vn -0.0000 -0.9236 0.3833
vn 0.0001 -0.9241 0.3822
vn -0.0000 -0.9238 0.3829
vn -0.0000 -0.9240 0.3825
vn -0.0000 -0.9240 0.3823
vn -0.0000 -0.9238 0.3828
vn 0.0001 -0.9240 0.3824
vn 0.0002 -0.9240 0.3824
vn -0.0001 -0.9240 0.3823
vn 0.0001 -0.9239 0.3827
vn 0.0001 -0.9240 0.3825
vn -0.0002 -0.9240 0.3824
vn 0.0001 -0.9241 0.3821
vn -0.0000 -0.9239 0.3825
vn -0.0000 -0.9241 0.3821
vn -0.0001 -0.9240 0.3824
vn 0.0001 -0.9239 0.3825
vn -0.0000 -0.9241 0.3823
vn -0.0000 -0.9239 0.3827
vn -0.0000 -0.9239 0.3826
vt 0.084507 0.000000
vt 0.450704 0.000000
vt 0.436620 0.000000
vt 0.943662 0.000000
vt 0.915493 0.000000
vt 0.901408 0.000000
vt 0.619718 0.000000
vt 0.605634 0.000000
vt 0.253521 0.000000
vt 0.830986 0.000000
vt 0.802817 0.000000
vt 0.788732 0.000000
vt 1.000000 0.000000
vt 0.971831 0.000000
vt 0.957747 0.000000
vt 0.887324 0.000000
vt 0.859155 0.000000
vt 0.845070 0.000000
vt 0.042254 0.000000
vt 0.014085 0.000000
vt 0.000000 0.000000
vt 0.154930 0.000000
vt 0.169014 0.000000
vt 0.521127 0.000000
vt 0.183099 0.000000
vt 0.535211 0.000000
vt 0.197183 0.000000
vt 0.549296 0.000000
vt 0.211268 0.000000
vt 0.563380 0.000000
vt 0.225352 0.000000
vt 0.577465 0.000000
vt 0.239437 0.000000
vt 0.591549 0.000000
vt 0.140845 0.000000
vt 0.112676 0.000000
vt 0.126761 0.000000
vt 0.492958 0.000000
vt 0.507042 0.000000
vt 0.098592 0.000000
vt 0.478873 0.000000
vt 0.056338 0.000000
vt 0.070423 0.000000
vt 0.422535 0.000000
vt 0.394366 0.000000
vt 0.408451 0.000000
vt 0.774648 0.000000
vt 0.366197 0.000000
vt 0.380282 0.000000
vt 0.746479 0.000000
vt 0.760563 0.000000
vt 0.338028 0.000000
vt 0.352113 0.000000
vt 0.718310 0.000000
vt 0.732394 0.000000
vt 0.309859 0.000000
vt 0.323944 0.000000
vt 0.690141 0.000000
vt 0.704225 0.000000
vt 0.281690 0.000000
vt 0.295775 0.000000
vt 0.661972 0.000000
vt 0.676056 0.000000
vt 0.267606 0.000000
vt 0.633803 0.000000
vt 0.647887 0.000000
vt 0.464789 0.000000
vt 0.929577 0.000000
vt 0.816901 0.000000
vt 0.985915 0.000000
vt 0.873239 0.000000
vt 0.028169 0.000000
s 0
f 7/1/1 33/2/1 32/3/1
f 68/4/2 66/5/2 65/6/2
f 45/7/3 44/8/3 19/9/3
f 60/10/4 58/11/4 57/12/4
f 72/13/5 70/14/5 69/15/5
f 64/16/6 62/17/6 61/18/6
f 4/19/7 2/20/7 1/21/7
f 12/22/6 13/23/6 38/24/6
f 13/23/8 14/25/8 39/26/8
f 14/25/7 15/27/7 40/28/7
f 15/27/9 16/29/9 41/30/9
f 16/29/10 17/31/10 42/32/10
f 17/31/1 18/33/1 43/34/1
f 42/32/6 17/31/6 43/34/6
f 18/33/1 19/9/1 43/34/1
f 15/27/11 41/30/11 40/28/11
f 11/35/1 12/22/1 38/24/1
f 13/23/5 39/26/5 38/24/5
f 9/36/8 10/37/8 36/38/8
f 10/37/12 11/35/12 37/39/12
f 36/38/8 10/37/8 37/39/8
f 7/1/13 8/40/13 33/2/13
f 8/40/3 9/36/3 35/41/3
f 5/42/1 6/43/1 31/44/1
f 6/43/8 7/1/8 32/3/8
f 29/45/14 30/46/14 56/47/14
f 30/46/15 5/42/15 31/44/15
f 27/48/1 28/49/1 54/50/1
f 28/49/1 29/45/1 55/51/1
f 54/50/6 28/49/6 55/51/6
f 25/52/1 26/53/1 52/54/1
f 26/53/1 27/48/1 53/55/1
f 52/54/1 26/53/1 53/55/1
f 23/56/8 24/57/8 50/58/8
f 24/57/1 25/52/1 51/59/1
f 50/58/1 24/57/1 51/59/1
f 21/60/5 22/61/5 48/62/5
f 22/61/1 23/56/1 49/63/1
f 45/7/1 20/64/1 46/65/1
f 20/64/16 21/60/16 46/65/16
f 22/61/1 49/63/1 48/62/1
f 30/46/5 31/44/5 56/47/5
f 6/43/17 32/3/17 31/44/17
f 16/29/6 42/32/6 41/30/6
f 23/56/18 50/58/18 49/63/18
f 47/66/1 46/65/1 21/60/1
f 48/62/6 47/66/6 21/60/6
f 14/25/17 40/28/17 39/26/17
f 51/59/6 25/52/6 52/54/6
f 11/35/9 38/24/9 37/39/9
f 53/55/5 27/48/5 54/50/5
f 9/36/19 36/38/19 35/41/19
f 8/40/20 35/41/20 34/67/20
f 8/40/1 34/67/1 33/2/1
f 56/47/1 55/51/1 29/45/1
f 68/4/21 67/68/21 66/5/21
f 19/9/21 20/64/21 45/7/21
f 44/8/5 43/34/5 19/9/5
f 60/10/20 59/69/20 58/11/20
f 72/13/16 71/70/16 70/14/16
f 64/16/21 63/71/21 62/17/21
f 4/19/1 3/72/1 2/20/1
