# Blender 5.0.1
# www.blender.org
o Exporting_sf.129
v -0.517098 1.954214 1.074423
v -0.520629 1.955544 1.077634
v -0.517098 1.956904 1.080917
v -0.517098 1.956068 1.078897
v -0.513972 1.956068 1.078897
v -0.513972 1.954985 1.076285
v -0.517098 1.954985 1.076285
vn -0.0000 -0.9239 0.3827
vn -0.0000 -0.9239 0.3826
vn -0.0000 -0.9238 0.3828
vt 1.000000 0.000000
vt 0.500000 0.000000
vt 0.166667 0.000000
vt 0.833333 0.000000
vt 0.666667 0.000000
vt 0.333333 0.000000
vt 0.000000 0.000000
s 0
f 7/1/1 4/2/1 2/3/1
f 7/1/2 6/4/2 5/5/2
f 4/2/1 3/6/1 2/3/1
f 7/1/3 5/5/3 4/2/3
f 2/3/1 1/7/1 7/1/1
