# Blender 5.0.1
# www.blender.org
o Exporting_sf.115
v -0.377197 1.924888 1.006733
v -0.374726 1.924888 1.006733
v -0.374428 1.924932 1.006840
v -0.374275 1.925026 1.007065
v -0.374275 1.925259 1.007628
v -0.373969 1.925259 1.007628
v -0.373969 1.925053 1.007132
v -0.373210 1.925053 1.007132
v -0.372756 1.925406 1.007982
v -0.372756 1.926005 1.009429
v -0.373068 1.926374 1.010319
v -0.373969 1.926374 1.010319
v -0.373969 1.926114 1.009693
v -0.374275 1.926114 1.009693
v -0.374275 1.926374 1.010319
v -0.374948 1.926374 1.010319
v -0.375118 1.926446 1.010494
v -0.375118 1.926593 1.010850
v -0.375268 1.926649 1.010985
v -0.376678 1.926649 1.010985
v -0.376678 1.926745 1.011217
v -0.375862 1.926745 1.011217
v -0.375862 1.926863 1.011500
v -0.378478 1.926863 1.011500
v -0.378478 1.926745 1.011217
v -0.377645 1.926745 1.011217
v -0.377645 1.926649 1.010985
v -0.378683 1.926649 1.010985
v -0.378936 1.926580 1.010818
v -0.378936 1.926489 1.010599
v -0.379045 1.926451 1.010506
v -0.379523 1.926451 1.010506
v -0.379771 1.926330 1.010213
v -0.379771 1.926068 1.009582
v -0.380147 1.926068 1.009582
v -0.380147 1.926467 1.010544
v -0.380637 1.926467 1.010544
v -0.380637 1.926103 1.009666
v -0.380434 1.925978 1.009364
v -0.380434 1.925528 1.008277
v -0.380193 1.925528 1.008277
v -0.380193 1.925897 1.009170
v -0.379771 1.925897 1.009170
v -0.379771 1.925359 1.007870
v -0.379510 1.925274 1.007665
v -0.378779 1.925274 1.007665
v -0.378260 1.925198 1.007481
v -0.377688 1.924979 1.006953
v -0.379429 1.926289 1.010115
v -0.379312 1.926338 1.010233
v -0.378905 1.926338 1.010233
v -0.378674 1.926426 1.010445
v -0.378674 1.926484 1.010587
v -0.378563 1.926522 1.010677
v -0.375647 1.926522 1.010677
v -0.375532 1.926493 1.010608
v -0.375532 1.926378 1.010331
v -0.375134 1.926229 1.009971
v -0.374552 1.926229 1.009971
v -0.374552 1.926003 1.009425
v -0.373755 1.926003 1.009425
v -0.373755 1.926221 1.009951
v -0.373310 1.926221 1.009951
v -0.373143 1.926002 1.009423
v -0.373143 1.925402 1.007975
v -0.373340 1.925191 1.007465
v -0.373717 1.925191 1.007465
v -0.373717 1.925414 1.008003
v -0.374552 1.925414 1.008003
v -0.374552 1.925114 1.007279
v -0.374652 1.925060 1.007147
v -0.374848 1.925039 1.007098
v -0.377142 1.925039 1.007098
v -0.377510 1.925103 1.007252
v -0.378079 1.925321 1.007777
v -0.378664 1.925404 1.007979
v -0.379273 1.925404 1.007979
v -0.379429 1.925457 1.008105
vn -0.0000 -0.9238 0.3829
vn 0.0002 -0.9237 0.3830
vn -0.0000 -0.9238 0.3828
vn 0.0001 -0.9237 0.3830
vn -0.0001 -0.9238 0.3828
vn -0.0000 -0.9239 0.3827
vn -0.0000 -0.9239 0.3826
vn 0.0001 -0.9239 0.3827
vn 0.0001 -0.9237 0.3832
vn -0.0000 -0.9237 0.3830
vn 0.0002 -0.9238 0.3828
vn -0.0000 -0.9238 0.3830
vn -0.0002 -0.9238 0.3828
vn -0.0001 -0.9239 0.3827
vn 0.0001 -0.9238 0.3828
vn 0.0001 -0.9237 0.3831
vn -0.0002 -0.9239 0.3827
vn 0.0002 -0.9238 0.3829
vn -0.0000 -0.9237 0.3831
vn 0.0001 -0.9238 0.3829
vn 0.0002 -0.9239 0.3826
vn 0.0002 -0.9238 0.3830
vn -0.0001 -0.9237 0.3830
vn -0.0001 -0.9239 0.3826
vt 0.701299 0.000000
vt 0.233766 0.000000
vt 0.246753 0.000000
vt 0.857143 0.000000
vt 0.870130 0.000000
vt 0.064935 0.000000
vt 0.649351 0.000000
vt 0.662338 0.000000
vt 0.389610 0.000000
vt 0.675325 0.000000
vt 0.376623 0.000000
vt 0.636364 0.000000
vt 0.402597 0.000000
vt 0.415584 0.000000
vt 0.688312 0.000000
vt 0.363636 0.000000
vt 0.350649 0.000000
vt 0.337662 0.000000
vt 0.298701 0.000000
vt 0.311688 0.000000
vt 0.324675 0.000000
vt 0.714286 0.000000
vt 0.727273 0.000000
vt 0.207792 0.000000
vt 0.740260 0.000000
vt 0.194805 0.000000
vt 0.259740 0.000000
vt 0.220779 0.000000
vt 0.272727 0.000000
vt 0.285714 0.000000
vt 0.948052 0.000000
vt 0.961039 0.000000
vt 0.597403 0.000000
vt 0.974026 0.000000
vt 0.987013 0.000000
vt 0.584416 0.000000
vt 0.935065 0.000000
vt 0.610390 0.000000
vt 0.753247 0.000000
vt 0.103896 0.000000
vt 0.116883 0.000000
vt 0.818182 0.000000
vt 0.129870 0.000000
vt 0.805195 0.000000
vt 0.077922 0.000000
vt 0.090909 0.000000
vt 0.025974 0.000000
vt 0.038961 0.000000
vt 0.909091 0.000000
vt 0.051948 0.000000
vt 0.896104 0.000000
vt 0.012987 0.000000
vt 0.000000 0.000000
vt 0.922078 0.000000
vt 0.181818 0.000000
vt 0.623377 0.000000
vt 0.428571 0.000000
vt 1.000000 0.000000
vt 0.545455 0.000000
vt 0.441558 0.000000
vt 0.454545 0.000000
vt 0.480519 0.000000
vt 0.467532 0.000000
vt 0.168831 0.000000
vt 0.766234 0.000000
vt 0.493506 0.000000
vt 0.506494 0.000000
vt 0.532468 0.000000
vt 0.519481 0.000000
vt 0.779221 0.000000
vt 0.155844 0.000000
vt 0.792208 0.000000
vt 0.558442 0.000000
vt 0.571429 0.000000
vt 0.142857 0.000000
vt 0.831169 0.000000
vt 0.844156 0.000000
vt 0.883117 0.000000
s 0
f 55/1/1 19/2/1 20/3/1
f 67/4/1 68/5/1 6/6/1
f 51/7/2 52/8/2 31/9/2
f 52/8/3 53/10/3 30/11/3
f 31/9/3 52/8/3 30/11/3
f 50/12/1 51/7/1 31/9/1
f 32/13/4 33/14/4 50/12/4
f 31/9/1 32/13/1 50/12/1
f 53/10/5 54/15/5 29/16/5
f 30/11/1 53/10/1 29/16/1
f 28/17/1 29/16/1 54/15/1
f 27/18/6 28/17/6 54/15/6
f 27/18/1 54/15/1 20/3/1
f 54/15/7 55/1/7 20/3/7
f 24/19/1 25/20/1 26/21/1
f 26/21/1 27/18/1 20/3/1
f 56/22/8 57/23/8 17/24/8
f 57/23/9 58/25/9 16/26/9
f 24/19/10 26/21/10 21/27/10
f 57/23/3 16/26/3 17/24/3
f 55/1/3 56/22/3 19/2/3
f 17/24/1 18/28/1 56/22/1
f 18/28/11 19/2/11 56/22/11
f 22/29/7 23/30/7 21/27/7
f 23/30/3 24/19/3 21/27/3
f 20/3/12 21/27/12 26/21/12
f 74/31/13 75/32/13 47/33/13
f 75/32/6 76/34/6 47/33/6
f 76/34/12 77/35/12 46/36/12
f 47/33/1 76/34/1 46/36/1
f 73/37/1 74/31/1 48/38/1
f 16/26/6 58/25/6 59/39/6
f 9/40/14 10/41/14 64/42/14
f 10/41/15 11/43/15 63/44/15
f 64/42/16 10/41/16 63/44/16
f 6/6/3 7/45/3 67/4/3
f 7/45/1 8/46/1 67/4/1
f 3/47/12 4/48/12 71/49/12
f 4/48/17 5/50/17 70/51/17
f 2/52/18 3/47/18 71/49/18
f 4/48/1 70/51/1 71/49/1
f 48/38/3 1/53/3 73/37/3
f 1/53/19 2/52/19 72/54/19
f 73/37/19 1/53/19 72/54/19
f 15/55/3 16/26/3 59/39/3
f 49/56/20 50/12/20 33/14/20
f 49/56/1 33/14/1 34/57/1
f 78/58/10 49/56/10 43/59/10
f 49/56/11 34/57/11 43/59/11
f 35/60/6 36/61/6 38/62/6
f 36/61/3 37/63/3 38/62/3
f 15/55/1 59/39/1 14/64/1
f 59/39/21 60/65/21 14/64/21
f 39/66/11 40/67/11 42/68/11
f 40/67/10 41/69/10 42/68/10
f 35/60/13 38/62/13 39/66/13
f 14/64/3 60/65/3 61/70/3
f 13/71/3 14/64/3 61/70/3
f 13/71/22 61/70/22 62/72/22
f 44/73/19 45/74/19 78/58/19
f 45/74/3 46/36/3 77/35/3
f 12/75/1 13/71/1 62/72/1
f 12/75/1 62/72/1 63/44/1
f 34/57/1 35/60/1 43/59/1
f 35/60/1 39/66/1 42/68/1
f 35/60/1 42/68/1 43/59/1
f 11/43/7 12/75/7 63/44/7
f 78/58/17 43/59/17 44/73/17
f 77/35/23 78/58/23 45/74/23
f 74/31/3 47/33/3 48/38/3
f 9/40/17 64/42/17 65/76/17
f 71/49/1 72/54/1 2/52/1
f 9/40/12 65/76/12 66/77/12
f 69/78/10 70/51/10 5/50/10
f 8/46/24 9/40/24 66/77/24
f 69/78/1 5/50/1 68/5/1
f 5/50/1 6/6/1 68/5/1
f 8/46/1 66/77/1 67/4/1
