# Blender 5.0.1
# www.blender.org
o Exporting_sf.122
v -0.558025 1.920957 0.997243
v -0.553927 1.920957 0.997243
v -0.553685 1.920983 0.997305
v -0.553471 1.921046 0.997458
v -0.553379 1.921129 0.997658
v -0.553379 1.923049 1.002294
v -0.553465 1.923161 1.002564
v -0.553674 1.923247 1.002771
v -0.553927 1.923281 1.002853
v -0.555254 1.923281 1.002853
v -0.555254 1.923426 1.003203
v -0.554935 1.923426 1.003203
v -0.554935 1.923623 1.003678
v -0.557228 1.923623 1.003678
v -0.557228 1.923426 1.003203
v -0.556911 1.923426 1.003203
v -0.556911 1.923281 1.002853
v -0.558024 1.923281 1.002853
v -0.558338 1.923247 1.002770
v -0.558601 1.923161 1.002564
v -0.558711 1.923049 1.002294
v -0.558711 1.921216 0.997868
v -0.558604 1.921094 0.997574
v -0.558345 1.920997 0.997339
v -0.555672 1.923426 1.003204
v -0.555672 1.923281 1.002853
v -0.556469 1.923281 1.002853
v -0.556469 1.923426 1.003204
v -0.553874 1.921484 0.998516
v -0.553874 1.923041 1.002272
v -0.553906 1.923059 1.002316
v -0.553951 1.923100 1.002415
v -0.554110 1.923125 1.002477
v -0.558062 1.923125 1.002477
v -0.558214 1.923099 1.002415
v -0.558303 1.923045 1.002283
v -0.558303 1.921506 0.998567
v -0.557934 1.921487 0.998522
v -0.557737 1.921498 0.998548
v -0.557521 1.921539 0.998648
v -0.557351 1.921574 0.998732
v -0.557038 1.921587 0.998764
v -0.556693 1.921560 0.998699
v -0.556446 1.921512 0.998582
v -0.556077 1.921486 0.998519
v -0.555683 1.921511 0.998579
v -0.555392 1.921557 0.998691
v -0.555032 1.921582 0.998751
v -0.554637 1.921555 0.998686
v -0.554286 1.921506 0.998568
v -0.553874 1.921213 0.997859
v -0.553937 1.921145 0.997696
v -0.554124 1.921123 0.997644
v -0.558003 1.921123 0.997644
v -0.558214 1.921160 0.997734
v -0.558303 1.921240 0.997925
v -0.558303 1.921350 0.998190
v -0.557934 1.921331 0.998145
v -0.557737 1.921342 0.998171
v -0.557514 1.921383 0.998271
v -0.557338 1.921418 0.998355
v -0.557038 1.921431 0.998387
v -0.556707 1.921404 0.998322
v -0.556453 1.921356 0.998205
v -0.556077 1.921330 0.998142
v -0.555683 1.921355 0.998202
v -0.555392 1.921401 0.998314
v -0.555032 1.921426 0.998374
v -0.554637 1.921399 0.998308
v -0.554286 1.921350 0.998191
v -0.553874 1.921328 0.998139
v -0.554905 1.921965 0.999677
v -0.555166 1.921854 0.999410
v -0.554821 1.922035 0.999846
v -0.554828 1.922140 1.000098
v -0.554930 1.922204 1.000254
v -0.555096 1.922264 1.000398
v -0.555283 1.922305 1.000497
v -0.555455 1.922324 1.000543
v -0.555514 1.922337 1.000575
v -0.555543 1.922352 1.000610
v -0.555554 1.922376 1.000669
v -0.555345 1.921811 0.999305
v -0.555541 1.921787 0.999246
v -0.555709 1.921782 0.999236
v -0.555853 1.921798 0.999272
v -0.555981 1.921831 0.999353
v -0.556055 1.921874 0.999457
v -0.556096 1.921927 0.999585
v -0.556100 1.921980 0.999712
v -0.556053 1.922025 0.999821
v -0.555975 1.922066 0.999919
v -0.555925 1.922106 1.000016
v -0.555918 1.922140 1.000098
v -0.555928 1.922169 1.000168
v -0.556018 1.922191 1.000221
v -0.555961 1.922186 1.000210
v -0.555017 1.921909 0.999542
v -0.554811 1.922085 0.999967
v -0.555860 1.922374 1.000664
v -0.556023 1.922308 1.000503
v -0.555905 1.922328 1.000552
v -0.556028 1.922372 1.000659
v -0.557091 1.921942 0.999622
v -0.557381 1.922042 0.999863
v -0.556909 1.921910 0.999544
v -0.556636 1.921913 0.999550
v -0.556467 1.921952 0.999645
v -0.556312 1.922015 0.999798
v -0.556204 1.922087 0.999971
v -0.556154 1.922153 1.000129
v -0.556120 1.922176 1.000184
v -0.556082 1.922186 1.000211
v -0.557495 1.922111 1.000028
v -0.557558 1.922186 1.000209
v -0.557569 1.922250 1.000364
v -0.557530 1.922305 1.000498
v -0.557442 1.922354 1.000615
v -0.557330 1.922382 1.000684
v -0.557192 1.922398 1.000722
v -0.557054 1.922400 1.000726
v -0.556936 1.922382 1.000682
v -0.556829 1.922352 1.000610
v -0.556725 1.922333 1.000564
v -0.556636 1.922330 1.000558
v -0.556560 1.922334 1.000566
v -0.556503 1.922368 1.000650
v -0.556515 1.922346 1.000597
v -0.557238 1.921985 0.999725
v -0.556778 1.921906 0.999535
v -0.556197 1.922370 1.000655
v -0.556144 1.922325 1.000546
v -0.557152 1.922779 1.001642
v -0.556891 1.922890 1.001909
v -0.557236 1.922709 1.001473
v -0.557229 1.922605 1.001221
v -0.557127 1.922540 1.001065
v -0.556961 1.922481 1.000921
v -0.556774 1.922439 1.000821
v -0.556602 1.922420 1.000776
v -0.556543 1.922407 1.000744
v -0.556514 1.922393 1.000709
v -0.556712 1.922933 1.002014
v -0.556516 1.922958 1.002073
v -0.556348 1.922962 1.002083
v -0.556204 1.922947 1.002046
v -0.556076 1.922913 1.001966
v -0.556002 1.922870 1.001862
v -0.555961 1.922817 1.001734
v -0.555957 1.922765 1.001607
v -0.556004 1.922720 1.001498
v -0.556082 1.922679 1.001399
v -0.556132 1.922639 1.001303
v -0.556139 1.922605 1.001221
v -0.556129 1.922576 1.001151
v -0.556039 1.922554 1.001098
v -0.556096 1.922558 1.001109
v -0.557040 1.922835 1.001777
v -0.557246 1.922659 1.001352
v -0.556034 1.922437 1.000816
v -0.556152 1.922417 1.000767
v -0.554966 1.922802 1.001697
v -0.554676 1.922702 1.001456
v -0.555148 1.922834 1.001775
v -0.555421 1.922832 1.001769
v -0.555590 1.922793 1.001674
v -0.555745 1.922729 1.001521
v -0.555853 1.922657 1.001348
v -0.555903 1.922592 1.001189
v -0.555937 1.922569 1.001135
v -0.555975 1.922558 1.001108
v -0.554562 1.922634 1.001291
v -0.554499 1.922559 1.001110
v -0.554488 1.922495 1.000955
v -0.554527 1.922439 1.000821
v -0.554615 1.922390 1.000703
v -0.554727 1.922362 1.000635
v -0.554865 1.922346 1.000597
v -0.555003 1.922345 1.000593
v -0.555121 1.922363 1.000637
v -0.555228 1.922393 1.000709
v -0.555332 1.922412 1.000755
v -0.555421 1.922414 1.000761
v -0.555497 1.922411 1.000753
v -0.555542 1.922398 1.000722
v -0.554819 1.922759 1.001594
v -0.555279 1.922838 1.001784
v -0.555913 1.922419 1.000773
vn -0.0000 -0.9240 0.3825
vn -0.0001 -0.9239 0.3826
vn -0.0000 -0.9238 0.3828
vn -0.0000 -0.9238 0.3829
vn 0.0002 -0.9243 0.3818
vn -0.0006 -0.9232 0.3843
vn -0.0000 -0.9245 0.3811
vn 0.0002 -0.9240 0.3823
vn 0.0002 -0.9236 0.3833
vn -0.0002 -0.9239 0.3827
vn -0.0005 -0.9242 0.3819
vn -0.0006 -0.9247 0.3808
vn 0.0011 -0.9228 0.3853
vn -0.0003 -0.9234 0.3837
vn -0.0002 -0.9239 0.3826
vn 0.0001 -0.9236 0.3832
vn 0.0004 -0.9242 0.3818
vn -0.0005 -0.9232 0.3844
vn 0.0003 -0.9247 0.3807
vn 0.0001 -0.9238 0.3829
vn -0.0000 -0.9235 0.3837
vn -0.0006 -0.9238 0.3829
vn -0.0002 -0.9239 0.3825
vn 0.0015 -0.9242 0.3820
vn -0.0007 -0.9236 0.3833
vn -0.0000 -0.9241 0.3821
vn -0.0003 -0.9239 0.3827
vn -0.0002 -0.9240 0.3825
vn -0.0000 -0.9240 0.3823
vn -0.0000 -0.9241 0.3822
vn -0.0000 -0.9240 0.3824
vn -0.0000 -0.9239 0.3826
vn -0.0001 -0.9240 0.3823
vn -0.0000 -0.9239 0.3825
vn -0.0000 -0.9239 0.3827
vn -0.0001 -0.9239 0.3827
vn -0.0002 -0.9238 0.3830
vn 0.0002 -0.9238 0.3829
vn 0.0001 -0.9239 0.3826
vn -0.0002 -0.9238 0.3828
vn -0.0002 -0.9238 0.3829
vn -0.0001 -0.9238 0.3828
vn -0.0000 -0.9237 0.3831
vn -0.0000 -0.9238 0.3830
vn -0.0000 -0.9237 0.3830
vn 0.0002 -0.9238 0.3830
vn 0.0001 -0.9239 0.3827
vn 0.0002 -0.9239 0.3827
vn -0.0001 -0.9238 0.3829
vn -0.0000 -0.9237 0.3832
vn 0.0001 -0.9243 0.3818
vn -0.0007 -0.9232 0.3844
vn 0.0001 -0.9246 0.3811
vn 0.0001 -0.9246 0.3810
vn -0.0004 -0.9238 0.3830
vn -0.0004 -0.9239 0.3827
vn -0.0001 -0.9238 0.3830
vn -0.0000 -0.9236 0.3832
vn -0.0000 -0.9239 0.3828
vn -0.0001 -0.9237 0.3830
vn -0.0004 -0.9241 0.3821
vn -0.0003 -0.9235 0.3837
vn 0.0001 -0.9238 0.3830
vn 0.0004 -0.9242 0.3819
vn -0.0006 -0.9231 0.3846
vn 0.0003 -0.9247 0.3806
vn -0.0000 -0.9235 0.3836
vn 0.0014 -0.9241 0.3820
vn -0.0007 -0.9236 0.3832
vn 0.0002 -0.9242 0.3818
vn -0.0002 -0.9240 0.3823
vn -0.0002 -0.9240 0.3824
vt 0.780822 0.000000
vt 0.287671 0.000000
vt 0.301370 0.000000
vt 0.356164 0.000000
vt 0.219178 0.000000
vt 0.246575 0.000000
vt 0.123288 0.000000
vt 0.342466 0.000000
vt 0.452055 0.000000
vt 0.000000 0.000000
vt 0.794521 0.000000
vt 0.821918 0.000000
vt 0.534247 0.000000
vt 0.835616 0.000000
vt 0.849315 0.000000
vt 0.547945 0.000000
vt 0.863014 0.000000
vt 0.561644 0.000000
vt 0.876712 0.000000
vt 0.575342 0.000000
vt 0.630137 0.000000
vt 0.616438 0.000000
vt 0.602740 0.000000
vt 0.589041 0.000000
vt 0.506849 0.000000
vt 0.739726 0.000000
vt 0.753425 0.000000
vt 0.767123 0.000000
vt 0.369863 0.000000
vt 0.191781 0.000000
vt 0.205479 0.000000
vt 0.232877 0.000000
vt 0.698630 0.000000
vt 0.684932 0.000000
vt 0.972603 0.000000
vt 0.671233 0.000000
vt 0.958904 0.000000
vt 0.657534 0.000000
vt 0.643836 0.000000
vt 0.945205 0.000000
vt 0.890411 0.000000
vt 0.931507 0.000000
vt 0.904110 0.000000
vt 0.917808 0.000000
vt 0.383562 0.000000
vt 0.986301 0.000000
vt 1.000000 0.000000
vt 0.438356 0.000000
vt 0.410959 0.000000
vt 0.082192 0.000000
vt 0.397260 0.000000
vt 0.068493 0.000000
vt 0.054795 0.000000
vt 0.273973 0.000000
vt 0.493151 0.000000
vt 0.260274 0.000000
vt 0.465753 0.000000
vt 0.479452 0.000000
vt 0.178082 0.000000
vt 0.150685 0.000000
vt 0.164384 0.000000
vt 0.136986 0.000000
vt 0.328767 0.000000
vt 0.315068 0.000000
vt 0.013699 0.000000
vt 0.027397 0.000000
vt 0.726027 0.000000
vt 0.041096 0.000000
vt 0.712329 0.000000
vt 0.095890 0.000000
vt 0.109589 0.000000
s 0
f 56/1/1 22/2/1 23/3/1
f 27/4/2 17/5/2 19/6/2
f 10/7/3 26/8/3 33/9/3
f 91/10/4 89/10/4 85/10/4
f 94/10/5 78/10/5 79/10/5
f 80/10/6 97/10/6 95/10/6
f 79/10/7 95/10/7 94/10/7
f 96/10/8 81/10/8 82/10/8
f 93/10/9 77/10/9 78/10/9
f 132/10/4 131/10/4 127/10/4
f 122/10/10 120/10/10 116/10/10
f 125/10/11 110/10/11 111/10/11
f 112/10/12 128/10/12 126/10/12
f 111/10/13 126/10/13 125/10/13
f 127/10/14 113/10/14 96/10/14
f 124/10/15 109/10/15 110/10/15
f 151/10/16 149/10/16 145/10/16
f 154/10/17 139/10/17 140/10/17
f 141/10/18 157/10/18 155/10/18
f 140/10/19 155/10/19 154/10/19
f 156/10/20 142/10/20 127/10/20
f 153/10/21 138/10/21 139/10/21
f 180/10/3 178/10/3 174/10/3
f 183/10/22 168/10/22 169/10/22
f 170/10/23 185/10/23 184/10/23
f 169/10/24 184/10/24 183/10/24
f 82/10/25 171/10/25 156/10/25
f 182/10/26 167/10/26 168/10/26
f 156/10/27 160/10/27 188/10/27
f 57/11/28 58/12/28 38/13/28
f 58/12/29 59/14/29 38/13/29
f 59/14/29 60/15/29 39/16/29
f 60/15/30 61/17/30 40/18/30
f 61/17/31 62/19/31 41/20/31
f 62/19/29 45/21/29 44/22/29
f 44/22/31 43/23/31 62/19/31
f 43/23/29 42/24/29 62/19/29
f 62/19/32 42/24/32 41/20/32
f 60/15/31 40/18/31 39/16/31
f 40/18/26 61/17/26 41/20/26
f 59/14/33 39/16/33 38/13/33
f 38/13/31 37/25/31 57/11/31
f 37/25/31 22/2/31 57/11/31
f 23/3/31 53/26/31 54/27/31
f 23/3/29 54/27/29 55/28/29
f 23/3/31 55/28/31 56/1/31
f 56/1/34 57/11/34 22/2/34
f 28/29/32 15/30/32 16/31/35
f 17/5/36 18/32/36 19/6/36
f 28/29/37 16/31/37 17/5/37
f 19/6/2 26/8/2 27/4/2
f 27/4/35 28/29/35 17/5/35
f 50/33/3 49/34/3 69/35/3
f 49/34/38 48/36/38 68/37/38
f 48/36/3 47/38/3 68/37/3
f 47/38/35 46/39/35 67/40/35
f 68/37/39 47/38/39 67/40/39
f 45/21/35 62/19/35 63/41/35
f 49/34/4 68/37/4 69/35/4
f 46/39/40 45/21/40 66/42/40
f 45/21/35 63/41/35 64/43/35
f 65/44/4 45/21/4 64/43/4
f 65/44/3 66/42/3 45/21/3
f 66/42/36 67/40/36 46/39/36
f 29/45/35 50/33/35 70/46/35
f 69/35/32 70/46/32 50/33/32
f 70/46/3 71/47/3 29/45/3
f 32/48/35 31/49/35 7/50/35
f 31/49/3 30/51/3 7/50/3
f 30/51/3 29/45/3 6/52/3
f 29/45/39 71/47/39 5/53/39
f 6/52/41 29/45/41 5/53/41
f 22/2/40 37/25/40 21/54/40
f 37/25/42 36/55/42 21/54/42
f 20/56/3 21/54/3 36/55/3
f 26/8/1 19/6/1 34/57/1
f 19/6/3 20/56/3 35/58/3
f 34/57/43 19/6/43 35/58/43
f 20/56/3 36/55/3 35/58/3
f 34/57/44 33/9/44 26/8/44
f 14/59/35 15/30/35 28/29/35
f 12/60/45 13/61/45 11/62/45
f 13/61/3 14/59/3 28/29/3
f 11/62/32 13/61/32 25/63/32
f 25/63/3 13/61/3 28/29/3
f 53/26/43 23/3/43 1/10/43
f 23/3/35 24/64/35 1/10/35
f 1/10/32 2/65/32 53/26/32
f 2/65/35 3/66/35 52/67/35
f 3/66/42 4/68/42 52/67/42
f 4/68/35 5/53/35 52/67/35
f 51/69/15 5/53/15 71/47/15
f 6/52/46 7/50/46 30/51/46
f 7/50/35 8/70/35 32/48/35
f 8/70/3 9/71/3 32/48/3
f 9/71/3 10/7/3 33/9/3
f 5/53/3 51/69/3 52/67/3
f 9/71/47 33/9/47 32/48/47
f 10/7/35 11/62/35 26/8/35
f 11/62/48 25/63/48 26/8/48
f 52/67/35 53/26/35 2/65/35
f 98/10/49 72/10/49 76/10/49
f 72/10/4 74/10/4 76/10/4
f 74/10/4 99/10/4 76/10/4
f 99/10/4 75/10/4 76/10/4
f 76/10/50 77/10/50 98/10/50
f 77/10/49 92/10/49 98/10/49
f 92/10/4 91/10/4 84/10/4
f 91/10/4 90/10/4 89/10/4
f 89/10/4 88/10/4 85/10/4
f 88/10/4 87/10/4 85/10/4
f 87/10/4 86/10/4 85/10/4
f 85/10/4 84/10/4 91/10/4
f 84/10/46 83/10/46 92/10/46
f 83/10/4 73/10/4 92/10/4
f 73/10/44 98/10/44 92/10/44
f 94/10/51 93/10/51 78/10/51
f 80/10/52 81/10/52 97/10/52
f 79/10/53 80/10/54 95/10/53
f 96/10/8 97/10/8 81/10/8
f 93/10/55 92/10/55 77/10/55
f 96/10/56 82/10/56 102/10/56
f 82/10/49 100/10/49 102/10/57
f 160/10/49 156/10/49 161/10/49
f 156/10/42 127/10/42 161/10/42
f 96/10/32 102/10/32 101/10/32
f 96/10/42 101/10/42 132/10/42
f 131/10/58 161/10/58 127/10/58
f 96/10/36 132/10/36 127/10/36
f 129/10/35 104/10/35 108/10/35
f 104/10/59 106/10/3 108/10/59
f 106/10/47 130/10/47 108/10/47
f 130/10/35 107/10/35 108/10/35
f 108/10/35 109/10/35 129/10/35
f 109/10/60 123/10/60 129/10/60
f 123/10/35 122/10/35 115/10/35
f 122/10/35 121/10/35 120/10/35
f 120/10/35 119/10/35 116/10/35
f 119/10/35 118/10/35 116/10/35
f 118/10/47 117/10/35 116/10/35
f 116/10/35 115/10/35 122/10/35
f 115/10/35 114/10/35 123/10/35
f 114/10/35 105/10/35 123/10/35
f 105/10/59 129/10/59 123/10/59
f 125/10/61 124/10/61 110/10/61
f 112/10/12 113/10/12 128/10/12
f 111/10/13 112/10/13 126/10/13
f 127/10/62 128/10/62 113/10/14
f 124/10/15 123/10/15 109/10/15
f 158/10/57 133/10/57 137/10/57
f 133/10/43 135/10/43 137/10/43
f 135/10/63 159/10/63 137/10/63
f 159/10/44 136/10/44 137/10/44
f 137/10/63 138/10/63 158/10/63
f 138/10/4 152/10/4 158/10/4
f 152/10/44 151/10/44 144/10/4
f 151/10/44 150/10/44 149/10/44
f 149/10/44 148/10/44 145/10/44
f 148/10/44 147/10/44 145/10/44
f 147/10/4 146/10/44 145/10/44
f 145/10/45 144/10/45 151/10/45
f 144/10/44 143/10/44 152/10/44
f 143/10/48 134/10/48 152/10/48
f 134/10/43 158/10/43 152/10/43
f 154/10/17 153/10/64 139/10/17
f 141/10/65 142/10/65 157/10/65
f 140/10/66 141/10/66 155/10/19
f 156/10/63 157/10/63 142/10/63
f 153/10/67 152/10/67 138/10/67
f 186/10/3 162/10/3 166/10/3
f 162/10/3 164/10/3 166/10/3
f 164/10/3 187/10/3 166/10/3
f 187/10/3 165/10/3 166/10/3
f 166/10/3 167/10/3 186/10/3
f 167/10/35 181/10/35 186/10/35
f 181/10/35 180/10/35 173/10/35
f 180/10/3 179/10/3 178/10/3
f 178/10/20 177/10/20 174/10/20
f 177/10/3 176/10/3 174/10/3
f 176/10/3 175/10/3 174/10/3
f 174/10/3 173/10/3 180/10/3
f 173/10/3 172/10/3 181/10/3
f 172/10/4 163/10/4 181/10/4
f 163/10/44 186/10/44 181/10/44
f 183/10/22 182/10/22 168/10/22
f 170/10/23 171/10/15 185/10/15
f 169/10/68 170/10/68 184/10/68
f 82/10/69 185/10/69 171/10/69
f 182/10/70 181/10/70 167/10/70
f 188/10/71 100/10/71 82/10/71
f 82/10/72 156/10/72 188/10/72
