# Blender 5.0.1
# www.blender.org
o Exporting_sf.105
v -0.551941 1.927465 1.012955
v -0.552158 1.927642 1.013382
v -0.552629 1.927766 1.013681
v -0.553165 1.927815 1.013798
v -0.553566 1.927796 1.013753
v -0.553971 1.927727 1.013586
v -0.554296 1.927595 1.013269
v -0.554457 1.927477 1.012983
v -0.554556 1.927348 1.012673
v -0.554590 1.927183 1.012273
v -0.554569 1.927044 1.011939
v -0.554468 1.926908 1.011609
v -0.554231 1.926765 1.011266
v -0.553896 1.926661 1.011014
v -0.553445 1.926594 1.010850
v -0.552954 1.926584 1.010828
v -0.552465 1.926645 1.010974
v -0.552099 1.926785 1.011311
v -0.551912 1.927028 1.011900
v -0.552078 1.927037 1.011921
v -0.552250 1.927030 1.011904
v -0.552326 1.926882 1.011547
v -0.552561 1.926755 1.011239
v -0.553051 1.926694 1.011094
v -0.553493 1.926715 1.011144
v -0.553817 1.926783 1.011307
v -0.554060 1.926881 1.011545
v -0.554188 1.926982 1.011788
v -0.554249 1.927093 1.012057
v -0.554266 1.927188 1.012285
v -0.554247 1.927303 1.012563
v -0.554167 1.927426 1.012859
v -0.554004 1.927543 1.013144
v -0.553735 1.927641 1.013378
v -0.553442 1.927682 1.013478
v -0.553137 1.927690 1.013497
v -0.552782 1.927658 1.013421
v -0.552477 1.927578 1.013227
v -0.552315 1.927463 1.012949
v -0.552125 1.927451 1.012920
v -0.557920 1.926590 1.010842
v -0.560130 1.926590 1.010842
v -0.560130 1.927786 1.013730
v -0.557920 1.927786 1.013730
v -0.557920 1.927655 1.013413
v -0.559741 1.927655 1.013413
v -0.559741 1.927280 1.012507
v -0.558122 1.927280 1.012507
v -0.558122 1.927157 1.012211
v -0.559741 1.927157 1.012211
v -0.559741 1.926718 1.011152
v -0.557920 1.926718 1.011152
v -0.557185 1.926943 1.011694
v -0.557012 1.926817 1.011389
v -0.556689 1.926722 1.011160
v -0.556175 1.926677 1.011053
v -0.555791 1.926708 1.011127
v -0.555537 1.926790 1.011326
v -0.555422 1.926882 1.011548
v -0.555438 1.926970 1.011760
v -0.555563 1.927053 1.011961
v -0.555783 1.927110 1.012096
v -0.556290 1.927168 1.012239
v -0.556641 1.927204 1.012323
v -0.556957 1.927254 1.012444
v -0.557231 1.927341 1.012656
v -0.557375 1.927460 1.012942
v -0.557330 1.927593 1.013263
v -0.557090 1.927721 1.013573
v -0.556767 1.927791 1.013742
v -0.556395 1.927810 1.013786
v -0.556005 1.927800 1.013764
v -0.555709 1.927768 1.013687
v -0.555448 1.927691 1.013499
v -0.555304 1.927620 1.013330
v -0.555233 1.927566 1.013198
v -0.555195 1.927522 1.013093
v -0.555243 1.927487 1.013006
v -0.555385 1.927476 1.012982
v -0.555486 1.927498 1.013034
v -0.555562 1.927558 1.013178
v -0.555686 1.927625 1.013340
v -0.555835 1.927670 1.013450
v -0.556168 1.927701 1.013523
v -0.556518 1.927696 1.013512
v -0.556778 1.927662 1.013430
v -0.556996 1.927567 1.013199
v -0.557026 1.927460 1.012943
v -0.556861 1.927369 1.012723
v -0.556499 1.927311 1.012583
v -0.556041 1.927270 1.012484
v -0.555670 1.927231 1.012391
v -0.555379 1.927166 1.012231
v -0.555175 1.927065 1.011989
v -0.555106 1.926926 1.011652
v -0.555219 1.926757 1.011245
v -0.555489 1.926638 1.010958
v -0.555867 1.926580 1.010817
v -0.556326 1.926570 1.010794
v -0.556725 1.926603 1.010873
v -0.557073 1.926681 1.011061
v -0.557342 1.926780 1.011301
v -0.557445 1.926854 1.011479
v -0.557493 1.926925 1.011651
v -0.557441 1.926967 1.011751
v -0.557293 1.926974 1.011768
vn 0.0001 -0.9239 0.3827
vn 0.0001 -0.9239 0.3828
vn 0.0001 -0.9240 0.3824
vn 0.0001 -0.9238 0.3829
vn -0.0000 -0.9238 0.3828
vn -0.0000 -0.9238 0.3829
vn 0.0001 -0.9239 0.3826
vn 0.0001 -0.9238 0.3830
vn -0.0001 -0.9239 0.3827
vn 0.0002 -0.9238 0.3829
vn 0.0001 -0.9238 0.3828
vn -0.0002 -0.9238 0.3829
vn 0.0002 -0.9239 0.3826
vn -0.0001 -0.9239 0.3826
vn 0.0002 -0.9241 0.3823
vn -0.0001 -0.9240 0.3825
vn -0.0001 -0.9238 0.3828
vn -0.0001 -0.9237 0.3830
vn -0.0000 -0.9239 0.3827
vn -0.0000 -0.9239 0.3826
vn 0.0003 -0.9238 0.3829
vn 0.0003 -0.9239 0.3826
vn -0.0001 -0.9238 0.3829
vn 0.0004 -0.9239 0.3827
vn 0.0001 -0.9239 0.3825
vn -0.0000 -0.9240 0.3825
vn -0.0000 -0.9239 0.3825
vn -0.0001 -0.9239 0.3825
vn 0.0001 -0.9240 0.3825
vn 0.0003 -0.9240 0.3824
vn 0.0001 -0.9240 0.3823
vt 0.466667 0.000000
vt 0.438095 0.000000
vt 0.400000 0.000000
vt 0.571429 0.000000
vt 0.561905 0.000000
vt 0.885714 0.000000
vt 0.266667 0.000000
vt 0.276190 0.000000
vt 0.085714 0.000000
vt 0.457143 0.000000
vt 0.447619 0.000000
vt 0.380952 0.000000
vt 0.485714 0.000000
vt 0.476190 0.000000
vt 0.390476 0.000000
vt 0.419048 0.000000
vt 0.409524 0.000000
vt 0.428571 0.000000
vt 0.504762 0.000000
vt 0.495238 0.000000
vt 0.971429 0.000000
vt 1.000000 0.000000
vt 0.980952 0.000000
vt 0.990476 0.000000
vt 0.961905 0.000000
vt 0.952381 0.000000
vt 0.942857 0.000000
vt 0.514286 0.000000
vt 0.933333 0.000000
vt 0.923810 0.000000
vt 0.523810 0.000000
vt 0.914286 0.000000
vt 0.533333 0.000000
vt 0.904762 0.000000
vt 0.542857 0.000000
vt 0.895238 0.000000
vt 0.552381 0.000000
vt 0.876190 0.000000
vt 0.866667 0.000000
vt 0.580952 0.000000
vt 0.857143 0.000000
vt 0.847619 0.000000
vt 0.590476 0.000000
vt 0.838095 0.000000
vt 0.600000 0.000000
vt 0.761905 0.000000
vt 0.752381 0.000000
vt 0.714286 0.000000
vt 0.742857 0.000000
vt 0.733333 0.000000
vt 0.723810 0.000000
vt 0.704762 0.000000
vt 0.695238 0.000000
vt 0.685714 0.000000
vt 0.771429 0.000000
vt 0.780952 0.000000
vt 0.676190 0.000000
vt 0.666667 0.000000
vt 0.790476 0.000000
vt 0.657143 0.000000
vt 0.800000 0.000000
vt 0.647619 0.000000
vt 0.809524 0.000000
vt 0.638095 0.000000
vt 0.819048 0.000000
vt 0.628571 0.000000
vt 0.828571 0.000000
vt 0.619048 0.000000
vt 0.609524 0.000000
vt 0.142857 0.000000
vt 0.152381 0.000000
vt 0.209524 0.000000
vt 0.161905 0.000000
vt 0.171429 0.000000
vt 0.200000 0.000000
vt 0.180952 0.000000
vt 0.190476 0.000000
vt 0.133333 0.000000
vt 0.219048 0.000000
vt 0.114286 0.000000
vt 0.123810 0.000000
vt 0.238095 0.000000
vt 0.228571 0.000000
vt 0.095238 0.000000
vt 0.104762 0.000000
vt 0.257143 0.000000
vt 0.247619 0.000000
vt 0.076190 0.000000
vt 0.285714 0.000000
vt 0.057143 0.000000
vt 0.066667 0.000000
vt 0.295238 0.000000
vt 0.038095 0.000000
vt 0.047619 0.000000
vt 0.314286 0.000000
vt 0.304762 0.000000
vt 0.019048 0.000000
vt 0.028571 0.000000
vt 0.333333 0.000000
vt 0.323810 0.000000
vt 0.000000 0.000000
vt 0.009524 0.000000
vt 0.371429 0.000000
vt 0.352381 0.000000
vt 0.361905 0.000000
vt 0.342857 0.000000
s 0
f 50/1/1 47/2/1 43/3/1
f 61/4/1 60/5/2 94/6/1
f 29/7/3 30/8/3 10/9/3
f 50/1/4 49/10/4 48/11/4
f 50/1/5 48/11/5 47/2/5
f 41/12/6 52/13/6 51/14/6
f 42/15/7 41/12/7 51/14/7
f 45/16/7 44/17/7 46/18/7
f 44/17/8 43/3/8 46/18/8
f 43/3/9 42/15/9 50/1/9
f 42/15/10 51/14/10 50/1/10
f 47/2/5 46/18/5 43/3/5
f 54/19/11 53/20/11 103/21/11
f 53/20/12 106/22/12 104/23/12
f 106/22/1 105/24/1 104/23/1
f 104/23/13 103/21/13 53/20/13
f 103/21/1 102/25/1 54/19/1
f 102/25/1 101/26/1 54/19/1
f 101/26/14 100/27/14 55/28/14
f 100/27/15 99/29/15 55/28/15
f 99/29/16 98/30/16 56/31/16
f 98/30/11 97/32/11 57/33/11
f 97/32/17 96/34/17 58/35/17
f 57/33/1 97/32/1 58/35/1
f 96/34/1 95/36/1 59/37/1
f 95/36/1 94/6/1 60/5/1
f 59/37/1 95/36/1 60/5/1
f 94/6/18 93/38/18 61/4/18
f 93/38/1 92/39/1 62/40/1
f 92/39/5 91/41/5 62/40/5
f 91/41/6 90/42/6 63/43/6
f 62/40/19 91/41/19 63/43/19
f 93/38/1 62/40/1 61/4/1
f 99/29/20 56/31/20 55/28/20
f 101/26/1 55/28/1 54/19/1
f 90/42/1 89/44/1 64/45/1
f 81/46/1 80/47/1 76/48/1
f 80/47/19 79/49/19 76/48/19
f 79/49/1 78/50/1 77/51/1
f 77/51/1 76/48/1 79/49/1
f 76/48/1 75/52/1 81/46/1
f 75/52/7 74/53/7 81/46/7
f 74/53/21 73/54/21 82/55/21
f 82/55/19 73/54/19 83/56/19
f 73/54/1 72/57/1 83/56/1
f 72/57/1 71/58/1 84/59/1
f 83/56/22 72/57/22 84/59/22
f 71/58/1 70/60/1 85/61/1
f 70/60/1 69/62/1 86/63/1
f 69/62/22 68/64/22 87/65/22
f 68/64/1 67/66/1 88/67/1
f 87/65/7 68/64/7 88/67/7
f 67/66/1 66/68/1 88/67/1
f 66/68/4 65/69/4 89/44/4
f 65/69/20 64/45/20 89/44/20
f 64/45/9 63/43/9 90/42/9
f 70/60/1 86/63/1 85/61/1
f 86/63/1 69/62/1 87/65/1
f 82/55/7 81/46/7 74/53/7
f 66/68/1 89/44/1 88/67/1
f 57/33/23 56/31/23 98/30/23
f 85/61/11 84/59/11 71/58/11
f 59/37/24 58/35/24 96/34/24
f 16/70/1 17/71/1 23/72/1
f 17/71/25 18/73/25 23/72/25
f 18/73/26 19/74/26 22/75/26
f 19/74/25 20/76/25 22/75/25
f 20/76/20 21/77/20 22/75/20
f 15/78/20 16/70/20 24/79/20
f 24/79/16 16/70/16 23/72/16
f 13/80/26 14/81/26 26/82/26
f 14/81/27 15/78/27 25/83/27
f 26/82/25 14/81/25 25/83/25
f 11/84/7 12/85/7 28/86/7
f 12/85/1 13/80/1 27/87/1
f 9/88/19 10/9/19 31/89/19
f 10/9/7 11/84/7 29/7/7
f 31/89/7 10/9/7 30/8/7
f 7/90/19 8/91/19 32/92/19
f 8/91/19 9/88/19 32/92/19
f 5/93/27 6/94/27 34/95/27
f 6/94/16 7/90/16 33/96/16
f 34/95/7 6/94/7 33/96/7
f 3/97/28 4/98/28 36/99/28
f 4/98/25 5/93/25 35/100/25
f 1/101/7 2/102/7 40/103/7
f 2/102/7 3/97/7 38/104/7
f 39/105/13 40/103/13 2/102/13
f 38/104/29 39/105/29 2/102/29
f 4/98/1 35/100/1 36/99/1
f 35/100/3 5/93/3 34/95/3
f 32/92/30 9/88/30 31/89/30
f 12/85/7 27/87/7 28/86/7
f 27/87/31 13/80/31 26/82/31
f 18/73/27 22/75/27 23/72/27
f 37/106/25 38/104/25 3/97/25
f 15/78/16 24/79/16 25/83/16
f 36/99/20 37/106/20 3/97/20
f 32/92/29 33/96/29 7/90/29
f 11/84/1 28/86/1 29/7/1
