# Blender 5.0.1
# www.blender.org
o Exporting_sf.119
v -0.481792 1.933357 1.044672
v -0.480541 1.933587 1.045226
v -0.480541 1.933782 1.045697
v -0.481797 1.933552 1.045142
v -0.481906 1.933722 1.045553
v -0.482042 1.933882 1.045939
v -0.482039 1.933970 1.046151
v -0.481991 1.934058 1.046364
v -0.482436 1.934070 1.046392
v -0.482499 1.933989 1.046197
v -0.482516 1.933886 1.045950
v -0.482359 1.933684 1.045460
v -0.482216 1.933477 1.044962
v -0.483783 1.933193 1.044275
v -0.483783 1.932989 1.043784
v -0.482348 1.933256 1.044427
v -0.482451 1.933065 1.043967
v -0.482508 1.932891 1.043546
v -0.483783 1.932649 1.042962
v -0.483783 1.932447 1.042476
v -0.482405 1.932711 1.043112
v -0.482237 1.932574 1.042781
v -0.482175 1.932423 1.042418
v -0.483783 1.932106 1.041653
v -0.483783 1.931905 1.041167
v -0.482461 1.932177 1.041824
v -0.482539 1.932029 1.041466
v -0.482556 1.931883 1.041114
v -0.482070 1.931883 1.041114
v -0.481973 1.932097 1.041630
v -0.481744 1.932300 1.042120
v -0.480541 1.932542 1.042705
v -0.480541 1.932743 1.043191
v -0.481713 1.932514 1.042638
v -0.481780 1.932659 1.042987
v -0.481904 1.932805 1.043340
v -0.480541 1.933062 1.043959
v -0.480541 1.933257 1.044430
v -0.481982 1.932989 1.043783
v -0.479394 1.931888 1.041126
v -0.478660 1.931938 1.041246
v -0.477989 1.932041 1.041496
v -0.477411 1.932196 1.041869
v -0.476959 1.932399 1.042358
v -0.476662 1.932646 1.042956
v -0.476552 1.932936 1.043656
v -0.476632 1.933217 1.044334
v -0.476877 1.933473 1.044952
v -0.477276 1.933695 1.045489
v -0.477818 1.933875 1.045923
v -0.478492 1.934003 1.046232
v -0.479288 1.934070 1.046394
v -0.479514 1.933897 1.045975
v -0.479687 1.933717 1.045541
v -0.479812 1.933531 1.045093
v -0.479895 1.933341 1.044633
v -0.479940 1.933146 1.044163
v -0.479954 1.932948 1.043686
v -0.479935 1.932766 1.043246
v -0.479880 1.932583 1.042804
v -0.479794 1.932402 1.042366
v -0.479681 1.932224 1.041936
v -0.479547 1.932052 1.041522
v -0.479127 1.932028 1.041463
v -0.478537 1.932090 1.041612
v -0.478015 1.932186 1.041844
v -0.477576 1.932318 1.042163
v -0.477240 1.932486 1.042570
v -0.477023 1.932693 1.043070
v -0.476943 1.932940 1.043664
v -0.477000 1.933179 1.044241
v -0.477178 1.933394 1.044760
v -0.477475 1.933580 1.045211
v -0.477890 1.933735 1.045583
v -0.478420 1.933852 1.045866
v -0.479061 1.933927 1.046048
v -0.479245 1.933777 1.045687
v -0.479384 1.933622 1.045313
v -0.479485 1.933462 1.044926
v -0.479551 1.933297 1.044526
v -0.479587 1.933126 1.044114
v -0.479598 1.932950 1.043690
v -0.479581 1.932788 1.043299
v -0.479534 1.932628 1.042911
v -0.479461 1.932470 1.042530
v -0.479366 1.932316 1.042160
v -0.479253 1.932169 1.041803
vn -0.0001 -0.9238 0.3828
vn -0.0000 -0.9239 0.3827
vn -0.0000 -0.9239 0.3826
vn -0.0003 -0.9237 0.3831
vn -0.0001 -0.9238 0.3829
vn -0.0002 -0.9239 0.3827
vn -0.0001 -0.9237 0.3831
vn -0.0002 -0.9238 0.3829
vn -0.0000 -0.9239 0.3825
vn -0.0001 -0.9238 0.3830
vn -0.0001 -0.9239 0.3827
vn 0.0001 -0.9238 0.3830
vn -0.0000 -0.9238 0.3829
vn -0.0002 -0.9239 0.3826
vn -0.0003 -0.9238 0.3828
vn 0.0001 -0.9238 0.3829
vn -0.0000 -0.9236 0.3833
vn 0.0001 -0.9239 0.3827
vn 0.0002 -0.9239 0.3827
vn -0.0000 -0.9237 0.3832
vn -0.0001 -0.9237 0.3830
vn -0.0000 -0.9238 0.3828
vn -0.0001 -0.9236 0.3833
vn -0.0000 -0.9238 0.3830
vn 0.0001 -0.9238 0.3828
vn -0.0001 -0.9239 0.3825
vn 0.0001 -0.9240 0.3825
vn 0.0002 -0.9238 0.3828
vn -0.0003 -0.9239 0.3827
vn 0.0002 -0.9239 0.3826
vn -0.0001 -0.9239 0.3826
vn 0.0001 -0.9239 0.3826
vn -0.0002 -0.9238 0.3828
vn -0.0000 -0.9240 0.3825
vn 0.0001 -0.9240 0.3824
vn -0.0001 -0.9240 0.3824
vt 0.793103 0.000000
vt 0.781609 0.000000
vt 0.517241 0.000000
vt 0.252874 0.000000
vt 0.344828 0.000000
vt 0.379310 0.000000
vt 0.931035 0.000000
vt 0.666667 0.000000
vt 0.942529 0.000000
vt 0.643678 0.000000
vt 0.908046 0.000000
vt 0.632184 0.000000
vt 0.896552 0.000000
vt 0.885057 0.000000
vt 0.620690 0.000000
vt 0.597701 0.000000
vt 0.609195 0.000000
vt 0.873563 0.000000
vt 0.574713 0.000000
vt 0.586207 0.000000
vt 0.862069 0.000000
vt 0.551724 0.000000
vt 0.563218 0.000000
vt 0.839080 0.000000
vt 0.850575 0.000000
vt 0.528736 0.000000
vt 0.540230 0.000000
vt 0.816092 0.000000
vt 0.827586 0.000000
vt 0.804598 0.000000
vt 0.505747 0.000000
vt 0.482759 0.000000
vt 0.494253 0.000000
vt 0.758621 0.000000
vt 0.770115 0.000000
vt 0.459770 0.000000
vt 0.471264 0.000000
vt 0.735632 0.000000
vt 0.747126 0.000000
vt 0.712644 0.000000
vt 0.724138 0.000000
vt 1.000000 0.000000
vt 0.689655 0.000000
vt 0.701149 0.000000
vt 0.977012 0.000000
vt 0.988506 0.000000
vt 0.965517 0.000000
vt 0.137931 0.000000
vt 0.149425 0.000000
vt 0.172414 0.000000
vt 0.160920 0.000000
vt 0.183908 0.000000
vt 0.436782 0.000000
vt 0.195402 0.000000
vt 0.103448 0.000000
vt 0.114943 0.000000
vt 0.068966 0.000000
vt 0.126437 0.000000
vt 0.057471 0.000000
vt 0.000000 0.000000
vt 0.034483 0.000000
vt 0.080460 0.000000
vt 0.091954 0.000000
vt 0.045977 0.000000
vt 0.206897 0.000000
vt 0.229885 0.000000
vt 0.218391 0.000000
vt 0.011494 0.000000
vt 0.022989 0.000000
vt 0.402299 0.000000
vt 0.241379 0.000000
vt 0.390805 0.000000
vt 0.413793 0.000000
vt 0.425287 0.000000
vt 0.264368 0.000000
vt 0.287356 0.000000
vt 0.275862 0.000000
vt 0.298851 0.000000
vt 0.333333 0.000000
vt 0.310345 0.000000
vt 0.321839 0.000000
vt 0.356322 0.000000
vt 0.367816 0.000000
vt 0.919540 0.000000
vt 0.655172 0.000000
vt 0.678161 0.000000
vt 0.954023 0.000000
s 0
f 69/1/1 68/2/1 45/3/1
f 23/4/2 31/5/2 34/6/2
f 81/7/3 58/8/3 82/9/3
f 56/10/1 79/11/1 55/12/1
f 79/11/4 78/13/4 55/12/4
f 78/13/5 77/14/5 54/15/5
f 54/15/6 55/12/6 78/13/6
f 52/16/6 53/17/6 76/18/6
f 53/17/7 54/15/7 77/14/7
f 76/18/8 53/17/8 77/14/8
f 50/19/9 51/20/9 75/21/9
f 51/20/10 52/16/10 76/18/10
f 48/22/11 49/23/11 73/24/11
f 49/23/7 50/19/7 74/25/7
f 73/24/12 49/23/12 74/25/12
f 46/26/13 47/27/13 71/28/13
f 47/27/5 48/22/5 72/29/5
f 46/26/14 71/28/14 70/30/14
f 44/31/8 45/3/8 68/2/8
f 45/3/14 46/26/14 69/1/14
f 69/1/15 46/26/15 70/30/15
f 42/32/13 43/33/13 66/34/13
f 43/33/13 44/31/13 67/35/13
f 66/34/16 43/33/16 67/35/16
f 40/36/17 41/37/17 64/38/17
f 41/37/10 42/32/10 65/39/10
f 62/40/18 63/41/18 87/42/18
f 63/41/19 40/36/19 64/38/19
f 87/42/7 63/41/7 64/38/7
f 60/43/15 61/44/15 85/45/15
f 61/44/4 62/40/4 86/46/4
f 85/45/20 84/47/20 60/43/20
f 86/46/5 85/45/5 61/44/5
f 86/46/5 62/40/5 87/42/5
f 41/37/5 65/39/5 64/38/5
f 51/20/10 76/18/10 75/21/10
f 50/19/21 75/21/21 74/25/21
f 66/34/22 65/39/22 42/32/22
f 48/22/13 73/24/13 72/29/13
f 68/2/5 67/35/5 44/31/5
f 72/29/23 71/28/23 47/27/23
f 13/48/24 14/49/24 16/50/24
f 14/49/12 15/51/12 16/50/12
f 16/50/14 17/52/14 39/53/14
f 17/52/25 18/54/25 39/53/25
f 10/55/26 11/56/26 7/57/26
f 11/56/1 12/58/1 6/59/1
f 7/57/2 11/56/2 6/59/2
f 13/48/27 16/50/27 1/60/27
f 12/58/28 13/48/28 4/61/28
f 8/62/2 9/63/2 7/57/2
f 9/63/22 10/55/22 7/57/22
f 6/59/2 12/58/2 5/64/2
f 4/61/22 5/64/22 12/58/22
f 18/54/29 19/65/29 21/66/29
f 19/65/24 20/67/24 21/66/24
f 4/61/22 13/48/22 1/60/22
f 16/50/30 39/53/30 1/60/30
f 2/68/31 3/69/31 4/61/31
f 1/60/22 2/68/22 4/61/22
f 18/54/32 21/66/32 36/70/32
f 39/53/3 18/54/3 36/70/3
f 21/66/33 22/71/33 35/72/33
f 37/73/3 38/74/3 39/53/3
f 34/6/2 35/72/2 22/71/2
f 35/72/3 36/70/3 21/66/3
f 36/70/2 37/73/2 39/53/2
f 23/4/5 24/75/5 26/76/5
f 24/75/1 25/77/1 26/76/1
f 22/71/3 23/4/3 34/6/3
f 26/76/18 27/78/18 30/79/18
f 27/78/31 28/80/31 29/81/31
f 30/79/1 27/78/1 29/81/1
f 31/5/31 32/82/31 34/6/31
f 32/82/2 33/83/2 34/6/2
f 30/79/5 31/5/5 26/76/5
f 23/4/1 26/76/1 31/5/1
f 80/84/3 79/11/3 56/10/3
f 56/10/19 57/85/19 80/84/19
f 57/85/34 58/8/34 81/7/34
f 58/8/3 59/86/3 83/87/3
f 59/86/2 60/43/2 84/47/2
f 58/8/14 83/87/14 82/9/14
f 84/47/35 83/87/35 59/86/35
f 57/85/36 81/7/36 80/84/36
