# Blender 5.0.1
# www.blender.org
o Exporting_sf.128
v -0.515817 1.923262 0.999697
v -0.511972 1.920792 0.993735
v -0.512880 1.921002 0.994242
v -0.515817 1.922865 0.998739
v -0.515817 1.921598 0.995680
v -0.515817 1.922367 0.997537
v -0.515634 1.922357 0.997512
v -0.515654 1.921604 0.995694
v -0.515817 1.921416 0.995240
v -0.515817 1.921276 0.994902
v -0.515966 1.921312 0.994990
v -0.515966 1.921380 0.995153
v -0.519662 1.920792 0.993735
v -0.518753 1.921002 0.994242
v -0.515999 1.922357 0.997512
v -0.515980 1.921604 0.995694
v -0.515667 1.921312 0.994990
v -0.515667 1.921380 0.995153
vn -0.0000 -0.9238 0.3829
vn 0.0001 -0.9239 0.3826
vn -0.0000 -0.9239 0.3825
vn -0.0000 -0.9238 0.3828
vn -0.0000 -0.9239 0.3827
vn -0.0002 -0.9239 0.3827
vn -0.0000 -0.9240 0.3823
vn -0.0000 -0.9240 0.3824
vn -0.0000 -0.9241 0.3822
vt 0.615385 0.000000
vt 0.692308 0.000000
vt 0.000000 0.000000
vt 0.307692 0.000000
vt 0.384615 0.000000
vt 1.000000 0.000000
vt 0.923077 0.000000
vt 0.076923 0.000000
vt 0.461538 0.000000
vt 0.538462 0.000000
vt 0.846154 0.000000
vt 0.769231 0.000000
s 0
f 15/1/1 16/2/1 8/2/1
f 1/3/2 14/4/2 4/5/2
f 12/6/3 11/7/3 17/7/3
f 2/8/4 14/4/4 13/8/4
f 16/2/4 5/9/4 8/2/4
f 8/2/5 7/1/5 15/1/5
f 7/1/4 6/10/4 15/1/4
f 4/5/6 3/4/6 1/3/6
f 3/4/5 2/8/5 1/3/5
f 1/3/5 13/8/5 14/4/5
f 10/11/7 17/7/7 11/7/7
f 17/7/8 18/6/8 12/6/8
f 18/6/9 9/12/9 12/6/9
f 2/8/1 3/4/1 14/4/1
