# Blender 5.0.1
# www.blender.org
o Exporting_sf.114
v -0.349910 1.926869 1.011515
v -0.348682 1.927454 1.012927
v -0.350573 1.927267 1.012475
v -0.351040 1.927412 1.012825
v -0.353280 1.927412 1.012825
v -0.353280 1.926869 1.011515
v -0.353229 1.927556 1.013175
v -0.352147 1.927556 1.013175
v -0.352147 1.927670 1.013448
v -0.352642 1.927670 1.013449
v -0.352642 1.927810 1.013786
v -0.351294 1.927810 1.013786
v -0.351294 1.927670 1.013449
v -0.351744 1.927670 1.013448
v -0.351744 1.927556 1.013175
v -0.350889 1.927556 1.013175
v -0.350478 1.927414 1.012832
v -0.347184 1.927751 1.013644
v -0.346952 1.927597 1.013272
v -0.347387 1.927528 1.013107
v -0.347482 1.927588 1.013252
v -0.347958 1.927524 1.013097
v -0.349590 1.926718 1.011151
v -0.353696 1.926718 1.011151
v -0.353696 1.927146 1.012184
v -0.355193 1.927374 1.012735
v -0.354697 1.927854 1.013893
v -0.353185 1.927661 1.013427
v -0.353725 1.927300 1.012556
v -0.353560 1.927554 1.013169
v -0.354533 1.927695 1.013509
v -0.354766 1.927452 1.012924
v -0.347329 1.927245 1.012423
v -0.347195 1.927262 1.012464
v -0.347058 1.927244 1.012420
v -0.346994 1.927006 1.011845
v -0.347062 1.926901 1.011591
v -0.347242 1.926878 1.011537
v -0.347411 1.926917 1.011630
v -0.347447 1.927021 1.011883
vn -0.0000 -0.9239 0.3827
vn -0.0000 -0.9239 0.3826
vn -0.0002 -0.9238 0.3828
vn -0.0000 -0.9238 0.3829
vn -0.0000 -0.9238 0.3828
vn 0.0001 -0.9239 0.3826
vn -0.0001 -0.9238 0.3829
vn -0.0000 -0.9237 0.3831
vn 0.0003 -0.9239 0.3826
vn 0.0001 -0.9238 0.3829
vn 0.0001 -0.9239 0.3827
vn -0.0001 -0.9238 0.3828
vn -0.0002 -0.9237 0.3830
vn -0.0000 -0.9239 0.3825
vn -0.0002 -0.9240 0.3824
vn -0.0001 -0.9239 0.3827
vn -0.0001 -0.9237 0.3830
vt 0.076923 0.000000
vt 0.358974 0.000000
vt 0.179487 0.000000
vt 0.589744 0.000000
vt 0.564103 0.000000
vt 0.128205 0.000000
vt 0.897436 0.000000
vt 0.974359 0.000000
vt 0.923077 0.000000
vt 0.153846 0.000000
vt 0.692308 0.000000
vt 0.743590 0.000000
vt 0.666667 0.000000
vt 0.769231 0.000000
vt 0.641026 0.000000
vt 0.717949 0.000000
vt 0.102564 0.000000
vt 0.256410 0.000000
vt 0.230769 0.000000
vt 0.205128 0.000000
vt 0.282051 0.000000
vt 0.051282 0.000000
vt 0.025641 0.000000
vt 0.410256 0.000000
vt 0.384615 0.000000
vt 0.333333 0.000000
vt 0.307692 0.000000
vt 0.512821 0.000000
vt 0.487179 0.000000
vt 0.461538 0.000000
vt 0.435897 0.000000
vt 0.538462 0.000000
vt 0.794872 0.000000
vt 0.615385 0.000000
vt 0.000000 0.000000
vt 0.871795 0.000000
vt 1.000000 0.000000
vt 0.846154 0.000000
vt 0.820513 0.000000
vt 0.948718 0.000000
s 0
f 4/1/1 15/2/1 8/3/1
f 24/4/2 23/5/2 6/6/2
f 36/7/3 39/8/3 37/9/3
f 7/10/4 28/11/4 30/12/4
f 28/11/2 27/13/2 31/14/2
f 30/12/5 28/11/5 31/14/5
f 27/13/5 26/15/5 31/14/5
f 30/12/6 29/16/6 5/17/6
f 29/16/4 6/6/4 5/17/4
f 30/12/7 5/17/7 7/10/7
f 5/17/1 4/1/1 8/3/1
f 8/3/8 7/10/8 5/17/8
f 11/18/9 10/19/9 9/20/9
f 12/21/4 11/18/4 9/20/4
f 3/22/5 2/23/5 17/24/5
f 17/24/10 16/25/10 4/1/10
f 16/25/4 15/2/4 4/1/4
f 14/26/4 13/27/4 12/21/4
f 14/26/5 12/21/5 9/20/5
f 4/1/11 3/22/11 17/24/11
f 15/2/5 14/26/5 9/20/5
f 15/2/5 9/20/5 8/3/5
f 21/28/1 20/29/1 19/30/1
f 18/31/1 17/24/1 2/23/1
f 21/28/12 19/30/12 18/31/12
f 22/32/5 21/28/5 18/31/5
f 32/33/2 31/14/2 26/15/2
f 32/33/13 26/15/13 25/34/13
f 22/32/1 18/31/1 2/23/1
f 29/16/1 32/33/1 25/34/1
f 6/6/11 29/16/11 25/34/11
f 23/5/7 22/32/7 2/23/7
f 23/5/14 2/23/14 1/35/14
f 6/6/1 25/34/1 24/4/1
f 23/5/2 1/35/2 6/6/2
f 36/7/15 35/36/15 40/37/15
f 35/36/16 34/38/16 33/39/16
f 40/37/17 35/36/17 33/39/17
f 40/37/12 39/8/12 36/7/12
f 39/8/12 38/40/12 37/9/12
