# Blender 5.0.1
# www.blender.org
o Exporting_sf.125
v -0.539916 1.928702 1.015940
v -0.540617 1.928719 1.015982
v -0.541362 1.928644 1.015801
v -0.542012 1.928480 1.015403
v -0.542442 1.928189 1.014701
v -0.542528 1.927893 1.013987
v -0.542489 1.927701 1.013523
v -0.542380 1.927597 1.013273
v -0.542156 1.927520 1.013087
v -0.541877 1.927509 1.013060
v -0.541241 1.927617 1.013320
v -0.540704 1.927768 1.013687
v -0.540267 1.927951 1.014128
v -0.539933 1.928152 1.014612
v -0.539702 1.928357 1.015109
v -0.539575 1.928555 1.015586
v -0.539587 1.928631 1.015768
v -0.539701 1.928673 1.015871
v -0.542870 1.929145 1.017009
v -0.541607 1.929107 1.016919
v -0.540555 1.929034 1.016742
v -0.540014 1.928984 1.016621
v -0.539824 1.928985 1.016625
v -0.539709 1.929029 1.016729
v -0.539709 1.929108 1.016920
v -0.539960 1.929339 1.017479
v -0.540350 1.929551 1.017990
v -0.540860 1.929732 1.018428
v -0.541467 1.929875 1.018771
v -0.542143 1.929967 1.018995
v -0.542870 1.930000 1.019075
v -0.542870 1.930181 1.019511
v -0.541862 1.930129 1.019385
v -0.540955 1.929983 1.019032
v -0.540187 1.929755 1.018484
v -0.539594 1.929462 1.017774
v -0.539212 1.929115 1.016937
v -0.539076 1.928729 1.016005
v -0.539195 1.928344 1.015077
v -0.539550 1.928002 1.014250
v -0.540139 1.927714 1.013556
v -0.540890 1.927488 1.013009
v -0.541778 1.927334 1.012637
v -0.542870 1.927277 1.012500
v -0.545825 1.928702 1.015940
v -0.545124 1.928719 1.015982
v -0.544379 1.928644 1.015801
v -0.543729 1.928480 1.015403
v -0.543299 1.928189 1.014701
v -0.543212 1.927893 1.013987
v -0.543252 1.927701 1.013523
v -0.543360 1.927597 1.013273
v -0.543585 1.927520 1.013087
v -0.543864 1.927509 1.013060
v -0.544500 1.927617 1.013320
v -0.545037 1.927768 1.013687
v -0.545474 1.927951 1.014128
v -0.545808 1.928152 1.014612
v -0.546039 1.928357 1.015109
v -0.546166 1.928555 1.015586
v -0.546153 1.928631 1.015768
v -0.546040 1.928673 1.015871
v -0.544133 1.929107 1.016919
v -0.545186 1.929034 1.016742
v -0.545727 1.928984 1.016621
v -0.545917 1.928985 1.016625
v -0.546032 1.929029 1.016729
v -0.546032 1.929108 1.016920
v -0.545781 1.929339 1.017479
v -0.545390 1.929551 1.017990
v -0.544880 1.929732 1.018428
v -0.544274 1.929875 1.018771
v -0.543597 1.929967 1.018995
v -0.543879 1.930129 1.019385
v -0.544785 1.929983 1.019032
v -0.545553 1.929755 1.018484
v -0.546147 1.929462 1.017774
v -0.546529 1.929115 1.016937
v -0.546665 1.928729 1.016005
v -0.546546 1.928344 1.015077
v -0.546191 1.928002 1.014250
v -0.545601 1.927714 1.013556
v -0.544851 1.927488 1.013009
v -0.543962 1.927334 1.012637
vn -0.0001 -0.9239 0.3826
vn -0.0000 -0.9239 0.3826
vn -0.0000 -0.9238 0.3829
vn 0.0001 -0.9238 0.3828
vn 0.0001 -0.9240 0.3824
vn -0.0000 -0.9239 0.3827
vn -0.0000 -0.9240 0.3824
vn -0.0001 -0.9239 0.3827
vn 0.0001 -0.9240 0.3825
vn 0.0001 -0.9239 0.3827
vn 0.0001 -0.9239 0.3826
vn -0.0001 -0.9240 0.3825
vn -0.0002 -0.9239 0.3827
vn 0.0003 -0.9239 0.3828
vn -0.0000 -0.9237 0.3830
vn -0.0000 -0.9238 0.3828
vn 0.0002 -0.9240 0.3823
vn -0.0002 -0.9240 0.3823
vn -0.0003 -0.9240 0.3825
vn -0.0003 -0.9238 0.3828
vn -0.0000 -0.9240 0.3825
vn -0.0003 -0.9240 0.3824
vn 0.0001 -0.9238 0.3829
vn -0.0000 -0.9241 0.3822
vn 0.0001 -0.9239 0.3828
vn -0.0001 -0.9239 0.3825
vn -0.0001 -0.9238 0.3828
vn -0.0001 -0.9238 0.3829
vn -0.0000 -0.9238 0.3830
vn -0.0001 -0.9237 0.3831
vn -0.0003 -0.9238 0.3829
vt 0.418605 0.000000
vt 0.093023 0.000000
vt 0.069767 0.000000
vt 0.348837 0.000000
vt 0.372093 0.000000
vt 0.860465 0.000000
vt 0.116279 0.000000
vt 0.837209 0.000000
vt 0.813953 0.000000
vt 0.558140 0.000000
vt 0.790698 0.000000
vt 0.604651 0.000000
vt 0.581395 0.000000
vt 0.767442 0.000000
vt 0.627907 0.000000
vt 0.744186 0.000000
vt 0.651163 0.000000
vt 0.720930 0.000000
vt 0.674419 0.000000
vt 0.534884 0.000000
vt 0.906977 0.000000
vt 0.883721 0.000000
vt 0.302326 0.000000
vt 0.325581 0.000000
vt 0.953488 0.000000
vt 0.930233 0.000000
vt 0.255814 0.000000
vt 0.279070 0.000000
vt 1.000000 0.000000
vt 0.976744 0.000000
vt 0.186047 0.000000
vt 0.232558 0.000000
vt 0.209302 0.000000
vt 0.697674 0.000000
vt 0.395349 0.000000
vt 0.000000 0.000000
vt 0.511628 0.000000
vt 0.023256 0.000000
vt 0.488372 0.000000
vt 0.465116 0.000000
vt 0.441860 0.000000
vt 0.046512 0.000000
vt 0.162791 0.000000
vt 0.139535 0.000000
s 0
f 19/1/1 5/2/1 4/3/1
f 60/4/2 61/5/2 79/6/2
f 49/2/2 50/7/2 6/7/2
f 37/8/3 36/9/3 25/10/3
f 36/9/4 35/11/4 27/12/4
f 26/13/5 36/9/5 27/12/5
f 35/11/2 34/14/2 28/15/2
f 34/14/6 33/16/6 29/17/6
f 33/16/2 32/18/2 30/19/2
f 32/18/2 74/16/2 73/19/2
f 74/16/6 75/14/6 72/17/6
f 75/14/7 76/11/7 71/15/7
f 76/11/3 77/9/3 70/12/3
f 77/9/8 69/13/8 70/12/8
f 38/6/7 37/8/7 24/20/7
f 36/9/8 26/13/8 25/10/8
f 40/21/1 39/22/1 14/23/1
f 39/22/9 38/6/9 16/4/9
f 14/23/10 39/22/10 15/24/10
f 42/25/2 41/26/2 12/27/2
f 41/26/11 40/21/11 13/28/11
f 44/29/10 43/30/10 9/31/10
f 43/30/12 42/25/12 11/32/12
f 10/33/13 9/31/13 43/30/13
f 11/32/2 10/33/2 43/30/2
f 41/26/2 13/28/2 12/27/2
f 75/14/14 71/15/14 72/17/14
f 76/11/15 70/12/15 71/15/15
f 12/27/16 11/32/16 42/25/16
f 74/16/17 72/17/17 73/19/17
f 14/23/7 13/28/7 40/21/7
f 32/18/6 73/19/6 31/34/6
f 32/18/9 31/34/9 30/19/9
f 15/24/16 39/22/16 16/4/16
f 33/16/18 30/19/18 29/17/18
f 17/5/19 16/4/19 38/6/19
f 34/14/20 29/17/20 28/15/20
f 18/35/6 17/5/6 38/6/6
f 1/36/1 18/35/1 23/37/1
f 18/35/21 38/6/21 23/37/21
f 35/11/16 28/15/16 27/12/16
f 2/38/11 1/36/11 22/39/11
f 37/8/22 25/10/22 24/20/22
f 38/6/23 24/20/23 23/37/23
f 1/36/24 23/37/24 22/39/24
f 22/39/12 21/40/12 2/38/12
f 21/40/10 20/41/10 3/42/10
f 3/42/6 2/38/6 21/40/6
f 20/41/25 19/1/25 4/3/25
f 3/42/8 20/41/8 4/3/8
f 45/36/2 46/38/2 79/6/2
f 79/6/26 80/22/26 60/4/26
f 80/22/11 81/21/11 58/23/11
f 60/4/27 80/22/27 59/24/27
f 58/23/8 59/24/8 80/22/8
f 62/35/2 45/36/2 79/6/2
f 61/5/2 62/35/2 79/6/2
f 58/23/3 81/21/3 57/28/3
f 81/21/27 82/26/27 57/28/27
f 82/26/15 83/25/15 56/27/15
f 83/25/3 84/30/3 55/32/3
f 56/27/2 83/25/2 55/32/2
f 84/30/4 44/29/4 53/31/4
f 44/29/23 9/31/23 8/43/23
f 44/29/6 8/43/6 52/43/6
f 56/27/16 57/28/16 82/26/16
f 44/29/28 52/43/28 53/31/28
f 8/43/29 7/44/29 52/43/29
f 6/7/15 5/2/15 49/2/15
f 5/2/30 19/1/30 48/3/30
f 49/2/16 5/2/16 48/3/16
f 7/44/6 6/7/6 51/44/6
f 52/43/16 7/44/16 51/44/16
f 19/1/8 63/41/8 48/3/8
f 63/41/8 64/40/8 47/42/8
f 64/40/6 65/39/6 46/38/6
f 54/33/16 55/32/16 84/30/16
f 53/31/1 54/33/1 84/30/1
f 68/10/16 69/13/16 77/9/16
f 77/9/2 78/8/2 68/10/2
f 78/8/6 79/6/6 67/20/6
f 68/10/13 78/8/13 67/20/13
f 66/37/2 67/20/2 79/6/2
f 65/39/8 66/37/8 46/38/8
f 66/37/3 79/6/3 46/38/3
f 64/40/6 46/38/6 47/42/6
f 50/7/16 51/44/16 6/7/16
f 63/41/31 47/42/31 48/3/31
