# Blender 4.5.1 LTS
# www.blender.org
o chassis_hi.001
v -0.073543 0.447241 0.423237
v -0.218409 0.454914 0.359461
v -0.243650 0.501110 0.238828
v -0.217047 0.337078 -0.238623
v -0.223589 0.496107 0.039597
v -0.223589 0.501887 0.105337
v -0.223589 0.474594 0.229709
v -0.203588 0.437253 0.348786
v -0.204499 0.315551 -0.233573
v -0.193588 0.281107 -0.290000
v 0.053681 0.434687 0.414523
v 0.218409 0.454914 0.359461
v 0.243650 0.533508 0.109474
v 0.243650 0.519458 0.024384
v 0.217047 0.337078 -0.238623
v 0.203129 0.288650 -0.308077
v 0.223589 0.496107 0.039597
v 0.203129 -0.107066 -0.308077
v 0.159585 -0.403527 -0.269593
v -0.159585 -0.389540 -0.231499
v -0.251160 -0.643763 -0.231499
v -0.230000 -0.919711 -0.231499
v -0.159585 -0.958601 -0.231499
v 0.230000 -0.919711 -0.231499
v 0.159585 -0.389540 -0.231499
v -0.230000 -0.525229 -0.231499
v -0.258221 -0.812673 -0.231499
v 0.230000 -0.525229 -0.231499
v 0.210000 -0.107066 -0.290000
v 0.199780 -0.337263 -0.269593
v -0.159585 -0.403527 -0.269593
v -0.199065 -0.449335 -0.269593
v -0.251160 -0.643763 -0.269593
v -0.159585 -0.958601 -0.269593
v 0.000000 -1.028557 -0.269593
v 0.199065 -0.449335 -0.269593
v 0.125854 -1.003290 -0.269593
v -0.053681 0.429697 0.432490
v 0.251160 -0.643763 -0.269593
v -0.230000 0.437253 0.348786
v -0.250000 0.474594 0.229709
v 0.073543 0.447241 0.423237
v -0.173534 0.429304 0.410908
v -0.210000 0.281107 -0.290000
v -0.210000 -0.107066 -0.290000
v -0.053681 0.434679 0.414599
v -0.250000 0.496107 0.039597
v -0.250000 0.501887 0.105336
v -0.243650 0.533508 0.109474
v -0.243650 0.519458 0.024384
v -0.230000 0.315551 -0.233573
v -0.203129 0.288650 -0.308077
v -0.203129 -0.107066 -0.308077
v -0.173534 0.449408 0.402461
v -0.155155 0.437030 0.397214
v 0.053681 0.429705 0.432414
v 0.230000 0.437253 0.348786
v 0.250000 0.474594 0.229709
v 0.173534 0.429304 0.410908
v 0.210000 0.281107 -0.290000
v 0.250000 0.496107 0.039597
v 0.250000 0.501887 0.105336
v 0.243650 0.501110 0.238828
v 0.230000 0.315551 -0.233573
v 0.223589 0.501887 0.105337
v 0.223589 0.474594 0.229709
v 0.203588 0.437253 0.348786
v 0.204499 0.315551 -0.233573
v 0.193588 0.281107 -0.290000
v 0.192496 -0.337263 -0.287670
v 0.173534 0.449408 0.402461
v 0.155155 0.437030 0.397214
v -0.230000 -0.919711 -0.269593
v -0.125854 -1.003290 -0.269593
v 0.230000 -0.919711 -0.269593
v 0.159585 -0.958601 -0.269593
v -0.199065 -0.435348 -0.231499
v -0.125854 -1.003290 -0.231499
v 0.000000 -1.028557 -0.231499
v 0.125854 -1.003290 -0.231499
v 0.159585 -0.958601 -0.231499
v 0.251108 -0.643763 -0.231499
v 0.199065 -0.435348 -0.231499
v -0.230000 -0.525229 -0.269593
v -0.258221 -0.812673 -0.269593
v 0.258221 -0.812673 -0.269593
v 0.258221 -0.812673 -0.231499
v 0.230000 -0.525229 -0.269593
v -0.199780 -0.337263 -0.269593
v -0.192496 -0.337263 -0.287670
v -0.230000 0.437253 0.348786
v -0.250000 0.474594 0.229709
v -0.250000 0.496107 0.039597
v -0.230000 0.315551 -0.233573
v -0.203129 0.288650 -0.308077
v 0.203129 0.288650 -0.308077
v 0.230000 0.437253 0.348786
v 0.250000 0.474594 0.229709
v 0.173534 0.429304 0.410908
v 0.053681 0.429705 0.432414
v -0.230000 -0.919711 -0.269593
v -0.230000 -0.919711 -0.231499
v -0.159585 -0.958601 -0.231499
v 0.159585 -0.958601 -0.269593
v 0.230000 -0.919711 -0.269593
v 0.125854 -1.003290 -0.231499
v 0.159585 -0.958601 -0.231499
v 0.159585 -0.958601 -0.231499
v 0.125854 -1.003290 -0.269593
v 0.125854 -1.003290 -0.269593
v -0.173534 0.429304 0.410908
v -0.210000 0.281107 -0.290000
v -0.210000 0.281107 -0.290000
v -0.250000 0.501887 0.105336
v -0.053681 0.429697 0.432490
v 0.210000 0.281107 -0.290000
v 0.210000 0.281107 -0.290000
v 0.250000 0.501887 0.105336
v 0.250000 0.496107 0.039597
v 0.230000 0.315551 -0.233573
v -0.199065 -0.449335 -0.269593
v -0.159585 -0.958601 -0.269593
v -0.199065 -0.435348 -0.231499
v 0.199065 -0.435348 -0.231499
v 0.230000 -0.919711 -0.231499
v 0.199065 -0.449335 -0.269593
vn -0.3983 0.3325 0.8549
vn -0.1300 0.3492 0.9280
vn -0.4564 0.3447 0.8203
vn 0.0398 0.4278 0.9030
vn 0.1299 0.3464 0.9290
vn 0.0212 -0.9791 -0.2020
vn 0.1420 -0.9488 -0.2821
vn -0.0000 -0.9698 -0.2439
vn -0.0000 -0.9670 -0.2548
vn -0.9348 -0.0000 -0.3553
vn -0.9340 -0.0357 -0.3556
vn -0.9341 -0.0372 -0.3551
vn -0.0000 -0.8447 0.5353
vn -0.0000 -0.9426 0.3340
vn -0.0000 -0.8428 0.5382
vn -0.9740 0.1870 0.1280
vn -0.8555 0.2630 0.4461
vn -0.9695 0.1995 0.1427
vn -0.7993 0.2091 0.5634
vn -0.9793 0.2018 0.0124
vn -0.9750 0.1816 -0.1283
vn -0.9744 0.1974 -0.1076
vn -0.9806 0.1955 0.0111
vn -0.0395 0.4309 0.9016
vn -0.8392 0.3768 -0.3922
vn -0.9266 0.1842 -0.3278
vn -0.9433 0.1521 -0.2951
vn -0.0000 -0.9979 -0.0641
vn -0.0000 -0.9659 -0.2591
vn -0.0000 -0.8535 0.5210
vn -0.8140 0.3885 -0.4318
vn -0.0000 -0.9458 0.3249
vn 0.0517 -0.9577 -0.2830
vn 0.0514 -0.9621 -0.2679
vn 0.1215 -0.9254 -0.3591
vn 0.3983 0.3323 0.8550
vn 0.9253 -0.0756 -0.3716
vn 0.9249 -0.0758 -0.3726
vn 0.9340 -0.0357 -0.3556
vn 0.9341 -0.0372 -0.3551
vn -0.0212 -0.9791 -0.2020
vn -0.1501 -0.9473 -0.2832
vn 0.9348 -0.0000 -0.3553
vn 0.9740 0.1870 0.1280
vn 0.9695 0.1995 0.1427
vn 0.8555 0.2630 0.4461
vn 0.7993 0.2091 0.5634
vn 0.9793 0.2018 0.0124
vn 0.9744 0.1974 -0.1076
vn 0.9750 0.1816 -0.1283
vn 0.9806 0.1955 0.0111
vn 0.4564 0.3447 0.8203
vn 0.8392 0.3768 -0.3922
vn 0.9266 0.1842 -0.3278
vn 0.9433 0.1521 -0.2951
vn 0.8140 0.3885 -0.4318
vn -0.1329 -0.9323 -0.3364
vn -0.0300 -0.9578 -0.2859
vn -0.9942 -0.1078 -0.0000
vn -0.9940 0.1090 -0.0000
vn -0.7366 0.6349 -0.2331
vn -0.9670 -0.2549 -0.0000
vn -0.4835 -0.8754 -0.0000
vn -0.5322 -0.8466 -0.0000
vn -0.0000 -1.0000 -0.0000
vn -0.7982 -0.6024 -0.0000
vn -0.9679 0.2513 -0.0000
vn -0.9660 0.2578 -0.0169
vn 0.9660 0.2578 -0.0169
vn 0.9679 0.2513 0.0001
vn 0.9940 0.1090 0.0011
vn 0.9942 -0.1078 0.0001
vn 0.9942 -0.1078 -0.0000
vn 0.4835 -0.8754 -0.0000
vn 0.1968 -0.9804 -0.0000
vn -0.9281 0.3599 -0.0954
vn 0.7982 -0.6024 -0.0000
vn 0.9670 -0.2549 -0.0000
vn 0.9173 0.3739 -0.1373
vn 0.9281 0.3599 -0.0954
vn 0.7366 0.6349 -0.2331
vn -0.0235 -0.9631 -0.2681
vn -0.9173 0.3739 -0.1373
vn 0.9940 0.1089 0.0013
vn -0.9253 -0.0756 -0.3716
vn -0.9249 -0.0758 -0.3726
vt 0.789741 0.494286
vt 0.842316 0.486609
vt 0.789741 0.486609
vt 0.911582 0.494286
vt 0.911582 0.486609
vt 0.645571 0.443206
vt 0.674851 0.500313
vt 0.626737 0.443206
vt 0.626737 0.362316
vt 0.757843 0.006860
vt 0.761736 0.255240
vt 0.757843 0.255240
vt 0.645571 0.047605
vt 0.645571 0.233172
vt 0.626737 0.047605
vt 0.759100 0.377167
vt 0.759100 0.456593
vt 0.763814 0.377167
vt 0.763814 0.451786
vt 0.763814 0.292599
vt 0.763814 0.222954
vt 0.759100 0.222954
vt 0.759100 0.292599
vt 0.842316 0.494286
vt 0.763814 0.068741
vt 0.759100 0.004071
vt 0.763814 0.004071
vt 0.645571 0.277829
vt 0.645571 0.362316
vt 0.626737 0.009274
vt 0.759100 0.068741
vt 0.626737 0.233172
vt 0.626737 0.277829
vt 0.752297 0.484554
vt 0.752297 0.500067
vt 0.645571 0.009274
vt 0.761736 0.006860
vt 0.686378 0.484554
vt 0.964157 0.494286
vt 0.990040 0.467337
vt 0.985913 0.467337
vt 0.991938 0.255240
vt 0.995832 0.255240
vt 0.645830 0.443206
vt 0.626996 0.443206
vt 0.675110 0.500313
vt 0.626996 0.362316
vt 0.995832 0.006860
vt 0.645830 0.047605
vt 0.626996 0.047605
vt 0.645830 0.233172
vt 0.994798 0.377167
vt 0.990084 0.377167
vt 0.994798 0.456593
vt 0.990084 0.451786
vt 0.990084 0.292599
vt 0.994798 0.222954
vt 0.990084 0.222954
vt 0.994798 0.292599
vt 0.964157 0.486609
vt 0.990084 0.068741
vt 0.994798 0.004071
vt 0.990084 0.004071
vt 0.645830 0.277829
vt 0.645830 0.362316
vt 0.626996 0.009274
vt 0.994798 0.068741
vt 0.626996 0.233172
vt 0.626996 0.277829
vt 0.645830 0.009274
vt 0.991938 0.006860
vt 0.686636 0.484554
vt 0.752297 0.500016
vt 0.886582 0.787363
vt 0.721171 0.759099
vt 0.886582 0.759099
vt 0.437605 0.994839
vt 0.497293 0.994839
vt 0.497293 0.880161
vt 0.991845 0.759099
vt 0.991845 0.787363
vt 0.279918 0.878538
vt 0.495474 0.878538
vt 0.495474 0.996462
vt 0.393033 0.066623
vt 0.393033 0.008969
vt 0.491183 0.008969
vt 0.343763 0.066623
vt 0.343763 0.008969
vt 0.605092 0.787363
vt 0.605092 0.759099
vt 0.605092 0.759099
vt 0.605092 0.787363
vt 0.886582 0.787362
vt 0.393033 0.066623
vt 0.491183 0.066623
vt 0.426812 0.880161
vt 0.506408 0.787363
vt 0.279918 0.996462
vt 0.343763 0.066623
vt 0.991845 0.787362
vt 0.506408 0.759099
vt 0.506408 0.787363
vt 0.721171 0.787363
vt 0.721171 0.787362
vt 0.763634 0.467337
vt 0.767761 0.467337
s 1
f 111/1/1 1/2/2 54/3/3
f 1/2/2 56/4/4 42/5/5
f 8/6/6 43/7/7 91/8/8
f 91/8/8 92/9/9 8/6/6
f 112/10/10 53/11/11 45/12/12
f 9/13/13 5/14/14 51/15/15
f 41/16/16 40/17/17 3/18/18
f 111/1/1 54/3/3 2/19/19
f 49/20/20 50/21/21 93/22/22
f 114/23/23 41/16/16 49/20/20
f 111/1/1 115/24/24 1/2/2
f 50/21/21 4/25/25 93/22/22
f 113/26/26 4/25/25 52/27/27
f 6/28/28 7/29/29 92/9/9
f 93/22/22 114/23/23 49/20/20
f 40/17/17 111/1/1 2/19/19
f 3/18/18 40/17/17 2/19/19
f 49/20/20 41/16/16 3/18/18
f 9/13/13 51/15/15 44/30/30
f 4/25/25 113/26/26 94/31/31
f 4/25/25 94/31/31 93/22/22
f 47/32/32 5/14/14 48/33/28
f 5/14/14 47/32/32 51/15/15
f 48/33/28 6/28/28 92/9/9
f 48/33/28 5/14/14 6/28/28
f 8/6/6 92/9/9 7/29/29
f 46/34/33 38/35/34 43/7/7
f 10/36/30 9/13/13 44/30/30
f 112/10/10 95/37/10 53/11/11
f 55/38/35 46/34/33 43/7/7
f 43/7/7 8/6/6 55/38/35
f 1/2/2 115/24/24 56/4/4
f 56/4/4 59/39/36 42/5/5
f 30/40/37 70/41/38 18/42/39
f 18/42/39 29/43/40 30/40/37
f 67/44/41 97/45/8 99/46/42
f 97/45/8 67/44/41 98/47/9
f 116/48/43 29/43/40 18/42/39
f 68/49/13 120/50/15 17/51/14
f 58/52/44 63/53/45 57/54/46
f 59/39/36 57/54/46 12/55/47
f 13/56/48 119/57/49 14/58/50
f 62/59/51 13/56/48 58/52/44
f 59/39/36 71/60/52 42/5/5
f 14/58/50 119/57/49 15/61/53
f 117/62/54 16/63/55 15/61/53
f 65/64/28 98/47/9 66/65/29
f 119/57/49 13/56/48 62/59/51
f 59/39/36 12/55/47 71/60/52
f 63/53/45 12/55/47 57/54/46
f 13/56/48 63/53/45 58/52/44
f 68/49/13 60/66/30 120/50/15
f 15/61/53 64/67/56 117/62/54
f 15/61/53 119/57/49 64/67/56
f 61/68/32 118/69/28 17/51/14
f 17/51/14 120/50/15 61/68/32
f 118/69/28 98/47/9 65/64/28
f 118/69/28 65/64/28 17/51/14
f 67/44/41 66/65/29 98/47/9
f 69/70/30 60/66/30 68/49/13
f 116/48/43 18/42/39 96/71/43
f 72/72/57 99/46/42 100/73/58
f 99/46/42 72/72/57 67/44/41
f 27/74/59 33/75/60 85/76/59
f 20/77/61 31/78/61 121/79/61
f 85/76/59 101/80/62 22/81/62
f 102/82/63 73/83/63 122/84/63
f 78/85/64 74/86/64 35/87/65
f 23/88/66 34/89/66 74/86/64
f 33/75/60 26/90/67 84/91/68
f 88/92/69 28/93/70 39/75/71
f 39/75/71 87/94/72 86/76/73
f 24/82/74 104/84/74 105/83/74
f 35/87/65 106/95/75 79/96/65
f 123/97/61 20/77/61 121/79/61
f 84/91/68 26/90/67 77/98/76
f 103/99/63 102/82/63 122/84/63
f 78/85/64 23/88/66 74/86/64
f 79/96/65 78/85/64 35/87/65
f 106/95/75 35/87/65 109/86/75
f 110/86/77 107/100/77 80/95/77
f 108/100/77 37/86/77 76/89/77
f 104/84/74 24/82/74 81/99/74
f 86/76/73 87/94/72 125/101/78
f 88/92/69 126/102/79 124/103/80
f 83/97/81 36/79/81 25/77/81
f 25/77/81 36/79/81 19/78/81
f 11/34/82 72/72/57 100/73/58
f 84/91/68 77/98/76 32/102/83
f 33/75/60 21/104/60 26/90/67
f 27/74/59 85/76/59 22/81/62
f 21/104/60 33/75/60 27/74/59
f 86/76/73 125/101/78 75/80/78
f 39/75/71 82/105/84 87/94/72
f 28/93/70 88/92/69 124/103/80
f 28/93/70 82/105/84 39/75/71
f 89/106/85 53/11/11 90/107/86
f 53/11/11 89/106/85 45/12/12
