# Blender 4.5.1 LTS
# www.blender.org
o handlebars
v 0.000000 0.004815 0.542503
v -0.160488 -0.022396 0.475930
v -0.110737 -0.012329 0.500847
v -0.100000 0.094109 0.422824
v -0.090000 0.000763 0.532473
v -0.090000 0.071047 0.365744
v -0.163039 -0.024662 0.377788
v -0.166764 0.019265 0.424357
v -0.109803 0.038966 0.353279
v -0.115056 0.029911 0.466177
v -0.127709 -0.065369 0.359199
v 0.090000 0.117170 0.479903
v 0.090000 0.000763 0.532473
v 0.090000 0.071047 0.365744
v 0.110737 -0.012329 0.500847
v 0.109803 0.038966 0.353279
v 0.163040 -0.024662 0.377788
v 0.166764 0.019265 0.424357
v 0.115056 0.029911 0.466177
v 0.000000 -0.065369 0.359199
v -0.174802 -0.044447 0.442626
v -0.090000 0.117170 0.479903
v -0.138966 -0.066217 0.398928
v 0.000000 0.120889 0.489108
v 0.000000 0.066215 0.353786
v 0.100000 0.094109 0.422824
v 0.138966 -0.066217 0.398928
v 0.174802 -0.044447 0.442626
v 0.160488 -0.022396 0.475930
v 0.127709 -0.065369 0.359198
v -0.000000 -0.127114 -0.171433
v -0.000000 -0.021043 -0.110757
v -0.000000 0.100736 -0.125422
v -0.000000 0.218550 -0.209077
v -0.103774 -0.122628 -0.177174
v -0.103774 -0.020029 -0.117971
v -0.103774 0.098008 -0.132177
v -0.081774 0.212810 -0.213562
v -0.103774 0.024422 -0.240891
v 0.103774 -0.122628 -0.177174
v 0.073970 -0.253775 -0.283323
v 0.103774 -0.020029 -0.117971
v 0.103774 0.098008 -0.132177
v 0.081774 0.212810 -0.213562
v 0.068640 0.254458 -0.329010
v 0.088968 -0.160106 -0.316846
v 0.103774 -0.076439 -0.246398
v 0.103774 0.024422 -0.240891
v -0.000000 -0.260530 -0.280594
v -0.000000 0.261672 -0.327996
v -0.073970 -0.253775 -0.283323
v -0.068640 0.254458 -0.329010
v -0.088968 -0.160106 -0.316846
v -0.103774 -0.076439 -0.246398
v -0.088968 0.141873 -0.304827
v 0.088968 0.141873 -0.304827
v -0.110737 -0.012329 0.500847
v -0.100000 0.094109 0.422824
v 0.110737 -0.012329 0.500847
v -0.115056 0.029911 0.466177
v 0.115056 0.029911 0.466177
v 0.100000 0.094109 0.422824
vn -0.0000 0.4179 0.9085
vn -0.0000 0.4141 0.9102
vn -0.5361 0.3496 0.7684
vn -0.9309 0.2216 0.2903
vn -0.8733 0.2109 0.4391
vn -0.6428 0.3930 0.6575
vn -0.9619 0.2666 0.0608
vn -0.4459 0.5590 -0.6990
vn -0.0000 0.0427 -0.9991
vn -0.4172 0.3208 -0.8503
vn -0.8720 0.4868 0.0512
vn -0.8288 -0.0674 -0.5555
vn -0.9979 -0.0594 -0.0259
vn -0.7645 -0.5829 -0.2753
vn -0.5547 0.5593 0.6160
vn -0.7459 0.6645 -0.0454
vn -0.7304 0.4481 0.5155
vn -0.4626 0.5338 0.7079
vn -0.4369 -0.2312 -0.8693
vn 0.5361 0.3496 0.7684
vn 0.6428 0.3930 0.6575
vn 0.8733 0.2109 0.4391
vn 0.9309 0.2216 0.2903
vn 0.4172 0.3208 -0.8503
vn 0.4459 0.5590 -0.6990
vn -0.0000 -0.0411 -0.9992
vn 0.8720 0.4868 0.0512
vn 0.8288 -0.0674 -0.5555
vn 0.7459 0.6645 -0.0454
vn 0.9979 -0.0594 -0.0259
vn 0.7645 -0.5829 -0.2753
vn 0.9619 0.2666 0.0608
vn 0.5547 0.5593 0.6160
vn 0.7304 0.4481 0.5155
vn 0.4626 0.5338 0.7079
vn 0.4369 -0.2312 -0.8693
vn -0.0000 -0.6382 0.7698
vn -0.7271 -0.4298 0.5353
vn -0.5239 -0.6047 0.6000
vn -0.0000 -0.5679 0.8231
vn -0.6687 -0.1489 0.7285
vn -0.0000 -0.1978 0.9803
vn -0.0000 0.3635 0.9316
vn -0.6976 0.2992 0.6510
vn -0.6367 0.6515 0.4125
vn -0.0000 0.7977 0.6030
vn -0.5321 0.8122 0.2392
vn -0.0000 0.9401 0.3409
vn -0.9854 -0.1589 -0.0618
vn -0.9982 -0.0500 -0.0333
vn -0.9884 0.1422 -0.0525
vn -0.9990 0.0366 -0.0248
vn 0.5239 -0.6047 0.6000
vn 0.7271 -0.4298 0.5353
vn 0.6687 -0.1489 0.7285
vn 0.6976 0.2992 0.6510
vn 0.6367 0.6515 0.4125
vn 0.5321 0.8122 0.2392
vn 0.9854 -0.1589 -0.0618
vn 0.9982 -0.0500 -0.0333
vn 0.9990 0.0366 -0.0248
vn 0.9884 0.1422 -0.0525
vt 0.007069 0.749911
vt 0.007069 0.628552
vt 0.096739 0.749911
vt 0.142991 0.703948
vt 0.142991 0.749911
vt 0.045427 0.628552
vt 0.097600 0.628552
vt 0.404325 0.628552
vt 0.492506 0.628552
vt 0.404325 0.703948
vt 0.249787 0.703948
vt 0.326383 0.725047
vt 0.249787 0.749911
vt 0.326227 0.749911
vt 0.196759 0.749911
vt 0.404325 0.749911
vt 0.492506 0.749911
vt 0.326384 0.725043
vt 0.326228 0.749911
vt 0.196755 0.749911
vt 0.745707 0.750000
vt 0.722423 0.631493
vt 0.745707 0.631493
vt 0.725645 0.750000
vt 0.689111 0.631493
vt 0.690972 0.750000
vt 0.638392 0.750000
vt 0.638392 0.631493
vt 0.579339 0.631493
vt 0.579339 0.750000
vt 0.505253 0.631493
vt 0.505254 0.750000
vt 0.745981 0.501851
vt 0.689352 0.501851
vt 0.505527 0.501851
vt 0.626898 0.501851
s 1
f 1/1/1 24/2/2 5/3/3
f 60/4/4 3/5/5 22/6/6
f 22/6/6 4/7/7 60/4/4
f 5/3/3 24/2/2 22/6/6
f 6/8/8 25/9/9 9/10/10
f 8/11/11 9/10/10 7/12/12
f 9/10/10 8/11/11 6/8/8
f 21/13/13 7/12/12 23/14/14
f 5/3/3 22/6/6 3/5/5
f 10/4/15 58/7/16 8/11/11
f 8/11/11 2/15/17 10/4/15
f 2/15/17 8/11/11 21/13/13
f 57/5/18 10/4/15 2/15/17
f 21/13/13 8/11/11 7/12/12
f 8/11/11 58/7/16 6/8/8
f 11/16/19 23/14/14 7/12/12
f 11/16/19 7/12/12 9/10/10
f 11/16/19 9/10/10 25/9/9
f 24/2/2 13/3/20 12/6/21
f 59/5/22 19/4/23 12/6/21
f 12/6/21 13/3/20 59/5/22
f 1/1/1 13/3/20 24/2/2
f 16/10/24 25/9/9 14/8/25
f 11/16/19 25/9/9 20/17/26
f 18/11/27 17/18/28 16/10/24
f 18/11/27 14/8/25 62/7/29
f 28/13/30 27/19/31 17/18/28
f 12/6/21 19/4/23 26/7/32
f 61/4/33 18/11/27 62/7/29
f 28/13/30 18/11/27 29/20/34
f 61/4/33 29/20/34 18/11/27
f 15/5/35 29/20/34 61/4/33
f 28/13/30 17/18/28 18/11/27
f 18/11/27 16/10/24 14/8/25
f 30/16/36 17/18/28 27/19/31
f 30/16/36 16/10/24 17/18/28
f 30/16/36 25/9/9 16/10/24
f 20/17/26 25/9/9 30/16/36
f 49/21/37 35/22/38 51/23/39
f 49/21/37 31/24/40 35/22/38
f 31/24/40 36/25/41 35/22/38
f 31/24/40 32/26/42 36/25/41
f 32/26/42 33/27/43 37/28/44
f 33/27/43 38/29/45 37/28/44
f 33/27/43 34/30/46 38/29/45
f 34/30/46 52/31/47 38/29/45
f 34/30/46 50/32/48 52/31/47
f 51/23/39 35/22/38 53/33/49
f 35/22/38 36/25/41 54/34/50
f 53/33/49 35/22/38 54/34/50
f 37/28/44 55/35/51 39/36/52
f 55/35/51 38/29/45 52/31/47
f 37/28/44 38/29/45 55/35/51
f 54/34/50 36/25/41 39/36/52
f 32/26/42 37/28/44 36/25/41
f 36/25/41 37/28/44 39/36/52
f 49/21/37 41/23/53 40/22/54
f 49/21/37 40/22/54 31/24/40
f 31/24/40 40/22/54 42/25/55
f 31/24/40 42/25/55 32/26/42
f 32/26/42 43/28/56 33/27/43
f 33/27/43 43/28/56 44/29/57
f 33/27/43 44/29/57 34/30/46
f 34/30/46 44/29/57 45/31/58
f 34/30/46 45/31/58 50/32/48
f 41/23/53 46/33/59 40/22/54
f 42/25/55 40/22/54 47/34/60
f 40/22/54 46/33/59 47/34/60
f 43/28/56 48/36/61 56/35/62
f 44/29/57 56/35/62 45/31/58
f 44/29/57 43/28/56 56/35/62
f 42/25/55 48/36/61 43/28/56
f 32/26/42 42/25/55 43/28/56
f 42/25/55 47/34/60 48/36/61
