# Blender 4.2.0
# www.blender.org
o SD77\SD77_Tuerfluegel_VH.002
v 1.202300 4.621700 0.010400
v 1.202300 4.641700 0.010400
v 1.221500 4.641700 1.201100
v 1.221500 4.621700 1.201100
v 1.207900 4.621700 1.874400
v 1.207900 4.641700 1.874400
v 1.221200 4.006700 0.040400
v 1.230600 4.098100 0.617700
v 1.230899 4.074600 0.641200
v 1.230300 4.128700 0.605000
v 1.221200 4.006700 0.040400
v 1.221200 4.529600 0.040400
v 1.230300 4.460200 0.605000
v 1.230300 4.128700 0.605000
v 1.230600 4.490800 0.617700
v 1.230300 4.460200 0.605000
v 1.220800 4.611700 0.010400
v 1.239999 4.611700 1.201100
v 1.239999 4.527000 1.201100
v 1.231400 4.527000 0.671800
v 1.230899 4.514300 0.641200
v 1.226400 4.611701 1.874400
v 1.230199 4.527000 1.688300
v 1.226400 4.006700 1.874400
v 1.239999 4.006700 1.201100
v 1.239999 4.061900 1.201100
v 1.230199 4.061901 1.688300
v 1.231400 4.061900 0.671800
v 1.221200 4.529600 0.040400
v 1.226400 4.006700 1.874400
v 1.228799 4.128700 1.755000
v 1.228799 4.460200 1.755000
v 1.226400 4.611701 1.874400
v 1.239000 4.001700 1.201100
v 1.220200 4.001700 0.040400
v 1.225400 4.001700 1.874400
v 1.229100 4.490800 1.742400
v 1.229499 4.514300 1.718900
v 1.229499 4.074600 1.718900
v 1.229100 4.098100 1.742400
v 1.228799 4.460200 1.755000
v 1.220800 4.534600 0.010400
v 1.221200 4.006700 0.040400
v 1.186200 4.001700 0.040400
v 1.220200 4.001700 0.040400
v 1.226400 4.611701 1.874400
v 1.239999 4.611700 1.201100
v 1.220500 4.626700 1.201100
v 1.206900 4.626700 1.874400
v 1.220800 4.611700 0.010400
v 1.201300 4.626700 0.010400
vn 0.9999 -0.0000 -0.0161
vn 1.0000 -0.0000 0.0020
vn 0.9998 -0.0000 0.0202
vn 0.9993 -0.0331 -0.0161
vn 0.9999 -0.0005 -0.0161
vn 0.9999 -0.0002 -0.0161
vn 0.9993 -0.0327 -0.0161
vn 0.9999 0.0001 -0.0161
vn 0.9999 -0.0008 -0.0156
vn 0.9999 -0.0001 -0.0161
vn 0.9999 0.0003 -0.0160
vn 0.9998 -0.0000 0.0203
vn 0.9998 -0.0001 0.0205
vn 0.9993 -0.0328 0.0201
vn 0.9951 -0.0987 0.0020
vn 0.9998 -0.0002 0.0204
vn 0.9999 0.0001 -0.0162
vn 0.9993 -0.0327 0.0201
vn 0.9998 -0.0000 0.0201
vn 0.9806 -0.1960 0.0020
vn 0.9805 -0.1960 -0.0159
vn 0.9804 -0.1962 0.0198
vn 0.9998 0.0003 0.0202
vn 0.9998 -0.0001 0.0201
vn 0.9998 -0.0005 0.0201
vn 0.9999 -0.0000 -0.0160
vn -0.0000 -0.0000 -1.0000
vn 0.6097 0.7925 0.0123
vn 0.6097 0.7926 0.0013
vn 0.6097 0.7926 0.0012
vn 0.6097 0.7926 -0.0098
vt 0.922446 1.281221
vt 0.924225 1.395938
vt 0.924225 1.281221
vt 0.922446 1.395938
vt 0.922446 1.460806
vt 0.924225 1.460806
vt 0.867747 1.284112
vt 0.873786 1.341990
vt 0.875872 1.339730
vt 0.878597 1.338508
vt 0.867748 1.284112
vt 0.908075 1.338507
vt 0.914248 1.284112
vt 0.878597 1.338507
vt 0.910801 1.339730
vt 0.921557 1.281221
vt 0.908076 1.338508
vt 0.914016 1.395938
vt 0.921557 1.395938
vt 0.914016 1.344942
vt 0.912887 1.341990
vt 0.921557 1.460806
vt 0.914016 1.442872
vt 0.867747 1.460806
vt 0.872657 1.395938
vt 0.867747 1.395938
vt 0.872657 1.442872
vt 0.872657 1.344942
vt 0.914249 1.284112
vt 0.867748 1.460806
vt 0.908075 1.449306
vt 0.878597 1.449306
vt 0.921556 1.460806
vt 0.867303 1.395938
vt 0.867303 1.284112
vt 0.867303 1.460806
vt 0.910801 1.448084
vt 0.912887 1.445824
vt 0.873786 1.445824
vt 0.875872 1.448084
vt 0.908076 1.449306
vt 0.914695 1.281221
vt 0.922891 1.395938
vt 0.922891 1.460806
vt 0.922891 1.281221
s 1
f 1/1/1 2/3/1 3/2/2
f 1/1/1 3/2/2 4/4/2
f 5/5/3 4/4/2 3/2/2
f 5/5/3 3/2/2 6/6/3
f 7/7/4 8/9/6 9/8/5
f 7/7/4 10/10/1 8/9/6
f 11/11/7 12/13/1 13/12/1
f 11/11/7 13/12/1 14/14/1
f 15/15/8 16/17/1 17/16/9
f 17/16/9 18/19/2 19/18/2
f 17/16/9 19/18/2 20/20/10
f 21/21/11 15/15/8 17/16/9
f 22/22/12 23/23/13 19/18/2
f 22/22/12 19/18/2 18/19/2
f 24/24/14 25/26/15 26/25/2
f 24/24/14 26/25/2 27/27/16
f 20/20/10 21/21/11 17/16/9
f 9/8/5 28/28/17 7/7/4
f 29/29/1 17/16/9 16/17/1
f 30/30/18 31/32/19 32/31/19
f 30/30/18 32/31/19 33/33/19
f 25/26/15 7/7/4 28/28/17
f 25/26/15 28/28/17 26/25/2
f 34/34/20 35/35/21 7/7/4
f 34/34/20 7/7/4 25/26/15
f 25/26/15 24/24/14 36/36/22
f 25/26/15 36/36/22 34/34/20
f 37/37/23 38/38/24 22/22/12
f 27/27/16 39/39/19 24/24/14
f 38/38/24 23/23/13 22/22/12
f 24/24/14 40/40/25 31/32/19
f 22/22/12 41/41/19 37/37/23
f 24/24/14 39/39/19 40/40/25
f 17/16/9 29/29/1 42/42/26
f 43/7/27 45/35/27 44/35/27
f 46/22/28 47/19/30 48/43/29
f 46/22/28 48/43/29 49/44/28
f 47/19/30 50/16/31 51/45/31
f 47/19/30 51/45/31 48/43/29
