# Blender 4.2.0
# www.blender.org
o SD77\SD77_Tuerbuegel_VV
v 1.201382 5.074905 1.919999
v 1.194081 5.061798 1.919999
v 1.194081 5.061798 1.899999
v 1.201382 5.074905 1.899999
v 1.193781 5.087799 1.919999
v 1.193781 5.087799 1.899999
v 1.178782 5.087601 1.919999
v 1.178782 5.087601 1.899999
v 1.171381 5.074600 1.919999
v 1.171381 5.074600 1.899999
v 1.179081 5.061707 1.919999
v 1.179081 5.061707 1.899999
v 1.175682 5.102798 1.906199
v 1.180882 5.102798 1.915299
v 1.180781 5.278198 1.915299
v 1.175581 5.278198 1.906199
v 1.191381 5.102905 1.915299
v 1.191281 5.278305 1.915299
v 1.196681 5.102997 1.906199
v 1.196581 5.278397 1.906199
v 1.190882 5.153000 1.897099
v 1.180381 5.152802 1.897099
v 1.180882 5.278198 1.897099
v 1.191381 5.278305 1.897099
v 1.180882 5.102798 1.897099
v 1.191381 5.102905 1.897099
v 1.180381 5.152802 1.887100
v 1.180882 5.102798 1.887100
v 1.191381 5.102905 1.887100
v 1.190882 5.153000 1.887100
v 1.182682 5.102905 1.900200
v 1.189581 5.102997 1.900200
v 1.189881 5.080109 1.900200
v 1.182981 5.080109 1.900200
v 1.179282 5.102905 1.906199
v 1.179482 5.080002 1.906199
v 1.193081 5.103104 1.906199
v 1.193381 5.080200 1.906199
v 1.189881 5.080109 1.900200
v 1.193381 5.080200 1.906199
v 1.179482 5.080002 1.906199
v 1.182981 5.080109 1.900200
v 1.182682 5.102905 1.912199
v 1.182981 5.080109 1.912199
v 1.189581 5.102997 1.912199
v 1.189881 5.080109 1.912199
v 1.189881 5.080109 1.912199
v 1.182981 5.080109 1.912199
v 1.193582 5.074799 1.890000
v 1.189981 5.080994 1.890000
v 1.182782 5.080902 1.890000
v 1.179182 5.074707 1.890000
v 1.182881 5.068497 1.890000
v 1.190082 5.068604 1.890000
v 1.134081 5.382004 0.028100
v 1.197981 5.283295 0.028100
v 1.193781 5.280197 0.019099
v 1.129881 5.378998 0.019099
v 1.129881 5.378906 0.037199
v 1.193781 5.280197 0.037199
v 1.121381 5.372803 0.037199
v 1.185281 5.274002 0.037199
v 1.117082 5.369705 0.028100
v 1.180982 5.270996 0.028100
v 1.121381 5.372803 0.019000
v 1.185281 5.274002 0.019000
v 1.198081 5.075394 0.028100
v 1.193781 5.075394 0.019099
v 1.193781 5.075394 0.037199
v 1.185281 5.070404 0.037100
v 1.180982 5.070404 0.028100
v 1.185281 5.070404 0.019099
v 1.111382 5.371704 1.960000
v 1.118882 5.384705 1.960000
v 1.118882 5.384705 0.010000
v 1.111382 5.371704 0.010000
v 1.133882 5.384705 1.960000
v 1.133882 5.384705 0.010000
v 1.141382 5.371704 1.960000
v 1.141382 5.371704 0.010000
v 1.219982 5.329803 0.013000
v 1.220481 5.329803 0.039000
v 1.220481 5.098404 0.039000
v 1.219982 5.098404 0.013000
v 1.190082 5.068207 0.038100
v 1.190082 5.068207 0.019200
v 1.220481 5.098404 0.039000
v 1.220481 5.329803 0.039000
v 1.190082 5.277206 0.038100
v 1.190082 5.068207 0.038100
v 1.219982 5.329803 0.013000
v 1.191082 5.314407 0.014600
v 1.191381 5.314407 0.038599
v 1.165281 5.314606 0.019200
v 1.165281 5.314606 0.038100
v 1.133882 5.358704 1.960000
v 1.118882 5.358704 1.960000
v 1.118882 5.358704 0.010000
v 1.133882 5.358704 0.010000
v 1.179582 5.282303 1.897099
v 1.187982 5.288605 1.897099
v 1.175481 5.279099 1.906199
v 1.179582 5.282303 1.915299
v 1.187982 5.288605 1.915299
v 1.192182 5.291794 1.906199
v 1.121282 5.372696 1.897099
v 1.129682 5.378998 1.897099
v 1.117082 5.369507 1.906199
v 1.121282 5.372696 1.915299
v 1.129682 5.378998 1.915299
v 1.133882 5.382202 1.906199
vn 0.9999 0.0106 -0.0000
vn 0.4810 -0.8108 -0.3334
vn 0.5104 -0.8600 -0.0000
vn 0.9427 0.0105 -0.3336
vn 0.4903 0.8716 -0.0000
vn 0.4614 0.8219 -0.3339
vn -0.5102 0.8601 -0.0000
vn -0.4814 0.8106 -0.3336
vn -0.9999 -0.0107 -0.0000
vn -0.9427 -0.0112 -0.3334
vn -0.4898 -0.8719 -0.0000
vn -0.4612 -0.8222 -0.3337
vn -0.7833 -0.6060 -0.1386
vn -0.4970 -0.0683 0.8651
vn -0.4295 -0.5014 0.7511
vn -0.9886 -0.1074 -0.1056
vn 0.4926 0.0793 0.8666
vn 0.4369 -0.4990 0.7484
vn 0.9842 0.1263 -0.1238
vn 0.7836 -0.5999 -0.1615
vn 0.7939 0.2265 -0.5642
vn -0.4960 -0.0672 -0.8657
vn -0.8078 0.2186 -0.5474
vn 0.4942 0.0787 -0.8658
vn -0.6634 -0.7265 -0.1792
vn 0.6792 -0.7118 -0.1792
vn -0.5712 -0.5836 -0.5772
vn -0.5836 0.5710 -0.5774
vn 0.5710 0.5837 -0.5773
vn 0.5835 -0.5710 -0.5775
vn -0.5001 -0.0055 -0.8660
vn 0.4390 -0.4954 -0.7495
vn 0.5005 0.0057 -0.8657
vn -0.4280 -0.5050 -0.7495
vn -0.9999 -0.0110 0.0001
vn -0.6466 -0.7629 -0.0003
vn 0.6628 -0.7488 0.0002
vn 0.9999 0.0112 0.0014
vn 0.4390 -0.4954 -0.7496
vn -0.6466 -0.7629 -0.0004
vn 0.6628 -0.7488 0.0003
vn -0.4279 -0.5050 -0.7496
vn -0.5001 -0.0055 0.8659
vn -0.4284 -0.5052 0.7492
vn 0.4994 0.0056 0.8664
vn 0.4383 -0.4956 0.7499
vn 0.4381 -0.4955 0.7500
vn -0.4283 -0.5052 0.7492
vn 0.4177 0.0047 -0.9086
vn 0.2746 0.4882 -0.8284
vn -0.2864 0.4818 -0.8281
vn -0.4188 -0.0056 -0.9080
vn -0.2742 -0.4886 -0.8283
vn 0.2856 -0.4822 -0.8282
vn 0.8395 0.5434 0.0008
vn 0.4835 0.1393 -0.8642
vn 0.9608 0.2771 0.0007
vn 0.4206 0.2724 -0.8654
vn 0.4815 0.1388 0.8654
vn 0.4191 0.2712 0.8665
vn -0.4831 -0.1394 0.8644
vn -0.4203 -0.2722 0.8656
vn -0.9608 -0.2771 0.0003
vn -0.8395 -0.5434 0.0002
vn -0.4821 -0.1392 -0.8650
vn -0.4197 -0.2717 -0.8661
vn 0.5368 0.0002 -0.8437
vn 1.0000 0.0001 0.0005
vn 0.5350 -0.0002 0.8449
vn -0.5365 -0.0002 0.8439
vn -1.0000 -0.0001 0.0001
vn -0.5353 -0.0002 -0.8446
vn -0.9820 -0.1890 -0.0000
vn -0.5000 0.8660 -0.0000
vn -1.0000 0.0005 -0.0000
vn 0.4995 0.8663 -0.0000
vn 1.0000 0.0005 -0.0000
vn 0.9820 -0.1887 -0.0000
vn 0.5156 0.8568 -0.0106
vn 0.8119 -0.3426 0.4726
vn 0.2201 0.3913 0.8935
vn 0.9238 -0.3825 -0.0132
vn 0.7071 -0.7071 -0.0071
vn 0.4845 -0.5076 0.7124
vn 0.8120 -0.3426 0.4726
vn -0.0202 -0.0083 0.9998
vn 0.2198 0.3914 0.8936
vn 0.4848 -0.5074 0.7124
vn -0.2371 0.9715 0.0030
vn 0.5163 0.8563 -0.0107
vn -0.1762 0.6689 0.7222
vn 0.0087 1.0000 -0.0000
vn -0.0073 0.7028 0.7114
vn 0.5000 -0.8660 -0.0000
vn -0.6547 -0.7559 -0.0000
vn -0.4994 -0.8664 -0.0000
vn 0.6553 -0.7554 -0.0000
vn -0.4562 -0.2045 -0.8660
vn 0.4538 0.2160 -0.8645
vn -0.9124 -0.4093 0.0004
vn -0.4571 -0.2048 0.8655
vn 0.4525 0.2151 0.8654
vn 0.9030 0.4296 0.0008
vn -0.4201 -0.2710 -0.8660
vn 0.4210 0.2717 -0.8654
vn -0.8403 -0.5422 0.0005
vn -0.4208 -0.2715 0.8656
vn 0.4197 0.2708 0.8663
vn 0.8403 0.5422 0.0004
vt 0.390586 0.054147
vt 0.389091 0.048640
vt 0.389091 0.054147
vt 0.390586 0.048640
vt 0.392065 0.054147
vt 0.392065 0.048640
vt 0.392044 0.054147
vt 0.392044 0.048640
vt 0.390547 0.054147
vt 0.390547 0.048640
vt 0.389069 0.054147
vt 0.389069 0.048640
vt 0.392707 0.050338
vt 0.412921 0.052836
vt 0.392712 0.052836
vt 0.412914 0.050338
vt 0.412933 0.052840
vt 0.392722 0.052840
vt 0.412942 0.050338
vt 0.392730 0.050338
vt 0.397588 0.047834
vt 0.412921 0.047830
vt 0.397576 0.047830
vt 0.412933 0.047834
vt 0.392712 0.047830
vt 0.392724 0.047834
vt 0.392712 0.045079
vt 0.397576 0.045079
vt 0.397588 0.045079
vt 0.392724 0.045079
vt 0.392724 0.048682
vt 0.391185 0.048682
vt 0.392730 0.048682
vt 0.391178 0.048682
vt 0.392721 0.050338
vt 0.391172 0.050338
vt 0.391192 0.050338
vt 0.392734 0.050338
vt 0.402848 0.051600
vt 0.402790 0.051607
vt 0.402832 0.051595
vt 0.402828 0.051605
vt 0.392724 0.051988
vt 0.391178 0.051988
vt 0.392730 0.051988
vt 0.391183 0.051988
vt 0.402795 0.051597
vt 0.402775 0.051604
vt 0.390575 0.045889
vt 0.391284 0.045889
vt 0.391275 0.045889
vt 0.390557 0.045889
vt 0.389849 0.045889
vt 0.389859 0.045889
vt 0.415576 0.039315
vt 0.404931 0.036574
vt 0.405230 0.039143
vt 0.415276 0.036751
vt 0.404928 0.041139
vt 0.415273 0.041316
vt 0.404328 0.040565
vt 0.414672 0.040741
vt 0.404027 0.038001
vt 0.414372 0.038177
vt 0.404328 0.036000
vt 0.414672 0.036176
vt 0.389835 0.036597
vt 0.389835 0.039146
vt 0.389834 0.041121
vt 0.389347 0.040544
vt 0.389347 0.037998
vt 0.389347 0.036020
vt 0.457383 0.049305
vt 0.417558 0.045006
vt 0.457383 0.045006
vt 0.417558 0.049305
vt 0.417558 0.045001
vt 0.457383 0.045001
vt 0.416878 0.035040
vt 0.438504 0.043221
vt 0.416878 0.043221
vt 0.438504 0.035040
vt 0.443640 0.036994
vt 0.443640 0.042915
vt 0.391080 0.043573
vt 0.404635 0.041098
vt 0.410013 0.043573
vt 0.389131 0.041098
vt 0.408042 0.035417
vt 0.410013 0.037017
vt 0.408042 0.041434
vt 0.408062 0.034831
vt 0.408062 0.039554
vt 0.457383 0.053605
vt 0.419784 0.053611
vt 0.457383 0.053611
vt 0.419784 0.053605
vt 0.413381 0.047830
vt 0.414105 0.047834
vt 0.413017 0.050338
vt 0.413381 0.052836
vt 0.414105 0.052840
vt 0.414470 0.050338
vt 0.405495 0.047830
vt 0.406110 0.047834
vt 0.405185 0.050338
vt 0.405495 0.052836
vt 0.406110 0.052840
vt 0.406420 0.050338
s 1
f 1/1/1 2/3/3 3/2/2
f 1/1/1 3/2/2 4/4/4
f 5/5/5 1/1/1 4/4/4
f 5/5/5 4/4/4 6/6/6
f 7/7/7 5/5/5 6/6/6
f 7/7/7 6/6/6 8/8/8
f 9/9/9 7/7/7 8/8/8
f 9/9/9 8/8/8 10/10/10
f 11/11/11 9/9/9 10/10/10
f 11/11/11 10/10/10 12/12/12
f 2/3/3 11/11/11 12/12/12
f 2/3/3 12/12/12 3/2/2
f 13/13/13 14/15/15 15/14/14
f 13/13/13 15/14/14 16/16/16
f 14/15/15 17/18/18 18/17/17
f 14/15/15 18/17/17 15/14/14
f 17/18/18 19/20/20 20/19/19
f 17/18/18 20/19/19 18/17/17
f 21/21/21 22/23/23 23/22/22
f 21/21/21 23/22/22 24/24/24
f 22/23/23 13/13/13 16/16/16
f 25/25/25 13/13/13 22/23/23
f 22/23/23 16/16/16 23/22/22
f 21/21/21 20/19/19 19/20/20
f 24/24/24 20/19/19 21/21/21
f 21/21/21 19/20/20 26/26/26
f 22/23/23 27/28/28 28/27/27
f 22/23/23 28/27/27 25/25/25
f 26/26/26 29/30/30 30/29/29
f 26/26/26 30/29/29 21/21/21
f 21/21/21 30/29/29 27/28/28
f 21/21/21 27/28/28 22/23/23
f 26/26/26 25/25/25 28/27/27
f 26/26/26 28/27/27 29/30/30
f 26/26/26 19/20/20 13/13/13
f 26/26/26 13/13/13 25/25/25
f 13/13/13 19/20/20 17/18/18
f 13/13/13 17/18/18 14/15/15
f 31/31/31 32/33/33 33/32/32
f 31/31/31 33/32/32 34/34/34
f 35/35/35 31/31/31 34/34/34
f 35/35/35 34/34/34 36/36/36
f 32/33/33 37/38/38 38/37/37
f 32/33/33 38/37/37 33/32/32
f 39/39/39 40/41/41 41/40/40
f 39/39/39 41/40/40 42/42/42
f 43/43/43 35/35/35 36/36/36
f 43/43/43 36/36/36 44/44/44
f 45/45/45 43/43/43 44/44/44
f 45/45/45 44/44/44 46/46/46
f 37/38/38 45/45/45 46/46/46
f 37/38/38 46/46/46 38/37/37
f 41/40/40 40/41/41 47/47/47
f 41/40/40 47/47/47 48/48/48
f 28/27/27 27/28/28 30/29/29
f 28/27/27 30/29/29 29/30/30
f 6/6/6 4/4/4 49/49/49
f 6/6/6 49/49/49 50/50/50
f 8/8/8 6/6/6 50/50/50
f 8/8/8 50/50/50 51/51/51
f 10/10/10 8/8/8 51/51/51
f 10/10/10 51/51/51 52/52/52
f 49/49/49 52/52/52 51/51/51
f 49/49/49 51/51/51 50/50/50
f 12/12/12 10/10/10 52/52/52
f 12/12/12 52/52/52 53/53/53
f 3/2/2 12/12/12 53/53/53
f 3/2/2 53/53/53 54/54/54
f 4/4/4 3/2/2 54/54/54
f 4/4/4 54/54/54 49/49/49
f 49/49/49 54/54/54 53/53/53
f 49/49/49 53/53/53 52/52/52
f 55/55/55 56/57/57 57/56/56
f 55/55/55 57/56/56 58/58/58
f 55/55/55 59/60/60 60/59/59
f 55/55/55 60/59/59 56/57/57
f 59/60/60 61/62/62 62/61/61
f 59/60/60 62/61/61 60/59/59
f 61/62/62 63/64/64 64/63/63
f 61/62/62 64/63/63 62/61/61
f 63/64/64 65/66/66 66/65/65
f 63/64/64 66/65/65 64/63/63
f 65/66/66 58/58/58 57/56/56
f 65/66/66 57/56/56 66/65/65
f 56/57/57 67/68/68 68/67/67
f 56/57/57 68/67/67 57/56/56
f 60/59/59 69/69/69 67/68/68
f 60/59/59 67/68/68 56/57/57
f 62/61/61 70/70/70 69/69/69
f 62/61/61 69/69/69 60/59/59
f 64/63/63 71/71/71 70/70/70
f 64/63/63 70/70/70 62/61/61
f 66/65/65 72/72/72 71/71/71
f 66/65/65 71/71/71 64/63/63
f 57/56/56 68/67/67 72/72/72
f 57/56/56 72/72/72 66/65/65
f 73/73/73 74/75/74 75/74/74
f 73/73/73 75/74/74 76/76/75
f 74/75/74 77/78/76 78/77/76
f 74/75/74 78/77/76 75/74/74
f 77/78/76 79/73/78 80/76/77
f 77/78/76 80/76/77 78/77/76
f 81/79/79 82/81/81 83/80/80
f 81/79/79 83/80/80 84/82/82
f 83/80/80 85/84/84 86/83/83
f 83/80/80 86/83/83 84/82/82
f 87/85/85 88/87/87 89/86/86
f 87/85/85 89/86/86 90/88/88
f 88/87/87 91/90/90 92/89/89
f 88/87/87 92/89/89 93/91/91
f 93/91/91 92/89/89 94/92/92
f 93/91/91 94/92/92 95/93/93
f 95/93/93 89/86/86 93/91/91
f 93/91/91 89/86/86 88/87/87
f 96/94/94 97/96/96 98/95/95
f 96/94/94 98/95/95 99/97/97
f 98/95/95 73/73/73 76/76/75
f 97/96/96 73/73/73 98/95/95
f 99/97/97 80/76/77 79/73/78
f 79/73/78 96/94/94 99/97/97
f 24/24/24 23/22/22 100/98/98
f 24/24/24 100/98/98 101/99/99
f 23/22/22 16/16/16 102/100/100
f 23/22/22 102/100/100 100/98/98
f 16/16/16 15/14/14 103/101/101
f 16/16/16 103/101/101 102/100/100
f 15/14/14 18/17/17 104/102/102
f 15/14/14 104/102/102 103/101/101
f 18/17/17 20/19/19 105/103/103
f 18/17/17 105/103/103 104/102/102
f 20/19/19 24/24/24 101/99/99
f 20/19/19 101/99/99 105/103/103
f 101/99/99 100/98/98 106/104/104
f 101/99/99 106/104/104 107/105/105
f 100/98/98 102/100/100 108/106/106
f 100/98/98 108/106/106 106/104/104
f 102/100/100 103/101/101 109/107/107
f 102/100/100 109/107/107 108/106/106
f 103/101/101 104/102/102 110/108/108
f 103/101/101 110/108/108 109/107/107
f 104/102/102 105/103/103 111/109/109
f 104/102/102 111/109/109 110/108/108
f 105/103/103 101/99/99 107/105/105
f 105/103/103 107/105/105 111/109/109
