# Blender 4.2.1 LTS
# www.blender.org
o Door3_01
v 0.019890 0.473500 -1.879599
v 0.019890 0.493500 -1.879599
v 0.039090 0.493500 -0.688899
v 0.039090 0.473500 -0.688899
v 0.025490 0.473500 -0.015600
v 0.025490 0.493500 -0.015600
v 0.017890 0.493500 -1.879599
v 0.017890 0.473500 -1.879599
v 0.037090 0.473500 -0.688899
v 0.037090 0.493500 -0.688899
v 0.034790 -0.206500 -1.849599
v 0.044090 -0.115200 -1.272299
v 0.044490 -0.138600 -1.248799
v 0.043890 -0.084500 -1.284999
v 0.034790 0.316300 -1.849599
v 0.043890 0.246900 -1.284999
v 0.043890 -0.084500 -1.284999
v 0.044090 0.277500 -1.272299
v 0.043890 0.246900 -1.284999
v 0.034391 0.463500 -1.879599
v 0.053590 0.463500 -0.688899
v 0.053590 0.313700 -0.688899
v 0.044991 0.313700 -1.218199
v 0.044490 0.301000 -1.248799
v 0.039991 0.463500 -0.015600
v 0.043790 0.313700 -0.201700
v 0.039991 -0.206500 -0.015599
v 0.053590 -0.206500 -0.688899
v 0.053590 -0.151300 -0.688899
v 0.043790 -0.151300 -0.201699
v 0.044991 -0.151300 -1.218199
v 0.042390 -0.084500 -0.135000
v 0.042390 0.246900 -0.135000
v 0.042690 0.277500 -0.147699
v 0.043090 0.301000 -0.171099
v 0.043090 -0.138600 -0.171099
v 0.042690 -0.115200 -0.147599
v 0.034391 0.321300 -1.879599
v 0.034790 -0.206500 -1.849599
v -0.000210 -0.211500 -1.849599
v 0.033791 -0.211500 -1.849599
v 0.039991 0.463500 -0.015600
v 0.053590 0.463500 -0.688899
v 0.038090 0.478500 -0.688899
v 0.024490 0.478500 -0.015600
v 0.034391 0.463500 -1.879599
v 0.018890 0.478500 -1.879599
v 0.053590 -0.206500 -0.688899
v 0.039991 -0.206500 -0.015599
v 0.038990 -0.211500 -0.015599
v 0.052591 -0.211500 -0.688899
v 0.033791 -0.211500 -1.849599
v 0.034790 -0.206500 -1.849599
vn 0.9999 -0.0000 -0.0161
vn 1.0000 -0.0000 0.0020
vn 0.9998 -0.0000 0.0202
vn -0.9999 -0.0000 0.0161
vn 0.9999 -0.0003 -0.0161
vn 0.9999 0.0004 -0.0162
vn 0.9999 -0.0001 -0.0161
vn 0.9999 -0.0000 -0.0160
vn 0.9999 -0.0005 -0.0158
vn 0.9999 -0.0002 -0.0161
vn 0.9998 0.0003 0.0200
vn 0.9998 -0.0002 0.0204
vn 0.9999 0.0005 -0.0162
vn 0.9998 -0.0002 0.0205
vn 0.9998 0.0004 0.0205
vn 0.9998 -0.0000 0.0204
vn 0.9998 -0.0005 0.0204
vn 0.9998 0.0001 0.0201
vn 0.9998 -0.0005 0.0201
vn 0.9999 -0.0000 -0.0157
vn -0.0000 -0.0000 -1.0000
vn 0.6953 0.7185 0.0140
vn 0.6954 0.7186 0.0014
vn 0.6954 0.7186 -0.0112
vn 0.9806 -0.1960 0.0020
vn 0.9804 -0.1962 0.0198
vn 0.9805 -0.1960 -0.0159
vn 0.9804 -0.1962 -0.0156
vt 0.439706 1.281222
vt 0.441499 1.395937
vt 0.441499 1.281222
vt 0.439706 1.395937
vt 0.439706 1.460806
vt 0.441499 1.460806
vt 0.378770 1.284112
vt 0.384854 1.341990
vt 0.386956 1.339731
vt 0.389702 1.338508
vt 0.419402 1.338507
vt 0.425622 1.284112
vt 0.389702 1.338507
vt 0.422148 1.339731
vt 0.438810 1.281222
vt 0.419403 1.338508
vt 0.425387 1.395937
vt 0.438810 1.395937
vt 0.425387 1.344942
vt 0.424250 1.341990
vt 0.438810 1.460806
vt 0.425387 1.442872
vt 0.378770 1.460806
vt 0.383717 1.395937
vt 0.378770 1.395937
vt 0.383717 1.442872
vt 0.383717 1.344942
vt 0.419403 1.449306
vt 0.389702 1.449306
vt 0.422148 1.448083
vt 0.424250 1.445824
vt 0.384854 1.445824
vt 0.386956 1.448083
vt 0.426072 1.281222
vt 0.378322 1.284112
vt 0.440154 1.395937
vt 0.440154 1.460806
vt 0.440154 1.281222
vt 0.378322 1.460806
vt 0.378322 1.395937
s 1
f 1/1/1 2/3/1 3/2/2
f 1/1/1 3/2/2 4/4/2
f 5/5/3 4/4/2 3/2/2
f 5/5/3 3/2/2 6/6/3
f 7/3/4 8/1/4 9/4/4
f 7/3/4 9/4/4 10/2/4
f 11/7/1 12/9/6 13/8/5
f 11/7/1 14/10/7 12/9/6
f 11/7/1 15/12/1 16/11/1
f 11/7/1 16/11/1 17/13/1
f 18/14/8 19/16/8 20/15/9
f 20/15/9 21/18/2 22/17/2
f 20/15/9 22/17/2 23/19/10
f 24/20/5 18/14/8 20/15/9
f 25/21/3 26/22/11 22/17/2
f 25/21/3 22/17/2 21/18/2
f 27/23/3 28/25/2 29/24/2
f 27/23/3 29/24/2 30/26/12
f 23/19/10 24/20/5 20/15/9
f 13/8/5 31/27/13 11/7/1
f 15/12/1 20/15/9 19/16/8
f 27/23/3 32/29/15 33/28/14
f 27/23/3 33/28/14 25/21/3
f 28/25/2 11/7/1 31/27/13
f 28/25/2 31/27/13 29/24/2
f 34/30/16 35/31/17 25/21/3
f 30/26/12 36/32/18 27/23/3
f 35/31/17 26/22/11 25/21/3
f 27/23/3 37/33/19 32/29/15
f 25/21/3 33/28/14 34/30/16
f 27/23/3 36/32/18 37/33/19
f 20/15/9 15/12/1 38/34/20
f 39/7/21 41/35/21 40/35/21
f 42/21/22 43/18/23 44/36/23
f 42/21/22 44/36/23 45/37/22
f 43/18/23 46/15/24 47/38/24
f 43/18/23 47/38/24 44/36/23
f 48/25/25 49/23/26 50/39/26
f 48/25/25 50/39/26 51/40/25
f 51/40/25 52/35/28 53/7/27
f 51/40/25 53/7/27 48/25/25
