# Blender 4.2.1 LTS
# www.blender.org
o Door0_01
v 0.038018 -0.432900 -0.688900
v 0.018818 -0.432901 -1.879600
v 0.034318 -0.417900 -1.879600
v 0.053518 -0.417900 -0.688900
v 0.039918 -0.417900 -0.015600
v 0.024418 -0.432900 -0.015600
v 0.034318 -0.417900 -1.879600
v 0.044418 -0.255000 -1.248800
v 0.044919 -0.267700 -1.218200
v 0.044919 0.197400 -1.218200
v 0.034718 0.252099 -1.849600
v 0.053518 0.252099 -0.688900
v 0.053518 0.197400 -0.688900
v 0.044418 0.184699 -1.248800
v 0.044118 0.161199 -1.272300
v 0.053518 -0.267700 -0.688900
v 0.053518 -0.417900 -0.688900
v 0.043818 0.130599 -1.285000
v 0.044118 -0.231501 -1.272300
v 0.039918 -0.417900 -0.015600
v 0.042318 -0.200901 -0.135000
v 0.042318 0.130599 -0.135000
v 0.039918 0.252100 -0.015600
v 0.043818 -0.200901 -1.285000
v 0.043718 -0.267700 -0.201700
v 0.039918 0.252100 -0.015600
v 0.043718 0.197400 -0.201700
v 0.034718 0.252099 -1.849600
v 0.034718 -0.270701 -1.849600
v 0.052518 0.257100 -0.688900
v 0.033719 0.257099 -1.849600
v 0.025418 -0.427900 -0.015600
v 0.025418 -0.447900 -0.015600
v 0.039018 -0.447900 -0.688900
v 0.039018 -0.427900 -0.688900
v 0.019818 -0.427900 -1.879600
v 0.019818 -0.447900 -1.879600
v 0.038918 0.257100 -0.015600
v 0.042318 0.130599 -0.135000
v 0.042618 0.161200 -0.147600
v 0.043018 -0.255000 -0.171100
v 0.042618 -0.231501 -0.147600
v 0.043018 0.184700 -0.171100
v 0.042318 -0.200901 -0.135000
v 0.034318 -0.275701 -1.879600
vn 0.6954 -0.7186 0.0014
vn 0.6954 -0.7185 -0.0112
vn 0.6954 -0.7185 0.0140
vn 0.9999 -0.0000 -0.0162
vn 0.9999 0.0009 -0.0162
vn 0.9999 -0.0004 -0.0159
vn 0.9999 -0.0005 -0.0162
vn 0.9951 0.0984 0.0020
vn 0.9993 0.0331 -0.0161
vn 1.0000 -0.0000 0.0019
vn 0.9999 0.0005 -0.0161
vn 0.9999 0.0002 -0.0161
vn 1.0000 -0.0000 0.0020
vn 0.9999 -0.0002 -0.0161
vn 0.9999 -0.0004 -0.0160
vn 0.9998 -0.0000 0.0201
vn 0.9993 0.0327 0.0201
vn 0.9999 0.0003 -0.0162
vn 0.9998 -0.0002 0.0201
vn 0.9998 -0.0000 0.0203
vn 0.9998 -0.0001 0.0204
vn 0.9993 0.0331 0.0201
vn 0.9993 0.0327 -0.0161
vn 0.9999 -0.0000 -0.0161
vn 0.9999 0.0001 -0.0159
vn 0.9806 0.1960 0.0020
vn 0.9805 0.1959 -0.0156
vn 0.9998 -0.0000 0.0202
vn 0.9804 0.1962 0.0198
vn 0.9998 0.0005 0.0201
vn 0.9998 -0.0002 0.0204
vn 0.9998 0.0002 0.0202
vn 0.9998 -0.0000 0.0204
vt 0.924225 1.395938
vt 0.925559 1.281221
vt 0.924225 1.281221
vt 0.925559 1.395938
vt 0.924225 1.460806
vt 0.925559 1.460806
vt 0.938918 1.344942
vt 0.940047 1.341990
vt 0.980277 1.344942
vt 0.985150 1.395938
vt 0.985150 1.284112
vt 0.980277 1.395938
vt 0.979148 1.341990
vt 0.977062 1.339730
vt 0.938918 1.395938
vt 0.974337 1.338508
vt 0.942133 1.339730
vt 0.974337 1.449307
vt 0.944858 1.449307
vt 0.985151 1.460806
vt 0.944858 1.338508
vt 0.938918 1.442872
vt 0.980277 1.442872
vt 0.985150 1.460806
vt 0.985151 1.284112
vt 0.938648 1.284112
vt 0.985595 1.395938
vt 0.985595 1.284112
vt 0.924670 1.460806
vt 0.922891 1.395938
vt 0.922891 1.460806
vt 0.924670 1.395938
vt 0.924670 1.281221
vt 0.922891 1.281221
vt 0.985595 1.460806
vt 0.977062 1.448084
vt 0.974337 1.449306
vt 0.940047 1.445824
vt 0.942133 1.448084
vt 0.979148 1.445824
vt 0.944858 1.449306
vt 0.938203 1.281221
s 1
f 1/1/1 2/3/2 3/2/2
f 1/1/1 3/2/2 4/4/1
f 4/4/1 5/6/3 6/5/3
f 4/4/1 6/5/3 1/1/1
f 7/2/4 8/8/6 9/7/5
f 10/9/7 11/11/9 12/10/8
f 10/9/7 12/10/8 13/12/10
f 10/9/7 14/13/11 11/11/9
f 14/13/11 15/14/12 11/11/9
f 7/2/4 9/7/5 16/15/13
f 7/2/4 16/15/13 17/4/13
f 15/14/12 18/16/14 11/11/9
f 19/17/15 8/8/6 7/2/4
f 20/6/16 21/19/16 22/18/16
f 20/6/16 22/18/16 23/20/17
f 24/21/18 19/17/15 7/2/4
f 25/22/19 20/6/20 17/4/13
f 25/22/19 17/4/13 16/15/13
f 12/10/8 26/24/22 27/23/21
f 12/10/8 27/23/21 13/12/10
f 28/25/23 18/16/24 24/21/18
f 28/25/23 24/21/18 29/26/25
f 29/26/25 24/21/18 7/2/4
f 30/27/26 12/10/8 11/11/9
f 30/27/26 11/11/9 31/28/27
f 32/29/28 33/31/28 34/30/13
f 32/29/28 34/30/13 35/32/13
f 36/33/24 35/32/13 34/30/13
f 36/33/24 34/30/13 37/34/24
f 26/24/22 12/10/8 30/27/26
f 26/24/22 30/27/26 38/35/29
f 26/24/22 39/37/31 40/36/30
f 41/38/32 20/6/20 25/22/19
f 42/39/33 20/6/20 41/38/32
f 40/36/30 43/40/16 26/24/22
f 44/41/16 20/6/20 42/39/33
f 43/40/16 27/23/21 26/24/22
f 45/42/24 29/26/25 7/2/4
