# Blender 4.2.0
# www.blender.org
o SD77\SD77_Tuerbuegel_HV
v 1.201382 -0.376297 1.919999
v 1.194081 -0.389404 1.919999
v 1.194081 -0.389404 1.899999
v 1.201382 -0.376297 1.899999
v 1.193781 -0.363403 1.919999
v 1.193781 -0.363403 1.899999
v 1.178782 -0.363602 1.919999
v 1.178782 -0.363602 1.899999
v 1.171381 -0.376602 1.919999
v 1.171381 -0.376602 1.899999
v 1.179081 -0.389496 1.919999
v 1.179081 -0.389496 1.899999
v 1.175682 -0.348404 1.906199
v 1.180882 -0.348404 1.915299
v 1.180781 -0.173004 1.915299
v 1.175581 -0.173004 1.906199
v 1.191381 -0.348297 1.915299
v 1.191281 -0.172897 1.915299
v 1.196681 -0.348206 1.906199
v 1.196581 -0.172806 1.906199
v 1.190882 -0.298203 1.897099
v 1.180381 -0.298401 1.897099
v 1.180882 -0.173004 1.897099
v 1.191381 -0.172897 1.897099
v 1.180882 -0.348404 1.897099
v 1.191381 -0.348297 1.897099
v 1.180381 -0.298401 1.887100
v 1.180882 -0.348404 1.887100
v 1.191381 -0.348297 1.887100
v 1.190882 -0.298203 1.887100
v 1.182682 -0.348297 1.900200
v 1.189581 -0.348206 1.900200
v 1.189881 -0.371094 1.900200
v 1.182981 -0.371094 1.900200
v 1.179282 -0.348297 1.906199
v 1.179482 -0.371201 1.906199
v 1.193081 -0.348099 1.906199
v 1.193381 -0.371002 1.906199
v 1.189881 -0.371094 1.900200
v 1.193381 -0.371002 1.906199
v 1.179482 -0.371201 1.906199
v 1.182981 -0.371094 1.900200
v 1.182682 -0.348297 1.912199
v 1.182981 -0.371094 1.912199
v 1.189581 -0.348206 1.912199
v 1.189881 -0.371094 1.912199
v 1.189881 -0.371094 1.912199
v 1.182981 -0.371094 1.912199
v 1.193582 -0.376404 1.890000
v 1.189981 -0.370209 1.890000
v 1.182782 -0.370300 1.890000
v 1.179182 -0.376495 1.890000
v 1.182881 -0.382706 1.890000
v 1.190082 -0.382599 1.890000
v 1.134081 -0.069199 0.028100
v 1.197981 -0.167908 0.028100
v 1.193781 -0.171005 0.019099
v 1.129881 -0.072205 0.019099
v 1.129881 -0.072296 0.037199
v 1.193781 -0.171005 0.037199
v 1.121381 -0.078400 0.037199
v 1.185281 -0.177200 0.037199
v 1.117082 -0.081497 0.028100
v 1.180982 -0.180206 0.028100
v 1.121381 -0.078400 0.019000
v 1.185281 -0.177200 0.019000
v 1.198081 -0.375809 0.028100
v 1.193781 -0.375809 0.019099
v 1.193781 -0.375809 0.037199
v 1.185281 -0.380798 0.037100
v 1.180982 -0.380798 0.028100
v 1.185281 -0.380798 0.019099
v 1.111382 -0.079498 1.960000
v 1.118882 -0.066498 1.960000
v 1.118882 -0.066498 0.010000
v 1.111382 -0.079498 0.010000
v 1.133882 -0.066498 1.960000
v 1.133882 -0.066498 0.010000
v 1.141382 -0.079498 1.960000
v 1.141382 -0.079498 0.010000
v 1.219982 -0.121399 0.013000
v 1.220481 -0.121399 0.039000
v 1.220481 -0.352798 0.039000
v 1.219982 -0.352798 0.013000
v 1.190082 -0.382996 0.038100
v 1.190082 -0.382996 0.019200
v 1.220481 -0.352798 0.039000
v 1.220481 -0.121399 0.039000
v 1.190082 -0.173996 0.038100
v 1.190082 -0.382996 0.038100
v 1.219982 -0.121399 0.013000
v 1.191082 -0.136795 0.014600
v 1.191381 -0.136795 0.038599
v 1.165281 -0.136597 0.019200
v 1.165281 -0.136597 0.038100
v 1.133882 -0.092499 1.960000
v 1.118882 -0.092499 1.960000
v 1.118882 -0.092499 0.010000
v 1.133882 -0.092499 0.010000
v 1.179582 -0.168900 1.897099
v 1.187982 -0.162598 1.897099
v 1.175481 -0.172104 1.906199
v 1.179582 -0.168900 1.915299
v 1.187982 -0.162598 1.915299
v 1.192182 -0.159409 1.906199
v 1.121282 -0.078506 1.897099
v 1.129682 -0.072205 1.897099
v 1.117082 -0.081696 1.906199
v 1.121282 -0.078506 1.915299
v 1.129682 -0.072205 1.915299
v 1.133882 -0.069000 1.906199
vn 0.9999 0.0106 -0.0000
vn 0.4810 -0.8108 -0.3334
vn 0.5103 -0.8600 -0.0000
vn 0.9427 0.0105 -0.3336
vn 0.4904 0.8715 -0.0000
vn 0.4614 0.8219 -0.3339
vn -0.5102 0.8601 -0.0000
vn -0.4814 0.8106 -0.3336
vn -0.9999 -0.0108 -0.0000
vn -0.9427 -0.0112 -0.3334
vn -0.4898 -0.8719 -0.0000
vn -0.4612 -0.8222 -0.3337
vn -0.7833 -0.6060 -0.1386
vn -0.4970 -0.0683 0.8651
vn -0.4295 -0.5014 0.7511
vn -0.9886 -0.1074 -0.1056
vn 0.4926 0.0793 0.8666
vn 0.4369 -0.4990 0.7484
vn 0.9842 0.1263 -0.1238
vn 0.7836 -0.5999 -0.1615
vn 0.7939 0.2265 -0.5642
vn -0.4960 -0.0672 -0.8657
vn -0.8078 0.2186 -0.5474
vn 0.4942 0.0787 -0.8658
vn -0.6634 -0.7265 -0.1792
vn 0.6792 -0.7118 -0.1792
vn -0.5713 -0.5835 -0.5772
vn -0.5836 0.5710 -0.5774
vn 0.5709 0.5838 -0.5773
vn 0.5835 -0.5710 -0.5775
vn -0.5001 -0.0055 -0.8659
vn 0.4390 -0.4954 -0.7495
vn 0.5005 0.0057 -0.8657
vn -0.4280 -0.5050 -0.7495
vn -0.9999 -0.0110 0.0001
vn -0.6466 -0.7629 -0.0003
vn 0.6628 -0.7488 0.0002
vn 0.9999 0.0112 0.0014
vn 0.4390 -0.4954 -0.7496
vn -0.6466 -0.7629 -0.0004
vn 0.6628 -0.7488 0.0003
vn -0.4279 -0.5050 -0.7496
vn -0.5001 -0.0055 0.8660
vn -0.4284 -0.5052 0.7492
vn 0.4994 0.0056 0.8664
vn 0.4383 -0.4956 0.7499
vn 0.4381 -0.4955 0.7500
vn -0.4283 -0.5052 0.7492
vn 0.4177 0.0047 -0.9086
vn 0.2747 0.4882 -0.8284
vn -0.2864 0.4818 -0.8281
vn -0.4188 -0.0056 -0.9080
vn -0.2742 -0.4886 -0.8283
vn 0.2856 -0.4822 -0.8282
vn 0.8395 0.5434 0.0008
vn 0.4835 0.1393 -0.8642
vn 0.9608 0.2771 0.0007
vn 0.4206 0.2724 -0.8654
vn 0.4815 0.1388 0.8654
vn 0.4191 0.2712 0.8665
vn -0.4831 -0.1394 0.8644
vn -0.4203 -0.2722 0.8656
vn -0.9608 -0.2771 0.0003
vn -0.8395 -0.5434 0.0002
vn -0.4821 -0.1392 -0.8650
vn -0.4197 -0.2717 -0.8661
vn 0.5368 0.0002 -0.8437
vn 1.0000 0.0001 0.0005
vn 0.5350 -0.0002 0.8449
vn -0.5365 -0.0002 0.8439
vn -1.0000 -0.0001 0.0001
vn -0.5353 -0.0002 -0.8446
vn -0.9820 -0.1891 -0.0000
vn -0.5003 0.8659 -0.0000
vn -0.5000 0.8660 -0.0000
vn -1.0000 0.0005 -0.0000
vn 0.4995 0.8663 -0.0000
vn 1.0000 0.0005 -0.0000
vn 0.9820 -0.1887 -0.0000
vn 0.5156 0.8568 -0.0106
vn 0.8119 -0.3426 0.4726
vn 0.2201 0.3913 0.8935
vn 0.9238 -0.3825 -0.0132
vn 0.7071 -0.7071 -0.0071
vn 0.4845 -0.5076 0.7124
vn 0.8120 -0.3426 0.4726
vn -0.0202 -0.0083 0.9998
vn 0.2198 0.3914 0.8936
vn 0.4848 -0.5074 0.7124
vn -0.2371 0.9715 0.0030
vn 0.5163 0.8564 -0.0107
vn -0.1762 0.6689 0.7222
vn 0.0088 1.0000 -0.0000
vn -0.0073 0.7028 0.7114
vn 0.5004 -0.8658 -0.0000
vn -0.6547 -0.7559 -0.0000
vn -0.4995 -0.8663 -0.0000
vn 0.6553 -0.7554 0.0001
vn -0.4562 -0.2046 -0.8660
vn 0.4538 0.2160 -0.8645
vn -0.9124 -0.4093 0.0005
vn -0.4571 -0.2048 0.8655
vn 0.4525 0.2151 0.8654
vn 0.9030 0.4295 0.0008
vn -0.4201 -0.2710 -0.8660
vn 0.4210 0.2717 -0.8654
vn -0.8401 -0.5424 0.0002
vn -0.4208 -0.2715 0.8656
vn 0.4197 0.2708 0.8663
vn 0.8404 0.5420 -0.0001
vt 0.781171 1.128802
vt 0.778181 1.117789
vt 0.778181 1.128802
vt 0.781171 1.117789
vt 0.784130 1.128802
vt 0.784130 1.117789
vt 0.784088 1.128802
vt 0.784088 1.117789
vt 0.781094 1.128802
vt 0.781094 1.117789
vt 0.778139 1.128802
vt 0.778139 1.117789
vt 0.785415 1.121183
vt 0.825842 1.126181
vt 0.785424 1.126181
vt 0.825828 1.121183
vt 0.825867 1.126189
vt 0.785445 1.126189
vt 0.825884 1.121183
vt 0.785460 1.121183
vt 0.795176 1.116176
vt 0.825842 1.116168
vt 0.795152 1.116168
vt 0.825867 1.116176
vt 0.785424 1.116168
vt 0.785448 1.116176
vt 0.785424 1.110665
vt 0.795152 1.110665
vt 0.795176 1.110665
vt 0.785448 1.110665
vt 0.785448 1.117873
vt 0.782369 1.117873
vt 0.785460 1.117873
vt 0.782355 1.117873
vt 0.785442 1.121183
vt 0.782345 1.121183
vt 0.782383 1.121183
vt 0.785469 1.121183
vt 0.805696 1.123706
vt 0.805581 1.123722
vt 0.805664 1.123699
vt 0.805655 1.123719
vt 0.785448 1.124484
vt 0.782355 1.124484
vt 0.785460 1.124484
vt 0.782366 1.124484
vt 0.805590 1.123703
vt 0.805549 1.123714
vt 0.781150 1.112287
vt 0.782568 1.112287
vt 0.782551 1.112287
vt 0.781115 1.112287
vt 0.779697 1.112287
vt 0.779718 1.112287
vt 0.831151 1.078631
vt 0.809862 1.073149
vt 0.810460 1.078286
vt 0.830553 1.073502
vt 0.809856 1.082279
vt 0.830547 1.082632
vt 0.808655 1.081129
vt 0.829345 1.081482
vt 0.808054 1.076001
vt 0.828744 1.076354
vt 0.808655 1.071999
vt 0.829345 1.072353
vt 0.779670 1.073195
vt 0.779670 1.078293
vt 0.779667 1.082241
vt 0.778694 1.081087
vt 0.778694 1.075997
vt 0.778694 1.072039
vt 0.914766 1.119119
vt 0.835115 1.110520
vt 0.914766 1.110520
vt 0.835115 1.119119
vt 0.835115 1.110510
vt 0.914766 1.110510
vt 0.833757 1.070081
vt 0.877007 1.086441
vt 0.833757 1.086441
vt 0.877007 1.070081
vt 0.887280 1.073989
vt 0.887280 1.085830
vt 0.782160 1.087146
vt 0.809270 1.082195
vt 0.820025 1.087146
vt 0.778263 1.082195
vt 0.816083 1.070834
vt 0.820025 1.074033
vt 0.816083 1.082867
vt 0.816124 1.069662
vt 0.816124 1.079109
vt 0.914766 1.127718
vt 0.839567 1.127728
vt 0.914766 1.127728
vt 0.839567 1.127718
vt 0.826761 1.116168
vt 0.828210 1.116176
vt 0.826034 1.121183
vt 0.826761 1.126181
vt 0.828210 1.126189
vt 0.828940 1.121183
vt 0.810989 1.116167
vt 0.812221 1.116176
vt 0.810371 1.121183
vt 0.810989 1.126181
vt 0.812221 1.126189
vt 0.812841 1.121183
s 1
f 1/1/1 2/3/3 3/2/2
f 1/1/1 3/2/2 4/4/4
f 5/5/5 1/1/1 4/4/4
f 5/5/5 4/4/4 6/6/6
f 7/7/7 5/5/5 6/6/6
f 7/7/7 6/6/6 8/8/8
f 9/9/9 7/7/7 8/8/8
f 9/9/9 8/8/8 10/10/10
f 11/11/11 9/9/9 10/10/10
f 11/11/11 10/10/10 12/12/12
f 2/3/3 11/11/11 12/12/12
f 2/3/3 12/12/12 3/2/2
f 13/13/13 14/15/15 15/14/14
f 13/13/13 15/14/14 16/16/16
f 14/15/15 17/18/18 18/17/17
f 14/15/15 18/17/17 15/14/14
f 17/18/18 19/20/20 20/19/19
f 17/18/18 20/19/19 18/17/17
f 21/21/21 22/23/23 23/22/22
f 21/21/21 23/22/22 24/24/24
f 22/23/23 13/13/13 16/16/16
f 25/25/25 13/13/13 22/23/23
f 22/23/23 16/16/16 23/22/22
f 21/21/21 20/19/19 19/20/20
f 24/24/24 20/19/19 21/21/21
f 21/21/21 19/20/20 26/26/26
f 22/23/23 27/28/28 28/27/27
f 22/23/23 28/27/27 25/25/25
f 26/26/26 29/30/30 30/29/29
f 26/26/26 30/29/29 21/21/21
f 21/21/21 30/29/29 27/28/28
f 21/21/21 27/28/28 22/23/23
f 26/26/26 25/25/25 28/27/27
f 26/26/26 28/27/27 29/30/30
f 26/26/26 19/20/20 13/13/13
f 26/26/26 13/13/13 25/25/25
f 13/13/13 19/20/20 17/18/18
f 13/13/13 17/18/18 14/15/15
f 31/31/31 32/33/33 33/32/32
f 31/31/31 33/32/32 34/34/34
f 35/35/35 31/31/31 34/34/34
f 35/35/35 34/34/34 36/36/36
f 32/33/33 37/38/38 38/37/37
f 32/33/33 38/37/37 33/32/32
f 39/39/39 40/41/41 41/40/40
f 39/39/39 41/40/40 42/42/42
f 43/43/43 35/35/35 36/36/36
f 43/43/43 36/36/36 44/44/44
f 45/45/45 43/43/43 44/44/44
f 45/45/45 44/44/44 46/46/46
f 37/38/38 45/45/45 46/46/46
f 37/38/38 46/46/46 38/37/37
f 41/40/40 40/41/41 47/47/47
f 41/40/40 47/47/47 48/48/48
f 28/27/27 27/28/28 30/29/29
f 28/27/27 30/29/29 29/30/30
f 6/6/6 4/4/4 49/49/49
f 6/6/6 49/49/49 50/50/50
f 8/8/8 6/6/6 50/50/50
f 8/8/8 50/50/50 51/51/51
f 10/10/10 8/8/8 51/51/51
f 10/10/10 51/51/51 52/52/52
f 49/49/49 52/52/52 51/51/51
f 49/49/49 51/51/51 50/50/50
f 12/12/12 10/10/10 52/52/52
f 12/12/12 52/52/52 53/53/53
f 3/2/2 12/12/12 53/53/53
f 3/2/2 53/53/53 54/54/54
f 4/4/4 3/2/2 54/54/54
f 4/4/4 54/54/54 49/49/49
f 49/49/49 54/54/54 53/53/53
f 49/49/49 53/53/53 52/52/52
f 55/55/55 56/57/57 57/56/56
f 55/55/55 57/56/56 58/58/58
f 55/55/55 59/60/60 60/59/59
f 55/55/55 60/59/59 56/57/57
f 59/60/60 61/62/62 62/61/61
f 59/60/60 62/61/61 60/59/59
f 61/62/62 63/64/64 64/63/63
f 61/62/62 64/63/63 62/61/61
f 63/64/64 65/66/66 66/65/65
f 63/64/64 66/65/65 64/63/63
f 65/66/66 58/58/58 57/56/56
f 65/66/66 57/56/56 66/65/65
f 56/57/57 67/68/68 68/67/67
f 56/57/57 68/67/67 57/56/56
f 60/59/59 69/69/69 67/68/68
f 60/59/59 67/68/68 56/57/57
f 62/61/61 70/70/70 69/69/69
f 62/61/61 69/69/69 60/59/59
f 64/63/63 71/71/71 70/70/70
f 64/63/63 70/70/70 62/61/61
f 66/65/65 72/72/72 71/71/71
f 66/65/65 71/71/71 64/63/63
f 57/56/56 68/67/67 72/72/72
f 57/56/56 72/72/72 66/65/65
f 73/73/73 74/75/75 75/74/74
f 73/73/73 75/74/74 76/76/76
f 74/75/75 77/78/77 78/77/77
f 74/75/75 78/77/77 75/74/74
f 77/78/77 79/73/79 80/76/78
f 77/78/77 80/76/78 78/77/77
f 81/79/80 82/81/82 83/80/81
f 81/79/80 83/80/81 84/82/83
f 83/80/81 85/84/85 86/83/84
f 83/80/81 86/83/84 84/82/83
f 87/85/86 88/87/88 89/86/87
f 87/85/86 89/86/87 90/88/89
f 88/87/88 91/90/91 92/89/90
f 88/87/88 92/89/90 93/91/92
f 93/91/92 92/89/90 94/92/93
f 93/91/92 94/92/93 95/93/94
f 95/93/94 89/86/87 93/91/92
f 93/91/92 89/86/87 88/87/88
f 96/94/95 97/96/97 98/95/96
f 96/94/95 98/95/96 99/97/98
f 98/95/96 73/73/73 76/76/76
f 97/96/97 73/73/73 98/95/96
f 99/97/98 80/76/78 79/73/79
f 79/73/79 96/94/95 99/97/98
f 24/24/24 23/22/22 100/98/99
f 24/24/24 100/98/99 101/99/100
f 23/22/22 16/16/16 102/100/101
f 23/22/22 102/100/101 100/98/99
f 16/16/16 15/14/14 103/101/102
f 16/16/16 103/101/102 102/100/101
f 15/14/14 18/17/17 104/102/103
f 15/14/14 104/102/103 103/101/102
f 18/17/17 20/19/19 105/103/104
f 18/17/17 105/103/104 104/102/103
f 20/19/19 24/24/24 101/99/100
f 20/19/19 101/99/100 105/103/104
f 101/99/100 100/98/99 106/104/105
f 101/99/100 106/104/105 107/105/106
f 100/98/99 102/100/101 108/106/107
f 100/98/99 108/106/107 106/104/105
f 102/100/101 103/101/102 109/107/108
f 102/100/101 109/107/108 108/106/107
f 103/101/102 104/102/103 110/108/109
f 103/101/102 110/108/109 109/107/108
f 104/102/103 105/103/104 111/109/110
f 104/102/103 111/109/110 110/108/109
f 105/103/104 101/99/100 107/105/106
f 105/103/104 107/105/106 111/109/110
