# Blender 4.2.0
# www.blender.org
o SD_Generic\SD_Rad_VR
v 0.271900 0.350400 0.350500
v 0.257900 0.361300 0.361300
v 0.257900 0.283800 0.424800
v 0.271900 0.275300 0.412100
v 0.018700 0.361300 0.361300
v 0.018700 0.283800 0.424800
v 0.003901 0.350400 0.350500
v 0.003901 0.275300 0.412100
v 0.003901 0.189600 0.457900
v 0.018700 0.195500 0.472100
v 0.257900 0.195500 0.472100
v 0.271900 0.189600 0.457900
v 0.003901 0.096700 0.486100
v 0.018700 0.099600 0.501100
v 0.257900 0.099600 0.501100
v 0.271900 0.096700 0.486100
v 0.003901 -0.000000 0.495600
v 0.018700 -0.000000 0.511000
v 0.257900 -0.000000 0.511000
v 0.271900 -0.000000 0.495600
v 0.003901 -0.096700 0.486100
v 0.018700 -0.099700 0.501100
v 0.018700 -0.000000 0.511000
v 0.003901 -0.000000 0.495600
v 0.257900 -0.099700 0.501100
v 0.257900 -0.000000 0.511000
v 0.271900 -0.096700 0.486100
v 0.271900 -0.000000 0.495600
v 0.003901 -0.189700 0.457900
v 0.018700 -0.195600 0.472100
v 0.257900 -0.195600 0.472100
v 0.271900 -0.189700 0.457900
v 0.003901 -0.275400 0.412100
v 0.018700 -0.283900 0.424800
v 0.257900 -0.283900 0.424800
v 0.271900 -0.275400 0.412100
v 0.003901 -0.350500 0.350500
v 0.018700 -0.361300 0.361300
v 0.257900 -0.361300 0.361300
v 0.271900 -0.350500 0.350500
v 0.003901 -0.412100 0.275400
v 0.018700 -0.424900 0.283900
v 0.257900 -0.424900 0.283900
v 0.271900 -0.412100 0.275400
v 0.003901 -0.457900 0.189700
v 0.018700 -0.472100 0.195500
v 0.257900 -0.472100 0.195500
v 0.271900 -0.457900 0.189700
v 0.003901 -0.486100 0.096700
v 0.018700 -0.501200 0.099700
v 0.257900 -0.501200 0.099700
v 0.271900 -0.486100 0.096700
v 0.003901 -0.495700 0.000000
v 0.018700 -0.511000 0.000000
v 0.257900 -0.511000 0.000000
v 0.271900 -0.495700 0.000000
v 0.003901 -0.486100 -0.096700
v 0.018700 -0.501200 -0.099700
v 0.257900 -0.501200 -0.099700
v 0.271900 -0.486100 -0.096700
v 0.003901 -0.457900 -0.189700
v 0.018700 -0.472100 -0.195500
v 0.257900 -0.472100 -0.195500
v 0.271900 -0.457900 -0.189700
v 0.003901 -0.412100 -0.275300
v 0.018700 -0.424900 -0.283900
v 0.257900 -0.424900 -0.283900
v 0.271900 -0.412100 -0.275300
v 0.003901 -0.350500 -0.350500
v 0.018700 -0.361300 -0.361300
v 0.257900 -0.361300 -0.361300
v 0.271900 -0.350500 -0.350500
v 0.003901 -0.275400 -0.412100
v 0.018700 -0.283900 -0.424800
v 0.257900 -0.283900 -0.424800
v 0.271900 -0.275400 -0.412100
v 0.003901 -0.189700 -0.457900
v 0.018700 -0.195600 -0.472100
v 0.257900 -0.195600 -0.472100
v 0.271900 -0.189700 -0.457900
v 0.003900 -0.096700 -0.486100
v 0.018700 -0.099700 -0.501100
v 0.257900 -0.099700 -0.501100
v 0.271900 -0.096700 -0.486100
v 0.003900 -0.000000 -0.495600
v 0.018700 -0.000000 -0.510900
v 0.257900 -0.000000 -0.510900
v 0.271900 -0.000000 -0.495600
v 0.003900 0.096700 -0.486100
v 0.018700 0.099600 -0.501100
v 0.018700 -0.000000 -0.510900
v 0.003900 -0.000000 -0.495600
v 0.257900 0.099600 -0.501100
v 0.257900 -0.000000 -0.510900
v 0.271900 0.096700 -0.486100
v 0.271900 -0.000000 -0.495600
v 0.003900 0.189600 -0.457900
v 0.018700 0.195500 -0.472100
v 0.257900 0.195500 -0.472100
v 0.271900 0.189600 -0.457900
v 0.003900 0.275300 -0.412100
v 0.018700 0.283800 -0.424800
v 0.257900 0.283800 -0.424800
v 0.271900 0.275300 -0.412100
v 0.003900 0.350400 -0.350500
v 0.018700 0.361300 -0.361300
v 0.257900 0.361300 -0.361300
v 0.271900 0.350400 -0.350500
v 0.003900 0.412100 -0.275400
v 0.018700 0.424800 -0.283900
v 0.257900 0.424800 -0.283900
v 0.271900 0.412100 -0.275400
v 0.003900 0.457900 -0.189700
v 0.018700 0.472000 -0.195500
v 0.257900 0.472000 -0.195500
v 0.271900 0.457900 -0.189700
v 0.003900 0.486100 -0.096700
v 0.018700 0.501100 -0.099700
v 0.257900 0.501100 -0.099700
v 0.271900 0.486100 -0.096700
v 0.003900 0.495600 0.000000
v 0.018700 0.510900 0.000000
v 0.257900 0.510900 0.000000
v 0.271900 0.495600 0.000000
v 0.003900 0.486100 0.096700
v 0.018700 0.501100 0.099700
v 0.257900 0.501100 0.099700
v 0.271900 0.486100 0.096700
v 0.003901 0.457900 0.189700
v 0.018700 0.472000 0.195500
v 0.257900 0.472000 0.195500
v 0.271900 0.457900 0.189700
v 0.003901 0.412100 0.275400
v 0.018700 0.424800 0.283900
v 0.257900 0.424800 0.283900
v 0.271900 0.412100 0.275400
vn 0.9142 0.2865 0.2866
vn 0.4032 0.5084 0.7609
vn 0.4033 0.6470 0.6471
vn 0.9142 0.2251 0.3369
vn -0.3920 0.5111 0.7649
vn -0.3921 0.6505 0.6505
vn -0.9262 0.2094 0.3136
vn -0.9262 0.2666 0.2666
vn -0.9262 0.1443 0.3484
vn -0.3921 0.3520 0.8499
vn 0.4032 0.3502 0.8454
vn 0.9143 0.1551 0.3743
vn -0.9262 0.0736 0.3698
vn -0.3921 0.1795 0.9023
vn 0.4033 0.1785 0.8975
vn 0.9143 0.0790 0.3973
vn -0.9262 -0.0000 0.3770
vn -0.3921 -0.0000 0.9199
vn 0.4033 -0.0000 0.9151
vn 0.9142 -0.0000 0.4052
vn -0.9262 -0.0735 0.3698
vn -0.3921 -0.1796 0.9022
vn 0.4033 -0.1785 0.8975
vn 0.9142 -0.0790 0.3974
vn -0.9262 -0.1443 0.3484
vn -0.3920 -0.3519 0.8500
vn 0.4033 -0.3502 0.8454
vn 0.9142 -0.1551 0.3743
vn -0.9262 -0.2095 0.3135
vn -0.3920 -0.5111 0.7649
vn 0.4033 -0.5084 0.7609
vn 0.9142 -0.2251 0.3369
vn -0.9262 -0.2666 0.2666
vn -0.3920 -0.6505 0.6505
vn 0.4032 -0.6471 0.6471
vn 0.9142 -0.2865 0.2866
vn -0.9262 -0.3135 0.2095
vn -0.3920 -0.7648 0.5112
vn 0.4033 -0.7609 0.5084
vn 0.9142 -0.3369 0.2251
vn -0.9262 -0.3484 0.1443
vn -0.3920 -0.8500 0.3519
vn 0.4032 -0.8454 0.3502
vn 0.9142 -0.3744 0.1551
vn -0.9262 -0.3698 0.0735
vn -0.3921 -0.9023 0.1794
vn 0.4033 -0.8975 0.1785
vn 0.9142 -0.3974 0.0791
vn -0.9262 -0.3771 -0.0000
vn -0.3921 -0.9199 -0.0001
vn 0.4032 -0.9151 -0.0000
vn 0.9142 -0.4052 -0.0000
vn -0.9262 -0.3698 -0.0736
vn -0.3921 -0.9023 -0.1795
vn 0.4033 -0.8975 -0.1785
vn 0.9142 -0.3974 -0.0791
vn -0.9262 -0.3484 -0.1442
vn -0.3920 -0.8499 -0.3521
vn 0.4032 -0.8454 -0.3502
vn 0.9142 -0.3744 -0.1551
vn -0.9262 -0.3135 -0.2095
vn -0.3920 -0.7650 -0.5110
vn 0.4032 -0.7609 -0.5084
vn 0.9142 -0.3369 -0.2251
vn -0.9262 -0.2666 -0.2667
vn -0.3921 -0.6505 -0.6505
vn 0.4033 -0.6470 -0.6471
vn 0.9142 -0.2865 -0.2866
vn -0.9262 -0.2094 -0.3135
vn -0.3920 -0.5111 -0.7649
vn 0.4032 -0.5084 -0.7609
vn 0.9142 -0.2251 -0.3369
vn -0.9261 -0.1442 -0.3485
vn -0.3920 -0.3520 -0.8500
vn 0.4032 -0.3502 -0.8454
vn 0.9142 -0.1551 -0.3743
vn -0.9262 -0.0735 -0.3698
vn -0.3921 -0.1795 -0.9023
vn 0.4033 -0.1785 -0.8975
vn 0.9143 -0.0791 -0.3973
vn -0.9262 -0.0000 -0.3770
vn -0.3921 -0.0000 -0.9199
vn 0.4033 -0.0000 -0.9151
vn 0.9142 -0.0000 -0.4052
vn -0.9262 0.0735 -0.3698
vn -0.3921 0.1795 -0.9023
vn 0.4033 0.1785 -0.8975
vn 0.9142 0.0791 -0.3974
vn -0.9262 0.1442 -0.3484
vn -0.3921 0.3519 -0.8500
vn 0.4032 0.3502 -0.8454
vn 0.9142 0.1551 -0.3743
vn -0.9262 0.2095 -0.3135
vn -0.3920 0.5112 -0.7648
vn 0.4032 0.5084 -0.7609
vn 0.9142 0.2251 -0.3369
vn -0.9262 0.2666 -0.2667
vn -0.3921 0.6505 -0.6505
vn 0.4033 0.6471 -0.6471
vn 0.9142 0.2865 -0.2866
vn -0.9262 0.3135 -0.2095
vn -0.3921 0.7649 -0.5111
vn 0.4033 0.7609 -0.5084
vn 0.9142 0.3369 -0.2251
vn -0.9262 0.3483 -0.1443
vn -0.3920 0.8500 -0.3519
vn 0.4032 0.8454 -0.3502
vn 0.9142 0.3744 -0.1551
vn -0.9262 0.3698 -0.0735
vn -0.3921 0.9023 -0.1795
vn 0.4033 0.8975 -0.1785
vn 0.9142 0.3974 -0.0791
vn -0.9262 0.3770 -0.0000
vn -0.3921 0.9199 -0.0000
vn 0.4032 0.9151 -0.0000
vn 0.9142 0.4052 -0.0000
vn -0.9262 0.3698 0.0736
vn -0.3920 0.9023 0.1795
vn 0.4033 0.8975 0.1785
vn 0.9142 0.3974 0.0790
vn -0.9262 0.3484 0.1443
vn -0.3920 0.8499 0.3521
vn 0.4032 0.8454 0.3502
vn 0.9142 0.3744 0.1551
vn -0.9262 0.3135 0.2095
vn -0.3921 0.7649 0.5111
vn 0.4032 0.7609 0.5084
vn 0.9142 0.3369 0.2251
vt 0.974671 1.750007
vt 0.924890 1.812466
vt 0.924890 1.749997
vt 0.974671 1.812567
vt 0.077343 1.812466
vt 0.077343 1.749996
vt 0.025074 1.812567
vt 0.025074 1.750007
vt 0.025074 1.874948
vt 0.077343 1.875026
vt 0.924890 1.875026
vt 0.974671 1.874948
vt 0.025074 1.937478
vt 0.077343 1.937511
vt 0.924890 1.937511
vt 0.974671 1.937478
vt 0.025074 2.000083
vt 0.077343 1.999959
vt 0.924890 1.999959
vt 0.974671 2.000083
vt 0.025074 1.062522
vt 0.077343 1.000041
vt 0.077343 1.062489
vt 0.025074 0.999917
vt 0.924890 1.000041
vt 0.924890 1.062489
vt 0.974671 0.999917
vt 0.974671 1.062522
vt 0.025074 1.125052
vt 0.077343 1.124974
vt 0.924890 1.124974
vt 0.974671 1.125052
vt 0.025074 1.187433
vt 0.077343 1.187533
vt 0.924890 1.187533
vt 0.974671 1.187433
vt 0.025074 1.249993
vt 0.077343 1.250003
vt 0.924890 1.250003
vt 0.974671 1.249993
vt 0.025074 1.312496
vt 0.077343 1.312501
vt 0.924890 1.312501
vt 0.974671 1.312496
vt 0.025074 1.374992
vt 0.077343 1.375004
vt 0.924890 1.375003
vt 0.974671 1.374992
vt 0.025074 1.437341
vt 0.077343 1.437579
vt 0.924890 1.437579
vt 0.974671 1.437341
vt 0.025074 1.500000
vt 0.077343 1.500000
vt 0.924890 1.500000
vt 0.974671 1.500000
vt 0.025074 1.562658
vt 0.077343 1.562420
vt 0.924890 1.562420
vt 0.974671 1.562658
vt 0.025074 1.625007
vt 0.077343 1.624996
vt 0.924890 1.624996
vt 0.974671 1.625007
vt 0.025074 1.687503
vt 0.077343 1.687498
vt 0.924890 1.687498
vt 0.974671 1.687503
vt 0.025074 1.750006
vt 0.924890 1.749996
vt 0.974671 1.750006
vt 0.077343 1.812467
vt 0.924890 1.812467
vt 0.025074 1.312497
vt 0.974671 1.312497
vt 0.025074 1.374993
vt 0.924890 1.375004
vt 0.974671 1.374993
vt 0.025074 1.562659
vt 0.924890 1.562421
s 1
f 1/1/1 2/3/3 3/2/2
f 1/1/1 3/2/2 4/4/4
f 2/3/3 5/6/6 6/5/5
f 2/3/3 6/5/5 3/2/2
f 5/6/6 7/8/8 8/7/7
f 5/6/6 8/7/7 6/5/5
f 9/9/9 10/10/10 6/5/5
f 9/9/9 6/5/5 8/7/7
f 10/10/10 11/11/11 3/2/2
f 10/10/10 3/2/2 6/5/5
f 11/11/11 12/12/12 4/4/4
f 11/11/11 4/4/4 3/2/2
f 13/13/13 14/14/14 10/10/10
f 13/13/13 10/10/10 9/9/9
f 14/14/14 15/15/15 11/11/11
f 14/14/14 11/11/11 10/10/10
f 15/15/15 16/16/16 12/12/12
f 15/15/15 12/12/12 11/11/11
f 17/17/17 18/18/18 14/14/14
f 17/17/17 14/14/14 13/13/13
f 18/18/18 19/19/19 15/15/15
f 18/18/18 15/15/15 14/14/14
f 19/19/19 20/20/20 16/16/16
f 19/19/19 16/16/16 15/15/15
f 21/21/21 22/23/22 23/22/18
f 21/21/21 23/22/18 24/24/17
f 22/23/22 25/26/23 26/25/19
f 22/23/22 26/25/19 23/22/18
f 25/26/23 27/28/24 28/27/20
f 25/26/23 28/27/20 26/25/19
f 29/29/25 30/30/26 22/23/22
f 29/29/25 22/23/22 21/21/21
f 30/30/26 31/31/27 25/26/23
f 30/30/26 25/26/23 22/23/22
f 31/31/27 32/32/28 27/28/24
f 31/31/27 27/28/24 25/26/23
f 33/33/29 34/34/30 30/30/26
f 33/33/29 30/30/26 29/29/25
f 34/34/30 35/35/31 31/31/27
f 34/34/30 31/31/27 30/30/26
f 35/35/31 36/36/32 32/32/28
f 35/35/31 32/32/28 31/31/27
f 37/37/33 38/38/34 34/34/30
f 37/37/33 34/34/30 33/33/29
f 38/38/34 39/39/35 35/35/31
f 38/38/34 35/35/31 34/34/30
f 39/39/35 40/40/36 36/36/32
f 39/39/35 36/36/32 35/35/31
f 41/41/37 42/42/38 38/38/34
f 41/41/37 38/38/34 37/37/33
f 42/42/38 43/43/39 39/39/35
f 42/42/38 39/39/35 38/38/34
f 43/43/39 44/44/40 40/40/36
f 43/43/39 40/40/36 39/39/35
f 45/45/41 46/46/42 42/42/38
f 45/45/41 42/42/38 41/41/37
f 46/46/42 47/47/43 43/43/39
f 46/46/42 43/43/39 42/42/38
f 47/47/43 48/48/44 44/44/40
f 47/47/43 44/44/40 43/43/39
f 49/49/45 50/50/46 46/46/42
f 49/49/45 46/46/42 45/45/41
f 50/50/46 51/51/47 47/47/43
f 50/50/46 47/47/43 46/46/42
f 51/51/47 52/52/48 48/48/44
f 51/51/47 48/48/44 47/47/43
f 53/53/49 54/54/50 50/50/46
f 53/53/49 50/50/46 49/49/45
f 54/54/50 55/55/51 51/51/47
f 54/54/50 51/51/47 50/50/46
f 55/55/51 56/56/52 52/52/48
f 55/55/51 52/52/48 51/51/47
f 57/57/53 58/58/54 54/54/50
f 57/57/53 54/54/50 53/53/49
f 58/58/54 59/59/55 55/55/51
f 58/58/54 55/55/51 54/54/50
f 59/59/55 60/60/56 56/56/52
f 59/59/55 56/56/52 55/55/51
f 61/61/57 62/62/58 58/58/54
f 61/61/57 58/58/54 57/57/53
f 62/62/58 63/63/59 59/59/55
f 62/62/58 59/59/55 58/58/54
f 63/63/59 64/64/60 60/60/56
f 63/63/59 60/60/56 59/59/55
f 65/65/61 66/66/62 62/62/58
f 65/65/61 62/62/58 61/61/57
f 66/66/62 67/67/63 63/63/59
f 66/66/62 63/63/59 62/62/58
f 67/67/63 68/68/64 64/64/60
f 67/67/63 64/64/60 63/63/59
f 69/69/65 70/6/66 66/66/62
f 69/69/65 66/66/62 65/65/61
f 70/6/66 71/70/67 67/67/63
f 70/6/66 67/67/63 66/66/62
f 71/70/67 72/71/68 68/68/64
f 71/70/67 68/68/64 67/67/63
f 73/7/69 74/72/70 70/6/66
f 73/7/69 70/6/66 69/69/65
f 74/72/70 75/73/71 71/70/67
f 74/72/70 71/70/67 70/6/66
f 75/73/71 76/4/72 72/71/68
f 75/73/71 72/71/68 71/70/67
f 77/9/73 78/10/74 74/72/70
f 77/9/73 74/72/70 73/7/69
f 78/10/74 79/11/75 75/73/71
f 78/10/74 75/73/71 74/72/70
f 79/11/75 80/12/76 76/4/72
f 79/11/75 76/4/72 75/73/71
f 81/13/77 82/14/78 78/10/74
f 81/13/77 78/10/74 77/9/73
f 82/14/78 83/15/79 79/11/75
f 82/14/78 79/11/75 78/10/74
f 83/15/79 84/16/80 80/12/76
f 83/15/79 80/12/76 79/11/75
f 85/17/81 86/18/82 82/14/78
f 85/17/81 82/14/78 81/13/77
f 86/18/82 87/19/83 83/15/79
f 86/18/82 83/15/79 82/14/78
f 87/19/83 88/20/84 84/16/80
f 87/19/83 84/16/80 83/15/79
f 89/21/85 90/23/86 91/22/82
f 89/21/85 91/22/82 92/24/81
f 90/23/86 93/26/87 94/25/83
f 90/23/86 94/25/83 91/22/82
f 93/26/87 95/28/88 96/27/84
f 93/26/87 96/27/84 94/25/83
f 97/29/89 98/30/90 90/23/86
f 97/29/89 90/23/86 89/21/85
f 98/30/90 99/31/91 93/26/87
f 98/30/90 93/26/87 90/23/86
f 99/31/91 100/32/92 95/28/88
f 99/31/91 95/28/88 93/26/87
f 101/33/93 102/34/94 98/30/90
f 101/33/93 98/30/90 97/29/89
f 102/34/94 103/35/95 99/31/91
f 102/34/94 99/31/91 98/30/90
f 103/35/95 104/36/96 100/32/92
f 103/35/95 100/32/92 99/31/91
f 105/37/97 106/38/98 102/34/94
f 105/37/97 102/34/94 101/33/93
f 106/38/98 107/39/99 103/35/95
f 106/38/98 103/35/95 102/34/94
f 107/39/99 108/40/100 104/36/96
f 107/39/99 104/36/96 103/35/95
f 109/74/101 110/42/102 106/38/98
f 109/74/101 106/38/98 105/37/97
f 110/42/102 111/43/103 107/39/99
f 110/42/102 107/39/99 106/38/98
f 111/43/103 112/75/104 108/40/100
f 111/43/103 108/40/100 107/39/99
f 113/76/105 114/46/106 110/42/102
f 113/76/105 110/42/102 109/74/101
f 114/46/106 115/77/107 111/43/103
f 114/46/106 111/43/103 110/42/102
f 115/77/107 116/78/108 112/75/104
f 115/77/107 112/75/104 111/43/103
f 117/49/109 118/50/110 114/46/106
f 117/49/109 114/46/106 113/76/105
f 118/50/110 119/51/111 115/77/107
f 118/50/110 115/77/107 114/46/106
f 119/51/111 120/52/112 116/78/108
f 119/51/111 116/78/108 115/77/107
f 121/53/113 122/54/114 118/50/110
f 121/53/113 118/50/110 117/49/109
f 122/54/114 123/55/115 119/51/111
f 122/54/114 119/51/111 118/50/110
f 123/55/115 124/56/116 120/52/112
f 123/55/115 120/52/112 119/51/111
f 125/79/117 126/58/118 122/54/114
f 125/79/117 122/54/114 121/53/113
f 126/58/118 127/80/119 123/55/115
f 126/58/118 123/55/115 122/54/114
f 127/80/119 128/60/120 124/56/116
f 127/80/119 124/56/116 123/55/115
f 129/61/121 130/62/122 126/58/118
f 129/61/121 126/58/118 125/79/117
f 130/62/122 131/63/123 127/80/119
f 130/62/122 127/80/119 126/58/118
f 131/63/123 132/64/124 128/60/120
f 131/63/123 128/60/120 127/80/119
f 133/65/125 134/66/126 130/62/122
f 133/65/125 130/62/122 129/61/121
f 134/66/126 135/67/127 131/63/123
f 134/66/126 131/63/123 130/62/122
f 135/67/127 136/68/128 132/64/124
f 135/67/127 132/64/124 131/63/123
f 2/3/3 1/1/1 136/68/128
f 2/3/3 136/68/128 135/67/127
f 135/67/127 134/66/126 5/6/6
f 135/67/127 5/6/6 2/3/3
f 134/66/126 133/65/125 7/8/8
f 134/66/126 7/8/8 5/6/6
