# Blender 5.0.1
# www.blender.org
o Exporting_sf.152
v -0.023748 0.000000 0.088657
v -0.015098 0.000000 0.128444
v -0.015098 0.033244 0.124068
v -0.015098 0.064222 0.111236
v -0.015098 0.090824 0.090824
v -0.015098 0.111236 0.064222
v -0.015098 0.124068 0.033244
v -0.015098 0.128444 0.000000
v -0.015098 0.124068 -0.033244
v -0.015098 0.111236 -0.064222
v -0.015098 0.090824 -0.090824
v -0.015098 0.064222 -0.111236
v -0.015098 0.033244 -0.124067
v -0.015098 -0.000000 -0.128444
v -0.015098 -0.033244 -0.124067
v -0.015098 -0.064222 -0.111236
v -0.015098 -0.090824 -0.090824
v -0.015098 -0.111236 -0.064222
v -0.015098 -0.124068 -0.033244
v -0.015098 -0.128444 0.000000
v -0.015098 -0.124068 0.033244
v -0.015098 -0.111236 0.064222
v -0.015098 -0.090824 0.090824
v -0.015098 -0.064222 0.111236
v -0.015098 -0.033244 0.124068
v -0.023748 0.022946 0.085636
v -0.023748 0.044329 0.076780
v -0.023748 0.062690 0.062690
v -0.023748 0.076780 0.044329
v -0.023748 0.085636 0.022946
v -0.023748 0.088657 0.000000
v -0.023748 0.085636 -0.022946
v -0.023748 0.076780 -0.044329
v -0.023748 0.062690 -0.062690
v -0.023748 0.044329 -0.076779
v -0.023748 0.022946 -0.085636
v -0.023748 0.000000 -0.088657
v -0.023748 -0.022946 -0.085636
v -0.023748 -0.044329 -0.076779
v -0.023748 -0.062690 -0.062690
v -0.023748 -0.076779 -0.044329
v -0.023748 -0.085636 -0.022946
v -0.023748 -0.088657 0.000000
v -0.023748 -0.085636 0.022946
v -0.023748 -0.076779 0.044329
v -0.023748 -0.062690 0.062690
v -0.023748 -0.044329 0.076780
v -0.023748 -0.022946 0.085636
v -0.023748 0.000000 0.128444
v -0.023748 -0.033244 0.124068
v -0.023748 -0.064222 0.111236
v -0.023748 -0.090824 0.090824
v -0.023748 -0.111236 0.064222
v -0.023748 -0.124068 0.033244
v -0.023748 -0.128444 0.000000
v -0.023748 -0.124068 -0.033244
v -0.023748 -0.111236 -0.064222
v -0.023748 -0.090824 -0.090824
v -0.023748 -0.064222 -0.111236
v -0.023748 -0.033244 -0.124067
v -0.023748 0.000000 -0.128444
v -0.023748 0.033244 -0.124067
v -0.023748 0.064222 -0.111236
v -0.023748 0.090824 -0.090824
v -0.023748 0.111236 -0.064222
v -0.023748 0.124068 -0.033244
v -0.023748 0.128444 0.000000
v -0.023748 0.124068 0.033244
v -0.023748 0.111236 0.064222
v -0.023748 0.090824 0.090824
v -0.023748 0.064222 0.111236
v -0.023748 0.033244 0.124068
v -0.078052 -0.000000 0.088657
v -0.078052 -0.022946 0.085636
v -0.078052 -0.044329 0.076780
v -0.078052 -0.062690 0.062690
v -0.078052 -0.076780 0.044329
v -0.078052 -0.085636 0.022946
v -0.078052 -0.088657 0.000000
v -0.078052 -0.085636 -0.022946
v -0.078052 -0.076780 -0.044329
v -0.078052 -0.062690 -0.062690
v -0.078052 -0.044329 -0.076779
v -0.078052 -0.022946 -0.085636
v -0.078052 -0.000000 -0.088657
v -0.078052 0.022946 -0.085636
v -0.078052 0.044329 -0.076779
v -0.078052 0.062690 -0.062690
v -0.078052 0.076780 -0.044329
v -0.078052 0.085636 -0.022946
v -0.078052 0.088657 0.000000
v -0.078052 0.085636 0.022946
v -0.078052 0.076780 0.044329
v -0.078052 0.062690 0.062690
v -0.078052 0.044329 0.076780
v -0.078052 0.022946 0.085636
vn -0.0000 -0.7071 -0.7071
vn -0.0000 -0.8660 -0.5000
vn -0.0000 0.8660 0.5000
vn -0.0000 0.9659 0.2588
vn -0.0000 -0.5000 0.8660
vn -0.0000 -0.2588 0.9659
vn -0.0000 0.9659 -0.2588
vn -0.0000 0.8660 -0.5000
vn -0.0000 -0.0000 1.0000
vn -0.0000 0.2588 0.9659
vn -0.0000 -1.0000 -0.0000
vn -0.0000 -0.9659 0.2588
vn -0.0000 0.7071 0.7071
vn -0.0000 -0.5000 -0.8660
vn -0.0000 0.5000 -0.8660
vn -0.0000 0.2588 -0.9659
vn -0.0000 -0.7071 0.7071
vn -0.0000 1.0000 -0.0000
vn -0.0000 -0.9659 -0.2588
vn -0.0000 0.5000 0.8660
vn -0.0000 -0.2588 -0.9659
vn -0.0000 0.7071 -0.7071
vn -0.0000 -0.8660 0.5000
vn -0.0000 -0.0000 -1.0000
vn 1.0000 -0.0000 -0.0000
vn -1.0000 -0.0000 -0.0000
vt 0.853553 0.146447
vt 0.933013 0.250000
vt 0.066987 0.750000
vt 0.017037 0.629410
vt 0.750000 0.933013
vt 0.629410 0.982963
vt 0.017037 0.370591
vt 0.066987 0.250000
vt 0.500000 1.000000
vt 0.370590 0.982963
vt 1.000000 0.500000
vt 0.982963 0.629410
vt 0.146447 0.853554
vt 0.750000 0.066988
vt 0.250000 0.066988
vt 0.370590 0.017037
vt 0.853553 0.853554
vt 0.000000 0.500000
vt 0.982963 0.370591
vt 0.250000 0.933013
vt 0.629410 0.017037
vt 0.146447 0.146447
vt 0.933013 0.750000
vt 0.500000 0.000000
vt 0.500000 0.866853
vt 0.405052 0.854353
vt 0.594948 0.854353
vt 0.683426 0.817704
vt 0.759404 0.759404
vt 0.817704 0.683426
vt 0.854352 0.594949
vt 0.866852 0.500000
vt 0.854352 0.405052
vt 0.817704 0.316574
vt 0.759404 0.240596
vt 0.683426 0.182297
vt 0.594948 0.145648
vt 0.500000 0.133148
vt 0.405052 0.145648
vt 0.316574 0.182297
vt 0.240596 0.240596
vt 0.182296 0.316574
vt 0.145648 0.405052
vt 0.133148 0.500000
vt 0.145648 0.594949
vt 0.182296 0.683426
vt 0.240596 0.759404
vt 0.316574 0.817704
s 1
f 17/1/1 57/2/2 58/1/1
f 6/3/3 68/4/4 69/3/3
f 24/5/5 50/6/6 51/5/5
f 9/7/7 65/8/8 66/7/7
f 2/9/9 72/10/10 49/9/9
f 20/11/11 54/12/12 55/11/11
f 5/13/13 69/3/3 70/13/13
f 16/14/14 58/1/1 59/14/14
f 12/15/15 62/16/16 63/15/15
f 23/17/17 51/5/5 52/17/17
f 8/18/18 66/7/7 67/18/18
f 19/19/19 55/11/11 56/19/19
f 4/20/20 70/13/13 71/20/20
f 15/21/21 59/14/14 60/21/21
f 11/22/22 63/15/15 64/22/22
f 22/23/23 52/17/17 53/23/23
f 7/4/4 67/18/18 68/4/4
f 18/2/2 56/19/19 57/2/2
f 3/10/10 71/20/20 72/10/10
f 14/24/24 60/21/21 61/24/24
f 25/6/6 49/9/9 50/6/6
f 10/8/8 64/22/22 65/8/8
f 1/25/9 96/26/10 73/25/9
f 13/16/16 61/24/24 62/16/16
f 7/4/25 3/10/25 19/19/25
f 21/12/12 53/23/23 54/12/12
f 1/25/26 50/6/26 49/9/26
f 48/27/26 51/5/26 50/6/26
f 47/28/26 52/17/26 51/5/26
f 46/29/26 53/23/26 52/17/26
f 45/30/26 54/12/26 53/23/26
f 44/31/26 55/11/26 54/12/26
f 43/32/26 56/19/26 55/11/26
f 42/33/26 57/2/26 56/19/26
f 41/34/26 58/1/26 57/2/26
f 40/35/26 59/14/26 58/1/26
f 39/36/26 60/21/26 59/14/26
f 38/37/26 61/24/26 60/21/26
f 37/38/26 62/16/26 61/24/26
f 36/39/26 63/15/26 62/16/26
f 35/40/26 64/22/26 63/15/26
f 34/41/26 65/8/26 64/22/26
f 33/42/26 66/7/26 65/8/26
f 32/43/26 67/18/26 66/7/26
f 31/44/26 68/4/26 67/18/26
f 30/45/26 69/3/26 68/4/26
f 29/46/26 70/13/26 69/3/26
f 28/47/26 71/20/26 70/13/26
f 27/48/26 72/10/26 71/20/26
f 26/26/26 49/9/26 72/10/26
f 90/43/26 82/35/26 74/27/26
f 47/28/5 74/27/6 75/28/5
f 32/43/7 89/42/8 90/43/7
f 39/36/14 82/35/1 83/36/14
f 46/29/17 75/28/5 76/29/17
f 31/44/18 90/43/7 91/44/18
f 38/37/21 83/36/14 84/37/21
f 45/30/23 76/29/17 77/30/23
f 30/45/4 91/44/18 92/45/4
f 37/38/24 84/37/21 85/38/24
f 44/31/12 77/30/23 78/31/12
f 29/46/3 92/45/4 93/46/3
f 36/39/16 85/38/24 86/39/16
f 43/32/11 78/31/12 79/32/11
f 28/47/13 93/46/3 94/47/13
f 35/40/15 86/39/16 87/40/15
f 42/33/19 79/32/11 80/33/19
f 27/48/20 94/47/13 95/48/20
f 34/41/22 87/40/15 88/41/22
f 41/34/2 80/33/19 81/34/2
f 26/26/10 95/48/20 96/26/10
f 48/27/6 73/25/9 74/27/6
f 33/42/8 88/41/22 89/42/8
f 40/35/1 81/34/2 82/35/1
f 3/10/25 2/9/25 23/17/25
f 2/9/25 25/6/25 23/17/25
f 25/6/25 24/5/25 23/17/25
f 23/17/25 22/23/25 19/19/25
f 22/23/25 21/12/25 19/19/25
f 21/12/25 20/11/25 19/19/25
f 19/19/25 18/2/25 15/21/25
f 18/2/25 17/1/25 15/21/25
f 17/1/25 16/14/25 15/21/25
f 15/21/25 14/24/25 13/16/25
f 13/16/25 12/15/25 11/22/25
f 11/22/25 10/8/25 7/4/25
f 10/8/25 9/7/25 7/4/25
f 9/7/25 8/18/25 7/4/25
f 7/4/25 6/3/25 3/10/25
f 6/3/25 5/13/25 3/10/25
f 5/13/25 4/20/25 3/10/25
f 15/21/25 13/16/25 19/19/25
f 13/16/25 11/22/25 19/19/25
f 3/10/25 23/17/25 19/19/25
f 11/22/25 7/4/25 19/19/25
f 74/27/26 73/25/26 96/26/26
f 96/26/26 95/48/26 94/47/26
f 94/47/26 93/46/26 92/45/26
f 92/45/26 91/44/26 90/43/26
f 90/43/26 89/42/26 88/41/26
f 88/41/26 87/40/26 90/43/26
f 87/40/26 86/39/26 90/43/26
f 86/39/26 85/38/26 84/37/26
f 84/37/26 83/36/26 86/39/26
f 83/36/26 82/35/26 86/39/26
f 82/35/26 81/34/26 80/33/26
f 80/33/26 79/32/26 78/31/26
f 78/31/26 77/30/26 76/29/26
f 76/29/26 75/28/26 74/27/26
f 74/27/26 96/26/26 90/43/26
f 96/26/26 94/47/26 90/43/26
f 94/47/26 92/45/26 90/43/26
f 82/35/26 80/33/26 74/27/26
f 80/33/26 78/31/26 74/27/26
f 78/31/26 76/29/26 74/27/26
f 90/43/26 86/39/26 82/35/26
f 17/1/1 18/2/2 57/2/2
f 6/3/3 7/4/4 68/4/4
f 24/5/5 25/6/6 50/6/6
f 9/7/7 10/8/8 65/8/8
f 2/9/9 3/10/10 72/10/10
f 20/11/11 21/12/12 54/12/12
f 5/13/13 6/3/3 69/3/3
f 16/14/14 17/1/1 58/1/1
f 12/15/15 13/16/16 62/16/16
f 23/17/17 24/5/5 51/5/5
f 8/18/18 9/7/7 66/7/7
f 19/19/19 20/11/11 55/11/11
f 4/20/20 5/13/13 70/13/13
f 15/21/21 16/14/14 59/14/14
f 11/22/22 12/15/15 63/15/15
f 22/23/23 23/17/17 52/17/17
f 7/4/4 8/18/18 67/18/18
f 18/2/2 19/19/19 56/19/19
f 3/10/10 4/20/20 71/20/20
f 14/24/24 15/21/21 60/21/21
f 25/6/6 2/9/9 49/9/9
f 10/8/8 11/22/22 64/22/22
f 1/25/9 26/26/10 96/26/10
f 13/16/16 14/24/24 61/24/24
f 21/12/12 22/23/23 53/23/23
f 1/25/26 48/27/26 50/6/26
f 48/27/26 47/28/26 51/5/26
f 47/28/26 46/29/26 52/17/26
f 46/29/26 45/30/26 53/23/26
f 45/30/26 44/31/26 54/12/26
f 44/31/26 43/32/26 55/11/26
f 43/32/26 42/33/26 56/19/26
f 42/33/26 41/34/26 57/2/26
f 41/34/26 40/35/26 58/1/26
f 40/35/26 39/36/26 59/14/26
f 39/36/26 38/37/26 60/21/26
f 38/37/26 37/38/26 61/24/26
f 37/38/26 36/39/26 62/16/26
f 36/39/26 35/40/26 63/15/26
f 35/40/26 34/41/26 64/22/26
f 34/41/26 33/42/26 65/8/26
f 33/42/26 32/43/26 66/7/26
f 32/43/26 31/44/26 67/18/26
f 31/44/26 30/45/26 68/4/26
f 30/45/26 29/46/26 69/3/26
f 29/46/26 28/47/26 70/13/26
f 28/47/26 27/48/26 71/20/26
f 27/48/26 26/26/26 72/10/26
f 26/26/26 1/25/26 49/9/26
f 47/28/5 48/27/6 74/27/6
f 32/43/7 33/42/8 89/42/8
f 39/36/14 40/35/1 82/35/1
f 46/29/17 47/28/5 75/28/5
f 31/44/18 32/43/7 90/43/7
f 38/37/21 39/36/14 83/36/14
f 45/30/23 46/29/17 76/29/17
f 30/45/4 31/44/18 91/44/18
f 37/38/24 38/37/21 84/37/21
f 44/31/12 45/30/23 77/30/23
f 29/46/3 30/45/4 92/45/4
f 36/39/16 37/38/24 85/38/24
f 43/32/11 44/31/12 78/31/12
f 28/47/13 29/46/3 93/46/3
f 35/40/15 36/39/16 86/39/16
f 42/33/19 43/32/11 79/32/11
f 27/48/20 28/47/13 94/47/13
f 34/41/22 35/40/15 87/40/15
f 41/34/2 42/33/19 80/33/19
f 26/26/10 27/48/20 95/48/20
f 48/27/6 1/25/9 73/25/9
f 33/42/8 34/41/22 88/41/22
f 40/35/1 41/34/2 81/34/2
