# Blender 5.1.0
# www.blender.org
o Exporting_sf.154
v 0.006035 0.009394 -0.004466
v 0.006035 0.005860 -0.008533
v 0.006035 0.000766 -0.010287
v 0.006035 -0.004522 -0.009259
v 0.006035 -0.008587 -0.005723
v 0.006035 -0.010341 -0.000628
v 0.006035 -0.009313 0.004661
v 0.006035 -0.005779 0.008728
v 0.006035 -0.000686 0.010483
v 0.006035 0.004602 0.009454
v 0.006035 0.008668 0.005919
v 0.006035 0.010422 0.000824
v -0.006035 0.009394 -0.004466
v -0.006035 0.005860 -0.008533
v -0.006035 0.000766 -0.010287
v -0.006035 -0.004522 -0.009259
v -0.006035 -0.008587 -0.005723
v -0.006035 -0.010341 -0.000628
v -0.006035 -0.009313 0.004661
v -0.006035 -0.005779 0.008728
v -0.006035 -0.000686 0.010483
v -0.006035 0.004602 0.009454
v -0.006035 0.008668 0.005919
v -0.006035 0.010422 0.000824
v -0.012988 0.004129 -0.000803
v -0.012988 0.002352 -0.003488
v -0.012988 -0.000804 -0.004130
v -0.012988 -0.003488 -0.002352
v -0.012988 -0.004130 0.000803
v -0.012988 -0.002353 0.003488
v -0.012988 0.000803 0.004130
v -0.012988 0.003488 0.002352
v 0.009345 0.002352 -0.003488
v 0.009345 0.004129 -0.000803
v 0.009345 -0.000804 -0.004130
v 0.009345 -0.003488 -0.002352
v 0.009345 -0.004130 0.000803
v 0.009345 -0.002353 0.003488
v 0.009345 0.000803 0.004130
v 0.009345 0.003488 0.002352
v 0.001498 -0.005936 0.026742
v 0.001998 -0.006379 0.026430
v 0.001590 0.007416 0.006823
v 0.002090 0.006912 0.006606
v 0.001498 -0.016829 0.035832
v 0.001998 -0.017144 0.035408
v 0.001498 -0.029558 0.041197
v 0.001998 -0.029756 0.040716
v 0.001498 -0.042158 0.042325
v 0.001998 -0.042257 0.041829
v 0.001498 -0.055111 0.040234
v 0.001998 -0.055108 0.039747
v 0.001498 -0.068156 0.035767
v 0.001998 -0.068155 0.035275
v 0.001498 -0.085380 0.031483
v 0.001998 -0.085380 0.030988
v 0.001497 -0.104358 0.029948
v 0.001998 -0.104358 0.029451
v 0.001497 -0.124020 0.030254
v 0.001998 -0.123980 0.029756
v 0.001497 -0.132025 0.029382
v 0.001998 -0.131984 0.028884
v 0.001998 -0.020308 0.016584
v 0.001498 -0.020769 0.016259
v 0.002090 -0.005772 0.001146
v 0.001590 -0.006316 0.000912
v 0.001998 -0.027353 0.021666
v 0.001498 -0.027675 0.021234
v 0.001998 -0.036254 0.024942
v 0.001498 -0.036455 0.024455
v 0.001998 -0.045610 0.025026
v 0.001498 -0.045709 0.024529
v 0.001998 -0.055011 0.022536
v 0.001498 -0.055008 0.022057
v 0.001998 -0.068097 0.018644
v 0.001498 -0.068095 0.018158
v 0.001998 -0.085380 0.015347
v 0.001497 -0.085380 0.014857
v 0.001998 -0.104358 0.014055
v 0.001497 -0.104358 0.013562
v 0.001998 -0.122696 0.013985
v 0.001497 -0.122656 0.013490
v 0.001998 -0.130700 0.013115
v 0.001496 -0.130660 0.012619
v 0.002985 -0.144867 0.027364
v 0.003487 -0.144791 0.026870
v 0.003487 -0.142384 0.011348
v 0.002985 -0.142307 0.010857
v 0.005221 -0.156353 0.024635
v 0.005723 -0.156235 0.024151
v 0.005723 -0.152519 0.008969
v 0.005220 -0.152401 0.008487
v 0.005723 -0.173125 0.017003
v 0.005221 -0.173303 0.017463
v 0.005220 -0.167376 0.002152
v 0.005723 -0.167553 0.002610
v -0.002790 -0.006379 0.026430
v -0.002290 -0.005936 0.026742
v -0.002882 0.006912 0.006606
v -0.002381 0.007416 0.006823
v -0.002790 -0.017144 0.035408
v -0.002289 -0.016829 0.035832
v -0.002790 -0.029756 0.040716
v -0.002289 -0.029558 0.041197
v -0.002790 -0.042257 0.041829
v -0.002289 -0.042158 0.042325
v -0.002790 -0.055108 0.039747
v -0.002289 -0.055111 0.040234
v -0.002790 -0.068155 0.035275
v -0.002289 -0.068156 0.035767
v -0.002790 -0.085380 0.030988
v -0.002288 -0.085380 0.031483
v -0.002790 -0.104358 0.029451
v -0.002288 -0.104358 0.029948
v -0.002790 -0.123980 0.029756
v -0.002287 -0.124020 0.030254
v -0.002790 -0.131984 0.028884
v -0.002286 -0.132025 0.029382
v -0.002289 -0.020769 0.016259
v -0.002790 -0.020308 0.016584
v -0.002381 -0.006316 0.000912
v -0.002882 -0.005772 0.001146
v -0.002289 -0.027675 0.021234
v -0.002790 -0.027353 0.021666
v -0.002289 -0.036455 0.024455
v -0.002790 -0.036254 0.024942
v -0.002289 -0.045709 0.024529
v -0.002790 -0.045610 0.025026
v -0.002289 -0.055008 0.022057
v -0.002790 -0.055011 0.022536
v -0.002288 -0.068095 0.018158
v -0.002790 -0.068097 0.018644
v -0.002288 -0.085380 0.014857
v -0.002790 -0.085380 0.015347
v -0.002287 -0.104358 0.013562
v -0.002790 -0.104358 0.014055
v -0.002286 -0.122656 0.013490
v -0.002790 -0.122696 0.013985
v -0.002285 -0.130660 0.012619
v -0.002790 -0.130700 0.013115
v -0.005396 -0.144791 0.026870
v -0.004891 -0.144867 0.027364
v -0.004890 -0.142307 0.010857
v -0.005396 -0.142383 0.011348
v -0.008748 -0.156235 0.024151
v -0.008243 -0.156353 0.024635
v -0.008242 -0.152401 0.008487
v -0.008748 -0.152519 0.008969
v -0.008243 -0.173303 0.017463
v -0.008748 -0.173125 0.017003
v -0.008748 -0.167553 0.002610
v -0.008242 -0.167376 0.002152
vn -0.0000 0.4385 0.8987
vn -0.0000 -0.0698 0.9976
vn -0.0000 -0.8988 0.4383
vn -0.0000 -0.9976 -0.0697
vn -0.0000 -0.4385 -0.8987
vn -0.0000 0.0698 -0.9976
vn -0.0000 0.8291 0.5591
vn -0.0000 -0.5593 0.8290
vn -0.0000 -0.8291 -0.5591
vn -0.0000 0.9976 0.0697
vn -0.0000 0.8988 -0.4383
vn -0.0000 0.5593 -0.8290
vn 1.0000 -0.0000 -0.0000
vn -1.0000 -0.0000 -0.0000
vn -0.0000 -0.9816 0.1909
vn -0.0000 0.1909 0.9816
vn -0.0000 0.9816 -0.1909
vn -0.0000 0.5591 -0.8291
vn -0.0000 -0.5591 0.8291
vn -0.0000 -0.1909 -0.9816
vn 1.0000 -0.0012 0.0017
vn -0.0002 0.8306 0.5569
vn -0.0095 0.7432 0.6690
vn 1.0000 -0.0001 -0.0001
vn -0.0105 0.5202 0.8540
vn -0.0117 0.2418 0.9703
vn 1.0000 -0.0000 -0.0002
vn -0.0080 -0.0353 0.9993
vn 1.0000 -0.0000 -0.0001
vn -0.0039 -0.2425 0.9701
vn 1.0000 0.0001 -0.0001
vn -0.0011 -0.2830 0.9591
vn 1.0000 0.0001 -0.0002
vn -0.0036 -0.1615 0.9869
vn -0.0013 -0.0326 0.9995
vn -0.0021 -0.0464 0.9989
vn 0.9982 0.0595 0.0051
vn -0.0004 -0.1318 0.9913
vn -0.0043 -0.6592 -0.7519
vn 1.0000 -0.0019 0.0036
vn 1.0000 -0.0010 0.0019
vn -0.0088 -0.4688 -0.8833
vn 1.0000 -0.0000 0.0002
vn -0.0144 -0.1785 -0.9838
vn 1.0000 -0.0000 0.0001
vn -0.0095 0.1258 -0.9920
vn 1.0000 -0.0001 0.0001
vn -0.0002 0.2713 -0.9625
vn -0.0015 0.2369 -0.9715
vn -0.0020 0.1281 -0.9918
vn -0.0006 0.0360 -0.9994
vn -0.0015 0.0561 -0.9984
vn -0.0004 0.1290 -0.9916
vn 0.9982 0.0592 0.0089
vn -0.0010 0.1893 -0.9819
vn 0.9873 0.1567 0.0255
vn -0.0008 -0.1933 0.9811
vn 0.9874 0.1560 0.0272
vn -0.0038 0.3106 -0.9505
vn 0.9951 0.0979 0.0144
vn -0.0036 -0.3112 0.9503
vn -0.0001 -0.3897 0.9209
vn 0.9950 0.0970 0.0246
vn -0.0001 0.3896 -0.9210
vn 0.0095 0.7432 0.6690
vn -1.0000 -0.0021 0.0035
vn -1.0000 -0.0011 0.0017
vn 0.0105 0.5203 0.8539
vn -1.0000 -0.0000 -0.0001
vn 0.0117 0.2417 0.9703
vn 0.0080 -0.0353 0.9993
vn -1.0000 0.0001 -0.0001
vn 0.0039 -0.2424 0.9702
vn -1.0000 0.0001 -0.0002
vn 0.0011 -0.2829 0.9591
vn 0.0035 -0.1615 0.9869
vn -1.0000 -0.0001 -0.0002
vn 0.0013 -0.0325 0.9995
vn 0.0020 -0.0464 0.9989
vn 0.0004 -0.1317 0.9913
vn -0.9946 0.1034 0.0067
vn -1.0000 -0.0009 0.0019
vn 0.0001 -0.7280 -0.6855
vn 0.0043 -0.6592 -0.7519
vn -1.0000 0.0001 0.0001
vn 0.0088 -0.4687 -0.8833
vn 0.0144 -0.1786 -0.9838
vn -1.0000 -0.0000 0.0002
vn 0.0095 0.1258 -0.9920
vn -1.0000 -0.0000 0.0001
vn 0.0002 0.2713 -0.9625
vn -1.0000 -0.0001 0.0001
vn 0.0015 0.2368 -0.9716
vn 0.0020 0.1280 -0.9918
vn 0.0006 0.0360 -0.9994
vn 0.0015 0.0561 -0.9984
vn -0.9946 0.1023 0.0175
vn 0.0003 0.1289 -0.9917
vn -0.9689 0.2440 0.0414
vn 0.0009 -0.1932 0.9812
vn -0.9687 0.2450 0.0395
vn 0.0009 0.1894 -0.9819
vn -0.9890 0.1426 0.0396
vn 0.0036 -0.3110 0.9504
vn -0.9894 0.1442 0.0179
vn 0.0002 -0.3898 0.9209
vn 0.0039 0.3108 -0.9505
vn -0.0000 0.8306 0.5568
vn -0.0000 0.7433 0.6689
vn 1.0000 -0.0007 0.0015
vn 1.0000 -0.0012 0.0019
vn 1.0000 -0.0023 0.0036
vn 1.0000 -0.0021 0.0036
vn -0.0000 0.5202 0.8540
vn -0.0000 0.5203 0.8540
vn -0.0000 0.2417 0.9704
vn -0.0000 -0.0354 0.9994
vn -0.0000 -0.2426 0.9701
vn -0.0000 -0.2829 0.9591
vn -0.0000 -0.1615 0.9869
vn -0.0000 -0.0326 0.9995
vn -0.0000 -0.0464 0.9989
vn 0.9983 0.0574 0.0068
vn -0.0000 -0.1326 0.9912
vn 0.9872 0.1572 0.0266
vn 0.9981 0.0612 0.0072
vn -0.0000 -0.1332 0.9911
vn -0.0000 -0.1969 0.9804
vn -0.0000 -0.6593 -0.7518
vn -0.0000 -0.7280 -0.6856
vn -0.0000 -0.4688 -0.8833
vn -0.0000 -0.1788 -0.9839
vn -0.0000 0.1256 -0.9921
vn -0.0000 0.2713 -0.9625
vn -0.0000 0.2368 -0.9715
vn -0.0000 0.1281 -0.9918
vn -0.0000 0.0360 -0.9994
vn -0.0000 0.0561 -0.9984
vn -0.0000 0.1303 -0.9915
vn -0.0000 0.1297 -0.9915
vn -0.0000 0.1957 -0.9807
vn -0.0000 0.1934 -0.9811
vn 0.9875 0.1554 0.0260
vn 0.9955 0.0930 0.0185
vn -0.0000 -0.1989 0.9800
vn -0.0000 -0.3165 0.9486
vn -0.0000 0.3191 -0.9477
vn -0.0000 0.3161 -0.9487
vn 0.9945 0.1025 0.0204
vn -0.0000 -0.3192 0.9477
vn -0.0000 -0.3897 0.9209
vn -0.0000 0.3896 -0.9210
vn -1.0000 -0.0012 0.0019
vn -1.0000 -0.0019 0.0036
vn -1.0000 -0.0007 0.0015
vn -0.9950 0.0996 0.0117
vn -0.9943 0.1059 0.0125
vn -0.9686 0.2453 0.0408
vn -0.9691 0.2435 0.0400
vn -0.9902 0.1370 0.0273
vn -0.9881 0.1509 0.0301
vn 1.0000 -0.0022 0.0035
vn -0.0001 -0.7280 -0.6856
vn 0.0002 0.8307 0.5567
vn -1.0000 -0.0020 0.0037
vn 0.0001 0.3896 -0.9210
vn -1.0000 -0.0020 0.0036
vt 0.000000 0.000000
s 1
f 22/1/1 9/1/2 10/1/1
f 19/1/3 6/1/4 7/1/3
f 16/1/5 3/1/6 4/1/5
f 23/1/7 10/1/1 11/1/7
f 20/1/8 7/1/3 8/1/8
f 17/1/9 4/1/5 5/1/9
f 24/1/10 11/1/7 12/1/10
f 21/1/2 8/1/8 9/1/2
f 18/1/4 5/1/9 6/1/4
f 13/1/11 12/1/10 1/1/11
f 15/1/6 2/1/12 3/1/6
f 11/1/13 7/1/13 3/1/13
f 14/1/12 1/1/11 2/1/12
f 17/1/14 21/1/14 13/1/14
f 28/1/9 37/1/15 29/1/15
f 31/1/16 40/1/7 32/1/7
f 25/1/17 33/1/18 26/1/18
f 29/1/15 38/1/19 30/1/19
f 32/1/7 34/1/17 25/1/17
f 26/1/18 35/1/20 27/1/20
f 30/1/19 39/1/16 31/1/16
f 27/1/20 36/1/9 28/1/9
f 42/1/21 43/1/22 41/1/23
f 46/1/24 41/1/23 45/1/25
f 48/1/24 45/1/25 47/1/26
f 50/1/27 47/1/26 49/1/28
f 52/1/29 49/1/28 51/1/30
f 54/1/31 51/1/30 53/1/32
f 56/1/33 53/1/32 55/1/34
f 58/1/31 55/1/34 57/1/35
f 60/1/24 57/1/35 59/1/36
f 62/1/37 59/1/36 61/1/38
f 64/1/39 65/1/40 63/1/41
f 68/1/42 63/1/41 67/1/43
f 70/1/44 67/1/43 69/1/45
f 72/1/46 69/1/45 71/1/47
f 74/1/48 71/1/47 73/1/43
f 76/1/49 73/1/43 75/1/45
f 78/1/50 75/1/45 77/1/45
f 80/1/51 77/1/45 79/1/45
f 82/1/52 79/1/45 81/1/47
f 84/1/53 81/1/47 83/1/54
f 83/1/54 88/1/55 84/1/53
f 86/1/56 61/1/38 85/1/57
f 87/1/58 92/1/59 88/1/55
f 90/1/60 85/1/57 89/1/61
f 93/1/31 89/1/61 94/1/62
f 91/1/63 95/1/64 92/1/59
f 98/1/65 99/1/66 97/1/67
f 102/1/68 97/1/67 101/1/69
f 104/1/70 101/1/69 103/1/69
f 106/1/71 103/1/69 105/1/72
f 108/1/73 105/1/72 107/1/74
f 110/1/75 107/1/74 109/1/69
f 112/1/76 109/1/69 111/1/77
f 114/1/78 111/1/77 113/1/69
f 116/1/79 113/1/69 115/1/69
f 118/1/80 115/1/69 117/1/81
f 120/1/82 121/1/83 119/1/84
f 124/1/85 119/1/84 123/1/86
f 126/1/85 123/1/86 125/1/87
f 128/1/88 125/1/87 127/1/89
f 130/1/90 127/1/89 129/1/91
f 132/1/92 129/1/91 131/1/93
f 134/1/90 131/1/93 133/1/94
f 136/1/90 133/1/94 135/1/95
f 138/1/85 135/1/95 137/1/96
f 140/1/97 137/1/96 139/1/98
f 139/1/98 144/1/99 140/1/97
f 142/1/100 117/1/81 141/1/101
f 143/1/102 148/1/103 144/1/99
f 146/1/104 141/1/101 145/1/105
f 149/1/106 145/1/105 150/1/72
f 147/1/107 151/1/90 148/1/103
f 100/1/108 41/1/109 43/1/108
f 46/1/13 63/1/110 42/1/111
f 42/1/111 65/1/112 44/1/113
f 98/1/109 45/1/114 41/1/109
f 48/1/13 67/1/13 46/1/13
f 102/1/115 47/1/116 45/1/114
f 50/1/13 69/1/13 48/1/13
f 104/1/116 49/1/117 47/1/116
f 52/1/13 71/1/13 50/1/13
f 106/1/117 51/1/118 49/1/117
f 54/1/13 73/1/13 52/1/13
f 108/1/118 53/1/119 51/1/118
f 56/1/13 75/1/13 54/1/13
f 110/1/119 55/1/120 53/1/119
f 58/1/13 77/1/13 56/1/13
f 112/1/120 57/1/121 55/1/120
f 60/1/13 79/1/13 58/1/13
f 114/1/121 59/1/122 57/1/121
f 62/1/123 81/1/13 60/1/13
f 116/1/122 61/1/124 59/1/122
f 62/1/123 87/1/125 83/1/126
f 118/1/127 85/1/128 61/1/124
f 119/1/129 66/1/130 64/1/129
f 123/1/131 64/1/129 68/1/131
f 125/1/132 68/1/131 70/1/132
f 127/1/133 70/1/132 72/1/133
f 129/1/134 72/1/133 74/1/134
f 131/1/135 74/1/134 76/1/135
f 133/1/136 76/1/135 78/1/136
f 135/1/137 78/1/136 80/1/137
f 137/1/138 80/1/137 82/1/138
f 139/1/139 82/1/138 84/1/140
f 143/1/141 84/1/140 88/1/142
f 86/1/143 91/1/144 87/1/125
f 142/1/145 89/1/146 85/1/128
f 147/1/147 88/1/142 92/1/148
f 90/1/149 96/1/13 91/1/144
f 146/1/150 94/1/151 89/1/146
f 152/1/152 92/1/148 95/1/152
f 97/1/153 122/1/154 120/1/155
f 101/1/14 120/1/155 124/1/14
f 103/1/14 124/1/14 126/1/14
f 105/1/14 126/1/14 128/1/14
f 107/1/14 128/1/14 130/1/14
f 109/1/14 130/1/14 132/1/14
f 111/1/14 132/1/14 134/1/14
f 113/1/14 134/1/14 136/1/14
f 115/1/14 136/1/14 138/1/14
f 117/1/156 138/1/14 140/1/157
f 117/1/156 144/1/158 141/1/159
f 141/1/159 148/1/160 145/1/161
f 145/1/161 151/1/14 150/1/14
f 3/1/13 2/1/13 1/1/13
f 1/1/13 12/1/13 11/1/13
f 11/1/13 10/1/13 9/1/13
f 9/1/13 8/1/13 7/1/13
f 7/1/13 6/1/13 5/1/13
f 5/1/13 4/1/13 3/1/13
f 3/1/13 1/1/13 11/1/13
f 11/1/13 9/1/13 7/1/13
f 7/1/13 5/1/13 3/1/13
f 13/1/14 14/1/14 15/1/14
f 15/1/14 16/1/14 17/1/14
f 17/1/14 18/1/14 19/1/14
f 19/1/14 20/1/14 21/1/14
f 21/1/14 22/1/14 23/1/14
f 23/1/14 24/1/14 13/1/14
f 13/1/14 15/1/14 17/1/14
f 17/1/14 19/1/14 21/1/14
f 21/1/14 23/1/14 13/1/14
f 22/1/1 21/1/2 9/1/2
f 19/1/3 18/1/4 6/1/4
f 16/1/5 15/1/6 3/1/6
f 23/1/7 22/1/1 10/1/1
f 20/1/8 19/1/3 7/1/3
f 17/1/9 16/1/5 4/1/5
f 24/1/10 23/1/7 11/1/7
f 21/1/2 20/1/8 8/1/8
f 18/1/4 17/1/9 5/1/9
f 13/1/11 24/1/10 12/1/10
f 15/1/6 14/1/12 2/1/12
f 14/1/12 13/1/11 1/1/11
f 28/1/9 36/1/9 37/1/15
f 31/1/16 39/1/16 40/1/7
f 25/1/17 34/1/17 33/1/18
f 29/1/15 37/1/15 38/1/19
f 32/1/7 40/1/7 34/1/17
f 26/1/18 33/1/18 35/1/20
f 30/1/19 38/1/19 39/1/16
f 27/1/20 35/1/20 36/1/9
f 42/1/21 44/1/162 43/1/22
f 46/1/24 42/1/21 41/1/23
f 48/1/24 46/1/24 45/1/25
f 50/1/27 48/1/24 47/1/26
f 52/1/29 50/1/27 49/1/28
f 54/1/31 52/1/29 51/1/30
f 56/1/33 54/1/31 53/1/32
f 58/1/31 56/1/33 55/1/34
f 60/1/24 58/1/31 57/1/35
f 62/1/37 60/1/24 59/1/36
f 64/1/39 66/1/163 65/1/40
f 68/1/42 64/1/39 63/1/41
f 70/1/44 68/1/42 67/1/43
f 72/1/46 70/1/44 69/1/45
f 74/1/48 72/1/46 71/1/47
f 76/1/49 74/1/48 73/1/43
f 78/1/50 76/1/49 75/1/45
f 80/1/51 78/1/50 77/1/45
f 82/1/52 80/1/51 79/1/45
f 84/1/53 82/1/52 81/1/47
f 83/1/54 87/1/58 88/1/55
f 86/1/56 62/1/37 61/1/38
f 87/1/58 91/1/63 92/1/59
f 90/1/60 86/1/56 85/1/57
f 93/1/31 90/1/60 89/1/61
f 91/1/63 96/1/47 95/1/64
f 98/1/65 100/1/164 99/1/66
f 102/1/68 98/1/65 97/1/67
f 104/1/70 102/1/68 101/1/69
f 106/1/71 104/1/70 103/1/69
f 108/1/73 106/1/71 105/1/72
f 110/1/75 108/1/73 107/1/74
f 112/1/76 110/1/75 109/1/69
f 114/1/78 112/1/76 111/1/77
f 116/1/79 114/1/78 113/1/69
f 118/1/80 116/1/79 115/1/69
f 120/1/82 122/1/165 121/1/83
f 124/1/85 120/1/82 119/1/84
f 126/1/85 124/1/85 123/1/86
f 128/1/88 126/1/85 125/1/87
f 130/1/90 128/1/88 127/1/89
f 132/1/92 130/1/90 129/1/91
f 134/1/90 132/1/92 131/1/93
f 136/1/90 134/1/90 133/1/94
f 138/1/85 136/1/90 135/1/95
f 140/1/97 138/1/85 137/1/96
f 139/1/98 143/1/102 144/1/99
f 142/1/100 118/1/80 117/1/81
f 143/1/102 147/1/107 148/1/103
f 146/1/104 142/1/100 141/1/101
f 149/1/106 146/1/104 145/1/105
f 147/1/107 152/1/166 151/1/90
f 100/1/108 98/1/109 41/1/109
f 46/1/13 67/1/13 63/1/110
f 42/1/111 63/1/110 65/1/112
f 98/1/109 102/1/115 45/1/114
f 48/1/13 69/1/13 67/1/13
f 102/1/115 104/1/116 47/1/116
f 50/1/13 71/1/13 69/1/13
f 104/1/116 106/1/117 49/1/117
f 52/1/13 73/1/13 71/1/13
f 106/1/117 108/1/118 51/1/118
f 54/1/13 75/1/13 73/1/13
f 108/1/118 110/1/119 53/1/119
f 56/1/13 77/1/13 75/1/13
f 110/1/119 112/1/120 55/1/120
f 58/1/13 79/1/13 77/1/13
f 112/1/120 114/1/121 57/1/121
f 60/1/13 81/1/13 79/1/13
f 114/1/121 116/1/122 59/1/122
f 62/1/123 83/1/126 81/1/13
f 116/1/122 118/1/127 61/1/124
f 62/1/123 86/1/143 87/1/125
f 118/1/127 142/1/145 85/1/128
f 119/1/129 121/1/130 66/1/130
f 123/1/131 119/1/129 64/1/129
f 125/1/132 123/1/131 68/1/131
f 127/1/133 125/1/132 70/1/132
f 129/1/134 127/1/133 72/1/133
f 131/1/135 129/1/134 74/1/134
f 133/1/136 131/1/135 76/1/135
f 135/1/137 133/1/136 78/1/136
f 137/1/138 135/1/137 80/1/137
f 139/1/139 137/1/138 82/1/138
f 143/1/141 139/1/139 84/1/140
f 86/1/143 90/1/149 91/1/144
f 142/1/145 146/1/150 89/1/146
f 147/1/147 143/1/141 88/1/142
f 90/1/149 93/1/13 96/1/13
f 146/1/150 149/1/151 94/1/151
f 152/1/152 147/1/147 92/1/148
f 97/1/153 99/1/167 122/1/154
f 101/1/14 97/1/153 120/1/155
f 103/1/14 101/1/14 124/1/14
f 105/1/14 103/1/14 126/1/14
f 107/1/14 105/1/14 128/1/14
f 109/1/14 107/1/14 130/1/14
f 111/1/14 109/1/14 132/1/14
f 113/1/14 111/1/14 134/1/14
f 115/1/14 113/1/14 136/1/14
f 117/1/156 115/1/14 138/1/14
f 117/1/156 140/1/157 144/1/158
f 141/1/159 144/1/158 148/1/160
f 145/1/161 148/1/160 151/1/14
