# Blender 5.0.1
# www.blender.org
o Exporting_sf.150
v -0.008214 0.004200 0.000000
v -0.004506 0.001281 0.000000
v 0.000000 0.000140 0.000000
v -0.018668 -0.005690 0.000000
v -0.018668 -0.004928 -0.002845
v -0.018668 -0.002845 -0.004928
v -0.018668 0.000000 -0.005690
v -0.018668 0.002845 -0.004928
v -0.018668 0.004928 -0.002845
v -0.018668 0.005690 0.000000
v -0.016539 -0.005690 0.000000
v -0.018668 -0.004928 0.002845
v -0.018668 -0.002845 0.004928
v -0.018668 0.000000 0.005690
v -0.018668 0.002845 0.004928
v -0.018668 0.004928 0.002845
v -0.016539 -0.004928 -0.002845
v -0.016539 -0.002845 -0.004928
v -0.016539 0.000000 -0.005690
v -0.016539 0.002845 -0.004928
v -0.016539 0.004928 -0.002845
v -0.016539 0.005690 0.000000
v -0.016539 -0.004928 0.002845
v -0.016539 -0.002845 0.004928
v -0.016539 0.000000 0.005690
v -0.016539 0.002845 0.004928
v -0.016539 0.004928 0.002845
v 0.008214 0.004200 0.000000
v 0.004506 0.001281 0.000000
v 0.018668 -0.005690 0.000000
v 0.018668 -0.004928 -0.002845
v 0.018668 -0.002845 -0.004928
v 0.018668 0.000000 -0.005690
v 0.018668 0.002845 -0.004928
v 0.018668 0.004928 -0.002845
v 0.018668 0.005690 0.000000
v 0.016539 -0.005690 0.000000
v 0.018668 -0.004928 0.002845
v 0.018668 -0.002845 0.004928
v 0.018668 0.000000 0.005690
v 0.018668 0.002845 0.004928
v 0.018668 0.004928 0.002845
v 0.016539 -0.004928 -0.002845
v 0.016539 -0.002845 -0.004928
v 0.016539 0.000000 -0.005690
v 0.016539 0.002845 -0.004928
v 0.016539 0.004928 -0.002845
v 0.016539 0.005690 0.000000
v 0.016539 -0.004928 0.002845
v 0.016539 -0.002845 0.004928
v 0.016539 0.000000 0.005690
v 0.016539 0.002845 0.004928
v 0.016539 0.004928 0.002845
v -0.017583 -0.008730 0.010193
v -0.017936 -0.008730 0.009839
v -0.017583 -0.009084 0.009839
v -0.017936 0.009529 0.009839
v -0.017583 0.009544 0.010193
v -0.017583 0.009883 0.009825
v -0.010410 0.009883 0.009825
v -0.010349 0.009544 0.010193
v -0.009998 0.009600 0.009834
v -0.008509 0.004796 0.010193
v -0.008214 0.004999 0.009828
v -0.004666 0.001770 0.010193
v -0.004506 0.002080 0.009826
v 0.000000 0.000589 0.010193
v -0.000000 0.000939 0.009826
v -0.017583 -0.009084 0.000000
v -0.017936 -0.008730 0.000047
v -0.017936 -0.007550 -0.004359
v -0.017583 -0.007867 -0.004542
v -0.017936 -0.004359 -0.007550
v -0.017583 -0.004542 -0.007867
v -0.017936 0.000000 -0.008718
v -0.017583 0.000000 -0.009084
v -0.017936 0.004359 -0.007550
v -0.017583 0.004542 -0.007867
v -0.017936 0.007550 -0.004359
v -0.017583 0.007867 -0.004542
v -0.017936 0.008734 0.000061
v -0.017583 0.009084 0.000000
v -0.010158 -0.003826 0.009700
v -0.009805 -0.003720 0.010044
v -0.010158 -0.029872 0.023368
v -0.009805 -0.029735 0.023695
v -0.010158 -0.057865 0.032307
v -0.009805 -0.057780 0.032651
v -0.010158 -0.086769 0.037496
v -0.009805 -0.086726 0.037848
v -0.010158 -0.116066 0.039447
v -0.009805 -0.116065 0.039802
v -0.010158 -0.145364 0.037563
v -0.009805 -0.145419 0.037914
v -0.010159 -0.173826 0.030428
v -0.009805 -0.173943 0.030763
v -0.010158 -0.200583 0.018327
v -0.009805 -0.200728 0.018650
v -0.010158 -0.209455 0.014493
v -0.009805 -0.209548 0.014838
v -0.009805 -0.216654 0.013984
v -0.010158 -0.216537 0.013642
v -0.010158 -0.143459 0.025368
v -0.009805 -0.143404 0.025017
v -0.009805 -0.169649 0.018437
v -0.010159 -0.169766 0.018772
v -0.010158 -0.060834 0.020350
v -0.009805 -0.060919 0.020007
v -0.009805 -0.088311 0.024924
v -0.010158 -0.088268 0.025276
v -0.009805 -0.195760 0.006629
v -0.010158 -0.195895 0.006956
v -0.009805 -0.116080 0.026774
v -0.010158 -0.116080 0.027128
v -0.009805 -0.007612 -0.002594
v -0.010158 -0.007506 -0.002251
v -0.009805 -0.034771 0.011656
v -0.010158 -0.034634 0.011984
v -0.009805 -0.204953 0.003178
v -0.010158 -0.205039 0.003523
v -0.010158 -0.212711 0.002519
v -0.009805 -0.212594 0.002178
v -0.009998 0.008800 -0.000010
v -0.010410 0.009018 -0.000244
v 0.017936 -0.008730 0.009839
v 0.017583 -0.008730 0.010193
v 0.017583 -0.009084 0.009839
v 0.017936 0.009529 0.009839
v 0.017583 0.009883 0.009825
v 0.017583 0.009544 0.010193
v 0.010410 0.009883 0.009825
v 0.009998 0.009600 0.009834
v 0.010349 0.009544 0.010193
v 0.008214 0.004999 0.009834
v 0.008509 0.004796 0.010193
v 0.004506 0.002080 0.009828
v 0.004666 0.001770 0.010193
v 0.017936 -0.008730 0.000047
v 0.017583 -0.009084 0.000000
v 0.017583 -0.007867 -0.004542
v 0.017936 -0.007550 -0.004359
v 0.017583 -0.004542 -0.007867
v 0.017936 -0.004359 -0.007550
v 0.017583 0.000000 -0.009084
v 0.017936 0.000000 -0.008718
v 0.017583 0.004542 -0.007867
v 0.017936 0.004359 -0.007550
v 0.017583 0.007867 -0.004542
v 0.017936 0.007550 -0.004359
v 0.017583 0.009084 0.000000
v 0.017936 0.008734 0.000061
v 0.009805 -0.003720 0.010044
v 0.010158 -0.003826 0.009700
v 0.009805 -0.029735 0.023695
v 0.010158 -0.029872 0.023368
v 0.009805 -0.057780 0.032651
v 0.010158 -0.057865 0.032307
v 0.009805 -0.086726 0.037848
v 0.010158 -0.086769 0.037496
v 0.009805 -0.116065 0.039802
v 0.010158 -0.116066 0.039447
v 0.009805 -0.145419 0.037914
v 0.010158 -0.145364 0.037563
v 0.009805 -0.173943 0.030763
v 0.010159 -0.173826 0.030428
v 0.009805 -0.200728 0.018650
v 0.010158 -0.200583 0.018327
v 0.009805 -0.209548 0.014838
v 0.010158 -0.209455 0.014493
v 0.010158 -0.216537 0.013642
v 0.009805 -0.216654 0.013984
v 0.009805 -0.143404 0.025017
v 0.010158 -0.143459 0.025368
v 0.010159 -0.169766 0.018772
v 0.009805 -0.169649 0.018437
v 0.009805 -0.060919 0.020007
v 0.010158 -0.060834 0.020350
v 0.010158 -0.088268 0.025276
v 0.009805 -0.088311 0.024924
v 0.010158 -0.195895 0.006956
v 0.009805 -0.195760 0.006629
v 0.010158 -0.116080 0.027128
v 0.009805 -0.116080 0.026774
v 0.010158 -0.007506 -0.002251
v 0.009805 -0.007612 -0.002594
v 0.010158 -0.034634 0.011984
v 0.009805 -0.034771 0.011656
v 0.010158 -0.205039 0.003523
v 0.009805 -0.204953 0.003178
v 0.009805 -0.212594 0.002178
v 0.010158 -0.212711 0.002519
v 0.010410 0.009006 -0.000291
v 0.009998 0.008673 0.000000
vn -0.0000 -0.0000 -1.0000
vn -0.0000 -0.5000 -0.8660
vn -0.0000 -0.5000 0.8660
vn -0.0000 -0.0000 1.0000
vn -0.0000 0.5000 -0.8660
vn -0.0000 0.5000 0.8660
vn -0.0000 -0.8660 -0.5000
vn -0.0000 -1.0000 -0.0000
vn -0.0000 -0.8660 0.5000
vn -0.0000 0.8660 -0.5000
vn -0.0000 0.8660 0.5000
vn -0.0000 1.0000 -0.0000
vn 0.0001 0.0001 1.0000
vn -1.0000 0.0001 -0.0000
vn -0.0000 -1.0000 -0.0001
vn -1.0000 -0.0000 -0.0001
vn 0.0001 -0.0001 1.0000
vn 0.0032 0.9965 -0.0834
vn 0.0030 0.9965 -0.0833
vn -0.0000 -0.0002 1.0000
vn 0.9320 0.3612 -0.0294
vn 1.0000 0.0001 -0.0001
vn -0.0001 0.0001 1.0000
vn -0.0001 -1.0000 -0.0000
vn 1.0000 -0.0001 -0.0000
vn -0.0038 0.9965 -0.0838
vn -0.0001 -0.0001 1.0000
vn -0.0036 0.9965 -0.0838
vn -0.9302 0.3657 -0.0321
vn 0.0002 -0.0001 1.0000
vn 0.8038 0.5895 -0.0805
vn -0.0001 -0.0000 1.0000
vn 0.4411 0.8927 -0.0924
vn -0.0000 0.9942 -0.1078
vn 0.0325 -0.8656 -0.4997
vn -1.0000 0.0001 0.0001
vn 0.0325 -0.4998 -0.8655
vn 0.0325 -0.0001 -0.9995
vn -1.0000 -0.0000 0.0002
vn 0.0325 0.4997 -0.8656
vn -1.0000 -0.0001 0.0001
vn 0.0325 0.8655 -0.4998
vn 0.0056 0.9851 -0.1719
vn -1.0000 -0.0002 -0.0000
vn 0.0086 -0.9914 -0.1305
vn 0.0039 0.3859 0.9225
vn 0.0001 0.4646 0.8855
vn 0.0023 0.2410 0.9705
vn 0.0017 0.1218 0.9926
vn 0.0023 0.0012 1.0000
vn 0.0042 -0.1543 0.9880
vn -1.0000 0.0001 -0.0002
vn 0.0041 -0.3290 0.9443
vn -1.0000 0.0001 -0.0001
vn 0.0002 -0.4043 0.9146
vn 0.0103 -0.2606 0.9654
vn -1.0000 -0.0000 -0.0002
vn 0.0002 -0.1194 0.9928
vn 0.0042 0.1543 -0.9880
vn -1.0000 -0.0000 0.0001
vn 0.0023 -0.2410 -0.9705
vn 0.0042 0.3289 -0.9443
vn 0.0017 -0.1218 -0.9926
vn 0.0001 -0.4646 -0.8855
vn 0.0006 0.3819 -0.9242
vn 0.0022 -0.0012 -1.0000
vn 0.0039 -0.3859 -0.9225
vn 0.0066 0.2422 -0.9702
vn -0.0047 0.9855 -0.1696
vn 0.7115 -0.0010 0.7027
vn -0.8022 0.5916 -0.0809
vn -0.4411 0.8927 -0.0922
vn -0.0000 -0.0001 1.0000
vn 1.0000 0.0001 0.0001
vn -0.0086 -0.9914 -0.1305
vn -0.0325 -0.8655 -0.4998
vn -0.0325 -0.4997 -0.8656
vn 1.0000 -0.0000 0.0001
vn -0.0325 -0.0000 -0.9995
vn 1.0000 -0.0001 0.0001
vn -0.0325 0.4998 -0.8655
vn -0.0325 0.8656 -0.4997
vn -0.0059 0.9851 -0.1721
vn 1.0000 0.0001 -0.0000
vn -0.0001 0.4646 0.8855
vn 1.0000 -0.0001 -0.0001
vn 1.0000 -0.0000 -0.0001
vn -0.0039 0.3859 0.9225
vn -0.0023 0.2410 0.9705
vn -0.0017 0.1217 0.9926
vn -0.0022 0.0011 1.0000
vn 1.0000 -0.0000 -0.0002
vn -0.0042 -0.1543 0.9880
vn -0.0041 -0.3289 0.9443
vn -0.0002 -0.4044 0.9146
vn -0.0103 -0.2608 0.9653
vn -0.0042 0.3290 -0.9443
vn -0.0042 0.1543 -0.9880
vn -0.0017 -0.1217 -0.9926
vn -0.0023 -0.2410 -0.9705
vn -0.0007 0.3820 -0.9242
vn -0.0022 -0.0011 -1.0000
vn -0.0039 -0.3859 -0.9225
vn -0.0001 -0.4646 -0.8855
vn -0.0066 0.2422 -0.9702
vn 1.0000 -0.0000 0.0002
vn -0.0001 0.1298 -0.9915
vn 0.4460 0.8710 -0.2058
vn 0.0035 0.9854 -0.1703
vn -1.0000 -0.0000 -0.0000
vn -0.0000 -0.9914 -0.1305
vn 0.0032 0.9965 -0.0832
vn 0.0011 0.9794 -0.2018
vn 0.0016 0.9855 -0.1698
vn 0.9320 0.3614 -0.0294
vn 0.6167 0.4674 0.6334
vn 0.7644 0.2977 0.5719
vn 0.8096 0.5850 -0.0476
vn 0.3375 0.6943 0.6357
vn 0.4448 0.8927 -0.0726
vn -0.0002 0.7808 0.6248
vn -0.4449 0.8926 -0.0726
vn -0.0000 0.9967 -0.0810
vn -0.0012 0.9794 -0.2017
vn -0.0000 0.4646 0.8855
vn -0.0000 0.3859 0.9225
vn -0.0000 0.2410 0.9705
vn -0.0000 0.1218 0.9926
vn -0.0000 0.0011 1.0000
vn -0.0000 -0.1543 0.9880
vn -0.0000 -0.3289 0.9444
vn -0.0000 -0.3289 0.9443
vn -0.0000 -0.4044 0.9146
vn -0.0000 -0.2607 0.9654
vn -0.0000 -0.9493 0.3145
vn -0.0000 -0.9492 0.3145
vn -0.4979 -0.8201 -0.2821
vn -0.5994 -0.7569 -0.2603
vn 0.5994 -0.7570 -0.2603
vn -0.0000 -0.0011 -1.0000
vn -0.0000 0.1543 -0.9880
vn -0.0000 0.3289 -0.9444
vn -0.0000 0.3289 -0.9443
vn -0.0000 0.3820 -0.9242
vn -0.0000 -0.3859 -0.9225
vn -0.0000 -0.2410 -0.9705
vn -0.0000 -0.1218 -0.9926
vn -0.0000 0.2422 -0.9702
vn -0.0000 -0.4646 -0.8855
vn -0.0000 -0.6556 -0.7551
vn -0.3377 0.6940 0.6359
vn -0.7658 0.3013 0.5682
vn 1.0000 -0.0000 -0.0000
vn -0.0037 0.9965 -0.0837
vn -0.6154 0.4678 0.6345
vn -0.8081 0.5870 -0.0490
vn 0.4979 -0.8201 -0.2820
vn -0.0020 0.9855 -0.1696
vn 0.0001 0.1299 -0.9915
vn -0.0002 -0.1194 0.9928
vn 0.0031 0.9965 -0.0833
vt 0.000000 0.000000
s 1
f 7/1/1 18/1/2 6/1/2
f 13/1/3 25/1/4 14/1/4
f 8/1/5 19/1/1 7/1/1
f 14/1/4 26/1/6 15/1/6
f 5/1/7 11/1/8 4/1/8
f 4/1/8 23/1/9 12/1/9
f 9/1/10 20/1/5 8/1/5
f 15/1/6 27/1/11 16/1/11
f 6/1/2 17/1/7 5/1/7
f 12/1/9 24/1/3 13/1/3
f 16/1/11 22/1/12 10/1/12
f 10/1/12 21/1/10 9/1/10
f 33/1/4 44/1/6 32/1/6
f 39/1/5 51/1/1 40/1/1
f 34/1/3 45/1/4 33/1/4
f 40/1/1 52/1/2 41/1/2
f 31/1/11 37/1/12 30/1/12
f 30/1/12 49/1/10 38/1/10
f 35/1/9 46/1/3 34/1/3
f 41/1/2 53/1/7 42/1/7
f 32/1/6 43/1/11 31/1/11
f 38/1/10 50/1/5 39/1/5
f 42/1/7 48/1/8 36/1/8
f 36/1/8 47/1/9 35/1/9
f 54/1/13 55/1/14 56/1/15
f 57/1/16 58/1/17 59/1/18
f 60/1/19 61/1/20 62/1/21
f 125/1/22 126/1/23 127/1/24
f 128/1/25 129/1/26 130/1/27
f 131/1/28 132/1/29 133/1/30
f 54/1/13 57/1/16 55/1/14
f 58/1/17 60/1/19 59/1/18
f 61/1/20 64/1/31 62/1/21
f 63/1/32 66/1/33 64/1/31
f 65/1/20 68/1/34 66/1/33
f 72/1/35 70/1/36 71/1/36
f 74/1/37 71/1/36 73/1/36
f 76/1/38 73/1/36 75/1/39
f 78/1/40 75/1/39 77/1/41
f 80/1/42 77/1/41 79/1/41
f 82/1/43 79/1/41 81/1/44
f 59/1/18 81/1/44 57/1/16
f 69/1/45 55/1/14 70/1/36
f 83/1/16 86/1/46 84/1/47
f 85/1/16 88/1/48 86/1/46
f 87/1/16 90/1/49 88/1/48
f 89/1/16 92/1/50 90/1/49
f 91/1/16 94/1/51 92/1/50
f 93/1/52 96/1/53 94/1/51
f 95/1/54 98/1/55 96/1/53
f 97/1/54 100/1/56 98/1/55
f 99/1/57 101/1/58 100/1/56
f 104/1/59 106/1/60 103/1/60
f 108/1/61 110/1/36 107/1/36
f 105/1/62 112/1/41 106/1/60
f 109/1/63 114/1/39 110/1/36
f 115/1/64 118/1/36 116/1/60
f 111/1/65 120/1/41 112/1/41
f 113/1/66 103/1/60 114/1/39
f 117/1/67 107/1/36 118/1/36
f 119/1/68 121/1/39 120/1/41
f 124/1/69 62/1/21 123/1/70
f 125/1/22 130/1/27 126/1/23
f 129/1/26 133/1/30 130/1/27
f 132/1/29 135/1/17 133/1/30
f 134/1/71 137/1/17 135/1/17
f 136/1/72 67/1/73 137/1/17
f 141/1/74 139/1/75 140/1/76
f 143/1/74 140/1/76 142/1/77
f 145/1/78 142/1/77 144/1/79
f 147/1/80 144/1/79 146/1/81
f 149/1/80 146/1/81 148/1/82
f 151/1/80 148/1/82 150/1/83
f 126/1/23 56/1/15 127/1/24
f 128/1/25 150/1/83 129/1/26
f 138/1/84 127/1/24 139/1/75
f 152/1/85 155/1/86 153/1/87
f 154/1/88 157/1/86 155/1/86
f 156/1/89 159/1/86 157/1/86
f 158/1/90 161/1/87 159/1/86
f 160/1/91 163/1/92 161/1/87
f 162/1/93 165/1/87 163/1/92
f 164/1/94 167/1/22 165/1/87
f 166/1/95 169/1/22 167/1/22
f 168/1/96 170/1/87 169/1/22
f 173/1/80 175/1/97 172/1/98
f 177/1/78 179/1/99 176/1/100
f 174/1/80 181/1/101 175/1/97
f 178/1/78 183/1/102 179/1/99
f 184/1/74 187/1/103 185/1/104
f 180/1/78 189/1/105 181/1/101
f 182/1/106 172/1/98 183/1/102
f 186/1/78 176/1/100 187/1/103
f 188/1/78 190/1/107 189/1/105
f 193/1/108 131/1/28 192/1/109
f 123/1/70 192/1/109 124/1/69
f 55/1/110 81/1/110 70/1/110
f 127/1/8 69/1/111 139/1/111
f 54/1/4 126/1/4 65/1/4
f 59/1/112 124/1/113 82/1/114
f 62/1/115 1/1/116 123/1/117
f 64/1/118 2/1/119 1/1/116
f 66/1/120 3/1/121 2/1/119
f 136/1/122 3/1/121 68/1/123
f 81/1/110 77/1/110 73/1/110
f 139/1/111 72/1/7 140/1/7
f 140/1/7 74/1/2 142/1/2
f 142/1/2 76/1/1 144/1/1
f 144/1/1 78/1/5 146/1/5
f 146/1/5 80/1/10 148/1/10
f 80/1/10 124/1/113 192/1/124
f 152/1/125 86/1/126 154/1/126
f 85/1/110 116/1/110 118/1/110
f 154/1/126 88/1/127 156/1/127
f 87/1/110 118/1/110 107/1/110
f 156/1/127 90/1/128 158/1/128
f 89/1/110 107/1/110 110/1/110
f 158/1/128 92/1/129 160/1/129
f 91/1/110 110/1/110 114/1/110
f 160/1/129 94/1/130 162/1/130
f 93/1/110 114/1/110 103/1/110
f 162/1/130 96/1/131 164/1/132
f 95/1/110 103/1/110 106/1/110
f 164/1/132 98/1/133 166/1/133
f 97/1/110 106/1/110 112/1/110
f 166/1/133 100/1/134 168/1/134
f 99/1/110 112/1/110 120/1/110
f 168/1/134 101/1/135 171/1/136
f 102/1/137 120/1/110 121/1/138
f 191/1/139 171/1/136 102/1/137
f 183/1/140 104/1/141 113/1/140
f 172/1/141 105/1/142 104/1/141
f 175/1/143 111/1/144 105/1/142
f 187/1/145 108/1/146 117/1/145
f 176/1/146 109/1/147 108/1/146
f 179/1/147 113/1/140 109/1/147
f 181/1/144 119/1/148 111/1/144
f 185/1/149 117/1/145 115/1/149
f 189/1/148 122/1/150 119/1/148
f 29/1/151 193/1/152 1/1/116
f 125/1/153 151/1/153 128/1/153
f 129/1/154 192/1/124 131/1/154
f 132/1/29 28/1/155 134/1/156
f 134/1/156 29/1/151 136/1/122
f 141/1/153 145/1/153 149/1/153
f 155/1/153 184/1/153 153/1/153
f 157/1/153 186/1/153 155/1/153
f 159/1/153 177/1/153 157/1/153
f 161/1/153 178/1/153 159/1/153
f 163/1/153 182/1/153 161/1/153
f 165/1/153 173/1/153 163/1/153
f 167/1/153 174/1/153 165/1/153
f 169/1/153 180/1/153 167/1/153
f 170/1/157 188/1/153 169/1/153
f 126/1/4 130/1/4 133/1/4
f 126/1/4 133/1/4 135/1/4
f 61/1/4 58/1/4 54/1/4
f 63/1/4 61/1/4 54/1/4
f 126/1/4 135/1/4 137/1/4
f 126/1/4 137/1/4 67/1/4
f 65/1/4 63/1/4 54/1/4
f 126/1/4 67/1/4 65/1/4
f 71/1/110 70/1/110 81/1/110
f 81/1/110 79/1/110 77/1/110
f 77/1/110 75/1/110 73/1/110
f 73/1/110 71/1/110 81/1/110
f 150/1/158 148/1/10 80/1/10
f 80/1/10 82/1/114 124/1/113
f 192/1/124 150/1/158 80/1/10
f 102/1/137 121/1/138 122/1/150
f 122/1/150 190/1/150 191/1/139
f 191/1/139 170/1/157 171/1/136
f 171/1/136 101/1/135 102/1/137
f 102/1/137 122/1/150 191/1/139
f 2/1/119 3/1/121 29/1/151
f 29/1/151 28/1/155 193/1/152
f 193/1/152 123/1/117 1/1/116
f 1/1/116 2/1/119 29/1/151
f 151/1/153 138/1/153 141/1/153
f 141/1/153 143/1/153 145/1/153
f 145/1/153 147/1/153 149/1/153
f 149/1/153 151/1/153 141/1/153
f 7/1/1 19/1/1 18/1/2
f 13/1/3 24/1/3 25/1/4
f 8/1/5 20/1/5 19/1/1
f 14/1/4 25/1/4 26/1/6
f 5/1/7 17/1/7 11/1/8
f 4/1/8 11/1/8 23/1/9
f 9/1/10 21/1/10 20/1/5
f 15/1/6 26/1/6 27/1/11
f 6/1/2 18/1/2 17/1/7
f 12/1/9 23/1/9 24/1/3
f 16/1/11 27/1/11 22/1/12
f 10/1/12 22/1/12 21/1/10
f 33/1/4 45/1/4 44/1/6
f 39/1/5 50/1/5 51/1/1
f 34/1/3 46/1/3 45/1/4
f 40/1/1 51/1/1 52/1/2
f 31/1/11 43/1/11 37/1/12
f 30/1/12 37/1/12 49/1/10
f 35/1/9 47/1/9 46/1/3
f 41/1/2 52/1/2 53/1/7
f 32/1/6 44/1/6 43/1/11
f 38/1/10 49/1/10 50/1/5
f 42/1/7 53/1/7 48/1/8
f 36/1/8 48/1/8 47/1/9
f 54/1/13 58/1/17 57/1/16
f 58/1/17 61/1/20 60/1/19
f 61/1/20 63/1/32 64/1/31
f 63/1/32 65/1/20 66/1/33
f 65/1/20 67/1/73 68/1/34
f 72/1/35 69/1/45 70/1/36
f 74/1/37 72/1/35 71/1/36
f 76/1/38 74/1/37 73/1/36
f 78/1/40 76/1/38 75/1/39
f 80/1/42 78/1/40 77/1/41
f 82/1/43 80/1/42 79/1/41
f 59/1/18 82/1/43 81/1/44
f 69/1/45 56/1/15 55/1/14
f 83/1/16 85/1/16 86/1/46
f 85/1/16 87/1/16 88/1/48
f 87/1/16 89/1/16 90/1/49
f 89/1/16 91/1/16 92/1/50
f 91/1/16 93/1/52 94/1/51
f 93/1/52 95/1/54 96/1/53
f 95/1/54 97/1/54 98/1/55
f 97/1/54 99/1/57 100/1/56
f 99/1/57 102/1/54 101/1/58
f 104/1/59 105/1/62 106/1/60
f 108/1/61 109/1/63 110/1/36
f 105/1/62 111/1/65 112/1/41
f 109/1/63 113/1/66 114/1/39
f 115/1/64 117/1/67 118/1/36
f 111/1/65 119/1/68 120/1/41
f 113/1/66 104/1/59 103/1/60
f 117/1/67 108/1/61 107/1/36
f 119/1/68 122/1/159 121/1/39
f 124/1/69 60/1/19 62/1/21
f 125/1/22 128/1/25 130/1/27
f 129/1/26 131/1/28 133/1/30
f 132/1/29 134/1/71 135/1/17
f 134/1/71 136/1/72 137/1/17
f 136/1/72 68/1/34 67/1/73
f 141/1/74 138/1/84 139/1/75
f 143/1/74 141/1/74 140/1/76
f 145/1/78 143/1/74 142/1/77
f 147/1/80 145/1/78 144/1/79
f 149/1/80 147/1/80 146/1/81
f 151/1/80 149/1/80 148/1/82
f 126/1/23 54/1/13 56/1/15
f 128/1/25 151/1/80 150/1/83
f 138/1/84 125/1/22 127/1/24
f 152/1/85 154/1/88 155/1/86
f 154/1/88 156/1/89 157/1/86
f 156/1/89 158/1/90 159/1/86
f 158/1/90 160/1/91 161/1/87
f 160/1/91 162/1/93 163/1/92
f 162/1/93 164/1/94 165/1/87
f 164/1/94 166/1/95 167/1/22
f 166/1/95 168/1/96 169/1/22
f 168/1/96 171/1/160 170/1/87
f 173/1/80 174/1/80 175/1/97
f 177/1/78 178/1/78 179/1/99
f 174/1/80 180/1/78 181/1/101
f 178/1/78 182/1/106 183/1/102
f 184/1/74 186/1/78 187/1/103
f 180/1/78 188/1/78 189/1/105
f 182/1/106 173/1/80 172/1/98
f 186/1/78 177/1/78 176/1/100
f 188/1/78 191/1/106 190/1/107
f 193/1/108 132/1/29 131/1/28
f 123/1/70 193/1/108 192/1/109
f 55/1/110 57/1/110 81/1/110
f 127/1/8 56/1/8 69/1/111
f 59/1/112 60/1/161 124/1/113
f 62/1/115 64/1/118 1/1/116
f 64/1/118 66/1/120 2/1/119
f 66/1/120 68/1/123 3/1/121
f 136/1/122 29/1/151 3/1/121
f 139/1/111 69/1/111 72/1/7
f 140/1/7 72/1/7 74/1/2
f 142/1/2 74/1/2 76/1/1
f 144/1/1 76/1/1 78/1/5
f 146/1/5 78/1/5 80/1/10
f 152/1/125 84/1/125 86/1/126
f 85/1/110 83/1/110 116/1/110
f 154/1/126 86/1/126 88/1/127
f 87/1/110 85/1/110 118/1/110
f 156/1/127 88/1/127 90/1/128
f 89/1/110 87/1/110 107/1/110
f 158/1/128 90/1/128 92/1/129
f 91/1/110 89/1/110 110/1/110
f 160/1/129 92/1/129 94/1/130
f 93/1/110 91/1/110 114/1/110
f 162/1/130 94/1/130 96/1/131
f 95/1/110 93/1/110 103/1/110
f 164/1/132 96/1/131 98/1/133
f 97/1/110 95/1/110 106/1/110
f 166/1/133 98/1/133 100/1/134
f 99/1/110 97/1/110 112/1/110
f 168/1/134 100/1/134 101/1/135
f 102/1/137 99/1/110 120/1/110
f 183/1/140 172/1/141 104/1/141
f 172/1/141 175/1/143 105/1/142
f 175/1/143 181/1/144 111/1/144
f 187/1/145 176/1/146 108/1/146
f 176/1/146 179/1/147 109/1/147
f 179/1/147 183/1/140 113/1/140
f 181/1/144 189/1/148 119/1/148
f 185/1/149 187/1/145 117/1/145
f 189/1/148 190/1/150 122/1/150
f 125/1/153 138/1/153 151/1/153
f 129/1/154 150/1/158 192/1/124
f 132/1/29 193/1/152 28/1/155
f 134/1/156 28/1/155 29/1/151
f 155/1/153 186/1/153 184/1/153
f 157/1/153 177/1/153 186/1/153
f 159/1/153 178/1/153 177/1/153
f 161/1/153 182/1/153 178/1/153
f 163/1/153 173/1/153 182/1/153
f 165/1/153 174/1/153 173/1/153
f 167/1/153 180/1/153 174/1/153
f 169/1/153 188/1/153 180/1/153
f 170/1/157 191/1/139 188/1/153
