# Blender 5.0.1
# www.blender.org
o Exporting_sf.149
o Doors_Back_Limiter1_T2
v -0.006035 0.009394 -0.004466
v -0.006035 0.005860 -0.008533
v -0.006035 0.000766 -0.010287
v -0.006035 -0.004522 -0.009259
v -0.006035 -0.008587 -0.005723
v -0.006035 -0.010341 -0.000628
v -0.006035 -0.009313 0.004661
v -0.006035 -0.005779 0.008728
v -0.006035 -0.000686 0.010483
v -0.006035 0.004602 0.009454
v -0.006035 0.008668 0.005919
v -0.006035 0.010422 0.000824
v 0.006035 0.009394 -0.004466
v 0.006035 0.005860 -0.008533
v 0.006035 0.000766 -0.010287
v 0.006035 -0.004522 -0.009259
v 0.006035 -0.008587 -0.005723
v 0.006035 -0.010341 -0.000628
v 0.006035 -0.009313 0.004661
v 0.006035 -0.005779 0.008728
v 0.006035 -0.000686 0.010483
v 0.006035 0.004602 0.009454
v 0.006035 0.008668 0.005919
v 0.006035 0.010422 0.000824
v 0.012988 0.004129 -0.000803
v 0.012988 0.002352 -0.003488
v 0.012988 -0.000804 -0.004130
v 0.012988 -0.003488 -0.002352
v 0.012988 -0.004130 0.000803
v 0.012988 -0.002353 0.003488
v 0.012988 0.000803 0.004130
v 0.012988 0.003488 0.002352
v -0.009345 0.002352 -0.003488
v -0.009345 0.004129 -0.000803
v -0.009345 -0.000804 -0.004130
v -0.009345 -0.003488 -0.002352
v -0.009345 -0.004130 0.000803
v -0.009345 -0.002353 0.003488
v -0.009345 0.000803 0.004130
v -0.009345 0.003488 0.002352
v -0.001998 -0.006379 0.026430
v -0.001498 -0.005936 0.026742
v -0.002090 0.006912 0.006606
v -0.001590 0.007416 0.006823
v -0.001998 -0.017144 0.035408
v -0.001498 -0.016829 0.035832
v -0.001998 -0.029756 0.040716
v -0.001498 -0.029558 0.041197
v -0.001998 -0.042257 0.041829
v -0.001498 -0.042158 0.042325
v -0.001998 -0.055108 0.039747
v -0.001498 -0.055111 0.040234
v -0.001998 -0.068155 0.035275
v -0.001498 -0.068156 0.035767
v -0.001998 -0.085380 0.030988
v -0.001498 -0.085380 0.031483
v -0.001998 -0.104358 0.029451
v -0.001497 -0.104358 0.029948
v -0.001998 -0.123980 0.029756
v -0.001497 -0.124020 0.030254
v -0.001998 -0.131984 0.028884
v -0.001497 -0.132025 0.029382
v -0.001498 -0.020769 0.016259
v -0.001998 -0.020308 0.016584
v -0.001590 -0.006316 0.000912
v -0.002090 -0.005772 0.001146
v -0.001498 -0.027675 0.021234
v -0.001998 -0.027353 0.021666
v -0.001498 -0.036455 0.024455
v -0.001998 -0.036254 0.024942
v -0.001498 -0.045709 0.024529
v -0.001998 -0.045610 0.025026
v -0.001498 -0.055008 0.022057
v -0.001998 -0.055011 0.022536
v -0.001498 -0.068095 0.018158
v -0.001998 -0.068097 0.018644
v -0.001497 -0.085380 0.014857
v -0.001998 -0.085380 0.015347
v -0.001497 -0.104358 0.013562
v -0.001998 -0.104358 0.014055
v -0.001497 -0.122656 0.013490
v -0.001998 -0.122696 0.013985
v -0.001496 -0.130660 0.012619
v -0.001998 -0.130700 0.013115
v -0.003487 -0.144791 0.026870
v -0.002985 -0.144867 0.027364
v -0.002985 -0.142307 0.010857
v -0.003487 -0.142384 0.011348
v -0.005723 -0.156235 0.024151
v -0.005221 -0.156353 0.024635
v -0.005220 -0.152401 0.008487
v -0.005723 -0.152519 0.008969
v -0.005221 -0.173303 0.017463
v -0.005723 -0.173125 0.017003
v -0.005723 -0.167553 0.002610
v -0.005220 -0.167376 0.002152
v 0.002290 -0.005936 0.026742
v 0.002790 -0.006379 0.026430
v 0.002381 0.007416 0.006823
v 0.002882 0.006912 0.006606
v 0.002289 -0.016829 0.035832
v 0.002790 -0.017144 0.035408
v 0.002289 -0.029558 0.041197
v 0.002790 -0.029756 0.040716
v 0.002289 -0.042158 0.042325
v 0.002790 -0.042257 0.041829
v 0.002289 -0.055111 0.040234
v 0.002790 -0.055108 0.039747
v 0.002289 -0.068156 0.035767
v 0.002790 -0.068155 0.035275
v 0.002288 -0.085380 0.031483
v 0.002790 -0.085380 0.030988
v 0.002288 -0.104358 0.029948
v 0.002790 -0.104358 0.029451
v 0.002287 -0.124020 0.030254
v 0.002790 -0.123980 0.029756
v 0.002286 -0.132025 0.029382
v 0.002790 -0.131984 0.028884
v 0.002790 -0.020308 0.016584
v 0.002289 -0.020769 0.016259
v 0.002882 -0.005772 0.001146
v 0.002381 -0.006316 0.000912
v 0.002790 -0.027353 0.021666
v 0.002289 -0.027675 0.021234
v 0.002790 -0.036254 0.024942
v 0.002289 -0.036455 0.024455
v 0.002790 -0.045610 0.025026
v 0.002289 -0.045709 0.024529
v 0.002790 -0.055011 0.022536
v 0.002289 -0.055008 0.022057
v 0.002790 -0.068097 0.018644
v 0.002288 -0.068095 0.018158
v 0.002790 -0.085380 0.015347
v 0.002288 -0.085380 0.014857
v 0.002790 -0.104358 0.014054
v 0.002287 -0.104358 0.013562
v 0.002790 -0.122696 0.013985
v 0.002286 -0.122656 0.013490
v 0.002790 -0.130700 0.013115
v 0.002285 -0.130660 0.012619
v 0.004891 -0.144867 0.027364
v 0.005396 -0.144791 0.026870
v 0.005396 -0.142383 0.011348
v 0.004890 -0.142307 0.010857
v 0.008243 -0.156353 0.024635
v 0.008748 -0.156235 0.024151
v 0.008748 -0.152519 0.008969
v 0.008242 -0.152401 0.008487
v 0.008748 -0.173125 0.017003
v 0.008243 -0.173303 0.017463
v 0.008242 -0.167376 0.002152
v 0.008748 -0.167553 0.002610
vn -0.0000 0.4385 0.8987
vn -0.0000 -0.0698 0.9976
vn -0.0000 -0.8988 0.4383
vn -0.0000 -0.9976 -0.0697
vn -0.0000 -0.4385 -0.8987
vn -0.0000 0.0698 -0.9976
vn -0.0000 0.8291 0.5591
vn -0.0000 -0.5593 0.8290
vn -0.0000 -0.8291 -0.5591
vn -0.0000 0.9976 0.0697
vn -0.0000 0.8988 -0.4383
vn -0.0000 0.5593 -0.8290
vn -1.0000 -0.0000 -0.0000
vn 1.0000 -0.0000 -0.0000
vn -0.0000 -0.9816 0.1909
vn -0.0000 0.1909 0.9816
vn -0.0000 0.9816 -0.1909
vn -0.0000 0.5591 -0.8291
vn -0.0000 -0.5591 0.8291
vn -0.0000 -0.1909 -0.9816
vn 0.0135 0.7431 0.6690
vn -1.0000 -0.0012 0.0041
vn -1.0000 -0.0029 0.0001
vn 0.0146 0.5201 0.8540
vn -1.0000 -0.0017 -0.0025
vn 0.0154 0.2415 0.9703
vn -1.0000 -0.0009 -0.0029
vn 0.0101 -0.0356 0.9993
vn -1.0000 -0.0001 -0.0024
vn 0.0048 -0.2427 0.9701
vn -1.0000 0.0004 -0.0021
vn -0.0007 -0.2829 0.9591
vn -1.0000 -0.0001 0.0003
vn 0.0012 -0.1616 0.9869
vn -1.0000 -0.0002 0.0016
vn -0.0012 -0.0325 0.9995
vn -1.0000 -0.0000 -0.0002
vn -1.0000 0.0002 -0.0031
vn 0.0019 -0.0464 0.9989
vn -0.0016 -0.1316 0.9913
vn -0.9982 0.0596 0.0048
vn -1.0000 -0.0028 -0.0003
vn 0.0009 -0.7280 -0.6856
vn 0.0034 -0.6592 -0.7519
vn -1.0000 -0.0015 -0.0033
vn 0.0062 -0.4686 -0.8834
vn -1.0000 -0.0004 -0.0039
vn 0.0112 -0.1782 -0.9839
vn -1.0000 0.0005 -0.0018
vn 0.0075 0.1261 -0.9920
vn -1.0000 -0.0002 0.0010
vn -0.0006 0.2713 -0.9625
vn -1.0000 -0.0005 0.0021
vn 0.0020 0.2368 -0.9716
vn -1.0000 -0.0003 0.0020
vn 0.0031 0.1280 -0.9918
vn -1.0000 -0.0001 0.0019
vn 0.0004 0.0360 -0.9994
vn -0.0012 0.0562 -0.9984
vn -1.0000 -0.0000 0.0002
vn -0.9982 0.0599 0.0037
vn 0.0015 0.1288 -0.9917
vn -0.0000 0.1895 -0.9819
vn -0.0000 -0.1930 0.9812
vn -0.9873 0.1571 0.0243
vn 0.0022 0.3108 -0.9505
vn -0.9873 0.1568 0.0238
vn 0.0098 -0.3116 0.9501
vn -0.9951 0.0985 0.0128
vn -0.0001 -0.3898 0.9209
vn -1.0000 0.0001 -0.0003
vn -1.0000 -0.0002 0.0003
vn -0.9950 0.0963 0.0272
vn 1.0000 -0.0012 0.0041
vn -0.0135 0.7431 0.6690
vn 1.0000 -0.0030 0.0002
vn -0.0146 0.5201 0.8540
vn 1.0000 -0.0017 -0.0025
vn -0.0154 0.2415 0.9703
vn 1.0000 -0.0010 -0.0029
vn -0.0101 -0.0355 0.9993
vn 1.0000 -0.0001 -0.0024
vn -0.0047 -0.2427 0.9701
vn 1.0000 0.0004 -0.0022
vn 0.0007 -0.2830 0.9591
vn 1.0000 -0.0001 0.0002
vn -0.0011 -0.1615 0.9869
vn 1.0000 -0.0002 0.0016
vn 0.0012 -0.0326 0.9995
vn 1.0000 -0.0000 -0.0002
vn 1.0000 0.0001 -0.0031
vn -0.0019 -0.0464 0.9989
vn 0.0035 -0.1314 0.9913
vn 0.9946 0.1035 0.0065
vn -0.0009 -0.7280 -0.6856
vn 1.0000 -0.0028 -0.0002
vn -0.0034 -0.6592 -0.7520
vn 1.0000 -0.0016 -0.0033
vn -0.0061 -0.4685 -0.8834
vn 1.0000 -0.0004 -0.0039
vn -0.0112 -0.1782 -0.9839
vn 1.0000 0.0005 -0.0018
vn -0.0075 0.1262 -0.9920
vn 1.0000 -0.0002 0.0010
vn 0.0006 0.2713 -0.9625
vn 1.0000 -0.0005 0.0021
vn -0.0019 0.2368 -0.9715
vn 1.0000 -0.0003 0.0021
vn -0.0030 0.1280 -0.9918
vn 1.0000 -0.0001 0.0019
vn -0.0003 0.0361 -0.9993
vn 0.0012 0.0562 -0.9984
vn 1.0000 -0.0001 0.0003
vn 0.9946 0.1034 0.0090
vn -0.0025 0.1287 -0.9917
vn -0.0004 0.1896 -0.9819
vn -0.0001 -0.1929 0.9812
vn 0.9687 0.2454 0.0379
vn 0.9688 0.2448 0.0374
vn -0.0035 0.3111 -0.9504
vn -0.0115 -0.3121 0.9500
vn 0.9893 0.1448 0.0167
vn 0.0002 -0.3898 0.9209
vn 1.0000 0.0002 -0.0003
vn 1.0000 -0.0001 0.0005
vn 0.9890 0.1417 0.0434
vn -0.0000 0.8306 0.5568
vn -0.0000 0.7433 0.6689
vn -1.0000 -0.0012 0.0019
vn -1.0000 -0.0019 0.0036
vn -1.0000 -0.0011 0.0015
vn -0.0000 0.5202 0.8540
vn -0.0000 0.5203 0.8540
vn -0.0000 0.2417 0.9704
vn -0.0000 -0.0354 0.9994
vn -0.0000 -0.2426 0.9701
vn -0.0000 -0.2829 0.9591
vn -0.0000 -0.1615 0.9869
vn -0.0000 -0.0326 0.9995
vn -0.0000 -0.0464 0.9989
vn -0.0000 -0.1332 0.9911
vn -0.9985 0.0552 0.0045
vn -0.9981 0.0616 0.0076
vn -0.9884 0.1507 0.0208
vn -0.0000 -0.1969 0.9804
vn -0.0000 -0.1989 0.9800
vn -0.0000 -0.6593 -0.7518
vn -0.0000 -0.7280 -0.6856
vn -0.0000 -0.4688 -0.8833
vn -0.0000 -0.1788 -0.9839
vn -0.0000 0.1256 -0.9921
vn -0.0000 0.2713 -0.9625
vn -0.0000 0.2368 -0.9715
vn -0.0000 0.1281 -0.9918
vn -0.0000 0.0360 -0.9994
vn -0.0000 0.0561 -0.9984
vn -0.0000 0.1303 -0.9915
vn -0.0000 0.1934 -0.9811
vn -0.0000 0.1957 -0.9807
vn -0.9865 0.1608 0.0304
vn -0.9946 0.1016 0.0194
vn -0.0000 -0.3165 0.9486
vn -0.0000 -0.3192 0.9477
vn -0.0000 0.3161 -0.9487
vn -0.0000 0.3191 -0.9477
vn -0.9949 0.0979 0.0240
vn -0.0000 -0.3897 0.9209
vn -0.0000 0.3896 -0.9210
vn 1.0000 -0.0011 0.0015
vn 1.0000 -0.0012 0.0019
vn 1.0000 -0.0019 0.0036
vn 1.0000 -0.0015 0.0036
vn 0.9954 0.0958 0.0078
vn 0.9710 0.2369 0.0324
vn 0.9942 0.1065 0.0132
vn 0.9883 0.1498 0.0287
vn 0.9669 0.2508 0.0468
vn 0.9890 0.1438 0.0352
vn 0.0013 0.8306 0.5568
vn -1.0000 -0.0026 0.0030
vn -0.0002 0.3897 -0.9210
vn -0.0013 0.8307 0.5567
vn 1.0000 -0.0026 0.0030
vn 0.0003 0.3896 -0.9210
vn -1.0000 -0.0015 0.0036
vn -0.0000 -0.1326 0.9912
vn -0.0000 0.1297 -0.9915
vt 0.000000 0.000000
s 1
f 10/1/1 21/1/2 22/1/1
f 7/1/3 18/1/4 19/1/3
f 4/1/5 15/1/6 16/1/5
f 11/1/7 22/1/1 23/1/7
f 8/1/8 19/1/3 20/1/8
f 5/1/9 16/1/5 17/1/9
f 12/1/10 23/1/7 24/1/10
f 9/1/2 20/1/8 21/1/2
f 6/1/4 17/1/9 18/1/4
f 1/1/11 24/1/10 13/1/11
f 3/1/6 14/1/12 15/1/6
f 5/1/13 9/1/13 1/1/13
f 14/1/12 1/1/11 13/1/11
f 23/1/14 19/1/14 15/1/14
f 29/1/15 36/1/9 28/1/9
f 32/1/7 39/1/16 31/1/16
f 25/1/17 33/1/18 34/1/17
f 30/1/19 37/1/15 29/1/15
f 32/1/7 34/1/17 40/1/7
f 27/1/20 33/1/18 26/1/18
f 31/1/16 38/1/19 30/1/19
f 27/1/20 36/1/9 35/1/20
f 42/1/21 43/1/22 41/1/23
f 46/1/24 41/1/23 45/1/25
f 48/1/26 45/1/25 47/1/27
f 50/1/28 47/1/27 49/1/29
f 52/1/30 49/1/29 51/1/31
f 54/1/32 51/1/31 53/1/33
f 56/1/34 53/1/33 55/1/35
f 58/1/36 55/1/35 57/1/37
f 58/1/36 59/1/38 60/1/39
f 62/1/40 59/1/38 61/1/41
f 64/1/42 65/1/43 63/1/44
f 68/1/45 63/1/44 67/1/46
f 70/1/47 67/1/46 69/1/48
f 72/1/49 69/1/48 71/1/50
f 74/1/51 71/1/50 73/1/52
f 76/1/53 73/1/52 75/1/54
f 78/1/55 75/1/54 77/1/56
f 80/1/57 77/1/56 79/1/58
f 80/1/57 81/1/59 82/1/60
f 84/1/61 81/1/59 83/1/62
f 87/1/63 84/1/61 83/1/62
f 86/1/64 61/1/41 85/1/65
f 91/1/66 88/1/67 87/1/63
f 90/1/68 85/1/65 89/1/69
f 93/1/70 89/1/69 94/1/71
f 91/1/66 95/1/72 92/1/73
f 100/1/74 97/1/75 98/1/76
f 98/1/76 101/1/77 102/1/78
f 102/1/78 103/1/79 104/1/80
f 104/1/80 105/1/81 106/1/82
f 106/1/82 107/1/83 108/1/84
f 108/1/84 109/1/85 110/1/86
f 110/1/86 111/1/87 112/1/88
f 112/1/88 113/1/89 114/1/90
f 116/1/91 113/1/89 115/1/92
f 116/1/91 117/1/93 118/1/94
f 122/1/95 119/1/96 120/1/97
f 120/1/97 123/1/98 124/1/99
f 124/1/99 125/1/100 126/1/101
f 126/1/101 127/1/102 128/1/103
f 128/1/103 129/1/104 130/1/105
f 130/1/105 131/1/106 132/1/107
f 132/1/107 133/1/108 134/1/109
f 134/1/109 135/1/110 136/1/111
f 138/1/112 135/1/110 137/1/113
f 138/1/112 139/1/114 140/1/115
f 139/1/114 144/1/116 140/1/115
f 118/1/94 141/1/117 142/1/118
f 143/1/119 148/1/120 144/1/116
f 142/1/118 145/1/121 146/1/122
f 146/1/122 150/1/123 149/1/124
f 152/1/125 148/1/120 147/1/126
f 44/1/127 97/1/128 99/1/127
f 41/1/129 66/1/130 64/1/131
f 42/1/128 101/1/132 97/1/128
f 45/1/13 64/1/131 68/1/13
f 46/1/133 103/1/134 101/1/132
f 47/1/13 68/1/13 70/1/13
f 48/1/134 105/1/135 103/1/134
f 49/1/13 70/1/13 72/1/13
f 50/1/135 107/1/136 105/1/135
f 51/1/13 72/1/13 74/1/13
f 52/1/136 109/1/137 107/1/136
f 53/1/13 74/1/13 76/1/13
f 54/1/137 111/1/138 109/1/137
f 55/1/13 76/1/13 78/1/13
f 56/1/138 113/1/139 111/1/138
f 57/1/13 78/1/13 80/1/13
f 58/1/139 115/1/140 113/1/139
f 57/1/13 82/1/13 59/1/13
f 60/1/140 117/1/141 115/1/140
f 61/1/142 82/1/13 84/1/143
f 84/1/143 85/1/144 61/1/142
f 117/1/141 86/1/145 141/1/146
f 63/1/147 122/1/148 120/1/147
f 124/1/149 63/1/147 120/1/147
f 126/1/150 67/1/149 124/1/149
f 128/1/151 69/1/150 126/1/150
f 130/1/152 71/1/151 128/1/151
f 132/1/153 73/1/152 130/1/152
f 134/1/154 75/1/153 132/1/153
f 136/1/155 77/1/154 134/1/154
f 138/1/156 79/1/155 136/1/155
f 140/1/157 81/1/156 138/1/156
f 87/1/158 140/1/157 144/1/159
f 88/1/160 89/1/161 85/1/144
f 141/1/146 90/1/162 145/1/163
f 91/1/164 144/1/159 148/1/165
f 92/1/166 94/1/13 89/1/161
f 145/1/163 93/1/167 150/1/167
f 96/1/168 148/1/165 151/1/168
f 102/1/14 119/1/169 98/1/170
f 98/1/170 121/1/171 100/1/172
f 104/1/14 123/1/14 102/1/14
f 106/1/14 125/1/14 104/1/14
f 108/1/14 127/1/14 106/1/14
f 110/1/14 129/1/14 108/1/14
f 112/1/14 131/1/14 110/1/14
f 114/1/14 133/1/14 112/1/14
f 137/1/14 114/1/14 116/1/14
f 118/1/173 137/1/14 116/1/14
f 142/1/174 139/1/175 118/1/173
f 146/1/176 143/1/177 142/1/174
f 149/1/14 147/1/178 146/1/176
f 1/1/13 2/1/13 3/1/13
f 3/1/13 4/1/13 5/1/13
f 5/1/13 6/1/13 7/1/13
f 7/1/13 8/1/13 9/1/13
f 9/1/13 10/1/13 11/1/13
f 11/1/13 12/1/13 1/1/13
f 1/1/13 3/1/13 5/1/13
f 5/1/13 7/1/13 9/1/13
f 9/1/13 11/1/13 1/1/13
f 15/1/14 14/1/14 13/1/14
f 13/1/14 24/1/14 23/1/14
f 23/1/14 22/1/14 21/1/14
f 21/1/14 20/1/14 19/1/14
f 19/1/14 18/1/14 17/1/14
f 17/1/14 16/1/14 15/1/14
f 15/1/14 13/1/14 23/1/14
f 23/1/14 21/1/14 19/1/14
f 19/1/14 17/1/14 15/1/14
f 10/1/1 9/1/2 21/1/2
f 7/1/3 6/1/4 18/1/4
f 4/1/5 3/1/6 15/1/6
f 11/1/7 10/1/1 22/1/1
f 8/1/8 7/1/3 19/1/3
f 5/1/9 4/1/5 16/1/5
f 12/1/10 11/1/7 23/1/7
f 9/1/2 8/1/8 20/1/8
f 6/1/4 5/1/9 17/1/9
f 1/1/11 12/1/10 24/1/10
f 3/1/6 2/1/12 14/1/12
f 14/1/12 2/1/12 1/1/11
f 29/1/15 37/1/15 36/1/9
f 32/1/7 40/1/7 39/1/16
f 25/1/17 26/1/18 33/1/18
f 30/1/19 38/1/19 37/1/15
f 32/1/7 25/1/17 34/1/17
f 27/1/20 35/1/20 33/1/18
f 31/1/16 39/1/16 38/1/19
f 27/1/20 28/1/9 36/1/9
f 42/1/21 44/1/179 43/1/22
f 46/1/24 42/1/21 41/1/23
f 48/1/26 46/1/24 45/1/25
f 50/1/28 48/1/26 47/1/27
f 52/1/30 50/1/28 49/1/29
f 54/1/32 52/1/30 51/1/31
f 56/1/34 54/1/32 53/1/33
f 58/1/36 56/1/34 55/1/35
f 58/1/36 57/1/37 59/1/38
f 62/1/40 60/1/39 59/1/38
f 64/1/42 66/1/180 65/1/43
f 68/1/45 64/1/42 63/1/44
f 70/1/47 68/1/45 67/1/46
f 72/1/49 70/1/47 69/1/48
f 74/1/51 72/1/49 71/1/50
f 76/1/53 74/1/51 73/1/52
f 78/1/55 76/1/53 75/1/54
f 80/1/57 78/1/55 77/1/56
f 80/1/57 79/1/58 81/1/59
f 84/1/61 82/1/60 81/1/59
f 87/1/63 88/1/67 84/1/61
f 86/1/64 62/1/40 61/1/41
f 91/1/66 92/1/73 88/1/67
f 90/1/68 86/1/64 85/1/65
f 93/1/70 90/1/68 89/1/69
f 91/1/66 96/1/181 95/1/72
f 100/1/74 99/1/182 97/1/75
f 98/1/76 97/1/75 101/1/77
f 102/1/78 101/1/77 103/1/79
f 104/1/80 103/1/79 105/1/81
f 106/1/82 105/1/81 107/1/83
f 108/1/84 107/1/83 109/1/85
f 110/1/86 109/1/85 111/1/87
f 112/1/88 111/1/87 113/1/89
f 116/1/91 114/1/90 113/1/89
f 116/1/91 115/1/92 117/1/93
f 122/1/95 121/1/183 119/1/96
f 120/1/97 119/1/96 123/1/98
f 124/1/99 123/1/98 125/1/100
f 126/1/101 125/1/100 127/1/102
f 128/1/103 127/1/102 129/1/104
f 130/1/105 129/1/104 131/1/106
f 132/1/107 131/1/106 133/1/108
f 134/1/109 133/1/108 135/1/110
f 138/1/112 136/1/111 135/1/110
f 138/1/112 137/1/113 139/1/114
f 139/1/114 143/1/119 144/1/116
f 118/1/94 117/1/93 141/1/117
f 143/1/119 147/1/126 148/1/120
f 142/1/118 141/1/117 145/1/121
f 146/1/122 145/1/121 150/1/123
f 152/1/125 151/1/184 148/1/120
f 44/1/127 42/1/128 97/1/128
f 41/1/129 43/1/185 66/1/130
f 42/1/128 46/1/133 101/1/132
f 45/1/13 41/1/129 64/1/131
f 46/1/133 48/1/134 103/1/134
f 47/1/13 45/1/13 68/1/13
f 48/1/134 50/1/135 105/1/135
f 49/1/13 47/1/13 70/1/13
f 50/1/135 52/1/136 107/1/136
f 51/1/13 49/1/13 72/1/13
f 52/1/136 54/1/137 109/1/137
f 53/1/13 51/1/13 74/1/13
f 54/1/137 56/1/138 111/1/138
f 55/1/13 53/1/13 76/1/13
f 56/1/138 58/1/139 113/1/139
f 57/1/13 55/1/13 78/1/13
f 58/1/139 60/1/140 115/1/140
f 57/1/13 80/1/13 82/1/13
f 60/1/140 62/1/186 117/1/141
f 61/1/142 59/1/13 82/1/13
f 84/1/143 88/1/160 85/1/144
f 117/1/141 62/1/186 86/1/145
f 63/1/147 65/1/148 122/1/148
f 124/1/149 67/1/149 63/1/147
f 126/1/150 69/1/150 67/1/149
f 128/1/151 71/1/151 69/1/150
f 130/1/152 73/1/152 71/1/151
f 132/1/153 75/1/153 73/1/152
f 134/1/154 77/1/154 75/1/153
f 136/1/155 79/1/155 77/1/154
f 138/1/156 81/1/156 79/1/155
f 140/1/157 83/1/187 81/1/156
f 87/1/158 83/1/187 140/1/157
f 88/1/160 92/1/166 89/1/161
f 141/1/146 86/1/145 90/1/162
f 91/1/164 87/1/158 144/1/159
f 92/1/166 95/1/13 94/1/13
f 145/1/163 90/1/162 93/1/167
f 96/1/168 91/1/164 148/1/165
f 102/1/14 123/1/14 119/1/169
f 98/1/170 119/1/169 121/1/171
f 104/1/14 125/1/14 123/1/14
f 106/1/14 127/1/14 125/1/14
f 108/1/14 129/1/14 127/1/14
f 110/1/14 131/1/14 129/1/14
f 112/1/14 133/1/14 131/1/14
f 114/1/14 135/1/14 133/1/14
f 137/1/14 135/1/14 114/1/14
f 118/1/173 139/1/175 137/1/14
f 142/1/174 143/1/177 139/1/175
f 146/1/176 147/1/178 143/1/177
f 149/1/14 152/1/14 147/1/178
