# Blender 5.1.2
# www.blender.org
o Exporting_sf.158
v -0.092051 0.029365 0.309655
v -0.099554 0.029397 0.309045
v -0.105041 0.029488 0.307309
v -0.110195 0.029661 0.304013
v -0.114774 0.029879 0.299851
v -0.119340 0.030168 0.294347
v -0.123032 0.030492 0.288163
v -0.124635 0.030742 0.283392
v -0.124798 0.030972 0.279003
v -0.123460 0.031169 0.275235
v -0.121269 0.031297 0.272801
v -0.118044 0.031375 0.271311
v -0.113413 0.031400 0.270828
v -0.087448 0.031401 0.270818
v -0.082106 0.031390 0.271015
v -0.077143 0.031331 0.272151
v -0.071382 0.031160 0.275404
v -0.067133 0.030996 0.278533
v -0.063210 0.030789 0.282492
v -0.059308 0.030498 0.288046
v -0.057071 0.030287 0.292060
v -0.055541 0.030082 0.295983
v -0.054732 0.029856 0.300284
v -0.055775 0.029576 0.305632
v -0.059488 0.029417 0.308662
v -0.064969 0.029365 0.309656
v -0.098007 0.031084 0.276858
v -0.101284 0.031050 0.277515
v -0.103238 0.030927 0.279849
v -0.102133 0.030690 0.284375
v -0.093607 0.029884 0.299759
v -0.091832 0.029769 0.301957
v -0.089378 0.029708 0.303124
v -0.085822 0.029688 0.303488
v -0.068221 0.029688 0.303505
v -0.064526 0.029721 0.302856
v -0.062839 0.029820 0.300973
v -0.063300 0.029972 0.298073
v -0.065943 0.030258 0.292631
v -0.069281 0.030580 0.286469
v -0.073522 0.030885 0.280660
v -0.075792 0.030990 0.278644
v -0.078566 0.031057 0.277366
v -0.082122 0.031082 0.276894
v -0.446448 0.029295 0.310995
v -0.440212 0.029344 0.310054
v -0.436557 0.029495 0.307181
v -0.435055 0.029739 0.302519
v -0.436272 0.030260 0.292581
v -0.440956 0.030754 0.283158
v -0.447711 0.031115 0.276275
v -0.453493 0.031288 0.272962
v -0.458806 0.031367 0.271454
v -0.465617 0.031396 0.270903
v -0.509163 0.031418 0.270484
v -0.509778 0.031384 0.271127
v -0.496468 0.029358 0.309790
v -0.495546 0.029324 0.310439
v -0.485431 0.031050 0.277507
v -0.485178 0.031083 0.276885
v -0.484397 0.031091 0.276725
v -0.480511 0.031090 0.276741
v -0.476625 0.031088 0.276786
v -0.472744 0.031081 0.276924
v -0.467467 0.031025 0.277984
v -0.464057 0.030895 0.280458
v -0.461897 0.030694 0.284303
v -0.456790 0.029991 0.297725
v -0.456458 0.029764 0.302057
v -0.458911 0.029660 0.304034
v -0.462725 0.029637 0.304477
v -0.475460 0.029645 0.304322
v -0.475930 0.029661 0.304010
v -0.400187 0.030766 0.282927
v -0.400372 0.030913 0.280127
v -0.399269 0.031047 0.277557
v -0.396608 0.031108 0.276406
v -0.381200 0.031105 0.276455
v -0.376997 0.031073 0.277064
v -0.373188 0.030994 0.278571
v -0.370042 0.030892 0.280533
v -0.367232 0.030743 0.283358
v -0.365091 0.030566 0.286744
v -0.363298 0.030376 0.290370
v -0.355495 0.029391 0.309173
v -0.354852 0.029365 0.309668
v -0.348385 0.029366 0.309652
v -0.347715 0.029404 0.308917
v -0.355011 0.030314 0.291543
v -0.359255 0.030761 0.283016
v -0.361771 0.030954 0.279333
v -0.364822 0.031113 0.276314
v -0.368537 0.031242 0.273845
v -0.372742 0.031339 0.271990
v -0.377256 0.031395 0.270922
v -0.382399 0.031413 0.270584
v -0.412457 0.031411 0.270619
v -0.415486 0.031385 0.271111
v -0.418085 0.031313 0.272498
v -0.420088 0.031200 0.274655
v -0.421623 0.031028 0.277928
v -0.422072 0.030845 0.281412
v -0.421347 0.030661 0.284929
v -0.411996 0.029390 0.309186
v -0.411419 0.029369 0.309578
v -0.389872 0.029375 0.309475
v -0.389314 0.029412 0.308756
v -0.396999 0.030306 0.291702
v -0.311294 0.029992 0.297689
v -0.313344 0.030240 0.292970
v -0.315336 0.030506 0.287886
v -0.316611 0.030696 0.284262
v -0.316977 0.030900 0.280368
v -0.315448 0.031045 0.277613
v -0.311975 0.031098 0.276601
v -0.286737 0.031080 0.276931
v -0.286156 0.031120 0.276178
v -0.288532 0.031381 0.271190
v -0.289175 0.031404 0.270753
v -0.323223 0.031413 0.270584
v -0.328165 0.031395 0.270925
v -0.332020 0.031340 0.271987
v -0.335258 0.031238 0.273927
v -0.337648 0.031067 0.277190
v -0.338400 0.030816 0.281967
v -0.337145 0.030498 0.288038
v -0.335388 0.030280 0.292208
v -0.333056 0.030081 0.295993
v -0.329428 0.029840 0.300603
v -0.324468 0.029599 0.305187
v -0.318721 0.029449 0.308059
v -0.312337 0.029390 0.309176
v -0.303832 0.029375 0.309463
v -0.272701 0.029372 0.309524
v -0.272054 0.029409 0.308833
v -0.274034 0.029662 0.303994
v -0.274829 0.029685 0.303563
v -0.301483 0.029687 0.303519
v -0.305544 0.029718 0.302917
v -0.308862 0.029818 0.301024
v -0.240462 0.030542 0.287198
v -0.240154 0.030534 0.287353
v -0.208859 0.030519 0.287646
v -0.207990 0.030530 0.287432
v -0.207909 0.030565 0.286761
v -0.215461 0.031336 0.271634
v -0.214584 0.031393 0.270550
v -0.208899 0.031392 0.270575
v -0.208343 0.031376 0.270878
v -0.197813 0.030190 0.293912
v -0.196671 0.029974 0.298048
v -0.196577 0.029706 0.303148
v -0.198375 0.029490 0.307284
v -0.200442 0.029399 0.309009
v -0.203096 0.029352 0.309903
v -0.207627 0.029341 0.310128
v -0.233968 0.029357 0.309808
v -0.237367 0.029364 0.309676
v -0.241340 0.029411 0.308783
v -0.246412 0.029542 0.306286
v -0.252727 0.029817 0.301044
v -0.257106 0.030124 0.295180
v -0.259967 0.030410 0.289724
v -0.268320 0.031368 0.271436
v -0.267837 0.031405 0.270739
v -0.248679 0.031404 0.270753
v -0.247624 0.031361 0.271576
v -0.237238 0.030243 0.292900
v -0.206073 0.030229 0.293172
v -0.205217 0.030214 0.293455
v -0.204879 0.030173 0.294238
v -0.203810 0.030013 0.297294
v -0.203511 0.029900 0.299456
v -0.203770 0.029786 0.301630
v -0.204614 0.029691 0.303447
v -0.206175 0.029650 0.304215
v -0.208394 0.029643 0.304362
v -0.227017 0.029651 0.304201
v -0.230725 0.029699 0.303289
v -0.233207 0.029803 0.301307
v -0.234713 0.029910 0.299270
v -0.235623 0.029988 0.297766
v -0.237998 0.030201 0.293705
v -0.237868 0.030234 0.293086
v -0.181346 0.031324 0.272283
v -0.165913 0.029682 0.303619
v -0.166357 0.029655 0.304120
v -0.181749 0.029656 0.304099
v -0.182575 0.029618 0.304839
v -0.180924 0.029379 0.309401
v -0.179933 0.029349 0.309971
v -0.125501 0.029339 0.310150
v -0.124880 0.029382 0.309335
v -0.126585 0.029633 0.304557
v -0.127305 0.029656 0.304117
v -0.144528 0.029655 0.304120
v -0.145014 0.029668 0.303876
v -0.160856 0.031337 0.272036
v -0.161913 0.031375 0.271312
v -0.180735 0.031372 0.271371
v -0.092051 0.026736 0.309525
v -0.092023 0.026065 0.308854
v -0.099554 0.026704 0.308912
v -0.099430 0.026034 0.308249
v -0.105041 0.026614 0.307172
v -0.104769 0.025949 0.306556
v -0.110195 0.026474 0.303868
v -0.109806 0.025822 0.303327
v -0.114774 0.026412 0.299698
v -0.114313 0.025776 0.299224
v -0.119340 0.026519 0.294189
v -0.118819 0.025897 0.293788
v -0.123032 0.026826 0.288005
v -0.122451 0.026208 0.287705
v -0.124635 0.027186 0.283237
v -0.124002 0.026561 0.283088
v -0.124798 0.027647 0.278854
v -0.124158 0.027001 0.278919
v -0.123460 0.028164 0.275094
v -0.122902 0.027481 0.275391
v -0.121269 0.028539 0.272667
v -0.120883 0.027824 0.273154
v -0.118044 0.028774 0.271181
v -0.117873 0.028042 0.271767
v -0.113413 0.028849 0.270700
v -0.113383 0.028116 0.271300
v -0.087448 0.028851 0.270690
v -0.087457 0.028117 0.271290
v -0.082190 0.028087 0.271484
v -0.082106 0.028820 0.270886
v -0.077366 0.027913 0.272585
v -0.077143 0.028641 0.272019
v -0.071722 0.027425 0.275768
v -0.071382 0.028139 0.275263
v -0.067550 0.027011 0.278833
v -0.067133 0.027705 0.278385
v -0.063700 0.026596 0.282714
v -0.063210 0.027269 0.282338
v -0.059848 0.026177 0.288192
v -0.059308 0.026834 0.287888
v -0.057648 0.025966 0.292140
v -0.057071 0.026614 0.291902
v -0.056156 0.025827 0.295967
v -0.055541 0.026468 0.295827
v -0.055379 0.025775 0.300095
v -0.054732 0.026412 0.300132
v -0.056356 0.025884 0.305109
v -0.055775 0.026536 0.305490
v -0.059763 0.026016 0.307897
v -0.059488 0.026684 0.308528
v -0.065024 0.026065 0.308854
v -0.064969 0.026736 0.309525
v -0.098069 0.027385 0.276046
v -0.098007 0.027928 0.276713
v -0.098007 0.027294 0.276680
v -0.101629 0.027283 0.276758
v -0.101284 0.027838 0.277369
v -0.101284 0.027204 0.277336
v -0.103932 0.026931 0.279504
v -0.103238 0.027547 0.279698
v -0.103238 0.026912 0.279665
v -0.102731 0.026447 0.284419
v -0.102133 0.027101 0.284219
v -0.102133 0.026466 0.284185
v -0.094137 0.025775 0.299929
v -0.093607 0.026412 0.299606
v -0.093607 0.025775 0.299573
v -0.092236 0.025798 0.302287
v -0.091832 0.026425 0.301808
v -0.091832 0.025789 0.301774
v -0.089552 0.025829 0.303566
v -0.089378 0.026449 0.302977
v -0.089378 0.025812 0.302943
v -0.085822 0.026458 0.303341
v -0.085857 0.025841 0.303944
v -0.085822 0.025821 0.303308
v -0.068168 0.025841 0.303962
v -0.068221 0.026459 0.303358
v -0.068221 0.025822 0.303325
v -0.064526 0.026442 0.302709
v -0.064199 0.025820 0.303264
v -0.064526 0.025806 0.302675
v -0.062839 0.026415 0.300821
v -0.062163 0.025780 0.300987
v -0.062839 0.025778 0.300788
v -0.063300 0.026425 0.297918
v -0.062685 0.025792 0.297695
v -0.063300 0.025789 0.297885
v -0.065943 0.026588 0.292473
v -0.065375 0.025965 0.292153
v -0.065943 0.025952 0.292440
v -0.069281 0.026939 0.286312
v -0.068741 0.026329 0.285939
v -0.069281 0.026304 0.286279
v -0.073522 0.027456 0.280508
v -0.073048 0.026869 0.280046
v -0.073522 0.026821 0.280475
v -0.075792 0.027691 0.278496
v -0.075440 0.027126 0.277926
v -0.075792 0.027057 0.278463
v -0.078566 0.027858 0.277220
v -0.078387 0.027310 0.276571
v -0.078566 0.027224 0.277187
v -0.082122 0.027923 0.276749
v -0.082080 0.027379 0.276082
v -0.082122 0.027289 0.276716
v -0.446492 0.026136 0.310197
v -0.446448 0.026805 0.310868
v -0.440474 0.026088 0.309286
v -0.440212 0.026757 0.309924
v -0.437103 0.025952 0.306630
v -0.436557 0.026608 0.307044
v -0.435704 0.025797 0.302275
v -0.435055 0.026435 0.302370
v -0.436891 0.025947 0.292575
v -0.436272 0.026590 0.292423
v -0.441481 0.026538 0.283342
v -0.440956 0.027207 0.283003
v -0.448104 0.027305 0.276604
v -0.447711 0.028011 0.276131
v -0.453742 0.027788 0.273382
v -0.453493 0.028514 0.272827
v -0.458920 0.028018 0.271917
v -0.458806 0.028751 0.271324
v -0.465646 0.028104 0.271374
v -0.465617 0.028837 0.270774
v -0.509163 0.028903 0.270356
v -0.508893 0.028169 0.270959
v -0.509778 0.028802 0.270998
v -0.509050 0.028144 0.271123
v -0.496468 0.026743 0.309660
v -0.495933 0.026085 0.309224
v -0.495546 0.026777 0.310310
v -0.495341 0.026107 0.309642
v -0.486112 0.027207 0.277313
v -0.485431 0.027839 0.277361
v -0.485431 0.027205 0.277327
v -0.485639 0.027369 0.276155
v -0.485178 0.027924 0.276741
v -0.485178 0.027290 0.276708
v -0.484460 0.027404 0.275914
v -0.484397 0.027947 0.276581
v -0.484397 0.027313 0.276548
v -0.480511 0.027945 0.276597
v -0.480506 0.027402 0.275929
v -0.480511 0.027311 0.276563
v -0.476625 0.027938 0.276642
v -0.476610 0.027395 0.275975
v -0.476625 0.027304 0.276609
v -0.472744 0.027919 0.276780
v -0.472669 0.027375 0.276114
v -0.472744 0.027285 0.276746
v -0.467467 0.027776 0.277837
v -0.467205 0.027221 0.277209
v -0.467467 0.027142 0.277804
v -0.464057 0.027478 0.280307
v -0.463570 0.026892 0.279842
v -0.464057 0.026844 0.280273
v -0.461897 0.027107 0.284147
v -0.461319 0.026495 0.283844
v -0.461897 0.026472 0.284114
v -0.456790 0.026430 0.297569
v -0.456163 0.025797 0.297396
v -0.456790 0.025794 0.297536
v -0.456458 0.026427 0.301908
v -0.455797 0.025795 0.302160
v -0.456458 0.025790 0.301875
v -0.458911 0.026475 0.303888
v -0.458655 0.025859 0.304466
v -0.458911 0.025838 0.303855
v -0.462725 0.026490 0.304333
v -0.462692 0.025877 0.304937
v -0.462725 0.025853 0.304299
v -0.475460 0.026485 0.304178
v -0.475656 0.025871 0.304779
v -0.475460 0.025848 0.304144
v -0.476458 0.025851 0.304245
v -0.475930 0.026474 0.303865
v -0.475930 0.025837 0.303831
v -0.400816 0.026581 0.282871
v -0.400187 0.027228 0.282772
v -0.401017 0.026893 0.279833
v -0.400372 0.027515 0.279976
v -0.399754 0.027264 0.276896
v -0.399269 0.027832 0.277411
v -0.396738 0.027451 0.275595
v -0.396608 0.027992 0.276262
v -0.381200 0.027985 0.276311
v -0.381153 0.027443 0.275644
v -0.376997 0.027900 0.276919
v -0.376832 0.027352 0.276269
v -0.373188 0.027701 0.278423
v -0.372900 0.027139 0.277821
v -0.370042 0.027470 0.280381
v -0.369642 0.026891 0.279848
v -0.367232 0.027189 0.283203
v -0.366731 0.026590 0.282772
v -0.365091 0.026920 0.286587
v -0.364536 0.026307 0.286242
v -0.363298 0.026699 0.290212
v -0.362718 0.026077 0.289916
v -0.355495 0.026711 0.309041
v -0.354972 0.026053 0.308607
v -0.354636 0.026066 0.308866
v -0.354852 0.026737 0.309537
v -0.348667 0.026065 0.308851
v -0.348385 0.026736 0.309521
v -0.348459 0.026053 0.308622
v -0.347715 0.026697 0.308784
v -0.355590 0.025990 0.291617
v -0.355011 0.026639 0.291385
v -0.359806 0.026556 0.283150
v -0.359255 0.027220 0.282861
v -0.362262 0.026925 0.279558
v -0.361771 0.027607 0.279184
v -0.365226 0.027301 0.276631
v -0.364822 0.028005 0.276171
v -0.368844 0.027656 0.274233
v -0.368537 0.028376 0.273708
v -0.372946 0.027938 0.272428
v -0.372742 0.028667 0.271858
v -0.377351 0.028102 0.271389
v -0.377256 0.028835 0.270793
v -0.382399 0.028887 0.270456
v -0.382419 0.028154 0.271056
v -0.412457 0.028882 0.270491
v -0.412405 0.028149 0.271091
v -0.415486 0.028805 0.270982
v -0.415279 0.028075 0.271557
v -0.418085 0.028587 0.272365
v -0.417691 0.027873 0.272841
v -0.420088 0.028252 0.274516
v -0.419554 0.027563 0.274841
v -0.421623 0.027783 0.277781
v -0.421005 0.027125 0.277927
v -0.422072 0.027376 0.281259
v -0.421427 0.026744 0.281202
v -0.421347 0.027056 0.284773
v -0.420735 0.026435 0.284560
v -0.411996 0.026711 0.309054
v -0.411474 0.026053 0.308606
v -0.411225 0.026061 0.308775
v -0.411419 0.026732 0.309447
v -0.390185 0.026056 0.308675
v -0.389872 0.026727 0.309344
v -0.390051 0.026047 0.308502
v -0.389314 0.026689 0.308623
v -0.397590 0.025984 0.291749
v -0.396999 0.026631 0.291544
v -0.311850 0.025790 0.297819
v -0.311294 0.026431 0.297534
v -0.313932 0.025928 0.293021
v -0.313344 0.026573 0.292812
v -0.315933 0.026195 0.287916
v -0.315336 0.026844 0.287728
v -0.317237 0.026464 0.284210
v -0.316611 0.027110 0.284106
v -0.317629 0.026869 0.280047
v -0.316977 0.027488 0.280216
v -0.315878 0.027264 0.276898
v -0.315448 0.027825 0.277467
v -0.312061 0.027422 0.275788
v -0.311975 0.027965 0.276457
v -0.287047 0.027375 0.276115
v -0.286737 0.027918 0.276787
v -0.286898 0.027403 0.275923
v -0.286156 0.028025 0.276035
v -0.289033 0.028091 0.271454
v -0.288532 0.028793 0.271061
v -0.289373 0.028128 0.271224
v -0.289175 0.028861 0.270624
v -0.323223 0.028887 0.270456
v -0.323202 0.028154 0.271056
v -0.328165 0.028834 0.270796
v -0.328058 0.028101 0.271391
v -0.332020 0.028667 0.271856
v -0.331767 0.027941 0.272410
v -0.335258 0.028363 0.273790
v -0.334820 0.027656 0.274235
v -0.337648 0.027882 0.277045
v -0.337043 0.027214 0.277262
v -0.338400 0.027320 0.281814
v -0.337753 0.026687 0.281765
v -0.337145 0.026834 0.287880
v -0.336534 0.026211 0.287658
v -0.335388 0.026607 0.292050
v -0.334820 0.025985 0.291726
v -0.333056 0.026468 0.295837
v -0.332533 0.025842 0.295439
v -0.329428 0.026413 0.300451
v -0.328959 0.025775 0.299985
v -0.324468 0.026517 0.305044
v -0.324102 0.025860 0.304482
v -0.318721 0.026653 0.307924
v -0.318520 0.025984 0.307279
v -0.312337 0.026711 0.309044
v -0.312271 0.026040 0.308375
v -0.303832 0.026726 0.309332
v -0.303827 0.026055 0.308661
v -0.272977 0.026059 0.308722
v -0.272701 0.026729 0.309393
v -0.272797 0.026049 0.308530
v -0.272054 0.026693 0.308700
v -0.274538 0.025852 0.304266
v -0.274034 0.026474 0.303848
v -0.274829 0.026460 0.303416
v -0.274992 0.025843 0.304020
v -0.301530 0.025842 0.303977
v -0.301483 0.026459 0.303373
v -0.305756 0.025823 0.303349
v -0.305544 0.026444 0.302770
v -0.309296 0.025783 0.301325
v -0.308862 0.026415 0.300873
v -0.240948 0.026223 0.287474
v -0.240462 0.026889 0.287040
v -0.240154 0.026879 0.287195
v -0.240308 0.026202 0.287796
v -0.208785 0.026184 0.288091
v -0.208859 0.026859 0.287488
v -0.207990 0.026873 0.287275
v -0.207411 0.026205 0.287753
v -0.207909 0.026919 0.286604
v -0.207254 0.026292 0.286456
v -0.215461 0.028701 0.271503
v -0.214708 0.028055 0.271550
v -0.214584 0.028871 0.270422
v -0.214281 0.028138 0.271024
v -0.208899 0.028867 0.270447
v -0.209063 0.028134 0.271047
v -0.208833 0.028114 0.271172
v -0.208343 0.028820 0.270749
v -0.198413 0.025891 0.293939
v -0.197813 0.026535 0.293754
v -0.197306 0.025788 0.297952
v -0.196671 0.026425 0.297893
v -0.197216 0.025810 0.302840
v -0.196577 0.026449 0.303000
v -0.198899 0.025957 0.306721
v -0.198375 0.026613 0.307146
v -0.200759 0.026035 0.308277
v -0.200442 0.026702 0.308876
v -0.203216 0.026079 0.309107
v -0.203096 0.026749 0.309773
v -0.207639 0.026090 0.309327
v -0.207627 0.026761 0.309998
v -0.233968 0.026744 0.309677
v -0.233959 0.026074 0.309007
v -0.237367 0.026737 0.309546
v -0.237284 0.026067 0.308878
v -0.241340 0.026690 0.308650
v -0.241126 0.026022 0.308011
v -0.246412 0.026565 0.306146
v -0.246063 0.025904 0.305574
v -0.252727 0.026415 0.300893
v -0.252263 0.025776 0.300419
v -0.257106 0.026491 0.295023
v -0.256566 0.025866 0.294650
v -0.259967 0.026734 0.289566
v -0.259396 0.026114 0.289253
v -0.268320 0.028754 0.271306
v -0.267591 0.028110 0.271337
v -0.267837 0.028863 0.270610
v -0.267504 0.028130 0.271211
v -0.248899 0.028128 0.271225
v -0.248679 0.028861 0.270624
v -0.248139 0.028034 0.271816
v -0.247624 0.028732 0.271446
v -0.237238 0.026576 0.292743
v -0.237327 0.025969 0.292073
v -0.237238 0.025941 0.292709
v -0.206073 0.026565 0.293014
v -0.205967 0.025957 0.292346
v -0.206073 0.025929 0.292981
v -0.205217 0.026553 0.293297
v -0.204745 0.025939 0.292750
v -0.205217 0.025918 0.293264
v -0.204879 0.026523 0.294081
v -0.204285 0.025896 0.293817
v -0.204879 0.025887 0.294047
v -0.203810 0.026438 0.297138
v -0.203188 0.025805 0.296955
v -0.203810 0.025802 0.297105
v -0.203511 0.026413 0.299303
v -0.202869 0.025776 0.299264
v -0.203511 0.025776 0.299270
v -0.203770 0.026421 0.301480
v -0.203150 0.025787 0.301623
v -0.203770 0.025784 0.301447
v -0.204614 0.026457 0.303300
v -0.204131 0.025834 0.303738
v -0.204614 0.025820 0.303267
v -0.206175 0.026481 0.304070
v -0.206007 0.025866 0.304664
v -0.206175 0.025844 0.304037
v -0.208375 0.025873 0.304822
v -0.208394 0.026486 0.304218
v -0.208394 0.025849 0.304184
v -0.227096 0.025866 0.304659
v -0.227017 0.026480 0.304056
v -0.227017 0.025843 0.304023
v -0.231013 0.025833 0.303694
v -0.230725 0.026453 0.303142
v -0.230725 0.025816 0.303109
v -0.233670 0.025786 0.301568
v -0.233207 0.026417 0.301156
v -0.233207 0.025781 0.301123
v -0.235242 0.025776 0.299437
v -0.234713 0.026413 0.299116
v -0.234713 0.025777 0.299083
v -0.236171 0.025789 0.297900
v -0.235623 0.026430 0.297611
v -0.235623 0.025794 0.297577
v -0.238671 0.025903 0.293624
v -0.237998 0.026543 0.293548
v -0.237998 0.025908 0.293514
v -0.238412 0.025955 0.292392
v -0.237868 0.026569 0.292928
v -0.237868 0.025933 0.292894
v -0.181346 0.028620 0.272151
v -0.180613 0.027979 0.272166
v -0.165913 0.026462 0.303473
v -0.165154 0.025828 0.303542
v -0.166357 0.026478 0.303975
v -0.166073 0.025863 0.304581
v -0.181749 0.026477 0.303954
v -0.181508 0.025863 0.304560
v -0.182575 0.026503 0.304696
v -0.181834 0.025874 0.304853
v -0.180924 0.026723 0.309270
v -0.180401 0.026063 0.308802
v -0.179933 0.026753 0.309842
v -0.179762 0.026082 0.309171
v -0.125815 0.026092 0.309349
v -0.125501 0.026762 0.310020
v -0.125596 0.026076 0.309060
v -0.124880 0.026719 0.309203
v -0.127109 0.025872 0.304806
v -0.126585 0.026493 0.304413
v -0.127485 0.025863 0.304575
v -0.127305 0.026478 0.303972
v -0.144681 0.025863 0.304578
v -0.144528 0.026478 0.303975
v -0.145489 0.025848 0.304170
v -0.145014 0.026470 0.303730
v -0.161353 0.027958 0.272300
v -0.160856 0.028659 0.271904
v -0.161913 0.028773 0.271182
v -0.162110 0.028039 0.271783
v -0.180735 0.028764 0.271241
v -0.180394 0.028030 0.271841
v -0.359396 0.029883 0.299772
v -0.358845 0.025776 0.299254
v -0.359396 0.026412 0.299619
v -0.351363 0.029859 0.300230
v -0.352024 0.025775 0.300113
v -0.351363 0.026412 0.300078
v -0.393157 0.029859 0.300229
v -0.393820 0.025775 0.300119
v -0.393157 0.026412 0.300077
v -0.415241 0.029831 0.300770
v -0.414687 0.025775 0.300253
v -0.415241 0.026413 0.300619
v -0.479904 0.030242 0.292923
v -0.479904 0.026575 0.292765
v -0.479904 0.025940 0.292732
v -0.480496 0.025930 0.292966
v -0.501775 0.030166 0.294375
v -0.501163 0.025889 0.294006
v -0.501775 0.026518 0.294218
v -0.505776 0.027244 0.282597
v -0.505776 0.030775 0.282751
v -0.505106 0.026610 0.282554
v -0.483129 0.026504 0.283738
v -0.483773 0.026496 0.283827
v -0.483129 0.030714 0.283927
v -0.483129 0.027139 0.283771
v -0.498239 0.029628 0.304645
v -0.497679 0.025848 0.304140
v -0.498239 0.026496 0.304501
v -0.458729 0.030258 0.292630
v -0.458120 0.025961 0.292250
v -0.458729 0.025953 0.292439
v -0.458729 0.026588 0.292472
v -0.097478 0.030250 0.292775
v -0.097478 0.026582 0.292617
v -0.097478 0.025946 0.292583
v -0.098039 0.025933 0.292884
v -0.173629 0.030503 0.287945
v -0.172883 0.026200 0.287829
v -0.173629 0.026840 0.287787
v -0.152935 0.030503 0.287956
v -0.153421 0.026176 0.288216
v -0.152935 0.026840 0.287798
v -0.148974 0.026470 0.295759
v -0.148974 0.030085 0.295916
v -0.149455 0.025822 0.296188
v -0.169771 0.030093 0.295776
v -0.169018 0.025835 0.295675
v -0.169771 0.026474 0.295620
v -0.177488 0.027516 0.279963
v -0.177488 0.030913 0.280114
v -0.176748 0.026875 0.279992
v -0.156896 0.030920 0.279996
v -0.157387 0.026846 0.280252
v -0.156896 0.027530 0.279845
v -0.264144 0.030889 0.280580
v -0.264144 0.027465 0.280428
v -0.263493 0.026842 0.280288
v -0.244043 0.030952 0.279387
v -0.244543 0.026915 0.279639
v -0.244043 0.027601 0.279237
v -0.211521 0.030940 0.279608
v -0.211521 0.027575 0.279458
v -0.210817 0.026942 0.279408
v -0.204519 0.030956 0.279309
v -0.204519 0.027610 0.279159
v -0.205047 0.026931 0.279500
vn 0.0001 -0.9990 0.0452
vn 0.0069 -0.2371 0.9715
vn -0.0000 -0.9990 0.0454
vn -0.8977 -0.1681 0.4073
vn -0.0001 -0.9990 0.0452
vn -0.0237 -0.2231 0.9745
vn 0.8227 -0.1819 0.5387
vn -0.0000 -0.9993 0.0371
vn -0.9360 -0.1769 0.3043
vn -0.0001 -0.9885 -0.1512
vn -0.0001 -0.9954 -0.0963
vn -0.0000 -0.9979 -0.0652
vn -0.8858 -0.1733 0.4306
vn -0.8885 -0.1712 0.4257
vn -0.0000 -0.9995 0.0301
vn 0.5946 -0.7689 -0.2351
vn 0.0241 -0.7736 -0.6332
vn 0.9326 0.0164 -0.3604
vn 0.0361 0.0469 -0.9982
vn -0.0000 -0.9995 0.0307
vn -0.0127 -0.7218 -0.6920
vn -0.0176 0.0468 -0.9987
vn 0.9460 -0.1314 -0.2963
vn -0.0000 -0.9998 0.0179
vn -0.0000 -0.9991 -0.0419
vn -0.2334 -0.7879 -0.5698
vn -0.0001 -0.9996 0.0289
vn -0.3665 0.0433 -0.9294
vn -0.5179 -0.8411 -0.1563
vn -0.0000 -0.9999 0.0171
vn -0.9544 0.0139 -0.2982
vn 0.9415 0.0150 -0.3368
vn 0.6585 -0.7065 -0.2592
vn -0.0001 -0.9992 -0.0396
vn 0.0001 -0.9958 -0.0916
vn -0.0000 -0.9999 -0.0150
vn -0.6377 -0.7569 0.1427
vn -0.9712 -0.0106 0.2380
vn -0.0001 -0.9991 -0.0436
vn -0.6530 -0.7274 0.2110
vn -0.9348 -0.0160 0.3548
vn 0.0001 -0.9910 -0.1338
vn 0.8120 -0.1202 -0.5711
vn -0.0001 -0.9961 -0.0885
vn -0.4919 -0.8011 0.3412
vn -0.0000 -0.9936 -0.1133
vn -0.9171 -0.0179 0.3983
vn -0.7567 -0.0298 0.6530
vn -0.0000 -0.9894 -0.1451
vn 0.6255 -0.1182 -0.7712
vn -0.2539 -0.8211 0.5113
vn -0.0000 -0.9915 -0.1299
vn -0.3835 -0.0428 0.9225
vn -0.0000 -0.9906 -0.1367
vn -0.0931 -0.7947 0.5998
vn -0.1308 -0.0463 0.9903
vn -0.0001 -0.9916 -0.1292
vn 0.2868 -0.9281 0.2374
vn 0.5834 -0.7695 -0.2598
vn 0.9586 0.0129 -0.2845
vn -0.0000 -0.9905 -0.1377
vn -0.0173 -0.7793 0.6264
vn -0.0237 -0.0468 0.9986
vn -0.0001 -0.9904 -0.1379
vn -0.0000 -0.9906 -0.1366
vn 0.0219 -0.8132 0.5815
vn 0.6152 -0.0370 0.7875
vn -0.0058 -0.7781 0.6281
vn -0.0079 -0.0470 0.9989
vn 0.0314 -0.0469 0.9984
vn -0.0000 -0.9888 -0.1491
vn 0.3930 -0.1236 -0.9112
vn 0.0188 -0.1400 -0.9900
vn 0.0001 -0.9886 -0.1505
vn -0.0047 -0.1143 -0.9934
vn -0.0001 -0.9884 -0.1516
vn -0.0002 -0.9990 0.0449
vn -0.8982 -0.1620 0.4087
vn -0.0002 -0.9990 0.0445
vn 0.0001 -0.9990 0.0447
vn -0.0655 -0.2091 0.9757
vn 0.0001 -0.9990 0.0446
vn 0.1018 -0.2027 0.9739
vn -0.0000 -0.9990 0.0450
vn -0.9072 -0.1587 0.3896
vn -0.0000 -0.9990 0.0446
vn -0.0125 -0.2141 0.9767
vn 0.9322 -0.1085 -0.3452
vn 0.0001 -0.9990 0.0442
vn -0.0001 -1.0000 0.0042
vn -0.9329 -0.1624 0.3215
vn -0.0001 -0.9965 -0.0841
vn -0.0001 -0.9996 0.0277
vn -0.9337 -0.1695 0.3153
vn -0.0001 -0.9994 -0.0338
vn 0.8989 -0.1305 -0.4183
vn 0.0001 -1.0000 0.0032
vn 0.0001 -0.9989 -0.0468
vn 0.9155 -0.1370 -0.3782
vn 0.0001 -0.9989 -0.0462
vn -0.9199 -0.1728 0.3521
vn 0.0001 -0.9957 -0.0927
vn -0.0001 -0.9985 -0.0549
vn -0.8643 -0.1745 0.4717
vn -0.0001 -0.9973 -0.0736
vn -0.7779 -0.1882 0.5995
vn -0.0001 -0.9955 -0.0949
vn -0.0001 -0.9945 -0.1048
vn -0.0001 -0.9936 -0.1131
vn 0.0001 -0.9933 -0.1152
vn 0.8648 -0.1241 -0.4865
vn 0.0001 -0.9936 -0.1134
vn 0.9456 -0.1469 -0.2902
vn 0.0001 -0.9955 -0.0945
vn -0.9887 -0.1464 0.0323
vn -0.0001 -0.9921 -0.1255
vn -0.6268 -0.2008 0.7528
vn -0.0000 -0.9920 -0.1259
vn 0.7086 -0.2410 0.6631
vn -0.0000 -0.9913 -0.1317
vn 0.0001 -0.9910 -0.1335
vn 0.7590 -0.1221 -0.6395
vn -0.4486 -0.2108 0.8685
vn -0.0000 -0.9908 -0.1356
vn -0.9482 -0.1390 -0.2857
vn -0.0001 -0.9900 -0.1411
vn -0.0000 -0.9903 -0.1388
vn -0.2584 -0.2205 0.9405
vn -0.0000 -0.9903 -0.1387
vn 0.0633 -0.2327 0.9705
vn 0.0001 -0.9898 -0.1427
vn 0.6199 -0.1228 -0.7750
vn -0.8268 -0.1323 -0.5467
vn -0.0001 -0.9892 -0.1466
vn 0.0001 -0.9890 -0.1477
vn 0.4698 -0.1265 -0.8737
vn -0.6011 -0.1287 -0.7887
vn -0.0000 -0.9887 -0.1500
vn 0.0001 -0.9886 -0.1506
vn 0.3112 -0.1301 -0.9414
vn -0.0156 -0.1378 -0.9903
vn -0.0000 -0.9885 -0.1513
vn 0.0084 -0.1410 -0.9900
vn -0.0000 -0.9885 -0.1514
vn 0.0001 -0.9990 0.0449
vn -0.0085 -0.2337 0.9723
vn -0.0000 -0.9990 0.0449
vn 0.0002 -0.9990 0.0442
vn 0.0190 -0.2073 0.9781
vn -0.0000 -0.9990 0.0438
vn -0.0917 -0.2265 0.9697
vn -0.0001 -0.9992 0.0398
vn 0.8757 -0.1325 -0.4643
vn 0.0001 -0.9996 0.0282
vn -0.5658 -0.1947 0.8012
vn -0.0001 -0.9996 0.0292
vn -0.7213 -0.1829 0.6681
vn -0.0001 -1.0000 0.0024
vn 0.0213 -0.1229 -0.9922
vn 0.0001 -0.9996 0.0273
vn -0.0000 -0.9996 0.0270
vn 0.0166 -0.1016 -0.9947
vn 0.3228 -0.1348 -0.9368
vn 0.0001 -0.9997 0.0247
vn 0.6718 -0.1427 -0.7269
vn -0.0000 -0.9999 0.0114
vn 0.0001 -0.9999 -0.0125
vn -0.8061 -0.1723 0.5662
vn -0.0001 -0.9997 -0.0256
vn 0.0001 -0.9992 -0.0394
vn 0.8658 -0.1389 -0.4807
vn -0.8807 -0.1625 0.4449
vn -0.0001 -0.9989 -0.0462
vn 0.0001 -0.9979 -0.0648
vn 0.9144 -0.1334 -0.3823
vn -0.0001 -0.9978 -0.0660
vn -0.9499 -0.1560 0.2708
vn -0.0001 -0.9949 -0.1013
vn 0.9618 -0.1525 -0.2272
vn 0.0001 -0.9963 -0.0862
vn 0.9716 -0.1945 0.1349
vn 0.0001 -0.9937 -0.1119
vn -0.9884 -0.1458 0.0418
vn -0.0001 -0.9916 -0.1296
vn 0.0001 -0.9913 -0.1318
vn 0.0001 -0.9904 -0.1383
vn 0.6103 -0.2454 0.7532
vn -0.9238 -0.1317 -0.3595
vn -0.0001 -0.9898 -0.1428
vn 0.0002 -0.9906 -0.1369
vn 0.0248 -0.2249 0.9741
vn 0.0003 -0.9904 -0.1380
vn 0.0138 -0.1823 0.9831
vn 0.8634 -0.1208 -0.4898
vn -0.0003 -0.9887 -0.1501
vn -0.6726 -0.1241 -0.7295
vn -0.0000 -0.9890 -0.1477
vn -0.3832 -0.1276 -0.9148
vn -0.0001 -0.9886 -0.1505
vn -0.0000 -0.9885 -0.1509
vn -0.0043 -0.1401 -0.9901
vn -0.0146 -0.2376 0.9713
vn -0.0000 -0.9990 0.0452
vn -0.0030 -0.2358 0.9718
vn 0.1506 -0.2252 0.9626
vn 0.4778 -0.2086 0.8534
vn -0.0000 -0.9990 0.0451
vn -0.1342 -0.2261 0.9648
vn -0.3446 -0.2145 0.9139
vn 0.0001 -0.9991 0.0434
vn 0.8273 -0.1785 0.5327
vn -0.5550 -0.1974 0.8081
vn -0.0001 -0.9991 0.0424
vn -0.0000 -0.9993 0.0375
vn 0.9734 -0.1577 0.1664
vn -0.0000 -0.9995 0.0303
vn -0.1584 -0.7702 -0.6178
vn -0.0000 -0.9996 0.0297
vn 0.0005 -0.7124 -0.7017
vn -0.2380 0.0454 -0.9702
vn -0.7128 -0.1829 0.6771
vn -0.0001 -0.9994 0.0332
vn -0.0000 -0.9998 0.0217
vn 0.9805 -0.1405 -0.1372
vn 0.0344 -0.7317 -0.6808
vn 0.0487 0.0467 -0.9977
vn 0.0006 0.0468 -0.9989
vn -0.4428 -0.8118 -0.3806
vn -0.0000 -0.9997 0.0263
vn -0.7398 0.0312 -0.6721
vn -0.0000 -0.9996 0.0298
vn 0.2844 -0.7634 -0.5800
vn 0.4288 0.0418 -0.9024
vn 0.0002 -0.9999 0.0134
vn -0.6276 -0.7620 -0.1596
vn -0.9655 0.0120 -0.2602
vn -0.0000 -0.9999 0.0130
vn -0.0000 -0.9997 0.0260
vn 0.7130 0.0321 -0.7004
vn -0.8335 -0.1697 0.5258
vn -0.0001 -1.0000 0.0054
vn -0.0000 -1.0000 -0.0025
vn -0.6597 -0.7515 0.0057
vn -0.9999 -0.0006 0.0130
vn -0.0000 -1.0000 -0.0014
vn 0.4836 -0.7409 -0.4661
vn 0.8269 0.0255 -0.5618
vn -0.0000 -0.9999 -0.0115
vn 0.9116 -0.1316 -0.3894
vn -0.0000 -0.9998 -0.0174
vn -0.6501 -0.7438 0.1553
vn -0.9669 -0.0114 0.2548
vn -0.0001 -0.9999 -0.0118
vn 0.5768 -0.7159 -0.3934
vn 0.8615 0.0227 -0.5073
vn -0.8920 -0.1682 0.4195
vn -0.0001 -0.9995 -0.0302
vn 0.0002 -0.9994 -0.0350
vn -0.6346 -0.7439 0.2094
vn -0.9390 -0.0153 0.3436
vn 0.5294 -0.8022 -0.2761
vn 0.6066 -0.7018 -0.3736
vn 0.9025 0.0193 -0.4303
vn 0.8950 -0.1381 -0.4242
vn 0.0003 -0.9886 -0.1508
vn 0.8834 -0.1199 -0.4531
vn -0.3402 -0.8741 0.3468
vn -0.0000 -0.9992 -0.0408
vn -0.6661 -0.0332 0.7452
vn -0.0000 -0.9994 -0.0360
vn 0.2950 -0.9246 0.2410
vn 0.7273 -0.0305 0.6857
vn -0.0000 -0.9991 -0.0433
vn -0.0114 -0.7740 0.6331
vn -0.0175 -0.0444 0.9989
vn -0.0000 -0.9990 -0.0444
vn -0.0017 -0.7727 0.6347
vn -0.0025 -0.0444 0.9990
vn -0.0001 -0.9974 -0.0724
vn -0.6573 -0.2414 -0.7139
vn -0.9022 -0.1975 0.3834
vn -0.0001 -0.9939 -0.1104
vn -0.0001 -0.9983 -0.0582
vn 0.0001 -0.9888 -0.1493
vn 0.8923 -0.1449 -0.4276
vn 0.0001 -0.9934 -0.1146
vn -0.0000 -0.9979 -0.0641
vn 0.0145 -0.1159 -0.9932
vn 0.0021 -0.1106 -0.9939
vn 0.8795 -0.1601 -0.4482
vn 0.0001 -0.9977 -0.0671
vn -0.0000 -0.9887 -0.1499
vn -0.8874 -0.1869 0.4213
vn -0.9343 -0.1463 0.3251
vn 0.0001 -0.9933 -0.1155
vn 0.0504 -0.1193 -0.9916
vn -0.1580 -0.1093 -0.9814
vn 0.0002 -0.9885 -0.1513
vn 0.8707 -0.1264 -0.4754
vn -0.0002 -0.9886 -0.1508
vn -0.9270 -0.1439 0.3463
vn -0.0335 -0.1073 -0.9937
vn 0.0411 -0.1191 -0.9920
vn -0.0133 -0.2214 0.9751
vn 0.0001 -0.9990 0.0451
vn 0.9705 -0.1211 -0.2085
vn -0.0002 -0.9990 0.0451
vn -0.8822 -0.1617 0.4422
vn 0.8974 -0.1373 -0.4194
vn -0.0001 -0.9995 0.0302
vn -0.0000 -0.9995 0.0304
vn 0.0231 -0.1015 -0.9946
vn -0.0001 -0.9996 0.0294
vn -0.0410 -0.0963 -0.9945
vn -0.0000 -0.9996 0.0293
vn -0.0341 -0.1535 -0.9876
vn 0.0147 -0.1368 -0.9905
vn 0.8698 -0.1531 -0.4690
vn 0.0001 -0.9996 0.0279
vn -0.9043 -0.2149 0.3689
vn -0.0002 -0.9997 0.0255
vn 0.0001 -0.9998 -0.0216
vn -0.0004 -0.9887 -0.1502
vn -0.9019 -0.1815 0.3919
vn -0.0001 -0.9937 -0.1123
vn -0.8900 -0.1837 0.4172
vn 0.0331 -0.1180 -0.9925
vn -0.0176 -0.8005 -0.5990
vn -0.0492 -0.1050 -0.9933
vn 0.0132 -0.8202 -0.5719
vn 0.8561 -0.1227 -0.5020
vn -0.0000 -0.9890 -0.1479
vn -0.0173 -0.2326 0.9724
vn -0.0001 -0.9990 0.0451
vn 0.0001 -0.9991 0.0420
vn 0.0300 -0.2295 0.9728
vn -0.0000 -0.9991 0.0433
vn -0.1747 -0.2221 0.9592
vn -0.4218 -0.2067 0.8828
vn 0.8685 -0.1711 0.4653
vn 0.4004 -0.2065 0.8928
vn -0.5991 -0.1939 0.7769
vn -0.0000 -0.9993 0.0370
vn 0.0001 -0.9995 0.0314
vn 0.9888 -0.1488 0.0139
vn -0.4329 0.0416 -0.9005
vn -0.0213 -0.7225 -0.6910
vn -0.0300 0.0464 -0.9985
vn -0.2650 -0.8024 -0.5348
vn -0.0000 -0.9996 0.0271
vn -0.7175 -0.1803 0.6728
vn -0.0002 -0.9997 0.0248
vn 0.0001 -1.0000 0.0031
vn 0.9521 -0.1320 -0.2758
vn 0.2493 0.0448 -0.9674
vn 0.0131 -0.7138 -0.7002
vn 0.1693 -0.7508 -0.6385
vn -0.0001 -0.9997 0.0256
vn 0.0181 0.0464 -0.9988
vn 0.6277 0.0357 -0.7776
vn 0.4091 -0.7659 -0.4961
vn -0.0000 -0.9998 0.0180
vn -0.9726 0.0108 -0.2323
vn -0.5327 -0.8373 -0.1234
vn -0.0000 -0.9997 0.0244
vn 0.8532 0.0235 -0.5211
vn 0.5887 -0.7180 -0.3713
vn 0.0001 -1.0000 0.0019
vn -0.9361 -0.0158 0.3513
vn -0.0001 -0.9999 -0.0131
vn -0.0000 -1.0000 0.0091
vn -0.8084 -0.1703 0.5635
vn -0.0001 -1.0000 -0.0027
vn 0.0001 -0.9997 -0.0229
vn 0.8943 -0.1241 -0.4300
vn 0.8749 0.0219 -0.4838
vn 0.6158 -0.6948 -0.3715
vn -0.0000 -0.9992 -0.0398
vn -0.8891 -0.0205 0.4573
vn -0.6146 -0.7592 0.2142
vn 0.0001 -0.9990 -0.0441
vn -0.0002 -0.9978 -0.0658
vn -0.8917 -0.1611 0.4230
vn 0.0001 -0.9990 -0.0442
vn 0.8320 -0.1217 -0.5413
vn -0.5831 -0.7497 0.3130
vn -0.6185 -0.7320 0.2857
vn -0.0000 -0.9957 -0.0931
vn -0.9718 -0.1518 0.1803
vn 0.0001 -0.9954 -0.0954
vn 0.7633 -0.1183 -0.6352
vn -0.0000 -0.9929 -0.1191
vn -0.9793 -0.1415 -0.1449
vn -0.8462 -0.0238 0.5323
vn -0.5296 -0.7664 0.3636
vn 0.0001 -0.9971 -0.0760
vn 0.9121 0.0183 -0.4096
vn 0.5427 -0.8393 -0.0334
vn 0.9950 -0.0048 0.0997
vn -0.0000 -0.9964 -0.0849
vn -0.0000 -0.9933 -0.1154
vn 0.0001 -0.9928 -0.1197
vn 0.6456 -0.1195 -0.7543
vn -0.0001 -0.9902 -0.1396
vn -0.8602 -0.1309 -0.4929
vn -0.7715 -0.0288 0.6356
vn -0.3746 -0.7997 0.4693
vn -0.0000 -0.9937 -0.1120
vn 0.3074 -0.8560 0.4156
vn 0.5068 -0.0401 0.8611
vn -0.0001 -0.9911 -0.1328
vn -0.0000 -0.9903 -0.1386
vn 0.5268 -0.1268 -0.8405
vn -0.5517 -0.0385 0.8332
vn -0.1854 -0.8106 0.5555
vn -0.0000 -0.9921 -0.1255
vn -0.0000 -0.9891 -0.1473
vn 0.3742 -0.1245 -0.9190
vn 0.0233 -0.7995 0.6002
vn 0.0329 -0.0468 0.9984
vn -0.0000 -0.9905 -0.1372
vn -0.2699 -0.0448 0.9618
vn -0.0190 -0.7908 0.6118
vn -0.0000 -0.9906 -0.1369
vn -0.0000 -0.9910 -0.1337
vn -0.0264 -0.0468 0.9986
vn -0.0001 -0.9893 -0.1457
vn -0.5808 -0.1252 -0.8044
vn -0.0000 -0.9888 -0.1496
vn -0.2401 -0.1270 -0.9624
vn -0.0000 -0.9886 -0.1503
vn 0.1255 -0.1324 -0.9832
vn -0.0157 -0.1386 -0.9902
vn 0.0058 -0.1411 -0.9900
vn -0.0000 -0.9886 -0.1508
vn -0.9088 -0.1789 0.3769
vn -0.0001 -1.0000 -0.0026
vn -0.0179 -0.0496 0.9986
vn -0.1802 -0.0481 0.9824
vn -0.4327 -0.0428 0.9005
vn -0.6117 -0.0362 0.7903
vn -0.7285 -0.0303 0.6844
vn -0.8179 -0.0249 0.5749
vn -0.9006 -0.0188 0.4343
vn -0.9815 -0.0083 0.1915
vn -0.9908 0.0062 -0.1352
vn -0.8738 0.0228 -0.4858
vn -0.5936 0.0391 -0.8038
vn -0.2473 0.0482 -0.9677
vn -0.0163 0.0504 -0.9986
vn 0.0060 0.0504 -0.9987
vn 0.1298 0.0496 -0.9903
vn 0.3849 0.0450 -0.9219
vn 0.5409 0.0394 -0.8402
vn 0.6579 0.0339 -0.7523
vn 0.7740 0.0278 -0.6326
vn 0.8422 0.0233 -0.5387
vn 0.9034 0.0185 -0.4283
vn 0.9615 0.0119 -0.2747
vn 0.9999 -0.0009 0.0152
vn 0.8803 -0.0223 0.4739
vn 0.4099 -0.0442 0.9111
vn 0.0311 -0.0497 0.9983
vn 0.5018 -0.0393 0.8641
vn -0.0263 -0.0457 0.9986
vn 0.0327 -0.0458 0.9984
vn 0.9937 -0.0052 0.1115
vn 0.9129 0.0177 -0.4077
vn 0.8749 0.0209 -0.4838
vn 0.8530 0.0228 -0.5213
vn 0.6262 0.0348 -0.7789
vn 0.2485 0.0437 -0.9676
vn 0.0181 0.0453 -0.9988
vn -0.0299 0.0454 -0.9985
vn -0.4307 0.0411 -0.9016
vn -0.9715 0.0107 -0.2370
vn -0.9363 -0.0152 0.3510
vn -0.8891 -0.0198 0.4572
vn -0.8456 -0.0231 0.5333
vn -0.7704 -0.0281 0.6369
vn -0.5494 -0.0375 0.8347
vn -0.2684 -0.0438 0.9623
vn -0.0247 -0.0507 0.9984
vn 0.3691 -0.0466 0.9282
vn 0.0071 -0.0510 0.9987
vn 0.3596 -0.2161 0.9077
vn 0.8361 -0.0263 0.5479
vn 1.0000 -0.0005 0.0075
vn 0.9893 -0.1457 0.0053
vn 0.9555 0.0128 -0.2946
vn 0.8224 0.0249 -0.5684
vn 0.6377 0.0356 -0.7694
vn 0.1642 -0.1311 -0.9777
vn 0.4040 0.0440 -0.9137
vn 0.1698 0.0489 -0.9843
vn 0.0195 0.0504 -0.9985
vn -0.9614 -0.0125 0.2748
vn -0.0053 0.0507 -0.9987
vn -0.9456 -0.0148 0.3250
vn -0.9307 -0.1725 0.3225
vn -0.9107 -0.0202 0.4127
vn 0.9415 0.0147 -0.3366
vn 0.9415 0.0152 -0.3366
vn 0.9595 0.0125 -0.2814
vn 0.6052 -0.0368 0.7953
vn -0.0079 -0.0458 0.9989
vn 0.0311 -0.0459 0.9985
vn -0.0236 -0.0458 0.9987
vn -0.1305 -0.0453 0.9904
vn -0.3810 -0.0417 0.9236
vn -0.7538 -0.0292 0.6565
vn -0.9166 -0.0172 0.3994
vn -0.9348 -0.0153 0.3549
vn -0.9713 -0.0103 0.2378
vn -0.9529 0.0137 -0.3029
vn -0.3647 0.0426 -0.9301
vn 0.0357 0.0456 -0.9983
vn -0.0175 0.0458 -0.9988
vn 0.9325 0.0154 -0.3608
vn 0.9267 0.0162 -0.3754
vn 0.9726 -0.1904 0.1335
vn 0.9598 0.0122 -0.2804
vn 0.9865 -0.0074 0.1635
vn 0.7092 -0.0320 0.7043
vn -0.0338 -0.0459 0.9984
vn 0.0619 -0.0463 0.9970
vn -0.0341 -0.2217 0.9745
vn -0.2571 -0.0440 0.9654
vn -0.4483 -0.0402 0.8930
vn -0.6286 -0.0344 0.7770
vn -0.7832 -0.0271 0.6211
vn -0.8724 -0.0211 0.4883
vn -0.9163 -0.0172 0.4002
vn -0.9237 -0.0170 0.3827
vn -0.9108 -0.0198 0.4124
vn 0.1063 -0.0494 0.9931
vn -0.0680 -0.0495 0.9965
vn 0.9499 0.0143 -0.3122
vn 0.9131 -0.1439 -0.3815
vn 0.9089 0.0182 -0.4166
vn 0.9221 0.0172 -0.3866
vn 0.8757 0.0210 -0.4824
vn 0.7716 0.0285 -0.6355
vn 0.6335 0.0357 -0.7730
vn 0.4827 0.0418 -0.8748
vn 0.1407 -0.1342 -0.9809
vn 0.3211 0.0465 -0.9459
vn 0.1455 0.0496 -0.9881
vn -0.0162 0.0506 -0.9986
vn 0.0087 0.0506 -0.9987
vn -0.3200 0.0473 -0.9462
vn -0.3115 -0.1275 -0.9416
vn -0.6153 0.0384 -0.7874
vn -0.8418 0.0254 -0.5391
vn -0.9612 0.0126 -0.2755
vn -0.9991 -0.0018 0.0427
vn -0.9433 -0.0145 0.3316
vn -0.9331 -0.0160 0.3592
vn -0.9194 -0.0187 0.3929
vn 0.0378 -0.0495 0.9981
vn -0.0134 -0.0496 0.9987
vn 0.0360 -0.2037 0.9784
vn 0.9388 0.0158 -0.3441
vn 0.9031 -0.1428 -0.4049
vn 0.9118 0.0183 -0.4102
vn 0.8753 0.0211 -0.4832
vn 0.6769 0.0327 -0.7354
vn 0.9249 0.0164 -0.3799
vn 0.9250 -0.1339 -0.3556
vn 0.9364 0.0151 -0.3505
vn 0.9767 0.0093 -0.2143
vn 0.9862 -0.0075 0.1652
vn 0.6085 -0.0363 0.7927
vn 0.0163 -0.0458 0.9988
vn 0.0242 -0.0461 0.9986
vn 0.9449 -0.1334 -0.2990
vn 0.9582 0.0140 -0.2858
vn 0.0171 -0.1229 -0.9923
vn 0.8769 0.0238 -0.4801
vn 0.0178 0.0504 -0.9986
vn -0.1593 0.0495 -0.9860
vn -0.0045 0.0506 -0.9987
vn -0.1540 -0.1330 -0.9791
vn -0.3939 0.0455 -0.9180
vn -0.6859 0.0346 -0.7269
vn -0.9355 0.0163 -0.3529
vn -0.9987 -0.0021 0.0514
vn -0.9593 -0.0120 0.2821
vn -0.8898 -0.0196 0.4560
vn -0.8164 -0.0251 0.5769
vn -0.7334 -0.0303 0.6792
vn -0.3089 -0.2115 0.9273
vn -0.5778 -0.0377 0.8153
vn -0.3174 -0.0455 0.9472
vn -0.0949 -0.0489 0.9943
vn -0.0088 -0.0495 0.9987
vn 0.9689 0.0114 -0.2471
vn 0.0203 -0.0495 0.9986
vn 0.9610 -0.1118 -0.2530
vn 0.8812 0.0202 -0.4724
vn 0.0173 0.0453 -0.9988
vn 0.0212 0.0453 -0.9987
vn 0.3231 0.0425 -0.9454
vn 0.0143 0.0430 -0.9990
vn -0.0001 -0.9979 -0.0655
vn -0.0001 -0.9991 -0.0428
vn 0.9093 0.0188 -0.4156
vn 0.0024 0.0433 -0.9991
vn -0.6837 0.0325 -0.7290
vn -0.9123 -0.0179 0.4091
vn -0.8949 -0.0201 0.4457
vn -0.9419 -0.0154 0.3356
vn -0.1628 0.0500 -0.9854
vn 0.0531 0.0507 -0.9973
vn 0.8965 0.0226 -0.4425
vn 0.9097 0.0187 -0.4148
vn 0.9228 0.0169 -0.3850
vn 0.9906 0.0059 -0.1365
vn 0.9855 -0.0079 0.1692
vn 0.8408 -0.0256 0.5407
vn 0.4899 -0.0426 0.8707
vn 0.1554 -0.0493 0.9866
vn -0.0031 -0.0501 0.9987
vn -0.0152 -0.0499 0.9986
vn -0.1386 -0.0490 0.9891
vn -0.3546 -0.0454 0.9339
vn -0.5676 -0.0388 0.8224
vn -0.7249 -0.0308 0.6882
vn -0.8437 -0.0233 0.5363
vn -0.9010 -0.0187 0.4335
vn -0.9099 -0.0185 0.4143
vn -0.9331 -0.0165 0.3592
vn -0.0354 0.0504 -0.9981
vn 0.0423 0.0504 -0.9978
vn 0.8849 0.0229 -0.4653
vn -0.0175 -0.0430 0.9989
vn -0.0025 -0.0434 0.9991
vn 0.7258 -0.0297 0.6873
vn -0.6650 -0.0322 0.7462
vn -0.9390 -0.0147 0.3437
vn -0.9670 -0.0110 0.2546
vn -0.9999 -0.0005 0.0119
vn -0.9649 0.0118 -0.2625
vn -0.7366 0.0306 -0.6756
vn -0.2370 0.0445 -0.9705
vn 0.0486 0.0456 -0.9978
vn 0.0006 0.0458 -0.9990
vn 0.4274 0.0408 -0.9031
vn 0.7122 0.0313 -0.7013
vn 0.8268 0.0247 -0.5620
vn 0.8614 0.0221 -0.5074
vn 0.9028 0.0186 -0.4297
vn -0.8973 -0.0192 0.4409
vn -0.0000 -0.9890 -0.1481
vn -0.9334 -0.0166 0.3584
vn -0.0509 0.0498 -0.9975
vn -0.9238 -0.0169 0.3824
vn -0.0440 0.0457 -0.9980
vn -0.0307 0.0477 -0.9984
vn -0.9790 -0.1504 0.1380
vn -0.9906 -0.0069 0.1369
vn -0.8936 -0.0217 0.4483
vn 0.0112 -0.2073 0.9782
vn -0.0138 -0.0501 0.9987
vn 0.9791 0.0096 -0.2033
vn 0.0118 -0.0501 0.9987
vn 0.9035 0.0183 -0.4281
vn 0.0244 0.0456 -0.9987
vn 0.8804 0.0208 -0.4739
vn 0.0138 0.0455 -0.9989
vn 0.8957 0.0199 -0.4443
vn 0.8790 -0.1422 -0.4550
vn 0.8698 0.0239 -0.4929
vn 0.0341 0.0499 -0.9982
vn -0.9054 -0.1699 0.3891
vn 0.9433 -0.1090 -0.3137
vn 0.9415 0.0146 -0.3368
vn 0.6482 -0.7049 -0.2881
vn -0.9456 -0.0141 0.3249
vn -0.9457 -0.0143 0.3246
vn -0.9553 -0.1371 0.2618
vn -0.6294 -0.7455 0.2192
vn -0.0002 -0.9994 -0.0350
vn 0.6048 -0.7270 -0.3250
vn -0.8973 -0.0191 0.4410
vn -0.8973 -0.0204 0.4409
vn 0.0001 -0.9939 -0.1107
vn 0.8838 -0.1315 -0.4490
vn 0.8955 0.0194 -0.4447
vn 0.8860 -0.1345 -0.4438
vn -0.0001 -0.9997 -0.0244
vn 0.0002 -0.9980 -0.0633
vn -0.9263 -0.1458 0.3474
vn 0.8956 0.0192 -0.4445
vn 0.8984 0.0177 -0.4388
vn -0.0001 -0.9933 -0.1159
vn -0.0001 -0.9996 0.0281
vn 0.0001 -0.9994 -0.0342
vn -0.0002 -0.9978 -0.0657
vn 0.0001 -0.9980 -0.0635
vn -0.0000 -0.9886 -0.1507
vt 0.649642 0.044382
vt 0.647570 0.044924
vt 0.647554 0.044697
vt 0.630217 0.044506
vt 0.630608 0.044505
vt 0.630537 0.044731
vt 0.651001 0.043599
vt 0.650811 0.043462
vt 0.626988 0.035116
vt 0.625852 0.031128
vt 0.627220 0.035106
vt 0.742423 0.037067
vt 0.743478 0.039776
vt 0.742164 0.037044
vt 0.637437 0.042821
vt 0.637342 0.042492
vt 0.637505 0.042601
vt 0.637342 0.042498
vt 0.637505 0.042607
vt 0.641934 0.042875
vt 0.641923 0.042655
vt 0.641923 0.042660
vt 0.651100 0.038529
vt 0.651297 0.041953
vt 0.650885 0.038588
vt 0.643246 0.042501
vt 0.643335 0.042712
vt 0.643246 0.042506
vt 0.644097 0.041814
vt 0.644326 0.041913
vt 0.644097 0.041820
vt 0.635963 0.038648
vt 0.635963 0.038642
vt 0.635758 0.038723
vt 0.649293 0.035381
vt 0.644199 0.040261
vt 0.643982 0.040310
vt 0.643982 0.040315
vt 0.643520 0.038475
vt 0.643309 0.038541
vt 0.643309 0.038546
vt 0.646995 0.033037
vt 0.649475 0.035257
vt 0.642411 0.035555
vt 0.641461 0.034313
vt 0.641630 0.034163
vt 0.642210 0.035655
vt 0.641461 0.034319
vt 0.645039 0.031915
vt 0.647132 0.032866
vt 0.640278 0.033454
vt 0.640369 0.033247
vt 0.640278 0.033460
vt 0.638473 0.032866
vt 0.638447 0.033086
vt 0.638447 0.033092
vt 0.633810 0.033284
vt 0.634134 0.033073
vt 0.634046 0.033289
vt 0.634046 0.033294
vt 0.637106 0.032818
vt 0.637100 0.033038
vt 0.637100 0.033044
vt 0.634382 0.032796
vt 0.633973 0.032880
vt 0.634404 0.033017
vt 0.634134 0.033079
vt 0.635754 0.032802
vt 0.635752 0.033023
vt 0.635752 0.033028
vt 0.634404 0.033023
vt 0.643243 0.031405
vt 0.645125 0.031716
vt 0.640919 0.031001
vt 0.640910 0.031216
vt 0.625812 0.030855
vt 0.625906 0.031071
vt 0.679421 0.044236
vt 0.679123 0.044291
vt 0.679304 0.044147
vt 0.681491 0.044231
vt 0.679346 0.044463
vt 0.681564 0.044152
vt 0.681589 0.044457
vt 0.659789 0.044205
vt 0.659521 0.044296
vt 0.659703 0.044146
vt 0.667088 0.044170
vt 0.659722 0.044432
vt 0.667390 0.044146
vt 0.667135 0.044110
vt 0.658588 0.041252
vt 0.656277 0.035872
vt 0.656490 0.035804
vt 0.629797 0.042600
vt 0.628376 0.039152
vt 0.628588 0.039085
vt 0.679291 0.038169
vt 0.680327 0.041203
vt 0.679090 0.038255
vt 0.664724 0.038224
vt 0.665827 0.041206
vt 0.664519 0.038301
vt 0.658396 0.041373
vt 0.677627 0.035314
vt 0.676617 0.037664
vt 0.675794 0.036502
vt 0.675986 0.036388
vt 0.675051 0.035326
vt 0.675225 0.035182
vt 0.656250 0.034636
vt 0.674215 0.034166
vt 0.676775 0.034065
vt 0.677818 0.035207
vt 0.663330 0.034160
vt 0.663618 0.035176
vt 0.663400 0.035217
vt 0.656026 0.034651
vt 0.656396 0.033497
vt 0.674076 0.034345
vt 0.673085 0.033460
vt 0.663937 0.033312
vt 0.663769 0.033138
vt 0.675747 0.033046
vt 0.676946 0.033929
vt 0.672985 0.033664
vt 0.671721 0.032920
vt 0.656182 0.033441
vt 0.656900 0.032423
vt 0.664815 0.032685
vt 0.671663 0.033141
vt 0.670222 0.032703
vt 0.664860 0.032912
vt 0.674492 0.032211
vt 0.675887 0.032880
vt 0.656714 0.032304
vt 0.657546 0.031727
vt 0.673069 0.031583
vt 0.674598 0.032023
vt 0.657409 0.031555
vt 0.658383 0.031280
vt 0.671541 0.031221
vt 0.673139 0.031378
vt 0.659362 0.030902
vt 0.659380 0.031117
vt 0.669789 0.030890
vt 0.669782 0.031105
vt 0.707750 0.044787
vt 0.697045 0.044993
vt 0.697047 0.044766
vt 0.707812 0.044721
vt 0.707846 0.045014
vt 0.694118 0.044667
vt 0.694095 0.044893
vt 0.691950 0.044287
vt 0.707383 0.043093
vt 0.707208 0.043244
vt 0.689887 0.043508
vt 0.690013 0.043318
vt 0.688166 0.041916
vt 0.688329 0.041760
vt 0.697861 0.042929
vt 0.707051 0.043158
vt 0.697844 0.043143
vt 0.707107 0.042944
vt 0.696452 0.042719
vt 0.696378 0.042926
vt 0.695301 0.042062
vt 0.695150 0.042224
vt 0.694264 0.041008
vt 0.686907 0.040315
vt 0.687089 0.040183
vt 0.693542 0.039343
vt 0.694457 0.040904
vt 0.686098 0.039000
vt 0.686295 0.038894
vt 0.692848 0.037570
vt 0.693746 0.039265
vt 0.685701 0.037481
vt 0.685489 0.037552
vt 0.685278 0.035433
vt 0.692612 0.036241
vt 0.692395 0.036283
vt 0.692485 0.034888
vt 0.692259 0.034835
vt 0.685053 0.035444
vt 0.685524 0.033866
vt 0.692867 0.033740
vt 0.694191 0.033353
vt 0.693016 0.033932
vt 0.685314 0.033785
vt 0.686295 0.032812
vt 0.702869 0.033467
vt 0.694221 0.033580
vt 0.702920 0.033400
vt 0.702976 0.033695
vt 0.702353 0.031701
vt 0.702180 0.031844
vt 0.686143 0.032652
vt 0.687354 0.032177
vt 0.687267 0.031978
vt 0.688641 0.031822
vt 0.702062 0.031764
vt 0.690319 0.031491
vt 0.690326 0.031706
vt 0.721282 0.044800
vt 0.730417 0.044684
vt 0.730421 0.044911
vt 0.731951 0.044608
vt 0.731993 0.044833
vt 0.732913 0.044522
vt 0.720132 0.044529
vt 0.720103 0.044754
vt 0.718725 0.044444
vt 0.732803 0.044321
vt 0.733630 0.043923
vt 0.716966 0.043577
vt 0.718799 0.044229
vt 0.733449 0.043782
vt 0.734254 0.042487
vt 0.730161 0.043124
vt 0.730925 0.042852
vt 0.730983 0.043069
vt 0.730155 0.042903
vt 0.730925 0.042858
vt 0.714775 0.041757
vt 0.717087 0.043385
vt 0.734033 0.042437
vt 0.734222 0.040716
vt 0.723694 0.042847
vt 0.723694 0.042853
vt 0.730155 0.042909
vt 0.731466 0.042585
vt 0.731633 0.042749
vt 0.731466 0.042591
vt 0.723666 0.043068
vt 0.722408 0.042530
vt 0.722408 0.042536
vt 0.731974 0.042015
vt 0.731759 0.041954
vt 0.731759 0.041960
vt 0.721386 0.041996
vt 0.722308 0.042733
vt 0.721546 0.041848
vt 0.713255 0.039720
vt 0.714936 0.041598
vt 0.732071 0.041197
vt 0.731849 0.041199
vt 0.731849 0.041205
vt 0.720840 0.041257
vt 0.721546 0.041842
vt 0.721024 0.041140
vt 0.734001 0.040742
vt 0.733826 0.039280
vt 0.731961 0.040396
vt 0.731745 0.040448
vt 0.731745 0.040454
vt 0.720518 0.040724
vt 0.721024 0.041134
vt 0.720708 0.040618
vt 0.712263 0.037825
vt 0.713443 0.039596
vt 0.731580 0.039307
vt 0.731374 0.039387
vt 0.731374 0.039393
vt 0.719885 0.039202
vt 0.720708 0.040612
vt 0.719885 0.039208
vt 0.731499 0.034208
vt 0.730116 0.031719
vt 0.730287 0.031566
vt 0.731257 0.039115
vt 0.731420 0.038937
vt 0.731257 0.039121
vt 0.719651 0.039240
vt 0.719930 0.038987
vt 0.719930 0.038993
vt 0.730996 0.038797
vt 0.730960 0.039017
vt 0.730960 0.039023
vt 0.720117 0.038702
vt 0.720148 0.038923
vt 0.720148 0.038928
vt 0.730550 0.036751
vt 0.730295 0.037029
vt 0.730323 0.036796
vt 0.711040 0.034607
vt 0.712461 0.037723
vt 0.716367 0.031658
vt 0.717787 0.034236
vt 0.717614 0.034381
vt 0.730019 0.037319
vt 0.719136 0.037002
vt 0.729993 0.037104
vt 0.719030 0.036948
vt 0.718861 0.037104
vt 0.728078 0.031851
vt 0.729070 0.034312
vt 0.727817 0.031829
vt 0.731316 0.034333
vt 0.730093 0.031461
vt 0.728227 0.031667
vt 0.728121 0.031452
vt 0.730037 0.031675
vt 0.716103 0.031452
vt 0.716545 0.031523
vt 0.709648 0.031447
vt 0.709365 0.031474
vt 0.709533 0.031232
vt 0.716179 0.031237
vt 0.758684 0.044675
vt 0.739909 0.044674
vt 0.739971 0.044448
vt 0.759009 0.044622
vt 0.758761 0.044576
vt 0.739567 0.044473
vt 0.739750 0.044318
vt 0.758432 0.042971
vt 0.758250 0.043111
vt 0.739266 0.042902
vt 0.758184 0.042816
vt 0.758120 0.043030
vt 0.739298 0.042585
vt 0.739380 0.042802
vt 0.744637 0.042680
vt 0.744734 0.042896
vt 0.752209 0.042751
vt 0.752155 0.042965
vt 0.752042 0.042664
vt 0.751875 0.042821
vt 0.744793 0.042507
vt 0.745056 0.042539
vt 0.750524 0.040041
vt 0.709618 0.031491
vt 0.710814 0.034650
vt 0.741106 0.034331
vt 0.740850 0.034313
vt 0.746280 0.031304
vt 0.739866 0.031483
vt 0.739750 0.031267
vt 0.746209 0.031519
vt 0.746644 0.031559
vt 0.746471 0.031701
vt 0.779892 0.044292
vt 0.770516 0.044459
vt 0.770526 0.044232
vt 0.781717 0.043961
vt 0.779911 0.044519
vt 0.767956 0.044023
vt 0.767913 0.044247
vt 0.766010 0.043644
vt 0.783101 0.043122
vt 0.781813 0.044174
vt 0.764222 0.042499
vt 0.766104 0.043436
vt 0.782899 0.042995
vt 0.783463 0.041265
vt 0.780065 0.042148
vt 0.778783 0.042367
vt 0.778783 0.042373
vt 0.780065 0.042142
vt 0.778801 0.042588
vt 0.762633 0.041054
vt 0.764356 0.042318
vt 0.783238 0.041257
vt 0.783182 0.039711
vt 0.771444 0.042190
vt 0.772677 0.042311
vt 0.771444 0.042185
vt 0.772665 0.042532
vt 0.771383 0.042400
vt 0.772677 0.042317
vt 0.770592 0.041785
vt 0.770592 0.041780
vt 0.770452 0.041957
vt 0.780650 0.041493
vt 0.780650 0.041488
vt 0.780179 0.042346
vt 0.769976 0.041022
vt 0.769976 0.041016
vt 0.769792 0.041140
vt 0.780490 0.040487
vt 0.780704 0.040415
vt 0.780885 0.041557
vt 0.761049 0.039142
vt 0.762793 0.040895
vt 0.782969 0.039765
vt 0.782651 0.038348
vt 0.768633 0.038596
vt 0.768633 0.038591
vt 0.768439 0.038695
vt 0.779574 0.038547
vt 0.780490 0.040481
vt 0.779770 0.038441
vt 0.759970 0.036897
vt 0.759768 0.036995
vt 0.782451 0.038437
vt 0.781875 0.036954
vt 0.778415 0.036401
vt 0.779574 0.038541
vt 0.759432 0.035292
vt 0.759212 0.035338
vt 0.780351 0.035162
vt 0.780522 0.035026
vt 0.759378 0.033842
vt 0.759156 0.033814
vt 0.778415 0.036407
vt 0.776944 0.034384
vt 0.778603 0.036283
vt 0.767018 0.035679
vt 0.766635 0.034102
vt 0.766635 0.034108
vt 0.766811 0.035755
vt 0.766394 0.034046
vt 0.779016 0.033812
vt 0.779161 0.033651
vt 0.759813 0.032615
vt 0.759620 0.032505
vt 0.776944 0.034389
vt 0.776157 0.033684
vt 0.777109 0.034234
vt 0.767313 0.033291
vt 0.767313 0.033297
vt 0.767193 0.033090
vt 0.777569 0.032746
vt 0.777686 0.032564
vt 0.776157 0.033689
vt 0.775194 0.033240
vt 0.776279 0.033497
vt 0.775611 0.031713
vt 0.775688 0.031510
vt 0.768450 0.033063
vt 0.768450 0.033069
vt 0.768428 0.032842
vt 0.775194 0.033245
vt 0.773960 0.033076
vt 0.773975 0.032855
vt 0.775256 0.033025
vt 0.773960 0.033082
vt 0.760514 0.031836
vt 0.760380 0.031660
vt 0.761558 0.031352
vt 0.761498 0.031143
vt 0.773937 0.031330
vt 0.773966 0.031116
vt 0.763105 0.030975
vt 0.772113 0.031047
vt 0.763116 0.031190
vt 0.677769 0.041026
vt 0.677961 0.040905
vt 0.770516 0.044480
vt 0.767913 0.044268
vt 0.766010 0.043665
vt 0.764222 0.042521
vt 0.762633 0.041075
vt 0.761049 0.039164
vt 0.759768 0.037016
vt 0.759212 0.035359
vt 0.759156 0.033836
vt 0.759620 0.032527
vt 0.760380 0.031682
vt 0.761498 0.031164
vt 0.763105 0.030997
vt 0.772113 0.031069
vt 0.773966 0.031137
vt 0.775688 0.031532
vt 0.777686 0.032586
vt 0.779161 0.033672
vt 0.780522 0.035047
vt 0.781875 0.036976
vt 0.782651 0.038370
vt 0.783182 0.039732
vt 0.783463 0.041286
vt 0.783101 0.043143
vt 0.781813 0.044195
vt 0.779911 0.044540
vt 0.767313 0.033319
vt 0.773960 0.033103
vt 0.768450 0.033090
vt 0.766635 0.034129
vt 0.767018 0.035701
vt 0.768633 0.038618
vt 0.769976 0.041043
vt 0.770592 0.041807
vt 0.771444 0.042212
vt 0.772677 0.042338
vt 0.778783 0.042394
vt 0.780065 0.042169
vt 0.780650 0.041515
vt 0.780490 0.040508
vt 0.779574 0.038568
vt 0.778415 0.036428
vt 0.776944 0.034411
vt 0.776157 0.033711
vt 0.775194 0.033267
vt 0.630537 0.044752
vt 0.649733 0.044619
vt 0.647570 0.044946
vt 0.649733 0.044597
vt 0.651001 0.043621
vt 0.651522 0.042002
vt 0.651522 0.041980
vt 0.651100 0.038551
vt 0.649475 0.035278
vt 0.647132 0.032888
vt 0.643282 0.031192
vt 0.645125 0.031737
vt 0.643282 0.031214
vt 0.640919 0.031022
vt 0.625600 0.031100
vt 0.625812 0.030877
vt 0.629602 0.042740
vt 0.629602 0.042719
vt 0.630217 0.044527
vt 0.634844 0.035545
vt 0.634844 0.035524
vt 0.634046 0.033316
vt 0.634134 0.033100
vt 0.635752 0.033050
vt 0.634404 0.033044
vt 0.637100 0.033066
vt 0.638447 0.033113
vt 0.640278 0.033482
vt 0.641461 0.034341
vt 0.642210 0.035676
vt 0.643309 0.038568
vt 0.643982 0.040337
vt 0.644097 0.041842
vt 0.643246 0.042528
vt 0.637505 0.042628
vt 0.641923 0.042682
vt 0.637342 0.042520
vt 0.664724 0.038245
vt 0.663554 0.034204
vt 0.663618 0.035198
vt 0.663554 0.034226
vt 0.663937 0.033333
vt 0.670205 0.032950
vt 0.664860 0.032933
vt 0.670205 0.032929
vt 0.671663 0.033162
vt 0.672985 0.033685
vt 0.674076 0.034367
vt 0.675051 0.035348
vt 0.675794 0.036524
vt 0.676416 0.037783
vt 0.677769 0.041048
vt 0.679123 0.044313
vt 0.681589 0.044479
vt 0.679346 0.044484
vt 0.681822 0.044224
vt 0.680556 0.041186
vt 0.679291 0.038190
vt 0.680556 0.041207
vt 0.677818 0.035229
vt 0.676946 0.033950
vt 0.675887 0.032901
vt 0.674598 0.032044
vt 0.671574 0.031008
vt 0.673139 0.031400
vt 0.671574 0.031029
vt 0.659362 0.030924
vt 0.669789 0.030912
vt 0.658311 0.031095
vt 0.658311 0.031073
vt 0.657409 0.031577
vt 0.656714 0.032325
vt 0.656182 0.033462
vt 0.656026 0.034672
vt 0.656277 0.035893
vt 0.658396 0.041395
vt 0.659521 0.044317
vt 0.667197 0.044418
vt 0.659722 0.044453
vt 0.667197 0.044396
vt 0.667390 0.044168
vt 0.666057 0.041185
vt 0.666057 0.041207
vt 0.694457 0.040925
vt 0.695301 0.042083
vt 0.693746 0.039286
vt 0.693055 0.037499
vt 0.693055 0.037521
vt 0.692612 0.036262
vt 0.692485 0.034910
vt 0.693016 0.033953
vt 0.702976 0.033717
vt 0.694221 0.033602
vt 0.703178 0.033434
vt 0.703178 0.033455
vt 0.702130 0.031549
vt 0.702353 0.031723
vt 0.702130 0.031571
vt 0.688604 0.031631
vt 0.690319 0.031512
vt 0.688604 0.031609
vt 0.687267 0.032000
vt 0.686143 0.032673
vt 0.685314 0.033806
vt 0.685053 0.035466
vt 0.685489 0.037574
vt 0.686098 0.039022
vt 0.686907 0.040336
vt 0.688166 0.041937
vt 0.691880 0.044505
vt 0.689887 0.043529
vt 0.691880 0.044526
vt 0.694095 0.044914
vt 0.697045 0.045014
vt 0.708070 0.044795
vt 0.707846 0.045035
vt 0.708070 0.044774
vt 0.707383 0.043115
vt 0.707107 0.042965
vt 0.697861 0.042950
vt 0.696452 0.042741
vt 0.719136 0.037023
vt 0.719083 0.037216
vt 0.719741 0.038812
vt 0.717787 0.034257
vt 0.729993 0.037125
vt 0.730295 0.037051
vt 0.730323 0.036818
vt 0.729070 0.034334
vt 0.727817 0.031850
vt 0.728121 0.031473
vt 0.730093 0.031482
vt 0.730287 0.031587
vt 0.731499 0.034230
vt 0.733826 0.039301
vt 0.734222 0.040738
vt 0.734254 0.042508
vt 0.733630 0.043945
vt 0.732913 0.044544
vt 0.731993 0.044854
vt 0.730421 0.044932
vt 0.721282 0.044821
vt 0.720103 0.044776
vt 0.718725 0.044466
vt 0.716966 0.043598
vt 0.714775 0.041778
vt 0.713255 0.039742
vt 0.712263 0.037847
vt 0.710814 0.034671
vt 0.709365 0.031496
vt 0.709533 0.031254
vt 0.716179 0.031259
vt 0.716545 0.031545
vt 0.730960 0.039044
vt 0.720148 0.038950
vt 0.719930 0.039014
vt 0.731257 0.039142
vt 0.731374 0.039415
vt 0.731745 0.040476
vt 0.731849 0.041227
vt 0.731759 0.041982
vt 0.731466 0.042612
vt 0.730925 0.042879
vt 0.723694 0.042874
vt 0.730155 0.042930
vt 0.722408 0.042558
vt 0.721546 0.041869
vt 0.721024 0.041162
vt 0.720708 0.040640
vt 0.719885 0.039229
vt 0.743478 0.039797
vt 0.739790 0.031595
vt 0.739535 0.031603
vt 0.739750 0.031289
vt 0.744793 0.042528
vt 0.739298 0.042607
vt 0.744637 0.042701
vt 0.739009 0.042840
vt 0.739009 0.042861
vt 0.739567 0.044494
vt 0.758792 0.044903
vt 0.739909 0.044695
vt 0.759009 0.044644
vt 0.758792 0.044925
vt 0.758432 0.042993
vt 0.758184 0.042837
vt 0.752042 0.042686
vt 0.752209 0.042772
vt 0.747993 0.034357
vt 0.747993 0.034335
vt 0.746644 0.031581
vt 0.746280 0.031326
vt 0.676416 0.037761
vt 0.681822 0.044202
vt 0.635963 0.038669
vt 0.634844 0.035518
vt 0.634621 0.035549
vt 0.628376 0.039174
vt 0.626988 0.035137
vt 0.630402 0.044360
vt 0.625600 0.031079
vt 0.642210 0.035649
vt 0.761230 0.039009
vt 0.767018 0.035674
vt 0.742164 0.037066
vt 0.740850 0.034335
vt 0.747822 0.034481
vt 0.749343 0.037112
vt 0.750692 0.039910
vt 0.750692 0.039888
vt 0.743739 0.039803
vt 0.749173 0.037261
vt 0.739535 0.031582
vt 0.749343 0.037133
vt 0.719030 0.036969
vt 0.729314 0.034301
vt 0.637159 0.042636
vt 0.721286 0.044573
vt 0.733617 0.039350
vt 0.730496 0.037202
vt 0.781688 0.037066
vt 0.772110 0.031262
s 1
f 309/1/1 308/2/2 307/3/3
f 331/4/4 334/5/5 333/6/6
f 312/7/7 309/1/1 311/8/8
f 670/9/9 330/10/10 672/11/11
f 689/12/12 699/13/13 690/14/14
f 375/15/15 379/16/16 376/17/17
f 376/17/17 378/18/18 374/19/19
f 372/20/20 376/17/17 373/21/21
f 373/21/21 374/19/19 371/22/22
f 316/23/23 313/24/24 315/25/25
f 372/20/20 370/26/26 369/27/27
f 373/21/21 368/28/28 370/26/26
f 369/27/27 367/29/29 366/30/30
f 370/26/26 365/31/31 367/29/29
f 664/32/32 379/16/16 665/33/33
f 379/16/16 666/34/34 665/33/33
f 317/35/35 316/23/23 315/25/25
f 363/36/36 367/29/29 364/37/37
f 367/29/29 362/38/38 364/37/37
f 681/39/39 364/37/37 682/40/40
f 364/37/37 683/41/41 682/40/40
f 319/42/42 318/43/43 317/35/35
f 360/44/44 358/45/45 357/46/46
f 358/45/45 359/47/47 356/48/48
f 321/49/49 320/50/50 319/42/42
f 357/46/46 355/51/51 354/52/52
f 355/51/51 356/48/48 353/53/53
f 351/54/54 355/51/51 352/55/55
f 352/55/55 353/53/53 350/56/56
f 335/57/57 340/58/58 337/59/59
f 340/58/58 336/60/60 337/59/59
f 348/61/61 352/55/55 349/62/62
f 349/62/62 350/56/56 347/63/63
f 341/64/64 340/58/58 338/65/65
f 343/66/66 339/67/67 340/58/58
f 345/68/64 349/62/62 346/69/68
f 346/69/68 347/63/63 344/70/69
f 345/68/64 343/66/66 341/64/64
f 343/66/66 344/70/69 342/71/70
f 323/72/71 322/73/72 321/49/49
f 326/74/73 323/72/71 325/75/74
f 330/10/10 327/76/75 328/77/76
f 328/77/76 326/74/73 325/75/74
f 404/78/77 402/79/78 403/80/79
f 406/81/80 405/82/81 404/78/77
f 408/83/82 407/84/83 406/81/80
f 442/85/84 440/86/85 441/87/86
f 444/88/84 443/89/87 442/85/84
f 447/90/88 444/88/84 446/91/89
f 661/92/90 438/93/91 439/94/92
f 678/95/93 669/96/94 668/97/95
f 411/98/96 655/99/97 410/100/98
f 449/101/99 658/102/97 448/103/100
f 441/87/86 662/104/101 661/92/90
f 412/105/102 411/98/96 410/100/98
f 401/106/103 398/107/104 399/108/105
f 399/108/105 396/109/106 397/110/107
f 438/93/91 437/111/108 439/94/92
f 396/109/106 395/112/109 397/110/107
f 414/113/110 413/114/111 412/105/102
f 382/115/112 381/116/113 380/117/114
f 436/118/115 435/119/116 437/111/108
f 394/120/117 393/121/118 395/112/109
f 385/122/119 382/115/112 384/123/120
f 416/124/121 415/125/122 414/113/110
f 392/126/123 391/127/124 393/121/118
f 434/128/125 433/129/126 435/119/116
f 386/130/127 385/122/119 384/123/120
f 390/131/128 389/132/129 391/127/124
f 389/132/129 387/133/130 386/130/127
f 418/134/131 417/135/132 416/124/121
f 432/136/133 431/137/134 433/129/126
f 420/138/135 419/139/136 418/134/131
f 430/140/137 429/141/138 431/137/134
f 422/142/139 421/143/140 420/138/135
f 429/141/138 426/144/141 427/145/142
f 427/145/142 424/146/143 425/147/144
f 424/146/143 422/142/139 425/147/144
f 500/148/145 498/149/146 499/150/147
f 502/151/148 501/152/149 500/148/145
f 498/149/146 497/153/150 499/150/147
f 496/154/151 495/155/152 497/153/150
f 505/156/153 502/151/148 504/157/154
f 495/155/152 492/158/155 493/159/156
f 493/159/156 490/160/157 491/161/158
f 509/162/159 507/163/160 508/164/161
f 506/165/162 504/157/154 507/163/160
f 511/166/163 508/164/161 510/167/164
f 513/168/165 510/167/164 512/169/166
f 450/170/167 513/168/165 512/169/166
f 491/161/158 488/171/168 489/172/169
f 452/173/170 451/174/171 450/170/167
f 489/172/169 486/175/172 487/176/173
f 454/177/174 453/178/175 452/173/170
f 486/175/172 485/179/176 487/176/173
f 484/180/177 483/181/178 485/179/176
f 457/182/179 454/177/174 456/183/180
f 459/184/181 456/183/180 458/185/182
f 482/186/183 481/187/184 483/181/178
f 460/188/185 459/184/181 458/185/182
f 462/189/186 461/190/187 460/188/185
f 480/191/188 479/192/189 481/187/184
f 464/193/190 463/194/191 462/189/186
f 466/195/192 465/196/193 464/193/190
f 469/197/194 466/195/192 468/198/195
f 478/199/196 477/200/197 479/192/189
f 476/201/198 475/202/199 477/200/197
f 470/203/200 469/197/194 468/198/195
f 475/202/199 472/204/201 473/205/144
f 472/204/201 470/203/200 473/205/144
f 546/206/202 544/207/203 545/208/204
f 545/208/204 542/209/203 543/210/205
f 542/209/203 541/211/206 543/210/205
f 549/212/207 546/206/202 548/213/208
f 550/214/209 549/212/207 548/213/208
f 540/215/210 539/216/211 541/211/206
f 552/217/212 551/218/213 550/214/209
f 538/219/214 537/220/215 539/216/211
f 595/221/216 594/222/217 593/223/218
f 597/224/219 592/225/220 594/222/217
f 554/226/221 553/227/222 552/217/212
f 536/228/223 535/229/224 537/220/215
f 595/221/216 600/230/225 597/224/219
f 597/224/219 599/231/226 596/232/227
f 593/223/218 591/233/228 590/234/229
f 594/222/217 589/235/230 591/233/228
f 598/236/231 603/237/232 600/230/225
f 600/230/225 602/238/233 599/231/226
f 587/239/234 591/233/228 588/240/235
f 591/233/228 586/241/236 588/240/235
f 604/242/237 603/237/232 601/243/238
f 603/237/232 605/244/239 602/238/233
f 556/245/240 555/246/241 554/226/221
f 584/247/242 588/240/235 585/248/243
f 588/240/235 583/249/244 585/248/243
f 607/250/245 606/251/246 604/242/237
f 606/251/246 608/252/247 605/244/239
f 534/253/248 533/254/249 535/229/224
f 581/255/250 585/248/243 582/256/251
f 585/248/243 580/257/252 582/256/251
f 610/258/253 609/259/254 607/250/245
f 609/259/254 611/260/255 608/252/247
f 558/261/256 557/262/257 556/245/240
f 578/263/258 582/256/251 579/264/259
f 582/256/251 577/265/260 579/264/259
f 610/258/253 615/266/261 612/267/262
f 612/267/262 614/268/263 611/260/255
f 716/269/264 530/270/265 531/271/266
f 578/263/258 576/272/267 575/273/268
f 579/264/259 574/274/269 576/272/267
f 613/275/270 618/276/271 615/266/261
f 615/266/261 617/277/272 614/268/263
f 572/278/273 576/272/267 573/279/274
f 576/272/267 571/280/275 573/279/274
f 569/281/276 573/279/274 570/282/277
f 573/279/274 568/283/278 570/282/277
f 523/284/279 520/285/280 522/286/281
f 558/261/256 708/287/282 559/288/283
f 568/283/278 618/276/271 570/282/277
f 618/276/271 569/281/276 570/282/277
f 566/289/284 711/290/285 710/291/286
f 518/292/287 516/293/288 519/294/289
f 710/291/286 515/295/290 514/296/291
f 525/297/292 713/298/293 524/299/294
f 533/254/249 717/300/295 716/269/264
f 528/301/296 527/302/144 526/303/297
f 531/271/266 529/304/298 528/301/296
f 564/305/200 567/306/299 566/289/284
f 563/307/300 560/308/301 562/309/302
f 565/310/303 563/307/300 562/309/302
f 633/311/5 631/312/304 632/313/305
f 636/314/306 633/311/5 635/315/307
f 632/313/305 629/316/308 630/317/84
f 638/318/309 635/315/307 637/319/310
f 629/316/308 628/320/311 630/317/84
f 640/321/312 637/319/310 639/322/313
f 628/320/311 625/323/314 626/324/315
f 626/324/315 623/325/316 624/326/315
f 642/327/317 639/322/313 641/328/315
f 644/329/318 641/328/315 643/330/319
f 624/326/315 621/331/320 622/332/321
f 696/333/322 644/329/318 643/330/319
f 561/334/323 707/335/324 560/308/301
f 702/336/325 690/14/14 700/337/326
f 647/338/327 650/339/328 649/340/329
f 648/341/330 646/342/331 645/343/332
f 251/344/207 201/345/333 202/346/334
f 249/347/335 252/348/336 251/344/207
f 204/349/337 201/345/333 203/350/338
f 205/351/339 204/349/337 203/350/338
f 249/347/335 248/352/340 250/353/341
f 207/354/342 206/355/343 205/351/339
f 247/356/344 246/357/345 248/352/340
f 280/358/346 279/359/347 278/360/348
f 282/361/349 277/362/350 279/359/347
f 209/363/351 208/364/352 207/354/342
f 245/365/353 244/366/354 246/357/345
f 272/367/355 276/368/356 273/369/357
f 273/369/357 275/370/161 271/371/358
f 274/372/359 279/359/347 276/368/356
f 279/359/347 275/370/161 276/368/356
f 269/373/360 273/369/357 270/374/361
f 270/374/361 271/371/358 268/375/362
f 283/376/363 282/361/349 280/358/346
f 285/377/364 281/378/365 282/361/349
f 266/379/366 270/374/361 267/380/367
f 270/374/361 265/381/368 267/380/367
f 286/382/369 285/377/364 283/376/363
f 285/377/364 287/383/370 284/384/371
f 211/385/372 210/386/373 209/363/351
f 243/387/374 242/388/375 244/366/354
f 685/389/376 267/380/367 686/390/377
f 267/380/367 687/391/378 686/390/377
f 289/392/379 288/393/380 286/382/369
f 288/393/380 290/394/381 287/383/370
f 214/395/382 211/385/372 213/396/383
f 241/397/384 240/398/385 242/388/375
f 289/392/379 294/399/386 291/400/387
f 294/399/386 290/394/381 291/400/387
f 216/401/388 213/396/383 215/402/389
f 240/398/385 237/403/390 238/404/391
f 218/405/392 215/402/389 217/406/393
f 292/407/394 297/408/395 294/399/386
f 297/408/395 293/409/396 294/399/386
f 263/410/397 261/411/398 260/412/399
f 261/411/398 262/413/400 259/414/401
f 238/404/391 235/415/402 236/416/403
f 220/417/404 217/406/393 219/418/405
f 295/419/406 300/420/407 297/408/395
f 300/420/407 296/421/408 297/408/395
f 260/412/399 258/422/409 257/423/410
f 261/411/398 256/424/411 258/422/409
f 236/416/403 233/425/412 234/426/413
f 298/427/414 303/428/415 300/420/407
f 303/428/415 299/429/416 300/420/407
f 234/426/413 231/430/417 232/431/418
f 257/423/410 255/432/419 254/433/420
f 258/422/409 253/434/421 255/432/419
f 301/435/422 306/436/423 303/428/415
f 303/428/415 305/437/424 302/438/425
f 305/437/424 255/432/419 253/434/421
f 255/432/419 304/439/426 254/433/420
f 222/440/427 219/418/405 221/441/428
f 224/442/429 221/441/428 223/443/430
f 232/431/418 229/444/431 230/445/432
f 225/446/433 224/442/429 223/443/430
f 227/447/434 226/448/435 225/446/433
f 229/444/431 227/447/434 230/445/432
f 403/80/79 653/449/436 652/450/437
f 252/348/336 1/451/438 201/345/333
f 251/344/207 281/378/365 249/347/335
f 201/345/333 2/452/439 203/350/338
f 203/350/338 3/453/440 205/351/339
f 205/351/339 4/454/441 207/354/342
f 207/354/342 5/455/442 209/363/351
f 209/363/351 6/456/443 211/385/372
f 213/396/383 6/456/443 7/457/444
f 215/402/389 7/457/444 8/458/445
f 217/406/393 8/458/445 9/459/446
f 219/418/405 9/459/446 10/460/447
f 221/441/428 10/460/447 11/461/448
f 223/443/430 11/461/448 12/462/449
f 225/446/433 12/462/449 13/463/450
f 227/447/434 13/463/450 14/464/451
f 227/447/434 15/465/452 230/445/432
f 230/445/432 16/466/453 232/431/418
f 232/431/418 17/467/454 234/426/413
f 234/426/413 18/468/455 236/416/403
f 236/416/403 19/469/456 238/404/391
f 238/404/391 20/470/457 240/398/385
f 240/398/385 21/471/458 242/388/375
f 242/388/375 22/472/459 244/366/354
f 246/357/345 22/472/459 23/473/460
f 249/347/335 284/384/371 247/356/344
f 248/352/340 23/473/460 24/474/461
f 250/353/341 24/474/461 25/475/462
f 252/348/336 25/475/462 26/476/463
f 254/433/420 28/477/464 257/423/410
f 254/433/420 44/478/465 27/479/466
f 257/423/410 29/480/467 260/412/399
f 260/412/399 30/481/468 263/410/397
f 263/410/397 684/482/469 685/389/376
f 269/373/360 31/483/470 32/484/471
f 272/367/355 32/484/471 33/485/472
f 274/372/359 33/485/472 34/486/473
f 278/360/348 34/486/473 35/487/474
f 278/360/348 36/488/475 280/358/346
f 280/358/346 37/489/476 283/376/363
f 283/376/363 38/490/477 286/382/369
f 286/382/369 39/491/478 289/392/379
f 292/407/394 39/491/478 40/492/479
f 295/419/406 40/492/479 41/493/480
f 298/427/414 41/493/480 42/494/481
f 301/435/422 42/494/481 43/495/482
f 304/439/426 43/495/482 44/478/465
f 308/2/2 58/496/483 333/6/6
f 308/2/2 46/497/484 45/498/485
f 310/499/486 47/500/487 46/497/484
f 312/7/7 48/501/488 47/500/487
f 314/502/489 49/503/490 48/501/488
f 318/43/43 49/503/490 316/23/23
f 320/50/50 50/504/491 318/43/43
f 322/73/72 51/505/492 320/50/50
f 324/506/493 52/507/494 322/73/72
f 326/74/73 53/508/495 324/506/493
f 327/76/75 54/509/496 326/74/73
f 327/76/75 56/510/497 55/511/498
f 331/4/4 677/512/499 679/513/500
f 333/6/6 57/514/501 331/4/4
f 336/60/60 675/515/502 676/516/503
f 339/67/67 59/517/504 336/60/60
f 342/71/70 60/518/505 339/67/67
f 342/71/70 62/519/506 61/520/507
f 344/70/69 63/521/508 62/519/506
f 347/63/63 64/522/509 63/521/508
f 350/56/56 65/523/510 64/522/509
f 353/53/53 66/524/511 65/523/510
f 356/48/48 67/525/512 66/524/511
f 362/38/38 680/526/513 683/41/41
f 365/31/31 68/527/514 362/38/38
f 368/28/28 69/528/515 365/31/31
f 371/22/22 70/529/516 368/28/28
f 371/22/22 72/530/517 71/531/518
f 374/19/19 73/532/519 72/530/517
f 381/116/113 108/533/520 449/101/99
f 389/132/129 386/130/127 425/147/144
f 383/534/521 74/535/522 381/116/113
f 385/122/119 75/536/523 383/534/521
f 387/133/130 76/537/524 385/122/119
f 387/133/130 78/538/525 77/539/526
f 388/540/527 79/541/528 78/538/525
f 390/131/128 80/542/529 79/541/528
f 392/126/123 81/543/530 80/542/529
f 394/120/117 82/544/531 81/543/530
f 396/109/106 83/545/532 82/544/531
f 398/107/104 84/546/533 83/545/532
f 402/79/78 651/547/534 653/449/436
f 405/82/81 85/548/535 402/79/78
f 405/82/81 87/549/536 86/550/537
f 407/84/83 88/551/538 87/549/536
f 656/552/539 89/553/540 654/554/541
f 413/114/111 89/553/540 411/98/96
f 415/125/122 90/555/542 413/114/111
f 417/135/132 91/556/543 415/125/122
f 419/139/136 92/557/544 417/135/132
f 421/143/140 93/558/545 419/139/136
f 423/559/546 94/560/547 421/143/140
f 424/146/143 95/561/548 423/559/546
f 424/146/143 97/562/549 96/563/550
f 426/144/141 98/564/551 97/562/549
f 428/565/552 99/566/553 98/564/551
f 430/140/137 100/567/554 99/566/553
f 432/136/133 101/568/555 100/567/554
f 434/128/125 102/569/556 101/568/555
f 436/118/115 103/570/557 102/569/556
f 440/86/85 660/571/558 662/104/101
f 443/89/87 104/572/559 440/86/85
f 443/89/87 106/573/560 105/574/561
f 445/575/562 107/576/563 106/573/560
f 659/577/564 108/533/520 657/578/565
f 513/168/165 109/579/566 140/580/567
f 450/170/167 493/159/156 452/173/170
f 451/174/171 110/581/568 109/579/566
f 455/582/569 110/581/568 453/178/175
f 457/182/179 111/583/570 455/582/569
f 459/184/181 112/584/571 457/182/179
f 461/190/187 113/585/572 459/184/181
f 463/194/191 114/586/573 461/190/187
f 463/194/191 116/587/574 115/588/575
f 467/589/576 116/587/574 465/196/193
f 469/197/194 117/590/577 467/589/576
f 471/591/578 118/592/579 469/197/194
f 472/204/201 119/593/580 471/591/578
f 472/204/201 121/594/581 120/595/582
f 474/596/583 122/597/584 121/594/581
f 476/201/198 123/598/585 122/597/584
f 478/199/196 124/599/586 123/598/585
f 480/191/188 125/600/587 124/599/586
f 482/186/183 126/601/588 125/600/587
f 484/180/177 127/602/589 126/601/588
f 486/175/172 128/603/590 127/602/589
f 490/160/157 128/603/590 488/171/168
f 492/158/155 129/604/591 490/160/157
f 494/605/592 130/606/593 492/158/155
f 496/154/151 131/607/594 494/605/592
f 498/149/146 132/608/595 496/154/151
f 501/152/149 133/609/596 498/149/146
f 501/152/149 135/610/597 134/611/598
f 503/612/599 136/613/600 135/610/597
f 505/156/153 137/614/601 136/613/600
f 506/165/162 138/615/602 137/614/601
f 509/162/159 139/616/603 138/615/602
f 511/166/163 140/580/567 139/616/603
f 515/295/290 142/617/604 516/293/288
f 517/618/605 569/281/276 616/619/606
f 567/306/299 709/620/607 711/290/285
f 516/293/288 143/621/608 519/294/289
f 520/285/280 143/621/608 144/622/609
f 522/286/281 144/622/609 145/623/610
f 713/298/293 145/623/610 712/624/611
f 526/303/297 146/625/612 147/626/613
f 526/303/297 148/627/614 528/301/296
f 528/301/296 149/628/615 531/271/266
f 531/271/266 715/629/616 716/269/264
f 535/229/224 150/630/617 151/631/618
f 536/228/223 587/239/234 584/247/242
f 537/220/215 151/631/618 152/632/619
f 539/216/211 152/632/619 153/633/620
f 541/211/206 153/633/620 154/634/621
f 543/210/205 154/634/621 155/635/622
f 545/208/204 155/635/622 156/636/623
f 545/208/204 157/637/624 546/206/202
f 546/206/202 158/638/625 548/213/208
f 548/213/208 159/639/626 550/214/209
f 550/214/209 160/640/627 552/217/212
f 552/217/212 161/641/628 554/226/221
f 554/226/221 162/642/629 556/245/240
f 558/261/256 162/642/629 163/643/630
f 707/335/324 163/643/630 706/644/631
f 562/309/302 164/645/632 165/646/633
f 562/309/302 166/647/634 565/310/303
f 565/310/303 167/648/635 567/306/299
f 568/283/278 169/649/636 168/650/637
f 568/283/278 184/651/638 617/277/272
f 571/280/275 170/652/639 169/649/636
f 574/274/269 171/653/640 170/652/639
f 580/257/252 171/653/640 577/265/260
f 583/249/244 172/654/641 580/257/252
f 586/241/236 173/655/642 583/249/244
f 589/235/230 174/656/643 586/241/236
f 592/225/220 175/657/644 589/235/230
f 596/232/227 176/658/645 592/225/220
f 596/232/227 178/659/646 177/660/647
f 599/231/226 179/661/648 178/659/646
f 602/238/233 180/662/649 179/661/648
f 605/244/239 181/663/650 180/662/649
f 608/252/247 182/664/651 181/663/650
f 611/260/255 183/665/652 182/664/651
f 617/277/272 183/665/652 614/268/263
f 621/331/320 697/666/653 699/13/13
f 620/667/654 648/341/330 645/343/332
f 649/340/329 185/668/655 200/669/656
f 623/325/316 186/670/657 621/331/320
f 623/325/316 188/671/658 187/672/659
f 627/673/660 188/671/658 625/323/314
f 629/316/308 189/674/661 627/673/660
f 631/312/304 190/675/662 629/316/308
f 634/676/663 191/677/664 631/312/304
f 634/676/663 193/678/665 192/679/666
f 636/314/306 194/680/667 193/678/665
f 638/318/309 195/681/668 194/680/667
f 642/327/317 195/681/668 640/321/312
f 642/327/317 197/682/669 196/683/670
f 646/342/331 703/684/671 705/685/672
f 647/338/327 198/686/673 646/342/331
f 647/338/327 200/669/656 199/687/674
f 632/313/305 624/326/315 641/328/315
f 653/449/436 84/546/533 400/688/675
f 408/83/82 656/552/539 409/689/676
f 409/689/676 654/554/541 88/551/538
f 446/91/89 659/577/564 447/90/88
f 447/90/88 657/578/565 107/576/563
f 448/103/100 381/116/113 449/101/99
f 438/93/91 660/571/558 103/570/557
f 652/450/437 400/688/675 401/106/103
f 378/18/18 663/690/677 73/532/519
f 673/691/678 666/34/34 674/692/44
f 664/32/32 673/691/678 676/516/503
f 670/9/9 667/693/679 671/694/680
f 332/695/5 679/513/500 678/95/93
f 314/502/489 311/8/8 313/24/24
f 329/696/681 671/694/680 56/510/497
f 676/516/503 337/59/59 336/60/60
f 337/59/59 674/692/44 335/57/57
f 676/516/503 663/690/677 664/32/32
f 674/692/44 668/97/95 672/11/11
f 360/44/44 317/35/35 315/25/25
f 679/513/500 667/693/679 669/96/94
f 672/11/11 669/96/94 670/9/9
f 666/34/34 678/95/93 668/97/95
f 348/61/61 345/68/64 325/75/74
f 359/47/47 680/526/513 67/525/512
f 361/697/682 683/41/41 359/47/47
f 681/39/39 361/697/682 360/44/44
f 360/44/44 315/25/25 681/39/39
f 363/36/36 681/39/39 315/25/25
f 372/20/20 369/27/27 307/3/3
f 275/370/161 277/362/350 251/344/207
f 287/383/370 243/387/374 245/365/353
f 284/384/371 245/365/353 247/356/344
f 268/375/362 202/346/334 204/349/337
f 265/381/368 204/349/337 206/355/343
f 210/386/373 206/355/343 208/364/352
f 687/391/378 210/386/373 212/698/683
f 266/379/366 684/482/469 31/483/470
f 264/699/684 687/391/378 262/413/400
f 685/389/376 264/699/684 263/410/397
f 262/413/400 212/698/683 214/395/382
f 241/397/384 243/387/374 290/394/381
f 235/415/402 293/409/396 296/421/408
f 233/425/412 296/421/408 299/429/416
f 231/430/417 299/429/416 302/438/425
f 231/430/417 305/437/424 229/444/431
f 259/414/401 214/395/382 216/401/388
f 220/417/404 222/440/427 224/442/429
f 700/337/326 688/700/685 701/701/686
f 645/343/332 705/685/672 704/702/687
f 693/703/688 695/704/689 694/705/690
f 621/331/320 698/706/691 622/332/321
f 700/337/326 620/667/654 702/336/325
f 644/329/318 695/704/689 197/682/669
f 690/14/14 697/666/653 688/700/685
f 704/702/687 693/703/688 692/707/692
f 650/339/328 619/708/693 649/340/329
f 619/708/693 701/701/686 185/668/655
f 705/685/672 691/709/694 693/703/688
f 692/707/692 694/705/690 696/333/322
f 560/308/301 706/644/631 164/645/632
f 517/618/605 515/295/290 516/293/288
f 711/290/285 141/710/695 515/295/290
f 522/286/281 714/711/696 523/284/279
f 524/299/294 712/624/611 146/625/612
f 527/302/144 524/299/294 526/303/297
f 716/269/264 150/630/617 533/254/249
f 520/285/280 518/292/287 519/294/289
f 334/5/5 308/2/2 333/6/6
f 309/1/1 310/499/486 308/2/2
f 331/4/4 332/695/5 334/5/5
f 312/7/7 310/499/486 309/1/1
f 670/9/9 329/696/681 330/10/10
f 689/12/12 698/706/691 699/13/13
f 375/15/15 377/712/697 379/16/16
f 376/17/17 379/16/16 378/18/18
f 372/20/20 375/15/15 376/17/17
f 373/21/21 376/17/17 374/19/19
f 316/23/23 314/502/489 313/24/24
f 372/20/20 373/21/21 370/26/26
f 373/21/21 371/22/22 368/28/28
f 369/27/27 370/26/26 367/29/29
f 370/26/26 368/28/28 365/31/31
f 664/32/32 378/18/18 379/16/16
f 379/16/16 377/712/697 666/34/34
f 317/35/35 318/43/43 316/23/23
f 363/36/36 366/30/30 367/29/29
f 367/29/29 365/31/31 362/38/38
f 681/39/39 363/36/36 364/37/37
f 364/37/37 362/38/38 683/41/41
f 319/42/42 320/50/50 318/43/43
f 360/44/44 361/697/682 358/45/45
f 358/45/45 361/697/682 359/47/47
f 321/49/49 322/73/72 320/50/50
f 357/46/46 358/45/45 355/51/51
f 355/51/51 358/45/45 356/48/48
f 351/54/54 354/52/52 355/51/51
f 352/55/55 355/51/51 353/53/53
f 335/57/57 338/65/65 340/58/58
f 340/58/58 339/67/67 336/60/60
f 348/61/61 351/54/54 352/55/55
f 349/62/62 352/55/55 350/56/56
f 341/64/64 343/66/66 340/58/58
f 343/66/66 342/71/70 339/67/67
f 345/68/64 348/61/61 349/62/62
f 346/69/68 349/62/62 347/63/63
f 345/68/64 346/69/68 343/66/66
f 343/66/66 346/69/68 344/70/69
f 323/72/71 324/506/493 322/73/72
f 326/74/73 324/506/493 323/72/71
f 330/10/10 329/696/681 327/76/75
f 328/77/76 327/76/75 326/74/73
f 404/78/77 405/82/81 402/79/78
f 406/81/80 407/84/83 405/82/81
f 408/83/82 409/689/676 407/84/83
f 442/85/84 443/89/87 440/86/85
f 444/88/84 445/575/562 443/89/87
f 447/90/88 445/575/562 444/88/84
f 661/92/90 662/104/101 438/93/91
f 678/95/93 679/513/500 669/96/94
f 411/98/96 656/552/539 655/99/97
f 449/101/99 659/577/564 658/102/97
f 441/87/86 440/86/85 662/104/101
f 412/105/102 413/114/111 411/98/96
f 401/106/103 400/688/675 398/107/104
f 399/108/105 398/107/104 396/109/106
f 438/93/91 436/118/115 437/111/108
f 396/109/106 394/120/117 395/112/109
f 414/113/110 415/125/122 413/114/111
f 382/115/112 383/534/521 381/116/113
f 436/118/115 434/128/125 435/119/116
f 394/120/117 392/126/123 393/121/118
f 385/122/119 383/534/521 382/115/112
f 416/124/121 417/135/132 415/125/122
f 392/126/123 390/131/128 391/127/124
f 434/128/125 432/136/133 433/129/126
f 386/130/127 387/133/130 385/122/119
f 390/131/128 388/540/527 389/132/129
f 389/132/129 388/540/527 387/133/130
f 418/134/131 419/139/136 417/135/132
f 432/136/133 430/140/137 431/137/134
f 420/138/135 421/143/140 419/139/136
f 430/140/137 428/565/552 429/141/138
f 422/142/139 423/559/546 421/143/140
f 429/141/138 428/565/552 426/144/141
f 427/145/142 426/144/141 424/146/143
f 424/146/143 423/559/546 422/142/139
f 500/148/145 501/152/149 498/149/146
f 502/151/148 503/612/599 501/152/149
f 498/149/146 496/154/151 497/153/150
f 496/154/151 494/605/592 495/155/152
f 505/156/153 503/612/599 502/151/148
f 495/155/152 494/605/592 492/158/155
f 493/159/156 492/158/155 490/160/157
f 509/162/159 506/165/162 507/163/160
f 506/165/162 505/156/153 504/157/154
f 511/166/163 509/162/159 508/164/161
f 513/168/165 511/166/163 510/167/164
f 450/170/167 451/174/171 513/168/165
f 491/161/158 490/160/157 488/171/168
f 452/173/170 453/178/175 451/174/171
f 489/172/169 488/171/168 486/175/172
f 454/177/174 455/582/569 453/178/175
f 486/175/172 484/180/177 485/179/176
f 484/180/177 482/186/183 483/181/178
f 457/182/179 455/582/569 454/177/174
f 459/184/181 457/182/179 456/183/180
f 482/186/183 480/191/188 481/187/184
f 460/188/185 461/190/187 459/184/181
f 462/189/186 463/194/191 461/190/187
f 480/191/188 478/199/196 479/192/189
f 464/193/190 465/196/193 463/194/191
f 466/195/192 467/589/576 465/196/193
f 469/197/194 467/589/576 466/195/192
f 478/199/196 476/201/198 477/200/197
f 476/201/198 474/596/583 475/202/199
f 470/203/200 471/591/578 469/197/194
f 475/202/199 474/596/583 472/204/201
f 472/204/201 471/591/578 470/203/200
f 546/206/202 547/713/207 544/207/203
f 545/208/204 544/207/203 542/209/203
f 542/209/203 540/215/210 541/211/206
f 549/212/207 547/713/207 546/206/202
f 550/214/209 551/218/213 549/212/207
f 540/215/210 538/219/214 539/216/211
f 552/217/212 553/227/222 551/218/213
f 538/219/214 536/228/223 537/220/215
f 595/221/216 597/224/219 594/222/217
f 597/224/219 596/232/227 592/225/220
f 554/226/221 555/246/241 553/227/222
f 536/228/223 534/253/248 535/229/224
f 595/221/216 598/236/231 600/230/225
f 597/224/219 600/230/225 599/231/226
f 593/223/218 594/222/217 591/233/228
f 594/222/217 592/225/220 589/235/230
f 598/236/231 601/243/238 603/237/232
f 600/230/225 603/237/232 602/238/233
f 587/239/234 590/234/229 591/233/228
f 591/233/228 589/235/230 586/241/236
f 604/242/237 606/251/246 603/237/232
f 603/237/232 606/251/246 605/244/239
f 556/245/240 557/262/257 555/246/241
f 584/247/242 587/239/234 588/240/235
f 588/240/235 586/241/236 583/249/244
f 607/250/245 609/259/254 606/251/246
f 606/251/246 609/259/254 608/252/247
f 534/253/248 532/714/698 533/254/249
f 581/255/250 584/247/242 585/248/243
f 585/248/243 583/249/244 580/257/252
f 610/258/253 612/267/262 609/259/254
f 609/259/254 612/267/262 611/260/255
f 558/261/256 559/288/283 557/262/257
f 578/263/258 581/255/250 582/256/251
f 582/256/251 580/257/252 577/265/260
f 610/258/253 613/275/270 615/266/261
f 612/267/262 615/266/261 614/268/263
f 716/269/264 717/300/295 530/270/265
f 578/263/258 579/264/259 576/272/267
f 579/264/259 577/265/260 574/274/269
f 613/275/270 616/619/606 618/276/271
f 615/266/261 618/276/271 617/277/272
f 572/278/273 575/273/268 576/272/267
f 576/272/267 574/274/269 571/280/275
f 569/281/276 572/278/273 573/279/274
f 573/279/274 571/280/275 568/283/278
f 523/284/279 521/715/699 520/285/280
f 558/261/256 707/335/324 708/287/282
f 568/283/278 617/277/272 618/276/271
f 618/276/271 616/619/606 569/281/276
f 566/289/284 567/306/299 711/290/285
f 518/292/287 517/618/605 516/293/288
f 710/291/286 711/290/285 515/295/290
f 525/297/292 714/711/696 713/298/293
f 533/254/249 532/714/698 717/300/295
f 528/301/296 529/304/298 527/302/144
f 531/271/266 530/270/265 529/304/298
f 564/305/200 565/310/303 567/306/299
f 563/307/300 561/334/323 560/308/301
f 565/310/303 564/305/200 563/307/300
f 633/311/5 634/676/663 631/312/304
f 636/314/306 634/676/663 633/311/5
f 632/313/305 631/312/304 629/316/308
f 638/318/309 636/314/306 635/315/307
f 629/316/308 627/673/660 628/320/311
f 640/321/312 638/318/309 637/319/310
f 628/320/311 627/673/660 625/323/314
f 626/324/315 625/323/314 623/325/316
f 642/327/317 640/321/312 639/322/313
f 644/329/318 642/327/317 641/328/315
f 624/326/315 623/325/316 621/331/320
f 696/333/322 694/705/690 644/329/318
f 561/334/323 708/287/282 707/335/324
f 702/336/325 689/12/12 690/14/14
f 647/338/327 648/341/330 650/339/328
f 648/341/330 647/338/327 646/342/331
f 251/344/207 252/348/336 201/345/333
f 249/347/335 250/353/341 252/348/336
f 204/349/337 202/346/334 201/345/333
f 205/351/339 206/355/343 204/349/337
f 249/347/335 247/356/344 248/352/340
f 207/354/342 208/364/352 206/355/343
f 247/356/344 245/365/353 246/357/345
f 280/358/346 282/361/349 279/359/347
f 282/361/349 281/378/365 277/362/350
f 209/363/351 210/386/373 208/364/352
f 245/365/353 243/387/374 244/366/354
f 272/367/355 274/372/359 276/368/356
f 273/369/357 276/368/356 275/370/161
f 274/372/359 278/360/348 279/359/347
f 279/359/347 277/362/350 275/370/161
f 269/373/360 272/367/355 273/369/357
f 270/374/361 273/369/357 271/371/358
f 283/376/363 285/377/364 282/361/349
f 285/377/364 284/384/371 281/378/365
f 266/379/366 269/373/360 270/374/361
f 270/374/361 268/375/362 265/381/368
f 286/382/369 288/393/380 285/377/364
f 285/377/364 288/393/380 287/383/370
f 211/385/372 212/698/683 210/386/373
f 243/387/374 241/397/384 242/388/375
f 685/389/376 266/379/366 267/380/367
f 267/380/367 265/381/368 687/391/378
f 289/392/379 291/400/387 288/393/380
f 288/393/380 291/400/387 290/394/381
f 214/395/382 212/698/683 211/385/372
f 241/397/384 239/716/700 240/398/385
f 289/392/379 292/407/394 294/399/386
f 294/399/386 293/409/396 290/394/381
f 216/401/388 214/395/382 213/396/383
f 240/398/385 239/716/700 237/403/390
f 218/405/392 216/401/388 215/402/389
f 292/407/394 295/419/406 297/408/395
f 297/408/395 296/421/408 293/409/396
f 263/410/397 264/699/684 261/411/398
f 261/411/398 264/699/684 262/413/400
f 238/404/391 237/403/390 235/415/402
f 220/417/404 218/405/392 217/406/393
f 295/419/406 298/427/414 300/420/407
f 300/420/407 299/429/416 296/421/408
f 260/412/399 261/411/398 258/422/409
f 261/411/398 259/414/401 256/424/411
f 236/416/403 235/415/402 233/425/412
f 298/427/414 301/435/422 303/428/415
f 303/428/415 302/438/425 299/429/416
f 234/426/413 233/425/412 231/430/417
f 257/423/410 258/422/409 255/432/419
f 258/422/409 256/424/411 253/434/421
f 301/435/422 304/439/426 306/436/423
f 303/428/415 306/436/423 305/437/424
f 305/437/424 306/436/423 255/432/419
f 255/432/419 306/436/423 304/439/426
f 222/440/427 220/417/404 219/418/405
f 224/442/429 222/440/427 221/441/428
f 232/431/418 231/430/417 229/444/431
f 225/446/433 226/448/435 224/442/429
f 227/447/434 228/717/701 226/448/435
f 229/444/431 228/717/701 227/447/434
f 403/80/79 402/79/78 653/449/436
f 252/348/336 26/476/463 1/451/438
f 251/344/207 277/362/350 281/378/365
f 201/345/333 1/451/438 2/452/439
f 203/350/338 2/452/439 3/453/440
f 205/351/339 3/453/440 4/454/441
f 207/354/342 4/454/441 5/455/442
f 209/363/351 5/455/442 6/456/443
f 213/396/383 211/385/372 6/456/443
f 215/402/389 213/396/383 7/457/444
f 217/406/393 215/402/389 8/458/445
f 219/418/405 217/406/393 9/459/446
f 221/441/428 219/418/405 10/460/447
f 223/443/430 221/441/428 11/461/448
f 225/446/433 223/443/430 12/462/449
f 227/447/434 225/446/433 13/463/450
f 227/447/434 14/464/451 15/465/452
f 230/445/432 15/465/452 16/466/453
f 232/431/418 16/466/453 17/467/454
f 234/426/413 17/467/454 18/468/455
f 236/416/403 18/468/455 19/469/456
f 238/404/391 19/469/456 20/470/457
f 240/398/385 20/470/457 21/471/458
f 242/388/375 21/471/458 22/472/459
f 246/357/345 244/366/354 22/472/459
f 249/347/335 281/378/365 284/384/371
f 248/352/340 246/357/345 23/473/460
f 250/353/341 248/352/340 24/474/461
f 252/348/336 250/353/341 25/475/462
f 254/433/420 27/479/466 28/477/464
f 254/433/420 304/439/426 44/478/465
f 257/423/410 28/477/464 29/480/467
f 260/412/399 29/480/467 30/481/468
f 263/410/397 30/481/468 684/482/469
f 269/373/360 266/379/366 31/483/470
f 272/367/355 269/373/360 32/484/471
f 274/372/359 272/367/355 33/485/472
f 278/360/348 274/372/359 34/486/473
f 278/360/348 35/487/474 36/488/475
f 280/358/346 36/488/475 37/489/476
f 283/376/363 37/489/476 38/490/477
f 286/382/369 38/490/477 39/491/478
f 292/407/394 289/392/379 39/491/478
f 295/419/406 292/407/394 40/492/479
f 298/427/414 295/419/406 41/493/480
f 301/435/422 298/427/414 42/494/481
f 304/439/426 301/435/422 43/495/482
f 308/2/2 45/498/485 58/496/483
f 308/2/2 310/499/486 46/497/484
f 310/499/486 312/7/7 47/500/487
f 312/7/7 314/502/489 48/501/488
f 314/502/489 316/23/23 49/503/490
f 318/43/43 50/504/491 49/503/490
f 320/50/50 51/505/492 50/504/491
f 322/73/72 52/507/494 51/505/492
f 324/506/493 53/508/495 52/507/494
f 326/74/73 54/509/496 53/508/495
f 327/76/75 55/511/498 54/509/496
f 327/76/75 329/696/681 56/510/497
f 331/4/4 57/514/501 677/512/499
f 333/6/6 58/496/483 57/514/501
f 336/60/60 59/517/504 675/515/502
f 339/67/67 60/518/505 59/517/504
f 342/71/70 61/520/507 60/518/505
f 342/71/70 344/70/69 62/519/506
f 344/70/69 347/63/63 63/521/508
f 347/63/63 350/56/56 64/522/509
f 350/56/56 353/53/53 65/523/510
f 353/53/53 356/48/48 66/524/511
f 356/48/48 359/47/47 67/525/512
f 362/38/38 68/527/514 680/526/513
f 365/31/31 69/528/515 68/527/514
f 368/28/28 70/529/516 69/528/515
f 371/22/22 71/531/518 70/529/516
f 371/22/22 374/19/19 72/530/517
f 374/19/19 378/18/18 73/532/519
f 381/116/113 74/535/522 108/533/520
f 412/105/102 410/100/98 401/106/103
f 410/100/98 655/99/97 652/450/437
f 401/106/103 410/100/98 652/450/437
f 655/99/97 408/83/82 404/78/77
f 408/83/82 406/81/80 404/78/77
f 655/99/97 404/78/77 403/80/79
f 403/80/79 652/450/437 655/99/97
f 416/124/121 414/113/110 397/110/107
f 414/113/110 412/105/102 397/110/107
f 420/138/135 418/134/131 393/121/118
f 418/134/131 416/124/121 395/112/109
f 425/147/144 422/142/139 389/132/129
f 422/142/139 420/138/135 391/127/124
f 389/132/129 422/142/139 391/127/124
f 429/141/138 427/145/142 433/129/126
f 427/145/142 425/147/144 386/130/127
f 433/129/126 431/137/134 429/141/138
f 437/111/108 435/119/116 427/145/142
f 435/119/116 433/129/126 427/145/142
f 661/92/90 439/94/92 380/117/114
f 439/94/92 437/111/108 427/145/142
f 380/117/114 439/94/92 382/115/112
f 442/85/84 441/87/86 661/92/90
f 446/91/89 444/88/84 658/102/97
f 444/88/84 442/85/84 658/102/97
f 442/85/84 661/92/90 658/102/97
f 427/145/142 386/130/127 384/123/120
f 418/134/131 395/112/109 393/121/118
f 412/105/102 401/106/103 399/108/105
f 661/92/90 380/117/114 448/103/100
f 448/103/100 658/102/97 661/92/90
f 416/124/121 397/110/107 395/112/109
f 412/105/102 399/108/105 397/110/107
f 382/115/112 439/94/92 427/145/142
f 384/123/120 382/115/112 427/145/142
f 420/138/135 393/121/118 391/127/124
f 383/534/521 75/536/523 74/535/522
f 385/122/119 76/537/524 75/536/523
f 387/133/130 77/539/526 76/537/524
f 387/133/130 388/540/527 78/538/525
f 388/540/527 390/131/128 79/541/528
f 390/131/128 392/126/123 80/542/529
f 392/126/123 394/120/117 81/543/530
f 394/120/117 396/109/106 82/544/531
f 396/109/106 398/107/104 83/545/532
f 398/107/104 400/688/675 84/546/533
f 402/79/78 85/548/535 651/547/534
f 405/82/81 86/550/537 85/548/535
f 405/82/81 407/84/83 87/549/536
f 407/84/83 409/689/676 88/551/538
f 656/552/539 411/98/96 89/553/540
f 413/114/111 90/555/542 89/553/540
f 415/125/122 91/556/543 90/555/542
f 417/135/132 92/557/544 91/556/543
f 419/139/136 93/558/545 92/557/544
f 421/143/140 94/560/547 93/558/545
f 423/559/546 95/561/548 94/560/547
f 424/146/143 96/563/550 95/561/548
f 424/146/143 426/144/141 97/562/549
f 426/144/141 428/565/552 98/564/551
f 428/565/552 430/140/137 99/566/553
f 430/140/137 432/136/133 100/567/554
f 432/136/133 434/128/125 101/568/555
f 434/128/125 436/118/115 102/569/556
f 436/118/115 438/93/91 103/570/557
f 440/86/85 104/572/559 660/571/558
f 443/89/87 105/574/561 104/572/559
f 443/89/87 445/575/562 106/573/560
f 445/575/562 447/90/88 107/576/563
f 659/577/564 449/101/99 108/533/520
f 513/168/165 451/174/171 109/579/566
f 508/164/161 507/163/160 500/148/145
f 507/163/160 504/157/154 500/148/145
f 504/157/154 502/151/148 500/148/145
f 500/148/145 499/150/147 508/164/161
f 499/150/147 497/153/150 510/167/164
f 497/153/150 495/155/152 512/169/166
f 495/155/152 493/159/156 450/170/167
f 512/169/166 495/155/152 450/170/167
f 493/159/156 491/161/158 452/173/170
f 491/161/158 489/172/169 454/177/174
f 452/173/170 491/161/158 454/177/174
f 489/172/169 487/176/173 456/183/180
f 487/176/173 485/179/176 456/183/180
f 489/172/169 456/183/180 454/177/174
f 485/179/176 483/181/178 458/185/182
f 483/181/178 481/187/184 479/192/189
f 477/200/197 483/181/178 479/192/189
f 477/200/197 475/202/199 458/185/182
f 475/202/199 473/205/144 458/185/182
f 473/205/144 470/203/200 462/189/186
f 470/203/200 468/198/195 464/193/190
f 462/189/186 470/203/200 464/193/190
f 468/198/195 466/195/192 464/193/190
f 483/181/178 477/200/197 458/185/182
f 485/179/176 458/185/182 456/183/180
f 499/150/147 510/167/164 508/164/161
f 510/167/164 497/153/150 512/169/166
f 473/205/144 462/189/186 460/188/185
f 473/205/144 460/188/185 458/185/182
f 451/174/171 453/178/175 110/581/568
f 455/582/569 111/583/570 110/581/568
f 457/182/179 112/584/571 111/583/570
f 459/184/181 113/585/572 112/584/571
f 461/190/187 114/586/573 113/585/572
f 463/194/191 115/588/575 114/586/573
f 463/194/191 465/196/193 116/587/574
f 467/589/576 117/590/577 116/587/574
f 469/197/194 118/592/579 117/590/577
f 471/591/578 119/593/580 118/592/579
f 472/204/201 120/595/582 119/593/580
f 472/204/201 474/596/583 121/594/581
f 474/596/583 476/201/198 122/597/584
f 476/201/198 478/199/196 123/598/585
f 478/199/196 480/191/188 124/599/586
f 480/191/188 482/186/183 125/600/587
f 482/186/183 484/180/177 126/601/588
f 484/180/177 486/175/172 127/602/589
f 486/175/172 488/171/168 128/603/590
f 490/160/157 129/604/591 128/603/590
f 492/158/155 130/606/593 129/604/591
f 494/605/592 131/607/594 130/606/593
f 496/154/151 132/608/595 131/607/594
f 498/149/146 133/609/596 132/608/595
f 501/152/149 134/611/598 133/609/596
f 501/152/149 503/612/599 135/610/597
f 503/612/599 505/156/153 136/613/600
f 505/156/153 506/165/162 137/614/601
f 506/165/162 509/162/159 138/615/602
f 509/162/159 511/166/163 139/616/603
f 511/166/163 513/168/165 140/580/567
f 515/295/290 141/710/695 142/617/604
f 593/223/218 536/228/223 538/219/214
f 538/219/214 540/215/210 593/223/218
f 540/215/210 542/209/203 593/223/218
f 542/209/203 544/207/203 593/223/218
f 544/207/203 547/713/207 598/236/231
f 595/221/216 544/207/203 598/236/231
f 547/713/207 549/212/207 604/242/237
f 549/212/207 551/218/213 604/242/237
f 551/218/213 553/227/222 610/258/253
f 553/227/222 555/246/241 613/275/270
f 613/275/270 555/246/241 514/296/291
f 555/246/241 557/262/257 514/296/291
f 557/262/257 559/288/283 514/296/291
f 559/288/283 708/287/282 710/291/286
f 708/287/282 561/334/323 563/307/300
f 564/305/200 708/287/282 563/307/300
f 564/305/200 566/289/284 708/287/282
f 566/289/284 710/291/286 708/287/282
f 710/291/286 514/296/291 559/288/283
f 544/207/203 595/221/216 593/223/218
f 598/236/231 547/713/207 601/243/238
f 601/243/238 547/713/207 604/242/237
f 553/227/222 613/275/270 610/258/253
f 514/296/291 517/618/605 616/619/606
f 613/275/270 514/296/291 616/619/606
f 523/284/279 714/711/696 717/300/295
f 714/711/696 525/297/292 529/304/298
f 717/300/295 714/711/696 530/270/265
f 525/297/292 527/302/144 529/304/298
f 529/304/298 530/270/265 714/711/696
f 717/300/295 532/714/698 523/284/279
f 532/714/698 575/273/268 523/284/279
f 523/284/279 575/273/268 521/715/699
f 575/273/268 572/278/273 521/715/699
f 607/250/245 604/242/237 551/218/213
f 610/258/253 607/250/245 551/218/213
f 518/292/287 521/715/699 572/278/273
f 517/618/605 518/292/287 569/281/276
f 518/292/287 572/278/273 569/281/276
f 567/306/299 167/648/635 709/620/607
f 516/293/288 142/617/604 143/621/608
f 520/285/280 519/294/289 143/621/608
f 522/286/281 520/285/280 144/622/609
f 713/298/293 522/286/281 145/623/610
f 526/303/297 524/299/294 146/625/612
f 526/303/297 147/626/613 148/627/614
f 528/301/296 148/627/614 149/628/615
f 531/271/266 149/628/615 715/629/616
f 535/229/224 533/254/249 150/630/617
f 532/714/698 534/253/248 581/255/250
f 534/253/248 536/228/223 584/247/242
f 581/255/250 534/253/248 584/247/242
f 536/228/223 593/223/218 590/234/229
f 536/228/223 590/234/229 587/239/234
f 575/273/268 532/714/698 578/263/258
f 578/263/258 532/714/698 581/255/250
f 537/220/215 535/229/224 151/631/618
f 539/216/211 537/220/215 152/632/619
f 541/211/206 539/216/211 153/633/620
f 543/210/205 541/211/206 154/634/621
f 545/208/204 543/210/205 155/635/622
f 545/208/204 156/636/623 157/637/624
f 546/206/202 157/637/624 158/638/625
f 548/213/208 158/638/625 159/639/626
f 550/214/209 159/639/626 160/640/627
f 552/217/212 160/640/627 161/641/628
f 554/226/221 161/641/628 162/642/629
f 558/261/256 556/245/240 162/642/629
f 707/335/324 558/261/256 163/643/630
f 562/309/302 560/308/301 164/645/632
f 562/309/302 165/646/633 166/647/634
f 565/310/303 166/647/634 167/648/635
f 568/283/278 571/280/275 169/649/636
f 568/283/278 168/650/637 184/651/638
f 571/280/275 574/274/269 170/652/639
f 574/274/269 577/265/260 171/653/640
f 580/257/252 172/654/641 171/653/640
f 583/249/244 173/655/642 172/654/641
f 586/241/236 174/656/643 173/655/642
f 589/235/230 175/657/644 174/656/643
f 592/225/220 176/658/645 175/657/644
f 596/232/227 177/660/647 176/658/645
f 596/232/227 599/231/226 178/659/646
f 599/231/226 602/238/233 179/661/648
f 602/238/233 605/244/239 180/662/649
f 605/244/239 608/252/247 181/663/650
f 608/252/247 611/260/255 182/664/651
f 611/260/255 614/268/263 183/665/652
f 617/277/272 184/651/638 183/665/652
f 621/331/320 186/670/657 697/666/653
f 620/667/654 650/339/328 648/341/330
f 649/340/329 619/708/693 185/668/655
f 623/325/316 187/672/659 186/670/657
f 623/325/316 625/323/314 188/671/658
f 627/673/660 189/674/661 188/671/658
f 629/316/308 190/675/662 189/674/661
f 631/312/304 191/677/664 190/675/662
f 634/676/663 192/679/666 191/677/664
f 634/676/663 636/314/306 193/678/665
f 636/314/306 638/318/309 194/680/667
f 638/318/309 640/321/312 195/681/668
f 642/327/317 196/683/670 195/681/668
f 642/327/317 644/329/318 197/682/669
f 646/342/331 198/686/673 703/684/671
f 647/338/327 199/687/674 198/686/673
f 647/338/327 649/340/329 200/669/656
f 698/706/691 689/12/12 704/702/687
f 689/12/12 702/336/325 704/702/687
f 702/336/325 620/667/654 645/343/332
f 702/336/325 645/343/332 704/702/687
f 698/706/691 704/702/687 692/707/692
f 622/332/321 698/706/691 692/707/692
f 622/332/321 692/707/692 696/333/322
f 628/320/311 626/324/315 630/317/84
f 626/324/315 624/326/315 632/313/305
f 630/317/84 626/324/315 632/313/305
f 624/326/315 622/332/321 643/330/319
f 622/332/321 696/333/322 643/330/319
f 633/311/5 632/313/305 641/328/315
f 637/319/310 635/315/307 633/311/5
f 641/328/315 639/322/313 633/311/5
f 639/322/313 637/319/310 633/311/5
f 624/326/315 643/330/319 641/328/315
f 653/449/436 651/547/534 84/546/533
f 408/83/82 655/99/97 656/552/539
f 409/689/676 656/552/539 654/554/541
f 446/91/89 658/102/97 659/577/564
f 447/90/88 659/577/564 657/578/565
f 448/103/100 380/117/114 381/116/113
f 438/93/91 662/104/101 660/571/558
f 652/450/437 653/449/436 400/688/675
f 378/18/18 664/32/32 663/690/677
f 673/691/678 665/33/33 666/34/34
f 664/32/32 665/33/33 673/691/678
f 670/9/9 669/96/94 667/693/679
f 332/695/5 331/4/4 679/513/500
f 314/502/489 312/7/7 311/8/8
f 329/696/681 670/9/9 671/694/680
f 676/516/503 673/691/678 337/59/59
f 337/59/59 673/691/678 674/692/44
f 676/516/503 675/515/502 663/690/677
f 674/692/44 666/34/34 668/97/95
f 679/513/500 677/512/499 667/693/679
f 672/11/11 668/97/95 669/96/94
f 666/34/34 377/712/697 678/95/93
f 335/57/57 674/692/44 672/11/11
f 672/11/11 330/10/10 328/77/76
f 328/77/76 325/75/74 341/64/64
f 325/75/74 323/72/71 357/46/46
f 351/54/54 325/75/74 354/52/52
f 323/72/71 321/49/49 357/46/46
f 321/49/49 319/42/42 360/44/44
f 357/46/46 321/49/49 360/44/44
f 319/42/42 317/35/35 360/44/44
f 325/75/74 351/54/54 348/61/61
f 335/57/57 672/11/11 328/77/76
f 338/65/65 335/57/57 328/77/76
f 357/46/46 354/52/52 325/75/74
f 341/64/64 338/65/65 328/77/76
f 345/68/64 341/64/64 325/75/74
f 359/47/47 683/41/41 680/526/513
f 361/697/682 682/40/40 683/41/41
f 681/39/39 682/40/40 361/697/682
f 315/25/25 313/24/24 363/36/36
f 313/24/24 366/30/30 363/36/36
f 332/695/5 678/95/93 334/5/5
f 678/95/93 377/712/697 334/5/5
f 377/712/697 375/15/15 334/5/5
f 307/3/3 334/5/5 375/15/15
f 311/8/8 309/1/1 313/24/24
f 309/1/1 307/3/3 313/24/24
f 366/30/30 313/24/24 307/3/3
f 369/27/27 366/30/30 307/3/3
f 372/20/20 307/3/3 375/15/15
f 251/344/207 202/346/334 275/370/161
f 202/346/334 271/371/358 275/370/161
f 287/383/370 290/394/381 243/387/374
f 284/384/371 287/383/370 245/365/353
f 268/375/362 271/371/358 202/346/334
f 265/381/368 268/375/362 204/349/337
f 210/386/373 265/381/368 206/355/343
f 687/391/378 265/381/368 210/386/373
f 266/379/366 685/389/376 684/482/469
f 264/699/684 686/390/377 687/391/378
f 685/389/376 686/390/377 264/699/684
f 262/413/400 687/391/378 212/698/683
f 290/394/381 293/409/396 239/716/700
f 293/409/396 237/403/390 239/716/700
f 239/716/700 241/397/384 290/394/381
f 235/415/402 237/403/390 293/409/396
f 233/425/412 235/415/402 296/421/408
f 231/430/417 233/425/412 299/429/416
f 231/430/417 302/438/425 305/437/424
f 216/401/388 218/405/392 259/414/401
f 259/414/401 262/413/400 214/395/382
f 226/448/435 228/717/701 253/434/421
f 228/717/701 229/444/431 305/437/424
f 226/448/435 253/434/421 256/424/411
f 305/437/424 253/434/421 228/717/701
f 256/424/411 259/414/401 226/448/435
f 259/414/401 218/405/392 226/448/435
f 224/442/429 218/405/392 220/417/404
f 224/442/429 226/448/435 218/405/392
f 700/337/326 690/14/14 688/700/685
f 645/343/332 646/342/331 705/685/672
f 693/703/688 691/709/694 695/704/689
f 621/331/320 699/13/13 698/706/691
f 700/337/326 619/708/693 620/667/654
f 644/329/318 694/705/690 695/704/689
f 690/14/14 699/13/13 697/666/653
f 704/702/687 705/685/672 693/703/688
f 650/339/328 620/667/654 619/708/693
f 619/708/693 700/337/326 701/701/686
f 705/685/672 703/684/671 691/709/694
f 692/707/692 693/703/688 694/705/690
f 560/308/301 707/335/324 706/644/631
f 517/618/605 514/296/291 515/295/290
f 711/290/285 709/620/607 141/710/695
f 522/286/281 713/298/293 714/711/696
f 524/299/294 713/298/293 712/624/611
f 527/302/144 525/297/292 524/299/294
f 716/269/264 715/629/616 150/630/617
f 520/285/280 521/715/699 518/292/287
f 334/5/5 307/3/3 308/2/2
