# Blender 5.0.1
# www.blender.org
o Exporting_sf.110
v 1.083887 1.625694 0.935953
v 1.083803 1.625698 0.936861
v 1.083966 1.625690 0.935100
v 1.083839 1.625969 0.934710
v 1.083770 1.626166 0.934209
v 1.084033 1.625743 0.934007
v 1.083392 1.626760 0.934582
v 1.084047 1.625743 0.933852
v 1.083630 1.626767 0.931882
v 1.083711 1.626768 0.930974
v 1.084341 1.625671 0.931040
v 1.083996 1.626166 0.931689
v 1.083504 1.627100 0.931130
v 1.083372 1.627261 0.931569
v 1.083753 1.626585 0.931685
v 1.083073 1.627281 0.934776
v 1.085845 1.621642 0.931385
v 1.085847 1.621464 0.931868
v 1.085127 1.622097 0.937972
v 1.085274 1.621617 0.937719
v 1.085317 1.621547 0.937455
v 1.085114 1.622393 0.937271
v 1.085024 1.622746 0.937261
v 1.085184 1.622188 0.937092
v 1.085267 1.622734 0.934624
v 1.085372 1.622444 0.934294
v 1.085353 1.621500 0.937185
v 1.085649 1.622152 0.932092
v 1.085349 1.622729 0.933734
v 1.085387 1.622445 0.934124
v 1.085603 1.622403 0.931878
v 1.085521 1.622721 0.931875
v 1.085586 1.622717 0.931174
v 1.085757 1.622048 0.931195
v 1.084958 1.622753 0.937952
v 1.084969 1.623293 0.935291
v 1.084747 1.623926 0.934769
v 1.084947 1.623359 0.935223
v 1.084988 1.623380 0.934673
v 1.084940 1.623515 0.934567
v 1.084816 1.623807 0.934560
v 1.084882 1.623853 0.933614
v 1.084906 1.623781 0.933691
v 1.085100 1.623359 0.933524
v 1.085150 1.623341 0.933054
v 1.084859 1.623923 0.933537
v 1.085041 1.623470 0.933662
v 1.085199 1.623243 0.932979
v 1.085019 1.623908 0.931837
v 1.084064 1.624874 0.937855
v 1.084550 1.623870 0.937209
v 1.084211 1.624679 0.937150
v 1.084285 1.624674 0.936352
v 1.084234 1.625101 0.934912
v 1.084486 1.624615 0.934412
v 1.084578 1.624508 0.933890
v 1.084567 1.624499 0.934062
v 1.084554 1.624493 0.934234
v 1.084281 1.625099 0.934396
v 1.084335 1.625118 0.933707
v 1.084517 1.624686 0.933727
v 1.084402 1.625113 0.932992
vn 0.9431 0.3214 0.0855
vn 0.9478 0.3071 0.0860
vn 0.9477 0.3072 0.0860
vn 0.9254 0.3697 0.0838
vn 0.9242 0.3726 0.0837
vn 0.9140 0.3972 0.0826
vn 0.8864 0.4560 0.0797
vn 0.8916 0.4457 0.0802
vn 0.8906 0.4477 0.0804
vn 0.8825 0.4637 0.0793
vn 0.8905 0.4478 0.0803
vn 0.8709 0.4852 0.0781
vn 0.8745 0.4787 0.0784
vn 0.8641 0.4973 0.0774
vn 0.9535 0.2885 0.0867
vn 0.9481 0.3061 0.0861
vn 0.9520 0.2935 0.0865
vn 0.9430 0.3216 0.0856
vn 0.9477 0.3073 0.0861
vn 0.9077 0.4116 0.0819
vn 0.9430 0.3217 0.0856
vn 0.9254 0.3696 0.0838
vn 0.9112 0.4036 0.0823
vn 0.9077 0.4116 0.0818
vn 0.9112 0.4036 0.0822
vn 0.9077 0.4117 0.0818
vn 0.9254 0.3697 0.0836
vn 0.9112 0.4037 0.0821
vn 0.9254 0.3696 0.0837
vn 0.9243 0.3724 0.0836
vn 0.9112 0.4037 0.0824
vn 0.8905 0.4478 0.0801
vn 0.9031 0.4216 0.0814
vn 0.8916 0.4457 0.0803
vn 0.9121 0.4016 0.0825
vn 0.9121 0.4016 0.0824
vn 0.9243 0.3725 0.0836
vn 0.9144 0.3964 0.0825
vn 0.9122 0.4015 0.0823
vn 0.9144 0.3963 0.0825
vn 0.9263 0.3674 0.0838
vn 0.9142 0.3967 0.0824
vn 0.9263 0.3674 0.0837
vn 0.9142 0.3968 0.0826
vn 0.9262 0.3675 0.0839
vn 0.9266 0.3665 0.0839
vn 0.9263 0.3674 0.0839
vn 0.9310 0.3551 0.0844
vn 0.9140 0.3971 0.0827
vn 0.9142 0.3967 0.0828
vn 0.9266 0.3665 0.0841
vn 0.9335 0.3484 0.0845
vn 0.9339 0.3474 0.0845
vn 0.9349 0.3445 0.0846
vn 0.9108 0.4046 0.0823
vn 0.9140 0.3971 0.0826
vn 0.9332 0.3493 0.0846
vn 0.9346 0.3454 0.0847
vn 0.9310 0.3552 0.0844
vn 0.9332 0.3494 0.0846
vn 0.9316 0.3534 0.0844
vn 0.9352 0.3438 0.0848
vn 0.9334 0.3486 0.0846
vn 0.9350 0.3444 0.0846
vn 0.9335 0.3486 0.0844
vn 0.9332 0.3492 0.0844
vn 0.9430 0.3216 0.0855
vn 0.9335 0.3486 0.0845
vn 0.9317 0.3533 0.0843
vn 0.9140 0.3972 0.0824
vn 0.9266 0.3666 0.0838
vn 0.9317 0.3533 0.0844
vn 0.9317 0.3534 0.0845
vn 0.9027 0.4225 0.0814
vn 0.9027 0.4226 0.0814
vn 0.9108 0.4046 0.0822
vn 0.8916 0.4456 0.0803
vn 0.8906 0.4478 0.0802
vn 0.9027 0.4224 0.0814
vn 0.9244 0.3723 0.0835
vn 0.9243 0.3723 0.0837
vn 0.9243 0.3723 0.0836
vn 0.9027 0.4225 0.0813
vn 0.9108 0.4046 0.0821
vn 0.9242 0.3726 0.0835
vn 0.9242 0.3726 0.0836
vn 0.8827 0.4632 0.0794
vn 0.8608 0.5031 0.0771
vn 0.8712 0.4847 0.0783
vn 0.8607 0.5032 0.0772
vn 0.8641 0.4974 0.0774
vn 0.8609 0.5029 0.0771
vn 0.8609 0.5030 0.0771
vn 0.8709 0.4853 0.0781
vn 0.8707 0.4855 0.0781
vn 0.8824 0.4637 0.0793
vn 0.8707 0.4856 0.0782
vn 0.8640 0.4974 0.0775
vn 0.8744 0.4789 0.0786
vn 0.8743 0.4789 0.0786
vn 0.8824 0.4638 0.0794
vn 0.8706 0.4857 0.0782
vn 0.8607 0.5032 0.0771
vn 0.8712 0.4847 0.0782
vn 0.8708 0.4854 0.0781
vn 0.9429 0.3218 0.0856
vn 0.9487 0.3041 0.0869
vn 0.9534 0.2891 0.0867
vn 0.9487 0.3040 0.0862
vn 0.9603 0.2650 0.0874
vn 0.9488 0.3040 0.0862
vn 0.9602 0.2651 0.0875
vn 0.9612 0.2616 0.0876
vn 0.9519 0.2940 0.0866
vn 0.9488 0.3039 0.0861
vn 0.9603 0.2649 0.0873
vn 0.9520 0.2937 0.0864
vn 0.9612 0.2615 0.0875
vn 0.9619 0.2592 0.0876
vn 0.9519 0.2939 0.0865
vn 0.9619 0.2591 0.0876
vn 0.9620 0.2586 0.0876
vn 0.9521 0.2932 0.0866
vn 0.9519 0.2939 0.0866
vn 0.9618 0.2592 0.0876
vn 0.9620 0.2586 0.0877
vn 0.9595 0.2677 0.0874
vn 0.9595 0.2678 0.0874
vn 0.9536 0.2882 0.0867
vn 0.9536 0.2883 0.0867
vn 0.9482 0.3058 0.0862
vn 0.9482 0.3058 0.0861
vt -1.262017 0.833148
vt -1.261927 0.833191
vt -1.261954 0.833192
vt -1.262024 0.832946
vt -1.262035 0.832934
vt -1.261968 0.832835
vt -1.261830 0.832578
vt -1.261766 0.832633
vt -1.261946 0.832621
vt -1.262314 0.832542
vt -1.261970 0.832621
vt -1.262429 0.832623
vt -1.262211 0.832470
vt -1.262259 0.832461
vt -1.262359 0.832339
vt -1.262447 0.833275
vt -1.262330 0.833221
vt -1.262296 0.833268
vt -1.261879 0.833145
vt -1.261348 0.832788
vt -1.261391 0.833181
vt -1.261478 0.832949
vt -1.261494 0.833153
vt -1.261632 0.832612
vt -1.261495 0.832623
vt -1.261471 0.832815
vt -1.261823 0.832981
vt -1.261602 0.832699
vt -1.261803 0.832728
vt -1.261883 0.832816
vt -1.261885 0.832731
vt -1.261912 0.832838
vt -1.261856 0.832970
vt -1.261941 0.832837
vt -1.262015 0.832960
vt -1.261876 0.833020
vt -1.261867 0.833046
vt -1.261785 0.833055
vt -1.261776 0.833066
vt -1.261993 0.832804
vt -1.262028 0.832987
vt -1.262137 0.833060
vt -1.262044 0.833040
vt -1.262125 0.833044
vt -1.262110 0.832728
vt -1.261995 0.832728
vt -1.262327 0.833165
vt -1.262444 0.833161
vt -1.262319 0.832943
vt -1.261913 0.832544
vt -1.261809 0.832321
vt -1.261848 0.832410
vt -1.262282 0.832312
vt -1.262393 0.832398
vt -1.261556 0.833223
vt -1.261419 0.833300
vt -1.261474 0.833379
vt -1.261519 0.833388
vt -1.261612 0.833208
vt -1.261563 0.833395
vt -1.262343 0.833375
vt -1.262419 0.833343
s 1
f 29/1/1 26/2/2 30/3/3
f 42/4/4 46/5/5 56/6/6
f 4/7/7 3/8/8 6/9/9
f 12/10/10 8/11/11 11/12/8
f 9/13/12 15/14/13 13/15/14
f 34/16/15 31/17/16 28/18/17
f 29/1/18 25/19/18 26/2/19
f 50/20/20 35/21/21 51/22/22
f 35/21/21 23/23/18 51/22/22
f 1/24/8 2/25/8 52/26/23
f 2/25/8 50/20/24 52/26/25
f 50/20/26 51/22/27 52/26/28
f 51/22/29 37/27/30 53/28/23
f 52/26/31 51/22/4 53/28/31
f 6/9/32 3/8/8 54/29/33
f 3/8/34 53/28/23 54/29/33
f 55/30/35 59/31/33 54/29/33
f 55/30/36 54/29/33 37/27/37
f 54/29/33 53/28/23 37/27/30
f 58/32/38 55/30/39 37/27/30
f 58/32/40 37/27/30 41/33/41
f 57/34/42 58/32/38 41/33/43
f 57/34/44 41/33/45 43/35/46
f 41/33/47 40/36/48 43/35/46
f 56/6/49 57/34/50 43/35/51
f 39/37/52 38/38/53 36/39/54
f 61/40/55 56/6/56 46/5/5
f 39/37/57 36/39/58 25/19/18
f 40/36/59 39/37/60 47/41/61
f 39/37/57 25/19/18 29/1/18
f 29/1/18 48/42/62 44/43/63
f 48/42/64 45/44/65 44/43/66
f 29/1/67 44/43/68 47/41/69
f 56/6/70 43/35/71 42/4/27
f 39/37/57 29/1/18 47/41/72
f 43/35/46 40/36/48 47/41/73
f 62/45/74 60/46/75 61/40/76
f 11/12/77 8/11/78 62/45/79
f 32/47/18 33/48/18 49/49/80
f 33/48/18 11/12/34 49/49/81
f 11/12/34 62/45/79 49/49/82
f 62/45/83 61/40/84 46/5/85
f 49/49/82 62/45/74 46/5/86
f 6/9/9 8/11/11 5/50/87
f 5/50/87 4/7/7 6/9/9
f 12/10/10 5/50/87 8/11/11
f 2/25/8 1/24/8 16/51/88
f 1/24/34 7/52/89 16/51/90
f 13/15/91 14/53/92 9/13/12
f 14/53/93 16/51/88 9/13/94
f 11/12/8 10/54/95 12/10/96
f 10/54/97 13/15/98 15/14/99
f 15/14/100 12/10/101 10/54/102
f 16/51/103 7/52/104 9/13/105
f 23/23/18 35/21/106 22/55/107
f 35/21/21 19/56/108 22/55/109
f 19/56/108 20/57/110 22/55/111
f 20/57/112 21/58/113 24/59/114
f 22/55/115 20/57/116 24/59/117
f 21/58/118 27/60/119 24/59/120
f 27/60/121 18/61/122 28/18/123
f 24/59/124 27/60/125 28/18/123
f 18/61/126 17/62/127 28/18/123
f 17/62/128 34/16/129 28/18/123
f 34/16/130 33/48/18 31/17/131
f 33/48/18 32/47/18 31/17/132
