# Blender 5.0.1
# www.blender.org
o Exporting_sf.109
v -0.857060 1.729530 0.874247
v -0.855257 1.727681 0.874779
v -0.854292 1.730252 0.873450
v -0.854319 1.714274 0.879739
v -0.855850 1.712314 0.880615
v -0.852872 1.711738 0.880287
v -0.865978 1.733025 0.873691
v -0.865411 1.733131 0.873589
v -0.864941 1.733426 0.873405
v -0.864639 1.733867 0.873166
v -0.864550 1.734385 0.872909
v -0.864689 1.734902 0.872673
v -0.865034 1.735340 0.872494
v -0.865533 1.735631 0.872400
v -0.866110 1.735731 0.872403
v -0.874610 1.729447 0.875868
v -0.876268 1.727582 0.876720
v -0.877484 1.730143 0.875592
v -0.876156 1.714171 0.881756
v -0.874472 1.712226 0.882335
v -0.877454 1.711622 0.882558
v -0.866555 1.733125 0.873695
v -0.867054 1.733416 0.873600
v -0.867399 1.733854 0.873421
v -0.867538 1.734371 0.873185
v -0.867449 1.734889 0.872928
v -0.867147 1.735330 0.872690
v -0.866677 1.735625 0.872505
v -0.863485 1.727619 0.892425
v -0.864204 1.727346 0.892596
v -0.863448 1.728144 0.892208
v -0.864236 1.728102 0.892297
v -0.863596 1.729307 0.891678
v -0.864307 1.729601 0.891607
v -0.863880 1.729497 0.891618
v -0.864276 1.728956 0.891902
v -0.863491 1.729052 0.891788
v -0.863748 1.727396 0.892535
v -0.864945 1.727612 0.892560
v -0.865027 1.728137 0.892354
v -0.864990 1.729300 0.891806
v -0.864723 1.729493 0.891696
v -0.865070 1.729044 0.891933
v -0.864665 1.727391 0.892619
v -0.854401 1.590078 0.925368
v -0.854257 1.589836 0.925435
v -0.853294 1.589866 0.925337
v -0.853134 1.590041 0.925265
v -0.853822 1.589794 0.925409
v -0.854165 1.595325 0.923616
v -0.854015 1.595541 0.923531
v -0.851829 1.595791 0.923250
v -0.853765 1.595672 0.923466
v -0.854459 1.591733 0.924828
v -0.854246 1.592142 0.924673
v -0.853603 1.591280 0.924899
v -0.853369 1.591058 0.924951
v -0.853592 1.593057 0.924312
v -0.853504 1.594922 0.923689
v -0.852042 1.591806 0.924584
v -0.853116 1.590423 0.925137
v -0.852313 1.592001 0.924544
v -0.852364 1.593328 0.924111
v -0.852004 1.593818 0.923917
v -0.852267 1.593713 0.923975
v -0.851795 1.595175 0.923450
v -0.853355 1.595080 0.923623
v -0.851018 1.591996 0.924428
v -0.850832 1.592765 0.924158
v -0.851005 1.592567 0.924239
v -0.850332 1.595148 0.923326
v -0.849992 1.594898 0.923378
v -0.849773 1.591075 0.924619
v -0.849854 1.589869 0.925024
v -0.849931 1.594583 0.923476
v -0.849992 1.590012 0.924989
v -0.850047 1.590438 0.924854
v -0.851238 1.591817 0.924507
v -0.849640 1.591994 0.924304
v -0.849768 1.594478 0.923496
v -0.850126 1.595077 0.923331
v -0.849810 1.595747 0.923081
v -0.849526 1.592120 0.924252
v -0.849292 1.594675 0.923388
v -0.849401 1.594541 0.923442
v -0.849582 1.595646 0.923094
v -0.848059 1.592577 0.923968
v -0.848134 1.594052 0.923488
v -0.848348 1.593880 0.923564
v -0.848035 1.592056 0.924137
v -0.848810 1.591878 0.924266
v -0.849037 1.592109 0.924211
v -0.848318 1.592807 0.923916
v -0.848990 1.589871 0.924945
v -0.848761 1.590063 0.924861
v -0.847872 1.591889 0.924178
v -0.847959 1.594739 0.923246
v -0.847597 1.594342 0.923344
v -0.847232 1.591856 0.924131
v -0.847159 1.592472 0.923921
v -0.847497 1.592484 0.923947
v -0.847252 1.594363 0.923306
v -0.848115 1.594452 0.923355
v -0.847582 1.594826 0.923183
v -0.846910 1.594351 0.923278
v -0.846817 1.592487 0.923885
v -0.846617 1.594821 0.923097
v -0.846265 1.592120 0.923956
v -0.846482 1.591928 0.924039
v -0.846373 1.594593 0.923150
v -0.849409 1.589842 0.924993
v -0.849420 1.595472 0.923137
v -0.849608 1.591221 0.924556
v -0.851656 1.625733 0.918105
v -0.852565 1.625729 0.918189
v -0.850803 1.625737 0.918026
v -0.850446 1.626020 0.917830
v -0.849969 1.626222 0.917670
v -0.849717 1.625801 0.917892
v -0.850409 1.626812 0.917368
v -0.849562 1.625801 0.917877
v -0.847712 1.626844 0.917107
v -0.846804 1.626853 0.917020
v -0.846743 1.625756 0.917651
v -0.847450 1.626245 0.917431
v -0.846999 1.627184 0.916846
v -0.847456 1.627341 0.916796
v -0.847494 1.626664 0.917192
v -0.850664 1.627330 0.917090
v -0.846770 1.621726 0.919189
v -0.847243 1.621544 0.919280
v -0.853380 1.622118 0.919690
v -0.853100 1.621641 0.919788
v -0.852832 1.621574 0.919781
v -0.852697 1.622421 0.919549
v -0.852706 1.622774 0.919459
v -0.852506 1.622218 0.919585
v -0.850070 1.622786 0.919215
v -0.849724 1.622500 0.919258
v -0.852560 1.621529 0.919768
v -0.847505 1.622229 0.919126
v -0.849180 1.622791 0.919133
v -0.849553 1.622503 0.919241
v -0.847306 1.622482 0.919042
v -0.847320 1.622799 0.918961
v -0.846620 1.622803 0.918897
v -0.846602 1.622133 0.919068
v -0.853398 1.622774 0.919521
v -0.850785 1.623339 0.919045
v -0.850319 1.623977 0.918731
v -0.850723 1.623406 0.919011
v -0.850175 1.623432 0.918950
v -0.850081 1.623568 0.918884
v -0.850099 1.623860 0.918761
v -0.849158 1.623915 0.918652
v -0.849228 1.623842 0.918690
v -0.849024 1.623422 0.918850
v -0.848553 1.623409 0.918813
v -0.849087 1.623985 0.918616
v -0.849173 1.623531 0.918817
v -0.848470 1.623311 0.918847
v -0.847387 1.623987 0.918462
v -0.853486 1.624895 0.918627
v -0.852753 1.623898 0.918985
v -0.852764 1.624707 0.918641
v -0.851967 1.624710 0.918568
v -0.850565 1.625150 0.918254
v -0.850022 1.624669 0.918410
v -0.849491 1.624567 0.918405
v -0.849662 1.624556 0.918425
v -0.849834 1.624548 0.918444
v -0.850048 1.625153 0.918206
v -0.849362 1.625178 0.918133
v -0.849344 1.624746 0.918316
v -0.848647 1.625181 0.918068
v -0.873708 1.625629 0.920142
v -0.874617 1.625625 0.920226
v -0.872856 1.625633 0.920063
v -0.872499 1.625916 0.919867
v -0.872021 1.626117 0.919707
v -0.871769 1.625696 0.919929
v -0.872462 1.626707 0.919405
v -0.871614 1.625697 0.919914
v -0.869764 1.626739 0.919144
v -0.868856 1.626749 0.919057
v -0.868795 1.625652 0.919688
v -0.869502 1.626141 0.919468
v -0.869051 1.627080 0.918883
v -0.869509 1.627236 0.918833
v -0.869546 1.626559 0.919229
v -0.872716 1.627226 0.919127
v -0.868822 1.621622 0.921226
v -0.869295 1.621439 0.921317
v -0.875433 1.622014 0.921727
v -0.875152 1.621537 0.921825
v -0.874884 1.621469 0.921818
v -0.874749 1.622316 0.921587
v -0.874758 1.622670 0.921496
v -0.874559 1.622113 0.921622
v -0.872122 1.622682 0.921252
v -0.871776 1.622395 0.921295
v -0.874613 1.621425 0.921805
v -0.869557 1.622125 0.921163
v -0.871232 1.622686 0.921170
v -0.871605 1.622399 0.921279
v -0.869358 1.622378 0.921079
v -0.869373 1.622695 0.920998
v -0.868672 1.622699 0.920934
v -0.868655 1.622029 0.921105
v -0.875450 1.622670 0.921558
v -0.872838 1.623235 0.921082
v -0.872371 1.623873 0.920768
v -0.872775 1.623302 0.921048
v -0.872228 1.623328 0.920987
v -0.872133 1.623464 0.920921
v -0.872151 1.623756 0.920798
v -0.871210 1.623811 0.920689
v -0.871280 1.623738 0.920727
v -0.871077 1.623318 0.920887
v -0.870605 1.623305 0.920850
v -0.871140 1.623881 0.920653
v -0.871225 1.623427 0.920854
v -0.870522 1.623207 0.920884
v -0.869439 1.623883 0.920499
v -0.875538 1.624791 0.920664
v -0.874805 1.623794 0.921022
v -0.874816 1.624603 0.920678
v -0.874019 1.624606 0.920605
v -0.872617 1.625046 0.920291
v -0.872075 1.624565 0.920447
v -0.871543 1.624463 0.920442
v -0.871714 1.624452 0.920462
v -0.871886 1.624444 0.920481
v -0.872101 1.625049 0.920243
v -0.871414 1.625074 0.920170
v -0.871396 1.624642 0.920353
v -0.870699 1.625076 0.920105
vn 0.1524 0.4110 0.8988
vn 0.1523 0.4078 0.9003
vn 0.1556 0.4081 0.8996
vn 0.1638 0.2954 0.9412
vn 0.1604 0.2956 0.9418
vn 0.1617 0.2935 0.9422
vn 0.0773 0.4321 0.8985
vn 0.0774 0.4270 0.9009
vn 0.0804 0.4274 0.9005
vn 0.0104 0.4103 0.9119
vn 0.0081 0.4069 0.9134
vn 0.0111 0.4073 0.9132
vn 0.0088 0.2941 0.9557
vn 0.0112 0.2927 0.9561
vn 0.0120 0.2949 0.9555
vn 0.0827 0.4344 0.8969
vn 0.0818 0.4350 0.8967
vn 0.0840 0.4321 0.8979
vn 0.0744 0.4327 0.8985
vn 0.0791 0.4304 0.8992
vn 0.0807 0.4305 0.8990
vn 0.0776 0.4323 0.8984
vn 0.0804 0.4260 0.9011
vn 0.0815 0.4372 0.8957
vn 0.0867 0.4298 0.8988
vn 0.0807 0.4256 0.9013
vn 0.0816 0.4326 0.8979
vn 0.0831 0.4302 0.8989
vn 0.0826 0.3955 0.9147
vn 0.0837 0.3703 0.9251
vn 0.0801 0.3726 0.9245
vn 0.0829 0.4136 0.9067
vn 0.0815 0.4193 0.9042
vn 0.0827 0.4171 0.9051
vn 0.0793 0.4206 0.9038
vn 0.0779 0.3959 0.9150
vn 0.0539 0.3789 0.9239
vn 0.0867 0.3727 0.9239
vn 0.0807 0.4136 0.9069
vn 0.0813 0.4178 0.9049
vn 0.0811 0.4177 0.9050
vn 0.0840 0.4215 0.9029
vn 0.0873 0.3959 0.9141
vn 0.1128 0.3790 0.9185
vn 0.0860 0.3120 0.9462
vn 0.0859 0.3120 0.9462
vn 0.0860 0.3119 0.9462
vn 0.0859 0.3121 0.9462
vn 0.0857 0.3118 0.9463
vn 0.0859 0.3121 0.9461
vn 0.0860 0.3121 0.9462
vn 0.0861 0.3122 0.9461
vn 0.0858 0.3121 0.9462
vn 0.0860 0.3121 0.9461
vn 0.0861 0.3121 0.9461
vn 0.0859 0.3116 0.9463
vn 0.0859 0.3119 0.9462
vn 0.0861 0.3120 0.9462
vn 0.0862 0.3120 0.9462
vn 0.0860 0.3122 0.9461
vn 0.0858 0.3215 0.9430
vn 0.0863 0.3072 0.9477
vn 0.0862 0.3073 0.9477
vn 0.0839 0.3697 0.9254
vn 0.0838 0.3726 0.9242
vn 0.0827 0.3972 0.9140
vn 0.0797 0.4561 0.8864
vn 0.0803 0.4458 0.8915
vn 0.0803 0.4480 0.8904
vn 0.0793 0.4637 0.8824
vn 0.0802 0.4479 0.8905
vn 0.0803 0.4457 0.8916
vn 0.0782 0.4854 0.8708
vn 0.0786 0.4789 0.8744
vn 0.0775 0.4975 0.8640
vn 0.0867 0.2882 0.9537
vn 0.0861 0.3057 0.9482
vn 0.0865 0.2931 0.9521
vn 0.0853 0.3220 0.9429
vn 0.0858 0.3077 0.9476
vn 0.0858 0.3078 0.9476
vn 0.0840 0.3698 0.9253
vn 0.0839 0.3727 0.9241
vn 0.0828 0.3973 0.9140
vn 0.0797 0.4559 0.8865
vn 0.0802 0.4456 0.8916
vn 0.0803 0.4479 0.8905
vn 0.0793 0.4636 0.8825
vn 0.0802 0.4478 0.8905
vn 0.0782 0.4853 0.8708
vn 0.0785 0.4788 0.8744
vn 0.0775 0.4973 0.8641
vn 0.0868 0.2883 0.9536
vn 0.0862 0.3059 0.9482
vn 0.0867 0.2933 0.9521
vn 0.0856 0.3216 0.9430
vn 0.0861 0.3073 0.9477
vn 0.0819 0.4116 0.9077
vn 0.0856 0.3217 0.9430
vn 0.0837 0.3696 0.9254
vn 0.0855 0.3217 0.9430
vn 0.0855 0.3216 0.9430
vn 0.0802 0.4457 0.8916
vn 0.0822 0.4036 0.9112
vn 0.0803 0.4456 0.8916
vn 0.0823 0.4036 0.9112
vn 0.0820 0.4116 0.9077
vn 0.0838 0.3696 0.9254
vn 0.0823 0.4037 0.9112
vn 0.0836 0.3724 0.9243
vn 0.0823 0.4036 0.9113
vn 0.0822 0.4037 0.9112
vn 0.0836 0.3696 0.9254
vn 0.0814 0.4216 0.9031
vn 0.0823 0.4016 0.9121
vn 0.0815 0.4216 0.9031
vn 0.0824 0.4015 0.9121
vn 0.0837 0.3724 0.9243
vn 0.0836 0.3725 0.9242
vn 0.0825 0.3965 0.9143
vn 0.0822 0.4016 0.9121
vn 0.0835 0.3726 0.9242
vn 0.0828 0.3963 0.9144
vn 0.0838 0.3723 0.9243
vn 0.0840 0.3673 0.9263
vn 0.0827 0.3966 0.9143
vn 0.0828 0.3962 0.9144
vn 0.0825 0.3966 0.9143
vn 0.0838 0.3674 0.9263
vn 0.0838 0.3665 0.9266
vn 0.0838 0.3676 0.9262
vn 0.0843 0.3552 0.9310
vn 0.0838 0.3666 0.9266
vn 0.0826 0.3971 0.9141
vn 0.0826 0.3967 0.9142
vn 0.0839 0.3664 0.9266
vn 0.0847 0.3487 0.9334
vn 0.0848 0.3477 0.9338
vn 0.0849 0.3448 0.9348
vn 0.0822 0.4047 0.9108
vn 0.0826 0.3972 0.9140
vn 0.0836 0.3727 0.9242
vn 0.0846 0.3493 0.9332
vn 0.0847 0.3455 0.9346
vn 0.0843 0.3548 0.9311
vn 0.0845 0.3490 0.9333
vn 0.0844 0.3530 0.9318
vn 0.0857 0.3216 0.9430
vn 0.0848 0.3438 0.9352
vn 0.0846 0.3486 0.9334
vn 0.0847 0.3432 0.9355
vn 0.0845 0.3473 0.9339
vn 0.0845 0.3480 0.9337
vn 0.0854 0.3216 0.9430
vn 0.0844 0.3486 0.9335
vn 0.0842 0.3533 0.9317
vn 0.0839 0.3666 0.9266
vn 0.0838 0.3697 0.9254
vn 0.0845 0.3493 0.9332
vn 0.0844 0.3533 0.9317
vn 0.0839 0.3665 0.9266
vn 0.0843 0.3551 0.9310
vn 0.0814 0.4224 0.9028
vn 0.0814 0.4224 0.9027
vn 0.0823 0.4045 0.9108
vn 0.0814 0.4225 0.9027
vn 0.0837 0.3723 0.9243
vn 0.0836 0.3723 0.9243
vn 0.0822 0.4046 0.9108
vn 0.0836 0.3726 0.9242
vn 0.0794 0.4633 0.8826
vn 0.0771 0.5032 0.8607
vn 0.0802 0.4458 0.8916
vn 0.0782 0.4847 0.8712
vn 0.0774 0.4976 0.8640
vn 0.0781 0.4855 0.8708
vn 0.0771 0.5033 0.8607
vn 0.0782 0.4855 0.8708
vn 0.0782 0.4855 0.8707
vn 0.0775 0.4974 0.8640
vn 0.0786 0.4788 0.8744
vn 0.0794 0.4636 0.8825
vn 0.0781 0.4854 0.8708
vn 0.0856 0.3215 0.9430
vn 0.0855 0.3039 0.9488
vn 0.0868 0.2891 0.9533
vn 0.0863 0.3041 0.9487
vn 0.0867 0.2891 0.9534
vn 0.0875 0.2650 0.9603
vn 0.0862 0.3041 0.9487
vn 0.0874 0.2650 0.9603
vn 0.0875 0.2615 0.9612
vn 0.0865 0.2938 0.9519
vn 0.0860 0.3042 0.9487
vn 0.0873 0.2651 0.9602
vn 0.0864 0.2940 0.9519
vn 0.0876 0.2592 0.9619
vn 0.0876 0.2592 0.9618
vn 0.0876 0.2587 0.9620
vn 0.0866 0.2933 0.9521
vn 0.0866 0.2938 0.9519
vn 0.0876 0.2591 0.9619
vn 0.0866 0.2932 0.9521
vn 0.0874 0.2678 0.9595
vn 0.0865 0.2932 0.9521
vn 0.0873 0.2677 0.9595
vn 0.0867 0.2882 0.9536
vn 0.0868 0.2882 0.9536
vn 0.0862 0.3058 0.9482
vn 0.0861 0.3059 0.9482
vn 0.0856 0.3218 0.9429
vn 0.0856 0.3217 0.9429
vn 0.0838 0.3695 0.9254
vn 0.0822 0.4036 0.9113
vn 0.0801 0.4478 0.8905
vn 0.0823 0.4014 0.9122
vn 0.0814 0.4215 0.9032
vn 0.0825 0.4015 0.9121
vn 0.0837 0.3725 0.9243
vn 0.0836 0.3725 0.9243
vn 0.0824 0.3966 0.9143
vn 0.0822 0.4017 0.9121
vn 0.0834 0.3726 0.9242
vn 0.0826 0.3965 0.9143
vn 0.0839 0.3675 0.9262
vn 0.0826 0.3966 0.9142
vn 0.0827 0.3963 0.9144
vn 0.0839 0.3674 0.9263
vn 0.0826 0.3968 0.9142
vn 0.0839 0.3673 0.9263
vn 0.0844 0.3549 0.9311
vn 0.0839 0.3663 0.9267
vn 0.0846 0.3488 0.9334
vn 0.0847 0.3478 0.9337
vn 0.0848 0.3449 0.9348
vn 0.0824 0.4046 0.9108
vn 0.0827 0.3971 0.9140
vn 0.0847 0.3454 0.9346
vn 0.0846 0.3494 0.9331
vn 0.0844 0.3535 0.9316
vn 0.0847 0.3437 0.9352
vn 0.0845 0.3486 0.9335
vn 0.0846 0.3479 0.9337
vn 0.0843 0.3533 0.9317
vn 0.0825 0.3971 0.9140
vn 0.0836 0.3697 0.9254
vn 0.0793 0.4632 0.8827
vn 0.0782 0.4846 0.8712
vn 0.0772 0.5032 0.8607
vn 0.0775 0.4974 0.8641
vn 0.0772 0.5031 0.8608
vn 0.0771 0.5030 0.8608
vn 0.0781 0.4853 0.8708
vn 0.0782 0.4856 0.8707
vn 0.0794 0.4637 0.8824
vn 0.0785 0.4790 0.8743
vn 0.0793 0.4638 0.8824
vn 0.0781 0.4857 0.8707
vn 0.0771 0.5031 0.8608
vn 0.0855 0.3041 0.9488
vn 0.0862 0.3040 0.9488
vn 0.0875 0.2649 0.9603
vn 0.0876 0.2615 0.9612
vn 0.0861 0.3041 0.9487
vn 0.0865 0.2939 0.9519
vn 0.0877 0.2591 0.9619
vn 0.0876 0.2585 0.9620
vn 0.0866 0.2931 0.9522
vn 0.0877 0.2586 0.9620
vn 0.0874 0.2677 0.9595
vn 0.0866 0.2931 0.9521
vn 0.0861 0.3058 0.9482
vt 0.117340 0.790490
vt 0.117610 0.789999
vt 0.117858 0.790487
vt 0.115161 0.792772
vt 0.114710 0.792411
vt 0.115251 0.792257
vt -1.260348 0.832556
vt -1.260046 0.832312
vt -1.259863 0.832404
vt 0.120048 0.793512
vt 0.120107 0.792998
vt 0.120565 0.793297
vt 0.117536 0.795432
vt 0.118059 0.795399
vt 0.117846 0.795921
vt -1.260072 0.832863
vt -1.260276 0.832769
vt -1.259814 0.832689
vt -1.260333 0.832670
vt -1.260316 0.832451
vt -1.260241 0.832365
vt -1.260146 0.832319
vt -1.259947 0.832339
vt -1.260184 0.832836
vt -1.259808 0.832494
vt -1.259792 0.832593
vt -1.259871 0.832778
vt -1.259964 0.832842
vt 0.104345 0.802348
vt 0.104344 0.802485
vt 0.104268 0.802478
vt 0.104268 0.802072
vt 0.104345 0.802180
vt 0.104217 0.802111
vt 0.104201 0.802163
vt 0.104204 0.802343
vt 0.104221 0.802441
vt 0.104419 0.802479
vt 0.104424 0.802072
vt 0.104346 0.802050
vt 0.104474 0.802112
vt 0.104490 0.802164
vt 0.104485 0.802344
vt 0.104467 0.802442
vt 0.115800 0.805239
vt -1.257460 0.833393
vt -1.257049 0.833316
vt -1.256982 0.833412
vt -1.257093 0.832588
vt -1.257106 0.833043
vt -1.257316 0.833043
vt -1.257414 0.833294
vt -1.257503 0.833350
vt -1.257499 0.833176
vt -1.257416 0.833231
vt -1.257480 0.833111
vt -1.257408 0.833176
vt -1.257426 0.833085
vt -1.257351 0.833083
vt -1.257291 0.832381
vt -1.257271 0.832332
vt -1.257197 0.832312
vt -1.257055 0.832556
vt -1.257272 0.833222
vt -1.256943 0.832315
vt -1.256906 0.832364
vt -1.256911 0.832512
vt -1.256946 0.832553
vt -1.256945 0.833372
vt -1.257046 0.833255
vt -1.256930 0.833232
vt -1.256965 0.833091
vt -1.256936 0.833116
vt -1.257062 0.833089
vt -1.262017 0.833148
vt -1.261927 0.833191
vt -1.261954 0.833192
vt -1.262024 0.832946
vt -1.262035 0.832934
vt -1.261968 0.832835
vt -1.261830 0.832578
vt -1.261766 0.832633
vt -1.261946 0.832621
vt -1.262314 0.832542
vt -1.261970 0.832621
vt -1.262429 0.832623
vt -1.262211 0.832470
vt -1.262259 0.832461
vt -1.262359 0.832339
vt -1.262447 0.833275
vt -1.262330 0.833221
vt -1.262296 0.833268
vt -1.261879 0.833145
vt -1.261348 0.832788
vt -1.261391 0.833181
vt -1.261478 0.832949
vt -1.261494 0.833153
vt -1.261632 0.832612
vt -1.261495 0.832623
vt -1.261471 0.832815
vt -1.261823 0.832981
vt -1.261602 0.832699
vt -1.261803 0.832728
vt -1.261883 0.832816
vt -1.261885 0.832731
vt -1.261912 0.832838
vt -1.261856 0.832970
vt -1.261941 0.832837
vt -1.262015 0.832960
vt -1.261876 0.833020
vt -1.261867 0.833046
vt -1.261785 0.833055
vt -1.261776 0.833066
vt -1.261993 0.832804
vt -1.262028 0.832987
vt -1.262137 0.833060
vt -1.262044 0.833040
vt -1.262125 0.833044
vt -1.262110 0.832728
vt -1.261995 0.832728
vt -1.262327 0.833165
vt -1.262444 0.833161
vt -1.262319 0.832943
vt -1.261913 0.832544
vt -1.261809 0.832321
vt -1.261848 0.832410
vt -1.262282 0.832312
vt -1.262393 0.832398
vt -1.261556 0.833223
vt -1.261419 0.833300
vt -1.261474 0.833379
vt -1.261519 0.833388
vt -1.261612 0.833208
vt -1.261563 0.833395
vt -1.262343 0.833375
vt -1.262419 0.833343
s 1
f 2/1/1 3/2/2 1/3/3
f 5/4/4 6/5/5 4/6/6
f 9/7/7 13/8/8 15/9/9
f 17/10/10 16/11/11 18/12/12
f 20/13/13 19/14/14 21/15/15
f 23/16/16 7/17/17 26/18/18
f 7/17/17 8/19/19 9/7/7
f 9/7/7 10/20/20 13/8/8
f 10/20/20 11/21/21 13/8/8
f 11/21/21 12/22/22 13/8/8
f 13/8/8 14/23/23 15/9/9
f 15/9/9 7/17/17 9/7/7
f 23/16/16 22/24/24 7/17/17
f 7/17/17 15/9/9 26/18/18
f 15/9/9 28/25/25 26/18/18
f 28/25/25 27/26/26 26/18/18
f 26/18/18 25/27/27 24/28/28
f 24/28/28 23/16/16 26/18/18
f 32/29/29 30/30/30 38/31/31
f 35/32/32 36/33/33 33/34/34
f 33/34/34 36/33/33 37/35/35
f 31/36/36 38/31/31 29/37/37
f 36/33/33 31/36/36 37/35/35
f 32/29/29 44/38/38 30/30/30
f 42/39/39 36/33/33 34/40/40
f 41/41/41 43/42/42 36/33/33
f 40/43/43 44/38/38 32/29/29
f 40/43/43 36/33/33 43/42/42
f 35/32/32 34/40/40 36/33/33
f 31/36/36 32/29/29 38/31/31
f 36/33/33 32/29/29 31/36/36
f 42/39/39 41/41/41 36/33/33
f 40/43/43 39/44/44 44/38/38
f 40/43/43 32/29/29 36/33/33
f 55/45/45 56/45/46 58/45/45
f 110/46/47 106/47/45 108/48/46
f 69/49/46 93/50/48 89/51/45
f 72/45/46 75/45/49 80/45/46
f 80/45/46 85/45/45 72/45/46
f 85/45/45 84/45/45 72/45/46
f 84/45/45 112/45/48 72/45/46
f 112/45/48 86/45/50 81/45/48
f 72/45/46 112/45/48 81/45/48
f 86/45/50 82/45/50 81/45/48
f 82/45/50 52/45/48 71/45/51
f 52/45/48 53/45/46 67/45/51
f 53/45/46 51/45/46 67/45/51
f 51/45/46 50/45/46 59/45/51
f 50/45/46 55/45/45 58/45/45
f 55/45/45 54/45/46 56/45/46
f 54/45/46 45/45/51 56/45/46
f 45/45/51 46/45/52 49/45/46
f 49/45/46 47/45/53 61/45/48
f 47/45/53 48/45/54 61/45/48
f 45/45/51 49/45/46 61/45/48
f 56/45/46 45/45/51 57/45/48
f 82/45/50 71/45/51 81/45/48
f 71/45/51 52/45/48 66/45/48
f 50/45/46 58/45/45 59/45/51
f 77/45/46 76/45/55 111/45/46
f 76/45/55 74/45/56 111/45/46
f 111/45/46 94/45/50 95/45/46
f 77/45/46 111/45/46 73/45/46
f 95/45/46 91/45/48 113/45/46
f 73/45/46 95/45/46 113/45/46
f 91/45/48 92/45/54 79/45/46
f 92/45/54 83/45/57 79/45/46
f 79/45/46 113/45/46 91/45/48
f 95/45/46 73/45/46 111/45/46
f 61/45/48 77/45/46 57/45/48
f 77/45/46 73/45/46 57/45/48
f 66/45/48 52/45/48 67/45/51
f 61/45/48 57/45/48 45/45/51
f 59/45/51 67/45/51 51/45/46
f 110/46/47 105/52/45 106/47/45
f 110/46/47 107/53/47 105/52/45
f 107/53/47 104/54/46 102/55/45
f 105/52/45 107/53/47 102/55/45
f 104/54/46 97/56/48 98/57/46
f 97/56/48 103/58/48 98/57/46
f 103/58/48 88/59/46 98/57/46
f 98/57/46 102/55/45 104/54/46
f 89/51/45 64/60/45 69/49/46
f 64/60/45 65/61/58 63/62/45
f 69/49/46 64/60/45 70/63/46
f 98/57/46 88/59/46 101/64/48
f 88/59/46 89/51/45 93/50/48
f 101/64/48 88/59/46 93/50/48
f 64/60/45 63/62/45 70/63/46
f 63/62/45 62/65/46 70/63/46
f 62/65/46 60/66/48 70/63/46
f 60/66/48 78/67/51 70/63/46
f 78/67/51 68/68/59 70/63/46
f 108/48/46 106/47/45 109/69/45
f 106/47/45 100/70/48 99/71/48
f 109/69/45 106/47/45 99/71/48
f 90/72/48 96/73/48 101/64/48
f 96/73/48 99/71/48 101/64/48
f 87/74/60 90/72/48 101/64/48
f 99/71/48 100/70/48 101/64/48
f 93/50/48 87/74/60 101/64/48
f 142/75/61 139/76/62 143/77/63
f 155/78/64 159/79/65 169/80/66
f 117/81/67 116/82/68 119/83/69
f 125/84/70 121/85/71 124/86/72
f 122/87/73 128/88/74 126/89/75
f 147/90/76 144/91/77 141/92/78
f 204/75/79 201/76/80 205/77/81
f 217/78/82 221/79/83 231/80/84
f 179/81/85 178/82/86 181/83/87
f 187/84/88 183/85/89 186/86/72
f 184/87/90 190/88/91 188/89/92
f 209/90/93 206/91/94 203/92/95
f 142/75/96 138/93/96 139/76/97
f 163/94/98 148/95/99 164/96/100
f 148/95/101 136/97/102 164/96/100
f 114/98/103 115/99/103 165/100/104
f 115/99/105 163/94/98 165/100/106
f 163/94/107 164/96/108 165/100/109
f 164/96/100 150/101/110 166/102/111
f 165/100/112 164/96/113 166/102/104
f 119/83/89 116/82/72 167/103/114
f 116/82/72 166/102/106 167/103/114
f 168/104/115 172/105/116 167/103/116
f 168/104/117 167/103/116 150/101/118
f 167/103/114 166/102/106 150/101/119
f 171/106/120 168/104/121 150/101/122
f 171/106/123 150/101/124 154/107/125
f 170/108/126 171/106/127 154/107/125
f 170/108/128 154/107/129 156/109/130
f 154/107/131 153/110/132 156/109/133
f 169/80/134 170/108/135 156/109/136
f 152/111/137 151/112/138 149/113/139
f 174/114/140 169/80/141 159/79/142
f 152/111/143 149/113/144 138/93/99
f 153/110/145 152/111/146 160/115/147
f 152/111/143 138/93/96 142/75/96
f 142/75/148 161/116/149 157/117/150
f 161/116/151 158/118/152 157/117/153
f 142/75/154 157/117/155 160/115/156
f 169/80/141 156/109/157 155/78/158
f 152/111/159 142/75/96 160/115/160
f 156/109/161 153/110/162 160/115/160
f 175/119/163 173/120/164 174/114/165
f 124/86/72 121/85/89 175/119/166
f 145/121/96 146/122/96 162/123/124
f 146/122/96 124/86/72 162/123/167
f 124/86/72 175/119/166 162/123/168
f 175/119/166 174/114/169 159/79/170
f 162/123/168 175/119/166 159/79/170
f 119/83/69 121/85/71 118/124/171
f 118/124/171 117/81/67 119/83/69
f 125/84/70 118/124/171 121/85/71
f 115/99/103 114/98/103 129/125/172
f 114/98/173 120/126/174 129/125/172
f 126/89/175 127/127/172 122/87/176
f 127/127/172 129/125/177 122/87/178
f 124/86/72 123/128/179 125/84/70
f 123/128/179 126/89/180 128/88/91
f 128/88/181 125/84/182 123/128/179
f 129/125/172 120/126/174 122/87/183
f 136/97/184 148/95/96 135/129/185
f 148/95/99 132/130/186 135/129/187
f 132/130/188 133/131/189 135/129/190
f 133/131/191 134/132/192 137/133/193
f 135/129/194 133/131/195 137/133/196
f 134/132/192 140/134/197 137/133/193
f 140/134/198 131/135/199 141/92/200
f 137/133/201 140/134/202 141/92/203
f 131/135/199 130/136/204 141/92/205
f 130/136/206 147/90/207 141/92/205
f 147/90/208 146/122/184 144/91/209
f 146/122/96 145/121/96 144/91/210
f 204/75/96 200/93/96 201/76/97
f 225/94/98 210/95/211 226/96/108
f 210/95/212 198/97/96 226/96/108
f 176/98/103 177/99/72 227/100/106
f 177/99/72 225/94/98 227/100/109
f 225/94/98 226/96/213 227/100/106
f 226/96/100 212/101/110 228/102/106
f 227/100/104 226/96/100 228/102/214
f 181/83/215 178/82/103 229/103/114
f 178/82/103 228/102/106 229/103/114
f 230/104/216 234/105/217 229/103/217
f 230/104/218 229/103/116 212/101/219
f 229/103/114 228/102/106 212/101/220
f 233/106/221 230/104/222 212/101/223
f 233/106/224 212/101/219 216/107/225
f 232/108/226 233/106/227 216/107/228
f 232/108/229 216/107/225 218/109/161
f 216/107/230 215/110/231 218/109/232
f 231/80/134 232/108/135 218/109/161
f 214/111/233 213/112/234 211/113/235
f 236/114/236 231/80/237 221/79/65
f 214/111/159 211/113/238 200/93/102
f 215/110/132 214/111/239 222/115/240
f 214/111/143 200/93/96 204/75/96
f 204/75/96 223/116/241 219/117/242
f 223/116/241 220/118/243 219/117/242
f 204/75/102 219/117/242 222/115/244
f 231/80/245 218/109/133 217/78/246
f 214/111/143 204/75/96 222/115/160
f 218/109/161 215/110/162 222/115/160
f 237/119/163 235/120/164 236/114/165
f 186/86/103 183/85/215 237/119/164
f 207/121/96 208/122/96 224/123/124
f 208/122/96 186/86/72 224/123/167
f 186/86/103 237/119/166 224/123/168
f 237/119/166 236/114/169 221/79/170
f 224/123/168 237/119/166 221/79/170
f 181/83/87 183/85/89 180/124/247
f 180/124/247 179/81/85 181/83/87
f 187/84/88 180/124/247 183/85/89
f 177/99/72 176/98/72 191/125/172
f 176/98/72 182/126/248 191/125/249
f 188/89/250 189/127/251 184/87/73
f 189/127/252 191/125/172 184/87/253
f 186/86/72 185/128/254 187/84/255
f 185/128/179 188/89/75 190/88/74
f 190/88/256 187/84/257 185/128/258
f 191/125/259 182/126/248 184/87/253
f 198/97/96 210/95/99 197/129/260
f 210/95/99 194/130/188 197/129/261
f 194/130/188 195/131/189 197/129/261
f 195/131/262 196/132/263 199/133/201
f 197/129/264 195/131/191 199/133/265
f 196/132/263 202/134/266 199/133/201
f 202/134/202 193/135/267 203/92/268
f 199/133/193 202/134/202 203/92/203
f 193/135/269 192/136/270 203/92/271
f 192/136/270 209/90/208 203/92/203
f 209/90/208 208/122/96 206/91/272
f 208/122/102 207/121/102 206/91/210
