# Blender 5.0.1
# www.blender.org
o Exporting_sf.110
v 0.859839 1.625694 0.918861
v 0.858930 1.625698 0.918777
v 0.860692 1.625690 0.918939
v 0.861081 1.625969 0.918812
v 0.861582 1.626166 0.918743
v 0.861785 1.625743 0.919007
v 0.861210 1.626760 0.918365
v 0.861940 1.625743 0.919021
v 0.863909 1.626767 0.918604
v 0.864818 1.626768 0.918684
v 0.864752 1.625671 0.919315
v 0.864102 1.626166 0.918969
v 0.864661 1.627100 0.918478
v 0.864222 1.627261 0.918345
v 0.864106 1.626585 0.918727
v 0.861015 1.627281 0.918046
v 0.864406 1.621642 0.920819
v 0.863923 1.621464 0.920821
v 0.857819 1.622097 0.920100
v 0.858072 1.621617 0.920248
v 0.858337 1.621547 0.920290
v 0.858520 1.622393 0.920088
v 0.858531 1.622746 0.919997
v 0.858699 1.622188 0.920157
v 0.861167 1.622734 0.920240
v 0.861497 1.622444 0.920346
v 0.858606 1.621500 0.920327
v 0.863700 1.622152 0.920622
v 0.862057 1.622729 0.920323
v 0.861668 1.622445 0.920361
v 0.863913 1.622403 0.920577
v 0.863917 1.622721 0.920494
v 0.864617 1.622717 0.920559
v 0.864597 1.622048 0.920731
v 0.857839 1.622753 0.919932
v 0.860500 1.623293 0.919942
v 0.861022 1.623926 0.919720
v 0.860568 1.623359 0.919920
v 0.861118 1.623380 0.919961
v 0.861224 1.623515 0.919913
v 0.861232 1.623807 0.919790
v 0.862177 1.623853 0.919855
v 0.862101 1.623781 0.919879
v 0.862268 1.623359 0.920074
v 0.862738 1.623341 0.920124
v 0.862254 1.623923 0.919833
v 0.862129 1.623470 0.920014
v 0.862812 1.623243 0.920172
v 0.863954 1.623908 0.919993
v 0.857936 1.624874 0.919038
v 0.858582 1.623870 0.919523
v 0.858642 1.624679 0.919184
v 0.859439 1.624674 0.919259
v 0.860879 1.625101 0.919207
v 0.861379 1.624615 0.919459
v 0.861902 1.624508 0.919552
v 0.861729 1.624499 0.919540
v 0.861557 1.624493 0.919527
v 0.861395 1.625099 0.919255
v 0.862084 1.625118 0.919309
v 0.862064 1.624686 0.919491
v 0.862799 1.625113 0.919375
vn -0.0857 0.3215 0.9430
vn -0.0862 0.3072 0.9477
vn -0.0862 0.3073 0.9477
vn -0.0836 0.3697 0.9254
vn -0.0835 0.3727 0.9242
vn -0.0824 0.3972 0.9140
vn -0.0797 0.4559 0.8864
vn -0.0802 0.4457 0.8916
vn -0.0804 0.4478 0.8905
vn -0.0793 0.4637 0.8825
vn -0.0803 0.4478 0.8905
vn -0.0803 0.4457 0.8916
vn -0.0781 0.4853 0.8709
vn -0.0784 0.4788 0.8744
vn -0.0774 0.4974 0.8641
vn -0.0867 0.2884 0.9536
vn -0.0861 0.3060 0.9481
vn -0.0865 0.2934 0.9521
vn -0.0856 0.3216 0.9430
vn -0.0861 0.3073 0.9477
vn -0.0819 0.4116 0.9077
vn -0.0856 0.3217 0.9430
vn -0.0838 0.3696 0.9254
vn -0.0822 0.4036 0.9112
vn -0.0818 0.4116 0.9077
vn -0.0818 0.4117 0.9077
vn -0.0822 0.4037 0.9112
vn -0.0837 0.3696 0.9254
vn -0.0836 0.3724 0.9243
vn -0.0823 0.4036 0.9112
vn -0.0823 0.4037 0.9112
vn -0.0801 0.4478 0.8905
vn -0.0814 0.4216 0.9031
vn -0.0824 0.4016 0.9121
vn -0.0824 0.4015 0.9121
vn -0.0815 0.4216 0.9031
vn -0.0837 0.3725 0.9243
vn -0.0836 0.3725 0.9243
vn -0.0826 0.3964 0.9144
vn -0.0824 0.4015 0.9122
vn -0.0825 0.3964 0.9144
vn -0.0835 0.3724 0.9243
vn -0.0837 0.3674 0.9263
vn -0.0825 0.3966 0.9143
vn -0.0825 0.3963 0.9144
vn -0.0827 0.3967 0.9142
vn -0.0839 0.3675 0.9262
vn -0.0839 0.3665 0.9266
vn -0.0839 0.3674 0.9263
vn -0.0844 0.3551 0.9310
vn -0.0825 0.3971 0.9141
vn -0.0825 0.3967 0.9142
vn -0.0838 0.3665 0.9266
vn -0.0845 0.3486 0.9335
vn -0.0845 0.3476 0.9338
vn -0.0846 0.3447 0.9349
vn -0.0824 0.4046 0.9108
vn -0.0827 0.3971 0.9140
vn -0.0838 0.3726 0.9242
vn -0.0846 0.3492 0.9332
vn -0.0847 0.3454 0.9346
vn -0.0856 0.3215 0.9430
vn -0.0844 0.3553 0.9310
vn -0.0846 0.3495 0.9331
vn -0.0844 0.3535 0.9316
vn -0.0857 0.3217 0.9430
vn -0.0848 0.3439 0.9352
vn -0.0847 0.3487 0.9334
vn -0.0847 0.3442 0.9351
vn -0.0846 0.3484 0.9335
vn -0.0845 0.3490 0.9333
vn -0.0855 0.3215 0.9430
vn -0.0843 0.3533 0.9317
vn -0.0837 0.3666 0.9266
vn -0.0846 0.3493 0.9332
vn -0.0844 0.3533 0.9317
vn -0.0844 0.3550 0.9310
vn -0.0845 0.3533 0.9317
vn -0.0814 0.4226 0.9027
vn -0.0814 0.4226 0.9026
vn -0.0822 0.4047 0.9107
vn -0.0803 0.4456 0.8916
vn -0.0801 0.4478 0.8906
vn -0.0814 0.4224 0.9027
vn -0.0835 0.3723 0.9243
vn -0.0837 0.3723 0.9243
vn -0.0836 0.3723 0.9243
vn -0.0813 0.4224 0.9027
vn -0.0822 0.4046 0.9108
vn -0.0836 0.3726 0.9242
vn -0.0814 0.4225 0.9027
vn -0.0794 0.4632 0.8827
vn -0.0771 0.5032 0.8607
vn -0.0782 0.4847 0.8712
vn -0.0772 0.5032 0.8607
vn -0.0774 0.4973 0.8641
vn -0.0771 0.5030 0.8609
vn -0.0781 0.4852 0.8709
vn -0.0771 0.5030 0.8608
vn -0.0771 0.5031 0.8608
vn -0.0782 0.4853 0.8709
vn -0.0781 0.4855 0.8707
vn -0.0793 0.4637 0.8824
vn -0.0782 0.4856 0.8707
vn -0.0775 0.4974 0.8640
vn -0.0786 0.4789 0.8744
vn -0.0786 0.4789 0.8743
vn -0.0795 0.4638 0.8824
vn -0.0783 0.4856 0.8706
vn -0.0781 0.4854 0.8708
vn -0.0856 0.3218 0.9429
vn -0.0869 0.3041 0.9487
vn -0.0867 0.2891 0.9534
vn -0.0862 0.3041 0.9487
vn -0.0867 0.2890 0.9534
vn -0.0874 0.2650 0.9603
vn -0.0862 0.3040 0.9488
vn -0.0875 0.2650 0.9603
vn -0.0876 0.2616 0.9612
vn -0.0866 0.2939 0.9519
vn -0.0861 0.3039 0.9488
vn -0.0873 0.2649 0.9603
vn -0.0864 0.2937 0.9520
vn -0.0874 0.2615 0.9612
vn -0.0875 0.2592 0.9619
vn -0.0864 0.2939 0.9519
vn -0.0876 0.2591 0.9619
vn -0.0876 0.2586 0.9620
vn -0.0866 0.2932 0.9521
vn -0.0876 0.2592 0.9618
vn -0.0877 0.2585 0.9620
vn -0.0874 0.2676 0.9595
vn -0.0866 0.2931 0.9521
vn -0.0873 0.2678 0.9595
vn -0.0867 0.2883 0.9536
vn -0.0865 0.2933 0.9521
vn -0.0857 0.3216 0.9430
vn -0.0862 0.3058 0.9482
vt -1.262017 0.833148
vt -1.261927 0.833191
vt -1.261954 0.833192
vt -1.262024 0.832946
vt -1.262035 0.832934
vt -1.261968 0.832835
vt -1.261830 0.832578
vt -1.261766 0.832633
vt -1.261946 0.832621
vt -1.262314 0.832542
vt -1.261970 0.832621
vt -1.262429 0.832623
vt -1.262211 0.832470
vt -1.262259 0.832461
vt -1.262359 0.832339
vt -1.262447 0.833275
vt -1.262330 0.833221
vt -1.262296 0.833268
vt -1.261879 0.833145
vt -1.261348 0.832788
vt -1.261391 0.833181
vt -1.261478 0.832949
vt -1.261494 0.833153
vt -1.261632 0.832612
vt -1.261495 0.832623
vt -1.261471 0.832815
vt -1.261823 0.832981
vt -1.261602 0.832699
vt -1.261803 0.832728
vt -1.261883 0.832816
vt -1.261885 0.832731
vt -1.261912 0.832838
vt -1.261856 0.832970
vt -1.261941 0.832837
vt -1.262015 0.832960
vt -1.261876 0.833020
vt -1.261867 0.833046
vt -1.261785 0.833055
vt -1.261776 0.833066
vt -1.261993 0.832804
vt -1.262028 0.832987
vt -1.262137 0.833060
vt -1.262044 0.833040
vt -1.262125 0.833044
vt -1.262110 0.832728
vt -1.261995 0.832728
vt -1.262327 0.833165
vt -1.262444 0.833161
vt -1.262319 0.832943
vt -1.261913 0.832544
vt -1.261809 0.832321
vt -1.261848 0.832410
vt -1.262282 0.832312
vt -1.262393 0.832398
vt -1.261556 0.833223
vt -1.261419 0.833300
vt -1.261474 0.833379
vt -1.261519 0.833388
vt -1.261612 0.833208
vt -1.261563 0.833395
vt -1.262343 0.833375
vt -1.262419 0.833343
s 1
f 29/1/1 26/2/2 30/3/3
f 42/4/4 46/5/5 56/6/6
f 4/7/7 3/8/8 6/9/9
f 12/10/10 8/11/11 11/12/12
f 9/13/13 15/14/14 13/15/15
f 34/16/16 31/17/17 28/18/18
f 29/1/19 25/19/19 26/2/20
f 50/20/21 35/21/22 51/22/23
f 35/21/22 23/23/19 51/22/23
f 1/24/8 2/25/8 52/26/24
f 2/25/8 50/20/25 52/26/24
f 50/20/26 51/22/4 52/26/27
f 51/22/28 37/27/29 53/28/30
f 52/26/31 51/22/23 53/28/30
f 6/9/32 3/8/8 54/29/33
f 3/8/8 53/28/24 54/29/33
f 55/30/34 59/31/33 54/29/33
f 55/30/35 54/29/36 37/27/37
f 54/29/33 53/28/30 37/27/38
f 58/32/39 55/30/40 37/27/29
f 58/32/41 37/27/42 41/33/43
f 57/34/44 58/32/45 41/33/43
f 57/34/46 41/33/47 43/35/48
f 41/33/49 40/36/50 43/35/48
f 56/6/51 57/34/52 43/35/53
f 39/37/54 38/38/55 36/39/56
f 61/40/57 56/6/58 46/5/59
f 39/37/60 36/39/61 25/19/62
f 40/36/63 39/37/64 47/41/65
f 39/37/60 25/19/19 29/1/19
f 29/1/66 48/42/67 44/43/68
f 48/42/69 45/44/70 44/43/71
f 29/1/72 44/43/54 47/41/73
f 56/6/6 43/35/74 42/4/4
f 39/37/75 29/1/19 47/41/76
f 43/35/48 40/36/77 47/41/78
f 62/45/79 60/46/80 61/40/81
f 11/12/82 8/11/83 62/45/84
f 32/47/19 33/48/19 49/49/85
f 33/48/19 11/12/12 49/49/86
f 11/12/12 62/45/84 49/49/87
f 62/45/88 61/40/89 46/5/90
f 49/49/87 62/45/91 46/5/90
f 6/9/9 8/11/11 5/50/92
f 5/50/92 4/7/7 6/9/9
f 12/10/10 5/50/92 8/11/11
f 2/25/8 1/24/8 16/51/93
f 1/24/12 7/52/94 16/51/95
f 13/15/96 14/53/97 9/13/98
f 14/53/99 16/51/100 9/13/101
f 11/12/8 10/54/102 12/10/103
f 10/54/104 13/15/105 15/14/106
f 15/14/107 12/10/108 10/54/109
f 16/51/93 7/52/94 9/13/110
f 23/23/19 35/21/111 22/55/112
f 35/21/22 19/56/113 22/55/114
f 19/56/115 20/57/116 22/55/117
f 20/57/118 21/58/119 24/59/120
f 22/55/121 20/57/122 24/59/123
f 21/58/124 27/60/125 24/59/126
f 27/60/127 18/61/128 28/18/129
f 24/59/120 27/60/130 28/18/129
f 18/61/131 17/62/132 28/18/133
f 17/62/134 34/16/135 28/18/136
f 34/16/135 33/48/137 31/17/138
f 33/48/62 32/47/62 31/17/138
