# Blender 5.0.1
# www.blender.org
o Exporting_sf.148
v -0.002546 0.020562 -0.012177
v -0.007210 -0.030665 -0.012177
v 0.011477 0.012341 -0.012177
v 0.011531 -0.014258 -0.012177
v -0.020476 0.020526 -0.012177
v -0.020372 -0.030692 -0.012177
v -0.007157 -0.056618 -0.029556
v -0.021594 -0.056647 -0.029556
v -0.047726 0.020470 0.014114
v -0.054326 0.013843 0.014114
v -0.052399 0.018524 0.014114
v -0.047637 -0.023765 0.014114
v -0.054263 -0.017165 0.014114
v -0.052317 -0.021837 0.014114
v -0.054274 -0.011748 0.014114
v -0.054315 0.008406 0.014114
v -0.031891 -0.023733 0.002915
v -0.031981 0.020502 0.002915
v -0.031929 -0.005242 0.002915
v -0.031945 0.002593 0.002915
v -0.005399 -0.000011 -0.012177
v 0.011502 0.000023 -0.012177
v -0.031783 0.020503 -0.003817
v -0.023174 0.020520 -0.012177
v -0.029160 0.020508 -0.009728
v -0.023073 -0.028994 -0.012177
v -0.031693 -0.023732 -0.003817
v -0.029067 -0.025273 -0.009728
v -0.039637 0.020487 0.014114
v -0.032309 0.020502 0.007311
v -0.034665 0.020497 0.012122
v -0.032219 -0.023733 0.007311
v -0.039547 -0.023748 0.014114
v -0.034575 -0.023738 0.012122
v -0.007170 -0.050254 -0.012177
v -0.007157 -0.056618 -0.018541
v -0.007161 -0.054754 -0.014041
v -0.020786 -0.056646 -0.018541
v -0.020332 -0.050281 -0.012177
v -0.020460 -0.054781 -0.014041
v -0.039572 -0.011718 0.014114
v -0.032251 -0.007778 0.007311
v -0.034602 -0.010559 0.012122
v -0.032277 0.004892 0.007311
v -0.039613 0.008436 0.014114
v -0.034638 0.007404 0.012122
v -0.002546 0.020562 -0.016177
v -0.007210 -0.030665 -0.016177
v 0.011477 0.012341 -0.016177
v 0.011531 -0.014258 -0.016177
v -0.020476 0.020526 -0.016177
v -0.020372 -0.030692 -0.016177
v -0.007165 -0.052618 -0.029556
v -0.021602 -0.052647 -0.029556
v -0.047726 0.020470 0.010114
v -0.054326 0.013843 0.010114
v -0.052399 0.018524 0.010114
v -0.047637 -0.023765 0.010114
v -0.054263 -0.017165 0.010114
v -0.052317 -0.021837 0.010114
v -0.054274 -0.011748 0.010114
v -0.054315 0.008406 0.010114
v -0.035887 -0.023741 0.002708
v -0.035977 0.020494 0.002708
v -0.035928 -0.005250 0.002752
v -0.035944 0.002585 0.002751
v -0.005399 -0.000011 -0.016177
v 0.011502 0.000023 -0.016177
v -0.035758 0.020495 -0.004721
v -0.023961 0.020519 -0.016177
v -0.032163 0.020502 -0.012822
v -0.023594 -0.028995 -0.016249
v -0.035657 -0.023740 -0.004776
v -0.031825 -0.025279 -0.013125
v -0.040409 0.020485 0.010114
v -0.036240 0.020494 0.006244
v -0.037581 0.020491 0.008981
v -0.036150 -0.023741 0.006244
v -0.040319 -0.023750 0.010114
v -0.037491 -0.023744 0.008981
v -0.007172 -0.049458 -0.016177
v -0.007165 -0.052618 -0.019336
v -0.007167 -0.051692 -0.017102
v -0.020794 -0.052638 -0.019301
v -0.020334 -0.049478 -0.016175
v -0.020466 -0.051681 -0.017065
v -0.040392 -0.011720 0.010123
v -0.036263 -0.007787 0.006479
v -0.037787 -0.010565 0.009184
v -0.036281 0.004884 0.006461
v -0.040429 0.008435 0.010122
v -0.037800 0.007398 0.009170
v -0.044641 0.002199 0.025421
v -0.036633 0.005535 0.025421
v -0.033330 0.013556 0.025421
v -0.036666 0.021564 0.025421
v -0.044687 0.024867 0.025421
v -0.052695 0.021531 0.025421
v -0.055998 0.013510 0.025421
v -0.052662 0.005502 0.025421
v -0.036633 0.005535 0.016851
v -0.044641 0.002199 0.016851
v -0.033330 0.013556 0.016851
v -0.036666 0.021564 0.016851
v -0.044687 0.024867 0.016851
v -0.052695 0.021531 0.016851
v -0.055998 0.013510 0.016851
v -0.052662 0.005502 0.016851
v -0.042154 0.011032 0.010238
v -0.044657 0.009989 0.010238
v -0.041121 0.013540 0.010238
v -0.042164 0.016043 0.010238
v -0.044671 0.017076 0.010238
v -0.047175 0.016033 0.010238
v -0.048208 0.013526 0.010238
v -0.047165 0.011022 0.010238
v -0.042154 0.011032 0.021069
v -0.044657 0.009989 0.021069
v -0.041121 0.013540 0.021069
v -0.042164 0.016043 0.021069
v -0.044671 0.017076 0.021069
v -0.047175 0.016033 0.021069
v -0.048208 0.013526 0.021069
v -0.047165 0.011022 0.021069
v -0.044623 -0.006551 0.025421
v -0.036602 -0.009855 0.025421
v -0.033266 -0.017862 0.025421
v -0.036570 -0.025884 0.025421
v -0.044577 -0.029220 0.025421
v -0.052598 -0.025916 0.025421
v -0.055934 -0.017908 0.025421
v -0.052631 -0.009887 0.025421
v -0.036602 -0.009855 0.016851
v -0.044623 -0.006551 0.016851
v -0.033266 -0.017862 0.016851
v -0.036570 -0.025884 0.016851
v -0.044577 -0.029220 0.016851
v -0.052598 -0.025916 0.016851
v -0.055934 -0.017908 0.016851
v -0.052631 -0.009887 0.016851
v -0.042100 -0.015375 0.010238
v -0.044608 -0.014342 0.010238
v -0.041057 -0.017878 0.010238
v -0.042090 -0.020386 0.010238
v -0.044593 -0.021429 0.010238
v -0.047101 -0.020396 0.010238
v -0.048144 -0.017893 0.010238
v -0.047111 -0.015385 0.010238
v -0.042100 -0.015375 0.021069
v -0.044608 -0.014342 0.021069
v -0.041057 -0.017878 0.021069
v -0.042090 -0.020386 0.021069
v -0.044593 -0.021429 0.021069
v -0.047101 -0.020396 0.021069
v -0.048144 -0.017893 0.021069
v -0.047111 -0.015385 0.021069
v -0.052474 -0.014888 -0.000919
v -0.052482 -0.010957 0.008571
v -0.052501 -0.001467 0.012501
v -0.052520 0.008022 0.008571
v -0.052528 0.011953 -0.000919
v -0.052520 0.008022 -0.010409
v -0.052501 -0.001467 -0.014340
v -0.052482 -0.010957 -0.010409
v -0.042120 -0.010936 0.008571
v -0.042112 -0.014867 -0.000919
v -0.042139 -0.001446 0.012501
v -0.042159 0.008043 0.008571
v -0.042167 0.011974 -0.000919
v -0.042159 0.008043 -0.010409
v -0.042139 -0.001446 -0.014340
v -0.042120 -0.010936 -0.010409
v -0.035489 -0.005370 0.003018
v -0.035485 -0.007001 -0.000919
v -0.035497 -0.001433 0.004649
v -0.035505 0.002504 0.003018
v -0.035508 0.004135 -0.000919
v -0.034705 0.002506 -0.004857
v -0.033868 -0.001430 -0.006487
v -0.034689 -0.005368 -0.004857
v -0.044333 -0.005388 0.003018
v -0.044330 -0.007019 -0.000919
v -0.044341 -0.001451 0.004649
v -0.044349 0.002486 0.003018
v -0.044353 0.004117 -0.000919
v -0.044349 0.002486 -0.004857
v -0.044341 -0.001451 -0.006487
v -0.044333 -0.005388 -0.004857
vn -0.0000 -0.0000 1.0000
vn 0.0001 -0.0000 1.0000
vn 0.7004 0.0014 0.7137
vn 0.7005 0.0014 0.7137
vn 0.9972 0.0020 0.0744
vn 0.9972 0.0020 0.0743
vn 0.0020 -1.0000 0.0002
vn 0.0014 -0.7097 0.7045
vn -0.0000 -0.0001 1.0000
vn 0.9996 0.0020 0.0295
vn 0.6883 0.0014 0.7254
vn 0.6884 0.0014 0.7253
vn 0.0002 -0.0000 1.0000
vn 0.6988 0.0014 0.7153
vn 0.6988 0.0014 0.7154
vn 0.9972 0.0019 0.0744
vn 0.9993 0.0020 0.0383
vn 0.9993 0.0020 0.0385
vn 0.9993 0.0020 0.0386
vn 0.0020 -1.0000 0.0001
vn 0.0020 -1.0000 -0.0000
vn -0.0000 -0.0000 -1.0000
vn 0.0017 0.0001 -1.0000
vn 0.0021 0.0001 -1.0000
vn 0.0002 0.0004 -1.0000
vn -0.6910 -0.0016 -0.7228
vn -0.6911 -0.0019 -0.7228
vn -0.9965 -0.0046 -0.0835
vn -0.0018 1.0000 -0.0005
vn -0.0017 0.7077 -0.7065
vn -0.0015 0.7078 -0.7064
vn -0.0007 0.0001 -1.0000
vn -0.9995 -0.0022 -0.0304
vn -0.6847 -0.0010 -0.7288
vn -0.9995 -0.0019 -0.0304
vn 0.0109 0.0008 -0.9999
vn 0.0002 -0.0030 -1.0000
vn -0.6902 -0.0010 -0.7237
vn 0.0002 -0.0003 -1.0000
vn -0.6901 -0.0010 -0.7237
vn -0.9966 -0.0004 -0.0826
vn 0.0109 -0.0003 -0.9999
vn -0.9993 -0.0019 -0.0384
vn -0.9993 -0.0019 -0.0383
vn 0.0004 -0.0002 -1.0000
vn 0.0002 -0.0004 -1.0000
vn 0.0005 0.0003 -1.0000
vn 0.0005 0.0002 -1.0000
vn -0.9992 -0.0024 -0.0387
vn -0.9965 -0.0038 -0.0835
vn -0.0017 1.0000 -0.0005
vn -0.0001 0.0001 -1.0000
vn -0.0020 1.0000 -0.0000
vn 0.2482 0.9687 -0.0000
vn 0.8254 0.5645 -0.0000
vn 1.0000 0.0020 -0.0000
vn 0.8539 -0.5205 -0.0000
vn 0.8853 -0.4651 -0.0000
vn -0.7085 0.7057 -0.0000
vn -0.1566 0.9877 -0.0000
vn -0.7086 0.7057 -0.0000
vn -0.9825 0.1861 -0.0000
vn -0.9817 -0.1905 -0.0000
vn -1.0000 -0.0020 -0.0000
vn -0.7057 -0.7085 -0.0000
vn -0.1526 -0.9883 -0.0000
vn -0.0576 0.3677 0.9282
vn -0.0551 -0.3743 0.9257
vn -0.0021 1.0000 0.0001
vn -0.2534 0.9073 0.3355
vn -0.0669 0.8487 0.5246
vn -0.9971 0.0052 0.0757
vn -0.9982 0.0358 0.0488
vn -0.9981 0.0359 0.0495
vn -1.0000 -0.0021 -0.0000
vn -0.2625 -0.9493 0.1729
vn 0.0022 -1.0000 0.0002
vn -0.2624 -0.9493 0.1729
vn -0.4972 -0.8671 0.0322
vn -0.2311 -0.9230 0.3075
vn 0.0019 -1.0000 0.0001
vn -0.2311 -0.9230 0.3076
vn -0.0602 -0.8703 0.4887
vn -0.9897 -0.1434 0.0053
vn 0.0004 -0.0003 -1.0000
vn 0.0004 -0.0004 -1.0000
vn 0.0004 0.0004 -1.0000
vn 0.0003 0.0004 -1.0000
vn 0.7057 0.7086 -0.0000
vn 0.7086 -0.7057 -0.0000
vn -0.7057 -0.7086 -0.0000
vn 0.7057 0.7085 -0.0000
vn 0.7085 -0.7057 -0.0000
vn -0.0014 0.7071 -0.7071
vn -0.0014 0.7071 0.7071
vn 0.0014 -0.7071 0.7071
vn 0.0014 -0.7071 -0.7071
vn 0.9918 0.0020 0.1276
vn 0.9894 0.0020 0.1451
vn 0.0020 -1.0000 -0.0092
vn 0.0020 -1.0000 -0.0053
vn 0.0014 -0.6947 -0.7193
vn 0.0029 -0.7010 -0.7132
vn -0.0014 0.6947 -0.7193
vn 0.0001 0.7010 -0.7132
vn -0.0020 1.0000 -0.0053
vn -0.0020 1.0000 -0.0092
vn 0.9949 0.0035 0.1012
vn 0.9949 0.0006 0.1013
vn 0.9972 0.0020 0.0742
vt 0.278083 0.386036
vt 0.279552 0.383913
vt 0.279552 0.385171
vt 0.276371 0.380773
vt 0.277751 0.380773
vt 0.277947 0.383878
vt 0.279552 0.382382
vt 0.271864 0.382660
vt 0.272537 0.380773
vt 0.272537 0.382660
vt 0.273252 0.380773
vt 0.273252 0.383071
vt 0.276322 0.377380
vt 0.277751 0.378052
vt 0.276371 0.378052
vt 0.277751 0.378720
vt 0.276371 0.378720
vt 0.274420 0.386036
vt 0.275297 0.380773
vt 0.275297 0.386036
vt 0.276109 0.380773
vt 0.276109 0.386036
vt 0.271883 0.386036
vt 0.272537 0.384773
vt 0.272537 0.386036
vt 0.273252 0.384399
vt 0.273252 0.386036
vt 0.276371 0.386036
vt 0.273714 0.384158
vt 0.273714 0.383337
vt 0.271864 0.384773
vt 0.271108 0.386036
vt 0.270414 0.385343
vt 0.270414 0.381467
vt 0.271108 0.380773
vt 0.273714 0.380773
vt 0.277751 0.377380
vt 0.276237 0.376215
vt 0.277751 0.376215
vt 0.271883 0.380773
vt 0.274420 0.380773
vt 0.273714 0.386036
vt 0.270617 0.385833
vt 0.270414 0.382660
vt 0.270617 0.380976
vt 0.270414 0.384773
vt 0.269610 0.379707
vt 0.269712 0.379955
vt 0.269465 0.380058
vt 0.269362 0.379810
vt 0.269610 0.380058
vt 0.269712 0.379810
vt 0.269465 0.379707
vt 0.269362 0.379955
vt 0.268127 0.380165
vt 0.268027 0.379924
vt 0.267786 0.380024
vt 0.267886 0.380265
vt 0.267886 0.379924
vt 0.267786 0.380165
vt 0.268027 0.380265
vt 0.268127 0.380024
vt 0.268575 0.379535
vt 0.268741 0.379135
vt 0.269141 0.379301
vt 0.268975 0.379701
vt 0.268975 0.379135
vt 0.268575 0.379301
vt 0.268741 0.379701
vt 0.269141 0.379535
vt 0.266208 0.379865
vt 0.266724 0.379651
vt 0.266510 0.379135
vt 0.266510 0.379865
vt 0.265995 0.379651
vt 0.266208 0.379135
vt 0.266724 0.379349
vt 0.265995 0.379349
s 1
f 1/1/1 22/2/1 3/3/1
f 6/4/1 2/5/1 21/6/1
f 22/2/1 2/5/1 4/7/1
f 41/8/2 34/9/3 43/10/4
f 43/10/4 32/11/5 42/12/6
f 38/13/7 37/14/8 40/15/8
f 40/15/8 35/16/9 39/17/9
f 23/18/10 28/19/11 25/20/12
f 25/20/12 26/21/2 24/22/2
f 29/23/13 46/24/14 31/25/15
f 31/25/15 44/26/5 30/27/16
f 24/22/2 6/4/1 5/28/1
f 23/18/10 20/29/17 19/30/18
f 20/29/17 30/27/16 44/26/5
f 45/31/2 9/32/1 10/33/1
f 41/8/2 13/34/1 12/35/1
f 17/36/19 42/12/6 32/11/5
f 36/37/20 8/38/21 7/39/21
f 2/5/1 39/17/9 35/16/9
f 47/1/22 68/2/22 67/6/22
f 67/6/22 52/4/23 51/28/24
f 68/2/22 48/5/22 67/6/22
f 87/8/25 80/9/26 79/40/25
f 89/10/27 78/11/28 80/9/26
f 84/13/29 83/14/30 82/37/29
f 86/15/31 81/16/32 83/14/30
f 69/18/33 74/19/34 73/41/35
f 71/20/34 72/21/36 74/19/34
f 75/23/37 92/24/38 91/31/39
f 77/25/40 90/26/41 92/24/38
f 70/22/42 52/4/23 72/21/36
f 66/29/43 64/42/44 69/18/33
f 66/29/43 76/27/41 64/42/44
f 91/31/39 56/33/45 55/32/46
f 58/35/47 59/34/48 87/8/25
f 63/36/49 88/12/50 65/30/49
f 82/37/29 54/38/51 84/13/29
f 48/5/22 85/17/52 52/4/23
f 5/28/53 47/1/54 51/28/53
f 3/3/55 68/2/56 49/3/55
f 1/1/54 49/3/55 47/1/54
f 4/7/57 48/5/58 50/7/57
f 7/39/22 54/38/22 53/39/22
f 11/43/59 55/32/60 57/43/61
f 10/33/62 57/43/61 56/33/62
f 13/34/63 61/44/64 59/34/63
f 14/45/65 59/34/63 60/45/65
f 12/35/66 60/45/65 58/35/66
f 16/46/64 56/33/62 62/46/64
f 19/30/67 66/29/68 65/30/67
f 22/2/56 50/7/57 68/2/56
f 41/8/69 89/10/70 87/8/69
f 34/9/21 79/40/21 80/9/21
f 43/10/70 88/12/71 89/10/70
f 32/11/21 80/9/21 78/11/21
f 38/13/72 86/15/73 84/13/72
f 37/14/56 82/37/56 83/14/56
f 40/15/74 85/17/75 86/15/73
f 35/16/56 83/14/56 81/16/56
f 23/18/53 71/20/53 69/18/53
f 28/19/76 73/41/77 74/19/78
f 25/20/53 70/22/53 71/20/53
f 26/21/79 74/19/78 72/21/79
f 29/23/53 77/25/53 75/23/53
f 46/24/80 91/31/81 92/24/82
f 31/25/53 76/27/53 77/25/53
f 44/26/83 92/24/82 90/26/83
f 24/22/53 51/28/53 70/22/53
f 6/4/84 72/21/79 52/4/84
f 27/41/20 63/36/21 73/41/77
f 18/42/53 69/18/53 64/42/53
f 20/29/68 90/26/83 66/29/68
f 30/27/53 64/42/53 76/27/53
f 45/31/81 62/46/21 91/31/81
f 9/32/60 75/23/53 55/32/60
f 33/40/21 58/35/66 79/40/21
f 15/44/53 87/8/69 61/44/53
f 17/36/21 78/11/21 63/36/21
f 42/12/71 65/30/67 88/12/71
f 36/37/56 53/39/56 82/37/56
f 8/38/72 84/13/72 54/38/72
f 2/5/58 81/16/56 48/5/58
f 39/17/64 52/4/84 85/17/75
f 21/6/1 1/1/1 5/28/1
f 5/28/1 6/4/1 21/6/1
f 17/36/19 27/41/10 19/30/18
f 27/41/10 23/18/10 19/30/18
f 23/18/10 18/42/17 20/29/17
f 16/46/1 45/31/2 10/33/1
f 45/31/2 29/23/13 9/32/1
f 10/33/1 9/32/1 11/43/1
f 12/35/1 33/40/13 41/8/2
f 41/8/2 15/44/1 13/34/1
f 13/34/1 14/45/1 12/35/1
f 51/28/24 47/1/22 67/6/22
f 67/6/22 48/5/22 52/4/23
f 69/18/33 73/41/35 65/30/49
f 73/41/35 63/36/49 65/30/49
f 69/18/33 65/30/49 66/29/43
f 75/23/37 91/31/39 55/32/46
f 91/31/39 62/46/85 56/33/45
f 55/32/46 56/33/45 57/43/86
f 87/8/25 79/40/25 58/35/47
f 58/35/47 60/45/87 59/34/48
f 59/34/48 61/44/88 87/8/25
f 96/47/1 98/48/1 100/49/1
f 106/48/22 104/47/22 101/50/22
f 98/48/61 107/51/64 99/51/64
f 96/47/89 105/52/53 97/52/53
f 94/50/90 103/53/56 95/53/56
f 99/51/64 108/49/65 100/49/91
f 97/52/53 106/48/59 98/48/61
f 95/53/56 104/47/92 96/47/89
f 93/54/21 101/50/93 94/50/90
f 100/49/91 102/54/21 93/54/21
f 114/55/22 112/56/22 109/57/22
f 120/56/1 122/55/1 124/58/1
f 112/56/89 119/59/56 111/59/56
f 109/57/90 118/60/21 110/60/21
f 110/60/21 124/58/65 116/58/91
f 115/61/64 122/55/59 114/55/59
f 113/62/53 120/56/92 112/56/89
f 111/59/56 117/57/93 109/57/90
f 116/58/91 123/61/64 115/61/64
f 114/55/59 121/62/53 113/62/53
f 100/49/1 93/54/1 94/50/1
f 94/50/1 95/53/1 96/47/1
f 96/47/1 97/52/1 98/48/1
f 98/48/1 99/51/1 100/49/1
f 100/49/1 94/50/1 96/47/1
f 101/50/22 102/54/22 108/49/22
f 108/49/22 107/51/22 106/48/22
f 106/48/22 105/52/22 104/47/22
f 104/47/22 103/53/22 101/50/22
f 101/50/22 108/49/22 106/48/22
f 109/57/22 110/60/22 116/58/22
f 116/58/22 115/61/22 114/55/22
f 114/55/22 113/62/22 112/56/22
f 112/56/22 111/59/22 109/57/22
f 109/57/22 116/58/22 114/55/22
f 124/58/1 118/60/1 117/57/1
f 117/57/1 119/59/1 120/56/1
f 120/56/1 121/62/1 122/55/1
f 122/55/1 123/61/1 124/58/1
f 124/58/1 117/57/1 120/56/1
f 128/47/1 132/49/1 130/48/1
f 138/48/22 133/50/22 136/47/22
f 130/48/65 139/51/64 138/48/91
f 128/47/93 137/52/21 136/47/90
f 126/50/92 135/53/56 133/50/89
f 131/51/64 140/49/61 139/51/64
f 129/52/21 138/48/91 137/52/21
f 127/53/56 136/47/90 135/53/56
f 125/54/53 133/50/89 134/54/53
f 132/49/59 134/54/53 140/49/61
f 146/55/22 141/57/22 144/56/22
f 152/56/1 156/58/1 154/55/1
f 144/56/93 151/59/56 152/56/93
f 141/57/92 150/60/53 149/57/92
f 142/60/53 156/58/59 150/60/53
f 147/61/64 154/55/65 155/61/64
f 145/62/21 152/56/93 153/62/21
f 143/59/56 149/57/92 151/59/56
f 148/58/59 155/61/64 156/58/59
f 146/55/65 153/62/21 154/55/65
f 132/49/1 126/50/1 125/54/1
f 126/50/1 128/47/1 127/53/1
f 128/47/1 130/48/1 129/52/1
f 130/48/1 132/49/1 131/51/1
f 132/49/1 128/47/1 126/50/1
f 133/50/22 140/49/22 134/54/22
f 140/49/22 138/48/22 139/51/22
f 138/48/22 136/47/22 137/52/22
f 136/47/22 133/50/22 135/53/22
f 133/50/22 138/48/22 140/49/22
f 141/57/22 148/58/22 142/60/22
f 148/58/22 146/55/22 147/61/22
f 146/55/22 144/56/22 145/62/22
f 144/56/22 141/57/22 143/59/22
f 141/57/22 146/55/22 148/58/22
f 156/58/1 149/57/1 150/60/1
f 149/57/1 152/56/1 151/59/1
f 152/56/1 154/55/1 153/62/1
f 154/55/1 156/58/1 155/61/1
f 156/58/1 152/56/1 149/57/1
f 160/63/64 162/64/64 164/65/64
f 170/64/56 168/63/56 165/66/56
f 162/64/94 171/67/22 163/67/22
f 160/63/95 169/68/53 161/68/53
f 158/66/96 167/69/1 159/69/1
f 163/67/22 172/65/97 164/65/97
f 161/68/53 170/64/94 162/64/94
f 159/69/1 168/63/95 160/63/95
f 157/70/21 165/66/96 158/66/96
f 164/65/97 166/70/21 157/70/21
f 177/71/98 175/72/99 174/73/98
f 184/74/64 186/75/64 188/76/64
f 176/74/95 183/72/1 175/72/1
f 173/77/96 182/73/100 174/73/101
f 174/73/101 188/76/102 180/76/103
f 179/78/22 186/75/104 178/75/105
f 177/71/106 184/74/95 176/74/95
f 175/72/1 181/77/96 173/77/96
f 180/76/103 187/78/22 179/78/22
f 178/75/105 185/71/107 177/71/106
f 164/65/64 157/70/64 158/66/64
f 158/66/64 159/69/64 160/63/64
f 160/63/64 161/68/64 162/64/64
f 162/64/64 163/67/64 164/65/64
f 164/65/64 158/66/64 160/63/64
f 165/66/56 166/70/56 172/65/56
f 172/65/56 171/67/56 170/64/56
f 170/64/56 169/68/56 168/63/56
f 168/63/56 167/69/56 165/66/56
f 165/66/56 172/65/56 170/64/56
f 173/77/99 174/73/98 175/72/99
f 174/73/98 180/76/108 178/75/109
f 180/76/108 179/78/110 178/75/109
f 178/75/109 177/71/98 174/73/98
f 177/71/98 176/74/99 175/72/99
f 188/76/64 182/73/64 181/77/64
f 181/77/64 183/72/64 184/74/64
f 184/74/64 185/71/64 186/75/64
f 186/75/64 187/78/64 188/76/64
f 188/76/64 181/77/64 184/74/64
f 1/1/1 21/6/1 22/2/1
f 22/2/1 21/6/1 2/5/1
f 41/8/2 33/40/13 34/9/3
f 43/10/4 34/9/3 32/11/5
f 38/13/7 36/37/20 37/14/8
f 40/15/8 37/14/8 35/16/9
f 23/18/10 27/41/10 28/19/11
f 25/20/12 28/19/11 26/21/2
f 29/23/13 45/31/2 46/24/14
f 31/25/15 46/24/14 44/26/5
f 24/22/2 26/21/2 6/4/1
f 20/29/17 18/42/17 30/27/16
f 17/36/19 19/30/18 42/12/6
f 36/37/20 38/13/7 8/38/21
f 2/5/1 6/4/1 39/17/9
f 47/1/22 49/3/22 68/2/22
f 68/2/22 50/7/22 48/5/22
f 87/8/25 89/10/27 80/9/26
f 89/10/27 88/12/50 78/11/28
f 84/13/29 86/15/31 83/14/30
f 86/15/31 85/17/52 81/16/32
f 69/18/33 71/20/34 74/19/34
f 71/20/34 70/22/42 72/21/36
f 75/23/37 77/25/40 92/24/38
f 77/25/40 76/27/41 90/26/41
f 70/22/42 51/28/24 52/4/23
f 66/29/43 90/26/41 76/27/41
f 63/36/49 78/11/28 88/12/50
f 82/37/29 53/39/53 54/38/51
f 48/5/22 81/16/32 85/17/52
f 5/28/53 1/1/54 47/1/54
f 3/3/55 22/2/56 68/2/56
f 1/1/54 3/3/55 49/3/55
f 4/7/57 2/5/58 48/5/58
f 7/39/22 8/38/22 54/38/22
f 11/43/59 9/32/60 55/32/60
f 10/33/62 11/43/59 57/43/61
f 13/34/63 15/44/64 61/44/64
f 14/45/65 13/34/63 59/34/63
f 12/35/66 14/45/65 60/45/65
f 16/46/64 10/33/62 56/33/62
f 19/30/67 20/29/68 66/29/68
f 22/2/56 4/7/57 50/7/57
f 41/8/69 43/10/70 89/10/70
f 34/9/21 33/40/21 79/40/21
f 43/10/70 42/12/71 88/12/71
f 32/11/21 34/9/21 80/9/21
f 38/13/72 40/15/74 86/15/73
f 37/14/56 36/37/56 82/37/56
f 40/15/74 39/17/64 85/17/75
f 35/16/56 37/14/56 83/14/56
f 23/18/53 25/20/53 71/20/53
f 28/19/76 27/41/20 73/41/77
f 25/20/53 24/22/53 70/22/53
f 26/21/79 28/19/76 74/19/78
f 29/23/53 31/25/53 77/25/53
f 46/24/80 45/31/81 91/31/81
f 31/25/53 30/27/53 76/27/53
f 44/26/83 46/24/80 92/24/82
f 24/22/53 5/28/53 51/28/53
f 6/4/84 26/21/79 72/21/79
f 27/41/20 17/36/21 63/36/21
f 18/42/53 23/18/53 69/18/53
f 20/29/68 44/26/83 90/26/83
f 30/27/53 18/42/53 64/42/53
f 45/31/81 16/46/21 62/46/21
f 9/32/60 29/23/53 75/23/53
f 33/40/21 12/35/66 58/35/66
f 15/44/53 41/8/69 87/8/69
f 17/36/21 32/11/21 78/11/21
f 42/12/71 19/30/67 65/30/67
f 36/37/56 7/39/56 53/39/56
f 8/38/72 38/13/72 84/13/72
f 2/5/58 35/16/56 81/16/56
f 39/17/64 6/4/84 52/4/84
f 98/48/61 106/48/59 107/51/64
f 96/47/89 104/47/92 105/52/53
f 94/50/90 101/50/93 103/53/56
f 99/51/64 107/51/64 108/49/65
f 97/52/53 105/52/53 106/48/59
f 95/53/56 103/53/56 104/47/92
f 93/54/21 102/54/21 101/50/93
f 100/49/91 108/49/65 102/54/21
f 112/56/89 120/56/92 119/59/56
f 109/57/90 117/57/93 118/60/21
f 110/60/21 118/60/21 124/58/65
f 115/61/64 123/61/64 122/55/59
f 113/62/53 121/62/53 120/56/92
f 111/59/56 119/59/56 117/57/93
f 116/58/91 124/58/65 123/61/64
f 114/55/59 122/55/59 121/62/53
f 130/48/65 131/51/64 139/51/64
f 128/47/93 129/52/21 137/52/21
f 126/50/92 127/53/56 135/53/56
f 131/51/64 132/49/59 140/49/61
f 129/52/21 130/48/65 138/48/91
f 127/53/56 128/47/93 136/47/90
f 125/54/53 126/50/92 133/50/89
f 132/49/59 125/54/53 134/54/53
f 144/56/93 143/59/56 151/59/56
f 141/57/92 142/60/53 150/60/53
f 142/60/53 148/58/59 156/58/59
f 147/61/64 146/55/65 154/55/65
f 145/62/21 144/56/93 152/56/93
f 143/59/56 141/57/92 149/57/92
f 148/58/59 147/61/64 155/61/64
f 146/55/65 145/62/21 153/62/21
f 162/64/94 170/64/94 171/67/22
f 160/63/95 168/63/95 169/68/53
f 158/66/96 165/66/96 167/69/1
f 163/67/22 171/67/22 172/65/97
f 161/68/53 169/68/53 170/64/94
f 159/69/1 167/69/1 168/63/95
f 157/70/21 166/70/21 165/66/96
f 164/65/97 172/65/97 166/70/21
f 176/74/95 184/74/95 183/72/1
f 173/77/96 181/77/96 182/73/100
f 174/73/101 182/73/100 188/76/102
f 179/78/22 187/78/22 186/75/104
f 177/71/106 185/71/107 184/74/95
f 175/72/1 183/72/1 181/77/96
f 180/76/103 188/76/102 187/78/22
f 178/75/105 186/75/104 185/71/107
