# Blender 5.0.1
# www.blender.org
o Exporting_sf.066
v -0.453866 1.898572 0.990807
v -0.309849 1.899595 0.999643
v -0.453866 1.908910 1.072133
v -0.275522 1.910197 1.062517
v -0.453866 1.899601 1.126565
v -0.289022 1.908987 1.084650
v -0.358497 1.898572 0.991791
v -0.366083 1.909363 1.069659
v -0.365790 1.902775 1.113667
v -0.286321 1.904899 1.024527
v -0.453866 1.906712 1.031324
v -0.365748 1.906410 1.030191
v -0.597883 1.899595 0.999643
v -0.632209 1.910197 1.062517
v -0.618709 1.908987 1.084650
v -0.549235 1.898572 0.991791
v -0.541649 1.909363 1.069659
v -0.541942 1.902775 1.113667
v -0.621411 1.904899 1.024527
v -0.541984 1.906410 1.030191
v -0.328962 1.898702 0.994255
v -0.321063 1.909764 1.066456
v -0.296225 1.901832 1.009475
v -0.453866 1.909120 1.050685
v -0.322084 1.906007 1.099102
v -0.453866 1.905257 1.097994
v -0.275920 1.910506 1.074302
v -0.402080 1.898572 0.990930
v -0.410235 1.909043 1.071544
v -0.410198 1.900458 1.123272
v -0.365826 1.906901 1.091236
v -0.362798 1.902741 1.010998
v -0.279512 1.908034 1.044256
v -0.453866 1.902948 1.011377
v -0.366481 1.908968 1.049504
v -0.325219 1.905768 1.027784
v -0.408992 1.906674 1.031182
v -0.578770 1.898702 0.994255
v -0.586669 1.909764 1.066456
v -0.611506 1.901832 1.009475
v -0.585647 1.906007 1.099102
v -0.631812 1.910506 1.074302
v -0.505651 1.898572 0.990930
v -0.497497 1.909043 1.071544
v -0.497533 1.900458 1.123272
v -0.541905 1.906901 1.091236
v -0.544933 1.902741 1.010998
v -0.628220 1.908034 1.044256
v -0.541250 1.908968 1.049504
v -0.582512 1.905768 1.027784
v -0.498740 1.906674 1.031182
v -0.410134 1.909110 1.050502
v -0.320584 1.908612 1.083379
v -0.410203 1.905703 1.096274
v -0.322958 1.908577 1.047253
v -0.327125 1.902321 1.010254
v -0.406071 1.902923 1.011329
v -0.497597 1.909110 1.050502
v -0.587148 1.908612 1.083379
v -0.497529 1.905703 1.096274
v -0.584774 1.908577 1.047253
v -0.580607 1.902321 1.010254
v -0.501661 1.902923 1.011329
vn -0.0037 -0.9872 0.1594
vn 0.0005 -0.9981 0.0613
vn -0.0011 -0.9876 0.1568
vn -0.0002 -0.9971 0.0766
vn 0.0035 -0.9975 -0.0705
vn -0.0000 -0.9970 -0.0779
vn -0.0000 -0.9984 0.0566
vn -0.0000 -0.9877 0.1562
vn 0.0060 -0.9989 -0.0457
vn 0.0148 -0.9937 -0.1113
vn 0.0094 -0.9892 -0.1462
vn 0.0096 -1.0000 0.0027
vn 0.0200 -0.9969 -0.0759
vn 0.0177 -0.9890 -0.1465
vn 0.0132 -0.9863 -0.1645
vn 0.0094 -0.9834 -0.1810
vn 0.0055 -0.9868 -0.1618
vn -0.0000 -0.9861 -0.1661
vn 0.0057 -0.9818 -0.1899
vn -0.0000 -0.9813 -0.1926
vn -0.0063 -0.9853 0.1710
vn -0.0004 -0.9947 0.1031
vn -0.0057 -0.9861 0.1662
vn 0.0002 -0.9928 0.1194
vn -0.0132 -0.9734 0.2286
vn -0.0085 -0.9788 0.2047
vn -0.0110 -0.9754 0.2201
vn -0.0096 -0.9779 0.2090
vn -0.0053 -0.9799 0.1996
vn -0.0061 -0.9773 0.2120
vn -0.0016 -0.9803 0.1974
vn -0.0018 -0.9779 0.2089
vn -0.0000 -0.9804 0.1972
vn -0.0000 -0.9780 0.2086
vn 0.0037 -0.9872 0.1594
vn -0.0005 -0.9981 0.0612
vn 0.0003 -0.9971 0.0766
vn 0.0011 -0.9876 0.1569
vn -0.0035 -0.9975 -0.0705
vn -0.0060 -0.9989 -0.0458
vn -0.0148 -0.9937 -0.1113
vn -0.0096 -1.0000 0.0026
vn -0.0094 -0.9892 -0.1463
vn -0.0132 -0.9863 -0.1645
vn -0.0177 -0.9890 -0.1465
vn -0.0200 -0.9969 -0.0759
vn -0.0126 -0.9992 0.0373
vn -0.0054 -0.9868 -0.1617
vn -0.0057 -0.9818 -0.1897
vn -0.0094 -0.9835 -0.1806
vn 0.0063 -0.9853 0.1710
vn 0.0004 -0.9947 0.1032
vn -0.0002 -0.9928 0.1194
vn 0.0057 -0.9861 0.1662
vn 0.0132 -0.9734 0.2286
vn 0.0085 -0.9788 0.2046
vn 0.0096 -0.9779 0.2091
vn 0.0110 -0.9754 0.2201
vn 0.0050 -0.9799 0.1996
vn 0.0060 -0.9773 0.2120
vn 0.0014 -0.9802 0.1982
vn 0.0021 -0.9779 0.2090
vn 0.0126 -0.9992 0.0373
vt 0.130453 0.957880
vt 0.119210 0.963092
vt 0.119499 0.958138
vt 0.130268 0.962833
vt 0.119185 0.968488
vt 0.108133 0.968642
vt 0.108133 0.963140
vt 0.108133 0.958175
vt 0.130369 0.967997
vt 0.141980 0.971541
vt 0.130413 0.973634
vt 0.141810 0.967294
vt 0.153754 0.969216
vt 0.153755 0.970751
vt 0.141974 0.975550
vt 0.130193 0.980349
vt 0.108133 0.968642
vt 0.119188 0.974907
vt 0.108133 0.975409
vt 0.119185 0.968488
vt 0.119163 0.982111
vt 0.108133 0.983872
vt 0.151078 0.955394
vt 0.141312 0.962260
vt 0.140761 0.957168
vt 0.152416 0.961538
vt 0.141810 0.967294
vt 0.130369 0.967997
vt 0.130268 0.962833
vt 0.130453 0.957880
vt 0.145370 0.949166
vt 0.140321 0.952678
vt 0.140215 0.948433
vt 0.148224 0.952280
vt 0.131431 0.952904
vt 0.135059 0.947701
vt 0.120297 0.953010
vt 0.121596 0.947701
vt 0.119499 0.958138
vt 0.108133 0.958175
vt 0.108133 0.953028
vt 0.108133 0.947700
vt 0.085813 0.957879
vt 0.097056 0.963092
vt 0.085999 0.962833
vt 0.096767 0.958138
vt 0.108133 0.963140
vt 0.097081 0.968488
vt 0.085897 0.967997
vt 0.085897 0.967997
vt 0.074286 0.971541
vt 0.074456 0.967294
vt 0.085853 0.973633
vt 0.074292 0.975549
vt 0.062511 0.970750
vt 0.062512 0.969215
vt 0.062512 0.967680
vt 0.108133 0.968642
vt 0.097078 0.974907
vt 0.097081 0.968488
vt 0.108133 0.975409
vt 0.097103 0.982110
vt 0.086073 0.980349
vt 0.065188 0.955394
vt 0.074954 0.962260
vt 0.063850 0.961537
vt 0.075505 0.957168
vt 0.085999 0.962833
vt 0.085897 0.967997
vt 0.074456 0.967294
vt 0.070897 0.949165
vt 0.075945 0.952678
vt 0.068042 0.952279
vt 0.076052 0.948433
vt 0.084835 0.952904
vt 0.085813 0.957879
vt 0.081207 0.947700
vt 0.095969 0.953010
vt 0.094670 0.947700
vt 0.108133 0.953028
vt 0.108133 0.958175
vt 0.096767 0.958138
vt 0.130369 0.967997
vt 0.153754 0.967681
vt 0.108133 0.958175
s 1
f 12/1/1 52/2/2 37/3/3
f 35/4/4 29/5/5 52/2/2
f 52/2/2 3/6/6 24/7/7
f 37/3/3 24/7/7 11/8/8
f 8/9/9 53/10/10 31/11/11
f 22/12/12 27/13/13 53/10/10
f 53/10/10 6/14/14 25/15/15
f 31/11/11 25/15/15 9/16/16
f 3/17/6 54/18/17 26/19/18
f 29/20/5 31/11/11 54/18/17
f 54/18/17 9/16/16 30/21/19
f 26/19/18 30/21/19 5/22/20
f 10/23/21 55/24/22 36/25/23
f 33/26/24 22/27/12 55/24/22
f 55/24/22 8/28/9 35/29/4
f 36/25/23 35/29/4 12/30/1
f 2/31/25 56/32/26 21/33/27
f 23/34/28 36/25/23 56/32/26
f 56/32/26 12/30/1 32/35/29
f 21/33/27 32/35/29 7/36/30
f 7/36/30 57/37/31 28/38/32
f 32/35/29 37/39/3 57/37/31
f 57/37/31 11/40/8 34/41/33
f 28/38/32 34/41/33 1/42/34
f 20/43/35 58/44/36 49/45/37
f 51/46/38 24/47/7 58/44/36
f 58/44/36 3/6/6 44/48/39
f 49/45/37 44/48/39 17/49/40
f 17/50/40 59/51/41 39/52/42
f 46/53/43 41/54/44 59/51/41
f 59/51/41 15/55/45 42/56/46
f 39/52/42 42/56/46 14/57/47
f 3/58/6 60/59/48 44/60/39
f 26/61/18 45/62/49 60/59/48
f 60/59/48 18/63/50 46/53/43
f 44/60/39 46/53/43 17/50/40
f 19/64/51 61/65/52 48/66/53
f 50/67/54 49/68/37 61/65/52
f 61/65/52 17/69/40 39/70/42
f 48/66/53 39/70/42 14/57/47
f 13/71/55 62/72/56 40/73/57
f 38/74/58 47/75/59 62/72/56
f 62/72/56 20/76/35 50/67/54
f 40/73/57 50/67/54 19/64/51
f 16/77/60 63/78/61 47/75/59
f 43/79/62 34/80/33 63/78/61
f 63/78/61 11/81/8 51/82/38
f 47/75/59 51/82/38 20/76/35
f 12/1/1 35/4/4 52/2/2
f 35/4/4 8/83/9 29/5/5
f 52/2/2 29/5/5 3/6/6
f 37/3/3 52/2/2 24/7/7
f 8/9/9 22/12/12 53/10/10
f 22/12/12 4/84/63 27/13/13
f 53/10/10 27/13/13 6/14/14
f 31/11/11 53/10/10 25/15/15
f 3/17/6 29/20/5 54/18/17
f 29/20/5 8/9/9 31/11/11
f 54/18/17 31/11/11 9/16/16
f 26/19/18 54/18/17 30/21/19
f 10/23/21 33/26/24 55/24/22
f 33/26/24 4/84/63 22/27/12
f 55/24/22 22/27/12 8/28/9
f 36/25/23 55/24/22 35/29/4
f 2/31/25 23/34/28 56/32/26
f 23/34/28 10/23/21 36/25/23
f 56/32/26 36/25/23 12/30/1
f 21/33/27 56/32/26 32/35/29
f 7/36/30 32/35/29 57/37/31
f 32/35/29 12/30/1 37/39/3
f 57/37/31 37/39/3 11/40/8
f 28/38/32 57/37/31 34/41/33
f 20/43/35 51/46/38 58/44/36
f 51/46/38 11/85/8 24/47/7
f 58/44/36 24/47/7 3/6/6
f 49/45/37 58/44/36 44/48/39
f 17/50/40 46/53/43 59/51/41
f 46/53/43 18/63/50 41/54/44
f 59/51/41 41/54/44 15/55/45
f 39/52/42 59/51/41 42/56/46
f 3/58/6 26/61/18 60/59/48
f 26/61/18 5/22/20 45/62/49
f 60/59/48 45/62/49 18/63/50
f 44/60/39 60/59/48 46/53/43
f 19/64/51 50/67/54 61/65/52
f 50/67/54 20/76/35 49/68/37
f 61/65/52 49/68/37 17/69/40
f 48/66/53 61/65/52 39/70/42
f 13/71/55 38/74/58 62/72/56
f 38/74/58 16/77/60 47/75/59
f 62/72/56 47/75/59 20/76/35
f 40/73/57 62/72/56 50/67/54
f 16/77/60 43/79/62 63/78/61
f 43/79/62 1/42/34 34/80/33
f 63/78/61 34/80/33 11/81/8
f 47/75/59 63/78/61 51/82/38
