# Blender 5.0.1
# www.blender.org
o Exporting_sf.067
v 0.036000 1.798250 1.103985
v 0.036000 1.790711 1.093670
v 0.036000 1.786400 1.087151
v 0.067777 1.798477 1.103805
v 0.067905 1.790952 1.093505
v 0.067982 1.786804 1.087234
v 0.067840 1.794462 1.098510
v 0.036000 1.794226 1.098681
v 0.095083 1.795764 1.097548
v 0.095152 1.792289 1.092590
v 0.095028 1.788296 1.086567
v 0.068106 1.780217 1.074681
v 0.036000 1.779902 1.074729
v 0.067685 1.803672 1.108647
v 0.036000 1.803399 1.108772
v 0.004223 1.798477 1.103805
v 0.004096 1.790952 1.093505
v 0.004019 1.786804 1.087234
v 0.004160 1.794462 1.098510
v -0.023082 1.795764 1.097548
v -0.023152 1.792289 1.092590
v -0.023028 1.788296 1.086567
v 0.003895 1.780217 1.074681
v 0.004316 1.803672 1.108647
v 0.094743 1.795045 1.098117
v 0.095093 1.795278 1.097822
v 0.094993 1.795110 1.098020
v 0.094691 1.787514 1.087045
v 0.095038 1.787845 1.086891
v 0.094939 1.787618 1.087005
v 0.095085 1.799420 1.103281
v 0.094748 1.799042 1.103383
v 0.094992 1.799150 1.103345
v 0.095162 1.791831 1.092903
v 0.094816 1.791533 1.093108
v 0.095063 1.791623 1.093046
v 0.094739 1.780427 1.075441
v 0.094730 1.780544 1.074955
v 0.095080 1.780738 1.075255
v 0.094738 1.780385 1.075174
v 0.094939 1.780454 1.075189
v 0.094978 1.780605 1.075043
v 0.094985 1.780522 1.075386
v 0.036000 1.779311 1.075504
v 0.036000 1.779429 1.075018
v 0.036000 1.779270 1.075236
v 0.068120 1.779745 1.074970
v 0.068123 1.779627 1.075456
v 0.068124 1.779585 1.075189
v 0.094679 1.803484 1.108707
v 0.095026 1.803760 1.108476
v 0.094669 1.803985 1.108744
v 0.094925 1.803568 1.108637
v 0.094877 1.803736 1.108766
v 0.094920 1.803922 1.108665
v 0.094675 1.803727 1.108833
v 0.036000 1.803009 1.109150
v 0.036000 1.802509 1.109119
v 0.036000 1.802752 1.109244
v 0.067694 1.803272 1.109013
v 0.067703 1.802771 1.108979
v 0.067699 1.803014 1.109105
v 0.095018 1.804401 1.108374
v 0.095062 1.781210 1.074965
v 0.094712 1.781016 1.074666
v 0.094960 1.781077 1.074754
v -0.023093 1.795278 1.097821
v -0.022746 1.795045 1.098117
v -0.022994 1.795110 1.098020
v -0.023038 1.787844 1.086891
v -0.022690 1.787514 1.087045
v -0.022938 1.787618 1.087005
v -0.022743 1.799041 1.103383
v -0.023085 1.799423 1.103280
v -0.022990 1.799151 1.103344
v -0.022816 1.791533 1.093108
v -0.023162 1.791831 1.092903
v -0.023063 1.791623 1.093046
v -0.022739 1.780427 1.075441
v -0.023080 1.780738 1.075255
v -0.022730 1.780544 1.074955
v -0.022985 1.780522 1.075386
v -0.022939 1.780454 1.075189
v -0.022978 1.780605 1.075043
v -0.022738 1.780385 1.075174
v 0.003877 1.779627 1.075456
v 0.003880 1.779745 1.074970
v 0.003876 1.779585 1.075189
v -0.022679 1.803484 1.108707
v -0.022669 1.803985 1.108744
v -0.023026 1.803760 1.108476
v -0.022675 1.803727 1.108833
v -0.022877 1.803736 1.108766
v -0.022920 1.803922 1.108665
v -0.022925 1.803568 1.108637
v 0.004298 1.802771 1.108979
v 0.004306 1.803272 1.109013
v 0.004301 1.803014 1.109105
v -0.023018 1.804401 1.108375
v -0.022712 1.781016 1.074666
v -0.023062 1.781210 1.074965
v -0.022960 1.781077 1.074753
vn 0.0176 -0.8077 0.5893
vn -0.0000 -0.8265 0.5630
vn 0.0176 -0.8262 0.5630
vn -0.0000 -0.8443 0.5358
vn -0.0000 -0.8078 0.5895
vn 0.0178 -0.7831 0.6217
vn -0.0000 -0.7833 0.6216
vn -0.0176 -0.8077 0.5894
vn -0.0176 -0.8262 0.5630
vn -0.0177 -0.8439 0.5363
vn -0.0178 -0.7831 0.6217
vn 0.0261 -0.8532 0.5210
vn 0.5995 -0.7756 -0.1976
vn 0.7250 -0.5867 0.3607
vn 0.0154 -0.5223 -0.8526
vn 0.0293 -0.9718 -0.2341
vn 0.9997 0.0235 -0.0113
vn 0.7133 -0.3460 -0.6095
vn 0.0266 -0.7682 0.6396
vn 0.5842 -0.0505 0.8100
vn 0.0122 -0.0703 0.9975
vn 0.9999 0.0122 0.0016
vn 0.7222 -0.5266 0.4484
vn -0.0104 0.6701 0.7422
vn 0.6831 0.2697 0.6787
vn -0.0261 -0.8534 0.5207
vn -0.5995 -0.7756 -0.1975
vn -0.0293 -0.9717 -0.2344
vn -0.9997 0.0235 -0.0111
vn -0.7246 -0.5870 0.3612
vn -0.0155 -0.5219 -0.8528
vn -0.7133 -0.3460 -0.6095
vn -0.0268 -0.7681 0.6397
vn -0.5843 -0.0505 0.8100
vn -0.7218 -0.5270 0.4486
vn 0.0102 0.6696 0.7426
vn -0.0122 -0.0704 0.9974
vn -0.9999 0.0121 0.0017
vn -0.6830 0.2695 0.6789
vn 0.0264 -0.8075 0.5893
vn 0.7357 -0.5262 0.4264
vn 0.0258 -0.7825 0.6221
vn 0.9996 0.0268 -0.0108
vn 0.9997 0.0223 -0.0098
vn 0.0261 -0.8260 0.5630
vn 0.7251 -0.5825 0.3672
vn 0.7350 -0.5609 0.3810
vn 0.9997 0.0143 -0.0177
vn 0.9998 0.0132 -0.0125
vn 0.7278 -0.5540 0.4043
vn 0.0255 -0.8436 0.5364
vn 0.0177 -0.8543 0.5194
vn -0.0001 -0.9700 -0.2430
vn 0.0194 -0.9694 -0.2447
vn -0.0000 -0.5218 -0.8531
vn 0.0096 -0.5218 -0.8530
vn 0.9997 0.0234 -0.0117
vn 0.7130 -0.3460 -0.6099
vn 0.0147 -0.5220 -0.8528
vn 0.0108 -0.0657 0.9978
vn 0.0178 -0.7689 0.6392
vn -0.0067 0.6777 0.7353
vn -0.0000 -0.7693 0.6389
vn -0.0000 -0.0614 0.9981
vn -0.0000 0.6854 0.7281
vn -0.9996 0.0271 -0.0110
vn -0.7090 -0.5522 0.4386
vn -0.9997 0.0223 -0.0098
vn -0.0259 -0.8075 0.5893
vn -0.0254 -0.7825 0.6222
vn -0.9997 0.0144 -0.0177
vn -0.7087 -0.5839 0.3960
vn -0.9998 0.0130 -0.0124
vn -0.7248 -0.5828 0.3674
vn -0.0264 -0.8260 0.5631
vn -0.7287 -0.5530 0.4040
vn -0.0258 -0.8436 0.5364
vn -0.0189 -0.9742 -0.2248
vn -0.0095 -0.5216 -0.8532
vn -0.0177 -0.8538 0.5203
vn -0.7130 -0.3459 -0.6099
vn -0.0150 -0.5216 -0.8530
vn -0.9997 0.0236 -0.0113
vn 0.0067 0.6778 0.7353
vn -0.0061 -0.0736 0.9973
vn -0.0178 -0.7687 0.6393
vn 0.0262 -0.7824 0.6223
vn 1.0000 0.0021 -0.0005
vn 0.9992 0.0328 -0.0211
vn 0.9996 0.0275 -0.0120
vn 0.9996 0.0266 -0.0104
vn 0.9998 0.0129 -0.0123
vn 0.0261 -0.8075 0.5893
vn 0.0261 -0.8260 0.5631
vn 0.0263 -0.8433 0.5368
vn 0.0177 -0.8439 0.5362
vn 0.9997 0.0141 -0.0178
vn 0.9998 0.0131 -0.0124
vn 0.9997 0.0236 -0.0111
vn 0.9997 0.0147 -0.0173
vn 0.0262 -0.8532 0.5209
vn 0.9999 0.0129 0.0005
vn 0.0264 -0.7682 0.6397
vn 0.0178 -0.7691 0.6388
vn 0.0095 -0.5215 -0.8532
vn 0.0152 -0.5219 -0.8529
vn -0.0177 -0.8538 0.5204
vn 0.0177 -0.8538 0.5203
vn -0.0000 -0.5218 -0.8530
vn -0.0000 -0.5214 -0.8533
vn -0.0095 -0.5213 -0.8533
vn -0.0096 -0.5218 -0.8530
vn -0.0178 -0.7690 0.6390
vn -0.0000 -0.7696 0.6385
vn -0.0000 0.6858 0.7278
vn 0.0066 0.6778 0.7352
vn -0.0066 0.6778 0.7352
vn -0.0263 -0.7825 0.6221
vn -0.0261 -0.8075 0.5893
vn -0.9996 0.0266 -0.0103
vn -0.9998 0.0131 -0.0124
vn -0.9998 0.0128 -0.0122
vn -0.0261 -0.8260 0.5631
vn -0.0262 -0.8433 0.5368
vn -0.9997 0.0140 -0.0178
vn -0.9997 0.0147 -0.0173
vn -0.9997 0.0236 -0.0111
vn -0.0262 -0.8532 0.5209
vn -0.9999 0.0122 0.0008
vn -0.9992 0.0330 -0.0212
vn -0.9999 0.0132 0.0002
vn -0.0264 -0.7682 0.6397
vn -0.0152 -0.5223 -0.8526
vn -0.0152 -0.5218 -0.8529
vn -0.0000 -0.8539 0.5204
vn 0.8722 0.3013 0.3854
vn -0.8725 0.3018 0.3843
vn -0.0000 -0.8540 0.5203
vn -0.0045 0.6714 0.7411
vn -0.0105 0.6736 0.7390
vn -0.9995 0.0275 -0.0120
vn 0.0105 0.6731 0.7395
vn 0.0058 0.6725 0.7401
vt 0.894120 0.920787
vt 0.872753 0.919059
vt 0.893698 0.916932
vt 0.872294 0.913818
vt 0.873149 0.923157
vt 0.894678 0.924965
vt 0.873603 0.927640
vt 0.893259 0.912211
vt 0.906788 0.904124
vt 0.906910 0.903962
vt 0.906981 0.904131
vt 0.906841 0.903772
vt 0.906723 0.903949
vt 0.907104 0.903958
vt 0.907029 0.903790
vt 0.909717 0.926460
vt 0.909885 0.926612
vt 0.909698 0.926655
vt 0.910085 0.926576
vt 0.909906 0.926420
vt 0.909879 0.926812
vt 0.910065 0.926766
vt 0.906788 0.904124
vt 0.907104 0.903958
vt 0.909906 0.926420
vt 0.909879 0.926812
vt 0.909698 0.926655
vt 0.910085 0.926576
vt 0.910608 0.918905
vt 0.910381 0.922767
vt 0.910181 0.922790
vt 0.911049 0.918824
vt 0.910542 0.922926
vt 0.910375 0.915085
vt 0.909766 0.910511
vt 0.910593 0.915061
vt 0.909998 0.910455
vt 0.910816 0.915035
vt 0.910826 0.918860
vt 0.909549 0.910523
vt 0.892651 0.902844
vt 0.871770 0.904223
vt 0.892635 0.902604
vt 0.871752 0.903993
vt 0.892635 0.902397
vt 0.907295 0.903685
vt 0.907216 0.903513
vt 0.907026 0.903494
vt 0.895527 0.929983
vt 0.895482 0.929726
vt 0.895573 0.930236
vt 0.874093 0.932199
vt 0.874120 0.932448
vt 0.874148 0.932695
vt 0.911049 0.918824
vt 0.910381 0.922767
vt 0.910544 0.922927
vt 0.910610 0.918905
vt 0.910178 0.922790
vt 0.909998 0.910456
vt 0.910816 0.915035
vt 0.909766 0.910511
vt 0.910375 0.915085
vt 0.909549 0.910523
vt 0.892635 0.902605
vt 0.892651 0.902844
vt 0.907295 0.903685
vt 0.895527 0.929983
vt 0.910348 0.927000
vt 0.911394 0.918872
vt 0.911167 0.914994
vt 0.910351 0.910327
vt 0.910347 0.927000
vt 0.892632 0.902070
vt 0.871725 0.903632
vt 0.895641 0.930613
vt 0.874189 0.933062
vt 0.910347 0.927000
vt 0.871782 0.904465
vt 0.910346 0.927003
vt 0.910345 0.927003
s 1
f 7/1/1 2/2/2 5/3/3
f 3/4/4 5/3/3 2/2/2
f 8/5/5 4/6/6 1/7/7
f 2/2/2 19/1/8 17/3/9
f 3/4/4 17/3/9 18/8/10
f 8/5/5 16/6/11 19/1/8
f 37/9/12 41/10/13 43/11/14
f 38/12/15 41/10/13 40/13/16
f 39/14/17 41/10/13 42/15/18
f 50/16/19 54/17/20 56/18/21
f 51/19/22 54/17/20 53/20/23
f 52/21/24 54/17/20 55/22/25
f 79/23/26 83/10/27 85/13/28
f 80/24/29 83/10/27 82/11/30
f 81/12/31 83/10/27 84/15/32
f 89/16/33 93/17/34 95/25/35
f 90/26/36 93/17/34 92/27/37
f 91/28/38 93/17/34 94/22/39
f 25/29/40 33/30/41 32/31/42
f 33/30/41 26/32/43 31/33/44
f 35/34/45 30/35/46 36/36/47
f 36/36/47 29/37/48 34/38/49
f 50/16/19 33/30/41 53/20/23
f 53/20/23 31/33/44 51/19/22
f 35/34/45 27/39/50 25/29/40
f 36/36/47 26/32/43 27/39/50
f 28/40/51 43/11/14 30/35/46
f 30/35/46 39/14/17 29/37/48
f 48/41/52 46/42/53 49/43/54
f 49/43/54 45/44/55 47/45/56
f 64/46/57 42/15/18 66/47/58
f 66/47/58 38/12/15 65/48/59
f 48/41/52 40/13/16 37/9/12
f 49/43/54 38/12/15 40/13/16
f 50/16/19 62/49/60 61/50/61
f 56/18/21 60/51/62 62/49/60
f 58/52/63 62/49/60 59/53/64
f 62/49/60 57/54/65 59/53/64
f 67/55/66 75/56/67 74/57/68
f 75/56/67 68/58/69 73/59/70
f 70/60/71 78/36/72 77/61/73
f 72/62/74 76/63/75 78/36/72
f 74/57/68 95/25/35 91/28/38
f 75/56/67 89/16/33 95/25/35
f 67/55/66 78/36/72 69/39/76
f 69/39/76 76/63/75 68/58/69
f 80/24/29 72/62/74 70/60/71
f 82/11/30 71/64/77 72/62/74
f 45/44/55 88/65/78 87/45/79
f 46/42/53 86/66/80 88/65/78
f 81/12/31 102/47/81 100/48/82
f 84/15/32 101/67/83 102/47/81
f 81/12/31 88/65/78 85/13/28
f 85/13/28 86/66/80 79/23/26
f 97/51/84 92/27/37 98/68/85
f 98/68/85 89/16/33 96/50/86
f 57/54/65 98/68/85 59/53/64
f 98/68/85 58/52/63 59/53/64
f 7/1/1 32/31/87 4/6/6
f 63/69/88 31/33/89 9/70/90
f 26/32/91 10/71/92 9/70/90
f 25/29/93 5/3/3 35/34/94
f 28/40/95 5/3/3 6/8/96
f 29/37/97 10/71/92 34/38/98
f 39/14/99 11/72/100 29/37/97
f 6/8/96 37/9/101 28/40/95
f 63/73/88 51/19/102 31/33/89
f 4/6/6 50/16/103 61/50/104
f 47/45/105 65/48/106 38/12/106
f 86/66/107 3/4/4 18/8/10
f 3/4/4 48/41/108 6/8/96
f 12/74/105 45/44/109 13/75/110
f 23/74/111 45/44/109 87/45/112
f 1/7/7 96/50/113 16/6/11
f 1/7/7 61/50/104 58/52/114
f 57/54/115 24/76/116 97/51/116
f 57/54/115 14/76/117 15/77/115
f 19/1/8 73/59/118 68/58/119
f 67/55/120 21/71/121 77/61/122
f 17/3/9 68/58/119 76/63/123
f 17/3/9 71/64/124 18/8/10
f 21/71/121 70/60/125 77/61/122
f 22/72/126 80/24/127 70/60/125
f 79/23/128 18/8/10 71/64/124
f 99/78/129 74/57/130 91/28/131
f 16/6/11 89/16/132 73/59/118
f 100/48/133 87/45/112 81/12/134
f 7/1/1 8/5/5 2/2/2
f 3/4/4 6/8/96 5/3/3
f 8/5/5 7/1/1 4/6/6
f 2/2/2 8/5/5 19/1/8
f 3/4/4 2/2/2 17/3/9
f 8/5/5 1/7/7 16/6/11
f 37/9/12 40/13/16 41/10/13
f 38/12/15 42/15/18 41/10/13
f 39/14/17 43/11/14 41/10/13
f 50/16/19 53/20/23 54/17/20
f 51/19/22 55/22/25 54/17/20
f 52/21/24 56/18/21 54/17/20
f 79/23/26 82/11/30 83/10/27
f 80/24/29 84/15/32 83/10/27
f 81/12/31 85/13/28 83/10/27
f 89/16/33 92/27/37 93/17/34
f 90/26/36 94/22/39 93/17/34
f 91/28/38 95/25/35 93/17/34
f 25/29/40 27/39/50 33/30/41
f 33/30/41 27/39/50 26/32/43
f 35/34/45 28/40/51 30/35/46
f 36/36/47 30/35/46 29/37/48
f 50/16/19 32/31/42 33/30/41
f 53/20/23 33/30/41 31/33/44
f 35/34/45 36/36/47 27/39/50
f 36/36/47 34/38/49 26/32/43
f 28/40/51 37/9/12 43/11/14
f 30/35/46 43/11/14 39/14/17
f 48/41/52 44/79/135 46/42/53
f 49/43/54 46/42/53 45/44/55
f 64/46/57 39/14/17 42/15/18
f 66/47/58 42/15/18 38/12/15
f 48/41/52 49/43/54 40/13/16
f 49/43/54 47/45/56 38/12/15
f 55/22/25 51/19/22 63/73/136
f 50/16/19 56/18/21 62/49/60
f 56/18/21 52/21/24 60/51/62
f 58/52/63 61/50/61 62/49/60
f 62/49/60 60/51/62 57/54/65
f 67/55/66 69/39/76 75/56/67
f 75/56/67 69/39/76 68/58/69
f 70/60/71 72/62/74 78/36/72
f 72/62/74 71/64/77 76/63/75
f 74/57/68 75/56/67 95/25/35
f 75/56/67 73/59/70 89/16/33
f 67/55/66 77/61/73 78/36/72
f 69/39/76 78/36/72 76/63/75
f 80/24/29 82/11/30 72/62/74
f 82/11/30 79/23/26 71/64/77
f 45/44/55 46/42/53 88/65/78
f 46/42/53 44/79/135 86/66/80
f 81/12/31 84/15/32 102/47/81
f 84/15/32 80/24/29 101/67/83
f 81/12/31 87/45/79 88/65/78
f 85/13/28 88/65/78 86/66/80
f 99/78/137 91/28/38 94/22/39
f 97/51/84 90/26/36 92/27/37
f 98/68/85 92/27/37 89/16/33
f 57/54/65 97/51/84 98/68/85
f 98/68/85 96/50/86 58/52/63
f 7/1/1 25/29/93 32/31/87
f 31/33/89 26/32/91 9/70/90
f 26/32/91 34/38/98 10/71/92
f 25/29/93 7/1/1 5/3/3
f 28/40/95 35/34/94 5/3/3
f 29/37/97 11/72/100 10/71/92
f 39/14/99 64/46/99 11/72/100
f 6/8/96 48/41/108 37/9/101
f 4/6/6 32/31/87 50/16/103
f 47/45/105 12/74/105 65/48/106
f 86/66/107 44/79/138 3/4/4
f 3/4/4 44/79/138 48/41/108
f 12/74/105 47/45/105 45/44/109
f 23/74/111 13/75/110 45/44/109
f 63/80/139 14/76/117 52/21/140
f 14/76/117 60/51/117 52/21/140
f 1/7/7 58/52/114 96/50/113
f 1/7/7 4/6/6 61/50/104
f 57/54/115 15/77/115 24/76/116
f 57/54/115 60/51/117 14/76/117
f 19/1/8 16/6/11 73/59/118
f 67/55/120 74/57/130 20/70/141
f 74/57/130 99/78/129 20/70/141
f 67/55/120 20/70/141 21/71/121
f 17/3/9 19/1/8 68/58/119
f 17/3/9 76/63/123 71/64/124
f 21/71/121 22/72/126 70/60/125
f 22/72/126 101/67/127 80/24/127
f 79/23/128 86/66/107 18/8/10
f 16/6/11 96/50/113 89/16/132
f 100/48/133 23/74/111 87/45/112
f 97/51/116 24/76/116 90/26/142
f 24/76/116 99/81/143 90/26/142
