# Blender 5.1.1
# www.blender.org
o Exporting_sf.155
v 0.221002 3.077595 0.074276
v 0.210679 3.077234 0.063959
v 0.220804 3.077524 0.072263
v 0.220217 3.077457 0.070328
v 0.219263 3.077394 0.068544
v 0.217979 3.077340 0.066980
v 0.216414 3.077295 0.065697
v 0.214629 3.077262 0.064744
v 0.212693 3.077241 0.064157
v -0.210679 3.077234 0.063958
v -0.221002 3.077595 0.074276
v -0.212693 3.077241 0.064157
v -0.214629 3.077262 0.064744
v -0.216414 3.077295 0.065697
v -0.217979 3.077340 0.066980
v -0.219263 3.077394 0.068544
v -0.220217 3.077457 0.070328
v -0.220804 3.077524 0.072263
v 0.210679 3.081352 0.181887
v 0.221002 3.080992 0.171569
v 0.212693 3.081345 0.181688
v 0.214629 3.081325 0.181101
v 0.216414 3.081292 0.180148
v 0.217979 3.081247 0.178865
v 0.219263 3.081192 0.177301
v 0.220217 3.081130 0.175518
v 0.220804 3.081062 0.173582
v -0.221002 3.080992 0.171569
v -0.210679 3.081352 0.181887
v -0.220804 3.081062 0.173582
v -0.220217 3.081130 0.175517
v -0.219263 3.081192 0.177301
v -0.217979 3.081247 0.178865
v -0.216414 3.081292 0.180148
v -0.214629 3.081325 0.181101
v -0.212693 3.081345 0.181688
vn -0.0000 0.9994 -0.0349
vn -0.0000 0.9994 -0.0350
vn -0.0000 0.9994 -0.0348
vn -0.0001 0.9994 -0.0350
vn -0.0001 0.9994 -0.0348
vn -0.0001 0.9994 -0.0349
vn -0.0000 0.9994 -0.0347
vn -0.0002 0.9994 -0.0348
vn -0.0001 0.9994 -0.0346
vn 0.0001 0.9994 -0.0349
vt 0.991116 0.889410
vt 0.984397 0.947810
vt 0.968175 0.972000
vt 0.031825 0.972000
vt 0.031825 0.028000
vt 0.027350 0.970413
vt 0.009324 0.905522
vt 0.008884 0.110590
vt 0.023046 0.034287
vt 0.023046 0.965713
vt 0.019080 0.958081
vt 0.015603 0.947810
vt 0.012750 0.935294
vt 0.010630 0.921016
vt 0.008884 0.889410
vt 0.009324 0.094478
vt 0.010630 0.078985
vt 0.012750 0.064706
vt 0.015603 0.052191
vt 0.019080 0.041919
vt 0.027350 0.029587
vt 0.968175 0.028000
vt 0.972650 0.029587
vt 0.987250 0.064706
vt 0.976954 0.034287
vt 0.980920 0.041919
vt 0.984397 0.052191
vt 0.989370 0.078985
vt 0.990676 0.094478
vt 0.991116 0.110590
vt 0.990676 0.905522
vt 0.989370 0.921016
vt 0.987250 0.935294
vt 0.980920 0.958081
vt 0.976954 0.965713
vt 0.972650 0.970413
s 1
f 28/1/1 33/2/1 29/3/1
f 29/3/1 19/4/2 2/5/2
f 19/4/2 21/6/3 27/7/1
f 2/5/2 1/8/1 8/9/2
f 21/6/3 22/10/1 23/11/3
f 23/11/3 24/12/1 25/13/1
f 25/13/1 26/14/4 23/11/3
f 26/14/4 27/7/1 23/11/3
f 27/7/1 20/15/1 19/4/2
f 20/15/1 1/8/1 19/4/2
f 1/8/1 3/16/1 4/17/3
f 4/17/3 5/18/1 6/19/5
f 6/19/5 7/20/6 8/9/2
f 8/9/2 9/21/1 2/5/2
f 2/5/2 10/22/1 29/3/1
f 10/22/1 12/23/7 16/24/3
f 29/3/1 10/22/1 28/1/1
f 12/23/7 13/25/8 14/26/9
f 14/26/9 15/27/3 12/23/7
f 15/27/3 16/24/3 12/23/7
f 16/24/3 17/28/5 18/29/2
f 18/29/2 11/30/1 16/24/3
f 11/30/1 28/1/1 10/22/1
f 16/24/3 11/30/1 10/22/1
f 28/1/1 30/31/10 31/32/10
f 31/32/10 32/33/1 28/1/1
f 32/33/1 33/2/1 28/1/1
f 33/2/1 34/34/6 35/35/3
f 35/35/3 36/36/1 29/3/1
f 1/8/1 2/5/2 19/4/2
f 21/6/3 23/11/3 27/7/1
f 1/8/1 4/17/3 8/9/2
f 4/17/3 6/19/5 8/9/2
f 33/2/1 35/35/3 29/3/1
