# Blender 5.1.1
# www.blender.org
o Regplate_FIN_Plate_Finish
v -0.221002 -0.049101 0.000000
v -0.211103 -0.059000 0.000000
v -0.220812 -0.051032 0.000000
v -0.220249 -0.052889 0.000000
v -0.219334 -0.054600 0.000000
v -0.218103 -0.056101 0.000000
v -0.216603 -0.057332 0.000000
v -0.214891 -0.058246 0.000000
v -0.213034 -0.058810 0.000000
v 0.211103 -0.059000 0.000000
v 0.221002 -0.049101 0.000000
v 0.213034 -0.058810 0.000000
v 0.214891 -0.058246 0.000000
v 0.216603 -0.057332 0.000000
v 0.218103 -0.056101 0.000000
v 0.219334 -0.054600 0.000000
v 0.220249 -0.052889 0.000000
v 0.220812 -0.051032 0.000000
v -0.211103 0.059000 0.000000
v -0.221002 0.049101 0.000000
v -0.213034 0.058810 0.000000
v -0.214891 0.058246 0.000000
v -0.216603 0.057332 0.000000
v -0.218103 0.056101 0.000000
v -0.219334 0.054600 0.000000
v -0.220249 0.052889 0.000000
v -0.220812 0.051032 0.000000
v 0.221002 0.049101 0.000000
v 0.211103 0.059000 0.000000
v 0.220812 0.051032 0.000000
v 0.220249 0.052889 0.000000
v 0.219334 0.054600 0.000000
v 0.218103 0.056101 0.000000
v 0.216603 0.057332 0.000000
v 0.214891 0.058246 0.000000
v 0.213034 0.058810 0.000000
v -0.211103 -0.059000 -0.000397
v -0.221002 -0.049101 -0.000397
v -0.213034 -0.058810 -0.000397
v -0.214891 -0.058246 -0.000397
v -0.216603 -0.057332 -0.000397
v -0.218103 -0.056101 -0.000397
v -0.219334 -0.054600 -0.000397
v -0.220249 -0.052889 -0.000397
v -0.220812 -0.051032 -0.000397
v 0.221002 -0.049101 -0.000397
v 0.211103 -0.059000 -0.000397
v 0.220812 -0.051032 -0.000397
v 0.220249 -0.052889 -0.000397
v 0.219334 -0.054600 -0.000397
v 0.218103 -0.056101 -0.000397
v 0.216603 -0.057332 -0.000397
v 0.214891 -0.058246 -0.000397
v 0.213034 -0.058810 -0.000397
v -0.221002 0.049101 -0.000397
v -0.211103 0.059000 -0.000397
v -0.220812 0.051032 -0.000397
v -0.220249 0.052889 -0.000397
v -0.219334 0.054600 -0.000397
v -0.218103 0.056101 -0.000397
v -0.216603 0.057332 -0.000397
v -0.214891 0.058246 -0.000397
v -0.213034 0.058810 -0.000397
v 0.211103 0.059000 -0.000397
v 0.221002 0.049101 -0.000397
v 0.213034 0.058810 -0.000397
v 0.214891 0.058246 -0.000397
v 0.216603 0.057332 -0.000397
v 0.218103 0.056101 -0.000397
v 0.219334 0.054600 -0.000397
v 0.220249 0.052889 -0.000397
v 0.220812 0.051032 -0.000397
vn 0.0003 -1.0000 -0.0000
vn 0.1951 -0.9808 -0.0000
vn 0.0004 -1.0000 -0.0000
vn 0.3827 -0.9239 -0.0000
vn 0.5556 -0.8315 -0.0000
vn 0.7071 -0.7071 -0.0000
vn 0.8315 -0.5556 -0.0000
vn 0.9239 -0.3827 -0.0000
vn 0.9808 -0.1951 -0.0000
vn 1.0000 -0.0017 -0.0000
vn -1.0000 -0.0017 -0.0000
vn -0.9808 -0.1951 -0.0000
vn -1.0000 -0.0019 -0.0000
vn -0.9239 -0.3827 -0.0000
vn -0.8315 -0.5556 -0.0000
vn -0.7071 -0.7071 -0.0000
vn -0.5556 -0.8315 -0.0000
vn -0.3827 -0.9239 -0.0000
vn -0.1951 -0.9808 -0.0000
vn -0.0003 -1.0000 -0.0000
vn -0.0003 1.0000 -0.0000
vn -0.1951 0.9808 -0.0000
vn -0.0004 1.0000 -0.0000
vn -0.3827 0.9239 -0.0000
vn -0.5556 0.8315 -0.0000
vn -0.7071 0.7071 -0.0000
vn -0.8315 0.5556 -0.0000
vn -0.9239 0.3827 -0.0000
vn -0.9808 0.1951 -0.0000
vn -1.0000 0.0017 -0.0000
vn 0.0003 1.0000 -0.0000
vn 0.1951 0.9808 -0.0000
vn 0.0004 1.0000 -0.0000
vn 0.3827 0.9239 -0.0000
vn 0.5556 0.8315 -0.0000
vn 0.7071 0.7071 -0.0000
vn 0.8315 0.5556 -0.0000
vn 0.9239 0.3827 -0.0000
vn 0.9808 0.1951 -0.0000
vn 1.0000 0.0017 -0.0000
vn -0.0000 -0.0000 1.0000
vn 1.0000 0.0019 -0.0000
vn -0.0000 -0.0000 -1.0000
vn 1.0000 -0.0019 -0.0000
vn -0.0004 -1.0000 -0.0000
vn -1.0000 0.0019 -0.0000
vt 0.969118 0.496915
vt 0.973409 0.500001
vt 0.969118 0.500001
vt 0.973409 0.496915
vt 0.977536 0.500001
vt 0.977536 0.496915
vt 0.981339 0.500001
vt 0.981339 0.496915
vt 0.984673 0.500001
vt 0.984673 0.496915
vt 0.987409 0.500001
vt 0.987409 0.496915
vt 0.989442 0.500001
vt 0.989442 0.496915
vt 0.990694 0.500001
vt 0.990694 0.496915
vt 0.991116 0.500001
vt 0.008884 0.496915
vt 0.009306 0.500001
vt 0.008884 0.500001
vt 0.009306 0.496915
vt 0.010558 0.500001
vt 0.010558 0.496915
vt 0.012591 0.500001
vt 0.012591 0.496915
vt 0.015327 0.500001
vt 0.015327 0.496915
vt 0.018661 0.500001
vt 0.018661 0.496915
vt 0.022464 0.500001
vt 0.022464 0.496915
vt 0.026591 0.500001
vt 0.026591 0.496915
vt 0.030882 0.500001
vt 0.030882 0.496915
vt 0.026591 0.500001
vt 0.030882 0.500001
vt 0.026591 0.496915
vt 0.022464 0.500001
vt 0.022464 0.496915
vt 0.018661 0.500001
vt 0.018661 0.496915
vt 0.015327 0.500001
vt 0.015327 0.496915
vt 0.012591 0.500001
vt 0.012591 0.496915
vt 0.010558 0.500001
vt 0.010558 0.496915
vt 0.009306 0.500001
vt 0.009306 0.496915
vt 0.969118 0.500001
vt 0.973409 0.496915
vt 0.969118 0.496915
vt 0.973409 0.500001
vt 0.977536 0.496915
vt 0.977536 0.500001
vt 0.981339 0.496915
vt 0.981339 0.500001
vt 0.984673 0.496915
vt 0.984673 0.500001
vt 0.987409 0.496915
vt 0.987409 0.500001
vt 0.989442 0.496915
vt 0.989442 0.500001
vt 0.990694 0.496915
vt 0.990694 0.500001
vt 0.991116 0.496915
vt 0.991116 0.496915
vt 0.030882 0.496915
vt 0.008884 0.496915
s 1
f 47/1/1 12/2/2 10/3/3
f 54/4/2 13/5/4 12/2/2
f 53/6/4 14/7/5 13/5/4
f 52/8/5 15/9/6 14/7/5
f 51/10/6 16/11/7 15/9/6
f 50/12/7 17/13/8 16/11/7
f 49/14/8 18/15/9 17/13/8
f 48/16/9 11/17/10 18/15/9
f 38/18/11 3/19/12 1/20/13
f 45/21/12 4/22/14 3/19/12
f 44/23/14 5/24/15 4/22/14
f 43/25/15 6/26/16 5/24/15
f 42/27/16 7/28/17 6/26/16
f 41/29/17 8/30/18 7/28/17
f 40/31/18 9/32/19 8/30/18
f 39/33/19 2/34/20 9/32/19
f 56/35/21 21/36/22 19/37/23
f 63/38/22 22/39/24 21/36/22
f 62/40/24 23/41/25 22/39/24
f 61/42/25 24/43/26 23/41/25
f 60/44/26 25/45/27 24/43/26
f 59/46/27 26/47/28 25/45/27
f 58/48/28 27/49/29 26/47/28
f 57/50/29 20/20/30 27/49/29
f 29/51/31 66/52/32 64/53/33
f 36/54/32 67/55/34 66/52/32
f 35/56/34 68/57/35 67/55/34
f 34/58/35 69/59/36 68/57/35
f 33/60/36 70/61/37 69/59/36
f 32/62/37 71/63/38 70/61/37
f 31/64/38 72/65/39 71/63/38
f 30/66/39 65/67/40 72/65/39
f 20/20/30 38/18/11 1/20/13
f 2/34/20 47/1/1 10/3/3
f 27/49/41 16/11/41 33/60/41
f 11/17/10 65/67/40 28/17/42
f 29/51/31 56/35/21 19/37/23
f 54/4/43 61/42/43 69/59/43
f 47/1/1 54/4/2 12/2/2
f 54/4/2 53/6/4 13/5/4
f 53/6/4 52/8/5 14/7/5
f 52/8/5 51/10/6 15/9/6
f 51/10/6 50/12/7 16/11/7
f 50/12/7 49/14/8 17/13/8
f 49/14/8 48/16/9 18/15/9
f 48/16/9 46/68/44 11/17/10
f 38/18/11 45/21/12 3/19/12
f 45/21/12 44/23/14 4/22/14
f 44/23/14 43/25/15 5/24/15
f 43/25/15 42/27/16 6/26/16
f 42/27/16 41/29/17 7/28/17
f 41/29/17 40/31/18 8/30/18
f 40/31/18 39/33/19 9/32/19
f 39/33/19 37/69/45 2/34/20
f 56/35/21 63/38/22 21/36/22
f 63/38/22 62/40/24 22/39/24
f 62/40/24 61/42/25 23/41/25
f 61/42/25 60/44/26 24/43/26
f 60/44/26 59/46/27 25/45/27
f 59/46/27 58/48/28 26/47/28
f 58/48/28 57/50/29 27/49/29
f 57/50/29 55/70/46 20/20/30
f 29/51/31 36/54/32 66/52/32
f 36/54/32 35/56/34 67/55/34
f 35/56/34 34/58/35 68/57/35
f 34/58/35 33/60/36 69/59/36
f 33/60/36 32/62/37 70/61/37
f 32/62/37 31/64/38 71/63/38
f 31/64/38 30/66/39 72/65/39
f 30/66/39 28/17/42 65/67/40
f 20/20/30 55/70/46 38/18/11
f 2/34/20 37/69/45 47/1/1
f 29/51/41 19/37/41 21/36/41
f 21/36/41 22/39/41 23/41/41
f 23/41/41 24/43/41 25/45/41
f 25/45/41 26/47/41 27/49/41
f 27/49/41 20/20/41 1/20/41
f 1/20/41 3/19/41 4/22/41
f 4/22/41 5/24/41 6/26/41
f 6/26/41 7/28/41 8/30/41
f 8/30/41 9/32/41 2/34/41
f 2/34/41 10/3/41 12/2/41
f 12/2/41 13/5/41 14/7/41
f 14/7/41 15/9/41 16/11/41
f 16/11/41 17/13/41 18/15/41
f 18/15/41 11/17/41 28/17/41
f 28/17/41 30/66/41 31/64/41
f 31/64/41 32/62/41 33/60/41
f 33/60/41 34/58/41 35/56/41
f 35/56/41 36/54/41 29/51/41
f 29/51/41 21/36/41 23/41/41
f 23/41/41 25/45/41 27/49/41
f 27/49/41 1/20/41 4/22/41
f 4/22/41 6/26/41 8/30/41
f 8/30/41 2/34/41 12/2/41
f 12/2/41 14/7/41 16/11/41
f 16/11/41 18/15/41 28/17/41
f 28/17/41 31/64/41 33/60/41
f 33/60/41 35/56/41 29/51/41
f 29/51/41 23/41/41 27/49/41
f 27/49/41 4/22/41 8/30/41
f 8/30/41 12/2/41 16/11/41
f 16/11/41 28/17/41 33/60/41
f 33/60/41 29/51/41 27/49/41
f 27/49/41 8/30/41 16/11/41
f 11/17/10 46/68/44 65/67/40
f 29/51/31 64/53/33 56/35/21
f 65/67/43 46/68/43 48/16/43
f 48/16/43 49/14/43 50/12/43
f 50/12/43 51/10/43 52/8/43
f 52/8/43 53/6/43 54/4/43
f 54/4/43 47/1/43 37/69/43
f 37/69/43 39/33/43 40/31/43
f 40/31/43 41/29/43 42/27/43
f 42/27/43 43/25/43 44/23/43
f 44/23/43 45/21/43 38/18/43
f 38/18/43 55/70/43 57/50/43
f 57/50/43 58/48/43 59/46/43
f 59/46/43 60/44/43 61/42/43
f 61/42/43 62/40/43 63/38/43
f 63/38/43 56/35/43 64/53/43
f 64/53/43 66/52/43 67/55/43
f 67/55/43 68/57/43 69/59/43
f 69/59/43 70/61/43 71/63/43
f 71/63/43 72/65/43 65/67/43
f 65/67/43 48/16/43 50/12/43
f 50/12/43 52/8/43 54/4/43
f 54/4/43 37/69/43 40/31/43
f 40/31/43 42/27/43 44/23/43
f 44/23/43 38/18/43 57/50/43
f 57/50/43 59/46/43 61/42/43
f 61/42/43 63/38/43 64/53/43
f 64/53/43 67/55/43 69/59/43
f 69/59/43 71/63/43 65/67/43
f 65/67/43 50/12/43 54/4/43
f 54/4/43 40/31/43 44/23/43
f 44/23/43 57/50/43 61/42/43
f 61/42/43 64/53/43 69/59/43
f 69/59/43 65/67/43 54/4/43
f 54/4/43 44/23/43 61/42/43
