# Blender 5.1.1
# www.blender.org
o Exporting_sf.156
v 0.208858 0.054712 -0.040958
v 0.219182 0.052302 -0.050997
v 0.209057 0.054242 -0.042917
v 0.209644 0.053790 -0.044800
v 0.210598 0.053373 -0.046536
v 0.211882 0.053008 -0.048057
v 0.213447 0.052708 -0.049305
v 0.215231 0.052486 -0.050233
v 0.217168 0.052349 -0.050804
v 0.640540 0.052302 -0.050997
v 0.650863 0.054712 -0.040958
v 0.642554 0.052349 -0.050804
v 0.644490 0.052486 -0.050233
v 0.646275 0.052708 -0.049305
v 0.647840 0.053008 -0.048057
v 0.649123 0.053373 -0.046536
v 0.650077 0.053790 -0.044800
v 0.650665 0.054242 -0.042917
v 0.219182 0.079849 0.063743
v 0.208858 0.077439 0.053704
v 0.217168 0.079803 0.063550
v 0.215231 0.079665 0.062979
v 0.213447 0.079443 0.062051
v 0.211882 0.079143 0.060803
v 0.210598 0.078778 0.059281
v 0.209644 0.078361 0.057546
v 0.209057 0.077909 0.055663
v 0.650863 0.077439 0.053704
v 0.640540 0.079849 0.063743
v 0.650665 0.077909 0.055663
v 0.650077 0.078361 0.057546
v 0.649123 0.078778 0.059281
v 0.647840 0.079143 0.060803
v 0.646275 0.079443 0.062051
v 0.644490 0.079665 0.062979
v 0.642554 0.079803 0.063550
v 0.219182 0.052688 -0.051090
v 0.208858 0.055098 -0.041051
v 0.217168 0.052734 -0.050897
v 0.215231 0.052872 -0.050325
v 0.213447 0.053094 -0.049398
v 0.211882 0.053394 -0.048149
v 0.210598 0.053759 -0.046628
v 0.209644 0.054176 -0.044893
v 0.209057 0.054628 -0.043009
v 0.650863 0.055098 -0.041051
v 0.640540 0.052688 -0.051090
v 0.650665 0.054628 -0.043009
v 0.650077 0.054176 -0.044893
v 0.649123 0.053759 -0.046628
v 0.647840 0.053394 -0.048149
v 0.646275 0.053094 -0.049398
v 0.644490 0.052872 -0.050325
v 0.642554 0.052734 -0.050897
v 0.208858 0.077825 0.053612
v 0.219182 0.080235 0.063650
v 0.209057 0.078295 0.055570
v 0.209644 0.078747 0.057453
v 0.210598 0.079164 0.059189
v 0.211882 0.079529 0.060710
v 0.213447 0.079829 0.061958
v 0.215231 0.080051 0.062886
v 0.217168 0.080188 0.063457
v 0.640540 0.080235 0.063650
v 0.650863 0.077825 0.053612
v 0.642554 0.080188 0.063457
v 0.644490 0.080051 0.062886
v 0.646275 0.079829 0.061958
v 0.647840 0.079529 0.060710
v 0.649123 0.079164 0.059189
v 0.650077 0.078747 0.057453
v 0.650665 0.078295 0.055570
vn 0.0005 -0.2335 -0.9724
vn 0.1951 -0.2290 -0.9537
vn 0.3827 -0.2157 -0.8983
vn 0.5556 -0.1941 -0.8085
vn 0.5555 -0.1941 -0.8085
vn 0.7071 -0.1651 -0.6876
vn 0.8315 -0.1296 -0.5402
vn 0.9239 -0.0893 -0.3721
vn 0.9808 -0.0455 -0.1897
vn 1.0000 -0.0003 -0.0020
vn 1.0000 -0.0004 -0.0020
vn -1.0000 -0.0004 -0.0020
vn -0.9808 -0.0455 -0.1897
vn -0.9808 -0.0456 -0.1897
vn -0.9239 -0.0894 -0.3721
vn -0.8315 -0.1296 -0.5402
vn -0.7071 -0.1651 -0.6876
vn -0.5556 -0.1940 -0.8085
vn -0.3827 -0.2157 -0.8984
vn -0.1951 -0.2290 -0.9537
vn -0.0005 -0.2335 -0.9724
vn -0.0005 0.2333 0.9724
vn -0.1951 0.2289 0.9537
vn -0.3827 0.2156 0.8984
vn -0.5556 0.1942 0.8085
vn -0.5555 0.1942 0.8085
vn -0.7071 0.1651 0.6875
vn -0.7071 0.1651 0.6876
vn -0.8315 0.1298 0.5402
vn -0.9239 0.0894 0.3721
vn -0.9808 0.0456 0.1897
vn -0.9808 0.0455 0.1897
vn -1.0000 0.0005 0.0020
vn -1.0000 0.0005 0.0019
vn 0.0005 0.2332 0.9724
vn 0.1951 0.2289 0.9537
vn 0.3827 0.2156 0.8984
vn 0.5556 0.1942 0.8085
vn 0.7071 0.1652 0.6876
vn 0.7071 0.1652 0.6875
vn 0.8315 0.1299 0.5402
vn 0.8315 0.1298 0.5402
vn 0.9239 0.0894 0.3721
vn 0.9808 0.0456 0.1897
vn 1.0000 0.0004 0.0020
vn 1.0000 0.0005 0.0020
vn -1.0000 -0.0005 -0.0019
vn -0.0000 -0.9724 0.2334
vn -0.0000 -0.9724 0.2335
vn 0.0005 0.2333 0.9724
vn -0.0001 -0.9724 0.2335
vn 0.0001 -0.9724 0.2333
vn 0.0002 -0.9724 0.2332
vn 0.0002 -0.9724 0.2334
vn 0.0001 -0.9724 0.2335
vn 0.0001 -0.9723 0.2336
vn 0.0001 -0.9723 0.2337
vn -0.0002 -0.9723 0.2336
vn 0.0002 -0.9724 0.2333
vn -0.0002 -0.9724 0.2335
vt 0.968175 0.028000
vt 0.972650 0.029587
vt 0.976954 0.034287
vt 0.980920 0.041919
vt 0.984397 0.052191
vt 0.987250 0.064706
vt 0.989370 0.078985
vt 0.990676 0.094478
vt 0.991116 0.110590
vt 0.008884 0.110590
vt 0.009324 0.094478
vt 0.010630 0.078985
vt 0.012750 0.064706
vt 0.015603 0.052191
vt 0.019080 0.041919
vt 0.023046 0.034287
vt 0.027350 0.029587
vt 0.031825 0.028000
vt 0.031825 0.972000
vt 0.027350 0.970413
vt 0.023046 0.965713
vt 0.019080 0.958081
vt 0.015603 0.947810
vt 0.012750 0.935294
vt 0.010630 0.921016
vt 0.009324 0.905522
vt 0.008884 0.889410
vt 0.968175 0.972000
vt 0.972650 0.970413
vt 0.976954 0.965713
vt 0.980920 0.958081
vt 0.984397 0.947810
vt 0.987250 0.935294
vt 0.989370 0.921016
vt 0.990676 0.905522
vt 0.991116 0.889410
s 1
f 10/1/1 54/2/2 12/2/2
f 12/2/2 53/3/3 13/3/3
f 13/3/3 52/4/4 14/4/5
f 14/4/5 51/5/6 15/5/6
f 15/5/6 50/6/7 16/6/7
f 16/6/7 49/7/8 17/7/8
f 17/7/8 48/8/9 18/8/9
f 18/8/9 46/9/10 11/9/11
f 1/10/12 45/11/13 3/11/14
f 3/11/14 44/12/15 4/12/15
f 4/12/15 43/13/16 5/13/16
f 5/13/16 42/14/17 6/14/17
f 6/14/17 41/15/18 7/15/18
f 7/15/18 40/16/19 8/16/19
f 8/16/19 39/17/20 9/17/20
f 9/17/20 37/18/21 2/18/21
f 19/19/22 63/20/23 21/20/23
f 21/20/23 62/21/24 22/21/24
f 22/21/24 61/22/25 23/22/26
f 23/22/26 60/23/27 24/23/28
f 24/23/28 59/24/29 25/24/29
f 25/24/29 58/25/30 26/25/30
f 26/25/30 57/26/31 27/26/32
f 27/26/32 55/27/33 20/27/34
f 64/28/35 36/29/36 66/29/36
f 66/29/36 35/30/37 67/30/37
f 67/30/37 34/31/38 68/31/38
f 68/31/38 33/32/39 69/32/40
f 69/32/40 32/33/41 70/33/42
f 70/33/42 31/34/43 71/34/43
f 71/34/43 30/35/44 72/35/44
f 72/35/44 28/36/45 65/36/46
f 1/10/12 55/27/33 38/10/47
f 10/1/1 37/18/21 47/1/1
f 28/36/48 33/32/49 29/28/49
f 28/36/45 46/9/10 65/36/46
f 19/19/22 64/28/35 56/19/22
f 10/1/1 47/1/1 54/2/2
f 12/2/2 54/2/2 53/3/3
f 13/3/3 53/3/3 52/4/4
f 14/4/5 52/4/4 51/5/6
f 15/5/6 51/5/6 50/6/7
f 16/6/7 50/6/7 49/7/8
f 17/7/8 49/7/8 48/8/9
f 18/8/9 48/8/9 46/9/10
f 1/10/12 38/10/47 45/11/13
f 3/11/14 45/11/13 44/12/15
f 4/12/15 44/12/15 43/13/16
f 5/13/16 43/13/16 42/14/17
f 6/14/17 42/14/17 41/15/18
f 7/15/18 41/15/18 40/16/19
f 8/16/19 40/16/19 39/17/20
f 9/17/20 39/17/20 37/18/21
f 19/19/22 56/19/22 63/20/23
f 21/20/23 63/20/23 62/21/24
f 22/21/24 62/21/24 61/22/25
f 23/22/26 61/22/25 60/23/27
f 24/23/28 60/23/27 59/24/29
f 25/24/29 59/24/29 58/25/30
f 26/25/30 58/25/30 57/26/31
f 27/26/32 57/26/31 55/27/33
f 64/28/35 29/28/50 36/29/36
f 66/29/36 36/29/36 35/30/37
f 67/30/37 35/30/37 34/31/38
f 68/31/38 34/31/38 33/32/39
f 69/32/40 33/32/39 32/33/41
f 70/33/42 32/33/41 31/34/43
f 71/34/43 31/34/43 30/35/44
f 72/35/44 30/35/44 28/36/45
f 1/10/12 20/27/34 55/27/33
f 10/1/1 2/18/21 37/18/21
f 29/28/49 19/19/49 2/18/49
f 19/19/49 21/20/49 27/26/51
f 2/18/49 1/10/49 8/16/49
f 21/20/49 22/21/52 23/22/48
f 23/22/48 24/23/53 25/24/48
f 25/24/48 26/25/54 27/26/51
f 27/26/51 20/27/49 19/19/49
f 20/27/49 1/10/49 19/19/49
f 1/10/49 3/11/48 4/12/55
f 4/12/55 5/13/56 8/16/49
f 5/13/56 6/14/48 8/16/49
f 6/14/48 7/15/48 8/16/49
f 8/16/49 9/17/57 2/18/49
f 2/18/49 10/1/49 29/28/49
f 10/1/49 12/2/49 16/6/49
f 29/28/49 10/1/49 28/36/48
f 12/2/49 13/3/48 16/6/49
f 13/3/48 14/4/58 16/6/49
f 14/4/58 15/5/59 16/6/49
f 16/6/49 17/7/54 18/8/60
f 18/8/60 11/9/49 16/6/49
f 11/9/49 28/36/48 10/1/49
f 16/6/49 11/9/49 10/1/49
f 28/36/48 30/35/48 31/34/49
f 31/34/49 32/33/56 33/32/49
f 33/32/49 34/31/56 35/30/48
f 35/30/48 36/29/57 29/28/49
f 1/10/49 2/18/49 19/19/49
f 21/20/49 23/22/48 27/26/51
f 23/22/48 25/24/48 27/26/51
f 1/10/49 4/12/55 8/16/49
f 28/36/48 31/34/49 33/32/49
f 33/32/49 35/30/48 29/28/49
f 28/36/45 11/9/11 46/9/10
f 19/19/22 29/28/50 64/28/35
