# Blender 5.1.1
# www.blender.org
o Exporting_sf.155
v 0.221002 3.077540 0.074278
v 0.210679 3.077179 0.063960
v 0.220804 3.077469 0.072265
v 0.220217 3.077402 0.070330
v 0.219263 3.077339 0.068546
v 0.217979 3.077285 0.066982
v 0.216414 3.077240 0.065699
v 0.214629 3.077207 0.064746
v 0.212693 3.077186 0.064159
v -0.210679 3.077179 0.063960
v -0.221002 3.077540 0.074278
v -0.212693 3.077186 0.064159
v -0.214629 3.077207 0.064746
v -0.216414 3.077240 0.065699
v -0.217979 3.077285 0.066982
v -0.219263 3.077339 0.068546
v -0.220217 3.077402 0.070330
v -0.220804 3.077469 0.072265
v 0.210679 3.081297 0.181889
v 0.221002 3.080937 0.171571
v 0.212693 3.081290 0.181690
v 0.214629 3.081270 0.181103
v 0.216414 3.081237 0.180150
v 0.217979 3.081192 0.178867
v 0.219263 3.081137 0.177303
v 0.220217 3.081075 0.175519
v 0.220804 3.081007 0.173584
v -0.221002 3.080937 0.171571
v -0.210679 3.081297 0.181889
v -0.220804 3.081007 0.173584
v -0.220217 3.081075 0.175519
v -0.219263 3.081137 0.177303
v -0.217979 3.081192 0.178867
v -0.216414 3.081237 0.180150
v -0.214629 3.081270 0.181103
v -0.212693 3.081290 0.181690
v 0.210679 3.076783 0.063974
v 0.221002 3.077143 0.074292
v 0.212693 3.076790 0.064173
v 0.214629 3.076810 0.064760
v 0.216414 3.076844 0.065713
v 0.217979 3.076888 0.066996
v 0.219263 3.076943 0.068560
v 0.220217 3.077005 0.070343
v 0.220804 3.077073 0.072279
v -0.221002 3.077143 0.074292
v -0.210679 3.076783 0.063974
v -0.220804 3.077073 0.072279
v -0.220217 3.077005 0.070343
v -0.219263 3.076943 0.068560
v -0.217979 3.076888 0.066996
v -0.216414 3.076844 0.065713
v -0.214629 3.076810 0.064760
v -0.212693 3.076790 0.064172
v 0.221002 3.080541 0.171585
v 0.210679 3.080901 0.181902
v 0.220804 3.080611 0.173598
v 0.220217 3.080679 0.175533
v 0.219263 3.080741 0.177317
v 0.217979 3.080796 0.178881
v 0.216414 3.080840 0.180164
v 0.214629 3.080873 0.181117
v 0.212693 3.080894 0.181704
v -0.210679 3.080901 0.181902
v -0.221002 3.080541 0.171585
v -0.212693 3.080894 0.181704
v -0.214629 3.080873 0.181117
v -0.216414 3.080840 0.180164
v -0.217979 3.080796 0.178880
v -0.219263 3.080741 0.177317
v -0.220217 3.080679 0.175533
v -0.220804 3.080611 0.173598
vn -0.0005 -0.0349 -0.9994
vn -0.1952 -0.0342 -0.9802
vn -0.3828 -0.0322 -0.9233
vn -0.5554 -0.0290 -0.8311
vn -0.5553 -0.0290 -0.8311
vn -0.7071 -0.0247 -0.7067
vn -0.7070 -0.0247 -0.7067
vn -0.8317 -0.0194 -0.5549
vn -0.8316 -0.0194 -0.5550
vn -0.9238 -0.0133 -0.3825
vn -0.9808 -0.0068 -0.1948
vn -1.0000 -0.0001 -0.0020
vn 1.0000 -0.0000 -0.0020
vn 0.9808 -0.0068 -0.1949
vn 0.9240 -0.0133 -0.3822
vn 0.8315 -0.0194 -0.5551
vn 0.8315 -0.0194 -0.5552
vn 0.7073 -0.0247 -0.7065
vn 0.5555 -0.0290 -0.8310
vn 0.3830 -0.0323 -0.9232
vn 0.1951 -0.0342 -0.9802
vn 0.1950 -0.0342 -0.9802
vn 0.0005 -0.0349 -0.9994
vn 0.0005 0.0349 0.9994
vn 0.1951 0.0342 0.9802
vn 0.3823 0.0322 0.9235
vn 0.5554 0.0290 0.8311
vn 0.5555 0.0290 0.8310
vn 0.7070 0.0247 0.7067
vn 0.7070 0.0247 0.7068
vn 0.8314 0.0194 0.5553
vn 0.9239 0.0133 0.3823
vn 0.9240 0.0133 0.3823
vn 0.9808 0.0068 0.1950
vn 1.0000 -0.0000 0.0020
vn 1.0000 0.0001 0.0020
vn -0.0005 0.0349 0.9994
vn -0.1950 0.0342 0.9802
vn -0.1951 0.0342 0.9802
vn -0.3827 0.0322 0.9233
vn -0.5553 0.0290 0.8311
vn -0.5551 0.0290 0.8313
vn -0.7072 0.0247 0.7066
vn -0.7072 0.0247 0.7065
vn -0.8314 0.0194 0.5553
vn -0.9239 0.0133 0.3824
vn -0.9808 0.0068 0.1949
vn -1.0000 0.0001 0.0020
vn -0.0000 0.9994 -0.0349
vn -0.0000 0.9994 -0.0350
vn -0.0000 -0.9994 0.0349
vn -0.0000 -0.9994 0.0348
vn -0.0000 0.9994 -0.0348
vn -0.0001 0.9994 -0.0348
vn -0.0001 0.9994 -0.0351
vn -0.0000 0.9994 -0.0347
vn 0.0001 0.9994 -0.0349
vn -0.0001 0.9994 -0.0347
vn -0.0001 0.9994 -0.0349
vn -0.0000 -0.9994 0.0347
vn -0.0001 -0.9994 0.0348
vn -0.0000 -0.9994 0.0350
vn -0.0000 -0.9994 0.0351
vn 0.0001 -0.9994 0.0349
vn -0.0001 -0.9994 0.0349
vn -0.0000 -0.9994 0.0352
vn -0.0001 -0.9994 0.0346
vn -0.0001 -0.9994 0.0352
vt 0.968175 0.028000
vt 0.972650 0.029587
vt 0.976954 0.034287
vt 0.980920 0.041919
vt 0.984397 0.052191
vt 0.987250 0.064706
vt 0.989370 0.078985
vt 0.990676 0.094478
vt 0.991116 0.110590
vt 0.008884 0.110590
vt 0.009324 0.094478
vt 0.010630 0.078985
vt 0.012750 0.064706
vt 0.015603 0.052191
vt 0.019080 0.041919
vt 0.023046 0.034287
vt 0.027350 0.029587
vt 0.031825 0.028000
vt 0.031825 0.972000
vt 0.027350 0.970413
vt 0.023046 0.965713
vt 0.019080 0.958081
vt 0.015603 0.947810
vt 0.012750 0.935294
vt 0.010630 0.921016
vt 0.009324 0.905522
vt 0.008884 0.889410
vt 0.968175 0.972000
vt 0.972650 0.970413
vt 0.976954 0.965713
vt 0.980920 0.958081
vt 0.984397 0.947810
vt 0.987250 0.935294
vt 0.989370 0.921016
vt 0.990676 0.905522
vt 0.991116 0.889410
vt 0.519229 0.879598
vt 0.519895 0.878605
vt 0.520171 0.876206
vt 0.520171 0.844218
vt 0.519229 0.840826
vt 0.520153 0.843557
vt 0.519413 0.840891
vt 0.520099 0.842920
vt 0.520012 0.842334
vt 0.519895 0.841820
vt 0.519752 0.841398
vt 0.519589 0.841084
vt 0.480771 0.840826
vt 0.480587 0.840891
vt 0.480411 0.841084
vt 0.480248 0.841398
vt 0.480105 0.841820
vt 0.479988 0.842334
vt 0.479901 0.842920
vt 0.479847 0.843557
vt 0.479829 0.844218
vt 0.479829 0.876206
vt 0.479847 0.876868
vt 0.480771 0.879598
vt 0.479901 0.877504
vt 0.480248 0.879026
vt 0.479988 0.878091
vt 0.480105 0.878605
vt 0.480411 0.879340
vt 0.480587 0.879533
vt 0.519413 0.879533
vt 0.519589 0.879340
vt 0.519752 0.879026
vt 0.520012 0.878091
vt 0.520099 0.877504
vt 0.520153 0.876868
s 1
f 10/1/1 54/2/2 12/2/2
f 12/2/2 53/3/3 13/3/3
f 13/3/3 52/4/4 14/4/5
f 14/4/5 51/5/6 15/5/7
f 15/5/7 50/6/8 16/6/9
f 16/6/9 49/7/10 17/7/10
f 17/7/10 48/8/11 18/8/11
f 18/8/11 46/9/12 11/9/12
f 1/10/13 45/11/14 3/11/14
f 3/11/14 44/12/15 4/12/15
f 4/12/15 43/13/16 5/13/17
f 5/13/17 42/14/18 6/14/18
f 6/14/18 41/15/19 7/15/19
f 7/15/19 40/16/20 8/16/20
f 8/16/20 39/17/21 9/17/22
f 9/17/22 37/18/23 2/18/23
f 19/19/24 63/20/25 21/20/25
f 21/20/25 62/21/26 22/21/26
f 22/21/26 61/22/27 23/22/28
f 23/22/28 60/23/29 24/23/30
f 24/23/30 59/24/31 25/24/31
f 25/24/31 58/25/32 26/25/33
f 26/25/33 57/26/34 27/26/34
f 27/26/34 55/27/35 20/27/36
f 64/28/37 36/29/38 66/29/39
f 66/29/39 35/30/40 67/30/40
f 67/30/40 34/31/41 68/31/42
f 68/31/42 33/32/43 69/32/44
f 69/32/44 32/33/45 70/33/45
f 70/33/45 31/34/46 71/34/46
f 71/34/46 30/35/47 72/35/47
f 72/35/47 28/36/48 65/36/48
f 1/10/13 55/27/35 38/10/13
f 10/1/1 37/18/23 47/1/1
f 28/36/49 33/32/49 29/28/50
f 28/36/48 46/9/12 65/36/48
f 19/19/24 64/28/37 56/19/24
f 64/37/51 69/38/52 65/39/51
f 10/1/1 47/1/1 54/2/2
f 12/2/2 54/2/2 53/3/3
f 13/3/3 53/3/3 52/4/4
f 14/4/5 52/4/4 51/5/6
f 15/5/7 51/5/6 50/6/8
f 16/6/9 50/6/8 49/7/10
f 17/7/10 49/7/10 48/8/11
f 18/8/11 48/8/11 46/9/12
f 1/10/13 38/10/13 45/11/14
f 3/11/14 45/11/14 44/12/15
f 4/12/15 44/12/15 43/13/16
f 5/13/17 43/13/16 42/14/18
f 6/14/18 42/14/18 41/15/19
f 7/15/19 41/15/19 40/16/20
f 8/16/20 40/16/20 39/17/21
f 9/17/22 39/17/21 37/18/23
f 19/19/24 56/19/24 63/20/25
f 21/20/25 63/20/25 62/21/26
f 22/21/26 62/21/26 61/22/27
f 23/22/28 61/22/27 60/23/29
f 24/23/30 60/23/29 59/24/31
f 25/24/31 59/24/31 58/25/32
f 26/25/33 58/25/32 57/26/34
f 27/26/34 57/26/34 55/27/35
f 64/28/37 29/28/37 36/29/38
f 66/29/39 36/29/38 35/30/40
f 67/30/40 35/30/40 34/31/41
f 68/31/42 34/31/41 33/32/43
f 69/32/44 33/32/43 32/33/45
f 70/33/45 32/33/45 31/34/46
f 71/34/46 31/34/46 30/35/47
f 72/35/47 30/35/47 28/36/48
f 1/10/13 20/27/36 55/27/35
f 10/1/1 2/18/23 37/18/23
f 29/28/50 19/19/49 2/18/50
f 19/19/49 21/20/53 27/26/50
f 2/18/50 1/10/49 8/16/50
f 21/20/53 22/21/50 23/22/54
f 23/22/54 24/23/50 25/24/50
f 25/24/50 26/25/54 27/26/50
f 27/26/50 20/27/49 19/19/49
f 20/27/49 1/10/49 19/19/49
f 1/10/49 3/11/49 4/12/53
f 4/12/53 5/13/49 8/16/50
f 5/13/49 6/14/49 8/16/50
f 6/14/49 7/15/49 8/16/50
f 8/16/50 9/17/49 2/18/50
f 2/18/50 10/1/49 29/28/50
f 10/1/49 12/2/50 16/6/49
f 29/28/50 10/1/49 28/36/49
f 12/2/50 13/3/49 16/6/49
f 13/3/49 14/4/55 16/6/49
f 14/4/55 15/5/50 16/6/49
f 16/6/49 17/7/49 18/8/56
f 18/8/56 11/9/49 16/6/49
f 11/9/49 28/36/49 10/1/49
f 16/6/49 11/9/49 10/1/49
f 28/36/49 30/35/57 31/34/58
f 31/34/58 32/33/49 33/32/49
f 33/32/49 34/31/59 35/30/49
f 35/30/49 36/29/49 29/28/50
f 1/10/49 2/18/50 19/19/49
f 21/20/53 23/22/54 27/26/50
f 23/22/54 25/24/50 27/26/50
f 1/10/49 4/12/53 8/16/50
f 28/36/49 31/34/58 33/32/49
f 33/32/49 35/30/49 29/28/50
f 28/36/48 11/9/12 46/9/12
f 19/19/24 29/28/37 64/28/37
f 65/39/51 46/40/51 47/41/52
f 46/40/51 48/42/51 54/43/60
f 48/42/51 49/44/61 50/45/62
f 50/45/62 51/46/51 52/47/52
f 52/47/52 53/48/60 50/45/62
f 53/48/60 54/43/60 50/45/62
f 54/43/60 47/41/52 46/40/51
f 47/41/52 37/49/51 64/37/51
f 37/49/51 39/50/51 40/51/63
f 40/51/63 41/52/64 42/53/62
f 42/53/62 43/54/52 40/51/63
f 43/54/52 44/55/52 40/51/63
f 44/55/52 45/56/65 38/57/51
f 38/57/51 55/58/62 37/49/51
f 55/58/62 57/59/66 56/60/62
f 37/49/51 55/58/62 56/60/62
f 57/59/66 58/61/62 61/62/60
f 58/61/62 59/63/67 61/62/60
f 59/63/67 60/64/62 61/62/60
f 61/62/60 62/65/51 63/66/62
f 63/66/62 56/60/62 61/62/60
f 56/60/62 64/37/51 37/49/51
f 64/37/51 66/67/61 69/38/52
f 66/67/61 67/68/62 69/38/52
f 67/68/62 68/69/51 69/38/52
f 69/38/52 70/70/51 71/71/68
f 71/71/68 72/72/52 65/39/51
f 48/42/51 50/45/62 54/43/60
f 47/41/52 64/37/51 65/39/51
f 37/49/51 40/51/63 44/55/52
f 56/60/62 57/59/66 61/62/60
f 44/55/52 38/57/51 37/49/51
f 69/38/52 71/71/68 65/39/51
