# Blender 5.1.1
# www.blender.org
o Exporting_sf.157
v -0.221002 -0.048676 0.000000
v -0.210679 -0.059000 0.000000
v -0.220804 -0.050690 0.000000
v -0.220217 -0.052627 0.000000
v -0.219263 -0.054412 0.000000
v -0.217979 -0.055976 0.000000
v -0.216414 -0.057260 0.000000
v -0.214629 -0.058214 0.000000
v -0.212693 -0.058802 0.000000
v 0.210679 -0.059000 0.000000
v 0.221002 -0.048676 0.000000
v 0.212693 -0.058802 0.000000
v 0.214629 -0.058214 0.000000
v 0.216414 -0.057260 0.000000
v 0.217979 -0.055976 0.000000
v 0.219263 -0.054412 0.000000
v 0.220217 -0.052627 0.000000
v 0.220804 -0.050690 0.000000
v -0.210679 0.059000 0.000000
v -0.221002 0.048676 0.000000
v -0.212693 0.058802 0.000000
v -0.214629 0.058214 0.000000
v -0.216414 0.057260 0.000000
v -0.217979 0.055976 0.000000
v -0.219263 0.054412 0.000000
v -0.220217 0.052627 0.000000
v -0.220804 0.050690 0.000000
v 0.221002 0.048676 0.000000
v 0.210679 0.059000 0.000000
v 0.220804 0.050690 0.000000
v 0.220217 0.052627 0.000000
v 0.219263 0.054412 0.000000
v 0.217979 0.055976 0.000000
v 0.216414 0.057260 0.000000
v 0.214629 0.058214 0.000000
v 0.212693 0.058802 0.000000
v -0.210679 -0.059000 -0.000397
v -0.221002 -0.048676 -0.000397
v -0.212693 -0.058802 -0.000397
v -0.214629 -0.058214 -0.000397
v -0.216414 -0.057260 -0.000397
v -0.217979 -0.055976 -0.000397
v -0.219263 -0.054412 -0.000397
v -0.220217 -0.052627 -0.000397
v -0.220804 -0.050690 -0.000397
v 0.221002 -0.048676 -0.000397
v 0.210679 -0.059000 -0.000397
v 0.220804 -0.050690 -0.000397
v 0.220217 -0.052627 -0.000397
v 0.219263 -0.054412 -0.000397
v 0.217979 -0.055976 -0.000397
v 0.216414 -0.057260 -0.000397
v 0.214629 -0.058214 -0.000397
v 0.212693 -0.058802 -0.000397
v -0.221002 0.048676 -0.000397
v -0.210679 0.059000 -0.000397
v -0.220804 0.050690 -0.000397
v -0.220217 0.052627 -0.000397
v -0.219263 0.054412 -0.000397
v -0.217979 0.055976 -0.000397
v -0.216414 0.057260 -0.000397
v -0.214629 0.058214 -0.000397
v -0.212693 0.058802 -0.000397
v 0.210679 0.059000 -0.000397
v 0.221002 0.048676 -0.000397
v 0.212693 0.058802 -0.000397
v 0.214629 0.058214 -0.000397
v 0.216414 0.057260 -0.000397
v 0.217979 0.055976 -0.000397
v 0.219263 0.054412 -0.000397
v 0.220217 0.052627 -0.000397
v 0.220804 0.050690 -0.000397
vn 0.0005 -1.0000 -0.0000
vn 0.1951 -0.9808 -0.0000
vn 0.3827 -0.9239 -0.0000
vn 0.5556 -0.8315 -0.0000
vn 0.7071 -0.7071 -0.0000
vn 0.8315 -0.5556 -0.0000
vn 0.9239 -0.3827 -0.0000
vn 0.9808 -0.1951 -0.0000
vn 1.0000 -0.0020 -0.0000
vn -1.0000 -0.0020 -0.0000
vn -0.9808 -0.1951 -0.0000
vn -0.9239 -0.3827 -0.0000
vn -0.8315 -0.5556 -0.0000
vn -0.7071 -0.7071 -0.0000
vn -0.5556 -0.8315 -0.0000
vn -0.3827 -0.9239 -0.0000
vn -0.1951 -0.9808 -0.0000
vn -0.0005 -1.0000 -0.0000
vn -0.0005 1.0000 -0.0000
vn -0.1951 0.9808 -0.0000
vn -0.3827 0.9239 -0.0000
vn -0.5556 0.8315 -0.0000
vn -0.7071 0.7071 -0.0000
vn -0.8315 0.5556 -0.0000
vn -0.9239 0.3827 -0.0000
vn -0.9808 0.1951 -0.0000
vn -1.0000 0.0020 -0.0000
vn 0.0005 1.0000 -0.0000
vn 0.1951 0.9808 -0.0000
vn 0.3827 0.9239 -0.0000
vn 0.5556 0.8315 -0.0000
vn 0.7071 0.7071 -0.0000
vn 0.8315 0.5556 -0.0000
vn 0.9239 0.3827 -0.0000
vn 0.9808 0.1951 -0.0000
vn 1.0000 0.0020 -0.0000
vn -0.0000 -0.0000 1.0000
vn -0.0000 -0.0000 -1.0000
vt 0.968175 0.028000
vt 0.972650 0.029587
vt 0.976954 0.034287
vt 0.980920 0.041919
vt 0.984397 0.052191
vt 0.987250 0.064706
vt 0.989370 0.078985
vt 0.990676 0.094478
vt 0.991116 0.110590
vt 0.008884 0.110590
vt 0.009324 0.094478
vt 0.010630 0.078985
vt 0.012750 0.064706
vt 0.015603 0.052191
vt 0.019080 0.041919
vt 0.023046 0.034287
vt 0.027350 0.029587
vt 0.031825 0.028000
vt 0.031825 0.972000
vt 0.027350 0.970413
vt 0.023046 0.965713
vt 0.019080 0.958081
vt 0.015603 0.947810
vt 0.012750 0.935294
vt 0.010630 0.921016
vt 0.009324 0.905522
vt 0.008884 0.889410
vt 0.968175 0.972000
vt 0.972650 0.970413
vt 0.976954 0.965713
vt 0.980920 0.958081
vt 0.984397 0.947810
vt 0.987250 0.935294
vt 0.989370 0.921016
vt 0.990676 0.905522
vt 0.991116 0.889410
vt 0.519229 0.879598
vt 0.519895 0.878605
vt 0.520171 0.876206
vt 0.520171 0.844218
vt 0.519229 0.840826
vt 0.520153 0.843557
vt 0.519413 0.840891
vt 0.520099 0.842920
vt 0.520012 0.842334
vt 0.519895 0.841820
vt 0.519752 0.841398
vt 0.519589 0.841084
vt 0.480771 0.840826
vt 0.480587 0.840891
vt 0.480411 0.841084
vt 0.480248 0.841398
vt 0.480105 0.841820
vt 0.479988 0.842334
vt 0.479901 0.842920
vt 0.479847 0.843557
vt 0.479829 0.844218
vt 0.479829 0.876206
vt 0.479847 0.876868
vt 0.480771 0.879598
vt 0.479901 0.877504
vt 0.480248 0.879026
vt 0.479988 0.878091
vt 0.480105 0.878605
vt 0.480411 0.879340
vt 0.480587 0.879533
vt 0.519413 0.879533
vt 0.519589 0.879340
vt 0.519752 0.879026
vt 0.520012 0.878091
vt 0.520099 0.877504
vt 0.520153 0.876868
s 1
f 10/1/1 54/2/2 12/2/2
f 12/2/2 53/3/3 13/3/3
f 13/3/3 52/4/4 14/4/4
f 14/4/4 51/5/5 15/5/5
f 15/5/5 50/6/6 16/6/6
f 16/6/6 49/7/7 17/7/7
f 17/7/7 48/8/8 18/8/8
f 18/8/8 46/9/9 11/9/9
f 1/10/10 45/11/11 3/11/11
f 3/11/11 44/12/12 4/12/12
f 4/12/12 43/13/13 5/13/13
f 5/13/13 42/14/14 6/14/14
f 6/14/14 41/15/15 7/15/15
f 7/15/15 40/16/16 8/16/16
f 8/16/16 39/17/17 9/17/17
f 9/17/17 37/18/18 2/18/18
f 19/19/19 63/20/20 21/20/20
f 21/20/20 62/21/21 22/21/21
f 22/21/21 61/22/22 23/22/22
f 23/22/22 60/23/23 24/23/23
f 24/23/23 59/24/24 25/24/24
f 25/24/24 58/25/25 26/25/25
f 26/25/25 57/26/26 27/26/26
f 27/26/26 55/27/27 20/27/27
f 64/28/28 36/29/29 66/29/29
f 66/29/29 35/30/30 67/30/30
f 67/30/30 34/31/31 68/31/31
f 68/31/31 33/32/32 69/32/32
f 69/32/32 32/33/33 70/33/33
f 70/33/33 31/34/34 71/34/34
f 71/34/34 30/35/35 72/35/35
f 72/35/35 28/36/36 65/36/36
f 1/10/10 55/27/27 38/10/10
f 10/1/1 37/18/18 47/1/1
f 28/36/37 33/32/37 29/28/37
f 28/36/36 46/9/9 65/36/36
f 19/19/19 64/28/28 56/19/19
f 64/37/38 69/38/38 65/39/38
f 10/1/1 47/1/1 54/2/2
f 12/2/2 54/2/2 53/3/3
f 13/3/3 53/3/3 52/4/4
f 14/4/4 52/4/4 51/5/5
f 15/5/5 51/5/5 50/6/6
f 16/6/6 50/6/6 49/7/7
f 17/7/7 49/7/7 48/8/8
f 18/8/8 48/8/8 46/9/9
f 1/10/10 38/10/10 45/11/11
f 3/11/11 45/11/11 44/12/12
f 4/12/12 44/12/12 43/13/13
f 5/13/13 43/13/13 42/14/14
f 6/14/14 42/14/14 41/15/15
f 7/15/15 41/15/15 40/16/16
f 8/16/16 40/16/16 39/17/17
f 9/17/17 39/17/17 37/18/18
f 19/19/19 56/19/19 63/20/20
f 21/20/20 63/20/20 62/21/21
f 22/21/21 62/21/21 61/22/22
f 23/22/22 61/22/22 60/23/23
f 24/23/23 60/23/23 59/24/24
f 25/24/24 59/24/24 58/25/25
f 26/25/25 58/25/25 57/26/26
f 27/26/26 57/26/26 55/27/27
f 64/28/28 29/28/28 36/29/29
f 66/29/29 36/29/29 35/30/30
f 67/30/30 35/30/30 34/31/31
f 68/31/31 34/31/31 33/32/32
f 69/32/32 33/32/32 32/33/33
f 70/33/33 32/33/33 31/34/34
f 71/34/34 31/34/34 30/35/35
f 72/35/35 30/35/35 28/36/36
f 1/10/10 20/27/27 55/27/27
f 10/1/1 2/18/18 37/18/18
f 29/28/37 19/19/37 2/18/37
f 19/19/37 21/20/37 27/26/37
f 2/18/37 1/10/37 8/16/37
f 21/20/37 22/21/37 23/22/37
f 23/22/37 24/23/37 25/24/37
f 25/24/37 26/25/37 23/22/37
f 26/25/37 27/26/37 23/22/37
f 27/26/37 20/27/37 19/19/37
f 20/27/37 1/10/37 19/19/37
f 1/10/37 3/11/37 4/12/37
f 4/12/37 5/13/37 8/16/37
f 5/13/37 6/14/37 8/16/37
f 6/14/37 7/15/37 8/16/37
f 8/16/37 9/17/37 2/18/37
f 2/18/37 10/1/37 29/28/37
f 10/1/37 12/2/37 16/6/37
f 29/28/37 10/1/37 28/36/37
f 12/2/37 13/3/37 16/6/37
f 13/3/37 14/4/37 16/6/37
f 14/4/37 15/5/37 16/6/37
f 16/6/37 17/7/37 18/8/37
f 18/8/37 11/9/37 16/6/37
f 11/9/37 28/36/37 10/1/37
f 16/6/37 11/9/37 10/1/37
f 28/36/37 30/35/37 31/34/37
f 31/34/37 32/33/37 28/36/37
f 32/33/37 33/32/37 28/36/37
f 33/32/37 34/31/37 35/30/37
f 35/30/37 36/29/37 29/28/37
f 1/10/37 2/18/37 19/19/37
f 21/20/37 23/22/37 27/26/37
f 1/10/37 4/12/37 8/16/37
f 33/32/37 35/30/37 29/28/37
f 28/36/36 11/9/9 46/9/9
f 19/19/19 29/28/28 64/28/28
f 65/39/38 46/40/38 47/41/38
f 46/40/38 48/42/38 54/43/38
f 48/42/38 49/44/38 50/45/38
f 50/45/38 51/46/38 52/47/38
f 52/47/38 53/48/38 50/45/38
f 53/48/38 54/43/38 50/45/38
f 54/43/38 47/41/38 46/40/38
f 47/41/38 37/49/38 64/37/38
f 37/49/38 39/50/38 40/51/38
f 40/51/38 41/52/38 42/53/38
f 42/53/38 43/54/38 40/51/38
f 43/54/38 44/55/38 40/51/38
f 44/55/38 45/56/38 38/57/38
f 38/57/38 55/58/38 37/49/38
f 55/58/38 57/59/38 56/60/38
f 37/49/38 55/58/38 56/60/38
f 57/59/38 58/61/38 61/62/38
f 58/61/38 59/63/38 61/62/38
f 59/63/38 60/64/38 61/62/38
f 61/62/38 62/65/38 63/66/38
f 63/66/38 56/60/38 61/62/38
f 56/60/38 64/37/38 37/49/38
f 64/37/38 66/67/38 67/68/38
f 67/68/38 68/69/38 69/38/38
f 69/38/38 70/70/38 65/39/38
f 70/70/38 71/71/38 65/39/38
f 71/71/38 72/72/38 65/39/38
f 48/42/38 50/45/38 54/43/38
f 47/41/38 64/37/38 65/39/38
f 37/49/38 40/51/38 44/55/38
f 56/60/38 57/59/38 61/62/38
f 44/55/38 38/57/38 37/49/38
f 64/37/38 67/68/38 69/38/38
