# Blender 5.1.1
# www.blender.org
o Exporting_sf.156
v 0.208858 0.054673 -0.040949
v 0.219182 0.052263 -0.050987
v 0.209057 0.054203 -0.042907
v 0.209644 0.053751 -0.044791
v 0.210598 0.053334 -0.046526
v 0.211882 0.052969 -0.048047
v 0.213447 0.052669 -0.049296
v 0.215231 0.052447 -0.050223
v 0.217168 0.052309 -0.050795
v 0.640540 0.052263 -0.050987
v 0.650863 0.054673 -0.040949
v 0.642554 0.052309 -0.050795
v 0.644490 0.052447 -0.050223
v 0.646275 0.052669 -0.049296
v 0.647840 0.052969 -0.048047
v 0.649123 0.053334 -0.046526
v 0.650077 0.053751 -0.044791
v 0.650665 0.054203 -0.042907
v 0.219182 0.079809 0.063752
v 0.208858 0.077399 0.053714
v 0.217168 0.079763 0.063559
v 0.215231 0.079626 0.062988
v 0.213447 0.079403 0.062060
v 0.211882 0.079104 0.060812
v 0.210598 0.078739 0.059291
v 0.209644 0.078322 0.057555
v 0.209057 0.077870 0.055672
v 0.650863 0.077399 0.053714
v 0.640540 0.079809 0.063752
v 0.650665 0.077870 0.055672
v 0.650077 0.078322 0.057555
v 0.649123 0.078739 0.059291
v 0.647840 0.079104 0.060812
v 0.646275 0.079403 0.062060
v 0.644490 0.079626 0.062988
v 0.642554 0.079763 0.063559
v 0.219182 0.052649 -0.051080
v 0.208858 0.055059 -0.041042
v 0.217168 0.052695 -0.050887
v 0.215231 0.052832 -0.050316
v 0.213447 0.053055 -0.049388
v 0.211882 0.053355 -0.048140
v 0.210598 0.053720 -0.046619
v 0.209644 0.054136 -0.044883
v 0.209057 0.054589 -0.043000
v 0.650863 0.055059 -0.041042
v 0.640540 0.052649 -0.051080
v 0.650665 0.054589 -0.043000
v 0.650077 0.054136 -0.044883
v 0.649123 0.053720 -0.046619
v 0.647840 0.053355 -0.048140
v 0.646275 0.053055 -0.049388
v 0.644490 0.052832 -0.050316
v 0.642554 0.052695 -0.050887
v 0.208858 0.077785 0.053621
v 0.219182 0.080195 0.063660
v 0.209057 0.078255 0.055580
v 0.209644 0.078707 0.057463
v 0.210598 0.079124 0.059198
v 0.211882 0.079489 0.060719
v 0.213447 0.079789 0.061968
v 0.215231 0.080012 0.062895
v 0.217168 0.080149 0.063467
v 0.640540 0.080195 0.063660
v 0.650863 0.077785 0.053621
v 0.642554 0.080149 0.063467
v 0.644490 0.080012 0.062895
v 0.646275 0.079789 0.061968
v 0.647840 0.079489 0.060719
v 0.649123 0.079124 0.059198
v 0.650077 0.078707 0.057463
v 0.650665 0.078255 0.055580
vn 0.0005 -0.2335 -0.9724
vn 0.1951 -0.2290 -0.9537
vn 0.3827 -0.2157 -0.8983
vn 0.5556 -0.1940 -0.8085
vn 0.7071 -0.1651 -0.6876
vn 0.8315 -0.1296 -0.5402
vn 0.9239 -0.0893 -0.3721
vn 0.9808 -0.0455 -0.1897
vn 1.0000 -0.0003 -0.0020
vn 1.0000 -0.0004 -0.0020
vn -1.0000 -0.0004 -0.0020
vn -0.9808 -0.0455 -0.1897
vn -0.9239 -0.0893 -0.3721
vn -0.8315 -0.1296 -0.5402
vn -0.7071 -0.1651 -0.6876
vn -0.5556 -0.1940 -0.8085
vn -0.3827 -0.2157 -0.8984
vn -0.1951 -0.2290 -0.9537
vn -0.0005 -0.2335 -0.9723
vn -0.0005 -0.2335 -0.9724
vn -0.0005 0.2333 0.9724
vn -0.1951 0.2289 0.9537
vn -0.3827 0.2156 0.8984
vn -0.5556 0.1942 0.8085
vn -0.5555 0.1942 0.8085
vn -0.7071 0.1651 0.6875
vn -0.7071 0.1651 0.6876
vn -0.8315 0.1298 0.5402
vn -0.9239 0.0894 0.3721
vn -0.9808 0.0456 0.1897
vn -0.9808 0.0455 0.1897
vn -1.0000 0.0005 0.0020
vn -1.0000 0.0005 0.0019
vn 0.0005 0.2333 0.9724
vn 0.1951 0.2289 0.9537
vn 0.3827 0.2156 0.8984
vn 0.5556 0.1942 0.8085
vn 0.7071 0.1652 0.6876
vn 0.7071 0.1652 0.6875
vn 0.8315 0.1298 0.5402
vn 0.9239 0.0894 0.3721
vn 0.9808 0.0455 0.1897
vn 0.9808 0.0454 0.1897
vn 1.0000 0.0004 0.0020
vn 1.0000 0.0005 0.0020
vn -1.0000 -0.0005 -0.0019
vn 0.0005 -0.2335 -0.9723
vn -0.0000 -0.9724 0.2334
vn -0.0000 -0.9724 0.2335
vn -0.0000 0.9724 -0.2334
vn -0.0000 0.9724 -0.2335
vn -0.0001 -0.9724 0.2335
vn 0.0001 -0.9724 0.2333
vn 0.0002 -0.9724 0.2332
vn 0.0002 -0.9724 0.2334
vn 0.0001 -0.9724 0.2335
vn -0.0001 -0.9724 0.2333
vn 0.0001 -0.9723 0.2336
vn -0.0002 -0.9723 0.2336
vn 0.0005 -0.9724 0.2333
vn -0.0002 -0.9724 0.2335
vn 0.0001 -0.9724 0.2334
vn -0.0001 0.9724 -0.2334
vn -0.0001 0.9723 -0.2338
vn -0.0002 0.9723 -0.2337
vn -0.0001 0.9723 -0.2336
vn -0.0002 0.9724 -0.2332
vn -0.0001 0.9724 -0.2331
vn 0.0001 0.9724 -0.2333
vt 0.968175 0.028000
vt 0.972650 0.029587
vt 0.976954 0.034287
vt 0.980920 0.041919
vt 0.984397 0.052191
vt 0.987250 0.064706
vt 0.989370 0.078985
vt 0.990676 0.094478
vt 0.991116 0.110590
vt 0.008884 0.110590
vt 0.009324 0.094478
vt 0.010630 0.078985
vt 0.012750 0.064706
vt 0.015603 0.052191
vt 0.019080 0.041919
vt 0.023046 0.034287
vt 0.027350 0.029587
vt 0.031825 0.028000
vt 0.031825 0.972000
vt 0.027350 0.970413
vt 0.023046 0.965713
vt 0.019080 0.958081
vt 0.015603 0.947810
vt 0.012750 0.935294
vt 0.010630 0.921016
vt 0.009324 0.905522
vt 0.008884 0.889410
vt 0.968175 0.972000
vt 0.972650 0.970413
vt 0.976954 0.965713
vt 0.980920 0.958081
vt 0.984397 0.947810
vt 0.987250 0.935294
vt 0.989370 0.921016
vt 0.990676 0.905522
vt 0.991116 0.889410
vt 0.519229 0.879598
vt 0.519895 0.878605
vt 0.520171 0.876206
vt 0.520171 0.844218
vt 0.519229 0.840826
vt 0.520153 0.843557
vt 0.519413 0.840891
vt 0.520099 0.842920
vt 0.520012 0.842334
vt 0.519895 0.841820
vt 0.519752 0.841398
vt 0.519589 0.841084
vt 0.480771 0.840826
vt 0.480587 0.840891
vt 0.480411 0.841084
vt 0.480248 0.841398
vt 0.480105 0.841820
vt 0.479988 0.842334
vt 0.479901 0.842920
vt 0.479847 0.843557
vt 0.479829 0.844218
vt 0.479829 0.876206
vt 0.479847 0.876868
vt 0.480771 0.879598
vt 0.479901 0.877504
vt 0.479988 0.878091
vt 0.480105 0.878605
vt 0.480248 0.879026
vt 0.480411 0.879340
vt 0.480587 0.879533
vt 0.519413 0.879533
vt 0.519589 0.879340
vt 0.519752 0.879026
vt 0.520012 0.878091
vt 0.520099 0.877504
vt 0.520153 0.876868
s 1
f 10/1/1 54/2/2 12/2/2
f 12/2/2 53/3/3 13/3/3
f 13/3/3 52/4/4 14/4/4
f 14/4/4 51/5/5 15/5/5
f 15/5/5 50/6/6 16/6/6
f 16/6/6 49/7/7 17/7/7
f 17/7/7 48/8/8 18/8/8
f 18/8/8 46/9/9 11/9/10
f 1/10/11 45/11/12 3/11/12
f 3/11/12 44/12/13 4/12/13
f 4/12/13 43/13/14 5/13/14
f 5/13/14 42/14/15 6/14/15
f 6/14/15 41/15/16 7/15/16
f 7/15/16 40/16/17 8/16/17
f 8/16/17 39/17/18 9/17/18
f 9/17/18 37/18/19 2/18/20
f 19/19/21 63/20/22 21/20/22
f 21/20/22 62/21/23 22/21/23
f 22/21/23 61/22/24 23/22/25
f 23/22/25 60/23/26 24/23/27
f 24/23/27 59/24/28 25/24/28
f 25/24/28 58/25/29 26/25/29
f 26/25/29 57/26/30 27/26/31
f 27/26/31 55/27/32 20/27/33
f 64/28/34 36/29/35 66/29/35
f 66/29/35 35/30/36 67/30/36
f 67/30/36 34/31/37 68/31/37
f 68/31/37 33/32/38 69/32/39
f 69/32/39 32/33/40 70/33/40
f 70/33/40 31/34/41 71/34/41
f 71/34/41 30/35/42 72/35/43
f 72/35/43 28/36/44 65/36/45
f 1/10/11 55/27/32 38/10/46
f 10/1/1 37/18/19 47/1/47
f 28/36/48 33/32/49 29/28/49
f 28/36/44 46/9/9 65/36/45
f 19/19/21 64/28/34 56/19/21
f 64/37/50 69/38/51 65/39/50
f 10/1/1 47/1/47 54/2/2
f 12/2/2 54/2/2 53/3/3
f 13/3/3 53/3/3 52/4/4
f 14/4/4 52/4/4 51/5/5
f 15/5/5 51/5/5 50/6/6
f 16/6/6 50/6/6 49/7/7
f 17/7/7 49/7/7 48/8/8
f 18/8/8 48/8/8 46/9/9
f 1/10/11 38/10/46 45/11/12
f 3/11/12 45/11/12 44/12/13
f 4/12/13 44/12/13 43/13/14
f 5/13/14 43/13/14 42/14/15
f 6/14/15 42/14/15 41/15/16
f 7/15/16 41/15/16 40/16/17
f 8/16/17 40/16/17 39/17/18
f 9/17/18 39/17/18 37/18/19
f 19/19/21 56/19/21 63/20/22
f 21/20/22 63/20/22 62/21/23
f 22/21/23 62/21/23 61/22/24
f 23/22/25 61/22/24 60/23/26
f 24/23/27 60/23/26 59/24/28
f 25/24/28 59/24/28 58/25/29
f 26/25/29 58/25/29 57/26/30
f 27/26/31 57/26/30 55/27/32
f 64/28/34 29/28/34 36/29/35
f 66/29/35 36/29/35 35/30/36
f 67/30/36 35/30/36 34/31/37
f 68/31/37 34/31/37 33/32/38
f 69/32/39 33/32/38 32/33/40
f 70/33/40 32/33/40 31/34/41
f 71/34/41 31/34/41 30/35/42
f 72/35/43 30/35/42 28/36/44
f 1/10/11 20/27/33 55/27/32
f 10/1/1 2/18/20 37/18/19
f 29/28/49 19/19/49 2/18/49
f 19/19/49 21/20/49 27/26/52
f 2/18/49 1/10/49 8/16/49
f 21/20/49 22/21/53 23/22/48
f 23/22/48 24/23/54 25/24/48
f 25/24/48 26/25/55 27/26/52
f 27/26/52 20/27/49 19/19/49
f 20/27/49 1/10/49 19/19/49
f 1/10/49 3/11/48 4/12/56
f 4/12/56 5/13/57 8/16/49
f 5/13/57 6/14/48 8/16/49
f 6/14/48 7/15/58 8/16/49
f 8/16/49 9/17/48 2/18/49
f 2/18/49 10/1/49 29/28/49
f 10/1/49 12/2/49 16/6/49
f 29/28/49 10/1/49 28/36/48
f 12/2/49 13/3/48 16/6/49
f 13/3/48 14/4/59 16/6/49
f 14/4/59 15/5/48 16/6/49
f 16/6/49 17/7/60 18/8/61
f 18/8/61 11/9/49 16/6/49
f 11/9/49 28/36/48 10/1/49
f 16/6/49 11/9/49 10/1/49
f 28/36/48 30/35/62 31/34/49
f 31/34/49 32/33/58 33/32/49
f 33/32/49 34/31/58 35/30/48
f 35/30/48 36/29/49 29/28/49
f 1/10/49 2/18/49 19/19/49
f 21/20/49 23/22/48 27/26/52
f 23/22/48 25/24/48 27/26/52
f 1/10/49 4/12/56 8/16/49
f 28/36/48 31/34/49 33/32/49
f 33/32/49 35/30/48 29/28/49
f 28/36/44 11/9/10 46/9/9
f 19/19/21 29/28/34 64/28/34
f 65/39/50 46/40/50 47/41/51
f 46/40/50 48/42/50 54/43/51
f 48/42/50 49/44/50 50/45/51
f 50/45/51 51/46/63 52/47/50
f 52/47/50 53/48/51 54/43/51
f 54/43/51 47/41/51 46/40/50
f 47/41/51 37/49/51 64/37/50
f 37/49/51 39/50/64 40/51/50
f 40/51/50 41/52/50 42/53/65
f 42/53/65 43/54/66 40/51/50
f 43/54/66 44/55/50 40/51/50
f 44/55/50 45/56/50 38/57/50
f 38/57/50 55/58/51 37/49/51
f 55/58/51 57/59/51 56/60/50
f 37/49/51 55/58/51 56/60/50
f 57/59/51 58/61/51 59/62/51
f 59/62/51 60/63/67 61/64/50
f 61/64/50 62/65/50 63/66/68
f 63/66/68 56/60/50 61/64/50
f 56/60/50 64/37/50 37/49/51
f 64/37/50 66/67/69 69/38/51
f 66/67/69 67/68/69 69/38/51
f 67/68/69 68/69/66 69/38/51
f 69/38/51 70/70/51 71/71/51
f 71/71/51 72/72/50 65/39/50
f 48/42/50 50/45/51 54/43/51
f 50/45/51 52/47/50 54/43/51
f 47/41/51 64/37/50 65/39/50
f 37/49/51 40/51/50 44/55/50
f 56/60/50 57/59/51 61/64/50
f 44/55/50 38/57/50 37/49/51
f 57/59/51 59/62/51 61/64/50
f 69/38/51 71/71/51 65/39/50
