# Blender 5.1.2
# www.blender.org
o 06_01_blk
v 11.215907 -0.059081 -13.479403
v 10.617369 -0.100935 -13.479403
v 11.260451 -0.696091 -13.279358
v 10.661912 -0.737945 -13.279358
v 11.296164 -1.206805 -13.021889
v 10.697625 -1.248658 -13.021889
v 11.326139 -1.635472 -12.683398
v 10.727600 -1.677326 -12.683398
v 11.349259 -1.966107 -12.249947
v 10.750721 -2.007961 -12.249947
v 11.365251 -2.194798 -11.658326
v 10.766712 -2.236652 -11.658326
v 11.371113 -2.278626 -10.809100
v 10.772574 -2.320480 -10.809100
v 11.308002 -1.376083 -3.857215
v 10.709462 -1.417937 -3.857215
v 11.295755 -1.200961 -3.198175
v 10.697217 -1.242815 -3.198175
v 11.273373 -0.880876 -2.540425
v 10.674834 -0.922730 -2.540425
v 11.243772 -0.457554 -1.885469
v 10.645233 -0.499408 -1.885469
v 11.213064 -0.018416 -1.325186
v 10.614525 -0.060270 -1.325186
v 11.189023 0.325386 -0.951461
v 10.590485 0.283532 -0.951461
v 11.147571 0.922387 -0.500483
v 10.549032 0.880533 -0.500483
v 11.203745 0.114839 -15.110878
v 10.605206 0.072985 -15.110878
v 11.300322 -1.266266 -14.666193
v 10.701783 -1.308120 -14.666193
v 11.352861 -2.017626 -14.282584
v 10.754323 -2.059480 -14.282584
v 11.401099 -2.707459 -13.729928
v 10.802561 -2.749313 -13.729928
v 11.440609 -3.272470 -12.981434
v 10.842071 -3.314324 -12.981434
v 11.466964 -3.649364 -12.010308
v 10.868425 -3.691218 -12.010308
v 11.475739 -3.774848 -10.789761
v 10.877200 -3.816702 -10.789761
v 11.410622 -2.843623 -3.564305
v 10.812083 -2.885477 -3.564305
v 11.393799 -2.603045 -2.674202
v 10.795260 -2.644899 -2.674202
v 11.364633 -2.185947 -1.806626
v 10.766094 -2.227801 -1.806626
v 11.328970 -1.675949 -1.014692
v 10.730432 -1.717803 -1.014692
v 11.292659 -1.156670 -0.351511
v 10.694119 -1.198524 -0.351511
v 11.261545 -0.711728 0.129804
v 10.663007 -0.753582 0.129804
v 11.215626 -0.050851 0.638893
v 10.617087 -0.092705 0.638893
v 11.137601 1.065564 0.230698
v 10.539062 1.023710 0.230698
v 11.161295 0.726723 0.677488
v 10.562757 0.684869 0.677488
v 10.542800 0.619554 -16.823002
v 10.617358 -0.164168 -16.666763
v 10.645904 -0.207741 -12.611977
v 10.764607 -2.270508 -15.135959
v 10.694522 -1.268192 -16.114056
v 10.805252 -2.852325 -13.945022
v 10.792199 -2.665614 -13.464388
v 10.861708 0.641442 -16.823753
v 10.919355 -0.182971 -12.611746
v 10.587129 0.254583 -14.751178
v 10.887606 0.271078 -14.752191
v 10.734205 -1.837613 -12.884684
v 10.638579 -0.467987 -12.553452
v 10.346275 0.845048 -16.879330
v 10.417845 -0.178116 -16.666767
v 10.405527 -0.002311 -12.659917
v 10.565094 -2.284456 -15.135962
v 10.495008 -1.282140 -16.114058
v 10.605740 -2.866274 -13.945025
v 10.592687 -2.679563 -13.464392
v 10.845032 0.879925 -16.879330
v 10.904284 0.032565 -12.659917
v 10.375492 0.427224 -14.713442
v 10.534692 -1.851561 -12.884687
v 10.439066 -0.481935 -12.553455
v 11.180558 0.664150 -16.823002
v 11.215798 -0.122321 -16.666763
v 11.193594 -0.169443 -12.611977
v 11.363125 -2.228656 -15.135959
v 11.293034 -1.226340 -16.114056
v 11.403849 -2.810467 -13.945022
v 11.390789 -2.623758 -13.464388
v 11.187454 0.296562 -14.751178
v 11.332985 -1.795743 -12.884684
v 11.237066 -0.426137 -12.553452
v 11.343788 0.914801 -16.879330
v 11.415311 -0.108367 -16.666767
v 11.403041 0.067441 -12.659917
v 11.562638 -2.214702 -15.135962
v 11.492547 -1.212386 -16.114058
v 11.603361 -2.796514 -13.945025
v 11.590302 -2.609803 -13.464392
v 11.373005 0.496976 -14.713442
v 11.532497 -1.781788 -12.884687
v 11.436579 -0.412183 -12.553455
vn -0.0209 0.2982 0.9543
vn -0.0262 0.3744 0.9269
vn -0.0374 0.5354 0.8437
vn -0.0497 0.7104 0.7020
vn -0.0608 0.8700 0.4893
vn -0.0679 0.9703 0.2320
vn -0.0697 0.9974 -0.0154
vn -0.0684 0.9787 -0.1936
vn -0.0654 0.9346 -0.3496
vn -0.0607 0.8685 -0.4920
vn -0.0568 0.8116 -0.5814
vn -0.0531 0.7595 -0.6484
vn -0.0468 0.6696 -0.7413
vn -0.0591 0.8455 -0.5307
vn 0.0213 -0.3051 -0.9521
vn 0.0266 -0.3801 -0.9246
vn 0.0378 -0.5405 -0.8405
vn 0.0500 -0.7147 -0.6977
vn 0.0609 -0.8709 -0.4877
vn 0.0678 -0.9697 -0.2347
vn 0.0698 -0.9975 0.0129
vn 0.0684 -0.9784 0.1953
vn 0.0654 -0.9347 0.3493
vn 0.0608 -0.8700 0.4892
vn 0.0568 -0.8123 0.5805
vn 0.0531 -0.7588 0.6491
vn 0.0470 -0.6722 0.7389
vn 0.0470 -0.6721 0.7389
vn 0.0241 -0.3443 0.9386
vn -0.0694 0.9919 0.1063
vn -0.9976 -0.0698 -0.0000
vn 0.9976 0.0698 -0.0000
vn -0.9976 -0.0696 0.0001
vn 0.9976 0.0696 -0.0001
vn -0.9976 -0.0696 0.0002
vn 0.9976 0.0696 -0.0002
vn 0.9976 0.0697 -0.0000
vn -0.0555 0.7941 0.6052
vn -0.0591 0.8455 -0.5306
vn -0.0685 0.9789 -0.1926
vn 0.0241 -0.3442 0.9386
vn 0.0034 -0.0493 0.9988
vn -0.9976 -0.0697 -0.0000
vn 0.9976 0.0568 0.0388
vn 0.9980 0.0628 -0.0005
vn 0.9973 0.0730 -0.0040
vn 0.0538 -0.9795 -0.1942
vn 0.0687 -0.9822 -0.1747
vn 0.0684 -0.9786 -0.1942
vn 0.0853 -0.9743 -0.2083
vn 0.0682 -0.9757 -0.2080
vn 0.0326 -0.2128 -0.9766
vn 0.0253 -0.3232 -0.9460
vn 0.0303 -0.2173 -0.9756
vn 0.0404 -0.5776 -0.8153
vn 0.0227 -0.3238 -0.9458
vn 0.0565 -0.8077 -0.5868
vn 0.0286 -0.4097 0.9118
vn 0.0548 -0.7842 0.6180
vn 0.0650 -0.9296 0.3629
vn 0.0626 -0.8959 -0.4398
vn 0.0565 -0.8078 -0.5868
vn -0.0140 0.2147 0.9766
vn -0.0150 0.2143 0.9766
vn -0.0124 0.2134 0.9769
vn 0.0159 -0.2272 -0.9737
vn 0.0158 -0.2259 -0.9740
vn 0.0017 -0.0081 1.0000
vn -0.0000 -0.0004 1.0000
vn -0.9973 -0.0729 -0.0020
vn -0.9958 -0.0840 0.0358
vn -0.9981 -0.0610 0.0077
vn 0.0831 -0.9774 -0.1942
vn 0.0704 -0.9821 -0.1745
vn 0.0511 -0.9767 -0.2083
vn -0.0026 -0.2152 -0.9766
vn 0.0200 -0.3236 -0.9460
vn 0.0226 -0.3239 -0.9458
vn 0.0549 -0.7842 0.6180
vn 0.0287 -0.4097 0.9118
vn 0.0627 -0.8959 -0.4398
vn -0.0160 0.2146 0.9766
vn -0.0152 0.2171 0.9760
vn -0.0006 -0.0083 1.0000
vn 0.9904 0.1108 0.0830
vn 0.9966 0.0825 0.0034
vn 0.9886 0.1504 0.0053
vn 0.9785 0.0186 0.2054
vn 0.9984 0.0516 0.0217
vn 0.9976 0.0699 -0.0001
vn 0.9976 0.0698 0.0001
vn 0.0670 -0.9824 -0.1745
vn -0.9976 -0.0698 -0.0002
vn -0.9976 -0.0698 -0.0001
vn -0.9976 -0.0699 0.0001
vn -0.9976 -0.0697 -0.0001
vn -0.9976 -0.0697 0.0002
vn -0.9962 -0.0282 0.0830
vn -0.9984 -0.0553 0.0126
vn -0.9976 -0.0697 0.0001
vn -0.9976 -0.0696 -0.0001
vn -0.9959 -0.0879 0.0217
vn -0.9716 -0.1177 0.2054
vn -0.9999 0.0113 0.0053
vn 0.9976 0.0697 -0.0002
vn 0.9976 0.0698 0.0002
vn 0.9976 0.0698 -0.0001
vn 0.9976 0.0696 0.0001
vn 0.9976 0.0697 -0.0001
vn 0.0002 -0.2194 -0.9756
vn -0.0174 0.2131 0.9769
vt 0.395583 0.752347
vt 0.413882 0.733906
vt 0.413882 0.752347
vt 0.395583 0.717110
vt 0.395583 0.733906
vt 0.413882 0.700479
vt 0.413882 0.717110
vt 0.395583 0.684082
vt 0.395583 0.700479
vt 0.413882 0.666698
vt 0.413882 0.684082
vt 0.395583 0.647233
vt 0.395583 0.666698
vt 0.395579 0.654067
vt 0.377274 0.471048
vt 0.395574 0.471047
vt 0.395580 0.673124
vt 0.377280 0.654068
vt 0.377281 0.694912
vt 0.377281 0.673125
vt 0.395582 0.718599
vt 0.395581 0.694911
vt 0.377283 0.740331
vt 0.377282 0.718600
vt 0.395582 0.740330
vt 0.377283 0.755795
vt 0.395574 0.777926
vt 0.395583 0.755795
vt 0.413882 0.471047
vt 0.395583 0.511834
vt 0.395583 0.471047
vt 0.413882 0.536854
vt 0.395583 0.536854
vt 0.395583 0.563831
vt 0.413882 0.563831
vt 0.395583 0.591837
vt 0.413882 0.619947
vt 0.395583 0.619947
vt 0.413882 0.647233
vt 0.395583 0.647233
vt 0.377274 0.471048
vt 0.358970 0.661453
vt 0.358975 0.471047
vt 0.377269 0.661453
vt 0.358969 0.687298
vt 0.377269 0.687299
vt 0.358969 0.715957
vt 0.377268 0.715957
vt 0.358968 0.744571
vt 0.377267 0.744572
vt 0.358967 0.770284
vt 0.377267 0.770284
vt 0.358967 0.790238
vt 0.377266 0.790238
vt 0.358975 0.814955
vt 0.413882 0.790032
vt 0.395583 0.790032
vt 0.113633 0.520380
vt 0.148225 0.481966
vt 0.133449 0.525262
vt 0.350575 0.520380
vt 0.315982 0.481966
vt 0.358967 0.471047
vt 0.149520 0.532131
vt 0.171878 0.492219
vt 0.314687 0.532131
vt 0.330758 0.525262
vt 0.163241 0.541622
vt 0.193973 0.507734
vt 0.300966 0.541622
vt 0.292329 0.492219
vt 0.174150 0.554190
vt 0.212629 0.529447
vt 0.290058 0.554190
vt 0.270234 0.507734
vt 0.225967 0.558294
vt 0.182247 0.571766
vt 0.238241 0.558294
vt 0.251578 0.529447
vt 0.232104 0.595210
vt 0.186411 0.597457
vt 0.281961 0.571766
vt 0.217351 0.816920
vt 0.172016 0.810785
vt 0.277797 0.597457
vt 0.246857 0.816920
vt 0.167918 0.831178
vt 0.211693 0.844471
vt 0.296289 0.831178
vt 0.292192 0.810785
vt 0.200606 0.871670
vt 0.159395 0.851807
vt 0.263602 0.871670
vt 0.252515 0.844471
vt 0.186541 0.896744
vt 0.147716 0.872547
vt 0.304813 0.851807
vt 0.277666 0.896744
vt 0.171949 0.917916
vt 0.135375 0.890434
vt 0.316492 0.872547
vt 0.292258 0.917916
vt 0.125591 0.902462
vt 0.159282 0.933410
vt 0.338617 0.902462
vt 0.328832 0.890434
vt 0.140079 0.950160
vt 0.108227 0.917322
vt 0.324128 0.950160
vt 0.358967 0.939850
vt 0.347782 0.952809
vt 0.304925 0.933410
vt 0.395583 0.823545
vt 0.413883 0.806689
vt 0.413882 0.823546
vt 0.377275 0.777926
vt 0.395574 0.798095
vt 0.377274 0.798095
vt 0.413882 0.790032
vt 0.395583 0.806688
vt 0.105241 0.939851
vt 0.887383 0.758131
vt 0.721501 0.715415
vt 0.784499 0.573507
vt 0.899501 0.591882
vt 0.916514 0.524231
vt 0.916886 0.592129
vt 0.901391 0.666328
vt 0.917255 0.666065
vt 0.721501 0.720216
vt 0.543980 0.758831
vt 0.545976 0.510249
vt 0.898045 0.524193
vt 0.887499 0.569406
vt 0.887668 0.510249
vt 0.898935 0.640794
vt 0.899051 0.569427
vt 0.887383 0.716665
vt 0.887383 0.640773
vt 0.928808 0.837559
vt 0.917266 0.780097
vt 0.928818 0.780098
vt 0.928819 0.758841
vt 0.917267 0.758840
vt 0.899068 0.775263
vt 0.898935 0.716686
vt 0.930278 0.930343
vt 0.946141 0.940513
vt 0.917257 0.940511
vt 0.916552 0.510302
vt 0.917259 0.917717
vt 0.917257 0.837558
vt 0.928810 0.917718
vt 0.882673 0.510249
vt 0.657444 0.578783
vt 0.946140 0.930645
vt 0.413882 0.647233
vt 0.413882 0.511834
vt 0.413882 0.591837
vt 0.377274 0.814955
vt 0.105241 0.471047
vt 0.355980 0.917322
vt 0.116425 0.952809
vt 0.840175 0.528729
vt 0.887383 0.631686
vt 0.873477 0.764613
vt 0.791925 0.762772
vt 0.737964 0.740243
vt 0.739799 0.641042
vt 0.601435 0.534422
vt 0.702648 0.645982
vt 0.705224 0.745166
vt 0.651433 0.768098
vt 0.569897 0.770548
vt 0.543980 0.637646
vt 0.887517 0.775242
s 1
f 2/1/1 3/2/2 1/3/1
f 6/4/3 3/2/2 4/5/2
f 6/4/3 7/6/4 5/7/3
f 10/8/5 7/6/4 8/9/4
f 10/8/5 11/10/6 9/11/5
f 14/12/7 11/10/6 12/13/6
f 16/14/8 13/15/7 14/16/7
f 18/17/9 15/18/8 16/14/8
f 18/17/9 19/19/10 17/20/9
f 22/21/11 19/19/10 20/22/10
f 22/21/11 23/23/12 21/24/11
f 24/25/12 25/26/13 23/23/12
f 28/27/14 25/26/13 26/28/13
f 29/29/15 32/30/16 30/31/15
f 32/30/16 33/32/17 34/33/17
f 33/32/17 36/34/18 34/33/17
f 35/35/18 38/36/19 36/34/18
f 38/36/19 39/37/20 40/38/20
f 40/38/20 41/39/21 42/40/21
f 41/41/21 44/42/22 42/43/21
f 43/44/22 46/45/23 44/42/22
f 45/46/23 48/47/24 46/45/23
f 47/48/24 50/49/25 48/47/24
f 49/50/25 52/51/26 50/49/25
f 51/52/26 54/53/27 52/51/26
f 53/54/28 56/55/29 54/53/27
f 2/1/30 29/56/30 30/57/30
f 2/58/31 32/59/31 4/60/31
f 1/61/32 31/62/32 29/63/32
f 6/64/31 32/59/31 34/65/31
f 5/66/32 31/62/32 3/67/32
f 8/68/31 34/65/31 36/69/31
f 7/70/32 33/71/32 5/66/32
f 10/72/31 36/69/31 38/73/31
f 9/74/32 35/75/32 7/70/32
f 10/72/31 40/76/31 12/77/31
f 9/74/32 39/78/32 37/79/32
f 12/77/31 42/80/31 14/81/31
f 11/82/32 41/80/32 39/78/32
f 14/81/31 44/83/31 16/84/31
f 13/85/32 43/86/32 41/80/32
f 18/87/31 44/83/31 46/88/31
f 17/89/32 43/86/32 15/90/32
f 18/87/31 48/91/31 20/92/31
f 17/89/32 47/93/32 45/94/32
f 20/92/31 50/95/31 22/96/31
f 19/97/32 49/98/32 47/93/32
f 22/96/31 52/99/31 24/100/31
f 21/101/32 51/102/32 49/98/32
f 26/103/33 52/99/31 54/104/33
f 25/105/34 51/102/32 23/106/32
f 26/103/33 56/107/35 28/108/35
f 55/109/36 57/110/37 59/111/37
f 25/105/34 55/109/36 53/112/34
f 58/113/38 59/114/38 57/115/38
f 27/116/39 58/117/40 57/118/40
f 55/119/41 60/120/42 56/57/29
f 56/107/35 58/121/43 28/108/35
f 63/122/44 66/123/45 65/124/46
f 70/125/47 68/126/48 71/127/49
f 63/128/50 71/127/49 69/129/51
f 79/130/31 76/131/43 74/132/31
f 61/133/52 75/134/53 74/135/54
f 65/136/55 75/134/53 62/137/56
f 65/136/55 77/138/57 78/139/55
f 72/140/58 80/141/59 67/142/59
f 66/143/60 80/141/59 79/144/60
f 66/145/61 77/138/57 64/146/62
f 63/147/63 82/148/64 76/149/65
f 61/133/52 81/150/66 68/126/67
f 72/140/58 85/151/68 84/152/58
f 63/147/63 85/151/68 73/153/69
f 91/123/70 88/122/71 86/154/72
f 93/125/73 68/126/48 86/133/74
f 88/128/75 71/127/49 93/125/73
f 98/131/32 101/130/32 100/155/32
f 86/133/76 97/134/77 87/137/78
f 97/134/77 90/136/55 87/137/78
f 90/136/55 99/138/57 89/146/57
f 102/141/79 94/140/80 92/142/79
f 91/143/60 102/141/79 92/142/79
f 99/138/57 91/145/81 89/146/57
f 88/147/82 82/148/64 69/156/83
f 81/150/66 86/133/76 68/126/67
f 94/140/80 105/151/84 95/153/69
f 105/151/84 88/147/82 95/153/69
f 2/1/1 4/5/2 3/2/2
f 6/4/3 5/7/3 3/2/2
f 6/4/3 8/9/4 7/6/4
f 10/8/5 9/11/5 7/6/4
f 10/8/5 12/13/6 11/10/6
f 14/12/7 13/157/7 11/10/6
f 16/14/8 15/18/8 13/15/7
f 18/17/9 17/20/9 15/18/8
f 18/17/9 20/22/10 19/19/10
f 22/21/11 21/24/11 19/19/10
f 22/21/11 24/25/12 23/23/12
f 24/25/12 26/28/13 25/26/13
f 28/27/14 27/116/39 25/26/13
f 29/29/15 31/158/16 32/30/16
f 32/30/16 31/158/16 33/32/17
f 33/32/17 35/35/18 36/34/18
f 35/35/18 37/159/19 38/36/19
f 38/36/19 37/159/19 39/37/20
f 40/38/20 39/37/20 41/39/21
f 41/41/21 43/44/22 44/42/22
f 43/44/22 45/46/23 46/45/23
f 45/46/23 47/48/24 48/47/24
f 47/48/24 49/50/25 50/49/25
f 49/50/25 51/52/26 52/51/26
f 51/52/26 53/54/28 54/53/27
f 53/54/28 55/160/41 56/55/29
f 2/1/30 1/3/30 29/56/30
f 2/58/31 30/161/31 32/59/31
f 1/61/32 3/67/32 31/62/32
f 6/64/31 4/60/31 32/59/31
f 5/66/32 33/71/32 31/62/32
f 8/68/31 6/64/31 34/65/31
f 7/70/32 35/75/32 33/71/32
f 10/72/31 8/68/31 36/69/31
f 9/74/32 37/79/32 35/75/32
f 10/72/31 38/73/31 40/76/31
f 9/74/32 11/82/32 39/78/32
f 12/77/31 40/76/31 42/80/31
f 11/82/32 13/85/32 41/80/32
f 14/81/31 42/80/31 44/83/31
f 13/85/32 15/90/32 43/86/32
f 18/87/31 16/84/31 44/83/31
f 17/89/32 45/94/32 43/86/32
f 18/87/31 46/88/31 48/91/31
f 17/89/32 19/97/32 47/93/32
f 20/92/31 48/91/31 50/95/31
f 19/97/32 21/101/32 49/98/32
f 22/96/31 50/95/31 52/99/31
f 21/101/32 23/106/32 51/102/32
f 26/103/33 24/100/31 52/99/31
f 25/105/34 53/112/34 51/102/32
f 26/103/33 54/104/33 56/107/35
f 55/109/36 27/162/36 57/110/37
f 25/105/34 27/162/36 55/109/36
f 58/113/38 60/120/38 59/114/38
f 27/116/39 28/27/14 58/117/40
f 55/119/41 59/114/42 60/120/42
f 56/107/35 60/163/43 58/121/43
f 65/124/46 62/164/85 61/154/86
f 61/154/86 70/165/87 63/122/44
f 63/122/44 73/166/88 72/167/89
f 72/167/89 67/168/90 66/123/45
f 66/123/45 64/169/91 65/124/46
f 65/124/46 61/154/86 63/122/44
f 63/122/44 72/167/89 66/123/45
f 70/125/47 61/133/92 68/126/48
f 63/128/50 70/125/47 71/127/49
f 74/132/31 75/170/93 78/155/31
f 78/155/31 77/171/94 79/130/31
f 79/130/31 80/172/95 84/173/96
f 84/173/96 85/174/97 76/131/43
f 76/131/43 83/175/43 74/132/31
f 74/132/31 78/155/31 79/130/31
f 79/130/31 84/173/96 76/131/43
f 61/133/52 62/137/56 75/134/53
f 65/136/55 78/139/55 75/134/53
f 65/136/55 64/146/62 77/138/57
f 72/140/58 84/152/58 80/141/59
f 66/143/60 67/142/59 80/141/59
f 66/145/61 79/176/61 77/138/57
f 63/147/63 69/156/83 82/148/64
f 61/133/52 74/135/54 81/150/66
f 72/140/58 73/153/69 85/151/68
f 63/147/63 76/149/65 85/151/68
f 86/154/72 87/164/98 90/124/99
f 90/124/99 89/169/100 91/123/70
f 91/123/70 92/168/101 94/167/102
f 94/167/102 95/166/103 88/122/71
f 88/122/71 93/165/104 86/154/72
f 86/154/72 90/124/99 91/123/70
f 91/123/70 94/167/102 88/122/71
f 93/125/73 71/127/49 68/126/48
f 88/128/75 69/129/51 71/127/49
f 100/155/32 97/170/105 96/132/32
f 96/132/32 103/175/32 98/131/32
f 98/131/32 105/174/106 104/173/107
f 104/173/107 102/172/108 101/130/32
f 101/130/32 99/171/109 100/155/32
f 100/155/32 96/132/32 98/131/32
f 98/131/32 104/173/107 101/130/32
f 86/133/76 96/135/110 97/134/77
f 97/134/77 100/139/55 90/136/55
f 90/136/55 100/139/55 99/138/57
f 102/141/79 104/152/80 94/140/80
f 91/143/60 101/144/60 102/141/79
f 99/138/57 101/176/81 91/145/81
f 88/147/82 98/149/111 82/148/64
f 81/150/66 96/135/110 86/133/76
f 94/140/80 104/152/80 105/151/84
f 105/151/84 98/149/111 88/147/82
