# Blender 5.1.2
# www.blender.org
o 06_03_M
v -3.802368 0.086559 -12.542536
v -3.784250 0.086559 -12.640881
v -3.775192 -0.000043 -12.690054
v -3.784250 -0.086646 -12.640881
v -3.802368 -0.086646 -12.542536
v -3.811426 -0.000043 -12.493363
v -4.085051 0.086559 -12.571392
v -4.092539 0.086559 -12.672688
v -4.096282 -0.000043 -12.723334
v -4.092539 -0.086646 -12.672688
v -4.085051 -0.086646 -12.571392
v -4.081307 -0.000043 -12.520746
v -4.452865 0.086559 -12.477529
v -4.519592 0.086559 -12.563705
v -4.552956 -0.000043 -12.606792
v -4.519592 -0.086646 -12.563705
v -4.452865 -0.086646 -12.477529
v -4.419501 -0.000043 -12.434441
v -4.675718 0.086559 -12.072395
v -4.774893 0.086559 -12.099583
v -4.824481 -0.000043 -12.113176
v -4.774893 -0.086646 -12.099583
v -4.675718 -0.086646 -12.072395
v -4.626130 -0.000043 -12.058802
v -4.742022 0.086559 -10.015015
v -4.842617 0.086559 -9.998152
v -4.892915 -0.000044 -9.989720
v -4.842618 -0.086646 -9.998152
v -4.742022 -0.086646 -10.015015
v -4.691724 -0.000044 -10.023445
v -4.584050 0.086559 -9.600841
v -4.664029 0.086559 -9.529924
v -4.704018 -0.000044 -9.494466
v -4.664029 -0.086646 -9.529924
v -4.584050 -0.086646 -9.600841
v -4.544061 -0.000044 -9.636299
v -4.255436 0.086559 -9.427942
v -4.287328 0.086559 -9.331725
v -4.303274 -0.000044 -9.283617
v -4.287328 -0.086646 -9.331725
v -4.255436 -0.086646 -9.427942
v -4.239490 -0.000044 -9.476050
v -3.967108 0.086559 -9.382536
v -3.975792 0.086559 -9.282914
v -3.980134 -0.000044 -9.233103
v -3.975792 -0.086646 -9.282914
v -3.967108 -0.086646 -9.382536
v -3.962766 -0.000044 -9.432348
vn -0.0487 0.8765 0.4789
vn 0.0533 0.8544 -0.5169
vn 0.1027 -0.0000 -0.9947
vn 0.0533 -0.8544 -0.5169
vn -0.0487 -0.8765 0.4789
vn -0.1009 -0.0000 0.9949
vn 0.0335 0.8915 0.4517
vn -0.0393 0.8437 -0.5354
vn -0.0732 -0.0000 -0.9973
vn -0.0393 -0.8437 -0.5354
vn 0.0335 -0.8915 0.4517
vn 0.0741 -0.0000 0.9973
vn 0.2302 0.9266 0.2973
vn -0.3478 0.8230 -0.4492
vn -0.6122 -0.0000 -0.7907
vn -0.3478 -0.8230 -0.4492
vn 0.2302 -0.9266 0.2973
vn 0.6122 -0.0000 0.7907
vn 0.4193 0.9005 0.1149
vn -0.5272 0.8374 -0.1445
vn -0.9644 -0.0000 -0.2644
vn -0.5272 -0.8374 -0.1445
vn 0.4193 -0.9005 0.1149
vn 0.9644 -0.0000 0.2644
vn 0.4401 0.8949 -0.0738
vn -0.5331 0.8413 0.0894
vn -0.9862 -0.0000 0.1653
vn -0.5331 -0.8413 0.0894
vn 0.4401 -0.8949 -0.0738
vn 0.9862 -0.0000 -0.1653
vn 0.2941 0.9195 -0.2607
vn -0.4215 0.8262 0.3737
vn -0.7482 -0.0000 0.6634
vn -0.4215 -0.8262 0.3737
vn 0.2941 -0.9195 -0.2607
vn 0.7482 -0.0000 -0.6634
vn 0.1437 0.8898 -0.4332
vn -0.1680 0.8451 0.5076
vn -0.3143 -0.0000 0.9493
vn -0.1680 -0.8451 0.5076
vn 0.1437 -0.8898 -0.4332
vn 0.3149 -0.0000 -0.9491
vn 0.0754 0.8751 -0.4780
vn -0.0800 0.8561 0.5107
vn -0.1547 -0.0000 0.9880
vn -0.0800 -0.8561 0.5107
vn 0.0754 -0.8751 -0.4780
vn 0.1560 -0.0000 -0.9878
vt 0.051087 0.201852
vt 0.078115 0.210098
vt 0.051701 0.210098
vt 0.049515 0.193472
vt 0.077675 0.199940
vt 0.047980 0.184629
vt 0.076884 0.190306
vt 0.076884 0.229889
vt 0.047980 0.235567
vt 0.049515 0.226724
vt 0.077675 0.220256
vt 0.051087 0.218344
vt 0.120192 0.210098
vt 0.120118 0.197806
vt 0.075906 0.180888
vt 0.119944 0.186058
vt 0.119944 0.234138
vt 0.075906 0.239308
vt 0.120118 0.222390
vt 0.173226 0.199876
vt 0.173720 0.189552
vt 0.174126 0.179332
vt 0.119743 0.176124
vt 0.174126 0.240863
vt 0.119743 0.244071
vt 0.173720 0.230643
vt 0.173226 0.220319
vt 0.385657 0.200277
vt 0.172949 0.210098
vt 0.385254 0.190509
vt 0.384893 0.180322
vt 0.384893 0.239873
vt 0.385254 0.229686
vt 0.385657 0.219918
vt 0.434365 0.210098
vt 0.385861 0.210098
vt 0.434419 0.198447
vt 0.434545 0.187268
vt 0.434545 0.232928
vt 0.434419 0.221749
vt 0.474399 0.200167
vt 0.475089 0.190720
vt 0.475931 0.181491
vt 0.434699 0.177626
vt 0.475931 0.238704
vt 0.434699 0.242569
vt 0.475089 0.229475
vt 0.474399 0.220029
vt 0.501246 0.201892
vt 0.474010 0.210098
vt 0.502608 0.193561
vt 0.503942 0.184816
vt 0.503942 0.235380
vt 0.502608 0.226634
vt 0.501246 0.218304
vt 0.500716 0.210098
s 1
f 1/1/1 12/2/12 6/3/6
f 2/4/2 7/5/7 1/1/1
f 3/6/3 8/7/8 2/4/2
f 10/8/10 3/9/3 4/10/4
f 11/11/11 4/10/4 5/12/5
f 12/2/12 5/12/5 6/3/6
f 7/5/7 18/13/18 12/2/12
f 8/7/8 13/14/13 7/5/7
f 9/15/9 14/16/14 8/7/8
f 16/17/16 9/18/9 10/8/10
f 17/19/17 10/8/10 11/11/11
f 18/13/18 11/11/11 12/2/12
f 19/20/19 18/13/18 13/14/13
f 20/21/20 13/14/13 14/16/14
f 21/22/21 14/16/14 15/23/15
f 16/17/16 21/24/21 15/25/15
f 17/19/17 22/26/22 16/17/16
f 18/13/18 23/27/23 17/19/17
f 25/28/25 24/29/24 19/20/19
f 26/30/26 19/20/19 20/21/20
f 27/31/27 20/21/20 21/22/21
f 22/26/22 27/32/27 21/24/21
f 23/27/23 28/33/28 22/26/22
f 24/29/24 29/34/29 23/27/23
f 25/28/25 36/35/36 30/36/30
f 26/30/26 31/37/31 25/28/25
f 27/31/27 32/38/32 26/30/26
f 34/39/34 27/32/27 28/33/28
f 35/40/35 28/33/28 29/34/29
f 36/35/36 29/34/29 30/36/30
f 37/41/37 36/35/36 31/37/31
f 38/42/38 31/37/31 32/38/32
f 39/43/39 32/38/32 33/44/33
f 34/39/34 39/45/39 33/46/33
f 35/40/35 40/47/40 34/39/34
f 36/35/36 41/48/41 35/40/35
f 43/49/43 42/50/42 37/41/37
f 44/51/44 37/41/37 38/42/38
f 45/52/45 38/42/38 39/43/39
f 40/47/40 45/53/45 39/45/39
f 41/48/41 46/54/46 40/47/40
f 42/50/42 47/55/47 41/48/41
f 1/1/1 7/5/7 12/2/12
f 2/4/2 8/7/8 7/5/7
f 3/6/3 9/15/9 8/7/8
f 10/8/10 9/18/9 3/9/3
f 11/11/11 10/8/10 4/10/4
f 12/2/12 11/11/11 5/12/5
f 7/5/7 13/14/13 18/13/18
f 8/7/8 14/16/14 13/14/13
f 9/15/9 15/23/15 14/16/14
f 16/17/16 15/25/15 9/18/9
f 17/19/17 16/17/16 10/8/10
f 18/13/18 17/19/17 11/11/11
f 19/20/19 24/29/24 18/13/18
f 20/21/20 19/20/19 13/14/13
f 21/22/21 20/21/20 14/16/14
f 16/17/16 22/26/22 21/24/21
f 17/19/17 23/27/23 22/26/22
f 18/13/18 24/29/24 23/27/23
f 25/28/25 30/36/30 24/29/24
f 26/30/26 25/28/25 19/20/19
f 27/31/27 26/30/26 20/21/20
f 22/26/22 28/33/28 27/32/27
f 23/27/23 29/34/29 28/33/28
f 24/29/24 30/36/30 29/34/29
f 25/28/25 31/37/31 36/35/36
f 26/30/26 32/38/32 31/37/31
f 27/31/27 33/44/33 32/38/32
f 34/39/34 33/46/33 27/32/27
f 35/40/35 34/39/34 28/33/28
f 36/35/36 35/40/35 29/34/29
f 37/41/37 42/50/42 36/35/36
f 38/42/38 37/41/37 31/37/31
f 39/43/39 38/42/38 32/38/32
f 34/39/34 40/47/40 39/45/39
f 35/40/35 41/48/41 40/47/40
f 36/35/36 42/50/42 41/48/41
f 43/49/43 48/56/48 42/50/42
f 44/51/44 43/49/43 37/41/37
f 45/52/45 44/51/44 38/42/38
f 40/47/40 46/54/46 45/53/45
f 41/48/41 47/55/47 46/54/46
f 42/50/42 48/56/48 47/55/47
