# Blender 5.1.2
# www.blender.org
o 06_03_M
v -3.799144 -0.178891 -12.542536
v -3.781070 -0.177628 -12.640881
v -3.765993 -0.263387 -12.690054
v -3.768988 -0.350411 -12.640881
v -3.787061 -0.351675 -12.542536
v -3.802139 -0.265915 -12.493363
v -4.081139 -0.198610 -12.571392
v -4.088608 -0.199133 -12.672688
v -4.086301 -0.285785 -12.723334
v -4.076526 -0.371916 -12.672688
v -4.069057 -0.371394 -12.571392
v -4.071362 -0.284741 -12.520746
v -4.448057 -0.224268 -12.477529
v -4.514621 -0.228922 -12.563705
v -4.541862 -0.317641 -12.606792
v -4.502539 -0.401706 -12.563705
v -4.435974 -0.397051 -12.477529
v -4.408733 -0.308332 -12.434441
v -4.670366 -0.239813 -12.072395
v -4.769300 -0.246731 -12.099583
v -4.812726 -0.336582 -12.113176
v -4.757218 -0.419515 -12.099583
v -4.658284 -0.412596 -12.072395
v -4.614858 -0.322746 -12.058802
v -4.736509 -0.244438 -10.015015
v -4.836860 -0.251456 -9.998152
v -4.880993 -0.341356 -9.989720
v -4.824778 -0.424239 -9.998152
v -4.724427 -0.417222 -10.015015
v -4.680293 -0.327321 -10.023445
v -4.578922 -0.233419 -9.600841
v -4.658706 -0.238998 -9.529924
v -4.692556 -0.328179 -9.494466
v -4.646624 -0.411781 -9.529924
v -4.566840 -0.406202 -9.600841
v -4.532990 -0.317021 -9.636299
v -4.251108 -0.210496 -9.427942
v -4.282923 -0.212721 -9.331725
v -4.292789 -0.300225 -9.283617
v -4.270841 -0.385504 -9.331725
v -4.239026 -0.383279 -9.427942
v -4.229160 -0.295775 -9.476050
v -3.963483 -0.190383 -9.382536
v -3.972146 -0.190989 -9.282914
v -3.970437 -0.277683 -9.233103
v -3.960064 -0.363772 -9.282914
v -3.951401 -0.363166 -9.382536
v -3.953110 -0.276472 -9.432348
vn -0.1222 0.4917 0.8621
vn 0.0285 0.5089 0.8603
vn -0.1221 0.4914 0.8623
vn -0.0698 0.9976 -0.0000
vn 0.0540 0.5040 -0.8620
vn -0.0983 0.5001 -0.8604
vn 0.0539 0.5038 -0.8621
vn -0.0277 -0.5089 -0.8604
vn 0.1236 -0.4916 -0.8620
vn 0.1235 -0.4914 -0.8621
vn 0.0698 -0.9976 -0.0000
vn 0.0990 -0.5000 0.8603
vn -0.0526 -0.5039 0.8621
vn -0.0525 -0.5037 0.8623
vn 0.0284 0.5091 0.8603
vn 0.4798 0.5674 0.6692
vn -0.0983 0.5002 -0.8603
vn -0.5541 0.4951 -0.6692
vn -0.4798 -0.5674 -0.6692
vn -0.0277 -0.5090 -0.8603
vn 0.5541 -0.4951 0.6692
vn 0.0989 -0.5002 0.8603
vn 0.7916 0.5671 0.2273
vn -0.8629 0.4514 -0.2273
vn -0.7916 -0.5671 -0.2273
vn 0.8629 -0.4514 0.2273
vn 0.8124 0.5655 -0.1424
vn -0.8832 0.4469 0.1424
vn -0.8124 -0.5655 0.1425
vn 0.8832 -0.4469 -0.1424
vn 0.5985 0.5683 -0.5646
vn 0.8124 0.5655 -0.1425
vn -0.6718 0.4795 0.5646
vn -0.8832 0.4469 0.1425
vn -0.5985 -0.5683 0.5646
vn 0.6718 -0.4795 -0.5646
vn 0.8832 -0.4469 -0.1425
vn 0.2358 0.5228 -0.8192
vn -0.3058 0.4849 0.8193
vn -0.2354 -0.5228 0.8193
vn 0.3063 -0.4849 -0.8192
vn 0.0999 0.5075 -0.8558
vn 0.2359 0.5227 -0.8192
vn -0.1686 0.4887 0.8560
vn -0.3058 0.4849 0.8194
vn -0.2354 -0.5227 0.8194
vn -0.0989 -0.5074 0.8560
vn 0.3063 -0.4848 -0.8192
vn 0.1696 -0.4887 -0.8558
vn 0.1000 0.5073 -0.8559
vn -0.1686 0.4886 0.8561
vn -0.0990 -0.5073 0.8561
vn 0.1697 -0.4885 -0.8559
vt 0.051087 0.201852
vt 0.078115 0.210098
vt 0.051701 0.210098
vt 0.049515 0.193472
vt 0.077675 0.199940
vt 0.047980 0.184629
vt 0.076884 0.190306
vt 0.076884 0.229889
vt 0.047980 0.235567
vt 0.049515 0.226724
vt 0.077675 0.220256
vt 0.051087 0.218344
vt 0.120192 0.210098
vt 0.120118 0.197806
vt 0.075906 0.180888
vt 0.119944 0.186058
vt 0.119944 0.234138
vt 0.075906 0.239308
vt 0.120118 0.222390
vt 0.173226 0.199876
vt 0.173720 0.189552
vt 0.174126 0.179332
vt 0.119743 0.176124
vt 0.174126 0.240863
vt 0.119743 0.244071
vt 0.173720 0.230643
vt 0.173226 0.220319
vt 0.385657 0.200277
vt 0.172949 0.210098
vt 0.385254 0.190509
vt 0.384893 0.180322
vt 0.384893 0.239873
vt 0.385254 0.229686
vt 0.385657 0.219918
vt 0.434365 0.210098
vt 0.385861 0.210098
vt 0.434419 0.198447
vt 0.434545 0.187268
vt 0.434545 0.232928
vt 0.434419 0.221749
vt 0.474399 0.200167
vt 0.475089 0.190720
vt 0.475931 0.181491
vt 0.434699 0.177626
vt 0.475931 0.238704
vt 0.434699 0.242569
vt 0.475089 0.229475
vt 0.474399 0.220029
vt 0.501246 0.201892
vt 0.474010 0.210098
vt 0.502608 0.193561
vt 0.503942 0.184816
vt 0.503942 0.235380
vt 0.502608 0.226634
vt 0.501246 0.218304
vt 0.500716 0.210098
s 1
f 1/1/1 12/2/2 6/3/3
f 2/4/4 7/5/4 1/1/4
f 3/6/5 8/7/6 2/4/7
f 10/8/8 3/9/9 4/10/10
f 11/11/11 4/10/11 5/12/11
f 12/2/12 5/12/13 6/3/14
f 7/5/15 18/13/16 12/2/2
f 8/7/4 13/14/4 7/5/4
f 9/15/17 14/16/18 8/7/6
f 16/17/19 9/18/20 10/8/8
f 17/19/11 10/8/11 11/11/11
f 18/13/21 11/11/22 12/2/12
f 19/20/23 18/13/16 13/14/16
f 20/21/4 13/14/4 14/16/4
f 21/22/24 14/16/18 15/23/18
f 16/17/19 21/24/25 15/25/19
f 17/19/11 22/26/11 16/17/11
f 18/13/21 23/27/26 17/19/21
f 25/28/27 24/29/23 19/20/23
f 26/30/4 19/20/4 20/21/4
f 27/31/28 20/21/24 21/22/24
f 22/26/25 27/32/29 21/24/25
f 23/27/11 28/33/11 22/26/11
f 24/29/26 29/34/30 23/27/26
f 25/28/27 36/35/31 30/36/32
f 26/30/4 31/37/4 25/28/4
f 27/31/28 32/38/33 26/30/34
f 34/39/35 27/32/29 28/33/29
f 35/40/11 28/33/11 29/34/11
f 36/35/36 29/34/30 30/36/37
f 37/41/38 36/35/31 31/37/31
f 38/42/4 31/37/4 32/38/4
f 39/43/39 32/38/33 33/44/33
f 34/39/35 39/45/40 33/46/35
f 35/40/11 40/47/11 34/39/11
f 36/35/36 41/48/41 35/40/36
f 43/49/42 42/50/43 37/41/38
f 44/51/4 37/41/4 38/42/4
f 45/52/44 38/42/45 39/43/39
f 40/47/46 45/53/47 39/45/40
f 41/48/11 46/54/11 40/47/11
f 42/50/48 47/55/49 41/48/41
f 1/1/1 7/5/15 12/2/2
f 2/4/4 8/7/4 7/5/4
f 3/6/5 9/15/17 8/7/6
f 10/8/8 9/18/20 3/9/9
f 11/11/11 10/8/11 4/10/11
f 12/2/12 11/11/22 5/12/13
f 7/5/15 13/14/16 18/13/16
f 8/7/4 14/16/4 13/14/4
f 9/15/17 15/23/18 14/16/18
f 16/17/19 15/25/19 9/18/20
f 17/19/11 16/17/11 10/8/11
f 18/13/21 17/19/21 11/11/22
f 19/20/23 24/29/23 18/13/16
f 20/21/4 19/20/4 13/14/4
f 21/22/24 20/21/24 14/16/18
f 16/17/19 22/26/25 21/24/25
f 17/19/11 23/27/11 22/26/11
f 18/13/21 24/29/26 23/27/26
f 25/28/27 30/36/32 24/29/23
f 26/30/4 25/28/4 19/20/4
f 27/31/28 26/30/34 20/21/24
f 22/26/25 28/33/29 27/32/29
f 23/27/11 29/34/11 28/33/11
f 24/29/26 30/36/37 29/34/30
f 25/28/27 31/37/31 36/35/31
f 26/30/4 32/38/4 31/37/4
f 27/31/28 33/44/33 32/38/33
f 34/39/35 33/46/35 27/32/29
f 35/40/11 34/39/11 28/33/11
f 36/35/36 35/40/36 29/34/30
f 37/41/38 42/50/43 36/35/31
f 38/42/4 37/41/4 31/37/4
f 39/43/39 38/42/45 32/38/33
f 34/39/35 40/47/46 39/45/40
f 35/40/11 41/48/11 40/47/11
f 36/35/36 42/50/48 41/48/41
f 43/49/42 48/56/50 42/50/43
f 44/51/4 43/49/4 37/41/4
f 45/52/44 44/51/51 38/42/45
f 40/47/46 46/54/52 45/53/47
f 41/48/11 47/55/11 46/54/11
f 42/50/48 48/56/53 47/55/49
