# Blender 5.1.2
# www.blender.org
o 06_02_soft
v 10.672284 3.415330 -16.384665
v 4.905200 3.167709 -15.975739
v 10.714088 2.817494 -12.681268
v 4.916909 2.585092 -12.447192
v 10.890175 0.299330 -14.709394
v 4.376698 3.438033 -14.159718
v 10.638792 3.894291 -14.320579
v 7.208172 3.250291 -16.317841
v 7.170761 2.678225 -12.492881
v 7.488009 3.787768 -14.257397
v 7.274040 0.121355 -14.645974
v 4.992297 0.126864 -14.536560
v 10.861844 0.704481 -17.005774
v 10.810422 1.439858 -17.468859
v 10.846551 0.923186 -17.499533
v 4.938160 0.476763 -16.319757
v 4.839179 1.236168 -16.664799
v 4.889126 0.688164 -16.694464
v 10.874263 0.526884 -12.212087
v 10.913422 -0.033125 -12.808800
v 10.910091 0.014510 -12.322769
v 4.871110 0.448621 -12.165751
v 4.965033 -0.159394 -12.707925
v 4.921653 -0.090157 -12.273572
v 3.899570 0.881299 -14.410144
v 4.136164 0.152322 -14.501556
v 3.985551 0.290241 -14.478008
v 7.236387 1.257962 -17.365921
v 7.278886 0.521666 -16.902292
v 7.270678 0.740094 -17.389450
v 7.261507 -0.235868 -12.616889
v 7.209049 0.325343 -11.997548
v 7.248341 -0.192581 -12.111303
v 16.417707 3.972736 -15.975736
v 16.487194 3.394160 -12.447191
v 16.903444 4.313982 -14.159718
v 14.125654 3.734005 -16.317841
v 14.242315 3.172713 -12.492881
v 13.773738 4.227305 -14.257396
v 14.495888 0.626352 -14.645974
v 16.754658 0.949362 -14.536558
v 16.759571 1.303391 -16.319757
v 16.751902 2.069181 -16.664799
v 16.778708 1.519559 -16.694464
v 16.829885 1.284855 -12.165751
v 16.821495 0.669685 -12.707925
v 16.854816 0.744285 -12.273572
v 17.731754 1.848533 -14.410144
v 17.598917 1.093723 -14.501556
v 17.728868 1.251261 -14.478009
v 14.374989 1.757138 -17.365921
v 14.435376 1.022093 -16.902292
v 14.413105 1.239539 -17.389450
v 14.558014 0.274350 -12.616889
v 14.531855 0.837400 -11.997548
v 14.565027 0.319048 -12.111303
v 5.771003 3.276168 -16.175846
v 5.755550 2.682610 -12.379033
v 10.662672 3.552789 -13.364749
v 4.555775 3.082853 -13.086315
v 5.730567 3.818016 -14.181466
v 8.981371 0.184919 -14.691795
v 8.888958 3.298208 -16.375080
v 8.876540 2.714694 -12.624599
v 9.125739 3.802922 -14.306472
v 5.936333 0.112260 -14.585526
v 7.356473 3.440722 -13.241259
v 4.543513 3.443104 -15.246706
v 10.640087 3.875777 -15.407530
v 7.379811 3.743524 -15.357495
v 7.276278 0.630803 -17.262196
v 5.922904 0.511195 -16.730030
v 4.908956 0.578942 -16.590311
v 5.906307 0.732690 -17.194780
v 7.261297 0.892077 -17.437759
v 4.870867 0.841407 -16.732996
v 5.868807 1.260062 -17.171898
v 7.237341 -0.063795 -12.021012
v 5.866694 0.338961 -11.886711
v 4.903992 0.043025 -12.194598
v 5.907463 -0.183884 -12.000923
v 7.255717 -0.251667 -12.270136
v 4.939860 -0.157391 -12.409329
v 5.924419 -0.233767 -12.509868
v 4.176775 0.645201 -13.103140
v 3.946518 0.434178 -14.460355
v 4.249287 0.074855 -13.193895
v 4.038695 0.202416 -14.490533
v 4.354924 -0.026912 -13.435324
v 10.854153 0.814468 -17.373476
v 8.977257 0.587583 -16.981682
v 8.967438 0.805508 -17.474308
v 10.835969 1.074512 -17.545866
v 8.932836 1.321575 -17.446388
v 10.901059 0.143670 -12.233671
v 8.933640 0.400126 -12.147281
v 8.971549 -0.114101 -12.259029
v 10.914267 -0.045198 -12.480165
v 8.981105 -0.159074 -12.750917
v 4.147939 1.098944 -15.689219
v 4.220787 0.521653 -15.735015
v 4.331162 0.344618 -15.547248
v 7.178169 2.290748 -16.973255
v 10.738350 2.470542 -17.060127
v 7.277584 0.330428 -15.843235
v 10.875562 0.508306 -15.912739
v 4.984893 0.313357 -15.539676
v 4.793290 2.355601 -16.330769
v 3.882092 2.266206 -14.261482
v 4.417508 0.135799 -14.516137
v 7.268243 -0.078159 -13.531785
v 10.903378 0.110524 -13.649536
v 10.793728 1.678599 -12.335258
v 7.142094 1.505957 -12.120884
v 5.000305 -0.042795 -13.517513
v 4.817906 1.656092 -12.240334
v 15.545236 3.959644 -16.175846
v 15.643144 3.374014 -12.379034
v 16.775541 3.937336 -13.086315
v 15.509868 4.501846 -14.181466
v 12.796326 0.451684 -14.691794
v 12.454556 3.547537 -16.375078
v 12.548061 2.971429 -12.624599
v 12.149837 4.014385 -14.306471
v 15.821841 0.803518 -14.585526
v 13.952293 3.901943 -13.241258
v 16.737547 4.295788 -15.246706
v 13.887040 4.198551 -15.357495
v 14.422770 1.130531 -17.262196
v 15.779618 1.200440 -16.730030
v 16.774271 1.408641 -16.590313
v 15.765228 1.422088 -17.194778
v 14.401242 1.391347 -17.437759
v 16.775461 1.673852 -16.732996
v 15.728969 1.949547 -17.171898
v 14.557997 0.448111 -12.021012
v 15.859253 1.037704 -11.886712
v 16.853771 0.878630 -12.194597
v 15.891645 0.514274 -12.000922
v 14.565946 0.259510 -12.270135
v 16.846146 0.675171 -12.409328
v 15.881797 0.462516 -12.509869
v 17.490105 1.576154 -13.103141
v 17.747490 1.399229 -14.460355
v 17.497675 1.001266 -13.193894
v 17.688463 1.156894 -14.490533
v 17.407228 0.885789 -13.435324
v 12.744360 0.851003 -16.981682
v 12.723754 1.068174 -17.474308
v 12.686197 1.584034 -17.446388
v 12.813641 0.671440 -12.147281
v 12.847666 0.156942 -12.259029
v 12.844462 0.111076 -12.750917
v 17.455511 2.029494 -15.689219
v 17.463717 1.447682 -15.735017
v 17.379053 1.257009 -15.547247
v 14.288906 2.787976 -16.973257
v 14.463280 0.832898 -15.843235
v 16.736034 1.135071 -15.539677
v 16.641550 3.184106 -16.330769
v 17.556322 3.222394 -14.261482
v 17.322609 1.038205 -14.516136
v 14.529394 0.429587 -13.531784
v 14.433851 2.015843 -12.120885
v 16.770340 0.780240 -13.517513
v 16.714523 2.487978 -12.240332
v 9.022389 3.460311 -13.329484
v 9.031172 3.772343 -15.400813
v 5.739607 3.774191 -15.268325
v 5.729949 3.450076 -13.139212
v 5.914705 0.621727 -17.070250
v 5.895180 0.886036 -17.242523
v 5.895634 -0.053777 -11.911422
v 5.916202 -0.245437 -12.157898
v 4.218464 0.212907 -13.141392
v 4.288881 -0.001425 -13.276433
v 8.973459 0.696845 -17.347776
v 8.957815 0.956894 -17.521349
v 8.961275 0.014718 -12.169549
v 8.977741 -0.173208 -12.416830
v 4.189250 0.671313 -15.750253
v 4.261901 0.421363 -15.680125
v 8.872817 2.349790 -17.044107
v 8.979760 0.393858 -15.895975
v 5.933434 0.320395 -15.741403
v 5.803735 2.317834 -16.789869
v 4.125157 2.382911 -15.439971
v 4.481353 0.272276 -15.253767
v 8.981856 -0.008826 -13.614326
v 8.865307 1.562951 -12.270272
v 5.934389 -0.083051 -13.455837
v 5.793386 1.526232 -12.005462
v 4.149851 1.970571 -13.069219
v 4.497918 0.009774 -13.761725
v 12.299864 3.689493 -13.329484
v 12.247740 3.997266 -15.400812
v 15.507013 4.457189 -15.268324
v 15.561687 4.137573 -13.139213
v 15.772356 1.311036 -17.070251
v 15.754907 1.575491 -17.242523
v 15.885252 0.644761 -11.911423
v 15.891559 0.452103 -12.157897
v 17.508984 1.142264 -13.141392
v 17.469082 0.920218 -13.276433
v 12.732915 0.959730 -17.347775
v 12.712214 1.219425 -17.521349
v 12.839912 0.285937 -12.169549
v 12.849760 0.097548 -12.416830
v 17.474117 1.600275 -15.750254
v 17.436960 1.342647 -15.680126
v 12.602533 2.610595 -17.044107
v 12.768842 0.658815 -15.895976
v 15.795746 1.010030 -15.741403
v 15.646194 3.006081 -16.789865
v 17.299381 3.304136 -15.439969
v 17.240393 1.164468 -15.253768
v 12.822808 0.259757 -13.614325
v 12.719476 1.832459 -12.270273
v 15.850948 0.610378 -13.455837
v 15.766611 2.223623 -12.005462
v 17.332314 2.892372 -13.069219
v 17.260521 0.902216 -13.761724
vn 0.0066 0.9895 0.1445
vn -0.0070 0.8361 0.5485
vn -0.0300 0.9880 0.1513
vn 0.0350 0.8451 0.5334
vn 0.0266 0.4821 0.8757
vn -0.0331 0.4731 0.8804
vn -0.0579 0.8280 0.5578
vn -0.0689 0.9851 0.1578
vn -0.0093 0.9687 -0.2480
vn -0.0468 0.7526 -0.6568
vn -0.0532 0.7473 -0.6624
vn -0.0443 0.9705 -0.2368
vn -0.0678 0.9694 -0.2359
vn -0.0526 0.7528 -0.6561
vn -0.4711 0.5799 -0.6646
vn -0.1039 0.9654 -0.2390
vn -0.1311 0.7182 -0.6833
vn -0.6239 0.7261 -0.2891
vn -0.1049 0.9834 0.1478
vn -0.2661 0.9523 0.1492
vn -0.0706 0.8559 0.5123
vn -0.3693 0.4546 0.8105
vn -0.6041 0.6227 0.4973
vn 0.0747 0.5067 0.8589
vn -0.0000 -0.9785 -0.2061
vn -0.0984 -0.9003 -0.4239
vn -0.0144 -0.9122 -0.4096
vn -0.0162 -0.9614 -0.2748
vn -0.2629 -0.8556 -0.4460
vn -0.5454 -0.4580 -0.7020
vn -0.2244 -0.5423 -0.8097
vn -0.0622 -0.5586 -0.8271
vn -0.0910 0.0385 -0.9951
vn -0.6589 -0.0179 -0.7520
vn -0.1988 -0.0754 -0.9771
vn -0.2687 0.2756 -0.9229
vn -0.0893 0.3097 -0.9466
vn 0.0713 0.0664 0.9952
vn -0.0816 -0.2196 0.9722
vn 0.0870 -0.2100 0.9738
vn -0.0452 -0.0095 0.9989
vn -0.6032 -0.2077 0.7701
vn -0.4946 -0.6743 0.5484
vn -0.0757 -0.7900 0.6084
vn 0.0696 -0.7936 0.6044
vn -0.0464 -0.9943 0.0959
vn 0.0315 -0.9957 0.0874
vn -0.2588 -0.9606 0.1018
vn -0.0282 -0.9917 -0.1257
vn 0.0152 -0.9907 -0.1352
vn -0.5450 -0.0062 0.8384
vn -0.9183 -0.1703 0.3574
vn -0.9059 -0.0471 0.4208
vn -0.9900 -0.1405 -0.0125
vn -0.8446 -0.4529 0.2854
vn -0.9313 -0.3607 -0.0509
vn -0.5705 -0.8045 0.1651
vn -0.6910 -0.7129 -0.1192
vn -0.1587 -0.9829 -0.0930
vn -0.0630 -0.9979 -0.0132
vn 0.0627 -0.9765 -0.2061
vn 0.0342 -0.9131 -0.4062
vn 0.0637 -0.9111 -0.4073
vn 0.0699 -0.9709 -0.2289
vn 0.0028 -0.5548 -0.8320
vn 0.0385 -0.5504 -0.8340
vn -0.0039 0.0565 -0.9984
vn 0.0748 -0.0491 -0.9960
vn -0.0429 0.3215 -0.9459
vn -0.0228 0.3266 -0.9449
vn -0.0124 0.0637 0.9979
vn 0.0686 -0.2095 0.9754
vn 0.0149 -0.2127 0.9770
vn 0.0980 0.0384 0.9944
vn 0.0798 -0.7909 0.6067
vn 0.0553 -0.7911 0.6092
vn 0.0612 -0.9938 0.0928
vn 0.0694 -0.9928 0.0977
vn 0.0478 -0.9897 -0.1352
vn 0.0691 -0.9888 -0.1324
vn -0.9983 -0.0545 0.0222
vn -0.9181 -0.0821 -0.3877
vn -0.6277 0.1262 -0.7682
vn -0.9250 0.0014 -0.3800
vn -0.8399 -0.3558 -0.4098
vn -0.5542 -0.7447 -0.3720
vn -0.1374 -0.9281 -0.3460
vn -0.1637 -0.9551 -0.2471
vn -0.3078 -0.9476 -0.0856
vn -0.0448 0.4725 -0.8802
vn -0.0914 0.4587 -0.8839
vn -0.0333 0.4766 -0.8785
vn 0.0451 -0.9838 -0.1733
vn 0.0141 -0.9844 -0.1754
vn 0.0687 -0.9823 -0.1740
vn 0.0687 -0.9824 -0.1735
vn 0.0452 -0.9838 -0.1737
vn 0.0168 -0.9845 -0.1747
vn -0.0222 -0.9833 -0.1807
vn -0.0132 -0.9843 -0.1760
vn -0.0323 -0.9812 -0.1902
vn -0.2230 0.4202 -0.8796
vn -0.5876 0.2919 -0.7547
vn -0.9099 0.2025 -0.3621
vn -0.9847 0.1730 0.0212
vn -0.0240 -0.9847 -0.1728
vn -0.0526 -0.9809 -0.1873
vn -0.0467 -0.9818 -0.1843
vn 0.0454 -0.9837 -0.1740
vn 0.0154 -0.9848 -0.1730
vn 0.0687 -0.9826 -0.1728
vn 0.0470 0.2029 0.9781
vn -0.0139 0.1987 0.9800
vn 0.0800 0.2073 0.9750
vn -0.0188 -0.9861 -0.1651
vn -0.0349 -0.9871 -0.1562
vn -0.0674 0.5138 0.8552
vn -0.0736 0.2206 0.9726
vn -0.5229 0.1231 0.8434
vn -0.8847 0.1018 0.4550
vn -0.0430 -0.9879 -0.1493
vn -0.1478 0.9783 0.1453
vn -0.1094 0.8290 0.5485
vn -0.1484 0.8332 0.5327
vn -0.1029 0.9831 0.1515
vn -0.0934 0.4737 0.8757
vn -0.1311 0.4856 0.8643
vn -0.0687 0.7541 -0.6532
vn -0.1204 0.9618 -0.2460
vn -0.0513 0.7474 -0.6624
vn -0.0949 0.9670 -0.2363
vn 0.3452 0.6657 -0.6616
vn -0.0314 0.9705 -0.2390
vn 0.5077 0.8081 -0.2987
vn 0.0445 0.7124 -0.7004
vn -0.0330 0.9885 0.1478
vn 0.1263 0.9800 0.1536
vn -0.0493 0.8574 0.5123
vn 0.4961 0.7144 0.4934
vn -0.0640 0.5036 0.8616
vn 0.2943 0.4759 0.8288
vn 0.1036 -0.9656 -0.2385
vn 0.2227 -0.8779 -0.4240
vn 0.1684 -0.9613 -0.2180
vn 0.1511 -0.9001 -0.4087
vn 0.2977 -0.5058 -0.8097
vn 0.6039 -0.3776 -0.7019
vn 0.3793 -0.8107 -0.4460
vn 0.2042 -0.9503 -0.2348
vn 0.0963 0.0520 -0.9940
vn 0.1513 -0.5394 -0.8283
vn 0.0574 0.3204 -0.9455
vn 0.3798 -0.0146 -0.9250
vn 0.2105 0.2600 -0.9424
vn 0.6550 0.0740 -0.7520
vn -0.1287 0.0169 0.9915
vn 0.1114 -0.2061 0.9722
vn 0.0581 0.0634 0.9963
vn -0.0433 -0.2190 0.9748
vn 0.1849 -0.7718 0.6084
vn 0.5837 -0.5988 0.5484
vn 0.6262 -0.1217 0.7701
vn 0.5793 0.0763 0.8115
vn 0.0406 -0.7954 0.6047
vn 0.1843 -0.9782 0.0959
vn 0.0898 -0.9920 0.0889
vn 0.1659 -0.9781 -0.1257
vn 0.3566 -0.9250 0.1308
vn 0.9330 -0.0409 0.3575
vn 0.9188 0.0803 0.3865
vn 0.8863 -0.3836 0.2595
vn 0.9999 -0.0014 -0.0125
vn 0.9943 0.1060 0.0061
vn 0.2460 -0.9692 0.0107
vn 0.7005 -0.7109 0.0623
vn 0.4472 -0.8943 0.0115
vn 0.7834 -0.6102 -0.1176
vn 0.9661 -0.2558 -0.0348
vn 0.0932 -0.9090 -0.4062
vn 0.0927 -0.9745 -0.2044
vn 0.0745 -0.5498 -0.8320
vn 0.1377 -0.0388 -0.9897
vn -0.0399 0.2853 -0.9576
vn -0.0378 -0.2169 0.9755
vn -0.0637 0.0597 0.9962
vn 0.0311 -0.7943 0.6067
vn 0.0778 -0.9926 0.0928
vn 0.0904 -0.9867 -0.1352
vn 0.1525 -0.9822 -0.1095
vn 0.9206 0.0464 -0.3877
vn 0.9105 0.1664 -0.3785
vn 0.8813 -0.2354 -0.4098
vn 0.5948 0.2399 -0.7672
vn 0.6524 -0.6603 -0.3721
vn 0.2950 -0.9230 -0.2471
vn -0.0214 0.4742 -0.8802
vn 0.0149 0.4687 -0.8832
vn 0.0922 -0.9805 -0.1733
vn 0.1240 -0.9769 -0.1739
vn 0.0921 -0.9805 -0.1737
vn 0.1551 -0.9699 -0.1879
vn 0.1726 -0.9664 -0.1903
vn 0.1494 -0.9733 -0.1744
vn 0.1223 -0.9766 -0.1768
vn 0.1624 0.4472 -0.8796
vn 0.5522 0.3692 -0.7475
vn 0.8729 0.3271 -0.3621
vn 0.9529 0.3010 0.0375
vn 0.8635 0.5007 0.0602
vn 0.4545 -0.8861 -0.0907
vn 0.1891 -0.9603 -0.2053
vn 0.1596 -0.9720 -0.1724
vn 0.1810 -0.9702 -0.1613
vn 0.0919 -0.9804 -0.1741
vn 0.1219 -0.9775 -0.1720
vn -0.0747 0.1943 0.9781
vn 0.1559 -0.9739 -0.1651
vn 0.1681 -0.9733 -0.1563
vn -0.1114 0.1912 0.9752
vn 0.0365 0.1666 0.9853
vn 0.4921 0.1883 0.8499
vn 0.8610 0.2784 0.4257
vn 0.1801 -0.9723 -0.1493
vn -0.9229 0.3796 0.0652
vt 0.754318 0.266107
vt 0.727659 0.226766
vt 0.754584 0.223452
vt 0.726417 0.270162
vt 0.703620 0.231919
vt 0.704760 0.183904
vt 0.728310 0.183904
vt 0.754793 0.183904
vt 0.780764 0.269003
vt 0.800394 0.230534
vt 0.799651 0.274369
vt 0.781009 0.225969
vt 0.781087 0.183904
vt 0.800556 0.183904
vt 0.792054 0.334461
vt 0.779951 0.311639
vt 0.797374 0.311728
vt 0.777112 0.343373
vt 0.753901 0.311794
vt 0.750704 0.347724
vt 0.725082 0.312480
vt 0.700677 0.335216
vt 0.721129 0.343710
vt 0.701187 0.276383
vt 0.570672 0.292233
vt 0.565481 0.327527
vt 0.560933 0.292094
vt 0.574723 0.327524
vt 0.577693 0.353762
vt 0.574521 0.354063
vt 0.561781 0.327528
vt 0.557171 0.292025
vt 0.977003 0.287470
vt 0.974310 0.262894
vt 0.977999 0.264420
vt 0.971890 0.311361
vt 0.973275 0.285976
vt 0.963339 0.286401
vt 0.964577 0.263358
vt 0.879460 0.099103
vt 0.887113 0.064278
vt 0.889540 0.099091
vt 0.876942 0.064281
vt 0.882123 0.038474
vt 0.885416 0.038631
vt 0.890290 0.064282
vt 0.892679 0.099075
vt 0.697002 0.294305
vt 0.695624 0.329068
vt 0.693186 0.294236
vt 0.691645 0.354634
vt 0.699381 0.329167
vt 0.688462 0.354299
vt 0.686528 0.328842
vt 0.684205 0.294065
vt 0.871622 0.038401
vt 0.874190 0.020330
vt 0.960389 0.400864
vt 0.971887 0.375263
vt 0.971680 0.401165
vt 0.975471 0.400141
vt 0.667041 0.371825
vt 0.975674 0.374910
vt 0.977813 0.398098
vt 0.633077 0.377089
vt 0.661324 0.369287
vt 0.665273 0.370950
vt 0.680804 0.353657
vt 0.568316 0.198660
vt 0.558968 0.247812
vt 0.558370 0.198652
vt 0.568868 0.247920
vt 0.555228 0.247756
vt 0.554641 0.198636
vt 0.977084 0.238961
vt 0.970916 0.210625
vt 0.974598 0.212088
vt 0.973404 0.237469
vt 0.963689 0.238007
vt 0.961175 0.211212
vt 0.880361 0.194690
vt 0.890270 0.143989
vt 0.890288 0.194652
vt 0.880285 0.144009
vt 0.893411 0.143954
vt 0.893437 0.194585
vt 0.691786 0.198638
vt 0.689604 0.249286
vt 0.688009 0.198653
vt 0.693393 0.249324
vt 0.680954 0.249180
vt 0.679507 0.198661
vt 0.960160 0.375237
vt 0.971671 0.342849
vt 0.961431 0.311725
vt 0.960397 0.343059
vt 0.975658 0.312556
vt 0.975455 0.343339
vt 0.977794 0.344367
vt 0.977999 0.374252
vt 0.977999 0.314987
vt 0.601591 0.370882
vt 0.585114 0.353198
vt 0.605371 0.369229
vt 0.633048 0.374654
vt 0.935437 0.243543
vt 0.908643 0.278732
vt 0.936252 0.268642
vt 0.908049 0.254165
vt 0.932828 0.217045
vt 0.597642 0.248208
vt 0.598749 0.292616
vt 0.597292 0.198661
vt 0.629162 0.198661
vt 0.629528 0.248546
vt 0.630456 0.293088
vt 0.600990 0.327600
vt 0.631632 0.327905
vt 0.605910 0.352284
vt 0.934418 0.291448
vt 0.931147 0.315217
vt 0.907012 0.301504
vt 0.926273 0.343734
vt 0.923897 0.373246
vt 0.898251 0.338002
vt 0.908701 0.318211
vt 0.632530 0.352433
vt 0.613285 0.365457
vt 0.632835 0.367368
vt 0.658090 0.248887
vt 0.659985 0.293603
vt 0.657252 0.198662
vt 0.849728 0.144337
vt 0.850069 0.194680
vt 0.819044 0.146561
vt 0.817216 0.102204
vt 0.848444 0.099500
vt 0.661542 0.328310
vt 0.659484 0.352532
vt 0.814813 0.065471
vt 0.845753 0.064528
vt 0.840052 0.039239
vt 0.863003 0.020084
vt 0.815656 0.043425
vt 0.828688 0.021900
vt 0.897758 0.386380
vt 0.926172 0.396736
vt 0.652815 0.365504
vt 0.754318 0.101702
vt 0.727659 0.141043
vt 0.726416 0.097647
vt 0.754584 0.144356
vt 0.703620 0.135890
vt 0.701187 0.091425
vt 0.800394 0.137275
vt 0.780764 0.098805
vt 0.799651 0.093440
vt 0.781009 0.141839
vt 0.792054 0.033348
vt 0.779951 0.056170
vt 0.777112 0.024436
vt 0.797374 0.056081
vt 0.753901 0.056014
vt 0.750704 0.020084
vt 0.725082 0.055329
vt 0.721129 0.024099
vt 0.699381 0.054598
vt 0.700677 0.032593
vt 0.570672 0.105057
vt 0.565481 0.069704
vt 0.574722 0.069725
vt 0.560933 0.105180
vt 0.561781 0.069671
vt 0.574521 0.043096
vt 0.577693 0.043429
vt 0.585114 0.044014
vt 0.897127 0.072354
vt 0.894434 0.096930
vt 0.893437 0.073879
vt 0.906859 0.072817
vt 0.898161 0.095435
vt 0.908097 0.095860
vt 0.899546 0.120821
vt 0.895778 0.122016
vt 0.879460 0.290570
vt 0.887113 0.325473
vt 0.876942 0.325553
vt 0.889540 0.290502
vt 0.890290 0.325335
vt 0.885416 0.350643
vt 0.882123 0.350921
vt 0.871622 0.351083
vt 0.697002 0.102940
vt 0.695624 0.068166
vt 0.699381 0.068035
vt 0.693186 0.103040
vt 0.686528 0.068410
vt 0.688462 0.042895
vt 0.691645 0.042527
vt 0.874190 0.367833
vt 0.863003 0.368184
vt 0.895965 0.209601
vt 0.899549 0.184723
vt 0.899756 0.210625
vt 0.911047 0.210324
vt 0.911276 0.184696
vt 0.667041 0.025318
vt 0.680804 0.043556
vt 0.665273 0.026227
vt 0.661324 0.027909
vt 0.633076 0.020084
vt 0.893623 0.207557
vt 0.895762 0.184369
vt 0.558969 0.149485
vt 0.568868 0.149393
vt 0.555228 0.149511
vt 0.557171 0.105218
vt 0.900520 0.020084
vt 0.894352 0.048421
vt 0.896838 0.021548
vt 0.910261 0.020672
vt 0.898032 0.046929
vt 0.907747 0.047466
vt 0.890270 0.245402
vt 0.880285 0.245458
vt 0.893411 0.245302
vt 0.892679 0.290382
vt 0.689603 0.148014
vt 0.693393 0.147945
vt 0.680954 0.148136
vt 0.684205 0.103227
vt 0.899765 0.152309
vt 0.911039 0.152518
vt 0.895981 0.152799
vt 0.910005 0.121184
vt 0.893642 0.153827
vt 0.605371 0.027966
vt 0.601590 0.026293
vt 0.893437 0.124447
vt 0.935999 0.053003
vt 0.935184 0.078101
vt 0.938608 0.026505
vt 0.963387 0.063625
vt 0.962793 0.088192
vt 0.597642 0.149106
vt 0.598749 0.104676
vt 0.629528 0.148768
vt 0.600990 0.069655
vt 0.605910 0.044938
vt 0.631632 0.069353
vt 0.630456 0.104204
vt 0.937018 0.100908
vt 0.940289 0.124677
vt 0.964424 0.110963
vt 0.962735 0.127671
vt 0.945163 0.153194
vt 0.947539 0.182705
vt 0.973185 0.147461
vt 0.977999 0.173487
vt 0.633048 0.022540
vt 0.613285 0.031750
vt 0.632530 0.044793
vt 0.632835 0.029840
vt 0.658090 0.148429
vt 0.659985 0.103690
vt 0.849728 0.245111
vt 0.817216 0.287101
vt 0.819044 0.242559
vt 0.819573 0.194520
vt 0.661542 0.068947
vt 0.659484 0.044691
vt 0.848444 0.290155
vt 0.845753 0.325295
vt 0.840052 0.350296
vt 0.814813 0.323998
vt 0.945264 0.206196
vt 0.973678 0.195840
vt 0.828688 0.366577
vt 0.815656 0.345949
vt 0.652815 0.031703
vt 0.699381 0.313211
vt 0.877696 0.020838
vt 0.905485 0.228953
vt 0.893437 0.364027
vt 0.800556 0.034541
vt 0.877696 0.367239
vt 0.893437 0.183712
vt 0.965951 0.038413
vt 0.800556 0.354047
s 1
f 10/1/1 167/2/2 65/3/3
f 67/4/4 64/5/5 167/2/2
f 167/2/2 3/6/6 59/7/7
f 65/3/3 59/7/7 7/8/8
f 70/9/9 63/10/10 8/11/11
f 10/1/1 168/12/12 70/9/9
f 65/3/3 69/13/13 168/12/12
f 168/12/12 1/14/14 63/10/10
f 2/15/15 169/16/16 57/17/17
f 68/18/18 61/19/19 169/16/16
f 169/16/16 10/1/1 70/9/9
f 57/17/17 70/9/9 8/11/11
f 6/20/20 170/21/21 61/19/19
f 4/22/22 170/21/21 60/23/23
f 170/21/21 9/24/24 67/4/4
f 61/19/19 67/4/4 10/1/1
f 29/25/25 171/26/26 71/27/27
f 72/28/28 73/29/29 171/26/26
f 171/26/26 18/30/30 74/31/31
f 71/27/27 74/31/31 30/32/32
f 74/33/31 75/34/33 30/35/32
f 74/33/31 76/36/34 172/37/35
f 76/36/34 77/38/36 172/37/35
f 172/37/35 28/39/37 75/34/33
f 32/40/38 173/41/39 78/42/40
f 79/43/41 80/44/42 173/41/39
f 173/41/39 24/45/43 81/46/44
f 78/42/40 81/46/44 33/47/45
f 33/48/45 174/49/46 82/50/47
f 24/51/43 174/49/46 81/52/44
f 83/53/48 84/54/49 174/49/46
f 82/50/47 84/54/49 31/55/50
f 22/56/51 175/57/52 80/44/42
f 85/58/53 86/59/54 175/60/52
f 86/59/54 87/61/55 175/60/52
f 175/57/52 24/45/43 80/44/42
f 87/62/55 83/53/48 24/51/43
f 27/63/56 176/64/57 87/61/55
f 88/65/58 89/66/59 176/67/57
f 176/67/57 23/68/60 83/53/48
f 13/69/61 177/70/62 90/71/63
f 91/72/64 71/27/27 177/70/62
f 177/70/62 30/32/32 92/73/65
f 90/71/63 92/73/65 15/74/66
f 92/75/65 93/76/67 15/77/66
f 30/35/32 178/78/68 92/75/65
f 75/34/33 94/79/69 178/78/68
f 178/78/68 14/80/70 93/76/67
f 19/81/71 179/82/72 95/83/73
f 96/84/74 78/42/40 179/82/72
f 179/82/72 33/47/45 97/85/75
f 95/83/73 97/85/75 21/86/76
f 21/87/76 180/88/77 98/89/78
f 97/90/75 82/50/47 180/88/77
f 180/88/77 31/55/50 99/91/79
f 98/89/78 99/91/79 20/92/80
f 25/93/81 181/94/82 86/59/54
f 17/95/83 181/94/82 100/96/84
f 181/94/82 18/97/30 101/98/85
f 86/59/54 101/98/85 27/63/56
f 27/63/56 182/99/86 88/100/58
f 101/98/85 73/101/29 182/99/86
f 182/102/86 16/103/87 102/104/88
f 88/65/58 102/104/88 26/105/89
f 28/39/37 183/106/90 94/79/69
f 8/107/11 183/106/90 103/108/91
f 63/109/10 104/110/92 183/106/90
f 94/79/69 104/110/92 14/80/70
f 29/25/25 184/111/93 105/112/94
f 91/72/64 106/113/95 184/111/93
f 184/111/93 5/114/96 62/115/97
f 105/112/94 62/115/97 11/116/98
f 105/112/94 72/28/28 29/25/25
f 11/116/98 185/117/99 105/112/94
f 66/118/100 107/119/101 185/117/99
f 185/117/99 16/103/87 72/28/28
f 17/95/83 186/120/102 77/38/36
f 108/121/103 57/122/17 186/120/102
f 186/120/102 8/107/11 103/108/91
f 77/38/36 103/108/91 28/39/37
f 25/93/81 187/123/104 100/96/84
f 109/124/105 68/125/18 187/123/104
f 187/123/104 2/126/15 108/121/103
f 100/96/84 108/121/103 17/95/83
f 107/119/101 102/104/88 16/103/87
f 12/127/106 188/128/107 107/119/101
f 26/105/89 188/128/107 110/129/108
f 11/116/98 189/130/109 111/131/110
f 62/115/97 112/132/111 189/130/109
f 189/130/109 20/92/80 99/91/79
f 111/131/110 99/91/79 31/55/50
f 19/81/71 190/133/112 96/84/74
f 113/134/113 64/135/5 190/133/112
f 190/133/112 9/136/24 114/137/114
f 190/133/112 32/40/38 96/84/74
f 23/68/60 191/138/115 84/54/49
f 115/139/116 66/118/100 191/138/115
f 66/118/100 111/131/110 191/138/115
f 191/138/115 31/55/50 84/54/49
f 114/137/114 79/43/41 32/40/38
f 114/137/114 58/140/117 192/141/118
f 58/140/117 116/142/119 192/141/118
f 192/141/118 22/56/51 79/43/41
f 116/142/119 85/143/53 22/56/51
f 4/144/22 193/145/120 116/142/119
f 60/146/23 109/124/105 193/147/120
f 193/147/120 25/93/81 85/58/53
f 26/105/89 194/148/121 89/66/59
f 12/127/106 194/148/121 110/129/108
f 89/66/59 115/139/116 23/68/60
f 39/149/122 195/150/123 126/151/124
f 124/152/125 59/7/7 195/150/123
f 195/150/123 3/6/6 123/153/126
f 126/151/124 123/153/126 38/154/127
f 122/155/128 128/156/129 37/157/130
f 1/14/14 196/158/131 122/155/128
f 69/13/13 124/152/125 196/158/131
f 196/158/131 39/149/122 128/156/129
f 34/159/132 197/160/133 127/161/134
f 117/162/135 128/156/129 197/160/133
f 197/160/133 39/149/122 120/163/136
f 127/161/134 120/163/136 36/164/137
f 36/164/137 198/165/138 119/166/139
f 120/163/136 126/151/124 198/165/138
f 198/165/138 38/154/127 118/167/140
f 198/165/138 35/168/141 119/166/139
f 52/169/142 199/170/143 130/171/144
f 129/172/145 132/173/146 199/170/143
f 199/170/143 44/174/147 131/175/148
f 130/171/144 131/175/148 42/176/149
f 133/177/150 132/178/146 53/179/151
f 51/180/152 200/181/153 133/177/150
f 135/182/154 134/183/155 200/181/153
f 132/178/146 134/183/155 44/184/147
f 55/185/156 201/186/157 137/187/158
f 136/188/159 139/189/160 201/186/157
f 201/186/157 47/190/161 138/191/162
f 137/187/158 138/191/162 45/192/163
f 56/193/164 202/194/165 139/195/160
f 140/196/166 142/197/167 202/194/165
f 142/197/167 141/198/168 202/194/165
f 202/194/165 47/199/161 139/195/160
f 45/192/163 203/200/169 143/201/170
f 47/190/161 203/200/169 138/191/162
f 145/202/171 144/203/172 203/204/169
f 143/205/170 144/203/172 48/206/173
f 141/198/168 145/207/171 47/199/161
f 46/208/174 204/209/175 141/198/168
f 147/210/176 146/211/177 204/209/175
f 204/212/175 50/213/178 145/202/171
f 13/69/61 205/214/179 148/215/180
f 90/71/63 149/216/181 205/214/179
f 205/214/179 53/217/151 129/172/145
f 148/215/180 129/172/145 52/169/142
f 93/218/67 149/219/181 15/220/66
f 14/221/70 206/222/182 93/218/67
f 150/223/183 133/177/150 206/222/182
f 206/222/182 53/179/151 149/219/181
f 19/81/71 207/224/184 151/225/185
f 95/83/73 152/226/186 207/224/184
f 207/224/184 56/227/164 136/188/159
f 151/225/185 136/188/159 55/185/156
f 21/87/76 208/228/187 152/229/186
f 98/89/78 153/230/188 208/228/187
f 208/228/187 54/231/189 140/196/166
f 152/229/186 140/196/166 56/193/164
f 48/206/173 209/232/190 154/233/191
f 144/203/172 155/234/192 209/232/190
f 209/232/190 44/184/147 134/183/155
f 209/232/190 43/235/193 154/233/191
f 50/213/178 210/236/194 155/234/192
f 146/211/177 156/237/195 210/238/194
f 210/238/194 42/176/149 131/175/148
f 155/234/192 131/239/148 44/184/147
f 51/180/152 211/240/196 157/241/197
f 150/223/183 104/242/92 211/240/196
f 104/242/92 122/243/128 211/240/196
f 211/240/196 37/244/130 157/241/197
f 52/169/142 212/245/198 148/215/180
f 158/246/199 121/247/200 212/245/198
f 212/245/198 5/114/96 106/113/95
f 148/215/180 106/113/95 13/69/61
f 130/171/144 158/246/199 52/169/142
f 42/176/149 213/248/201 130/171/144
f 159/249/202 125/250/203 213/248/201
f 213/248/201 40/251/204 158/246/199
f 43/235/193 214/252/205 160/253/206
f 135/182/154 157/241/197 214/252/205
f 214/252/205 37/244/130 117/254/135
f 160/253/206 117/254/135 34/255/132
f 48/206/173 215/256/207 161/257/208
f 154/233/191 160/253/206 215/256/207
f 215/256/207 34/255/132 127/258/134
f 161/257/208 127/258/134 36/259/209
f 156/237/195 159/249/202 42/176/149
f 49/260/210 216/261/211 156/237/195
f 41/262/212 216/261/211 162/263/213
f 40/251/204 217/264/214 121/247/200
f 163/265/215 153/230/188 217/264/214
f 217/264/214 20/92/80 112/132/111
f 121/247/200 112/132/111 5/114/96
f 19/81/71 218/266/216 113/134/113
f 55/185/156 218/266/216 151/225/185
f 218/266/216 38/267/127 123/268/126
f 113/134/113 123/268/126 3/269/6
f 46/208/174 219/270/217 165/271/218
f 54/231/189 219/270/217 142/197/167
f 163/265/215 125/250/203 219/270/217
f 165/271/218 125/250/203 41/262/212
f 137/187/158 164/272/219 55/185/156
f 45/192/163 220/273/220 137/187/158
f 166/274/221 118/275/140 220/273/220
f 164/272/219 118/275/140 38/267/127
f 143/201/170 166/274/221 45/192/163
f 48/206/173 221/276/222 143/205/170
f 161/257/208 119/277/139 221/276/222
f 221/278/222 35/279/141 166/274/221
f 49/260/210 222/280/223 162/263/213
f 165/271/218 147/210/176 46/208/174
f 41/262/212 222/280/223 165/271/218
f 10/1/1 67/4/4 167/2/2
f 67/4/4 9/24/24 64/5/5
f 167/2/2 64/5/5 3/6/6
f 65/3/3 167/2/2 59/7/7
f 70/9/9 168/12/12 63/10/10
f 10/1/1 65/3/3 168/12/12
f 65/3/3 7/8/8 69/13/13
f 168/12/12 69/13/13 1/14/14
f 2/15/15 68/18/18 169/16/16
f 68/18/18 6/20/20 61/19/19
f 169/16/16 61/19/19 10/1/1
f 57/17/17 169/16/16 70/9/9
f 6/20/20 60/23/23 170/21/21
f 4/22/22 58/281/117 170/21/21
f 170/21/21 58/281/117 9/24/24
f 61/19/19 170/21/21 67/4/4
f 29/25/25 72/28/28 171/26/26
f 72/28/28 16/103/87 73/29/29
f 171/26/26 73/29/29 18/30/30
f 71/27/27 171/26/26 74/31/31
f 74/33/31 172/37/35 75/34/33
f 74/33/31 18/97/30 76/36/34
f 76/36/34 17/95/83 77/38/36
f 172/37/35 77/38/36 28/39/37
f 32/40/38 79/43/41 173/41/39
f 79/43/41 22/56/51 80/44/42
f 173/41/39 80/44/42 24/45/43
f 78/42/40 173/41/39 81/46/44
f 33/48/45 81/52/44 174/49/46
f 24/51/43 83/53/48 174/49/46
f 83/53/48 23/68/60 84/54/49
f 82/50/47 174/49/46 84/54/49
f 22/56/51 85/143/53 175/57/52
f 85/58/53 25/93/81 86/59/54
f 86/59/54 27/63/56 87/61/55
f 175/57/52 87/282/55 24/45/43
f 87/62/55 176/67/57 83/53/48
f 27/63/56 88/100/58 176/64/57
f 88/65/58 26/105/89 89/66/59
f 176/67/57 89/66/59 23/68/60
f 13/69/61 91/72/64 177/70/62
f 91/72/64 29/25/25 71/27/27
f 177/70/62 71/27/27 30/32/32
f 90/71/63 177/70/62 92/73/65
f 92/75/65 178/78/68 93/76/67
f 30/35/32 75/34/33 178/78/68
f 75/34/33 28/39/37 94/79/69
f 178/78/68 94/79/69 14/80/70
f 19/81/71 96/84/74 179/82/72
f 96/84/74 32/40/38 78/42/40
f 179/82/72 78/42/40 33/47/45
f 95/83/73 179/82/72 97/85/75
f 21/87/76 97/90/75 180/88/77
f 97/90/75 33/48/45 82/50/47
f 180/88/77 82/50/47 31/55/50
f 98/89/78 180/88/77 99/91/79
f 25/93/81 100/96/84 181/94/82
f 17/95/83 76/36/34 181/94/82
f 181/94/82 76/36/34 18/97/30
f 86/59/54 181/94/82 101/98/85
f 27/63/56 101/98/85 182/99/86
f 101/98/85 18/97/30 73/101/29
f 182/102/86 73/29/29 16/103/87
f 88/65/58 182/102/86 102/104/88
f 28/39/37 103/108/91 183/106/90
f 8/107/11 63/109/10 183/106/90
f 63/109/10 1/283/14 104/110/92
f 94/79/69 183/106/90 104/110/92
f 29/25/25 91/72/64 184/111/93
f 91/72/64 13/69/61 106/113/95
f 184/111/93 106/113/95 5/114/96
f 105/112/94 184/111/93 62/115/97
f 105/112/94 185/117/99 72/28/28
f 11/116/98 66/118/100 185/117/99
f 66/118/100 12/127/106 107/119/101
f 185/117/99 107/119/101 16/103/87
f 17/95/83 108/121/103 186/120/102
f 108/121/103 2/126/15 57/122/17
f 186/120/102 57/122/17 8/107/11
f 77/38/36 186/120/102 103/108/91
f 25/93/81 109/124/105 187/123/104
f 109/124/105 6/284/224 68/125/18
f 187/123/104 68/125/18 2/126/15
f 100/96/84 187/123/104 108/121/103
f 107/119/101 188/128/107 102/104/88
f 12/127/106 110/129/108 188/128/107
f 26/105/89 102/104/88 188/128/107
f 11/116/98 62/115/97 189/130/109
f 62/115/97 5/114/96 112/132/111
f 189/130/109 112/132/111 20/92/80
f 111/131/110 189/130/109 99/91/79
f 19/81/71 113/134/113 190/133/112
f 113/134/113 3/269/6 64/135/5
f 190/133/112 64/135/5 9/136/24
f 190/133/112 114/137/114 32/40/38
f 23/68/60 115/139/116 191/138/115
f 115/139/116 12/127/106 66/118/100
f 66/118/100 11/116/98 111/131/110
f 191/138/115 111/131/110 31/55/50
f 114/137/114 192/141/118 79/43/41
f 114/137/114 9/136/24 58/140/117
f 58/140/117 4/144/22 116/142/119
f 192/141/118 116/142/119 22/56/51
f 116/142/119 193/145/120 85/143/53
f 4/144/22 60/285/23 193/145/120
f 60/146/23 6/284/224 109/124/105
f 193/147/120 109/124/105 25/93/81
f 26/105/89 110/129/108 194/148/121
f 12/127/106 115/139/116 194/148/121
f 89/66/59 194/148/121 115/139/116
f 39/149/122 124/152/125 195/150/123
f 124/152/125 7/8/8 59/7/7
f 195/150/123 59/7/7 3/6/6
f 126/151/124 195/150/123 123/153/126
f 122/155/128 196/158/131 128/156/129
f 1/14/14 69/13/13 196/158/131
f 69/13/13 7/8/8 124/152/125
f 196/158/131 124/152/125 39/149/122
f 34/159/132 117/162/135 197/160/133
f 117/162/135 37/157/130 128/156/129
f 197/160/133 128/156/129 39/149/122
f 127/161/134 197/160/133 120/163/136
f 36/164/137 120/163/136 198/165/138
f 120/163/136 39/149/122 126/151/124
f 198/165/138 126/151/124 38/154/127
f 198/165/138 118/167/140 35/168/141
f 52/169/142 129/172/145 199/170/143
f 129/172/145 53/217/151 132/173/146
f 199/170/143 132/173/146 44/174/147
f 130/171/144 199/170/143 131/175/148
f 133/177/150 200/181/153 132/178/146
f 51/180/152 135/182/154 200/181/153
f 135/182/154 43/235/193 134/183/155
f 132/178/146 200/181/153 134/183/155
f 55/185/156 136/188/159 201/186/157
f 136/188/159 56/227/164 139/189/160
f 201/186/157 139/189/160 47/190/161
f 137/187/158 201/186/157 138/191/162
f 56/193/164 140/196/166 202/194/165
f 140/196/166 54/231/189 142/197/167
f 142/197/167 46/208/174 141/198/168
f 202/194/165 141/198/168 47/199/161
f 45/192/163 138/191/162 203/200/169
f 47/190/161 145/286/171 203/200/169
f 145/202/171 50/213/178 144/203/172
f 143/205/170 203/204/169 144/203/172
f 141/198/168 204/209/175 145/207/171
f 46/208/174 147/210/176 204/209/175
f 147/210/176 49/260/210 146/211/177
f 204/212/175 146/287/177 50/213/178
f 13/69/61 90/71/63 205/214/179
f 90/71/63 15/74/66 149/216/181
f 205/214/179 149/216/181 53/217/151
f 148/215/180 205/214/179 129/172/145
f 93/218/67 206/222/182 149/219/181
f 14/221/70 150/223/183 206/222/182
f 150/223/183 51/180/152 133/177/150
f 206/222/182 133/177/150 53/179/151
f 19/81/71 95/83/73 207/224/184
f 95/83/73 21/86/76 152/226/186
f 207/224/184 152/226/186 56/227/164
f 151/225/185 207/224/184 136/188/159
f 21/87/76 98/89/78 208/228/187
f 98/89/78 20/92/80 153/230/188
f 208/228/187 153/230/188 54/231/189
f 152/229/186 208/228/187 140/196/166
f 48/206/173 144/203/172 209/232/190
f 144/203/172 50/213/178 155/234/192
f 209/232/190 155/234/192 44/184/147
f 209/232/190 134/183/155 43/235/193
f 50/213/178 146/287/177 210/236/194
f 146/211/177 49/260/210 156/237/195
f 210/238/194 156/237/195 42/176/149
f 155/234/192 210/236/194 131/239/148
f 51/180/152 150/223/183 211/240/196
f 150/223/183 14/221/70 104/242/92
f 104/242/92 1/288/14 122/243/128
f 211/240/196 122/243/128 37/244/130
f 52/169/142 158/246/199 212/245/198
f 158/246/199 40/251/204 121/247/200
f 212/245/198 121/247/200 5/114/96
f 148/215/180 212/245/198 106/113/95
f 130/171/144 213/248/201 158/246/199
f 42/176/149 159/249/202 213/248/201
f 159/249/202 41/262/212 125/250/203
f 213/248/201 125/250/203 40/251/204
f 43/235/193 135/182/154 214/252/205
f 135/182/154 51/180/152 157/241/197
f 214/252/205 157/241/197 37/244/130
f 160/253/206 214/252/205 117/254/135
f 48/206/173 154/233/191 215/256/207
f 154/233/191 43/235/193 160/253/206
f 215/256/207 160/253/206 34/255/132
f 161/257/208 215/256/207 127/258/134
f 156/237/195 216/261/211 159/249/202
f 49/260/210 162/263/213 216/261/211
f 41/262/212 159/249/202 216/261/211
f 40/251/204 163/265/215 217/264/214
f 163/265/215 54/231/189 153/230/188
f 217/264/214 153/230/188 20/92/80
f 121/247/200 217/264/214 112/132/111
f 19/81/71 151/225/185 218/266/216
f 55/185/156 164/272/219 218/266/216
f 218/266/216 164/272/219 38/267/127
f 113/134/113 218/266/216 123/268/126
f 46/208/174 142/197/167 219/270/217
f 54/231/189 163/265/215 219/270/217
f 163/265/215 40/251/204 125/250/203
f 165/271/218 219/270/217 125/250/203
f 137/187/158 220/273/220 164/272/219
f 45/192/163 166/274/221 220/273/220
f 166/274/221 35/279/141 118/275/140
f 164/272/219 220/273/220 118/275/140
f 143/201/170 221/278/222 166/274/221
f 48/206/173 161/257/208 221/276/222
f 161/257/208 36/259/209 119/277/139
f 221/278/222 119/289/139 35/279/141
f 49/260/210 147/210/176 222/280/223
f 165/271/218 222/280/223 147/210/176
f 41/262/212 162/263/213 222/280/223
