# Blender 4.4.3
# www.blender.org
o wheel_offroad
v -0.217500 -0.000000 -0.499617
v -0.217500 0.390617 0.311507
v -0.217500 -0.487091 -0.111175
v -0.217500 -0.487091 0.111175
v -0.217500 0.216776 -0.450140
v -0.217500 0.390617 -0.311506
v -0.217500 0.487091 -0.111175
v -0.217500 0.487091 0.111176
v -0.217500 0.216776 0.450140
v -0.217500 -0.000000 0.499618
v -0.217500 -0.216776 0.450140
v -0.217500 -0.390617 0.311507
v -0.217500 -0.390617 -0.311506
v -0.217500 -0.216776 -0.450140
v 0.189219 0.001547 -0.500794
v 0.189219 0.391215 -0.310740
v 0.189219 0.486688 -0.109933
v 0.189219 0.485580 0.112412
v 0.189219 0.388109 0.312257
v 0.189219 0.213581 0.450020
v 0.189219 -0.219960 0.447858
v 0.189219 -0.393105 0.308361
v 0.189219 -0.487469 -0.114791
v 0.189219 -0.389998 -0.314636
v 0.189219 -0.215471 -0.452399
v 0.189219 0.218070 -0.450237
v 0.189219 -0.003436 0.498416
v 0.189219 -0.488578 0.107554
v 0.173546 0.104759 -0.217534
v 0.173546 -0.000000 -0.241444
v 0.173546 0.188769 -0.150538
v 0.173546 0.235391 -0.053726
v 0.173546 0.235391 0.053727
v 0.173546 0.188769 0.150538
v 0.173546 0.104759 0.217534
v 0.173546 -0.000000 0.241445
v 0.173546 -0.104759 0.217534
v 0.173546 -0.188769 0.150538
v 0.171560 -0.235391 0.053727
v 0.171560 -0.235391 -0.053727
v 0.173546 -0.188769 -0.150538
v 0.173546 -0.104759 -0.217534
v 0.240010 -0.000000 0.000000
v 0.242059 0.280708 -0.223168
v 0.242059 0.348519 -0.078688
v 0.242059 0.346927 0.080905
v 0.242059 0.276248 0.224003
v 0.242060 0.150480 0.322264
v 0.242060 -0.005466 0.356225
v 0.242060 -0.160704 0.319160
v 0.242060 -0.284487 0.218411
v 0.242060 -0.352298 0.073931
v 0.242060 -0.350706 -0.085662
v 0.242060 -0.280027 -0.228761
v 0.242059 -0.154259 -0.327021
v 0.242059 0.001687 -0.360982
v 0.242059 0.156925 -0.323917
vn -0.0016 0.4358 -0.9001
vn -0.0000 0.7832 -0.6218
vn -0.0000 0.7836 -0.6213
vn -0.0016 0.4365 -0.8997
vn 0.0016 0.9754 -0.2205
vn 0.0029 0.9745 0.2244
vn 0.0029 0.9742 0.2255
vn 0.0016 0.9756 -0.2197
vn -0.0029 0.0020 -1.0000
vn -0.0029 0.0030 -1.0000
vn -0.0036 -0.4323 -0.9017
vn -0.0036 -0.4310 -0.9024
vn -0.0036 -0.7809 -0.6247
vn -0.0036 -0.7797 -0.6262
vn -0.0029 -0.9746 -0.2238
vn -0.0029 -0.9741 -0.2261
vn -0.0016 -0.9752 0.2214
vn -0.0016 -0.9758 0.2188
vn -0.0000 -0.7825 0.6226
vn -0.0000 -0.7843 0.6204
vn 0.9997 0.0239 -0.0063
vn 0.9998 0.0212 0.0064
vn 0.9837 0.1741 0.0456
vn 0.9833 0.1761 -0.0464
vn 0.0016 -0.4349 0.9005
vn 0.0016 -0.4373 0.8993
vn 0.0029 -0.0013 1.0000
vn 0.0029 -0.0037 1.0000
vn 0.0037 0.4325 0.9016
vn 0.0037 0.4307 0.9025
vn 0.0037 0.7807 0.6248
vn 0.0037 0.7798 0.6260
vn 0.9839 -0.0015 0.1787
vn 0.9835 -0.0801 0.1621
vn 1.0000 -0.0021 -0.0000
vn 0.9830 -0.1447 0.1129
vn 0.9825 -0.1820 0.0396
vn 0.9821 -0.1833 -0.0434
vn 0.9819 -0.1476 -0.1191
vn 0.9819 -0.0818 -0.1711
vn 0.9821 -0.0000 -0.1884
vn 0.9825 0.0805 -0.1679
vn 0.9825 0.1417 -0.1207
vn 0.9836 0.1368 0.1171
vn 0.9841 0.0761 0.1604
vn 0.9359 -0.3439 0.0770
vn 0.9997 0.0195 -0.0166
vn 0.9364 -0.2752 0.2177
vn 0.9996 0.0120 -0.0240
vn 0.9369 -0.1529 0.3143
vn 0.9996 0.0004 -0.0292
vn 0.9374 -0.0015 0.3484
vn 0.9995 -0.0130 -0.0277
vn 0.9376 0.1494 0.3140
vn 0.9376 0.2707 0.2183
vn 0.9995 -0.0239 -0.0192
vn 0.9996 -0.0286 -0.0066
vn 0.9374 0.3392 0.0795
vn 0.9996 -0.0262 0.0061
vn 0.9369 0.3412 -0.0757
vn 0.9997 -0.0186 0.0150
vn 0.9364 0.2757 -0.2171
vn 0.9998 -0.0090 0.0189
vn 0.9359 0.1548 -0.3165
vn 0.9998 0.0001 0.0185
vn 0.9354 0.0021 -0.3535
vn 0.9999 0.0074 0.0155
vn 0.9352 -0.1520 -0.3199
vn 0.9998 0.0138 0.0127
vn 0.9352 -0.2759 -0.2222
vn 0.9354 -0.3444 -0.0802
vn -1.0000 -0.0000 -0.0000
vt 0.000000 1.000000
vt 0.000000 0.500000
vt 0.500000 0.500000
vt 0.500000 1.000000
vt 0.780116 0.060518
vt 0.693156 0.061406
vt 0.708703 0.111226
vt 0.773162 0.111226
vt 0.596096 0.255898
vt 0.610440 0.320283
vt 0.740933 0.255898
vt 0.650629 0.371916
vt 0.708704 0.400570
vt 0.773162 0.400570
vt 0.831237 0.371916
vt 0.871426 0.320283
vt 0.885769 0.255898
vt 0.871426 0.191513
vt 0.831237 0.139880
vt 0.650629 0.139880
vt 0.610440 0.191513
vt 0.793491 0.006872
vt 0.858841 0.098374
vt 0.893873 0.055770
vt 0.913738 0.167478
vt 0.963607 0.144449
vt 0.933934 0.254141
vt 0.988881 0.255346
vt 0.915429 0.341200
vt 0.964688 0.366495
vt 0.895821 0.455883
vt 0.861888 0.411412
vt 0.783916 0.450870
vt 0.795919 0.505804
vt 0.696956 0.451758
vt 0.684770 0.506372
vt 0.618231 0.413902
vt 0.584387 0.457474
vt 0.563334 0.344798
vt 0.514654 0.368794
vt 0.543138 0.258135
vt 0.489380 0.257898
vt 0.561643 0.171076
vt 0.513573 0.146749
vt 0.615184 0.100864
vt 0.582440 0.057361
vt 0.682342 0.007439
s 1
f 5/1/1 6/2/2 16/3/3 26/4/4
f 7/1/5 8/2/6 18/3/7 17/4/8
f 6/1/2 7/2/5 17/3/8 16/4/3
f 1/1/9 5/2/1 26/3/4 15/4/10
f 14/1/11 1/2/9 15/3/10 25/4/12
f 13/1/13 14/2/11 25/3/12 24/4/14
f 3/1/15 13/2/13 24/3/14 23/4/16
f 4/1/17 3/2/15 23/3/16 28/4/18
f 12/1/19 4/2/17 28/3/18 22/4/20
f 52/5/21 53/6/22 40/7/23 39/8/24
f 11/1/25 12/2/19 22/3/20 21/4/26
f 10/1/27 11/2/25 21/3/26 27/4/28
f 9/1/29 10/2/27 27/3/28 20/4/30
f 2/1/31 9/2/29 20/3/30 19/4/32
f 8/1/6 2/2/31 19/3/32 18/4/7
f 30/9/33 29/10/34 43/11/35
f 29/10/34 31/12/36 43/11/35
f 31/12/36 32/13/37 43/11/35
f 32/13/37 33/14/38 43/11/35
f 33/14/38 34/15/39 43/11/35
f 34/15/39 35/16/40 43/11/35
f 35/16/40 36/17/41 43/11/35
f 36/17/41 37/18/42 43/11/35
f 37/18/42 38/19/43 43/11/35
f 38/19/43 39/8/24 43/11/35
f 39/8/24 40/7/23 43/11/35
f 40/7/23 41/20/44 43/11/35
f 41/20/44 42/21/45 43/11/35
f 42/21/45 30/9/33 43/11/35
f 28/22/46 52/5/21 51/23/47 22/24/48
f 22/24/48 51/23/47 50/25/49 21/26/50
f 21/26/50 50/25/49 49/27/51 27/28/52
f 27/28/52 49/27/51 48/29/53 20/30/54
f 19/31/55 47/32/56 46/33/57 18/34/58
f 18/34/58 46/33/57 45/35/59 17/36/60
f 17/36/60 45/35/59 44/37/61 16/38/62
f 57/39/63 26/40/64 16/38/62 44/37/61
f 26/40/64 57/39/63 56/41/65 15/42/66
f 15/42/66 56/41/65 55/43/67 25/44/68
f 25/44/68 55/43/67 54/45/69 24/46/70
f 24/46/70 54/45/69 53/6/22 23/47/71
f 23/47/71 53/6/22 52/5/21 28/22/46
f 49/27/51 50/25/49 37/18/42 36/17/41
f 48/29/53 49/27/51 36/17/41 35/16/40
f 47/32/56 48/29/53 35/16/40 34/15/39
f 51/23/47 52/5/21 39/8/24 38/19/43
f 46/33/57 47/32/56 34/15/39 33/14/38
f 45/35/59 46/33/57 33/14/38 32/13/37
f 44/37/61 45/35/59 32/13/37 31/12/36
f 20/30/54 48/29/53 47/32/56 19/31/55
f 54/45/69 55/43/67 42/21/45 41/20/44
f 50/25/49 51/23/47 38/19/43 37/18/42
f 55/43/67 56/41/65 30/9/33 42/21/45
f 56/41/65 57/39/63 29/10/34 30/9/33
f 57/39/63 44/37/61 31/12/36 29/10/34
f 53/6/22 54/45/69 41/20/44 40/7/23
f 6/3/72 5/3/72 1/3/72 14/3/72 13/3/72 3/3/72 4/3/72 12/3/72 11/3/72 10/3/72 9/3/72 2/3/72 8/3/72 7/3/72
