# Blender 4.4.3
# www.blender.org
o wheel_lightvan
v -0.217500 -0.487091 0.111175
v -0.217500 0.487091 0.111175
v -0.217500 0.216776 0.450140
v -0.217500 -0.000000 0.499617
v -0.217500 -0.390617 0.311506
v -0.217500 -0.216776 -0.450140
v -0.217500 -0.000000 -0.499617
v -0.217500 0.216776 -0.450140
v -0.217500 0.390617 -0.311506
v -0.217500 0.487091 -0.111175
v -0.217500 0.390617 0.311506
v -0.217500 -0.216776 0.450140
v -0.217500 -0.487091 -0.111175
v -0.217500 -0.390617 -0.311506
v 0.189219 0.487091 -0.111175
v 0.189219 0.487091 0.111175
v 0.189219 0.390617 0.311506
v 0.189219 0.216776 0.450140
v 0.189219 -0.216776 0.450140
v 0.189219 -0.390617 0.311506
v 0.189219 -0.487091 0.111175
v 0.189219 -0.487091 -0.111175
v 0.189219 -0.390617 -0.311506
v 0.189219 -0.216776 -0.450140
v 0.189219 -0.326231 -0.074456
v 0.189219 0.000000 -0.499617
v 0.189219 0.216776 -0.450140
v 0.189219 0.390617 -0.311506
v 0.189219 -0.000000 0.499618
v 0.189219 0.000019 -0.334631
v 0.189219 0.145214 -0.301492
v 0.189219 0.261651 -0.208636
v 0.189219 0.326269 -0.074456
v 0.189219 0.326269 0.074473
v 0.189219 0.261651 0.208653
v 0.189219 0.145214 0.301509
v 0.189219 0.000019 0.334649
v 0.189219 -0.145176 0.301509
v 0.189219 -0.261613 0.208653
v 0.189219 -0.326231 0.074473
v 0.189219 -0.261613 -0.208636
v 0.189219 -0.145176 -0.301492
v 0.284185 0.000019 0.000009
v 0.242059 0.000000 -0.423173
v 0.242059 0.183608 -0.381266
v 0.242059 0.330850 -0.263844
v 0.242059 0.412563 -0.094165
v 0.242059 0.412563 0.094165
v 0.242060 0.330850 0.263844
v 0.242060 0.183608 0.381266
v 0.242060 0.000000 0.423173
v 0.242060 -0.183608 0.381266
v 0.242060 -0.330850 0.263844
v 0.242059 -0.412563 0.094165
v 0.242059 -0.412563 -0.094165
v 0.242059 -0.330850 -0.263844
v 0.242059 -0.183608 -0.381266
vn -0.0000 0.4339 0.9010
vn -0.0000 0.7818 0.6235
vn -0.0000 -0.0000 -1.0000
vn -0.0000 -0.4339 -0.9010
vn -0.0000 -0.7818 -0.6235
vn -0.0000 -0.9749 -0.2225
vn -0.0000 0.9749 0.2225
vn -0.0000 -0.4339 0.9010
vn -0.0000 -0.0000 1.0000
vn -0.0000 -0.7818 0.6235
vn -0.0000 -0.9749 0.2225
vn -0.0000 0.4339 -0.9010
vn -0.0000 0.7818 -0.6235
vn -0.0000 0.9749 -0.2225
vn 0.9940 -0.0858 0.0684
vn 0.8226 -0.2467 0.5123
vn 0.8226 -0.4446 0.3545
vn 1.0000 -0.0000 -0.0000
vn 0.9620 -0.0000 -0.2730
vn 0.9620 0.1185 -0.2460
vn 0.9620 0.2134 -0.1702
vn 0.9620 0.2662 -0.0607
vn 0.9620 -0.2662 -0.0607
vn 0.9620 -0.2134 -0.1702
vn 0.9620 0.1185 0.2460
vn 0.9620 0.2134 0.1702
vn 0.9620 -0.0000 0.2730
vn 0.9620 -0.1185 0.2460
vn 0.9620 -0.2134 0.1702
vn 0.9620 -0.2662 0.0607
vn 0.9620 -0.1185 -0.2460
vn 0.9620 0.2662 0.0607
vn 0.9940 0.1069 0.0244
vn 0.8226 0.5544 -0.1265
vn 0.8226 0.5544 0.1265
vn 0.9940 0.0476 0.0988
vn 0.8226 0.4446 0.3545
vn 0.8226 0.2467 0.5123
vn 0.8226 0.4446 -0.3545
vn 0.9940 0.0476 -0.0988
vn 0.8226 0.2467 -0.5123
vn 0.9940 -0.1070 -0.0244
vn 0.8226 -0.5544 0.1265
vn 0.8226 -0.5544 -0.1265
vn 0.9940 -0.0476 0.0989
vn 0.8226 -0.0000 0.5686
vn 0.9940 -0.0476 -0.0989
vn 0.8226 -0.4446 -0.3545
vn 0.8226 -0.2467 -0.5123
vn 0.9940 -0.0000 -0.1097
vn 0.8226 -0.0000 -0.5686
vn 0.9940 -0.0000 0.1097
vn 0.9940 0.1069 -0.0244
vn 0.9940 -0.0858 -0.0684
vn 0.8587 0.4996 0.1140
vn 0.9940 0.0857 0.0684
vn 0.8587 0.2223 -0.4618
vn 0.8587 -0.0000 -0.5125
vn 0.8587 -0.4007 0.3196
vn 0.9940 0.0858 -0.0684
vn 0.8586 -0.2224 -0.4618
vn 0.8586 -0.4008 -0.3196
vn 0.8586 -0.4997 -0.1141
vn 0.8586 -0.4997 0.1140
vn 0.8587 -0.2224 0.4617
vn 0.8587 -0.0000 0.5125
vn 0.8587 0.4006 -0.3195
vn 0.8587 0.4006 0.3195
vn 0.9940 -0.1070 0.0244
vn 0.8587 0.4996 -0.1140
vn 0.8587 0.2223 0.4617
vn -1.0000 -0.0000 -0.0000
vt 0.000000 0.500000
vt 0.500000 1.000000
vt 0.000000 1.000000
vt 0.500000 0.500000
vt 0.881891 0.080360
vt 0.975017 0.138851
vt 0.905717 0.049716
vt 0.747388 0.249496
vt 0.564664 0.249496
vt 0.582759 0.328447
vt 0.633461 0.391761
vt 0.706728 0.426898
vt 0.706728 0.072095
vt 0.633461 0.107232
vt 0.912016 0.328447
vt 0.861314 0.391761
vt 0.930111 0.249496
vt 0.912016 0.170545
vt 0.861314 0.107232
vt 0.788047 0.072095
vt 0.582759 0.170545
vt 0.788047 0.426898
vt 0.797071 0.461537
vt 0.694425 0.499750
vt 0.805575 0.499750
vt 0.940588 0.344143
vt 0.905717 0.450284
vt 0.975017 0.361149
vt 0.594283 0.450284
vt 0.559412 0.344143
vt 0.524983 0.361149
vt 0.702929 0.038463
vt 0.805575 0.000250
vt 0.694425 0.000250
vt 0.940588 0.155857
vt 0.999750 0.250000
vt 0.559412 0.155857
vt 0.594283 0.049716
vt 0.524983 0.138851
vt 0.538463 0.250000
vt 0.500250 0.250000
vt 0.961537 0.250000
vt 0.702929 0.461537
vt 0.618109 0.080360
vt 0.709712 0.074365
vt 0.881891 0.419640
vt 0.907047 0.171840
vt 0.924441 0.250010
vt 0.639284 0.390866
vt 0.618109 0.419640
vt 0.907047 0.328179
vt 0.858309 0.390866
vt 0.787881 0.425655
vt 0.709712 0.425655
vt 0.590546 0.328179
vt 0.573152 0.250010
vt 0.858309 0.109153
vt 0.639284 0.109154
vt 0.797071 0.038463
vt 0.787881 0.074365
vt 0.590546 0.171840
s 1
f 3/1/1 17/2/2 11/3/2
f 7/1/3 24/2/4 6/3/4
f 14/1/5 22/2/6 13/3/6
f 11/1/2 16/2/7 2/3/7
f 12/1/8 29/2/9 4/3/9
f 5/3/10 21/4/11 20/2/10
f 6/1/4 23/2/5 14/3/5
f 8/3/12 28/4/13 27/2/12
f 10/1/14 28/2/13 9/3/13
f 12/3/8 20/4/10 19/2/8
f 2/1/7 15/2/14 10/3/14
f 13/1/6 21/2/11 1/3/11
f 53/5/15 19/6/16 20/7/17
f 3/3/1 29/4/9 18/2/1
f 43/8/18 30/9/19 31/10/20
f 43/8/18 31/10/20 32/11/21
f 43/8/18 32/11/21 33/12/22
f 25/13/23 41/14/24 43/8/18
f 36/15/25 43/8/18 35/16/26
f 37/17/27 43/8/18 36/15/25
f 38/18/28 43/8/18 37/17/27
f 39/19/29 43/8/18 38/18/28
f 40/20/30 43/8/18 39/19/29
f 25/13/23 43/8/18 40/20/30
f 43/8/18 41/14/24 42/21/31
f 43/8/18 42/21/31 30/9/19
f 43/8/18 33/12/22 34/22/32
f 43/8/18 34/22/32 35/16/26
f 48/23/33 15/24/34 16/25/35
f 50/26/36 17/27/37 18/28/38
f 28/29/39 45/30/40 27/31/41
f 55/32/42 21/33/43 22/34/44
f 52/35/45 29/36/46 19/6/16
f 57/37/47 23/38/48 24/39/49
f 27/31/41 44/40/50 26/41/51
f 21/33/43 53/5/15 20/7/17
f 51/42/52 18/28/38 29/36/46
f 47/43/53 28/29/39 15/24/34
f 24/39/49 44/40/50 57/37/47
f 56/44/54 25/45/55 55/32/42
f 56/44/54 22/34/44 23/38/48
f 49/46/56 16/25/35 17/27/37
f 51/42/52 38/47/57 37/48/58
f 47/43/53 32/49/59 46/50/60
f 50/26/36 37/48/58 36/51/61
f 48/23/33 35/52/62 34/53/63
f 48/23/33 33/54/64 47/43/53
f 49/46/56 36/51/61 35/52/62
f 46/50/60 31/55/65 45/30/40
f 45/30/40 30/56/66 44/40/50
f 52/35/45 39/57/67 38/47/57
f 57/37/47 41/58/68 56/44/54
f 54/59/69 25/45/55 40/60/70
f 44/40/50 42/61/71 57/37/47
f 53/5/15 40/60/70 39/57/67
f 8/1/12 26/2/3 7/3/3
f 14/4/72 12/4/72 2/4/72
f 3/1/1 18/4/1 17/2/2
f 7/1/3 26/4/3 24/2/4
f 14/1/5 23/4/5 22/2/6
f 11/1/2 17/4/2 16/2/7
f 12/1/8 19/4/8 29/2/9
f 5/3/10 1/1/11 21/4/11
f 6/1/4 24/4/4 23/2/5
f 8/3/12 9/1/13 28/4/13
f 10/1/14 15/4/14 28/2/13
f 12/3/8 5/1/10 20/4/10
f 2/1/7 16/4/7 15/2/14
f 13/1/6 22/4/6 21/2/11
f 53/5/15 52/35/45 19/6/16
f 3/3/1 4/1/9 29/4/9
f 48/23/33 47/43/53 15/24/34
f 50/26/36 49/46/56 17/27/37
f 28/29/39 46/50/60 45/30/40
f 55/32/42 54/59/69 21/33/43
f 52/35/45 51/42/52 29/36/46
f 57/37/47 56/44/54 23/38/48
f 27/31/41 45/30/40 44/40/50
f 21/33/43 54/59/69 53/5/15
f 51/42/52 50/26/36 18/28/38
f 47/43/53 46/50/60 28/29/39
f 24/39/49 26/41/51 44/40/50
f 56/44/54 41/58/68 25/45/55
f 56/44/54 55/32/42 22/34/44
f 49/46/56 48/23/33 16/25/35
f 51/42/52 52/35/45 38/47/57
f 47/43/53 33/54/64 32/49/59
f 50/26/36 51/42/52 37/48/58
f 48/23/33 49/46/56 35/52/62
f 48/23/33 34/53/63 33/54/64
f 49/46/56 50/26/36 36/51/61
f 46/50/60 32/49/59 31/55/65
f 45/30/40 31/55/65 30/56/66
f 52/35/45 53/5/15 39/57/67
f 57/37/47 42/61/71 41/58/68
f 54/59/69 55/32/42 25/45/55
f 44/40/50 30/56/66 42/61/71
f 53/5/15 54/59/69 40/60/70
f 8/1/12 27/4/12 26/2/3
f 9/4/72 8/4/72 7/4/72
f 7/4/72 6/4/72 14/4/72
f 14/4/72 13/4/72 1/4/72
f 1/4/72 5/4/72 12/4/72
f 12/4/72 4/4/72 3/4/72
f 3/4/72 11/4/72 2/4/72
f 2/4/72 10/4/72 9/4/72
f 9/4/72 7/4/72 14/4/72
f 14/4/72 1/4/72 12/4/72
f 12/4/72 3/4/72 2/4/72
f 2/4/72 9/4/72 14/4/72
