# Blender 4.4.3
# www.blender.org
o wheel_truck
v -0.217500 -0.487091 0.111175
v -0.217500 0.487091 0.111175
v -0.217500 0.216776 0.450140
v -0.217500 -0.000000 0.499617
v -0.217500 -0.390617 0.311506
v -0.217500 -0.216776 -0.450140
v -0.217500 -0.000000 -0.499617
v -0.217500 0.216776 -0.450140
v -0.217500 0.390617 -0.311506
v -0.217500 0.487091 -0.111175
v -0.217500 0.390617 0.311506
v -0.217500 -0.216776 0.450140
v -0.217500 -0.487091 -0.111175
v -0.217500 -0.390617 -0.311506
v 0.189219 0.487091 -0.111175
v 0.189219 0.487091 0.111175
v 0.189219 0.390617 0.311506
v 0.189219 0.216776 0.450140
v 0.189219 0.000000 0.499617
v 0.189219 -0.216776 0.450140
v 0.189219 -0.390617 0.311506
v 0.189219 -0.487091 0.111175
v 0.189219 -0.487091 -0.111175
v 0.189219 -0.390616 -0.311506
v 0.189219 -0.216776 -0.450140
v 0.189219 -0.326162 -0.074508
v 0.189219 0.000000 -0.499617
v 0.189219 0.216776 -0.450140
v 0.189219 0.390617 -0.311506
v 0.189219 0.000088 -0.334683
v 0.189219 0.145283 -0.301543
v 0.189219 0.261720 -0.208688
v 0.189219 0.326338 -0.074508
v 0.189219 0.326338 0.074421
v 0.189219 0.261720 0.208601
v 0.189219 0.145283 0.301457
v 0.189219 0.000088 0.334597
v 0.189219 -0.145107 0.301457
v 0.189219 -0.261544 0.208601
v 0.189219 -0.326162 0.074421
v 0.189219 -0.261544 -0.208688
v 0.189219 -0.145107 -0.301543
v 0.284185 0.000088 -0.000043
v 0.242059 0.000000 -0.423173
v 0.242059 0.183608 -0.381266
v 0.242059 0.330850 -0.263844
v 0.242059 0.412564 -0.094165
v 0.242059 0.412564 0.094165
v 0.242060 0.330850 0.263844
v 0.242060 0.183608 0.381266
v 0.242060 0.000000 0.423173
v 0.242060 -0.183608 0.381266
v 0.242060 -0.330850 0.263844
v 0.242059 -0.412563 0.094165
v 0.242059 -0.412563 -0.094165
v 0.242059 -0.330850 -0.263844
v 0.242059 -0.183608 -0.381266
vn -1.0000 -0.0000 -0.0000
vn -0.0000 -0.7818 0.6235
vn -0.0000 -0.9749 0.2225
vn -0.0000 0.4339 0.9010
vn -0.0000 -0.0000 1.0000
vn -0.0000 0.7818 0.6235
vn -0.0000 -0.4339 0.9010
vn -0.0000 -0.7818 -0.6235
vn -0.0000 -0.9749 -0.2225
vn -0.0000 0.4339 -0.9010
vn -0.0000 -0.0000 -1.0000
vn 0.9939 -0.0859 0.0685
vn 0.8226 -0.2467 0.5123
vn 0.8226 -0.4446 0.3545
vn -0.0000 0.9749 0.2225
vn -0.0000 -0.4339 -0.9010
vn -0.0000 0.9749 -0.2225
vn -0.0000 0.7818 -0.6235
vn 1.0000 -0.0000 -0.0000
vn 0.9620 -0.0000 -0.2730
vn 0.9620 0.1185 -0.2460
vn 0.9620 0.2134 -0.1702
vn 0.9620 0.2662 -0.0607
vn 0.9620 -0.2662 -0.0607
vn 0.9620 -0.2134 -0.1702
vn 0.9620 0.1185 0.2460
vn 0.9620 0.2134 0.1702
vn 0.9620 -0.0000 0.2730
vn 0.9620 -0.1185 0.2460
vn 0.9620 -0.2134 0.1702
vn 0.9620 -0.2662 0.0607
vn 0.9620 -0.1185 -0.2460
vn 0.9620 0.2662 0.0607
vn 0.9940 -0.0000 0.1098
vn 0.8226 0.2467 0.5123
vn 0.8226 -0.0000 0.5686
vn 0.9940 0.0476 0.0988
vn 0.8226 0.4446 0.3545
vn 0.8226 -0.4446 -0.3545
vn 0.9939 -0.1071 -0.0245
vn 0.8226 -0.5544 -0.1265
vn 0.9940 0.0857 0.0683
vn 0.8226 0.5544 0.1265
vn 0.9939 -0.0477 0.0990
vn 0.9939 -0.1072 0.0245
vn 0.8589 0.4004 -0.3193
vn 0.8226 -0.5544 0.1265
vn 0.9940 -0.0476 -0.0989
vn 0.8226 -0.0000 -0.5686
vn 0.9940 -0.0000 -0.1096
vn 0.8226 0.2467 -0.5123
vn 0.9940 0.1068 0.0244
vn 0.8226 0.5544 -0.1265
vn 0.8226 0.4446 -0.3545
vn 0.9940 0.0475 -0.0987
vn 0.9940 0.1068 -0.0244
vn 0.8226 -0.2467 -0.5123
vn 0.9940 -0.0858 -0.0685
vn 0.8585 -0.5000 -0.1141
vn 0.8584 -0.5000 0.1142
vn 0.9940 0.0856 -0.0683
vn 0.8584 -0.4010 0.3198
vn 0.8585 -0.2226 0.4620
vn 0.8586 -0.0001 0.5127
vn 0.8587 0.2223 0.4618
vn 0.8588 0.4005 0.3195
vn 0.8589 0.4993 0.1140
vn 0.8589 0.4993 -0.1139
vn 0.8589 0.2222 -0.4615
vn 0.8588 -0.0001 -0.5123
vn 0.8587 -0.2224 -0.4617
vn 0.8586 -0.4009 -0.3196
vt 0.500000 0.500000
vt 0.000000 1.000000
vt 0.500000 1.000000
vt 0.000000 0.500000
vt 0.881891 0.080361
vt 0.975017 0.138851
vt 0.905717 0.049716
vt 0.749803 0.247081
vt 0.603190 0.247081
vt 0.617710 0.312330
vt 0.658391 0.364655
vt 0.717179 0.393694
vt 0.717179 0.100468
vt 0.658391 0.129507
vt 0.881896 0.312330
vt 0.841215 0.364655
vt 0.896416 0.247081
vt 0.881896 0.181832
vt 0.841214 0.129507
vt 0.782427 0.100468
vt 0.617710 0.181832
vt 0.782427 0.393694
vt 0.961537 0.250000
vt 0.975017 0.361149
vt 0.999750 0.250000
vt 0.940588 0.344143
vt 0.905717 0.450284
vt 0.594283 0.049716
vt 0.702929 0.038463
vt 0.694425 0.000250
vt 0.881891 0.419640
vt 0.805575 0.499750
vt 0.940588 0.155857
vt 0.797071 0.038463
vt 0.854276 0.115896
vt 0.805575 0.000250
vt 0.559412 0.155857
vt 0.500250 0.250000
vt 0.538463 0.250000
vt 0.524983 0.361149
vt 0.797071 0.461537
vt 0.694425 0.499750
vt 0.594283 0.450284
vt 0.559412 0.344143
vt 0.702929 0.461537
vt 0.524983 0.138851
vt 0.618109 0.080361
vt 0.787202 0.417326
vt 0.712755 0.417326
vt 0.618109 0.419640
vt 0.645680 0.384194
vt 0.599264 0.324492
vt 0.582698 0.250045
vt 0.599264 0.175598
vt 0.645680 0.115896
vt 0.712755 0.082764
vt 0.787202 0.082764
vt 0.900693 0.175598
vt 0.917259 0.250045
vt 0.900693 0.324492
vt 0.854276 0.384194
s 1
f 14/1/1 12/1/1 2/1/1
f 5/2/2 22/1/3 21/3/2
f 3/2/4 19/1/5 18/3/4
f 11/2/6 18/1/4 17/3/6
f 4/2/5 20/1/7 19/3/5
f 14/4/8 23/3/9 13/2/9
f 12/2/7 21/1/2 20/3/7
f 8/4/10 27/3/11 7/2/11
f 53/5/12 20/6/13 21/7/14
f 2/2/15 17/1/6 16/3/15
f 7/4/11 25/3/16 6/2/16
f 13/4/9 22/3/3 1/2/3
f 10/2/17 16/1/15 15/3/17
f 10/4/17 29/3/18 9/2/18
f 9/4/18 28/3/10 8/2/10
f 6/4/16 24/3/8 14/2/8
f 43/8/19 30/9/20 31/10/21
f 43/8/19 31/10/21 32/11/22
f 43/8/19 32/11/22 33/12/23
f 26/13/24 41/14/25 43/8/19
f 36/15/26 43/8/19 35/16/27
f 37/17/28 43/8/19 36/15/26
f 38/18/29 43/8/19 37/17/28
f 39/19/30 43/8/19 38/18/29
f 40/20/31 43/8/19 39/19/30
f 26/13/24 43/8/19 40/20/31
f 43/8/19 41/14/25 42/21/32
f 43/8/19 42/21/32 30/9/20
f 43/8/19 33/12/23 34/22/33
f 43/8/19 34/22/33 35/16/27
f 51/23/34 18/24/35 19/25/36
f 50/26/37 17/27/38 18/24/35
f 24/28/39 55/29/40 23/30/41
f 49/31/42 16/32/43 17/27/38
f 52/33/44 19/25/36 20/6/13
f 54/34/45 39/35/46 53/5/12
f 55/29/40 22/36/47 23/30/41
f 57/37/48 27/38/49 44/39/50
f 28/40/51 44/39/50 27/38/49
f 48/41/52 15/42/53 16/32/43
f 22/36/47 53/5/12 21/7/14
f 29/43/54 45/44/55 28/40/51
f 47/45/56 29/43/54 15/42/53
f 25/46/57 56/47/58 24/28/39
f 47/45/56 34/48/59 33/49/60
f 46/50/61 33/49/60 32/51/62
f 46/50/61 31/52/63 45/44/55
f 45/44/55 30/53/64 44/39/50
f 44/39/50 42/54/65 57/37/48
f 57/37/48 41/55/66 56/47/58
f 56/47/58 26/56/67 55/29/40
f 55/29/40 40/57/68 54/34/45
f 52/33/44 39/35/46 38/58/69
f 51/23/34 38/58/69 37/59/70
f 50/26/37 37/59/70 36/60/71
f 49/31/42 36/60/71 35/61/72
f 48/41/52 35/61/72 34/48/59
f 9/1/1 8/1/1 7/1/1
f 7/1/1 6/1/1 14/1/1
f 14/1/1 13/1/1 1/1/1
f 1/1/1 5/1/1 12/1/1
f 12/1/1 4/1/1 3/1/1
f 3/1/1 11/1/1 2/1/1
f 2/1/1 10/1/1 9/1/1
f 9/1/1 7/1/1 14/1/1
f 14/1/1 1/1/1 12/1/1
f 12/1/1 3/1/1 2/1/1
f 2/1/1 9/1/1 14/1/1
f 5/2/2 1/4/3 22/1/3
f 3/2/4 4/4/5 19/1/5
f 11/2/6 3/4/4 18/1/4
f 4/2/5 12/4/7 20/1/7
f 14/4/8 24/1/8 23/3/9
f 12/2/7 5/4/2 21/1/2
f 8/4/10 28/1/10 27/3/11
f 53/5/12 52/33/44 20/6/13
f 2/2/15 11/4/6 17/1/6
f 7/4/11 27/1/11 25/3/16
f 13/4/9 23/1/9 22/3/3
f 10/2/17 2/4/15 16/1/15
f 10/4/17 15/1/17 29/3/18
f 9/4/18 29/1/18 28/3/10
f 6/4/16 25/1/16 24/3/8
f 51/23/34 50/26/37 18/24/35
f 50/26/37 49/31/42 17/27/38
f 24/28/39 56/47/58 55/29/40
f 49/31/42 48/41/52 16/32/43
f 52/33/44 51/23/34 19/25/36
f 54/34/45 40/57/68 39/35/46
f 55/29/40 54/34/45 22/36/47
f 57/37/48 25/46/57 27/38/49
f 28/40/51 45/44/55 44/39/50
f 48/41/52 47/45/56 15/42/53
f 22/36/47 54/34/45 53/5/12
f 29/43/54 46/50/61 45/44/55
f 47/45/56 46/50/61 29/43/54
f 25/46/57 57/37/48 56/47/58
f 47/45/56 48/41/52 34/48/59
f 46/50/61 47/45/56 33/49/60
f 46/50/61 32/51/62 31/52/63
f 45/44/55 31/52/63 30/53/64
f 44/39/50 30/53/64 42/54/65
f 57/37/48 42/54/65 41/55/66
f 56/47/58 41/55/66 26/56/67
f 55/29/40 26/56/67 40/57/68
f 52/33/44 53/5/12 39/35/46
f 51/23/34 52/33/44 38/58/69
f 50/26/37 51/23/34 37/59/70
f 49/31/42 50/26/37 36/60/71
f 48/41/52 49/31/42 35/61/72
