# Blender 4.4.3
# www.blender.org
o wheel_classic
v -0.217500 -0.487091 0.111175
v -0.217500 -0.000000 -0.499617
v -0.217500 0.216776 -0.450140
v -0.217500 0.390617 -0.311506
v -0.217500 0.487091 -0.111175
v -0.217500 -0.390617 0.311506
v -0.217500 -0.390617 -0.311506
v -0.217500 0.487091 0.111175
v -0.217500 0.390617 0.311506
v -0.217500 0.216776 0.450140
v -0.217500 -0.000000 0.499617
v -0.217500 -0.216776 0.450140
v -0.217500 -0.487091 -0.111175
v -0.217500 -0.216776 -0.450140
v 0.189219 -0.000000 -0.499617
v 0.189219 -0.000000 0.499617
v 0.189219 -0.216776 0.450140
v 0.189219 -0.390617 0.311506
v 0.121983 -0.263978 -0.060477
v 0.121983 0.000992 -0.271783
v 0.121983 0.118914 -0.244868
v 0.121983 0.213481 -0.169454
v 0.121983 0.265961 -0.060477
v 0.121983 0.265962 0.060478
v 0.121983 0.213481 0.169455
v 0.121983 0.118914 0.244869
v 0.121983 0.000992 0.271785
v 0.121983 -0.116931 0.244869
v 0.121983 -0.211497 0.169455
v 0.121983 -0.263978 0.060478
v 0.121983 -0.211497 -0.169454
v 0.121983 -0.116931 -0.244868
v 0.263722 0.000992 0.000001
v 0.215073 0.000119 -0.351324
v 0.215073 0.152553 -0.316532
v 0.189219 0.216776 -0.450140
v 0.215073 0.274795 -0.219047
v 0.189219 0.390617 -0.311506
v 0.215073 0.342635 -0.078177
v 0.189219 0.487091 -0.111175
v 0.215073 0.342635 0.078177
v 0.189219 0.487091 0.111175
v 0.215073 0.274795 0.219047
v 0.189219 0.390617 0.311506
v 0.215073 0.152553 0.316532
v 0.189219 0.216776 0.450140
v 0.215073 0.000119 0.351324
v 0.215073 -0.152315 0.316532
v 0.215073 -0.274557 0.219047
v 0.215073 -0.342397 0.078177
v 0.189219 -0.487091 0.111175
v 0.215073 -0.342397 -0.078177
v 0.189219 -0.487091 -0.111175
v 0.215073 -0.274557 -0.219047
v 0.189219 -0.390617 -0.311506
v 0.215073 -0.152315 -0.316532
v 0.189219 -0.216776 -0.450140
vn -0.0000 0.7818 0.6235
vn -0.0000 0.4339 0.9010
vn -0.0000 -0.7818 0.6235
vn -0.0000 -0.9749 0.2225
vn -0.0000 0.9749 -0.2225
vn -0.0000 0.9749 0.2225
vn -0.0000 -0.9749 -0.2225
vn 0.6536 0.7379 -0.1683
vn 0.6536 0.7379 0.1683
vn 0.9629 0.2632 0.0602
vn 0.9629 0.2632 -0.0602
vn -0.0000 0.4339 -0.9010
vn -0.0000 0.7818 -0.6235
vn -0.0000 -0.4339 -0.9010
vn -0.0000 -0.0000 -1.0000
vn -0.0000 -0.0000 1.0000
vn -0.0000 -0.4339 0.9010
vn -0.0000 -0.7818 -0.6235
vn 1.0000 -0.0000 -0.0000
vn 0.9621 -0.0006 0.2727
vn 0.9617 -0.1194 0.2466
vn 0.9615 -0.2152 0.1711
vn 0.9613 -0.2686 0.0612
vn 0.9627 0.2113 0.1690
vn 0.9617 -0.1194 -0.2466
vn 0.9615 -0.2152 -0.1711
vn 0.9621 -0.0006 -0.2727
vn 0.9624 0.1173 -0.2449
vn 0.9627 0.2113 -0.1690
vn 0.9624 0.1173 0.2449
vn 0.9613 -0.2686 -0.0612
vn 0.9851 -0.0000 0.1718
vn 0.9851 0.0746 0.1548
vn 0.9851 0.0745 0.1548
vn 0.9851 0.1344 0.1071
vn 0.9851 0.1344 0.1072
vn 0.9851 0.1676 0.0382
vn 0.9851 0.1676 0.0383
vn 0.9851 0.1676 -0.0382
vn 0.9851 0.1676 -0.0383
vn 0.9851 0.1344 -0.1071
vn 0.9851 0.1344 -0.1072
vn 0.9851 0.0746 -0.1548
vn 0.9851 0.0745 -0.1548
vn 0.9851 -0.0000 -0.1718
vn 0.9852 -0.0745 -0.1547
vn 0.9852 -0.1342 -0.1070
vn 0.9852 -0.1673 -0.0382
vn 0.9852 -0.1673 0.0382
vn 0.9852 -0.1342 0.1070
vn 0.9852 -0.0745 0.1547
vn 0.6478 -0.3300 -0.6866
vn 0.6496 0.0007 -0.7603
vn 0.6464 -0.5963 0.4761
vn 0.6456 -0.7445 0.1701
vn 0.6456 -0.7445 -0.1701
vn 0.6464 -0.5963 -0.4761
vn 0.6478 -0.3300 0.6866
vn 0.6496 0.0007 0.7603
vn 0.6514 0.3298 0.6833
vn 0.6528 0.5925 0.4720
vn 0.6528 0.5925 -0.4720
vn 0.6514 0.3298 -0.6833
vn -1.0000 -0.0000 -0.0000
vt 0.000000 1.000000
vt 0.000000 0.500000
vt 0.500000 0.500000
vt 0.500000 1.000000
vt 0.788487 0.080207
vt 0.711514 0.080207
vt 0.717250 0.105962
vt 0.782751 0.105962
vt 0.750000 0.250538
vt 0.602821 0.250538
vt 0.617397 0.314881
vt 0.658236 0.366479
vt 0.717250 0.395114
vt 0.658236 0.134597
vt 0.882604 0.314881
vt 0.841765 0.366479
vt 0.897179 0.250538
vt 0.882604 0.186196
vt 0.841765 0.134597
vt 0.617397 0.186196
vt 0.782751 0.395114
vt 1.002248 0.250000
vt 0.947607 0.250027
vt 0.928038 0.337970
vt 0.977267 0.362261
vt 0.873206 0.408495
vt 0.907274 0.452287
vt 0.793972 0.447634
vt 0.806130 0.502248
vt 0.706028 0.447634
vt 0.693870 0.502248
vt 0.626794 0.408495
vt 0.592726 0.452287
vt 0.571962 0.337970
vt 0.522733 0.362261
vt 0.552393 0.250027
vt 0.497752 0.250000
vt 0.571962 0.162084
vt 0.522733 0.137739
vt 0.626794 0.091559
vt 0.592726 0.047713
vt 0.706028 0.052420
vt 0.693870 -0.002248
vt 0.806130 -0.002248
vt 0.793972 0.052420
vt 0.873206 0.091559
vt 0.907274 0.047713
vt 0.928038 0.162084
vt 0.977267 0.137739
vt 0.905829 0.325717
vt 0.922957 0.250105
vt 0.642163 0.386353
vt 0.711514 0.420003
vt 0.788487 0.420003
vt 0.857837 0.386353
vt 0.594171 0.325717
vt 0.577043 0.250105
vt 0.594171 0.174493
vt 0.642163 0.113858
vt 0.857837 0.113858
vt 0.905829 0.174493
s 1
f 9/1/1 10/2/2 46/3/2 44/4/1
f 6/1/3 1/2/4 51/3/4 18/4/3
f 5/1/5 8/2/6 42/3/6 40/4/5
f 1/1/4 13/2/7 53/3/7 51/4/4
f 50/5/8 52/6/9 19/7/10 30/8/11
f 3/1/12 4/2/13 38/3/13 36/4/12
f 14/1/14 2/2/15 15/3/15 57/4/14
f 2/1/15 3/2/12 36/3/12 15/4/15
f 11/1/16 12/2/17 17/3/17 16/4/16
f 10/1/2 11/2/16 16/3/16 46/4/2
f 8/1/6 9/2/1 44/3/1 42/4/6
f 12/1/17 6/2/3 18/3/3 17/4/17
f 13/1/7 7/2/18 55/3/18 53/4/7
f 4/1/13 5/2/5 40/3/5 38/4/13
f 33/9/19 20/10/20 21/11/21
f 33/9/19 21/11/21 22/12/22
f 33/9/19 22/12/22 23/13/23
f 19/7/10 31/14/24 33/9/19
f 26/15/25 33/9/19 25/16/26
f 27/17/27 33/9/19 26/15/25
f 28/18/28 33/9/19 27/17/27
f 29/19/29 33/9/19 28/18/28
f 30/8/11 33/9/19 29/19/29
f 19/7/10 33/9/19 30/8/11
f 33/9/19 31/14/24 32/20/30
f 33/9/19 32/20/30 20/10/20
f 33/9/19 23/13/23 24/21/31
f 33/9/19 24/21/31 25/16/26
f 16/22/32 47/23/32 45/24/33 46/25/34
f 46/25/34 45/24/33 43/26/35 44/27/36
f 44/27/36 43/26/35 41/28/37 42/29/38
f 42/29/38 41/28/37 39/30/39 40/31/40
f 40/31/40 39/30/39 37/32/41 38/33/42
f 38/33/42 37/32/41 35/34/43 36/35/44
f 36/35/44 35/34/43 34/36/45 15/37/45
f 56/38/46 57/39/46 15/37/45 34/36/45
f 57/39/46 56/38/46 54/40/47 55/41/47
f 55/41/47 54/40/47 52/42/48 53/43/48
f 51/44/49 50/45/49 49/46/50 18/47/50
f 18/47/50 49/46/50 48/48/51 17/49/51
f 17/49/51 48/48/51 47/23/32 16/22/32
f 45/50/52 47/51/53 27/17/27 26/15/25
f 37/52/54 39/53/55 23/13/23 22/12/22
f 41/54/56 43/55/57 25/16/26 24/21/31
f 53/43/48 52/42/48 50/45/49 51/44/49
f 39/53/55 41/54/56 24/21/31 23/13/23
f 35/56/58 37/52/54 22/12/22 21/11/21
f 43/55/57 45/50/52 26/15/25 25/16/26
f 34/57/59 35/56/58 21/11/21 20/10/20
f 56/58/60 34/57/59 20/10/20 32/20/30
f 52/6/9 54/59/61 31/14/24 19/7/10
f 49/60/62 50/5/8 30/8/11 29/19/29
f 54/59/61 56/58/60 32/20/30 31/14/24
f 48/61/63 49/60/62 29/19/29 28/18/28
f 47/51/53 48/61/63 28/18/28 27/17/27
f 7/1/18 14/2/14 57/3/14 55/4/18
f 3/3/64 2/3/64 14/3/64 7/3/64 13/3/64 1/3/64 6/3/64 12/3/64 11/3/64 10/3/64 9/3/64 8/3/64 5/3/64 4/3/64
