# Blender 4.4.3
# www.blender.org
o wheel_saloon
v -0.217500 -0.487091 0.111175
v -0.217500 0.487091 -0.111175
v -0.217500 0.390617 0.311506
v -0.217500 -0.390617 -0.311506
v -0.217500 -0.000000 -0.499617
v -0.217500 0.216776 -0.450140
v -0.217500 0.390617 -0.311506
v -0.217500 0.487091 0.111175
v -0.217500 0.216776 0.450140
v -0.217500 -0.000000 0.499617
v -0.217500 -0.216776 0.450140
v -0.217500 -0.390617 0.311506
v -0.217500 -0.487091 -0.111175
v -0.217500 -0.216776 -0.450140
v 0.189219 0.390617 -0.311506
v 0.189219 0.390617 0.311506
v 0.189219 0.216776 0.450140
v 0.189219 -0.216776 0.450140
v 0.189219 -0.390617 0.311506
v 0.189219 -0.487091 0.111175
v 0.189219 -0.487091 -0.111175
v 0.189219 -0.390617 -0.311506
v 0.226949 -0.324921 -0.074161
v 0.189219 0.000000 -0.499617
v 0.189219 0.216776 -0.450140
v 0.189219 0.487091 -0.111175
v 0.189219 0.487091 0.111175
v 0.189219 -0.000000 0.499617
v 0.189219 -0.216776 -0.450140
v 0.226949 0.000000 -0.333277
v 0.226949 0.144603 -0.300272
v 0.226949 0.260566 -0.207795
v 0.226949 0.324921 -0.074161
v 0.226949 0.324921 0.074161
v 0.226949 0.260566 0.207795
v 0.226949 0.144603 0.300272
v 0.226949 0.000000 0.333277
v 0.226949 -0.144603 0.300272
v 0.226949 -0.260566 0.207795
v 0.226949 -0.324921 0.074161
v 0.226949 -0.260566 -0.207795
v 0.226949 -0.144603 -0.300272
v 0.284185 0.000031 -0.000011
v 0.242059 0.000000 -0.423173
v 0.242059 0.183608 -0.381266
v 0.242059 0.330850 -0.263844
v 0.242059 0.412563 -0.094165
v 0.242059 0.412563 0.094165
v 0.242060 0.330850 0.263844
v 0.242060 0.183608 0.381266
v 0.242060 0.000000 0.423173
v 0.242060 -0.183608 0.381266
v 0.242060 -0.330850 0.263844
v 0.242059 -0.412563 0.094165
v 0.242059 -0.412563 -0.094165
v 0.242059 -0.330850 -0.263844
v 0.242059 -0.183608 -0.381266
vn -0.0000 -0.4339 0.9010
vn -0.0000 -0.7818 0.6235
vn -0.0000 0.7818 -0.6235
vn -0.0000 0.9749 -0.2225
vn -0.0000 -0.9749 0.2225
vn -0.0000 0.9749 0.2225
vn -0.0000 0.7818 0.6235
vn -0.0000 -0.9749 -0.2225
vn -0.0000 0.4339 0.9010
vn -0.0000 -0.0000 -1.0000
vn -0.0000 0.4339 -0.9010
vn -0.0000 -0.4339 -0.9010
vn 0.8226 0.5544 0.1265
vn 0.9636 0.2606 0.0595
vn 0.9636 0.2606 -0.0595
vn 0.8226 0.5544 -0.1265
vn -0.0000 -0.0000 1.0000
vn -0.0000 -0.7818 -0.6235
vn 1.0000 -0.0000 -0.0000
vn 0.9856 -0.0000 -0.1693
vn 0.9856 0.0734 -0.1525
vn 0.9856 0.1323 -0.1055
vn 0.9856 0.1650 -0.0377
vn 0.9856 -0.1650 -0.0377
vn 0.9856 -0.1323 -0.1055
vn 0.9856 0.0734 0.1525
vn 0.9856 0.1323 0.1055
vn 0.9856 -0.0000 0.1693
vn 0.9856 -0.0734 0.1525
vn 0.9856 -0.1323 0.1055
vn 0.9856 -0.1650 0.0377
vn 0.9856 -0.0734 -0.1525
vn 0.9856 0.1650 0.0377
vn 0.8226 0.4446 -0.3545
vn 0.9636 0.2090 -0.1667
vn 0.9636 0.1160 -0.2408
vn 0.8226 0.2467 -0.5123
vn 0.8226 -0.0000 0.5686
vn 0.9636 -0.0000 0.2673
vn 0.9636 0.1160 0.2408
vn 0.8226 0.2467 0.5123
vn 0.8226 -0.2467 0.5123
vn 0.9636 -0.1160 0.2408
vn 0.8226 -0.4446 0.3545
vn 0.9636 -0.2090 0.1667
vn 0.8226 -0.5544 0.1265
vn 0.9636 -0.2606 0.0595
vn 0.8226 -0.2467 -0.5123
vn 0.9636 -0.1160 -0.2408
vn 0.9636 -0.2090 -0.1667
vn 0.8226 -0.4446 -0.3545
vn 0.8226 -0.5544 -0.1265
vn 0.9636 -0.2606 -0.0595
vn 0.9636 0.2090 0.1667
vn 0.8226 0.4446 0.3545
vn 0.9636 -0.0000 -0.2673
vn 0.8226 -0.0000 -0.5686
vn 0.9862 -0.1296 -0.1034
vn 0.9862 -0.1616 -0.0369
vn 0.9862 -0.0000 0.1658
vn 0.9862 0.0719 0.1493
vn 0.9862 0.1616 -0.0369
vn 0.9862 0.1296 -0.1034
vn 0.9862 0.1616 0.0369
vn 0.9862 0.1296 0.1034
vn 0.9862 0.0719 -0.1493
vn 0.9862 -0.1616 0.0369
vn 0.9862 -0.1296 0.1034
vn 0.9862 -0.0719 0.1493
vn 0.9862 -0.0000 -0.1658
vn 0.9862 -0.0719 -0.1493
vn -1.0000 -0.0000 -0.0000
vt 0.000000 1.000000
vt 0.000000 0.500000
vt 0.500000 0.500000
vt 0.500000 1.000000
vt 0.809657 0.499996
vt 0.800899 0.460637
vt 0.703932 0.460637
vt 0.695174 0.499996
vt 0.753426 0.244665
vt 0.577503 0.244665
vt 0.594925 0.322958
vt 0.643740 0.385745
vt 0.714280 0.420588
vt 0.714280 0.068743
vt 0.643740 0.103586
vt 0.911927 0.322958
vt 0.863112 0.385745
vt 0.929349 0.244665
vt 0.911927 0.166372
vt 0.863112 0.103586
vt 0.792573 0.068743
vt 0.594925 0.166372
vt 0.792573 0.420588
vt 0.592027 0.449046
vt 0.616568 0.417482
vt 0.556110 0.339721
vt 0.520648 0.357237
vt 1.009658 0.242754
vt 0.970299 0.242754
vt 0.948721 0.339721
vt 0.984183 0.357237
vt 0.984183 0.128270
vt 0.948721 0.145787
vt 0.912804 0.036461
vt 0.888263 0.068025
vt 0.809657 -0.014489
vt 0.800899 0.024870
vt 0.520648 0.128270
vt 0.556110 0.145787
vt 0.616567 0.068025
vt 0.592027 0.036461
vt 0.695174 -0.014489
vt 0.703932 0.024871
vt 0.888263 0.417482
vt 0.912804 0.449046
vt 0.534532 0.242754
vt 0.495173 0.242754
vt 0.870328 0.394414
vt 0.794498 0.431871
vt 0.563298 0.242754
vt 0.582026 0.158588
vt 0.794498 0.053636
vt 0.870328 0.091093
vt 0.710333 0.053636
vt 0.634503 0.091093
vt 0.922804 0.158588
vt 0.710333 0.431871
vt 0.634503 0.394414
vt 0.582026 0.326919
vt 0.941533 0.242754
vt 0.922804 0.326919
s 1
f 11/1/1 12/2/2 19/3/2 18/4/1
f 7/1/3 2/2/4 26/3/4 15/4/3
f 12/1/2 1/2/5 20/3/5 19/4/2
f 8/1/6 3/2/7 16/3/7 27/4/6
f 1/1/5 13/2/8 21/3/8 20/4/5
f 2/1/4 8/2/6 27/3/6 26/4/4
f 3/1/7 9/2/9 17/3/9 16/4/7
f 5/1/10 6/2/11 25/3/11 24/4/10
f 6/1/11 7/2/3 15/3/3 25/4/11
f 14/1/12 5/2/10 24/3/10 29/4/12
f 27/5/13 48/6/14 47/7/15 26/8/16
f 10/1/17 11/2/1 18/3/1 28/4/17
f 13/1/8 4/2/18 22/3/18 21/4/8
f 9/1/9 10/2/17 28/3/17 17/4/9
f 43/9/19 30/10/20 31/11/21
f 43/9/19 31/11/21 32/12/22
f 43/9/19 32/12/22 33/13/23
f 23/14/24 41/15/25 43/9/19
f 36/16/26 43/9/19 35/17/27
f 37/18/28 43/9/19 36/16/26
f 38/19/29 43/9/19 37/18/28
f 39/20/30 43/9/19 38/19/29
f 40/21/31 43/9/19 39/20/30
f 23/14/24 43/9/19 40/21/31
f 43/9/19 41/15/25 42/22/32
f 43/9/19 42/22/32 30/10/20
f 43/9/19 33/13/23 34/23/33
f 43/9/19 34/23/33 35/17/27
f 15/24/34 46/25/35 45/26/36 25/27/37
f 28/28/38 51/29/39 50/30/40 17/31/41
f 18/32/42 52/33/43 51/29/39 28/28/38
f 19/34/44 53/35/45 52/33/43 18/32/42
f 20/36/46 54/37/47 53/35/45 19/34/44
f 29/38/48 57/39/49 56/40/50 22/41/51
f 21/42/52 55/43/53 54/37/47 20/36/46
f 17/31/41 50/30/40 49/44/54 16/45/55
f 25/27/37 45/26/36 44/46/56 24/47/57
f 57/39/49 29/38/48 24/47/57 44/46/56
f 16/45/55 49/44/54 48/6/14 27/5/13
f 48/6/14 49/44/54 35/48/58 34/49/59
f 22/41/51 56/40/50 55/43/53 21/42/52
f 26/8/16 47/7/15 46/25/35 15/24/34
f 57/39/49 44/46/56 30/50/60 42/51/61
f 53/35/45 54/37/47 40/52/62 39/53/63
f 54/37/47 55/43/53 23/54/64 40/52/62
f 55/43/53 56/40/50 41/55/65 23/54/64
f 52/33/43 53/35/45 39/53/63 38/56/66
f 56/40/50 57/39/49 42/51/61 41/55/65
f 47/7/15 48/6/14 34/49/59 33/57/67
f 46/25/35 47/7/15 33/57/67 32/58/68
f 44/46/56 45/26/36 31/59/69 30/50/60
f 50/30/40 51/29/39 37/60/70 36/61/71
f 45/26/36 46/25/35 32/58/68 31/59/69
f 49/44/54 50/30/40 36/61/71 35/48/58
f 51/29/39 52/33/43 38/56/66 37/60/70
f 4/1/18 14/2/12 29/3/12 22/4/18
f 6/3/72 5/3/72 14/3/72 4/3/72 13/3/72 1/3/72 12/3/72 11/3/72 10/3/72 9/3/72 3/3/72 8/3/72 2/3/72 7/3/72
