# Blender 4.4.3
# www.blender.org
o wheel_rim
v -0.217500 0.216776 -0.450140
v -0.217500 0.487091 0.111175
v -0.217500 0.390617 0.311506
v -0.217500 -0.487091 0.111175
v -0.217500 0.000000 -0.499618
v -0.217500 0.390617 -0.311507
v -0.217500 0.487091 -0.111176
v -0.217500 0.216776 0.450139
v -0.217500 0.000000 0.499617
v -0.217500 -0.216776 0.450139
v -0.217500 -0.390617 0.311506
v -0.217500 -0.487091 -0.111176
v -0.217500 -0.390617 -0.311507
v -0.217500 -0.216776 -0.450140
v 0.171859 0.000000 -0.499618
v 0.171859 0.390617 -0.311507
v 0.171859 0.487091 -0.111176
v 0.171859 0.487091 0.111175
v 0.171859 0.390617 0.311506
v 0.171859 0.000000 0.499617
v 0.171859 -0.216776 0.450139
v 0.171859 -0.390617 0.311506
v 0.171859 -0.487091 0.111175
v 0.171859 -0.487091 -0.111176
v 0.171859 -0.216776 -0.450140
v 0.208508 -0.000576 -0.448032
v 0.208508 0.193761 -0.403676
v 0.208508 0.349607 -0.279393
v 0.208508 0.436095 -0.099799
v 0.208508 0.436095 0.099535
v 0.208508 0.349607 0.279129
v 0.208508 0.193761 0.403412
v 0.208508 -0.000576 0.447768
v 0.208508 -0.194912 0.403412
v 0.208508 -0.350758 0.279129
v 0.208508 -0.437246 0.099535
v 0.208508 -0.437246 -0.099799
v 0.208508 -0.350758 -0.279393
v 0.208508 -0.194912 -0.403676
v 0.221826 -0.367554 -0.081540
v 0.171859 0.216776 -0.450140
v 0.171859 0.216776 0.450139
v 0.171859 -0.390617 -0.311507
v 0.221826 0.000352 -0.374936
v 0.221826 0.164086 -0.337565
v 0.221826 0.295390 -0.232853
v 0.221826 0.368259 -0.081540
v 0.221826 0.368259 0.086404
v 0.221826 0.295390 0.237717
v 0.221826 0.164086 0.342429
v 0.221826 0.000352 0.379800
v 0.221826 -0.163382 0.342429
v 0.221826 -0.294686 0.237717
v 0.221826 -0.367554 0.086404
v 0.221826 -0.294686 -0.232853
v 0.221826 -0.163382 -0.337565
v 0.122332 0.000352 0.002432
vn -0.0000 0.7818 -0.6235
vn -0.0000 0.9749 -0.2225
vn -0.0000 -0.7818 0.6235
vn -0.0000 -0.4339 0.9010
vn -0.0000 -0.0000 -1.0000
vn -0.0000 -0.4339 -0.9010
vn -0.0000 0.7818 0.6235
vn -0.0000 0.9749 0.2225
vn -0.0000 0.4339 0.9010
vn -0.0000 0.4339 -0.9010
vn 0.9099 0.4045 0.0920
vn 0.8187 0.5599 -0.1275
vn 0.8190 0.5594 0.1277
vn -0.0000 -0.7818 -0.6235
vn -0.0000 -0.9749 -0.2225
vn -0.0000 -0.0000 1.0000
vn -0.0000 -0.9749 0.2225
vn 0.8152 -0.2507 0.5221
vn 0.9084 -0.0007 0.4181
vn 0.8166 0.0006 0.5772
vn 0.9088 0.1807 0.3760
vn 0.8178 0.2501 0.5183
vn 0.9105 0.3228 -0.2584
vn 0.8166 0.2510 -0.5198
vn 0.8178 0.4502 -0.3584
vn 0.8187 0.4491 0.3578
vn 0.9094 0.3253 0.2594
vn 0.9103 0.4034 -0.0927
vn 0.9105 0.1787 -0.3729
vn 0.8152 0.0006 -0.5792
vn 0.8139 -0.2516 -0.5236
vn 0.9102 -0.0006 -0.4141
vn 0.9098 -0.1804 -0.3738
vn 0.8131 -0.5675 0.1298
vn 0.9082 -0.3278 0.2604
vn 0.8139 -0.4539 0.3626
vn 0.8131 -0.4550 -0.3632
vn 0.9093 -0.3254 -0.2595
vn 0.8128 -0.5680 -0.1296
vn 1.0000 0.0034 0.0072
vn 1.0000 0.0002 0.0077
vn 0.9084 -0.4078 0.0925
vn 0.9082 -0.1824 0.3768
vn 1.0000 0.0056 0.0049
vn 0.9088 -0.4068 -0.0931
vn 1.0000 0.0059 0.0020
vn 1.0000 0.0046 -0.0003
vn 1.0000 0.0026 -0.0012
vn 1.0000 0.0010 -0.0008
vn 1.0000 0.0003 -0.0002
vn 1.0000 -0.0007 -0.0000
vn 1.0000 -0.0019 0.0002
vn 1.0000 -0.0033 0.0015
vn 1.0000 -0.0037 0.0039
vn 1.0000 -0.0025 0.0064
vn 1.0000 -0.0000 -0.0000
vn 1.0000 -0.0000 0.0001
vn -1.0000 -0.0000 -0.0000
vt 0.000000 1.000000
vt 0.500000 0.500000
vt 0.500000 1.000000
vt 0.000000 0.500000
vt 0.799756 0.473602
vt 0.694425 0.499750
vt 0.805575 0.499750
vt 0.975017 0.138851
vt 0.973832 0.249705
vt 0.999750 0.250000
vt 0.951659 0.349349
vt 0.975017 0.361149
vt 0.610336 0.429257
vt 0.524983 0.361149
vt 0.594283 0.450284
vt 0.905717 0.450284
vt 0.889532 0.429257
vt 0.700112 0.473602
vt 0.548210 0.349349
vt 0.500250 0.250000
vt 0.524983 0.138851
vt 0.526037 0.249705
vt 0.548210 0.150061
vt 0.805575 0.000250
vt 0.889532 0.070153
vt 0.905717 0.049716
vt 0.594283 0.049716
vt 0.610336 0.070153
vt 0.694425 0.000250
vt 0.572535 0.163709
vt 0.553294 0.250180
vt 0.799756 0.025807
vt 0.951659 0.150061
vt 0.626449 0.094365
vt 0.700112 0.025807
vt 0.704357 0.055882
vt 0.790828 0.055882
vt 0.868736 0.094365
vt 0.922650 0.163709
vt 0.941892 0.250180
vt 0.868736 0.405996
vt 0.790828 0.444479
vt 0.704357 0.444479
vt 0.626449 0.405996
vt 0.572535 0.336652
vt 0.745177 0.253804
vt 0.922650 0.336652
s 1
f 6/1/1 17/2/2 16/3/1
f 11/4/3 21/3/4 10/1/4
f 5/4/5 25/3/6 14/1/6
f 3/4/7 18/3/8 2/1/8
f 3/1/7 42/2/9 19/3/7
f 2/4/8 17/3/2 7/1/2
f 5/1/5 41/2/10 15/3/5
f 30/5/11 17/6/12 18/7/13
f 13/4/14 24/3/15 12/1/15
f 10/4/4 20/3/16 9/1/16
f 4/4/17 22/3/3 11/1/3
f 6/4/1 41/3/10 1/1/10
f 12/4/15 23/3/17 4/1/17
f 8/1/9 20/2/16 42/3/9
f 21/8/18 33/9/19 20/10/20
f 20/10/20 32/11/21 42/12/22
f 28/13/23 41/14/24 16/15/25
f 19/16/26 30/5/11 18/7/13
f 42/12/22 31/17/27 19/16/26
f 29/18/28 16/15/25 17/6/12
f 27/19/29 15/20/30 41/14/24
f 25/21/31 26/22/32 39/23/33
f 23/24/34 35/25/35 22/26/36
f 39/23/33 43/27/37 25/21/31
f 38/28/38 24/29/39 43/27/37
f 56/30/40 26/22/32 44/31/41
f 24/29/39 36/32/42 23/24/34
f 22/26/36 34/33/43 21/8/18
f 55/34/44 37/35/45 38/28/38
f 40/36/46 36/32/42 37/35/45
f 54/37/47 35/25/35 36/32/42
f 53/38/48 34/33/43 35/25/35
f 52/39/49 33/9/19 34/33/43
f 51/40/50 32/11/21 33/9/19
f 32/11/21 49/41/51 31/17/27
f 31/17/27 48/42/52 30/5/11
f 30/5/11 47/43/53 29/18/28
f 29/18/28 46/44/54 28/13/23
f 28/13/23 45/45/55 27/19/29
f 27/19/29 44/31/41 26/22/32
f 56/30/40 38/28/38 39/23/33
f 44/31/41 45/45/55 57/46/56
f 45/45/55 46/44/54 57/46/56
f 46/44/54 47/43/53 57/46/56
f 47/43/53 48/42/52 57/46/56
f 48/42/52 49/41/51 57/46/56
f 49/41/51 50/47/57 57/46/56
f 50/47/57 51/40/50 57/46/56
f 51/40/50 52/39/49 57/46/56
f 52/39/49 53/38/48 57/46/56
f 53/38/48 54/37/47 57/46/56
f 54/37/47 40/36/46 57/46/56
f 40/36/46 55/34/44 57/46/56
f 55/34/44 56/30/40 57/46/56
f 56/30/40 44/31/41 57/46/56
f 14/4/6 43/3/14 13/1/14
f 13/2/58 10/2/58 2/2/58
f 6/1/1 7/4/2 17/2/2
f 11/4/3 22/2/3 21/3/4
f 5/4/5 15/2/5 25/3/6
f 3/4/7 19/2/7 18/3/8
f 3/1/7 8/4/9 42/2/9
f 2/4/8 18/2/8 17/3/2
f 5/1/5 1/4/10 41/2/10
f 30/5/11 29/18/28 17/6/12
f 13/4/14 43/2/14 24/3/15
f 10/4/4 21/2/4 20/3/16
f 4/4/17 23/2/17 22/3/3
f 6/4/1 16/2/1 41/3/10
f 12/4/15 24/2/15 23/3/17
f 8/1/9 9/4/16 20/2/16
f 21/8/18 34/33/43 33/9/19
f 20/10/20 33/9/19 32/11/21
f 28/13/23 27/19/29 41/14/24
f 19/16/26 31/17/27 30/5/11
f 42/12/22 32/11/21 31/17/27
f 29/18/28 28/13/23 16/15/25
f 27/19/29 26/22/32 15/20/30
f 25/21/31 15/20/30 26/22/32
f 23/24/34 36/32/42 35/25/35
f 39/23/33 38/28/38 43/27/37
f 38/28/38 37/35/45 24/29/39
f 56/30/40 39/23/33 26/22/32
f 24/29/39 37/35/45 36/32/42
f 22/26/36 35/25/35 34/33/43
f 55/34/44 40/36/46 37/35/45
f 40/36/46 54/37/47 36/32/42
f 54/37/47 53/38/48 35/25/35
f 53/38/48 52/39/49 34/33/43
f 52/39/49 51/40/50 33/9/19
f 51/40/50 50/47/57 32/11/21
f 32/11/21 50/47/57 49/41/51
f 31/17/27 49/41/51 48/42/52
f 30/5/11 48/42/52 47/43/53
f 29/18/28 47/43/53 46/44/54
f 28/13/23 46/44/54 45/45/55
f 27/19/29 45/45/55 44/31/41
f 56/30/40 55/34/44 38/28/38
f 14/4/6 25/2/6 43/3/14
f 6/2/58 1/2/58 5/2/58
f 5/2/58 14/2/58 13/2/58
f 13/2/58 12/2/58 4/2/58
f 4/2/58 11/2/58 10/2/58
f 10/2/58 9/2/58 8/2/58
f 8/2/58 3/2/58 2/2/58
f 2/2/58 7/2/58 6/2/58
f 6/2/58 5/2/58 13/2/58
f 13/2/58 4/2/58 10/2/58
f 10/2/58 8/2/58 2/2/58
f 2/2/58 6/2/58 13/2/58
