# Blender 4.5.1 LTS
# www.blender.org
o a09_glasS
v -9.647718 -68.627449 32.359177
v 0.000000 38.128616 30.488220
v -5.521896 37.943138 30.496124
v -11.468887 37.378300 30.479111
v -16.745672 36.544456 30.443251
v -22.024469 35.270599 30.450813
v -26.216681 22.696964 36.969822
v -23.989210 12.673540 42.653465
v -27.849739 32.936005 30.500923
v -27.633186 33.032375 30.495588
v -17.115578 9.865477 45.073574
v -22.756886 7.572675 45.221893
v -27.294710 28.442440 33.470436
v -19.568386 -61.701962 37.768463
v -24.211008 17.953461 39.929756
v -5.917879 11.206195 45.512459
v -16.486866 -56.802597 44.243652
v -21.812836 8.917995 44.765373
v -22.137091 9.085777 44.635078
v -11.089607 10.754765 45.373669
v -25.140720 17.712332 39.878784
v -23.059734 12.916549 42.699837
v -26.161793 28.251692 33.820976
v -25.284004 22.923975 37.033585
v -27.572224 30.681122 32.061035
v -5.480455 36.712372 31.171173
v -11.367313 36.163181 31.177120
v -16.601040 35.353210 31.181366
v -21.861307 34.066799 31.197681
v -26.748585 33.411465 30.487270
v 0.000000 36.903202 31.171829
v 0.000000 11.444299 45.599201
v 0.000000 13.772932 44.416260
v -3.695474 13.249181 44.569706
v -3.011556 13.591061 44.415573
v -5.282625 11.481513 45.412918
v -4.873820 -69.888725 31.539928
v -23.897936 -65.754776 31.023598
v -21.091286 -54.752937 44.976692
v -21.783985 -57.701252 41.323677
v -7.932538 -58.146679 44.696987
v -17.763903 -56.905151 43.735027
v -20.552696 -65.960419 32.303951
v 0.000000 -59.482700 43.946297
v -4.774242 -58.372757 44.910088
v -25.395489 32.522472 31.400452
v -24.828167 33.029148 31.215744
v -26.066256 30.973927 32.214935
v -26.184776 30.292919 32.606606
v -5.537466 -58.397396 44.834549
v -7.134531 -57.041718 45.916138
v -14.543732 -68.489670 31.356781
v -19.289574 -67.332375 31.207790
v 0.000000 10.327906 46.168594
v -15.828643 -55.810593 45.436123
v -19.120598 -66.622253 32.114380
v -18.790751 -58.632774 41.525108
v -20.191483 -64.537300 34.221153
v 0.000000 -69.442566 32.480255
v -8.486837 -58.003628 44.758419
v -5.102515 -59.369415 43.878849
v -18.488104 -57.612701 42.739616
v -4.526735 -59.203899 44.088963
v -4.760019 -58.995270 44.286774
v 0.000000 -59.303234 44.127224
v -9.726375 -69.302719 31.453339
v -17.063164 8.711087 45.621452
v -11.000676 9.627211 45.937313
v 0.000000 -57.459694 46.068489
v -4.806977 -57.290146 46.002998
v -14.430074 -67.816437 32.259720
v -4.829866 -69.211761 32.446869
v -4.650549 -59.146931 44.140282
v -22.580359 -60.695377 37.536819
v -10.176564 -57.809460 44.695557
v -4.882219 -58.427746 44.846092
v -5.205222 10.148704 46.103287
v -23.373249 -63.774899 33.646793
v 0.000000 -70.121399 31.571136
v -10.137194 -56.721241 45.804081
v -23.838886 34.658401 30.459913
v -5.386775 -59.302364 43.919807
v -20.316856 -66.231171 32.079723
v 0.000000 -58.486858 44.937309
v 9.647718 -68.627449 32.359177
v 5.521896 37.943138 30.496124
v 11.468887 37.378300 30.479111
v 16.745672 36.544456 30.443251
v 22.024469 35.270599 30.450813
v 26.216681 22.696964 36.969822
v 23.989210 12.673540 42.653465
v 27.849739 32.936005 30.500923
v 27.633186 33.032375 30.495588
v 17.115578 9.865477 45.073574
v 22.756886 7.572675 45.221893
v 27.294710 28.442440 33.470436
v 19.568386 -61.701962 37.768463
v 24.211008 17.953461 39.929756
v 5.917879 11.206195 45.512459
v 16.486866 -56.802597 44.243652
v 21.812836 8.917995 44.765373
v 22.137091 9.085777 44.635078
v 11.089607 10.754765 45.373669
v 25.140720 17.712332 39.878784
v 23.059734 12.916549 42.699837
v 26.161793 28.251692 33.820976
v 25.284004 22.923975 37.033585
v 27.572224 30.681122 32.061035
v 5.480455 36.712372 31.171173
v 11.367313 36.163181 31.177120
v 16.601040 35.353210 31.181366
v 21.861307 34.066799 31.197681
v 26.748585 33.411465 30.487270
v 3.695474 13.249181 44.569706
v 3.011556 13.591061 44.415573
v 5.282625 11.481513 45.412918
v 4.873820 -69.888725 31.539928
v 23.897936 -65.754776 31.023598
v 21.091286 -54.752937 44.976692
v 21.783985 -57.701252 41.323677
v 7.932538 -58.146679 44.696987
v 17.763903 -56.905151 43.735027
v 20.552696 -65.960419 32.303951
v 4.774242 -58.372757 44.910088
v 25.395489 32.522472 31.400452
v 24.828167 33.029148 31.215744
v 26.066256 30.973927 32.214935
v 26.184776 30.292919 32.606606
v 5.537466 -58.397396 44.834549
v 7.134531 -57.041718 45.916138
v 14.543732 -68.489670 31.356781
v 19.289574 -67.332375 31.207790
v 15.828643 -55.810593 45.436123
v 19.120598 -66.622253 32.114380
v 18.790751 -58.632774 41.525108
v 20.191483 -64.537300 34.221153
v 8.486837 -58.003628 44.758419
v 5.102515 -59.369415 43.878849
v 18.488104 -57.612701 42.739616
v 4.526735 -59.203899 44.088963
v 4.760019 -58.995270 44.286774
v 9.726375 -69.302719 31.453339
v 17.063164 8.711087 45.621452
v 11.000676 9.627211 45.937313
v 4.806977 -57.290146 46.002998
v 14.430074 -67.816437 32.259720
v 4.829866 -69.211761 32.446869
v 4.650549 -59.146931 44.140282
v 22.580359 -60.695377 37.536819
v 10.176564 -57.809460 44.695557
v 4.882219 -58.427746 44.846092
v 5.205222 10.148704 46.103287
v 23.373249 -63.774899 33.646793
v 10.137194 -56.721241 45.804081
v 23.838886 34.658401 30.459913
v 5.386775 -59.302364 43.919807
v 20.316856 -66.231171 32.079723
vn -0.2314 -0.7152 0.6595
vn -0.1883 -0.7034 0.6854
vn -0.1758 -0.7032 0.6889
vn -0.2215 0.5364 0.8143
vn -0.1957 0.5197 0.8316
vn -0.2093 0.5285 0.8227
vn -0.2808 -0.7415 0.6094
vn -0.2854 -0.7320 0.6187
vn -0.2819 -0.7408 0.6097
vn -0.0000 0.4568 0.8896
vn -0.0416 0.4578 0.8881
vn -0.0000 0.4633 0.8862
vn -0.1241 0.4208 0.8986
vn -0.0875 0.4387 0.8944
vn -0.0826 0.4390 0.8947
vn -0.1578 0.4301 0.8889
vn -0.1668 0.4577 0.8733
vn -0.1597 0.4307 0.8883
vn -0.1753 0.4940 0.8516
vn -0.1756 0.4775 0.8609
vn -0.1737 0.4781 0.8609
vn -0.1861 0.5181 0.8348
vn -0.0000 0.4821 0.8761
vn -0.0311 0.4854 0.8738
vn -0.0306 0.4834 0.8749
vn -0.0637 0.4957 0.8662
vn -0.0584 0.4946 0.8672
vn -0.1011 0.5081 0.8554
vn -0.0979 0.5096 0.8548
vn -0.1431 0.5062 0.8504
vn -0.1458 0.5111 0.8471
vn -0.1780 0.5032 0.8456
vn -0.1910 0.5162 0.8349
vn -0.1669 0.4570 0.8737
vn -0.0533 0.4495 0.8917
vn -0.1470 0.4114 0.8995
vn -0.1280 0.4209 0.8981
vn -0.1520 0.4121 0.8984
vn -0.1494 0.4129 0.8984
vn -0.0399 0.4321 0.9010
vn -0.0746 -0.7972 0.5991
vn -0.1260 -0.7898 0.6003
vn -0.0745 -0.7972 0.5991
vn -0.1772 -0.7738 0.6082
vn -0.1261 -0.7898 0.6003
vn -0.2385 -0.7506 0.6162
vn -0.1771 -0.7738 0.6082
vn -0.2831 -0.7208 0.6327
vn -0.2673 -0.7212 0.6391
vn -0.2858 -0.7304 0.6204
vn -0.0000 -0.8008 0.5989
vn -0.1313 -0.7067 0.6953
vn -0.2422 -0.7205 0.6497
vn -0.2120 -0.7132 0.6681
vn -0.2670 -0.7213 0.6391
vn -0.2340 -0.7489 0.6200
vn -0.2747 -0.7416 0.6120
vn -0.0625 -0.7084 0.7030
vn -0.0000 -0.7257 0.6880
vn -0.0588 -0.7103 0.7014
vn -0.0489 -0.7174 0.6950
vn -0.0491 -0.7153 0.6971
vn -0.0294 -0.7292 0.6837
vn -0.0000 -0.7324 0.6809
vn -0.0542 -0.7117 0.7004
vn -0.1913 0.5241 0.8299
vn -0.1798 0.5063 0.8434
vn -0.1806 0.4975 0.8485
vn -0.0904 -0.7051 0.7033
vn -0.1119 -0.7012 0.7041
vn -0.0746 -0.7128 0.6974
vn -0.1061 -0.7031 0.7031
vn -0.1324 -0.7067 0.6950
vn -0.1033 -0.6998 0.7068
vn -0.0284 0.4561 0.8895
vn 0.2314 -0.7152 0.6595
vn 0.1758 -0.7032 0.6889
vn 0.1883 -0.7034 0.6854
vn 0.1957 0.5197 0.8316
vn 0.2215 0.5364 0.8143
vn 0.2093 0.5285 0.8227
vn 0.2854 -0.7320 0.6187
vn 0.2808 -0.7415 0.6094
vn 0.2819 -0.7408 0.6097
vn 0.0416 0.4578 0.8881
vn 0.0533 0.4495 0.8917
vn 0.0875 0.4387 0.8944
vn 0.1241 0.4208 0.8986
vn 0.0826 0.4390 0.8947
vn 0.1578 0.4301 0.8889
vn 0.1668 0.4577 0.8733
vn 0.1669 0.4570 0.8737
vn 0.1756 0.4775 0.8609
vn 0.1753 0.4940 0.8516
vn 0.1737 0.4781 0.8609
vn 0.1861 0.5181 0.8348
vn 0.0311 0.4854 0.8738
vn 0.0306 0.4834 0.8749
vn 0.0637 0.4957 0.8662
vn 0.0584 0.4946 0.8672
vn 0.1011 0.5081 0.8554
vn 0.0979 0.5096 0.8548
vn 0.1431 0.5062 0.8504
vn 0.1458 0.5111 0.8471
vn 0.1780 0.5032 0.8456
vn 0.1910 0.5162 0.8349
vn 0.1280 0.4209 0.8981
vn 0.1470 0.4114 0.8995
vn 0.1520 0.4121 0.8984
vn 0.1597 0.4307 0.8883
vn 0.0399 0.4321 0.9010
vn 0.0746 -0.7972 0.5991
vn 0.1260 -0.7898 0.6003
vn 0.1261 -0.7898 0.6003
vn 0.1772 -0.7738 0.6082
vn 0.2385 -0.7506 0.6162
vn 0.2340 -0.7489 0.6200
vn 0.2831 -0.7208 0.6327
vn 0.2673 -0.7212 0.6391
vn 0.2670 -0.7213 0.6391
vn 0.2858 -0.7304 0.6204
vn 0.0745 -0.7972 0.5991
vn 0.1313 -0.7067 0.6953
vn 0.2422 -0.7205 0.6497
vn 0.2120 -0.7132 0.6681
vn 0.1494 0.4129 0.8984
vn 0.2747 -0.7416 0.6120
vn 0.0625 -0.7084 0.7030
vn 0.0489 -0.7174 0.6950
vn 0.0294 -0.7292 0.6837
vn 0.0491 -0.7153 0.6971
vn 0.0542 -0.7117 0.7004
vn 0.1913 0.5241 0.8299
vn 0.1806 0.4975 0.8485
vn 0.1798 0.5063 0.8434
vn 0.0588 -0.7103 0.7014
vn 0.0738 -0.7019 0.7084
vn 0.0904 -0.7051 0.7033
vn 0.1119 -0.7012 0.7041
vn 0.0746 -0.7128 0.6974
vn 0.1061 -0.7031 0.7031
vn 0.1324 -0.7067 0.6950
vn 0.1033 -0.6998 0.7068
vn 0.0305 0.4551 0.8899
vn 0.0284 0.4561 0.8895
vn -0.0000 0.4838 0.8752
vn -0.0738 -0.7019 0.7084
vn -0.0000 0.4559 0.8900
vn -0.0305 0.4551 0.8899
vn 0.1771 -0.7738 0.6082
vt 0.000000 0.000000
s 1
f 39/1/1 17/1/2 55/1/3
f 10/1/4 25/1/5 30/1/6
f 43/1/7 78/1/8 38/1/9
f 32/1/10 77/1/11 54/1/12
f 11/1/13 68/1/14 20/1/15
f 22/1/16 21/1/17 8/1/18
f 23/1/19 7/1/20 24/1/21
f 48/1/22 30/1/6 25/1/5
f 31/1/23 3/1/24 26/1/25
f 26/1/25 4/1/26 27/1/27
f 27/1/27 5/1/28 28/1/29
f 28/1/29 6/1/30 29/1/31
f 29/1/31 81/1/32 47/1/33
f 24/1/21 21/1/17 15/1/34
f 16/1/35 68/1/14 77/1/11
f 18/1/36 67/1/37 11/1/13
f 19/1/38 8/1/18 12/1/39
f 32/1/10 36/1/40 16/1/35
f 72/1/41 66/1/42 37/1/43
f 71/1/44 66/1/42 1/1/45
f 71/1/44 53/1/46 52/1/47
f 14/1/48 40/1/49 74/1/48
f 58/1/50 74/1/48 78/1/8
f 59/1/51 37/1/43 79/1/51
f 75/1/52 55/1/3 17/1/2
f 62/1/53 42/1/54 39/1/1
f 17/1/2 39/1/1 42/1/54
f 62/1/53 40/1/49 57/1/55
f 12/1/39 18/1/36 19/1/38
f 56/1/56 83/1/57 53/1/46
f 83/1/57 38/1/9 53/1/46
f 45/1/58 69/1/59 70/1/60
f 73/1/61 61/1/62 63/1/63
f 63/1/63 44/1/64 65/1/64
f 61/1/62 73/1/61 64/1/65
f 30/1/6 46/1/66 47/1/33
f 30/1/6 47/1/33 81/1/32
f 23/1/19 49/1/67 13/1/68
f 50/1/69 45/1/58 70/1/60
f 41/1/70 82/1/71 50/1/69
f 60/1/72 80/1/73 75/1/52
f 64/1/65 50/1/69 82/1/71
f 49/1/67 25/1/5 13/1/68
f 41/1/70 51/1/74 60/1/72
f 35/1/75 36/1/40 32/1/10
f 119/1/76 133/1/77 100/1/78
f 108/1/79 93/1/80 113/1/81
f 153/1/82 123/1/83 118/1/84
f 32/1/10 152/1/85 99/1/86
f 144/1/87 94/1/88 103/1/89
f 105/1/90 104/1/91 98/1/92
f 90/1/93 106/1/94 107/1/95
f 113/1/81 127/1/96 108/1/79
f 86/1/97 31/1/23 109/1/98
f 87/1/99 109/1/98 110/1/100
f 88/1/101 110/1/100 111/1/102
f 89/1/103 111/1/102 112/1/104
f 155/1/105 112/1/104 126/1/106
f 104/1/91 107/1/95 98/1/92
f 99/1/86 144/1/87 103/1/89
f 143/1/107 101/1/108 94/1/88
f 102/1/109 91/1/110 105/1/90
f 32/1/10 99/1/86 116/1/111
f 147/1/112 142/1/113 85/1/114
f 142/1/113 146/1/115 85/1/114
f 146/1/115 132/1/116 134/1/117
f 97/1/118 120/1/119 135/1/120
f 136/1/121 149/1/118 97/1/118
f 59/1/51 117/1/122 147/1/112
f 133/1/77 150/1/123 100/1/78
f 139/1/124 119/1/76 122/1/125
f 100/1/78 122/1/125 119/1/76
f 120/1/119 139/1/124 135/1/120
f 95/1/126 102/1/109 101/1/108
f 134/1/117 132/1/116 157/1/127
f 157/1/127 118/1/84 123/1/83
f 124/1/128 69/1/59 84/1/59
f 148/1/129 140/1/130 138/1/131
f 44/1/64 140/1/130 65/1/64
f 138/1/131 141/1/132 148/1/129
f 113/1/81 126/1/106 125/1/133
f 113/1/81 155/1/105 126/1/106
f 106/1/94 96/1/134 128/1/135
f 145/1/136 151/1/137 129/1/138
f 121/1/139 129/1/138 156/1/140
f 137/1/141 154/1/142 130/1/143
f 156/1/140 151/1/137 141/1/132
f 128/1/135 108/1/79 127/1/96
f 121/1/139 130/1/143 129/1/138
f 32/1/10 114/1/144 115/1/145
f 10/1/4 9/1/4 25/1/5
f 43/1/7 58/1/50 78/1/8
f 32/1/10 16/1/35 77/1/11
f 11/1/13 67/1/37 68/1/14
f 22/1/16 15/1/34 21/1/17
f 23/1/19 13/1/68 7/1/20
f 48/1/22 46/1/66 30/1/6
f 31/1/23 2/1/146 3/1/24
f 26/1/25 3/1/24 4/1/26
f 27/1/27 4/1/26 5/1/28
f 28/1/29 5/1/28 6/1/30
f 29/1/31 6/1/30 81/1/32
f 24/1/21 7/1/20 21/1/17
f 16/1/35 20/1/15 68/1/14
f 18/1/36 12/1/39 67/1/37
f 19/1/38 22/1/16 8/1/18
f 72/1/41 1/1/45 66/1/42
f 71/1/44 52/1/47 66/1/42
f 71/1/44 56/1/56 53/1/46
f 14/1/48 57/1/55 40/1/49
f 58/1/50 14/1/48 74/1/48
f 59/1/51 72/1/41 37/1/43
f 75/1/52 80/1/73 55/1/3
f 62/1/53 39/1/1 40/1/49
f 83/1/57 43/1/7 38/1/9
f 45/1/58 84/1/59 69/1/59
f 63/1/63 61/1/62 44/1/64
f 70/1/60 51/1/74 50/1/69
f 50/1/69 76/1/147 45/1/58
f 60/1/72 51/1/74 80/1/73
f 82/1/71 61/1/62 64/1/65
f 64/1/65 76/1/147 50/1/69
f 49/1/67 48/1/22 25/1/5
f 41/1/70 50/1/69 51/1/74
f 32/1/10 33/1/148 35/1/75
f 35/1/75 34/1/149 36/1/40
f 108/1/79 92/1/80 93/1/80
f 153/1/82 136/1/121 123/1/83
f 32/1/10 54/1/12 152/1/85
f 144/1/87 143/1/107 94/1/88
f 105/1/90 91/1/110 104/1/91
f 90/1/93 96/1/134 106/1/94
f 113/1/81 125/1/133 127/1/96
f 86/1/97 2/1/146 31/1/23
f 87/1/99 86/1/97 109/1/98
f 88/1/101 87/1/99 110/1/100
f 89/1/103 88/1/101 111/1/102
f 155/1/105 89/1/103 112/1/104
f 104/1/91 90/1/93 107/1/95
f 99/1/86 152/1/85 144/1/87
f 143/1/107 95/1/126 101/1/108
f 102/1/109 95/1/126 91/1/110
f 147/1/112 117/1/122 142/1/113
f 142/1/113 131/1/150 146/1/115
f 146/1/115 131/1/150 132/1/116
f 97/1/118 149/1/118 120/1/119
f 136/1/121 153/1/82 149/1/118
f 59/1/51 79/1/51 117/1/122
f 133/1/77 154/1/142 150/1/123
f 120/1/119 119/1/76 139/1/124
f 157/1/127 132/1/116 118/1/84
f 124/1/128 145/1/136 69/1/59
f 44/1/64 138/1/131 140/1/130
f 129/1/138 130/1/143 145/1/136
f 145/1/136 124/1/128 151/1/137
f 137/1/141 150/1/123 154/1/142
f 141/1/132 138/1/131 156/1/140
f 156/1/140 129/1/138 151/1/137
f 128/1/135 96/1/134 108/1/79
f 121/1/139 137/1/141 130/1/143
f 115/1/145 33/1/148 32/1/10
f 32/1/10 116/1/111 114/1/144
