# Blender 4.4.3
# www.blender.org
o wheel_alloy
v -0.217500 0.216776 -0.450140
v -0.217500 0.487091 -0.111175
v -0.217500 0.487091 0.111175
v -0.217500 0.216776 0.450140
v -0.217500 -0.487091 0.111175
v -0.217500 -0.000000 -0.499617
v -0.217500 0.390617 -0.311506
v -0.217500 0.390617 0.311506
v -0.217500 -0.000000 0.499617
v -0.217500 -0.216776 0.450140
v -0.217500 -0.390617 0.311506
v -0.217500 -0.487091 -0.111175
v -0.217500 -0.390617 -0.311506
v -0.217500 -0.216776 -0.450140
v 0.189219 -0.000000 -0.499617
v 0.189219 0.216776 -0.450140
v 0.189219 0.390617 -0.311506
v 0.189219 0.487091 -0.111175
v 0.189219 -0.000000 0.499618
v 0.189219 -0.216776 0.450140
v 0.189219 -0.390617 0.311506
v 0.189219 -0.216776 -0.450140
v 0.214162 -0.330071 -0.075332
v 0.189219 0.487091 0.111175
v 0.189219 0.390617 0.311506
v 0.189219 0.216776 0.450140
v 0.189219 -0.487091 0.111175
v 0.189219 -0.487091 -0.111175
v 0.189219 -0.390617 -0.311506
v 0.214162 0.000019 -0.338570
v 0.214162 0.146923 -0.305040
v 0.214162 0.264730 -0.211092
v 0.214162 0.330109 -0.075332
v 0.214162 0.330109 0.075350
v 0.214162 0.264730 0.211109
v 0.214162 0.146923 0.305058
v 0.214162 0.000019 0.338587
v 0.214162 -0.146885 0.305057
v 0.214162 -0.264693 0.211109
v 0.214162 -0.330071 0.075349
v 0.214162 -0.264693 -0.211092
v 0.214162 -0.146885 -0.305040
v 0.310245 0.000019 0.000009
v 0.242059 -0.000000 -0.423173
v 0.242059 0.183608 -0.381266
v 0.242059 0.330850 -0.263844
v 0.242059 0.412563 -0.094165
v 0.242059 0.412563 0.094165
v 0.242060 0.330850 0.263844
v 0.242060 0.183608 0.381266
v 0.242060 -0.000000 0.423173
v 0.242060 -0.183608 0.381266
v 0.242060 -0.330850 0.263844
v 0.242059 -0.412564 0.094165
v 0.242059 -0.412564 -0.094165
v 0.242059 -0.330850 -0.263844
v 0.242059 -0.183608 -0.381266
vn -0.0000 0.7818 -0.6235
vn -0.0000 0.9749 -0.2225
vn -0.0000 0.7818 0.6235
vn -0.0000 0.4339 0.9010
vn -0.0000 -0.4339 -0.9010
vn -0.0000 -0.0000 -1.0000
vn -0.0000 0.9749 0.2225
vn -0.0000 0.4339 -0.9010
vn -0.0000 -0.9749 0.2225
vn -0.0000 -0.9749 -0.2225
vn -0.0000 -0.7818 -0.6235
vn -0.0000 -0.0000 1.0000
vn -0.0000 -0.4339 0.9010
vn -0.0000 -0.7818 0.6235
vn 0.8226 -0.0000 0.5686
vn 0.9790 -0.0000 0.2036
vn 0.9790 0.0884 0.1835
vn 0.8226 0.2467 0.5123
vn 1.0000 -0.0000 -0.0000
vn 0.9620 -0.0000 -0.2730
vn 0.9620 0.1185 -0.2460
vn 0.9620 0.2134 -0.1702
vn 0.9620 0.2662 -0.0607
vn 0.9620 -0.2662 -0.0607
vn 0.9620 -0.2134 -0.1702
vn 0.9620 0.1185 0.2460
vn 0.9620 0.2134 0.1702
vn 0.9620 -0.0000 0.2730
vn 0.9620 -0.1185 0.2460
vn 0.9620 -0.2134 0.1702
vn 0.9620 -0.2662 0.0607
vn 0.9620 -0.1185 -0.2460
vn 0.9620 0.2662 0.0607
vn 0.8226 -0.4446 0.3545
vn 0.9790 -0.1592 0.1270
vn 0.9790 -0.0884 0.1835
vn 0.8226 -0.2467 0.5123
vn 0.8226 -0.2467 -0.5123
vn 0.9790 -0.0884 -0.1835
vn 0.9790 -0.1592 -0.1270
vn 0.8226 -0.4446 -0.3545
vn 0.8226 0.4446 0.3545
vn 0.9790 0.1592 0.1270
vn 0.9790 0.1985 0.0453
vn 0.8226 0.5544 0.1265
vn 0.8226 -0.0000 -0.5686
vn 0.9790 -0.0000 -0.2037
vn 0.8226 0.5544 -0.1265
vn 0.9790 0.1985 -0.0453
vn 0.9790 0.1592 -0.1270
vn 0.8226 0.4446 -0.3545
vn 0.8226 0.2467 -0.5123
vn 0.9790 0.0884 -0.1835
vn 0.9790 -0.1986 -0.0453
vn 0.8226 -0.5544 -0.1265
vn 0.9497 0.2448 0.1952
vn 0.9497 0.3053 0.0697
vn 0.8226 -0.5544 0.1265
vn 0.9790 -0.1986 0.0453
vn 0.9497 0.1359 -0.2822
vn 0.9497 -0.0000 -0.3132
vn 0.9497 -0.3054 0.0697
vn 0.9497 -0.2449 0.1953
vn 0.9497 -0.1359 -0.2822
vn 0.9497 -0.2449 -0.1953
vn 0.9497 -0.3054 -0.0697
vn 0.9497 -0.1359 0.2822
vn 0.9497 -0.0000 0.3132
vn 0.9497 0.1359 0.2821
vn 0.9497 0.3053 -0.0697
vn 0.9497 0.2448 -0.1953
vn -1.0000 -0.0000 -0.0000
vt 0.000000 1.000000
vt 0.000000 0.500000
vt 0.500000 0.500000
vt 0.500000 1.000000
vt 0.999750 0.250000
vt 0.977967 0.249999
vt 0.955391 0.351454
vt 0.975017 0.361149
vt 0.747388 0.249496
vt 0.540419 0.249496
vt 0.560916 0.341606
vt 0.618345 0.415472
vt 0.701333 0.456465
vt 0.701333 0.042528
vt 0.618345 0.083521
vt 0.933859 0.341606
vt 0.876430 0.415472
vt 0.954356 0.249496
vt 0.933859 0.157387
vt 0.876430 0.083521
vt 0.793442 0.042528
vt 0.560916 0.157387
vt 0.793442 0.456465
vt 0.905717 0.049716
vt 0.892135 0.067184
vt 0.955391 0.148544
vt 0.975017 0.138851
vt 0.524983 0.138851
vt 0.544608 0.148544
vt 0.607865 0.067184
vt 0.594283 0.049716
vt 0.905717 0.450284
vt 0.892135 0.432815
vt 0.800727 0.477966
vt 0.805575 0.499750
vt 0.500250 0.250000
vt 0.522033 0.249999
vt 0.694425 0.499750
vt 0.699272 0.477966
vt 0.607865 0.432815
vt 0.594283 0.450284
vt 0.524983 0.361149
vt 0.544608 0.351454
vt 0.699272 0.022032
vt 0.694425 0.000250
vt 0.620214 0.083073
vt 0.703683 0.041843
vt 0.805575 0.000250
vt 0.800727 0.022032
vt 0.937557 0.157367
vt 0.958172 0.250010
vt 0.703683 0.458178
vt 0.620214 0.416948
vt 0.937557 0.342654
vt 0.879795 0.416948
vt 0.796326 0.458178
vt 0.562452 0.342654
vt 0.541837 0.250010
vt 0.562452 0.157367
vt 0.796326 0.041842
vt 0.879795 0.083073
s 1
f 7/1/1 2/2/2 18/3/2 17/4/1
f 8/1/3 4/2/4 26/3/4 25/4/3
f 14/1/5 6/2/6 15/3/6 22/4/5
f 3/1/7 8/2/3 25/3/3 24/4/7
f 6/1/6 1/2/8 16/3/8 15/4/6
f 5/1/9 12/2/10 28/3/10 27/4/9
f 12/1/10 13/2/11 29/3/11 28/4/10
f 13/1/11 14/2/5 22/3/5 29/4/11
f 4/1/4 9/2/12 19/3/12 26/4/4
f 10/1/13 11/2/14 21/3/14 20/4/13
f 2/1/2 3/2/7 24/3/7 18/4/2
f 1/1/8 7/2/1 17/3/1 16/4/8
f 19/5/15 51/6/16 50/7/17 26/8/18
f 9/1/12 10/2/13 20/3/13 19/4/12
f 43/9/19 30/10/20 31/11/21
f 43/9/19 31/11/21 32/12/22
f 43/9/19 32/12/22 33/13/23
f 23/14/24 41/15/25 43/9/19
f 36/16/26 43/9/19 35/17/27
f 37/18/28 43/9/19 36/16/26
f 38/19/29 43/9/19 37/18/28
f 39/20/30 43/9/19 38/19/29
f 40/21/31 43/9/19 39/20/30
f 23/14/24 43/9/19 40/21/31
f 43/9/19 41/15/25 42/22/32
f 43/9/19 42/22/32 30/10/20
f 43/9/19 33/13/23 34/23/33
f 43/9/19 34/23/33 35/17/27
f 21/24/34 53/25/35 52/26/36 20/27/37
f 22/28/38 57/29/39 56/30/40 29/31/41
f 20/27/37 52/26/36 51/6/16 19/5/15
f 25/32/42 49/33/43 48/34/44 24/35/45
f 57/29/39 22/28/38 15/36/46 44/37/47
f 18/38/48 47/39/49 46/40/50 17/41/51
f 16/42/52 45/43/53 44/37/47 15/36/46
f 17/41/51 46/40/50 45/43/53 16/42/52
f 24/35/45 48/34/44 47/39/49 18/38/48
f 29/31/41 56/30/40 55/44/54 28/45/55
f 26/8/18 50/7/17 49/33/43 25/32/42
f 55/44/54 56/30/40 41/46/56 23/47/57
f 27/48/58 54/49/59 53/25/35 21/24/34
f 28/45/55 55/44/54 54/49/59 27/48/58
f 51/6/16 52/26/36 38/50/60 37/51/61
f 46/40/50 47/39/49 33/52/62 32/53/63
f 50/7/17 51/6/16 37/51/61 36/54/64
f 48/34/44 49/33/43 35/55/65 34/56/66
f 47/39/49 48/34/44 34/56/66 33/52/62
f 49/33/43 50/7/17 36/54/64 35/55/65
f 45/43/53 46/40/50 32/53/63 31/57/67
f 44/37/47 45/43/53 31/57/67 30/58/68
f 57/29/39 44/37/47 30/58/68 42/59/69
f 56/30/40 57/29/39 42/59/69 41/46/56
f 54/49/59 55/44/54 23/47/57 40/60/70
f 53/25/35 54/49/59 40/60/70 39/61/71
f 52/26/36 53/25/35 39/61/71 38/50/60
f 11/1/14 5/2/9 27/3/9 21/4/14
f 1/3/72 6/3/72 14/3/72 13/3/72 12/3/72 5/3/72 11/3/72 10/3/72 9/3/72 4/3/72 8/3/72 3/3/72 2/3/72 7/3/72
